<?xml version="1.0" encoding="utf-8"?>
<!-- Generator: Adobe Illustrator 22.0.1, SVG Export Plug-In . SVG Version: 6.00 Build 0)  -->
<svg version="1.1" id="Capa_1" xmlns="http://www.w3.org/2000/svg" xmlns:xlink="http://www.w3.org/1999/xlink" x="0px" y="0px"
	 viewBox="0 0 155 155" style="enable-background:new 0 0 155 155;" xml:space="preserve">
<style type="text/css">
	.st0{fill:#C7CCDD;}
	.st1{fill:#FCFCFC;}
	.st2{fill:#FFFFFF;stroke:#8C91A5;stroke-miterlimit:10;}
	.st3{fill:#FBFBFA;stroke:#8C91A5;stroke-miterlimit:10;}
	.st4{fill:#BDBDBC;}
	.st5{fill:#ECD1B5;}
	.st6{fill:#FFFFFF;stroke:#8C91A5;stroke-width:0.5;stroke-miterlimit:10;}
	.st7{fill:#C5C9D9;}
	.st8{fill:#878B9F;}
	.st9{fill:#FFFFFF;}
	.st10{fill:#3A3E4B;}
	.st11{font-family:'Raleway-ExtraBold';}
	.st12{font-size:6.9941px;}
	.st13{opacity:0.1;}
	.st14{fill:#181519;}
	.st15{fill:#696E82;}
	.st16{fill:#7DA939;}
</style>
<g>
	<g>
		<path class="st0" d="M155.5,83c-0.3,0.6-0.2,1.2-0.2,1.8c-0.5,5.3-1.5,10.4-3.1,15.5c-1.1,3.6-2.5,7-4.1,10.4
			c-1.8,3.7-3.8,7.3-6.2,10.6c-1.9,2.7-3.9,5.2-6.1,7.7c-1.7,1.8-3.4,3.6-5.2,5.3c-2.5,2.3-5.2,4.4-8,6.4c-3.6,2.5-7.4,4.7-11.4,6.6
			c-5.6,2.6-11.5,4.6-17.5,5.8c-3.2,0.6-6.4,1.1-9.6,1.3c-2.9,0.2-5.8,0.3-8.7,0.2c-3.2-0.1-6.5-0.5-9.7-1
			c-4.3-0.7-8.5-1.7-12.6-3.1c-5.5-1.9-10.6-4.3-15.6-7.3c-3.5-2.2-6.9-4.6-10-7.3c-2.7-2.3-5.2-4.8-7.5-7.4
			c-2.4-2.7-4.6-5.6-6.6-8.6c-1.7-2.5-3.2-5.1-4.5-7.8c-2.5-5-4.4-10.2-5.8-15.6c-0.9-3.4-1.5-6.8-1.9-10.3c-0.5-4.3-0.5-8.7-0.4-13
			C1,70.2,1.4,67,1.9,64c1-5.8,2.7-11.4,5-16.8c1.7-4,3.7-7.8,6.1-11.5c2.3-3.5,4.9-6.9,7.7-10c4.7-5.2,10-9.7,15.9-13.4
			C44.2,7.4,52.5,4,61.4,2c2.8-0.6,5.7-1,8.6-1.4c4.1-0.5,8.2-0.4,12.2-0.3c3.3,0.1,6.7,0.6,10,1.2c3.8,0.7,7.5,1.7,11.2,2.9
			c4.8,1.7,9.4,3.8,13.8,6.3c3.5,2,6.8,4.3,9.9,6.8c2.6,2.1,5.1,4.4,7.4,6.8c3.3,3.5,6.3,7.3,8.9,11.4c3.1,4.8,5.6,9.8,7.5,15.1
			c1.5,4.2,2.7,8.4,3.5,12.8c0.4,2.1,0.7,4.1,0.9,6.2c0.1,0.7,0,1.4,0.2,2.1C155.5,75.7,155.5,79.3,155.5,83z M78.1,149.7
			c39.8,0.2,72.4-32.4,72.4-71.8c0-19.9-7-37-21-51.1c-13.9-14-30.9-21.2-50.7-21.4c-40.6-0.4-73,32.4-73,72.2
			C5.8,117.3,38.4,149.7,78.1,149.7z"/>
		<path class="st1" d="M78.1,149.7c-39.7,0.1-72.3-32.3-72.3-72.2c0-39.7,32.5-72.6,73-72.2c19.7,0.2,36.8,7.4,50.7,21.4
			c14,14.1,21,31.2,21,51.1C150.5,117.2,118,149.8,78.1,149.7z M144.7,77.4C144.9,41,115,11.2,78.8,11
			c-37.2-0.3-67.2,29.9-67.2,66.4c0,36.8,29.7,66.5,66.4,66.6C115,144.1,144.9,113.9,144.7,77.4z"/>
		<path class="st0" d="M144.7,77.4c0.2,36.5-29.7,66.7-66.8,66.5c-36.7-0.1-66.4-29.8-66.4-66.6c0-36.5,29.9-66.6,67.2-66.4
			C115,11.2,144.9,41,144.7,77.4z"/>
	</g>
	<g>
		<g>
			<g>
				<path class="st2" d="M109,147.8c0,3-2.7,5.5-6,5.5H35.4c-3.3,0-6-2.5-6-5.5V8.1c0-3,2.7-5.5,6-5.5H103c3.3,0,6,2.5,6,5.5V147.8z
					"/>
				<rect x="34.1" y="9.5" class="st3" width="70.2" height="125"/>
				<g>
					<g>
						<g>
							<g>
								<rect x="38.9" y="61.5" class="st4" width="0.9" height="0.9"/>
							</g>
							<g>
								<rect x="40.7" y="61.5" class="st4" width="0.9" height="0.9"/>
							</g>
							<g>
								<rect x="42.3" y="61.5" class="st4" width="0.9" height="0.9"/>
							</g>
						</g>
					</g>
				</g>
				<path class="st5" d="M66.2,53.2L66.2,53.2C66.2,53.2,66.2,53.2,66.2,53.2z"/>
				<circle class="st6" cx="69.8" cy="144.1" r="7.3"/>
				<g>
					<g>
						<rect x="35.8" y="17.1" class="st7" width="66.6" height="13.6"/>
					</g>
					<g>
						<g>
							<rect x="38.4" y="20" class="st8" width="7.8" height="1.8"/>
						</g>
						<g>
							<rect x="38.4" y="22.9" class="st8" width="7.8" height="1.8"/>
						</g>
						<g>
							<rect x="38.4" y="25.9" class="st8" width="7.8" height="1.8"/>
						</g>
					</g>
					<g>
						<path class="st8" d="M90.8,23.2v1.6l1.5,0.2c0.1,0.3,0.2,0.6,0.4,0.9l-1,1.2l1.1,1.1l1.2-1c0.3,0.2,0.6,0.3,0.9,0.4L95,29h1.6
							l0.2-1.5c0.3-0.1,0.6-0.2,0.9-0.4l1.2,1l1.1-1.1l-1-1.2c0.2-0.3,0.3-0.6,0.4-0.9l1.5-0.2v-1.6L99.3,23
							c-0.1-0.3-0.2-0.6-0.4-0.9l1-1.2l-1.1-1.1l-1.2,1c-0.3-0.2-0.6-0.3-0.9-0.4l-0.2-1.5H95l-0.2,1.5c-0.3,0.1-0.6,0.2-0.9,0.4
							l-1.2-1L91.7,21l1,1.2c-0.2,0.3-0.3,0.6-0.4,0.9L90.8,23.2z M94.3,24c0-0.4,0.2-0.7,0.4-1c0.3-0.3,0.6-0.4,1-0.4
							s0.8,0.2,1,0.4s0.4,0.6,0.4,1c0,0.4-0.2,0.7-0.4,1c-0.3,0.3-0.6,0.4-1,0.4s-0.8-0.2-1-0.4C94.5,24.7,94.3,24.4,94.3,24z"/>
					</g>
				</g>
				<g>
					<g>
						<path class="st7" d="M104.2,54H36.6V35.4h67.6L104.2,54L104.2,54z M37.4,53.2h66v-17h-66V53.2z"/>
					</g>
					<g>
						<circle class="st9" cx="70.1" cy="51.9" r="10.5"/>
						<path class="st7" d="M70.1,62.8c-6,0-10.9-4.9-10.9-10.9c0-6,4.9-10.9,10.9-10.9c6,0,10.9,4.9,10.9,10.9
							C81.1,57.9,76.1,62.8,70.1,62.8z M70.1,41.8c-5.5,0-10.1,4.5-10.1,10.1s4.5,10.1,10.1,10.1c5.5,0,10.1-4.5,10.1-10.1
							S75.7,41.8,70.1,41.8z"/>
					</g>
				</g>
				<g>
					<g>
						<path class="st10" d="M96.1,13.7V14h-1.4v-0.3h0.5v-1.5c0-0.1,0-0.1,0-0.2l-0.3,0.3c0,0,0,0-0.1,0s0,0,0,0h0c0,0,0,0,0,0
							l-0.2-0.2l0.8-0.7h0.3v2.3L96.1,13.7L96.1,13.7z"/>
						<path class="st10" d="M97.2,12.3l-0.1,0.1C97.2,12.4,97.3,12.4,97.2,12.3c0.1,0.1,0.2,0,0.3,0c0.1,0,0.2,0,0.3,0
							c0.1,0,0.2,0.1,0.2,0.2c0.1,0.1,0.1,0.2,0.2,0.2c0,0.1,0.1,0.2,0.1,0.3c0,0.1,0,0.2-0.1,0.3c0,0.1-0.1,0.2-0.2,0.3
							s-0.2,0.2-0.3,0.2c-0.1,0-0.2,0.1-0.4,0.1S97.1,14,97,14c-0.1,0-0.2-0.1-0.3-0.2s-0.1-0.2-0.2-0.3c0-0.1-0.1-0.2-0.1-0.3
							c0-0.1,0-0.2,0.1-0.4c0-0.1,0.1-0.3,0.2-0.4l0.6-0.8c0,0,0,0,0.1-0.1c0,0,0.1,0,0.2,0H98L97.2,12.3z M97.4,13.7
							c0.1,0,0.1,0,0.2,0c0,0,0.1,0,0.2-0.1c0,0,0.1-0.1,0.1-0.2c0,0,0-0.1,0-0.2s0-0.2,0-0.2c0-0.1,0-0.1-0.1-0.2
							c0,0-0.1-0.1-0.2-0.1c0,0-0.1,0-0.2,0c-0.1,0-0.1,0-0.2,0c0,0-0.1,0-0.2,0.1c0,0-0.1,0.1-0.1,0.2c0,0,0,0.1,0,0.2s0,0.1,0,0.2
							c0,0.1,0,0.1,0.1,0.2c0,0,0.1,0.1,0.2,0.1C97.2,13.7,97.3,13.7,97.4,13.7z"/>
						<path class="st10" d="M98.6,12.5c0,0,0-0.1,0-0.1c0,0,0-0.1,0-0.1c0,0,0,0,0.1,0s0.1,0,0.1,0c0,0,0.1,0,0.1,0c0,0,0.1,0,0.1,0
							c0,0,0,0,0,0.1s0,0.1,0,0.1s0,0.1,0,0.1c0,0,0,0.1,0,0.1c0,0,0,0-0.1,0c0,0-0.1,0-0.1,0c0,0-0.1,0-0.1,0c0,0-0.1,0-0.1,0
							c0,0,0,0,0-0.1C98.6,12.6,98.6,12.5,98.6,12.5z M98.6,13.7c0,0,0-0.1,0-0.1c0,0,0-0.1,0-0.1c0,0,0,0,0.1,0s0.1,0,0.1,0
							c0,0,0.1,0,0.1,0c0,0,0.1,0,0.1,0c0,0,0,0,0,0.1c0,0,0,0.1,0,0.1c0,0,0,0.1,0,0.1c0,0,0,0.1,0,0.1c0,0,0,0-0.1,0
							c0,0-0.1,0-0.1,0c0,0-0.1,0-0.1,0c0,0-0.1,0-0.1,0c0,0,0,0,0-0.1C98.6,13.8,98.6,13.8,98.6,13.7z"/>
						<path class="st10" d="M101.1,13.7V14h-1.4v-0.3h0.5v-1.5c0-0.1,0-0.1,0-0.2l-0.3,0.3c0,0,0,0-0.1,0s0,0,0,0h0c0,0,0,0,0,0
							l-0.2-0.2l0.8-0.7h0.3v2.3L101.1,13.7L101.1,13.7z"/>
						<path class="st10" d="M103.2,13.7V14h-1.4v-0.3h0.5v-1.5c0-0.1,0-0.1,0-0.2l-0.3,0.3c0,0,0,0-0.1,0s0,0-0.1,0h0c0,0,0,0,0,0
							l-0.2-0.2l0.8-0.7h0.3v2.3L103.2,13.7L103.2,13.7z"/>
					</g>
					<g>
						<g>
							<path class="st10" d="M91.7,12.6L91.7,12.6C91.7,12.6,91.8,12.6,91.7,12.6C91.8,12.6,91.8,12.6,91.7,12.6L91.7,12.6
								C91.8,12.6,91.8,12.6,91.7,12.6L91.7,12.6l0-0.1c0,0,0,0,0,0l0,0c0,0,0,0,0,0c0,0,0,0,0,0l0,0c0,0,0,0,0,0L91.7,12.6
								C91.7,12.6,91.7,12.6,91.7,12.6L91.7,12.6z"/>
						</g>
						<g>
							<path class="st10" d="M91.5,12.5C91.5,12.5,91.5,12.5,91.5,12.5C91.4,12.5,91.4,12.5,91.5,12.5l-0.1,0c0,0,0,0,0,0
								c0,0,0,0,0,0.1c0,0,0,0,0,0.1c0,0,0,0.1,0,0.1c0,0,0,0,0,0.1c0,0,0,0,0,0h0h0c0,0,0,0,0,0c0,0,0,0,0-0.1c0,0,0,0,0-0.1
								C91.5,12.7,91.5,12.6,91.5,12.5C91.5,12.6,91.5,12.5,91.5,12.5z"/>
						</g>
						<g>
							<path class="st10" d="M91,12.5C91,12.5,91,12.5,91,12.5C91,12.5,91,12.5,91,12.5l-0.1,0c0,0,0,0,0,0c0,0,0,0,0,0.1
								c0,0,0,0,0,0.1c0,0,0,0.1,0,0.1c0,0,0,0,0,0.1l0,0h0h0c0,0,0,0,0,0c0,0,0,0,0-0.1c0,0,0,0,0-0.1C91.1,12.7,91.1,12.6,91,12.5
								C91.1,12.6,91.1,12.5,91,12.5z"/>
						</g>
						<g>
							<path class="st10" d="M92.1,12.8L92.1,12.8L92.1,12.8C92,12.8,92,12.8,92.1,12.8L92.1,12.8C92,12.8,92,12.8,92.1,12.8
								L92.1,12.8l0,0.1c0,0,0,0,0,0l0,0c0,0,0,0,0,0c0,0,0,0,0,0l0,0c0,0,0,0,0,0L92.1,12.8C92.1,12.8,92.1,12.8,92.1,12.8
								C92.1,12.8,92.1,12.8,92.1,12.8z"/>
						</g>
						<g>
							<path class="st10" d="M91.9,11.1v-0.3h-1.2v0.3h-0.5v3.3h2.3v-3.3H91.9z M90.7,13h-0.3v-0.1h0.1v-0.3v0l-0.1,0.1l0,0l0,0l0,0
								l0,0l0,0l0.2-0.2h0.1L90.7,13L90.7,13L90.7,13L90.7,13z M91.2,12.8C91.2,12.9,91.1,12.9,91.2,12.8c0,0.1-0.1,0.1-0.1,0.1
								c0,0,0,0-0.1,0c0,0,0,0-0.1,0c0,0,0,0-0.1,0c0,0,0,0,0-0.1c0,0,0-0.1,0-0.1c0,0,0-0.1,0-0.1s0-0.1,0-0.1c0,0,0,0,0.1,0
								c0,0,0,0,0.1,0s0,0,0.1,0c0,0,0,0,0.1,0c0,0,0,0,0,0.1c0,0,0,0.1,0,0.1C91.2,12.7,91.2,12.8,91.2,12.8z M91.6,12.8
								C91.6,12.9,91.5,12.9,91.6,12.8c0,0.1-0.1,0.1-0.1,0.1s0,0-0.1,0s0,0-0.1,0s0,0-0.1,0c0,0,0,0,0-0.1c0,0,0-0.1,0-0.1
								c0,0,0-0.1,0-0.1s0-0.1,0-0.1c0,0,0,0,0.1,0s0,0,0.1,0s0,0,0.1,0s0,0,0.1,0c0,0,0,0,0,0.1c0,0,0,0.1,0,0.1
								C91.6,12.7,91.6,12.8,91.6,12.8z M91.7,12.6C91.7,12.5,91.7,12.5,91.7,12.6C91.7,12.5,91.7,12.5,91.7,12.6l0.1-0.1h0h0
								c0,0,0,0,0,0l0,0v0c0,0,0,0,0,0s0,0,0,0l0,0h0h0C91.7,12.7,91.7,12.7,91.7,12.6C91.7,12.7,91.7,12.6,91.7,12.6
								C91.7,12.6,91.7,12.6,91.7,12.6z M91.8,13C91.7,13,91.7,13,91.8,13L91.8,13l0.3-0.5l0,0l0,0h0.1L91.8,13L91.8,13z M92.2,12.9
								C92.2,12.9,92.2,12.9,92.2,12.9L92.2,12.9L92,13h0c0,0,0,0,0,0c0,0,0,0,0,0v0c0,0,0,0,0,0s0,0,0,0l0,0h0h0c0,0,0,0,0,0
								C92.1,12.8,92.1,12.8,92.2,12.9L92.2,12.9C92.2,12.9,92.2,12.9,92.2,12.9z"/>
						</g>
						<g>
							<path class="st10" d="M79.3,11.6c0.7,0.9,1.5,1.8,2.3,2.8c0.8-1,1.5-1.9,2.3-2.8C82.6,10.6,80.6,10.6,79.3,11.6z"/>
						</g>
						<g>
							<path class="st10" d="M87.8,14.4c0-1.2,0-2.3,0-3.3c-1.1,1.1-2.2,2.2-3.3,3.3C85.5,14.4,86.7,14.4,87.8,14.4z"/>
						</g>
					</g>
				</g>
				<g>
					<path class="st10" d="M38,13c0,0.2,0,0.3-0.1,0.4c0,0.2-0.1,0.3-0.2,0.3c-0.1,0.1-0.2,0.2-0.3,0.2c-0.1,0-0.3,0.1-0.5,0.1
						c-0.2,0-0.3,0-0.5-0.1c-0.1,0-0.2-0.1-0.3-0.2c-0.1-0.1-0.2-0.2-0.2-0.3c0-0.1-0.1-0.3-0.1-0.4c0-0.2,0-0.3,0.1-0.4
						c0-0.2,0.1-0.3,0.2-0.3c0.1-0.1,0.2-0.2,0.3-0.2c0.1,0,0.3-0.1,0.5-0.1c0.1,0,0.2,0,0.3,0c0.1,0,0.2,0.1,0.3,0.1
						c0.1,0,0.2,0.1,0.2,0.2c0.1,0.1,0.1,0.2,0.2,0.2c0,0.1,0.1,0.2,0.1,0.3C38,12.8,38,12.9,38,13z M37.6,13c0-0.1,0-0.2,0-0.3
						c0-0.1-0.1-0.2-0.2-0.2c-0.1-0.1-0.1-0.1-0.2-0.2c-0.1,0-0.2,0-0.3,0c-0.1,0-0.2,0-0.3,0c-0.1,0-0.2,0.1-0.2,0.2
						s-0.1,0.2-0.2,0.2c0,0.1,0,0.2,0,0.3c0,0.1,0,0.2,0,0.3c0,0.1,0.1,0.2,0.2,0.2c0.1,0.1,0.1,0.1,0.2,0.2c0.1,0,0.2,0,0.3,0
						c0.1,0,0.2,0,0.3,0c0.1,0,0.2-0.1,0.2-0.2s0.1-0.2,0.2-0.2C37.6,13.2,37.6,13.2,37.6,13z"/>
					<path class="st10" d="M39.1,11.9c0.2,0,0.3,0,0.4,0c0.1,0,0.2,0.1,0.3,0.2c0.1,0.1,0.1,0.1,0.2,0.2c0,0.1,0,0.2,0,0.3
						c0,0.1,0,0.2,0,0.3c0,0.1-0.1,0.2-0.2,0.2c-0.1,0.1-0.2,0.1-0.3,0.2c-0.1,0-0.2,0-0.4,0h-0.3v0.8h-0.4v-2.2L39.1,11.9z
						 M39.1,13c0.1,0,0.2,0,0.2,0c0,0,0.1,0,0.2-0.1c0,0,0.1-0.1,0.1-0.1c0,0,0-0.1,0-0.2c0-0.1,0-0.1,0-0.2c0,0,0-0.1-0.1-0.1
						c0,0-0.1,0-0.2-0.1c0,0-0.1,0-0.2,0h-0.3V13L39.1,13z"/>
					<path class="st10" d="M40.6,12.3v0.6h0.8v0.3h-0.8v0.6h1v0.3h-1.4v-2.2h1.4v0.3L40.6,12.3L40.6,12.3z"/>
					<path class="st10" d="M43.7,14.1h-0.3c-0.1,0-0.1,0-0.2-0.1l-0.5-0.7c0,0,0,0,0,0c0,0,0,0-0.1,0h-0.2v0.9H42V12h0.7
						c0.2,0,0.3,0,0.4,0c0.1,0,0.2,0.1,0.3,0.1c0.1,0,0.1,0.1,0.2,0.2c0,0.1,0,0.2,0,0.3c0,0.1,0,0.2,0,0.2c0,0.1,0,0.1-0.1,0.2
						c0,0-0.1,0.1-0.2,0.2c-0.1,0-0.1,0.1-0.2,0.1c0,0,0,0,0.1,0c0,0,0,0,0.1,0.1L43.7,14.1z M42.6,13c0.1,0,0.2,0,0.2,0
						c0,0,0.1,0,0.2-0.1c0,0,0.1-0.1,0.1-0.1c0,0,0-0.1,0-0.2c0-0.1,0-0.2-0.1-0.3s-0.2-0.1-0.3-0.1h-0.3V13H42.6z"/>
					<path class="st10" d="M45.7,14.1h-0.3c0,0-0.1,0-0.1,0c0,0,0,0,0-0.1l-0.2-0.4h-0.9L44.1,14c0,0,0,0,0,0.1c0,0,0,0-0.1,0h-0.3
						l0.9-2.2h0.4L45.7,14.1z M45.1,13.3l-0.3-0.7c0,0,0-0.1,0-0.1s0-0.1,0-0.2c0,0,0,0.1,0,0.2s0,0.1,0,0.1l-0.3,0.7H45.1z"/>
					<path class="st10" d="M47.9,13c0,0.2,0,0.3-0.1,0.4c0,0.1-0.1,0.2-0.2,0.3c-0.1,0.1-0.2,0.2-0.3,0.2c-0.1,0-0.3,0.1-0.5,0.1H46
						v-2.2h0.8c0.2,0,0.3,0,0.5,0.1c0.1,0,0.2,0.1,0.3,0.2c0.1,0.1,0.2,0.2,0.2,0.3C47.9,12.7,47.9,12.9,47.9,13z M47.5,13
						c0-0.1,0-0.2,0-0.3c0-0.1-0.1-0.2-0.2-0.2c-0.1-0.1-0.1-0.1-0.2-0.2c-0.1,0-0.2,0-0.3,0h-0.4v1.5h0.4c0.1,0,0.2,0,0.3,0
						s0.2-0.1,0.2-0.2c0.1-0.1,0.1-0.2,0.2-0.2C47.5,13.2,47.5,13.2,47.5,13z"/>
					<path class="st10" d="M50.3,13c0,0.2,0,0.3-0.1,0.4c0,0.2-0.1,0.3-0.2,0.3c-0.1,0.1-0.2,0.2-0.3,0.2c-0.1,0-0.3,0.1-0.5,0.1
						c-0.2,0-0.3,0-0.5-0.1c-0.1,0-0.2-0.1-0.3-0.2c-0.1-0.1-0.2-0.2-0.2-0.3c0-0.1-0.1-0.3-0.1-0.4c0-0.2,0-0.3,0.1-0.4
						c0-0.2,0.1-0.3,0.2-0.3c0.1-0.1,0.2-0.2,0.3-0.2c0.2,0,0.3-0.1,0.5-0.1c0.1,0,0.2,0,0.3,0c0.1,0,0.2,0.1,0.3,0.1
						c0.1,0,0.2,0.1,0.2,0.2c0.1,0.1,0.1,0.2,0.2,0.2c0,0.1,0.1,0.2,0.1,0.3C50.3,12.8,50.3,12.9,50.3,13z M49.9,13
						c0-0.1,0-0.2,0-0.3c0-0.1-0.1-0.2-0.2-0.2c-0.1-0.1-0.1-0.1-0.2-0.2c-0.1,0-0.2,0-0.3,0c-0.1,0-0.2,0-0.3,0
						c-0.1,0-0.2,0.1-0.2,0.2c-0.1,0.1-0.1,0.2-0.2,0.2c0,0.1,0,0.2,0,0.3c0,0.1,0,0.2,0,0.3c0,0.1,0.1,0.2,0.2,0.2
						c0.1,0.1,0.1,0.1,0.2,0.2c0.1,0,0.2,0,0.3,0c0.1,0,0.2,0,0.3,0c0.1,0,0.2-0.1,0.2-0.2c0.1-0.1,0.1-0.2,0.2-0.2
						C49.9,13.2,49.9,13.2,49.9,13z"/>
					<path class="st10" d="M52.4,14.1H52c-0.1,0-0.1,0-0.2-0.1l-0.5-0.7c0,0,0,0,0,0c0,0,0,0-0.1,0h-0.2v0.9h-0.4V12h0.7
						c0.2,0,0.3,0,0.4,0c0.1,0,0.2,0.1,0.3,0.1c0.1,0,0.1,0.1,0.2,0.2c0,0.1,0,0.2,0,0.3c0,0.1,0,0.2,0,0.2c0,0.1,0,0.1-0.1,0.2
						c0,0-0.1,0.1-0.2,0.2c-0.1,0-0.1,0.1-0.2,0.1c0,0,0,0,0.1,0c0,0,0,0,0.1,0.1L52.4,14.1z M51.3,13c0.1,0,0.2,0,0.2,0
						c0,0,0.1,0,0.2-0.1c0,0,0.1-0.1,0.1-0.1c0,0,0-0.1,0-0.2c0-0.1,0-0.2-0.1-0.3s-0.2-0.1-0.3-0.1h-0.3V13H51.3z"/>
				</g>
				<g>
					<rect x="35.7" y="119.5" class="st7" width="67.2" height="13.6"/>
				</g>
				<g>
					<rect x="37" y="60.1" class="st7" width="14.7" height="10.4"/>
				</g>
				<g>
					<rect x="36.1" y="103.2" class="st7" width="66.7" height="10.4"/>
				</g>
				<g>
					<path class="st8" d="M47.7,128.3c0,0.1,0,0.3-0.1,0.5c0,0.2-0.1,0.3-0.2,0.4c-0.1,0.2-0.3,0.4-0.8,0.7
						c-0.4,0.2-0.8,0.3-1.2,0.3c-0.1,0-0.2,0-0.3,0c-0.1,0-0.2,0-0.3-0.1c-0.2,0-0.2-0.1-0.3-0.1c-0.1,0-0.2-0.1-0.3-0.1
						c-0.2-0.1-0.3-0.1-0.3-0.1c-0.4-0.2-0.8-0.3-1.1-0.5c-0.5-0.3-1.1-0.8-1.7-1.4s-1-1.2-1.4-1.7c-0.2-0.3-0.4-0.7-0.5-1.1
						c0,0,0-0.2-0.1-0.3c-0.1-0.2-0.1-0.3-0.2-0.3c0-0.1-0.1-0.2-0.1-0.3c0-0.2,0-0.3-0.1-0.3c0-0.1,0-0.2,0-0.3
						c0-0.4,0.1-0.8,0.3-1.2c0.2-0.4,0.5-0.7,0.7-0.8c0.1,0,0.3-0.1,0.4-0.2c0.2,0,0.3-0.1,0.5-0.1c0.1,0,0.1,0,0.2,0
						c0.1,0,0.2,0.2,0.3,0.5c0,0.1,0.1,0.2,0.2,0.3s0.2,0.3,0.2,0.4s0.2,0.2,0.2,0.3c0,0,0,0.1,0.1,0.2c0.1,0.1,0.1,0.2,0.2,0.2
						c0,0.1,0,0.1,0,0.2c0,0.1-0.1,0.2-0.2,0.3s-0.3,0.2-0.4,0.3c-0.2,0.1-0.3,0.2-0.4,0.3s-0.2,0.2-0.2,0.3s0,0.1,0,0.2
						c0,0.1,0,0.1,0,0.1c0,0,0,0.1,0.1,0.2c0,0.1,0.1,0.1,0.1,0.1c0.3,0.6,0.7,1.1,1.1,1.5c0.4,0.4,0.9,0.8,1.5,1.1c0,0,0,0,0.1,0.1
						c0.1,0,0.1,0.1,0.2,0.1c0,0,0.1,0,0.1,0c0,0,0.1,0,0.2,0s0.2,0,0.3-0.2s0.2-0.2,0.3-0.4c0.1-0.2,0.2-0.3,0.3-0.4
						c0.1-0.1,0.2-0.2,0.3-0.2c0,0,0.1,0,0.2,0c0.1,0,0.2,0.1,0.2,0.2c0.1,0.1,0.2,0.1,0.2,0.1c0.1,0.1,0.2,0.1,0.3,0.2
						c0.1,0.1,0.3,0.2,0.4,0.2c0.2,0.1,0.3,0.2,0.3,0.2c0.3,0.2,0.5,0.3,0.5,0.3C47.7,128.2,47.7,128.2,47.7,128.3z"/>
				</g>
				<g>
					<path class="st8" d="M98.9,122.6c0.3,0,0.6,0.1,0.8,0.3c0.2,0.2,0.3,0.5,0.3,0.8v5c0,0.3-0.1,0.6-0.3,0.8
						c-0.2,0.2-0.5,0.3-0.8,0.3H91c-0.3,0-0.6-0.1-0.8-0.3c-0.2-0.2-0.3-0.5-0.3-0.8v-5c0-0.3,0.1-0.6,0.3-0.8
						c0.2-0.2,0.5-0.3,0.8-0.3H98.9L98.9,122.6z M94.3,127.5l-0.9-0.8l-2.1,2.1h7.1l-2.1-2.1l-0.9,0.8c-0.2,0.2-0.4,0.2-0.6,0.2
						C94.7,127.7,94.5,127.6,94.3,127.5z M91,128.3l2-2l-2-1.7L91,128.3L91,128.3z M96.9,126.3l2,2v-3.8L96.9,126.3z M98.9,123.7H91
						v0.1l3.7,3.2c0.1,0,0.2,0.1,0.2,0.1c0.1,0,0.2,0,0.2-0.1l3.7-3.2V123.7z"/>
				</g>
				<g>
					<path class="st8" d="M75.6,123.1c0.1,0.1,0.2,0.2,0.2,0.4v7.3c0,0.2-0.1,0.3-0.2,0.4c-0.1,0-0.1,0.1-0.2,0.1
						c-0.1,0-0.2,0-0.2-0.1l-2.7-1.7l-2.7,1.7c-0.2,0.1-0.3,0.1-0.4,0l-2.7-1.7l-2.7,1.7c-0.1,0.1-0.3,0.1-0.4,0
						c-0.1-0.1-0.2-0.2-0.2-0.4v-7.3c0-0.2,0.1-0.3,0.2-0.4l2.9-1.8c0.2-0.1,0.3-0.1,0.4,0l2.7,1.7l2.7-1.7c0.1-0.1,0.3-0.1,0.4,0
						L75.6,123.1z M66.2,128.8v-6.4l-2.1,1.3v6.4L66.2,128.8z M69.2,130.1v-6.4l-2.1-1.3v6.4L69.2,130.1z M72.1,128.8v-6.4l-2.1,1.3
						v6.4L72.1,128.8z M75,130.1v-6.4l-2.1-1.3v6.4L75,130.1z"/>
				</g>
				<text transform="matrix(1 0 0 1 58.623 26.4946)" class="st8 st11 st12">App  :)</text>
				<g class="st13">
					<polyline class="st14" points="48.1,9.5 104.3,9.6 104.3,134.5 					"/>
				</g>
			</g>
			<path class="st15" d="M69,36.4l78.7,0.2l-0.2,54.9l-46.4-0.2l-32.3,23.9l11.1-24l-11.1,0L69,36.4z"/>
		</g>
		<path class="st16" d="M103.3,83.3l-19-19l9-9.1l10,9.9l22.8-22.8l9.1,9.1L103.3,83.3z"/>
	</g>
</g>
</svg>
