<?xml version="1.0" encoding="utf-8"?>
<!-- Generator: Adobe Illustrator 22.0.1, SVG Export Plug-In . SVG Version: 6.00 Build 0)  -->
<svg version="1.1" id="Capa_1" xmlns="http://www.w3.org/2000/svg" xmlns:xlink="http://www.w3.org/1999/xlink" x="0px" y="0px"
	 viewBox="0 0 155 155" style="enable-background:new 0 0 155 155;" xml:space="preserve">
<style type="text/css">
	.st0{fill:#FFFFFF;}
	.st1{fill:#C8CCDC;}
	.st2{fill:#C8CCDB;}
	.st3{fill:#5CA25D;}
	.st4{fill:#72B46E;}
	.st5{fill:#FDFDFD;}
	.st6{fill:#090909;}
	.st7{fill:#ECEBEB;}
	.st8{fill:#5DA25D;}
	.st9{fill:#D6E6F2;}
	.st10{fill:#FCFDFC;}
</style>
<g>
	<g>
		<path class="st0" d="M153.8,73.2c0,3,0,6.1,0,9.1c0,0.2-0.1,0.4-0.1,0.6c-0.3,4.8-1.1,9.5-2.3,14.1c-9.7,37.1-45.2,61.3-83.2,57
			c-11-1.3-21.2-4.7-30.7-10.4C8.7,126.7-5.7,92.6,2.1,60.1C11,22.5,47.4-4.1,88.3,1.8c15.7,2.3,29.5,8.9,41.1,19.8
			c13.9,13,21.9,29.1,24.1,48.1C153.6,70.9,153.7,72.1,153.8,73.2z"/>
	</g>
	<g>
		<path class="st1" d="M126.4,18.9c2.3,1.9,4.5,3.9,6.5,6.1c3.8,4,7.2,8.4,10,13.2c3.2,5.3,5.7,10.9,7.5,16.8
			c0.9,2.8,1.6,5.6,2.1,8.5c0.4,2.3,0.7,4.6,1,6.9c0.1,0.7-0.1,1.4,0.2,2c0,3.7,0,7.3,0,11c-0.3,0.6-0.2,1.3-0.2,1.9
			c-0.3,3.8-1,7.5-1.9,11.2c-0.9,3.7-2.2,7.4-3.6,10.9c-2.1,5-4.6,9.6-7.7,14c-1.9,2.7-4,5.3-6.2,7.8c-1.6,1.8-3.4,3.5-5.1,5.2
			c-2.5,2.3-5.2,4.4-8,6.4c-2.5,1.7-5,3.3-7.6,4.7c-3.1,1.7-6.4,3.1-9.7,4.4c-2.7,1-5.5,1.9-8.3,2.6c-2.9,0.7-5.8,1.3-8.8,1.6
			c-2,0.2-4,0.4-6,0.5c-2.1,0.1-4.3,0.1-6.4,0.1c-1,0-2,0-3-0.2c-0.2-0.1-0.4,0-0.3-0.4c0.1-1.5-0.3-2.9-1.1-4.1
			c-0.1-0.2-0.3-0.3-0.2-0.5c0.1-0.2,0.4-0.1,0.5-0.1c3.3,0.3,6.6,0.3,9.9,0.2c2.5-0.1,5-0.4,7.5-0.7c3.2-0.5,6.4-1.2,9.6-2.1
			c3-0.9,5.9-1.9,8.7-3.2c4.5-2,8.7-4.3,12.6-7.2c2.3-1.6,4.5-3.3,6.5-5.2c1.4-1.3,2.8-2.6,4.1-4c2.4-2.5,4.6-5.2,6.6-8
			c2.6-3.6,4.8-7.5,6.7-11.6c2.4-5.1,4.1-10.5,5.2-16c0.6-3.1,1-6.3,1.2-9.5c0.2-2.6,0.2-5.3,0.1-7.9c-0.3-6.1-1.4-12-3.2-17.9
			c-1.3-4-2.9-8-4.9-11.7c-2.3-4.4-5.1-8.6-8.3-12.4c-1.8-2.2-3.8-4.3-5.8-6.3c-0.2-0.2-0.3-0.3-0.5-0.4
			C126.2,23.2,126.3,21.1,126.4,18.9z"/>
		<path class="st1" d="M56.1,106.8c-2.8-0.3-5.3,0.5-7.4,2.4c-2.1,1.9-3.1,4.3-3.1,7.1c0,0.7,0.1,1.4,0.3,2.1c0.1,0.5,0,0.6-0.4,0.6
			c-1.3-0.1-2.6,0.1-3.8,0.6c-0.7,0.3-1.3,0.6-1.9,1.1c-0.4,0.3-0.5,0.3-0.8-0.1c-2.2-3.1-5.2-5.3-8.8-6.6c-2.2-0.7-4.4-1.1-6.7-1
			c-0.5,0-1.1,0.1-1.6,0.2c-0.5,0.1-0.7,0-1-0.4c-2.3-3.6-4.2-7.4-5.7-11.4c-1.7-4.5-3-9.2-3.7-13.9c-0.3-2-0.5-4-0.6-6
			c-0.1-1.9-0.1-3.8-0.1-5.7c0.1-2.6,0.3-5.3,0.7-7.9c0.6-4,1.6-7.9,2.9-11.7c1.6-4.6,3.7-9,6.3-13.1c2.3-3.7,4.9-7.1,7.8-10.2
			c4.8-5.1,10.2-9.4,16.4-12.8c5.3-2.9,10.8-5.1,16.6-6.5c2.7-0.6,5.4-1.1,8.2-1.4c3.4-0.4,6.8-0.5,10.2-0.3
			c2.9,0.1,5.7,0.4,8.6,0.9c2.4,0.4,4.8,1,7.1,1.7c-0.1,0.1-0.2,0.1-0.2,0.2c-0.9,0.8-1.9,1.3-2.6,2.3c-0.3,0-0.4,0.1-0.6,0.3
			c-0.4,0.4-0.9,0.8-1.3,1.2c-2.5,2.1-4.8,4.3-7,6.7c-3,3.2-5.8,6.5-8.4,9.9c-3.1,4.1-6,8.3-8.6,12.7c-2.5,4.1-4.7,8.3-6.7,12.6
			c-1,2.2-2,4.5-2.9,6.8c-2,0-4,0.4-5.9,0.9c-9.1,2.2-16.7,6.9-22.6,14.3c-3.9,4.9-6.5,10.4-7.9,16.4c-0.2,0.8-0.3,1.7-0.5,2.6
			c0.2-0.1,0.3-0.2,0.3-0.2c3.6-2.8,7.6-4.9,12-6.4c3.1-1.1,6.4-1.7,9.7-2c2.1-0.2,4.2-0.2,6.3,0c0.6,0,1.3,0,1.9,0.3
			c0,1.3-0.2,2.6-0.4,3.9c0,0.4,0,0.7,0.5,0.8c0.5,0.1,0.9,0.2,1.4,0.4c0.3,0.1,0.6,0,0.8,0.4c-0.6,0.9-1.1,1.9-1.7,2.8
			c-0.2,0.4-0.2,0.5,0.2,0.7c1.8,1.1,3.6,2.1,5.4,3.2c0.1,0.1,0.2,0.2,0.4,0.1c0,0.1,0,0.1,0,0.2C56.6,105.7,56.3,106.2,56.1,106.8z
			 M39.3,112.8c2,0.1,4-1.6,4-3.9c0-2.4-1.8-4-4-4c-2.2,0-3.9,1.8-4,4C35.2,110.8,37.1,113.1,39.3,112.8z"/>
		<path class="st2" d="M125.3,32.2c0,0.7,0.6,1.1,0.9,1.5c2.2,2.4,4.2,5,5.9,7.7c3,4.6,5.5,9.4,7.3,14.6c1.4,3.8,2.3,7.8,3,11.8
			c0.4,2.8,0.6,5.6,0.7,8.4c0.1,1.9,0,3.8-0.1,5.7c-0.1,3.3-0.6,6.6-1.3,9.8c-1.3,6-3.3,11.7-6.2,17.1c-2.1,3.9-4.5,7.5-7.3,10.9
			c-1.6,2-3.3,3.9-5.1,5.6c-4.1,3.9-8.6,7.3-13.5,10.1c-3.9,2.2-8.1,4.1-12.4,5.5c-3.4,1.1-6.9,1.9-10.4,2.4
			c-2.4,0.4-4.9,0.5-7.4,0.7c-2.2,0.1-4.3,0-6.5-0.1c-1.4,0-2.7-0.2-4.1-0.4c-0.5,0-0.3-0.3-0.1-0.5c0.6-0.9,1-1.9,1.2-3
			c0.2-1.9-0.3-3.5-1.5-4.9c-2-2.3-4.7-2.9-7.6-1.8c-0.9,0.4-1.6,0.9-2.2,1.6c-0.2,0.3-0.4,0.3-0.6,0.1c-1.4-1-3-1.8-4.7-2.2
			c-0.5-0.1-0.4-0.4-0.2-0.7c0.7-1.4,1.1-2.8,1-4.4c0-0.6-0.2-1.1-0.2-1.7c0-0.3-0.1-0.5,0.4-0.5c2.5,0.3,4.7-0.4,6.6-1.9
			c2.7-2.1,3.9-4.9,3.7-8.2c-0.1-1.4-0.4-2.7-1.3-3.9c0.5-0.6,1-1.2,1.5-1.8c1.7,1,3.5,2.1,5.2,3.1c0.9,0.5,0.9,0.6,1.4-0.3
			c0.5-0.8,1.1-1.5,1.4-2.5c0.2,0,0.4,0,0.6,0.2c0.4,0.4,0.9,0.8,1.2,1.2c0.3,0.5,0.6,0.4,1,0.1c1.1-0.8,2.2-1.5,3.3-2.2
			c0.8,1.4,1.8,2.7,2.5,4.1c4.2,7.7,5.9,15.9,4.9,24.6c-0.1,0.5-0.1,1-0.2,1.7c0.3-0.2,0.5-0.3,0.6-0.5c2.5-2,4.7-4.3,6.6-6.8
			c6.5-8.7,9.3-18.5,8.1-29.4c-0.4-4-1.5-7.8-3.1-11.6c-0.1-0.2-0.1-0.5-0.4-0.5c2.1-2.3,3.9-4.9,5.8-7.4c1.9-2.7,3.7-5.5,5.5-8.3
			c1.9-3.1,3.6-6.2,5.2-9.5c1.1-2.1,2-4.3,3-6.4c1.5-3.5,2.9-7,4.1-10.6c1.2-3.7,2.2-7.4,3-11.2c0.1-0.6,0.5-1.2,0.2-1.9
			c0.2-0.1,0.1-0.2,0.2-0.3C124.9,34.3,125.1,33.2,125.3,32.2z"/>
		<path class="st1" d="M101.3,10.2c-3.5-1.3-7.1-2.3-10.8-3c-2.7-0.5-5.4-0.8-8.1-1.1C79.8,6,77.2,5.9,74.6,6
			c-4.7,0.2-9.4,0.8-13.9,1.9c-5,1.2-9.7,2.8-14.4,5C41,15.3,36.2,18.4,31.7,22c-2.8,2.2-5.3,4.7-7.7,7.3c-4,4.4-7.5,9.2-10.3,14.4
			c-3,5.6-5.3,11.6-6.8,17.8c-0.6,2.7-1.1,5.3-1.4,8.1c-0.2,1.7-0.3,3.5-0.4,5.2C5,76.2,5,77.6,5,79.1c0.1,3,0.3,5.9,0.7,8.9
			c0.7,4.8,1.9,9.4,3.5,14c1.6,4.5,3.6,8.7,6.1,12.8c0.3,0.5,0.2,0.7-0.2,0.9c-1.1,0.6-2.1,1.4-3,2.3c-0.4,0.4-0.6,0.4-0.9-0.1
			c-1.9-3.1-3.6-6.4-5-9.7c-1.6-3.7-2.9-7.5-3.8-11.3c-0.5-2.1-1-4.2-1.3-6.4c-0.3-1.9-0.5-3.9-0.7-5.8C0,81.5,0,78.6,0,75.6
			c0-3,0.3-6,0.8-9c0.8-5.2,2-10.2,3.8-15.2c1.5-4.1,3.3-8,5.5-11.8c1.5-2.6,3.1-5.1,4.9-7.6c1.5-2,3.1-3.9,4.7-5.7
			c1.6-1.8,3.3-3.5,5-5.1c3.5-3.2,7.2-6.1,11.2-8.6c2.3-1.4,4.7-2.8,7.1-4c4.5-2.2,9.1-3.9,13.9-5.2c2.2-0.6,4.5-1.1,6.7-1.5
			c2.2-0.4,4.4-0.6,6.6-0.8c3.6-0.3,7.1-0.3,10.7-0.2c3.1,0.1,6.3,0.5,9.3,1.1c2,0.4,3.9,0.7,5.8,1.2c3.4,0.9,6.7,2,9.9,3.3
			c0.3,0.1,0.6,0.3,0.9,0.3C105,8,103.2,9.1,101.3,10.2z"/>
		<path class="st3" d="M125.3,32.2c-0.2,1-0.4,2.1-0.6,3.1c0,0.1,0,0.3-0.2,0.3c-3-2.1-6-4-9.1-6c-2.2-1.4-4.3-2.7-6.6-4
			c-0.1-0.1-0.1-0.2-0.2-0.2c0.3-0.1,0.4-0.3,0.5-0.5c1.5-2.5,2.9-4.9,4.4-7.4c2.4-4,4.7-8,7.1-12.1c0.9-1.5,1.9-3,2.6-4.6
			c0.4-0.2,0.4,0,0.5,0.3c0.7,2.1,1.2,4.3,1.6,6.4c0.6,3.2,0.9,6.3,0.9,9.6c0,0.6-0.1,1.1,0.1,1.7c-0.1,2.2-0.2,4.4-0.3,6.5
			c-0.2,1.8-0.4,3.6-0.6,5.4C125.4,31.3,125.4,31.7,125.3,32.2z"/>
		<path class="st4" d="M123.3,0.9c-0.8,1.6-1.7,3.1-2.6,4.6c-2.4,4-4.7,8-7.1,12.1c-1.5,2.5-2.9,4.9-4.4,7.4
			c-0.1,0.2-0.2,0.4-0.5,0.5c-0.2-0.1-0.3-0.1-0.5-0.2c-5.1-3-10.3-5.8-15.5-8.4c0.7-0.9,1.8-1.5,2.6-2.3c0.1-0.1,0.2-0.1,0.2-0.2
			c1.9-1.4,3.8-2.8,5.7-4.1c1.9-1.1,3.8-2.2,5.6-3.4c3.7-2,7.6-3.7,11.6-4.9C120.1,1.5,121.6,1.1,123.3,0.9z"/>
		<path class="st3" d="M64.7,109.7c-0.5,0.6-1,1.2-1.5,1.8c-1.9,2.1-3.8,4.2-6,6.1c-1.2,1-2.4,1.9-3.7,2.7c-0.3,0.2-0.6,0.3-0.4-0.3
			c1.1-1.5,1.9-3.2,2.9-4.8c2.3-4,4.7-7.9,7-11.9c3.2-5.5,6.4-11,9.7-16.5c2.8-4.7,5.6-9.4,8.3-14.1c0.4-0.7,0.9-1.3,1.1-2.1
			c0.2-0.1,0.3-0.3,0.5-0.4c0.2,0.1,0.1,0.3,0.1,0.4c0,1.8-0.3,3.5-0.7,5.2c-1.4,5.9-3.7,11.5-6.5,16.9c-2.3,4.4-4.9,8.7-7.7,12.8
			c-0.5,0.7-1,1.3-1.5,2C65.6,108.3,65,108.9,64.7,109.7z"/>
		<path class="st4" d="M82,70.8c-0.1,0.8-0.7,1.4-1.1,2.1c-2.8,4.7-5.6,9.4-8.3,14.1c-3.2,5.5-6.4,11-9.7,16.5
			c-2.3,4-4.7,7.9-7,11.9c-0.9,1.6-1.8,3.3-2.9,4.8c0-2.5,0.6-4.8,1.2-7.2c0.5-2,1.3-4,1.9-6c0.3-0.6,0.5-1.2,0.8-1.8
			c0.7-1.5,1.5-3.1,2.1-4.7c0.1-0.1,0.2-0.3,0.2-0.4c2.4-4.9,5.1-9.6,8.2-14c3-4.3,6.2-8.3,10.1-11.9C78.9,72.9,80.3,71.6,82,70.8z"
			/>
		<path class="st5" d="M82,70.8c-1.7,0.9-3.1,2.1-4.5,3.4c-3.9,3.5-7.1,7.6-10.1,11.9c-3.1,4.5-5.9,9.2-8.2,14
			c-0.1,0.1-0.2,0.3-0.2,0.4c0,0-0.1,0-0.1,0c-2-1-4.1-1.7-6.3-2.4c-0.1-0.4-0.5-0.3-0.7-0.4c-0.4-0.2-0.9-0.3-1.4-0.4
			C50,97.3,49.9,97,50,96.6c0.2-1.3,0.3-2.6,0.4-3.9c0.2-0.3,0.2-0.6,0.2-0.9c0.7-4.9,1.7-9.8,3.1-14.5c1-3.5,2.2-6.9,3.5-10.3
			c0.9-2.3,1.8-4.5,2.9-6.8c2-4.3,4.2-8.5,6.7-12.6c2.6-4.4,5.5-8.6,8.6-12.7c2.6-3.4,5.5-6.7,8.4-9.9c2.2-2.4,4.5-4.6,7-6.7
			c0.4-0.4,0.9-0.8,1.3-1.2c0.2-0.2,0.3-0.3,0.6-0.3c5.3,2.6,10.4,5.5,15.5,8.4c0.1,0.1,0.3,0.1,0.5,0.2c0.1,0.1,0.1,0.2,0.2,0.2
			c-0.2,0.2-0.4,0.4-0.6,0.7c-1.5,2.6-3,5.1-4.5,7.7c-0.5,0.8-1.1,1.6-1.3,2.6c-0.1,0-0.2,0-0.2,0c-0.2-0.1-0.3-0.2-0.5-0.3
			c-3-1.5-6.1-1.9-9.3-1.3c-7.5,1.4-12.6,9.2-11,16.6c0.9,4,3,7.1,6.5,9.3c-0.2,0.6-0.6,1-0.9,1.6c-1.1,1.9-2.2,3.7-3.3,5.6
			c-0.4,0.7-1,1.4-1.2,2.3C82.3,70.5,82.1,70.6,82,70.8z"/>
		<path class="st4" d="M57.1,66.9c-1.3,3.4-2.5,6.8-3.5,10.3c-1.4,4.8-2.4,9.6-3.1,14.5c0,0.3,0,0.7-0.2,0.9
			c-0.6-0.2-1.3-0.2-1.9-0.3c-2.1-0.2-4.2-0.2-6.3,0c-3.3,0.3-6.5,0.9-9.7,2c-4.3,1.5-8.3,3.6-12,6.4c-0.1,0.1-0.1,0.1-0.3,0.2
			c0.2-1,0.3-1.8,0.5-2.6c1.4-6.1,4-11.6,7.9-16.4c5.9-7.4,13.5-12.1,22.6-14.3C53.2,67.3,55.1,67,57.1,66.9z"/>
		<path class="st6" d="M52.6,98.1c2.2,0.6,4.2,1.4,6.3,2.4c-0.1,0.2-0.1,0.3-0.2,0.5c-0.6,1.3-1.3,2.6-1.8,4c-0.2,0.1-0.3,0-0.4-0.1
			c-1.8-1.1-3.6-2.2-5.4-3.2c-0.4-0.2-0.4-0.4-0.2-0.7C51.4,99.9,52,99,52.6,98.1z"/>
		<path class="st2" d="M56.9,104.9c0.4-1.4,1.2-2.7,1.8-4c0.1-0.2,0.1-0.3,0.2-0.5c0,0,0.1,0,0.1,0c-0.6,1.6-1.3,3.1-2.1,4.7
			C56.9,105,56.9,104.9,56.9,104.9z"/>
		<path class="st7" d="M102.4,36.6c0.2-1,0.8-1.7,1.3-2.6c1.5-2.6,3-5.1,4.5-7.7c0.2-0.3,0.4-0.5,0.6-0.7c2.3,1.2,4.4,2.6,6.6,4
			c3.1,1.9,6.1,3.9,9.1,6c0.3,0.7-0.1,1.3-0.2,1.9c-0.8,3.8-1.8,7.5-3,11.2c-1.2,3.6-2.5,7.2-4.1,10.6c-0.9,2.2-1.9,4.3-3,6.4
			c-1.6,3.2-3.4,6.4-5.2,9.5c-1.7,2.8-3.5,5.6-5.5,8.3c-1.8,2.5-3.7,5.1-5.8,7.4c-0.1,0.1-0.2,0.2-0.3,0.4
			c-4.7,5.5-9.7,10.6-15.3,15.1c-1.2,0.9-2.4,1.9-3.5,2.8c-1.1,0.7-2.2,1.5-3.3,2.2c-0.4,0.3-0.6,0.3-1-0.1
			c-0.3-0.5-0.8-0.8-1.2-1.2c-0.2-0.2-0.4-0.2-0.6-0.2c-1.6-1.5-3.3-3-5-4.3c2.9-4.1,5.5-8.3,7.7-12.8c2.8-5.4,5.1-10.9,6.5-16.9
			c0.4-1.7,0.7-3.5,0.7-5.2c0-0.1,0.1-0.3-0.1-0.4c0.1-0.9,0.8-1.5,1.2-2.3c1.1-1.9,2.2-3.7,3.3-5.6c0.3-0.5,0.7-1,0.9-1.6
			c0,0,0.1,0,0.1,0c2.5,1.6,5.3,2.2,8.3,2c9.6-0.6,15.8-10.5,12.2-19.4C107.2,40.6,105.2,38.3,102.4,36.6z"/>
		<path class="st3" d="M78.6,109.3c1.2-0.9,2.4-1.8,3.5-2.8c5.6-4.5,10.7-9.6,15.3-15.1c0.1-0.1,0.2-0.2,0.3-0.4
			c0.3,0,0.3,0.3,0.4,0.5c1.6,3.7,2.6,7.5,3.1,11.5c1.2,10.9-1.6,20.6-8.1,29.4c-1.9,2.6-4.1,4.8-6.6,6.8c-0.2,0.1-0.3,0.3-0.6,0.5
			c0.1-0.6,0.1-1.2,0.2-1.7c1-8.7-0.7-16.9-4.9-24.6C80.4,112,79.4,110.7,78.6,109.3z"/>
		<path class="st6" d="M67.6,105.6c1.8,1.3,3.4,2.8,5,4.3c-0.3,0.9-0.9,1.6-1.4,2.5c-0.5,0.9-0.5,0.9-1.4,0.3
			c-1.7-1-3.5-2.1-5.2-3.1c0.4-0.8,1-1.4,1.5-2C66.6,106.9,67.1,106.3,67.6,105.6z"/>
		<path class="st8" d="M102.4,36.6c2.7,1.7,4.7,4,6,7c3.6,8.9-2.6,18.8-12.2,19.4c-3,0.2-5.7-0.4-8.3-2c0.4-0.7,0.8-1.4,1.2-2.1
			c0.3-0.5,0.5-1.1,1-1.5c1.8,1,3.7,1.5,5.8,1.4c4-0.3,7.4-3,8.6-6.8c1.2-3.8,0-8-3-10.5c-0.4-0.4-0.9-0.8-1.5-0.9
			c0-0.1-0.1-0.1-0.1-0.2c0.8-1.2,1.5-2.4,2.1-3.7C102.3,36.6,102.4,36.6,102.4,36.6z"/>
		<path class="st4" d="M102.2,36.5c-0.6,1.3-1.3,2.5-2.1,3.7c-0.3-0.1-0.6-0.3-0.9-0.4c-1.9-0.8-3.9-1-6-0.6
			c-5.1,1.2-8.3,5.7-7.7,10.9c0.4,3.1,1.9,5.5,4.6,7.1c0,0,0,0.1,0,0.1c-0.5,0.4-0.7,1-1,1.5c-0.4,0.7-0.8,1.4-1.2,2.1
			c0,0-0.1,0-0.1,0c-3.4-2.2-5.6-5.3-6.5-9.3c-1.6-7.4,3.5-15.2,11-16.6c3.3-0.6,6.4-0.2,9.3,1.3C101.9,36.3,102,36.4,102.2,36.5z"
			/>
		<path class="st9" d="M90.2,57.3c0,0,0-0.1,0-0.1c0.7-1.2,1.4-2.4,2.1-3.5c2.3-4,4.7-7.9,7.1-11.9c0.3-0.5,0.4-1.1,0.9-1.4
			c0.6,0.2,1,0.6,1.5,0.9c3,2.5,4.2,6.8,3,10.5c-1.2,3.8-4.7,6.5-8.6,6.8C93.9,58.8,92,58.3,90.2,57.3z"/>
		<path class="st10" d="M100.2,40.4c-0.5,0.3-0.7,0.9-0.9,1.4c-2.4,4-4.7,7.9-7.1,11.9c-0.7,1.2-1.4,2.3-2.1,3.5
			c-2.7-1.6-4.3-4-4.6-7.1c-0.7-5.2,2.6-9.7,7.7-10.9c2.1-0.5,4.1-0.3,6,0.6c0.3,0.1,0.6,0.3,0.9,0.4
			C100.1,40.3,100.2,40.3,100.2,40.4z"/>
	</g>
</g>
</svg>
