<?xml version="1.0" encoding="utf-8"?>
<!-- Generator: Adobe Illustrator 22.1.0, SVG Export Plug-In . SVG Version: 6.00 Build 0)  -->
<svg version="1.1" id="Capa_1" xmlns="http://www.w3.org/2000/svg" xmlns:xlink="http://www.w3.org/1999/xlink" x="0px" y="0px"
	 viewBox="0 0 155 155" style="enable-background:new 0 0 155 155;" xml:space="preserve">
<style type="text/css">
	.st0{fill:#C6CADA;}
	.st1{fill:#FBFBFB;}
	.st2{fill:#FFFFFF;}
	.st3{fill:#DFE2EA;}
	.st4{fill:#696E83;stroke:#FFFFFF;stroke-miterlimit:10;}
</style>
<g>
	<g>
		<path class="st0" d="M154.1,83.3c-0.3,0.6-0.2,1.2-0.2,1.8c-0.5,5.2-1.5,10.4-3.1,15.4c-1.1,3.5-2.5,7-4.1,10.4
			c-1.8,3.7-3.8,7.2-6.1,10.6c-1.9,2.7-3.9,5.2-6.1,7.6c-1.6,1.8-3.4,3.6-5.2,5.2c-2.5,2.3-5.1,4.4-7.9,6.4
			c-3.6,2.5-7.4,4.7-11.3,6.6c-5.6,2.6-11.4,4.6-17.4,5.8c-3.2,0.6-6.4,1-9.6,1.3c-2.9,0.2-5.8,0.3-8.7,0.2c-3.2-0.1-6.4-0.5-9.6-1
			c-4.2-0.7-8.4-1.7-12.5-3.1c-5.4-1.9-10.6-4.3-15.5-7.3c-3.5-2.2-6.8-4.6-10-7.3c-2.7-2.3-5.1-4.7-7.4-7.4
			c-2.4-2.7-4.5-5.5-6.5-8.5c-1.7-2.5-3.2-5-4.5-7.7c-2.5-4.9-4.4-10.1-5.8-15.5C1.9,93.4,1.2,90,0.8,86.5
			c-0.5-4.3-0.5-8.6-0.4-12.9c0.1-3.1,0.6-6.2,1.1-9.3c1-5.8,2.7-11.3,5-16.7c1.7-4,3.7-7.8,6-11.4c2.3-3.5,4.8-6.8,7.6-9.9
			c4.7-5.2,9.9-9.6,15.8-13.4c7.6-4.9,15.8-8.2,24.7-10.2c2.8-0.6,5.7-1,8.6-1.4c4-0.5,8.1-0.4,12.2-0.3c3.3,0.1,6.6,0.5,9.9,1.2
			c3.8,0.7,7.5,1.7,11.1,2.9c4.8,1.7,9.3,3.8,13.7,6.3c3.5,2,6.7,4.3,9.8,6.8c2.6,2.1,5,4.3,7.3,6.8c3.3,3.5,6.3,7.3,8.9,11.3
			c3,4.7,5.5,9.7,7.5,15c1.5,4.1,2.7,8.4,3.5,12.7c0.4,2,0.7,4.1,0.9,6.2c0.1,0.7,0,1.4,0.2,2.1C154.1,76,154.1,79.6,154.1,83.3z
			 M77.2,149.5c39.6,0.2,71.9-32.2,71.9-71.4c0-19.8-7-36.8-20.9-50.8C114.5,13.4,97.5,6.2,77.9,6C37.6,5.6,5.4,38.2,5.4,77.7
			C5.4,117.4,37.7,149.5,77.2,149.5z"/>
		<path class="st1" d="M77.2,149.5c-39.5,0.1-71.8-32.1-71.8-71.8C5.4,38.2,37.6,5.6,77.9,6c19.6,0.2,36.5,7.3,50.3,21.3
			c13.9,14,20.9,31,20.9,50.8C149.1,117.3,116.8,149.6,77.2,149.5z M143.4,77.7c0.2-36.2-29.6-65.8-65.5-66
			c-37-0.3-66.7,29.7-66.8,65.9c0,36.5,29.5,66,65.9,66.2C113.9,144,143.6,114,143.4,77.7z"/>
		<path class="st0" d="M143.4,77.7c0.2,36.3-29.5,66.3-66.3,66.1c-36.4-0.1-66-29.6-65.9-66.2c0-36.3,29.7-66.2,66.8-65.9
			C113.8,12,143.6,41.5,143.4,77.7z"/>
	</g>
	<g>
		<path class="st2" d="M106,29.9c-2.1-0.5-4.3-0.8-6.5-0.8c-3.2,0-6.2,0.6-9.1,1.6c0,0,0-0.1,0-0.1c-3.9,1.5-7.4,4-10,7.2
			c1.9-4,5-7.1,8.9-9.1c-5.4-8.6-15-14.3-25.9-14.3c-16.9,0-30.7,13.7-30.7,30.7c0,0.6,0,1.2,0.1,1.8c3.2,0.9,6.1,2.5,8.5,4.6
			c-2.6-1.4-5.6-2.4-8.7-2.8c-4.5,1.8-8.1,5.1-10.3,9.4c6.4,1.5,11.2,4.7,12.5,8.5c-2.4-2.9-6.6-4.9-12.1-6c-0.4,0-0.9-0.2-1.3-0.2
			c0,0-0.1,0-0.1,0c-0.4,0-0.7,0-1.1,0c-10.9,0-19.7,8.8-19.7,19.7s8.8,19.7,19.7,19.7c0.8,0,1.6-0.1,2.3-0.1
			c3.1,6.6,8.4,11.9,15,14.9C86.2,90.9,101.4,49.5,106,29.9z"/>
		<path class="st3" d="M62.7,114.7c5,6.1,12.6,10,21.2,10c8.4,0,15.8-3.7,20.8-9.6c3.2,1.1,6.6,1.6,10.2,1.4
			c15.1-0.8,26.7-13.7,25.9-28.8c-0.2-4-1.3-7.7-3-11c6.6-1.9,11.5-8,11.5-15.3c0-8.8-7.1-15.9-15.9-15.9c-3,0-5.9,0.9-8.3,2.4
			c-2.8-8.9-10-15.8-19.1-18c-4.6,19.6-19.8,61-68.6,84.7c3.9,1.8,8.2,2.8,12.8,2.8C54.6,117.4,58.8,116.4,62.7,114.7z"/>
	</g>
	<path class="st4" d="M59.6,99.6l-2.7,2.7c-0.3,0.3-0.7,0.5-1.2,0.5s-0.9-0.2-1.3-0.5L29.2,77c-0.4-0.4-0.6-0.8-0.6-1.3
		c0-0.5,0.2-0.9,0.6-1.3l25.3-25.3c0.3-0.4,0.7-0.6,1.3-0.6s0.9,0.2,1.2,0.6l2.7,2.7c0.4,0.3,0.6,0.7,0.6,1.3c0,0.5-0.2,0.9-0.6,1.2
		L38.3,75.8l21.3,21.3c0.4,0.4,0.6,0.8,0.6,1.3C60.2,98.8,60,99.2,59.6,99.6z M91.7,41.7l-20.2,70.1c-0.1,0.5-0.4,0.8-0.9,1.1
		c-0.5,0.3-0.9,0.3-1.3,0.1L66,112c-0.5-0.2-0.9-0.5-1.1-0.9c-0.2-0.4-0.3-0.8-0.2-1.4l20.2-70c0.2-0.5,0.5-0.9,0.9-1.1
		c0.4-0.2,0.8-0.3,1.3-0.2l3.4,1c0.5,0.1,0.8,0.4,1.1,0.9C91.8,40.9,91.9,41.3,91.7,41.7z M127.4,77l-25.3,25.3
		c-0.4,0.3-0.8,0.5-1.3,0.5c-0.5,0-0.9-0.2-1.3-0.5l-2.7-2.7c-0.3-0.4-0.5-0.8-0.5-1.3c0-0.5,0.2-0.9,0.5-1.3l21.3-21.3L96.8,54.4
		c-0.3-0.3-0.5-0.7-0.5-1.2c0-0.5,0.2-0.9,0.5-1.3l2.7-2.7c0.4-0.4,0.8-0.6,1.3-0.6c0.5,0,0.9,0.2,1.3,0.6l25.3,25.3
		c0.3,0.3,0.5,0.7,0.5,1.3S127.7,76.7,127.4,77z"/>
</g>
</svg>
