<?xml version="1.0" encoding="utf-8"?>
<!-- Generator: Adobe Illustrator 22.0.1, SVG Export Plug-In . SVG Version: 6.00 Build 0)  -->
<svg version="1.1" id="Capa_1" xmlns="http://www.w3.org/2000/svg" xmlns:xlink="http://www.w3.org/1999/xlink" x="0px" y="0px"
	 viewBox="0 0 155 155" style="enable-background:new 0 0 155 155;" xml:space="preserve">
<style type="text/css">
	.st0{fill:#EBECF0;}
	.st1{fill:#FFFFFF;stroke:#8C91A5;stroke-width:0.5;stroke-miterlimit:10;}
	.st2{fill:#C9CEDF;}
	.st3{fill:#8C91A5;}
	.st4{fill:#686E85;}
	.st5{font-family:'Lato-Heavy';}
	.st6{font-size:6.7226px;}
	.st7{fill:none;stroke:#C9CEDF;stroke-width:0.75;stroke-miterlimit:10;}
	.st8{fill:#FFFFFF;stroke:#C9CEDF;stroke-width:0.75;stroke-miterlimit:10;}
</style>
<g>
	<circle class="st0" cx="77.5" cy="77.5" r="71.5"/>
	<g>
		<g>
			<g>
				<path class="st1" d="M104.8,132.4h-1.3c0,0-7.8-2.2-7.8-24c0-6.4-34.4-6.3-34.4,0.5c0,21-8,23.4-8,23.4h-1.1c-1,0-2,0.5-2,1.5
					v0.9c0,1,1.1,2.1,2,2.1h52.6c1,0,1.8-1.2,1.8-2.1v-0.9C106.6,133,105.8,132.4,104.8,132.4z"/>
				<path class="st1" d="M139.5,23.8H17.2c-2.4,0-4.8,0.8-4.8,3.2v74v11.3c0,2.4,2.4,6,4.8,6h122.3c2.4,0,3.2-3.6,3.2-6v-11.3v-74
					C142.8,24.6,141.9,23.8,139.5,23.8z"/>
				<rect x="18.8" y="30.9" class="st1" width="117.6" height="67.2"/>
				<path class="st1" d="M83.7,108c0,3-2.4,5.3-5.3,5.3l0,0c-2.9,0-5.3-2.4-5.3-5.3l0,0c0-2.9,2.4-5.3,5.3-5.3l0,0
					C81.3,102.6,83.7,105,83.7,108L83.7,108z"/>
			</g>
		</g>
		<rect x="21.1" y="32.8" class="st2" width="113.3" height="9.9"/>
		<g>
			<rect x="23.2" y="34.9" class="st3" width="5.7" height="1.3"/>
			<rect x="23.2" y="37.1" class="st3" width="5.7" height="1.3"/>
			<rect x="23.2" y="39.2" class="st3" width="5.7" height="1.3"/>
		</g>
		<path class="st3" d="M124.8,37.1v1.1l1.1,0.1c0.1,0.2,0.2,0.4,0.3,0.6l-0.7,0.9l0.8,0.8l0.9-0.7c0.2,0.1,0.4,0.2,0.6,0.3l0.1,1.1
			h1.1l0.1-1.1c0.2-0.1,0.4-0.2,0.6-0.3l0.9,0.7l0.8-0.8l-0.7-0.9c0.1-0.2,0.2-0.4,0.3-0.6l1.1-0.1v-1.1l-1.1-0.1
			c-0.1-0.2-0.2-0.4-0.3-0.6l0.7-0.9l-0.8-0.8l-0.9,0.7c-0.2-0.1-0.4-0.2-0.6-0.3l-0.1-1.1h-1.1l-0.1,1.1c-0.2,0.1-0.4,0.2-0.6,0.3
			l-0.9-0.7l-0.8,0.8l0.7,0.9c-0.1,0.2-0.2,0.4-0.3,0.6L124.8,37.1z M127.5,37.6c0-0.3,0.1-0.5,0.3-0.7c0.2-0.2,0.5-0.3,0.8-0.3
			c0.3,0,0.6,0.1,0.8,0.3c0.2,0.2,0.3,0.5,0.3,0.7c0,0.3-0.1,0.5-0.3,0.8c-0.2,0.2-0.5,0.3-0.8,0.3c-0.3,0-0.6-0.1-0.8-0.3
			C127.6,38.2,127.5,37.9,127.5,37.6z"/>
		<text transform="matrix(1 0 0 1 32.5882 40.2199)" class="st4 st5 st6">App</text>
		<rect x="21.7" y="45.7" class="st7" width="111.5" height="14.5"/>
		<ellipse transform="matrix(0.9871 -0.1602 0.1602 0.9871 -8.1452 19.4699)" class="st8" cx="116.7" cy="60.3" rx="7.6" ry="7.6"/>
		<rect x="21.6" y="77.4" class="st2" width="36.2" height="7.2"/>
		<rect x="21.6" y="87.7" class="st2" width="36.2" height="7.2"/>
		<rect x="61.7" y="77.4" class="st2" width="21.1" height="17.7"/>
		<rect x="87.2" y="77.4" class="st2" width="21.1" height="17.7"/>
		<rect x="21.6" y="67.6" class="st2" width="11.8" height="7.2"/>
		<rect x="112.4" y="77.6" class="st2" width="21.1" height="17.7"/>
	</g>
</g>
</svg>
