<?xml version="1.0" encoding="utf-8"?>
<!-- Generator: Adobe Illustrator 22.0.1, SVG Export Plug-In . SVG Version: 6.00 Build 0)  -->
<svg version="1.1" id="Capa_1" xmlns="http://www.w3.org/2000/svg" xmlns:xlink="http://www.w3.org/1999/xlink" x="0px" y="0px"
	 viewBox="0 0 155 155" style="enable-background:new 0 0 155 155;" xml:space="preserve">
<style type="text/css">
	.st0{fill:#EBECF0;}
	.st1{fill:#C7CBDB;}
	.st2{fill:#FFFFFF;}
	.st3{fill:none;stroke:#898DA1;stroke-miterlimit:10;}
	.st4{fill:none;stroke:#898DA1;stroke-miterlimit:10;stroke-dasharray:2.9753,2.9753;}
	.st5{fill:#C7CBDB;stroke:#898DA1;stroke-miterlimit:10;}
	.st6{fill:none;stroke:#898DA1;stroke-miterlimit:10;stroke-dasharray:3.3099,3.3099;}
	.st7{clip-path:url(#SVGID_2_);}
	.st8{fill:#2C3E4C;}
	.st9{fill:#D1A288;}
	.st10{fill:#E4BCA3;}
	.st11{fill:#EED3B9;}
	.st12{fill:#B5C3CB;}
	.st13{fill:#32454E;}
	.st14{fill:#AB3C3E;}
	.st15{fill:#202A2F;}
	.st16{clip-path:url(#SVGID_4_);}
	.st17{fill:#45160F;}
	.st18{fill:#E4C4A9;}
	.st19{fill:#C13242;}
	.st20{fill:#B7212E;}
</style>
<g>
	<circle class="st0" cx="77.5" cy="77.5" r="71.5"/>
	<g>
		<path class="st1" d="M8.2,42.7c-0.6,1.3-1,2.9-1.1,6.4c0,0.6,0.9,2.9,2.1,5.9c1.2,2.9,35.6,85.9,35.6,85.9c1.5,3.5,4.5,5.8,7.6,6
			c3.2,0.2,7.9-0.2,18.6-1.3c12.2-1.2,17.6-1.9,20.7-2.3c4.4-0.4,8.1-0.9,9.8-1.1c2.1-0.4,3.1-1.7,3.9-3.2c1.6-2.7,2-3.3,1.8-4.6
			C106.9,133.2,8.2,42.7,8.2,42.7z"/>
		<path class="st2" d="M106.6,131.9c1.6,2.9,0.2,6.4-3.2,6.5c-15.8,1.6-31.5,3.1-47.3,4.7c-3.5,0.2-6.9-2.1-8.4-5.4
			C34.7,107.5,21.6,77.4,8.5,47.2c-1.2-2.5-0.7-6.2,2.6-6.5c14.2-1.4,28.3-2.9,42.5-4.2c3.5-0.2,6.9,2.3,8.5,5.4
			C76.8,71.9,91.7,101.9,106.6,131.9z"/>
		<g>
			<path class="st1" d="M42.3,44.2c0.1,0.2,0,0.5-0.2,0.5c-3.5,0.4-6.9,0.7-10.4,1c-0.2,0-0.6-0.2-0.7-0.4l0,0
				c-0.1-0.2,0-0.5,0.2-0.5c3.5-0.4,6.9-0.7,10.4-1C41.9,43.7,42.3,43.9,42.3,44.2L42.3,44.2z"/>
			<path class="st1" d="M24.5,46.1c-0.4-0.8,0-1.5,0.8-1.6c0.8-0.1,1.7,0.5,2.1,1.3c0.4,0.8,0,1.5-0.8,1.6
				C25.8,47.5,24.8,46.8,24.5,46.1z"/>
		</g>
		<path class="st1" d="M74.2,136.5c-1.5-1.1-0.4-2.6,2.6-3.2c3-0.7,6.6-0.4,8.2,0.7c1.5,1.1,0.4,2.6-2.6,3.2
			C79.3,137.8,75.7,137.5,74.2,136.5z"/>
		<path class="st1" d="M98.9,126.2c-16.9,1.6-33.8,3.4-50.6,5c0.4,0.9,0.6,1.4,1,2.3c16.9-1.6,33.8-3.4,50.7-5
			C99.6,127.6,99.3,127.1,98.9,126.2z"/>
		<path class="st1" d="M60.7,46.7c-15.6,1.6-31.3,3.1-46.8,4.7c0.4,1,0.6,1.4,1,2.3c15.7-1.6,31.3-3.1,47-4.7
			C61.3,48,61.2,47.6,60.7,46.7z"/>
	</g>
	<g>
		<g>
			<path class="st3" d="M135.9,90.3c-0.2-0.1-0.5-0.1-0.7-0.2"/>
			<path class="st4" d="M133.7,89.8c-2.3-0.8-4.6-1.8-7.1-1.3c-4.5,0.7-8.2,4.3-12,7.6c-5.9,5.1-12.2,10.4-19,11.1
				c-6.5,0.6-11-2.1-15.9-8.3c-5.1-6.5-9.8-15.9-16.2-18.7"/>
			<path class="st3" d="M62.9,79.8c-0.2-0.1-0.5-0.2-0.7-0.2"/>
			<g>
				
					<ellipse transform="matrix(1 -2.331212e-03 2.331212e-03 1 -0.2102 0.3169)" class="st5" cx="135.8" cy="90.3" rx="1.3" ry="2.1"/>
			</g>
			<g>
				<polygon class="st5" points="62.1,83 62.7,76.3 60.2,79.2 				"/>
			</g>
		</g>
	</g>
	<g>
		<g>
			<path class="st3" d="M111.8,35.5c-0.2,0.2-0.4,0.5-0.6,0.7"/>
			<path class="st6" d="M110.1,37.7c-1.8,2.4-3.4,5-5.9,6.7c-4.7,2.9-10.6,3.1-16.1,3.5c-8.8,0.7-18.1,1.4-25,6.3
				c-6.5,4.6-9.2,10.3-10,19.1c-0.9,9.1,0.5,20.1-3.8,27.5"/>
			<path class="st3" d="M48.6,101.4c-0.1,0.2-0.4,0.5-0.5,0.7"/>
			<g>
				<ellipse transform="matrix(0.8096 -0.587 0.587 0.8096 0.4268 72.3749)" class="st5" cx="111.8" cy="35.5" rx="1.7" ry="2.1"/>
			</g>
			<g>
				<polygon class="st5" points="50.6,104.2 45.9,99.5 46.4,103.9 				"/>
			</g>
		</g>
	</g>
	<g>
		<g>
			<g>
				<g>
					<g>
						<g>
							<defs>
								<circle id="SVGID_1_" cx="132.1" cy="94.8" r="28.6"/>
							</defs>
							<clipPath id="SVGID_2_">
								<use xlink:href="#SVGID_1_"  style="overflow:visible;"/>
							</clipPath>
							<g class="st7">
								<path class="st8" d="M137.3,107.5c0,0,7.9,1.1,9.1,2.4c1,1.1,3.2,11.3,3.7,13.5c-13.9,0-17.9,0-17.9,0v-15.4L137.3,107.5z"
									/>
								<rect x="127.9" y="101.9" class="st9" width="8.3" height="9.2"/>
								<g>
									<path class="st10" d="M132.1,75.7c4.1,0,10.5,2.3,10.5,13.2c0,6.2-2,10.3-2.9,11.5c-0.9,1.1-5.5,3.3-7.6,3.3
										C132.1,92.6,132.1,75.7,132.1,75.7z"/>
									<path class="st10" d="M144.6,91.4c0.2-1.7-0.6-3.3-1.9-3.4s-2.3,1.1-2.5,2.8c-0.2,1.7,0.6,3.3,1.9,3.4
										C143.4,94.4,144.5,93.2,144.6,91.4z"/>
								</g>
								<g>
									<path class="st11" d="M132.1,75.7c-4.1,0-10.5,2.3-10.5,13.2c0,6.2,2,10.3,2.9,11.5c0.9,1.1,5.5,3.3,7.6,3.3
										C132.1,92.6,132.1,75.7,132.1,75.7z"/>
									<path class="st11" d="M119.7,91.4c-0.2-1.7,0.6-3.3,1.9-3.4c1.2-0.2,2.3,1.1,2.5,2.8c0.2,1.7-0.6,3.3-1.9,3.4
										C120.9,94.4,119.8,93.2,119.7,91.4z"/>
								</g>
								<path class="st12" d="M126.6,78c0,0-3.5,4.2-2.2,8.1c0.2,4.7-0.2,6.3-1.8,7.6c0.4-4.5-0.1-6.1-1.8-5.5
									C120.4,84.6,121.8,75,126.6,78z"/>
								<path class="st12" d="M137.6,78c0,0,3.5,4.2,2.2,8.1c-0.2,4.7,0.2,6.3,1.8,7.6c-0.4-4.5,0.1-6.1,1.8-5.5
									C143.9,84.6,142.4,75,137.6,78z"/>
								<path class="st13" d="M126.9,107.5c0,0-7.9,1.1-9.1,2.4c-1,1.1-3.2,11.3-3.7,13.5c13.9,0,17.9,0,17.9,0v-15.4L126.9,107.5z"
									/>
								<polyline class="st12" points="137.4,107.2 132.1,107.9 126.8,107.2 132.1,123.4 								"/>
								<polygon class="st14" points="131.6,109.5 130.5,120.3 132.1,123.4 133.7,120.3 132.6,109.5 								"/>
								<path class="st15" d="M128.3,114.2l-4.2-6.2c1.1-0.4,2.4-0.7,3.7-0.9l4.3,16.3l-6.1-8.7L128.3,114.2z"/>
								<path class="st15" d="M136,114.2l4.2-6.2c-1.1-0.4-2.4-0.7-3.7-0.9l-4.3,16.3l6.1-8.7L136,114.2z"/>
								<path class="st14" d="M133.5,109.4l-1.4,1.4l-1.4-1.4l1.4-1.4L133.5,109.4z"/>
								<polygon class="st2" points="132.1,107.9 127.9,106.2 126.8,107.2 128.9,111.9 								"/>
								<polygon class="st2" points="132.1,107.9 136.4,106.2 137.4,107.2 135.3,111.9 								"/>
							</g>
						</g>
					</g>
				</g>
			</g>
		</g>
	</g>
	<g>
		<g>
			<g>
				<g>
					<g>
						<g>
							<defs>
								<circle id="SVGID_3_" cx="115.2" cy="40.9" r="27.2"/>
							</defs>
							<clipPath id="SVGID_4_">
								<use xlink:href="#SVGID_3_"  style="overflow:visible;"/>
							</clipPath>
							<g class="st16">
								<path class="st17" d="M104.8,36.1c0,4.6-2.5,4.7-2.4,7.6c0.2,3.3,2.8,3.3,2.8,5.6c0,2.3-2.4,4.8-0.3,7.3
									c9.4,0,10.3,0,10.3,0V28.9L104.8,36.1z"/>
								<path class="st17" d="M125.6,36.1c0,4.6,2.5,4.7,2.4,7.6c-0.2,3.3-2.8,3.3-2.8,5.6c0,2.3,2.4,4.8,0.3,7.3
									c-9.4,0-10.3,0-10.3,0V28.9L125.6,36.1z"/>
								<g>
									<circle class="st17" cx="115.2" cy="31.3" r="11.9"/>
									<polygon class="st18" points="119.2,56.9 115.2,68.2 111.2,56.9 111.2,48.1 119.2,48.1 									"/>
									<g>
										<path class="st11" d="M115.2,23.9c-3.9,0-10,2.2-10,12.5c0,5.9,2.3,8.8,3.2,9.8c0.8,1,4.8,4.2,6.8,4.2
											C115.2,39.9,115.2,23.9,115.2,23.9z"/>
										<path class="st11" d="M103.4,38.8c-0.2-1.6,0.6-3.1,1.8-3.3c1.1-0.1,2.2,1,2.4,2.7c0.2,1.6-0.6,3.1-1.8,3.3
											C104.5,41.7,103.5,40.5,103.4,38.8z"/>
									</g>
									<g>
										<g>
											<g>
												<path class="st10" d="M115.2,23.9c3.9,0,10,2.2,10,12.5c0,5.9-2.3,8.8-3.2,9.8c-0.8,1-4.8,4.2-6.8,4.2
													C115.2,39.9,115.2,23.9,115.2,23.9z"/>
											</g>
											<g>
												<path class="st10" d="M127.1,38.8c0.2-1.6-0.6-3.1-1.8-3.3c-1.1-0.1-2.2,1-2.4,2.7c-0.2,1.6,0.6,3.1,1.8,3.3
													C125.9,41.7,127,40.5,127.1,38.8z"/>
											</g>
										</g>
									</g>
									<path class="st18" d="M115.2,68.2V57.2c0,0-3-0.7-3.6-3.2c-0.4-1.1-0.4-2.1-0.4-2.1s-6.5,2.2-7.9,4.5
										c-1.2,3.6-1.6,11.7-1.6,11.7L115.2,68.2L115.2,68.2z"/>
									<path class="st18" d="M115.2,68.2V57.2c0,0,3-0.7,3.6-3.2c0.4-1.1,0.4-2.1,0.4-2.1s6.5,2.2,7.9,4.5
										c1.2,3.6,1.6,11.7,1.6,11.7L115.2,68.2L115.2,68.2z"/>
									<path class="st19" d="M115.2,63.9c0,0-2.9-7.1-3.9-11.8c-1,0.4-1.9,0.7-2.6,1c-3.2,6.8-3.3,15.1-3.3,15.1h9.9L115.2,63.9
										L115.2,63.9z"/>
									<path class="st20" d="M115.2,63.9c0,0,2.9-7.1,3.9-11.8c1,0.4,1.9,0.7,2.6,1c3.2,6.8,3.3,15.1,3.3,15.1h-9.9L115.2,63.9
										L115.2,63.9z"/>
								</g>
								<path class="st17" d="M114.7,20.9c-7.1,0-9.2,6.2-9.2,9.1c-2.5,3.6,0.2,6.8,2.2,7.9c0-0.7,0-0.9,0-1.8
									c0-2.3,2.2-4.5,5.5-4.1c3,0.4,4.8-1.3,6.4-4.2C121.5,24.1,119.1,20.9,114.7,20.9z"/>
								<path class="st17" d="M119.2,26.7c0,0,1.7,6.8,6.2,9c0.8-6.1,1.3-4.8,0-7.9s-6.2-5.5-6.2-5.5V26.7z"/>
							</g>
						</g>
					</g>
				</g>
			</g>
		</g>
	</g>
</g>
</svg>
