<?xml version="1.0" encoding="utf-8"?>
<!-- Generator: Adobe Illustrator 22.0.1, SVG Export Plug-In . SVG Version: 6.00 Build 0)  -->
<svg version="1.1" id="Capa_1" xmlns="http://www.w3.org/2000/svg" xmlns:xlink="http://www.w3.org/1999/xlink" x="0px" y="0px"
	 viewBox="0 0 155 155" style="enable-background:new 0 0 155 155;" xml:space="preserve">
<style type="text/css">
	.st0{fill:#EBECF0;}
	.st1{fill:#FFFFFF;}
	.st2{fill:#9F9E9E;}
	.st3{fill:#FCFDFC;}
	.st4{fill:#83B26E;}
	.st5{fill:#C65450;}
	.st6{fill:#85BFE7;}
	.st7{fill:#FDFDFD;}
	.st8{fill:#8BC1E1;}
	.st9{fill:#80BDE9;}
	.st10{fill:#FCFCFC;}
	.st11{fill:#EFCE33;}
	.st12{fill:#ECC532;}
	.st13{opacity:0.4;}
	.st14{fill:#BE5229;}
</style>
<g>
	<circle class="st0" cx="77.5" cy="77.5" r="71.5"/>
	<g>
		<g>
			<path d="M78.1,39.4c22.2,0,44.3,0,66.5,0c1.9,0,3.5,1.1,4,2.8c0.1,0.4,0.2,0.8,0.2,1.2c0,10.8,0,21.7,0,32.5c0,2.2-1.8,4-4,4
				c0,0-0.1,0-0.1,0c-44.3,0-88.7,0-133,0c-2,0-3.6-1.2-4.1-3.1c-0.1-0.3-0.1-0.7-0.1-1c0-10.8,0-21.6,0-32.4c0-2.2,1.9-4.1,4.2-4.1
				C33.8,39.4,55.9,39.4,78.1,39.4z M41.4,54.3c-0.1-0.1-0.1-0.2-0.2-0.3c-1.6-2-3.8-2.7-6.3-2.3c-0.9,0.2-1.7,0.5-2.6,0.9
				c-0.8,0.3-1.5,0.3-2.2,0c-0.4-0.2-0.8-0.3-1.2-0.5c-2.5-1-4.6-0.4-6.5,1.4c-1.7,1.6-2.3,3.6-2.3,5.9c0,4.4,1.6,8.2,4.5,11.4
				c0.3,0.3,0.6,0.6,0.9,0.8c0.6,0.4,1.3,0.7,2.1,0.5c0.6-0.1,1.2-0.4,1.8-0.5c0.6-0.2,1.2-0.4,1.8-0.5c1.1-0.2,2.1,0.2,3.1,0.6
				c0.7,0.3,1.5,0.5,2.3,0.4c0.9-0.1,1.6-0.7,2.2-1.4c1.2-1.4,2.2-2.9,2.9-4.6c0.2-0.4,0.3-0.7,0.4-1.1C37.7,63,37.1,57.2,41.4,54.3
				z M67.7,70.7c0.7,0.9,1.2,1.2,1.9,1.3c2.1,0.5,4.1-0.5,5-2.6c0.5-1.2,0.6-2.5,0.5-3.8c-0.1-1-0.5-1.9-1.1-2.7
				c-1.7-2.2-5.1-1.9-6.4,0.1c0,0.1-0.1,0.1-0.1,0.2c0,0-0.1,0-0.1-0.1c0-0.5-0.1-1-0.1-1.5c-0.7,0-1.3,0-1.9,0c0,4.8,0,9.5,0,14.3
				c0.8,0,1.5,0,2.3,0c0-0.9,0-1.8,0-2.6C67.7,72.6,67.7,71.7,67.7,70.7z M79.4,70.7c0.5,0.7,1,1.1,1.7,1.3c1.9,0.6,4-0.2,5-2
				c0.5-0.9,0.7-1.8,0.8-2.8c0.1-1.4-0.1-2.8-1-4c-1.7-2.5-5.3-2.1-6.5-0.1c0,0.1-0.1,0.1-0.2,0.1c0-0.5-0.1-1-0.1-1.5
				c-0.7,0-1.3,0-1.9,0c0,4.8,0,9.5,0,14.3c0.8,0,1.5,0,2.3,0C79.4,74.3,79.4,72.6,79.4,70.7z M63.4,72c0-0.1,0-0.2-0.1-0.2
				c-1.5-4.6-2.9-9.1-4.4-13.7c-0.1-0.2-0.1-0.2-0.3-0.2c-0.7,0-1.5,0-2.2,0c-0.3,0-0.4,0.1-0.5,0.4c-1.4,4.5-2.9,8.9-4.3,13.4
				c0,0.1-0.1,0.2-0.1,0.4c0.7,0,1.4,0,2,0c0.2,0,0.4-0.1,0.4-0.3c0.3-1.2,0.7-2.4,1.1-3.6c0.1-0.2,0.2-0.3,0.4-0.3c1.3,0,2.7,0,4,0
				c0.3,0,0.4,0.1,0.4,0.3c0.4,1.2,0.7,2.4,1.1,3.5c0,0.1,0.2,0.3,0.3,0.3C61.9,72,62.7,72,63.4,72z M99.4,58.3
				c-0.2-0.1-0.4-0.2-0.5-0.2c-1.2-0.4-2.3-0.5-3.6-0.4c-0.8,0.1-1.5,0.3-2.2,0.7c-2.2,1.4-2.4,4.3-0.4,6c0.7,0.6,1.5,0.9,2.4,1.3
				c0.6,0.2,1.2,0.5,1.7,0.9c0.7,0.5,0.9,1.2,0.8,2c-0.1,0.8-0.6,1.3-1.4,1.6c-0.8,0.3-1.5,0.3-2.3,0.1c-0.8-0.2-1.5-0.5-2.3-0.7
				c-0.1,0.4-0.3,0.9-0.4,1.4c-0.1,0.3,0,0.4,0.2,0.5c1.4,0.7,2.8,0.8,4.3,0.6c0.9-0.1,1.7-0.3,2.4-0.8c2.2-1.5,2.4-4.7,0.3-6.3
				c-0.7-0.5-1.5-0.8-2.2-1.3c-0.6-0.3-1.2-0.6-1.8-0.9c-0.6-0.4-0.9-1.1-0.8-1.8c0.1-0.7,0.6-1.1,1.3-1.4c0.7-0.2,1.4-0.2,2.1-0.1
				c0.6,0.1,1.2,0.3,1.8,0.5C99,59.5,99.2,58.9,99.4,58.3z M113.6,72.2c2.3,0,4.1-1.2,4.8-3.4c0.2-0.8,0.3-1.6,0.3-2.4
				c-0.1-2.7-1.7-4.5-4.2-4.9c-2.5-0.4-4.7,1-5.5,3.3c-0.3,0.9-0.4,1.9-0.3,2.9C109.1,70.4,111,72.2,113.6,72.2z M135.3,69.9
				c-0.1,0-0.3,0.1-0.4,0.1c-1.2,0.3-2.4,0.5-3.6,0.2c-1.3-0.4-2.1-1.6-1.9-2.8c2.2,0,4.5,0,6.8,0c0.2-1.7,0-3.2-1.1-4.5
				c-0.5-0.6-1.1-1-1.8-1.2c-2.3-0.6-4.6,0.4-5.6,2.5c-0.7,1.6-0.8,3.3-0.2,4.9c0.4,1.3,1.3,2.2,2.6,2.6c1.8,0.6,3.6,0.4,5.4-0.2
				c0.1,0,0.2-0.2,0.2-0.3C135.5,70.9,135.4,70.4,135.3,69.9z M102.7,63.5c0,1.1,0,2.1,0,3.1c0,1,0,2.1,0.1,3.1
				c0.1,1.1,0.6,2,1.8,2.4c0.8,0.2,1.7,0.2,2.5,0c0.1,0,0.2-0.1,0.2-0.2c0-0.5,0-1.1,0-1.6c-0.4,0-0.6,0.1-0.9,0.1
				c-0.8,0-1.2-0.3-1.4-1c-0.1-0.3-0.1-0.7-0.1-1c0-1.5,0-2.9,0-4.4c0-0.1,0-0.2,0-0.4c0.9,0,1.7,0,2.5,0c0-0.6,0-1.1,0-1.7
				c-0.8,0-1.6,0-2.5,0c0-0.8,0-1.7,0-2.5c-0.8,0.2-1.5,0.5-2.3,0.7c0,0.6,0,1.2,0,1.9c-0.5,0-1,0-1.4,0c0,0.6,0,1.1,0,1.7
				C101.8,63.5,102.2,63.5,102.7,63.5z M122.9,71.9c0-0.2,0-0.3,0-0.4c0-1.7,0-3.4,0-5c0-0.5,0.1-1,0.3-1.4c0.4-0.9,1.1-1.4,2.1-1.4
				c0.2,0,0.5,0,0.7,0c0-0.6,0-1.2,0-1.8c0-0.3-0.1-0.3-0.3-0.3c-1.3-0.1-2.3,0.6-2.9,1.8c-0.1,0.1-0.1,0.2-0.2,0.3c0,0,0,0-0.1,0
				c0-0.6-0.1-1.2-0.1-1.8c-0.7,0-1.3,0-1.9,0c0,3.4,0,6.8,0,10.1C121.4,71.9,122.2,71.9,122.9,71.9z M36.4,45.1
				c-2.6-0.3-6,3.7-5.4,6.2C34.1,51.6,36.8,48.1,36.4,45.1z"/>
			<path class="st1" d="M41.4,54.3c-4.3,2.8-3.7,8.7,0.7,10.7c-0.1,0.4-0.3,0.7-0.4,1.1c-0.7,1.7-1.7,3.2-2.9,4.6
				c-0.6,0.7-1.3,1.2-2.2,1.4c-0.8,0.1-1.6,0-2.3-0.4c-1-0.4-2-0.8-3.1-0.6c-0.6,0.1-1.2,0.3-1.8,0.5c-0.6,0.2-1.2,0.4-1.8,0.5
				c-0.8,0.2-1.4-0.1-2.1-0.5c-0.3-0.2-0.6-0.5-0.9-0.8c-2.9-3.3-4.5-7-4.5-11.4c0-2.2,0.7-4.3,2.3-5.9c1.9-1.7,4-2.4,6.5-1.4
				c0.4,0.2,0.8,0.3,1.2,0.5c0.7,0.3,1.5,0.3,2.2,0c0.8-0.3,1.7-0.7,2.6-0.9c2.5-0.4,4.6,0.3,6.3,2.3C41.3,54.1,41.3,54.2,41.4,54.3
				z"/>
			<path class="st1" d="M67.7,70.7c0,1,0,1.8,0,2.7c0,0.9,0,1.7,0,2.6c-0.8,0-1.5,0-2.3,0c0-4.8,0-9.5,0-14.3c0.6,0,1.2,0,1.9,0
				c0,0.5,0.1,1,0.1,1.5c0,0,0.1,0,0.1,0.1c0-0.1,0.1-0.1,0.1-0.2c1.3-2,4.7-2.3,6.4-0.1c0.6,0.8,1,1.7,1.1,2.7
				c0.1,1.3,0.1,2.6-0.5,3.8c-0.9,2-2.9,3-5,2.6C68.8,71.9,68.4,71.6,67.7,70.7z M67.6,67C67.6,67,67.7,67,67.6,67
				c0.1,0.3,0.1,0.7,0.1,1c0.1,1.2,0.9,2.2,2,2.4c1.2,0.2,2.2-0.3,2.7-1.5c0.6-1.3,0.6-2.7,0-4c-0.5-1.1-1.4-1.6-2.5-1.5
				c-1,0.1-1.9,0.8-2.1,1.9C67.7,65.8,67.7,66.4,67.6,67z"/>
			<path class="st1" d="M79.4,70.7c0,1.9,0,3.6,0,5.4c-0.8,0-1.5,0-2.3,0c0-4.8,0-9.5,0-14.3c0.6,0,1.2,0,1.9,0c0,0.5,0.1,1,0.1,1.5
				c0.1-0.1,0.1-0.1,0.2-0.1c1.3-2,4.9-2.4,6.5,0.1c0.8,1.2,1,2.5,1,4c0,1-0.3,1.9-0.8,2.8c-1.1,1.8-3.1,2.6-5,2
				C80.4,71.8,79.9,71.4,79.4,70.7z M79.3,67C79.4,67,79.4,67,79.3,67c0.1,0.4,0.1,0.7,0.1,1.1c0.1,1.1,0.8,2,1.9,2.3
				c1.2,0.3,2.2-0.2,2.7-1.3c0.7-1.4,0.7-2.9,0.1-4.3c-0.5-1-1.3-1.5-2.4-1.4c-0.9,0.1-1.8,0.8-2.1,1.8C79.4,65.7,79.4,66.4,79.3,67
				z"/>
			<path class="st1" d="M63.4,72c-0.8,0-1.5,0-2.2,0c-0.1,0-0.2-0.2-0.3-0.3c-0.4-1.2-0.8-2.4-1.1-3.5c-0.1-0.2-0.2-0.3-0.4-0.3
				c-1.3,0-2.7,0-4,0c-0.2,0-0.3,0.1-0.4,0.3c-0.3,1.2-0.7,2.4-1.1,3.6c-0.1,0.2-0.2,0.3-0.4,0.3c-0.7,0-1.3,0-2,0
				c0-0.2,0.1-0.3,0.1-0.4c1.4-4.5,2.9-8.9,4.3-13.4c0.1-0.3,0.2-0.4,0.5-0.4c0.7,0,1.5,0,2.2,0c0.2,0,0.3,0.1,0.3,0.2
				c1.5,4.6,2.9,9.1,4.4,13.7C63.4,71.8,63.4,71.8,63.4,72z M55.6,66c1.2,0,2.5,0,3.7,0c-0.6-2.1-1.3-4.2-1.9-6.2
				C56.8,61.9,56.2,63.9,55.6,66z"/>
			<path class="st1" d="M99.4,58.3c-0.2,0.6-0.4,1.2-0.5,1.8c-0.6-0.2-1.2-0.4-1.8-0.5c-0.7-0.1-1.4-0.1-2.1,0.1
				c-0.7,0.2-1.1,0.7-1.3,1.4c-0.1,0.7,0.1,1.4,0.8,1.8c0.6,0.4,1.2,0.6,1.8,0.9c0.8,0.4,1.6,0.7,2.2,1.3c2.1,1.6,1.9,4.8-0.3,6.3
				c-0.7,0.5-1.5,0.7-2.4,0.8c-1.5,0.1-3,0.1-4.3-0.6c-0.3-0.1-0.3-0.3-0.2-0.5c0.2-0.5,0.3-1,0.4-1.4c0.8,0.2,1.5,0.5,2.3,0.7
				c0.8,0.2,1.5,0.2,2.3-0.1c0.8-0.3,1.3-0.8,1.4-1.6c0.1-0.8-0.1-1.5-0.8-2c-0.5-0.4-1.1-0.6-1.7-0.9c-0.8-0.4-1.7-0.7-2.4-1.3
				c-2-1.7-1.8-4.6,0.4-6c0.7-0.4,1.4-0.7,2.2-0.7c1.2-0.1,2.4,0,3.6,0.4C99.1,58.1,99.2,58.2,99.4,58.3z"/>
			<path class="st1" d="M113.6,72.2c-2.6,0-4.6-1.8-4.8-4.4c-0.1-1-0.1-1.9,0.3-2.9c0.8-2.3,3-3.7,5.5-3.3c2.5,0.4,4.1,2.2,4.2,4.9
				c0,0.8-0.1,1.6-0.3,2.4C117.7,71,115.9,72.2,113.6,72.2z M111,67c0,0.9,0.2,1.8,0.7,2.5c1,1.4,2.9,1.5,3.9,0
				c1-1.7,1.1-3.4,0.1-5.1c-0.9-1.6-3-1.5-4,0C111.2,65.1,111,66,111,67z"/>
			<path class="st1" d="M135.3,69.9c0.1,0.5,0.2,0.9,0.3,1.4c0,0.1-0.1,0.2-0.2,0.3c-1.8,0.6-3.6,0.8-5.4,0.2
				c-1.3-0.5-2.1-1.4-2.6-2.6c-0.6-1.7-0.5-3.3,0.2-4.9c1-2.2,3.3-3.2,5.6-2.5c0.7,0.2,1.3,0.6,1.8,1.2c1.1,1.3,1.2,2.9,1.1,4.5
				c-2.3,0-4.5,0-6.8,0c-0.2,1.2,0.7,2.5,1.9,2.8c1.2,0.3,2.4,0.2,3.6-0.2C135,70,135.1,70,135.3,69.9z M134,65.8
				c0.2-1.4-0.8-2.6-2.1-2.7c-1.4-0.1-2.6,1.2-2.6,2.7C130.9,65.8,132.4,65.8,134,65.8z"/>
			<path class="st1" d="M102.7,63.5c-0.5,0-1,0-1.5,0c0-0.6,0-1.1,0-1.7c0.5,0,0.9,0,1.4,0c0-0.6,0-1.2,0-1.9
				c0.7-0.2,1.5-0.4,2.3-0.7c0,0.9,0,1.7,0,2.5c0.8,0,1.6,0,2.5,0c0,0.6,0,1.1,0,1.7c-0.8,0-1.6,0-2.5,0c0,0.2,0,0.3,0,0.4
				c0,1.5,0,2.9,0,4.4c0,0.3,0,0.7,0.1,1c0.2,0.7,0.6,1.1,1.4,1c0.3,0,0.5,0,0.9-0.1c0,0.5,0,1.1,0,1.6c0,0.1-0.1,0.1-0.2,0.2
				c-0.8,0.2-1.7,0.3-2.5,0c-1.2-0.3-1.7-1.2-1.8-2.4c-0.1-1-0.1-2.1-0.1-3.1C102.7,65.5,102.7,64.5,102.7,63.5z"/>
			<path class="st1" d="M122.9,71.9c-0.8,0-1.5,0-2.3,0c0-3.4,0-6.7,0-10.1c0.6,0,1.2,0,1.9,0c0,0.6,0.1,1.2,0.1,1.8c0,0,0,0,0.1,0
				c0.1-0.1,0.1-0.2,0.2-0.3c0.6-1.2,1.6-1.8,2.9-1.8c0.2,0,0.3,0.1,0.3,0.3c0,0.6,0,1.2,0,1.8c-0.3,0-0.5,0-0.7,0
				c-1,0-1.7,0.4-2.1,1.4c-0.2,0.4-0.3,0.9-0.3,1.4c0,1.7,0,3.4,0,5C122.9,71.6,122.9,71.8,122.9,71.9z"/>
			<path class="st1" d="M36.4,45.1c0.4,3-2.3,6.4-5.4,6.2C30.4,48.8,33.9,44.8,36.4,45.1z"/>
			<path d="M67.6,67c0.1-0.6,0.1-1.2,0.2-1.7c0.2-1,1.1-1.8,2.1-1.9c1.1-0.1,2,0.4,2.5,1.5c0.6,1.3,0.6,2.7,0,4
				c-0.5,1.2-1.6,1.7-2.7,1.5c-1.1-0.2-1.9-1.2-2-2.4C67.7,67.6,67.7,67.3,67.6,67C67.7,67,67.6,67,67.6,67z"/>
			<path d="M79.3,67c0.1-0.6,0.1-1.2,0.3-1.8c0.3-1,1.2-1.7,2.1-1.8c1.1-0.1,2,0.4,2.4,1.4c0.7,1.4,0.6,2.9-0.1,4.3
				c-0.5,1.1-1.6,1.5-2.7,1.3c-1-0.2-1.8-1.1-1.9-2.3C79.4,67.7,79.4,67.3,79.3,67C79.4,67,79.4,67,79.3,67z"/>
			<path d="M55.6,66c0.6-2.1,1.2-4.1,1.8-6.2c0.6,2,1.2,4.1,1.9,6.2C58,66,56.8,66,55.6,66z"/>
			<path d="M111,67c0-1,0.2-1.9,0.7-2.6c1-1.5,3.1-1.6,4,0c1,1.7,1,3.4-0.1,5.1c-0.9,1.5-2.9,1.4-3.9,0C111.3,68.8,111,67.9,111,67z
				"/>
			<path d="M134,65.8c-1.6,0-3.1,0-4.6,0c0-1.5,1.2-2.7,2.6-2.7C133.2,63.2,134.2,64.4,134,65.8z"/>
		</g>
		<g>
			<path class="st2" d="M78.1,126.7c12.2,0,24.4,0,36.6,0c9.8,0,19.5,0,29.3,0c0.7,0,1.3-0.1,1.9-0.4c1.7-0.9,2.6-2.3,2.6-4.2
				c0-7.6,0-15.2,0-22.8c0-2.7,0-5.5,0-8.2c0-1.1-0.3-2.2-1.1-3c-1-1.1-2.3-1.5-3.7-1.5c-43.8,0-87.5,0-131.3,0c-0.1,0-0.3,0-0.4,0
				c-2.5,0.1-4.4,2-4.4,4.5c0,10.3,0,20.7,0,31c0,0.3,0,0.7,0.1,1c0.5,2.1,2.2,3.5,4.4,3.5C34.1,126.7,56.1,126.7,78.1,126.7z"/>
			<path d="M78.1,126.7c-22,0-43.9,0-65.9,0c-2.2,0-4-1.4-4.4-3.5c-0.1-0.3-0.1-0.7-0.1-1c0-10.3,0-20.7,0-31c0-2.5,1.9-4.4,4.4-4.5
				c0.1,0,0.3,0,0.4,0c43.8,0,87.5,0,131.3,0c1.5,0,2.7,0.4,3.7,1.5c0.8,0.9,1.1,1.9,1.1,3c0,2.7,0,5.5,0,8.2c0,7.6,0,15.2,0,22.8
				c0,1.9-0.9,3.3-2.6,4.2c-0.6,0.3-1.3,0.4-1.9,0.4c-9.8,0-19.5,0-29.3,0C102.5,126.7,90.3,126.7,78.1,126.7z M17.4,108.3
				c0,0.8,0,1.7,0,2.5c0,1.6,0,3.1,0,4.7c0,1,0,1.9,0,2.9c0,0.5,0.1,0.9,0.5,1.3c0.3,0.3,0.6,0.4,1,0.4c0.5,0,0.9-0.2,1.3-0.4
				c1.6-0.9,3.2-1.8,4.8-2.7c3.5-2,7-4,10.6-5.9c1.8-1,3.5-2,5.3-3c0.2-0.1,0.4-0.3,0.6-0.5c0.5-0.6,0.5-1.4,0-2
				c-0.2-0.2-0.4-0.4-0.7-0.5c-0.8-0.4-1.6-0.9-2.3-1.3c-0.9-0.5-1.9-1.1-2.8-1.6c0,0-0.1-0.1-0.1-0.1c-4.9-2.7-9.8-5.5-14.7-8.2
				c-0.4-0.2-0.8-0.5-1.3-0.6c-0.6-0.1-1.1-0.1-1.5,0.4c-0.4,0.4-0.5,1-0.5,1.6c0,4.2,0,8.5,0,12.7
				C17.3,108.1,17.3,108.2,17.4,108.3z M60.5,109.8c-1,0-1.9,0-2.9,0c-0.3,0-0.4,0.1-0.4,0.4c0,0.4,0,0.8,0,1.2
				c0,0.3,0.1,0.3,0.3,0.3c1.3,0,2.6,0,3.9,0c0.3,0,0.3,0.1,0.3,0.3c-0.2,0.9-0.6,1.7-1.3,2.3c-1.2,0.9-2.5,1.2-3.9,1
				c-2-0.3-3.7-1.8-4.1-3.7c-0.5-2,0.3-4.1,1.9-5.3c1.9-1.3,4.4-1.2,6.1,0.2c0.2,0.2,0.3,0.2,0.5,0c0.3-0.3,0.5-0.6,0.8-0.8
				c0.3-0.2,0.2-0.4,0-0.6c-2-1.6-4.3-2-6.8-1.2c-4,1.3-5.9,5.7-4.2,9.3c1.1,2.4,3.7,4.2,7,4.1c3.4-0.2,6.4-2.8,5.9-7.2
				c0-0.3-0.2-0.3-0.4-0.3C62.4,109.8,61.4,109.8,60.5,109.8z M90.8,109.4c-0.9-0.8-2-1.1-3.1-0.9c-1.8,0.4-3.2,1.9-3.5,3.6
				c-0.3,1.9,0.5,3.7,2.2,4.6c1.3,0.7,2.7,0.9,4,0c0.2-0.1,0.3-0.3,0.5-0.4c0,0.4,0,0.8,0,1.1c-0.1,1.1-0.7,1.8-1.7,2
				c-1.1,0.3-2.2-0.2-2.8-1.2c-0.1-0.3-0.3-0.3-0.5-0.2c-0.4,0.2-0.7,0.3-1.1,0.5c-0.3,0.1-0.2,0.2-0.1,0.4c1.4,2.7,4.5,2.8,6.3,1.6
				c1.2-0.8,1.7-2,1.7-3.4c0.1-2.8,0-5.5,0-8.3c0-0.2,0-0.3-0.2-0.2c-0.3,0-0.6,0-0.9,0C90.9,108.7,90.9,108.7,90.8,109.4
				C90.8,109.4,90.8,109.4,90.8,109.4z M109.6,110.6c0,2.1,0,4.1,0,6.2c0,0.2,0,0.3,0.3,0.3c0.4,0,0.9,0,1.3,0
				c0.3,0,0.4-0.1,0.4-0.4c0-1.4,0-2.8,0-4.3c0-0.2,0-0.3,0.3-0.3c0.3,0,0.7,0,1,0c0.8,0,1.6,0.1,2.4-0.1c2.5-0.5,3.9-2.9,3.1-5.2
				c-0.5-1.5-2-2.7-3.8-2.8c-1.6-0.1-3.2,0-4.8,0c-0.3,0-0.3,0.1-0.3,0.3C109.6,106.4,109.6,108.5,109.6,110.6z M128.7,116
				c0,0.3,0,0.6,0,0.8c0,0.2,0.1,0.2,0.2,0.2c0.5,0,1,0,1.5,0c0.2,0,0.2,0,0.2-0.2c0-1.7,0-3.3,0-5c0-1.2-0.6-2.2-1.7-2.8
				c-1.4-0.7-2.9-0.8-4.3-0.1c-0.6,0.3-1.1,0.7-1.4,1.3c-0.1,0.2-0.1,0.3,0.1,0.4c0.4,0.2,0.9,0.3,1.3,0.5c0.1,0,0.2,0.1,0.3-0.1
				c0.6-1,2.4-1.1,3.2-0.3c0.4,0.3,0.6,0.7,0.5,1.2c-0.1-0.1-0.3-0.1-0.4-0.1c-1.5-0.5-2.9-0.5-4.2,0.4c-1.7,1.1-1.7,3.4,0,4.5
				C125.6,117.7,127.4,117.5,128.7,116z M78.8,117.3c2.5,0,4.5-1.9,4.5-4.4c0-2.5-2-4.5-4.5-4.5c-2.5,0-4.5,1.9-4.5,4.4
				C74.3,115.4,76.2,117.3,78.8,117.3z M73.4,112.9c0-2.5-2-4.4-4.5-4.4c-2.6,0-4.5,1.9-4.5,4.5c0,2.5,2,4.4,4.5,4.4
				C71.5,117.3,73.4,115.4,73.4,112.9z M99.3,114.3c0.1-0.1,0.2-0.1,0.4-0.2c1.6-0.7,3.2-1.3,4.8-2c0.9-0.4,0.9-0.4,0.4-1.2
				c-1.4-2.9-4.4-2.9-6.1-1.7c-1.4,1-2.1,2.9-1.7,4.7c0.4,1.7,1.7,3,3.5,3.3c1.7,0.3,3.2-0.2,4.3-1.6c0.2-0.2,0.2-0.3-0.1-0.5
				c-0.3-0.2-0.6-0.4-0.9-0.6c-0.2-0.2-0.4-0.2-0.6,0.1C102.2,116.1,100.1,115.9,99.3,114.3z M130.8,108.7c0,0.1,0.1,0.2,0.1,0.4
				c1.1,2.4,2.1,4.8,3.2,7.2c0.1,0.2,0.1,0.4,0,0.7c-0.6,1.2-1.2,2.5-1.7,3.8c0,0.1-0.1,0.2-0.1,0.3c0.6,0,1.1,0,1.7,0
				c0.2,0,0.3-0.1,0.4-0.3c1.7-3.9,3.4-7.8,5.2-11.7c0-0.1,0.1-0.2,0.1-0.3c-0.6,0-1.3,0-1.9,0c-0.2,0-0.3,0.1-0.3,0.2
				c-0.2,0.6-0.5,1.2-0.7,1.8c-0.5,1.2-1,2.4-1.4,3.6c-0.1-0.1-0.2-0.2-0.2-0.4c-0.7-1.7-1.4-3.4-2.1-5c0-0.1-0.1-0.3-0.3-0.3
				C132.1,108.7,131.4,108.7,130.8,108.7z M96.1,110.5c0-2.1,0-4.2,0-6.2c0-0.2-0.1-0.3-0.3-0.3c-0.4,0-0.9,0-1.3,0
				c-0.3,0-0.4,0.1-0.4,0.4c0,3.8,0,7.6,0,11.5c0,0.3,0,0.6,0,1c0,0.2,0.1,0.3,0.3,0.3c0.5,0,0.9,0,1.4,0c0.3,0,0.3-0.1,0.3-0.3
				C96.1,114.7,96.1,112.6,96.1,110.5z M119.8,110.5c0,2.1,0,4.2,0,6.2c0,0.3,0.1,0.3,0.3,0.3c0.4,0,0.9,0,1.3,0
				c0.3,0,0.4-0.1,0.4-0.4c0-3.5,0-7,0-10.5c0-0.6,0-1.3,0-1.9c0-0.2-0.1-0.3-0.3-0.3c-0.5,0-0.9,0-1.4,0c-0.3,0-0.4,0.1-0.4,0.4
				C119.8,106.4,119.8,108.5,119.8,110.5z"/>
			<path class="st3" d="M60.5,109.8c0.9,0,1.9,0,2.8,0c0.2,0,0.4,0,0.4,0.3c0.5,4.4-2.5,7-5.9,7.2c-3.3,0.2-5.9-1.7-7-4.1
				c-1.7-3.7,0.2-8,4.2-9.3c2.4-0.8,4.7-0.4,6.8,1.2c0.2,0.2,0.3,0.3,0,0.6c-0.3,0.2-0.6,0.5-0.8,0.8c-0.2,0.2-0.3,0.2-0.5,0
				c-1.7-1.5-4.3-1.5-6.1-0.2c-1.7,1.2-2.4,3.3-1.9,5.3c0.5,2,2.1,3.5,4.1,3.7c1.4,0.2,2.7-0.1,3.9-1c0.8-0.6,1.2-1.4,1.3-2.3
				c0-0.3,0-0.3-0.3-0.3c-1.3,0-2.6,0-3.9,0c-0.3,0-0.4-0.1-0.3-0.3c0-0.4,0-0.8,0-1.2c0-0.3,0-0.4,0.4-0.4
				C58.6,109.8,59.5,109.8,60.5,109.8z"/>
			<path class="st4" d="M17.8,93.7c0.4-0.5,1-0.5,1.5-0.4c0.5,0.1,0.9,0.4,1.3,0.6c4.9,2.7,9.8,5.5,14.7,8.2c0,0,0.1,0.1,0.1,0.1
				c0,0-0.1,0.1-0.1,0.1c-0.2,0.2-0.5,0.4-0.7,0.7c-1.2,1.2-2.4,2.4-3.7,3.6c0,0,0,0-0.1,0c-0.7-0.8-1.4-1.4-2.2-2.2
				c-1.2-1.2-2.4-2.4-3.6-3.6c0,0-0.1-0.1-0.2-0.1c0,0-0.1-0.1-0.1-0.1c-1.9-1.9-3.8-3.8-5.7-5.7C18.8,94.6,18.3,94.1,17.8,93.7z"/>
			<path class="st5" d="M31,106.6C31,106.6,31,106.6,31,106.6c1,1,2,1.9,3,2.9c0.5,0.5,1,0.9,1.5,1.4c0,0,0,0.1,0.1,0.1
				c-3.5,2-7,4-10.6,5.9c-1.6,0.9-3.2,1.8-4.8,2.7c-0.4,0.2-0.8,0.4-1.3,0.4c-0.4,0-0.7-0.1-1-0.4c3.1-3.1,6.2-6.1,9.3-9.2
				C28.4,109.2,29.7,107.9,31,106.6z"/>
			<path class="st6" d="M25.1,100.8c0.1,0,0.1,0,0.2,0.1c1.2,1.2,2.4,2.4,3.6,3.6c-0.2,0-0.3,0.1-0.4,0.2c-1.1,1.1-2.3,2.3-3.4,3.4
				c-0.7,0.7-1.5,1.5-2.2,2.2c-1.7,1.7-3.4,3.4-5.1,5c-0.1,0.1-0.2,0.2-0.3,0.2c0-1.6,0-3.1,0-4.7c0-0.8,0-1.7,0-2.5
				c0.1,0,0.2,0,0.3-0.1c0.3-0.3,0.7-0.6,1-0.9c1.7-1.7,3.4-3.4,5.1-5.1C24.1,101.7,24.7,101.3,25.1,100.8z"/>
			<path class="st7" d="M90.8,109.4C90.8,109.4,90.8,109.4,90.8,109.4c0.1-0.7,0.1-0.7,0.8-0.7c0.3,0,0.6,0,0.9,0
				c0.2,0,0.2,0.1,0.2,0.2c0,2.8,0,5.5,0,8.3c0,1.4-0.5,2.6-1.7,3.4c-1.8,1.2-4.9,1-6.3-1.6c-0.1-0.2-0.1-0.3,0.1-0.4
				c0.4-0.1,0.8-0.3,1.1-0.5c0.2-0.1,0.3-0.1,0.5,0.2c0.6,1,1.6,1.5,2.8,1.2c1-0.2,1.6-0.9,1.7-2c0-0.4,0-0.7,0-1.1
				c-0.2,0.2-0.3,0.3-0.5,0.4c-1.3,0.9-2.7,0.8-4,0c-1.6-0.9-2.5-2.7-2.2-4.6c0.3-1.7,1.7-3.2,3.5-3.6
				C88.8,108.3,89.8,108.6,90.8,109.4z M91,112.9c0-0.3,0-0.5-0.1-0.7c-0.3-1-0.8-1.7-1.8-1.9c-0.9-0.2-1.7,0.1-2.3,0.8
				c-0.8,1-0.9,2.6,0,3.6c0.8,1,2.3,1.2,3.3,0.5C90.7,114.6,91,113.8,91,112.9z"/>
			<path class="st8" d="M25.1,100.8c-0.4,0.5-0.9,0.9-1.4,1.3c-1.7,1.7-3.4,3.4-5.1,5.1c-0.3,0.3-0.7,0.6-1,0.9
				c-0.1,0.1-0.1,0.1-0.3,0.1c0-0.1,0-0.2,0-0.4c0-4.2,0-8.5,0-12.7c0-0.6,0-1.1,0.5-1.6c0.5,0.5,1,0.9,1.4,1.4
				c1.9,1.9,3.8,3.8,5.7,5.7C25,100.8,25,100.8,25.1,100.8z"/>
			<path class="st9" d="M17.4,115.5c0.2,0,0.2-0.1,0.3-0.2c1.7-1.7,3.4-3.4,5.1-5c0.7-0.7,1.4-1.5,2.2-2.2c1.2-1.1,2.3-2.2,3.4-3.4
				c0.1-0.1,0.2-0.2,0.4-0.2c0.7,0.7,1.5,1.4,2.2,2.2c-1.3,1.3-2.5,2.5-3.8,3.8c-3.1,3.1-6.2,6.1-9.3,9.2c-0.3-0.4-0.5-0.8-0.5-1.3
				C17.3,117.4,17.3,116.4,17.4,115.5z"/>
			<path class="st10" d="M109.6,110.6c0-2.1,0-4.1,0-6.2c0-0.3,0.1-0.3,0.3-0.3c1.6,0,3.2,0,4.8,0c1.8,0.1,3.3,1.3,3.8,2.8
				c0.7,2.3-0.7,4.6-3.1,5.2c-0.8,0.2-1.6,0.1-2.4,0.1c-0.3,0-0.7,0-1,0c-0.2,0-0.3,0.1-0.3,0.3c0,1.4,0,2.8,0,4.3
				c0,0.3-0.1,0.4-0.4,0.4c-0.4,0-0.9,0-1.3,0c-0.3,0-0.3-0.1-0.3-0.3C109.6,114.7,109.6,112.6,109.6,110.6z M113.3,105.8
				c-0.6,0-1,0-1.5,0c-0.2,0-0.3,0.1-0.3,0.3c0,1.3,0,2.6,0,3.9c0,0.2,0,0.3,0.2,0.3c0.9,0,1.8,0,2.7,0c1.1,0,2-0.9,2.1-2
				c0.1-1.1-0.6-2.1-1.7-2.4C114.4,105.8,113.8,105.9,113.3,105.8z"/>
			<path class="st7" d="M128.7,116c-1.3,1.5-3.1,1.7-4.6,0.7c-1.7-1.1-1.7-3.4,0-4.5c1.3-0.8,2.7-0.9,4.2-0.4c0.1,0,0.2,0.1,0.4,0.1
				c0-0.5-0.2-0.9-0.5-1.2c-0.8-0.8-2.7-0.7-3.2,0.3c-0.1,0.2-0.2,0.1-0.3,0.1c-0.4-0.2-0.9-0.4-1.3-0.5c-0.2-0.1-0.3-0.2-0.1-0.4
				c0.3-0.6,0.8-1,1.4-1.3c1.4-0.7,2.9-0.6,4.3,0.1c1.1,0.6,1.7,1.6,1.7,2.8c0,1.7,0,3.3,0,5c0,0.2-0.1,0.2-0.2,0.2
				c-0.5,0-1,0-1.5,0c-0.2,0-0.2,0-0.2-0.2C128.7,116.6,128.7,116.3,128.7,116z M126.3,115.6c1.1,0,2.1-0.8,2.4-1.8
				c0-0.2,0-0.3-0.2-0.4c-0.3-0.1-0.7-0.3-1-0.3c-0.8-0.1-1.5-0.1-2.2,0.4c-0.4,0.3-0.5,0.6-0.5,1.1c0,0.4,0.3,0.7,0.7,0.8
				C125.8,115.5,126.1,115.6,126.3,115.6z"/>
			<path class="st7" d="M78.8,117.3c-2.5,0-4.5-1.9-4.5-4.4c0-2.5,2-4.4,4.5-4.4c2.5,0,4.5,2,4.5,4.5
				C83.3,115.4,81.3,117.3,78.8,117.3z M81.3,113.1c0-1.7-1-2.8-2.3-2.9c-1.2-0.1-2.2,0.6-2.6,1.7c-0.4,1.2-0.1,2.5,0.9,3.2
				c0.8,0.6,1.7,0.7,2.6,0.2C80.9,114.8,81.3,114,81.3,113.1z"/>
			<path class="st7" d="M73.4,112.9c0,2.5-1.9,4.4-4.5,4.4c-2.5,0-4.5-1.9-4.5-4.4c0-2.5,1.9-4.5,4.5-4.5
				C71.5,108.5,73.4,110.4,73.4,112.9z M68.9,110.2c-1.4,0-2.5,1.2-2.5,2.7c0,1.5,1.1,2.7,2.5,2.7c1.4,0,2.6-1.2,2.6-2.7
				C71.5,111.4,70.4,110.2,68.9,110.2z"/>
			<path class="st7" d="M99.3,114.3c0.8,1.6,2.9,1.8,4.1,0.4c0.2-0.2,0.3-0.3,0.6-0.1c0.3,0.2,0.6,0.4,0.9,0.6
				c0.3,0.2,0.2,0.3,0.1,0.5c-1.1,1.4-2.6,1.9-4.3,1.6c-1.8-0.3-3.1-1.6-3.5-3.3c-0.4-1.9,0.2-3.7,1.7-4.7c1.7-1.2,4.7-1.2,6.1,1.7
				c0.4,0.8,0.4,0.8-0.4,1.2c-1.6,0.7-3.2,1.3-4.8,2C99.6,114.1,99.4,114.2,99.3,114.3z M101.3,110.2c-1.2,0-2.4,1.1-2.4,2.4
				c0,0.3,0.1,0.2,0.3,0.1c1.2-0.5,2.3-1,3.5-1.4c0.2-0.1,0.2-0.2,0.1-0.4C102.5,110.4,101.9,110.2,101.3,110.2z"/>
			<path class="st7" d="M130.8,108.7c0.6,0,1.3,0,1.9,0c0.2,0,0.2,0.2,0.3,0.3c0.7,1.7,1.4,3.4,2.1,5c0,0.1,0.1,0.3,0.2,0.4
				c0.5-1.2,1-2.4,1.4-3.6c0.2-0.6,0.5-1.2,0.7-1.8c0.1-0.2,0.1-0.2,0.3-0.2c0.6,0,1.3,0,1.9,0c0,0.1,0,0.2-0.1,0.3
				c-1.7,3.9-3.4,7.8-5.2,11.7c-0.1,0.2-0.2,0.3-0.4,0.3c-0.6,0-1.1,0-1.7,0c-0.1-0.1,0-0.2,0.1-0.3c0.6-1.3,1.1-2.5,1.7-3.8
				c0.1-0.3,0.1-0.4,0-0.7c-1.1-2.4-2.1-4.8-3.2-7.2C130.8,109,130.8,108.9,130.8,108.7z"/>
			<path class="st11" d="M35.4,111C35.4,111,35.4,111,35.4,111c-0.1-3-0.1-5.8-0.1-8.7c0,0,0.1-0.1,0.1-0.1c0.9,0.5,1.9,1.1,2.8,1.6
				c0.8,0.4,1.6,0.9,2.3,1.3c0.3,0.1,0.5,0.3,0.7,0.5c0.6,0.6,0.6,1.3,0,2c-0.2,0.2-0.4,0.3-0.6,0.5C39,109.1,37.2,110,35.4,111z"/>
			<path class="st10" d="M96.1,110.5c0,2.1,0,4.1,0,6.2c0,0.3-0.1,0.3-0.3,0.3c-0.5,0-0.9,0-1.4,0c-0.2,0-0.3-0.1-0.3-0.3
				c0-0.3,0-0.6,0-1c0-3.8,0-7.6,0-11.5c0-0.3,0.1-0.4,0.4-0.4c0.4,0,0.9,0,1.3,0c0.2,0,0.3,0.1,0.3,0.3
				C96.1,106.4,96.1,108.5,96.1,110.5z"/>
			<path class="st1" d="M119.8,110.5c0-2.1,0-4.1,0-6.2c0-0.3,0.1-0.4,0.4-0.4c0.5,0,0.9,0,1.4,0c0.2,0,0.3,0.1,0.3,0.3
				c0,0.6,0,1.3,0,1.9c0,3.5,0,7,0,10.5c0,0.3-0.1,0.4-0.4,0.4c-0.4,0-0.9,0-1.3,0c-0.2,0-0.3-0.1-0.3-0.3
				C119.8,114.7,119.8,112.6,119.8,110.5z"/>
			<path class="st12" d="M35.4,102.3c0,2.9,0,5.7,0,8.6c-0.5-0.5-1-0.9-1.5-1.4c-1-1-1.9-1.9-2.9-2.9c1.2-1.2,2.4-2.4,3.7-3.6
				C34.9,102.8,35.1,102.6,35.4,102.3z"/>
			<path d="M91,112.9c0,0.9-0.3,1.7-1,2.2c-1,0.8-2.5,0.5-3.3-0.5c-0.8-1-0.8-2.6,0-3.6c0.6-0.7,1.4-1,2.3-0.8
				c1,0.2,1.6,0.9,1.8,1.9C91,112.4,91,112.6,91,112.9z"/>
			<path d="M113.3,105.8c0.5,0,1.1-0.1,1.6,0.1c1.1,0.3,1.8,1.3,1.7,2.4c-0.1,1.1-1.1,2-2.1,2c-0.9,0-1.8,0-2.7,0
				c-0.2,0-0.2-0.1-0.2-0.3c0-1.3,0-2.6,0-3.9c0-0.2,0-0.3,0.3-0.3C112.3,105.9,112.8,105.8,113.3,105.8z"/>
			<path d="M126.3,115.6c-0.2,0-0.5-0.1-0.8-0.2c-0.4-0.2-0.7-0.4-0.7-0.8c0-0.4,0.1-0.8,0.5-1.1c0.7-0.5,1.4-0.5,2.2-0.4
				c0.4,0,0.7,0.2,1,0.3c0.2,0.1,0.2,0.2,0.2,0.4C128.4,114.8,127.4,115.6,126.3,115.6z"/>
			<path d="M81.3,113.1c0,0.8-0.4,1.7-1.4,2.2c-0.9,0.5-1.8,0.4-2.6-0.2c-0.9-0.7-1.3-2-0.9-3.2c0.4-1.1,1.4-1.7,2.6-1.7
				C80.3,110.3,81.3,111.5,81.3,113.1z"/>
			<path d="M68.9,110.2c1.4,0,2.5,1.2,2.5,2.7c0,1.5-1.1,2.7-2.6,2.7c-1.4,0-2.5-1.2-2.5-2.7C66.4,111.4,67.5,110.2,68.9,110.2z"/>
			<path d="M101.3,110.2c0.6,0,1.1,0.2,1.5,0.7c0.1,0.2,0.1,0.3-0.1,0.4c-1.2,0.5-2.4,1-3.5,1.4c-0.1,0.1-0.3,0.1-0.3-0.1
				C99,111.3,100.1,110.2,101.3,110.2z"/>
		</g>
	</g>
	<g class="st13">
		<path class="st14" d="M78.1,10.8c-36.6,0-66.5,29.9-66.5,66.5c0,36.6,29.8,66.5,66.5,66.5c36.6,0,66.5-29.9,66.5-66.5
			C144.6,40.7,114.7,10.8,78.1,10.8z M131.7,77.3c0,10.8-3.2,20.9-8.8,29.3l-81-68.7c9.5-8.8,22.3-14.2,36.2-14.2
			C107.6,23.7,131.7,47.8,131.7,77.3z M24.6,77.3c0-11,3.4-21.3,9.1-29.8l81.1,68.8c-9.6,9-22.5,14.6-36.7,14.6
			C48.6,130.8,24.6,106.8,24.6,77.3z"/>
		<rect x="71.2" y="10.6" class="st14" width="6.9" height="0.2"/>
	</g>
</g>
</svg>
