<?xml version="1.0" encoding="utf-8"?>
<!-- Generator: Adobe Illustrator 22.0.1, SVG Export Plug-In . SVG Version: 6.00 Build 0)  -->
<svg version="1.1" id="Capa_1" xmlns="http://www.w3.org/2000/svg" xmlns:xlink="http://www.w3.org/1999/xlink" x="0px" y="0px"
	 viewBox="0 0 155 155" style="enable-background:new 0 0 155 155;" xml:space="preserve">
<style type="text/css">
	.st0{fill:#EBECF0;}
	.st1{fill:#2B86C6;}
	.st2{fill:#94B860;}
	.st3{opacity:0.31;fill:#7996A7;enable-background:new    ;}
	.st4{opacity:0.21;fill:#FFFFFF;enable-background:new    ;}
	.st5{fill:#8C91A5;stroke:#FFFFFF;stroke-width:0.75;stroke-miterlimit:10;}
</style>
<g>
	<circle class="st0" cx="77.5" cy="77.5" r="71.5"/>
	<g>
		<g>
			<circle class="st1" cx="70.5" cy="77.5" r="51.8"/>
			<path class="st2" d="M76.8,103.5c-0.2,0.2-0.1,0.3-0.3,0.6c-0.1,0.2-0.2,0.1-0.4,0.4c-0.1,0.1-0.1,0.2-0.2,0.4
				c-0.1,0.2-0.2,0.3-0.5,0.6c-0.2,0.2-0.4,0.4-0.8,0.7c-0.2,0.1-0.2,0.2-0.3,0.2c-0.3,0.2-0.6,0-0.9,0.1c-0.3,0.1-0.5,0.4-0.6,0.5
				c-0.2,0.3-0.2,0.5-0.2,1c0,0.6,0,0.6,0,1c0,0.3-0.1,0.6-0.2,0.9c-0.2,0.6-0.5,0.6-0.6,1c0,0.1,0,0.2,0,0.6c0,0.2,0,0.3,0,0.4
				c0,0.3-0.1,0.3-0.1,0.5c0,0.2,0.1,0.3,0.2,0.4c0.2,0.2,0.5,0.3,0.6,0.4c0.2,0.1,0.7,0.2,1.1,0c0.2-0.1,0.2-0.3,0.6-1
				c0.2-0.6,0.3-0.5,0.5-1c0.3-0.7,0.2-0.7,0.5-1.1c0.2-0.3,0.2-0.3,0.8-1.2c0.5-0.7,0.7-1,0.7-1.2c0.1-0.6-0.3-0.9-0.1-1.4
				c0.1-0.1,0.2-0.3,0.3-0.3c0.1,0,0.1,0.2,0.2,0.2c0.1,0,0.2-0.4,0.2-0.4c0.1-0.3,0.1-0.5,0-0.9c-0.1-0.8-0.1-0.5-0.1-1.3
				c0-0.3,0-0.5-0.1-0.6C77.1,103.2,76.9,103.3,76.8,103.5z"/>
			<path class="st2" d="M47.7,56c-0.1,0-0.2,0.1-0.2,0.2c-0.1,0.2,0.2,0.4,0.3,0.6c0.2,0.2,0.3,0.2,0.6,0.4c0.2,0.1,0.4,0.2,0.5,0.2
				c0.2,0,0.3-0.3,0.3-0.3c0.1-0.2,0-0.2,0.1-0.4c0.1-0.1,0.1-0.2,0.2-0.4c0-0.1,0.1-0.2,0-0.2c-0.1-0.1-0.3,0-0.4,0
				c-0.3,0.1-0.3,0.1-0.5,0.2c-0.2,0-0.5,0-0.5-0.1C47.9,56,47.8,56,47.7,56z"/>
			<path class="st2" d="M46.3,51.9c-0.1-0.1-0.3,0.1-0.5,0.4c-0.1,0.2-0.1,0.4-0.1,0.5c0,0.1,0,0.3,0.1,0.4c0,0,0.1,0,0.3-0.2
				c0.1-0.1,0.2-0.2,0.3-0.3c0-0.1,0-0.2,0-0.4C46.3,52.1,46.3,52,46.3,51.9z"/>
			<path class="st2" d="M45.3,53.5c-0.1,0.1,0.1,0.3,0,0.6c-0.1,0.1-0.1,0.1-0.3,0.3c-0.1,0.2-0.2,0.3-0.2,0.5
				c0,0.2,0.1,0.5,0.3,0.5c0.1,0,0.2-0.1,0.3-0.2c0.2-0.2,0.3-0.5,0.4-0.6c0.1-0.3,0-0.3,0.1-0.7c0.1-0.2,0.1-0.3,0-0.4
				c0-0.1-0.1-0.1-0.2-0.1C45.7,53.5,45.4,53.4,45.3,53.5z"/>
			<path class="st2" d="M53.3,55.8c-0.1,0-0.2,0.1-0.1,0.2c0,0.1,0.1,0.2,0.2,0.1c0.1,0,0.1-0.1,0.1-0.1
				C53.5,55.9,53.4,55.8,53.3,55.8z"/>
			<path class="st2" d="M53.4,56.4c0,0,0,0.1,0,0.1c0,0,0.1,0,0.1,0c0,0,0-0.1,0-0.1C53.6,56.3,53.4,56.3,53.4,56.4z"/>
			<path class="st2" d="M54,56c0,0-0.2,0.1-0.2,0.2s0.1,0.1,0.1,0.2c0,0.1-0.1,0.2-0.1,0.3c0,0.1,0.1,0.1,0.2,0.2
				c0.2,0.1,0.2,0,0.3,0.1c0.2,0.1,0.1,0.5,0.3,0.6c0.1,0,0.3,0,0.3-0.1s0-0.1,0-0.2c-0.2-0.4-0.3-0.5-0.3-0.6s0.2-0.1,0.3-0.1
				c0.1,0,0.2,0.1,0.2,0.1c0,0,0-0.1-0.1-0.2c-0.1-0.1-0.2-0.2-0.4-0.3C54.6,56,54.3,55.9,54,56z"/>
			<path class="st2" d="M55.5,58.2c0,0,0.1,0,0.3,0.1c0.1,0.1,0.2,0.1,0.2,0.1c0.2,0.1,0.4,0,0.7,0c0.4,0,0.8,0.1,0.8,0.2
				c0,0.1-0.3,0.1-0.3,0.1c-0.1,0-0.3,0-0.6,0c-0.4,0-0.6-0.1-0.7-0.1C55.6,58.5,55.5,58.3,55.5,58.2z"/>
			<path class="st2" d="M103.4,83.7c-0.1,0-0.1,0.1-0.3,0.9c-0.1,0.5-0.2,0.8-0.2,0.9c0,0.5,0.2,0.5,0.2,1c0,0.1,0,0.2,0.1,0.2
				c0.1,0.1,0.5,0,0.7-0.2c0.3-0.3,0.4-0.8,0.4-0.8c0-0.3-0.1-0.4-0.5-1.2C103.6,84,103.5,83.7,103.4,83.7z"/>
			<path class="st2" d="M113.5,87.7c-0.2-0.1-0.2-0.1-0.5-0.1c-0.3-0.1-0.4-0.4-0.5-0.3c-0.1,0-0.2,0.3-0.2,0.5
				c0,0.1-0.1,0.9,0.4,1.3c0.1,0.1,0.2,0.1,0.3,0.2c0,0.1,0,0.1,0,0.3c0,0.2,0,0.3,0,0.5c0,0.2,0.1,0.2,0.3,0.5
				c0.1,0.1,0.1,0.3,0.2,0.4c0.1,0.4-0.1,0.6-0.1,1c0,0.4,0.1,0.3,0.2,0.9c0.1,0.5,0,1,0,1.4c-0.1,0.5-0.1,0.6-0.1,0.9
				c0,0.4,0.2,0.5,0.1,0.8c0,0.3-0.2,0.4-0.2,0.7c0,0.2,0.1,0.2,0.2,0.6c0.1,0.4,0.1,0.5,0.2,0.6c0.2,0.1,0.6-0.2,0.6-0.3
				c0.3-0.3,0.3-0.6,0.7-1.5c0.2-0.6,0.4-1,0.3-1.1c-0.1-0.1-0.4,0.1-0.5,0c-0.1-0.1,0-0.2,0.1-0.5c0.1-0.3,0.1-0.6,0-0.7
				c-0.1-0.1-0.2-0.1-0.2-0.2c-0.1-0.2,0-0.4,0-0.5c0.1-0.4,0.4-0.5,0.4-0.7s-0.2-0.2-0.4-0.5c-0.1-0.2-0.1-0.4-0.1-0.8
				c0-0.1,0-0.2-0.1-0.3c-0.1-0.2-0.2-0.1-0.3-0.3c-0.1-0.1-0.1-0.3-0.2-0.6c0-0.2,0-0.2,0-0.3c-0.1-0.5-0.4-0.5-0.5-0.9
				c0-0.2,0.1-0.3,0-0.6C113.7,87.9,113.6,87.8,113.5,87.7z"/>
			<path class="st2" d="M112.6,91.3c-0.2,0.1-0.1,0.6,0,0.7c0.1,0,0.3-0.1,0.4-0.3c0,0,0-0.1,0-0.2
				C112.9,91.3,112.7,91.2,112.6,91.3z"/>
			<path class="st2" d="M112.8,93.5c0.1,0,0.1,0.1,0.1,0.2c0,0.1,0,0.2,0,0.2s-0.1,0-0.2,0C112.6,93.8,112.8,93.5,112.8,93.5z"/>
			<path class="st2" d="M112.9,92.5c-0.1,0-0.2,0.1-0.2,0.2c0,0.1,0.3,0.2,0.3,0.1C113.1,92.8,113,92.5,112.9,92.5z"/>
			<path class="st2" d="M112.3,89.7c-0.1,0-0.1,0.2-0.1,0.3c0,0.2,0.3,0.4,0.4,0.3c0.1,0,0-0.3-0.1-0.4
				C112.5,89.9,112.4,89.7,112.3,89.7z"/>
			<path class="st2" d="M113,95.2c-0.1,0-0.1,0.7,0,0.7c0,0,0.1-0.2,0.1-0.3C113.2,95.4,113,95.2,113,95.2z"/>
			<path class="st2" d="M114.1,98.3c-0.2,0-0.3,0.2-0.3,0.4c0,0.1,0.1,0.1,0.1,0.2c0.1,0.2-0.1,0.3,0,0.4c0.1,0.2,0.4,0.3,0.6,0.3
				c0.1,0,0.2-0.1,0.2-0.1c0.1,0,0.1,0.2,0.2,0.5c0.1,0.1,0.2,0.1,0.3,0.2c0.2,0.1,0.3,0,0.4,0.1c0,0.1,0,0.1,0.1,0.2
				c0.1,0,0.1,0.1,0.2,0c0.1,0,0.2-0.2,0.2-0.4c-0.1-0.2-0.3-0.1-0.5-0.4c-0.1-0.1-0.2-0.2-0.1-0.3c0-0.2,0.5-0.2,0.6-0.6
				c0,0,0-0.1,0-0.2c-0.1-0.2-0.6-0.3-1-0.2c-0.2,0.1-0.3,0.3-0.4,0.3c-0.1,0-0.1-0.1-0.2-0.3C114.4,98.5,114.3,98.3,114.1,98.3z"/>
			<path class="st2" d="M120.5,86c0,0,0,0-0.3,0.7c-0.3,0.8-0.3,0.8-0.4,1c-0.2,0.2-0.4,0.3-0.4,0.6c0,0.1,0,0.2,0,0.3
				c0,0.2-0.3,0.3-0.4,0.4c-0.2,0.2-0.2,0.3-0.7,1.5c-0.2,0.6-0.3,0.8-0.4,0.7c-0.1,0-0.1-0.5-0.2-0.5c-0.1,0-0.3,0.5-0.4,1
				c-0.2,0.8-0.1,0.9-0.2,1.7c-0.1,0.6-0.2,0.9-0.2,1.4c0,0.2,0.1,0.4,0.1,0.6c0.1,0.3,0.1,0.5,0.2,0.6c0.2,0.1,0.5-0.1,0.7-0.3
				c0.4-0.5,0.2-0.8,0.5-1.6c0.3-0.6,0.5-0.5,0.6-0.9c0.1-0.5,0-0.9,0.2-1.3c0.1-0.2,0.2-0.1,0.3-0.3c0.5-0.5,0-1.1,0.2-2.4
				c0-0.3,0.1-0.7,0.4-1.3c0.1-0.2,0.2-0.3,0.2-0.5C120.8,86.7,120.6,86,120.5,86z"/>
			<path class="st2" d="M118.7,72.9c-0.2,0-0.3,0.4-0.3,0.5c0,0-0.2,0.7,0.1,1c0,0,0.2,0.1,0.3,0.1c0.2-0.1,0.2-0.5,0.2-0.6
				C119.1,73.4,118.9,72.9,118.7,72.9z"/>
			<path class="st2" d="M69.8,34.1c0-0.1,0-0.1,0.3-0.6c0.5-0.7,0.5-0.7,0.5-0.8c0.4-0.3,0.6,0,1.5-0.2c0.5-0.1,0.7-0.3,1.2-0.4
				c0.2,0,0.5,0,0.6,0.1c0,0.1-0.4,0.2-0.8,0.4c-0.5,0.2-0.6,0.2-0.9,0.3c-0.5,0.2-0.6,0.3-0.7,0.4c-0.2,0.1-0.4,0.3-0.4,0.6
				c0,0.2,0.2,0.4,0.3,0.5c0.2,0.2,0.5,0.2,0.5,0.2c0,0-0.2,0.1-0.5,0.1C70.8,34.6,69.9,34.5,69.8,34.1z"/>
			<path class="st2" d="M68.8,34.9c0.1-0.2,0.6-0.3,0.7-0.1c0.1,0.1,0.1,0.2,0,0.3c-0.1,0.2-0.3,0.2-0.5,0.1
				C68.9,35.2,68.8,35,68.8,34.9z"/>
			<path class="st2" d="M78,30.6c-0.1,0.1-0.2,0.2-0.2,0.4c0,0.2,0.3,0.2,0.9,0.3c0.6,0.1,0.9,0.1,1.3,0c0.4,0,0.5,0,0.5-0.1
				c0-0.1-0.3-0.1-0.8-0.3C78.6,30.6,78.3,30.5,78,30.6z"/>
			<path class="st2" d="M81,31.5c0.1,0.2,0.6,0.2,0.6,0c0-0.1,0-0.1,0-0.2c-0.1-0.2-0.4-0.2-0.6-0.1C81,31.3,80.9,31.5,81,31.5z"/>
			<path class="st2" d="M66.9,31.2c0.1,0.2,1.1,0.1,1.5,0.1c0.8-0.1,0.7-0.2,1.2-0.2c0.6,0,0.8,0.2,1.4,0.1c0.3,0,0.8-0.1,0.8-0.2
				s-0.5-0.2-0.9-0.2c-0.5,0-0.6,0-1.5,0.1c-0.6,0-0.9,0.1-1.1,0c-0.6-0.1-0.8-0.3-1.2-0.2C67,30.9,66.9,31.1,66.9,31.2z"/>
			<path class="st2" d="M40.4,46.6c0,0.1,0.5-0.1,2-0.5c0.6-0.2,0.8-0.2,1.1-0.4c0.3-0.2,0.3-0.3,0.7-0.6c0.4-0.2,0.6-0.3,0.7-0.5
				c0-0.2-0.2-0.3-0.3-0.6c0-0.1,0-0.2,0.1-1.1c0.1-0.5,0.1-0.5,0.1-0.6c0.2-0.6,0.9-0.8,0.8-1c-0.1-0.2-0.6,0-0.7-0.2
				C44.7,41,45,40.8,45,40.7c-0.1-0.1-0.9,0.6-1,0.6c0,0,0.2-0.3,0.2-0.4c-0.1-0.1-0.7,0.5-1,0.7c-0.5,0.4-0.5,0.5-0.5,0.6
				c0,0.3,0.5,0.4,0.6,0.9c0,0.1,0.1,0.4,0,0.6c-0.1,0.1-0.3,0.1-0.7,0.3c-0.2,0.1-0.3,0.2-0.4,0.3c-0.1,0.2,0,0.3-0.1,0.5
				c-0.1,0.2-0.4,0-0.7,0.2c0,0-0.2,0.1-0.2,0.3c0,0.2,0.7,0.2,0.7,0.4c0,0.1-0.4,0.1-0.9,0.5C40.8,46.3,40.4,46.6,40.4,46.6z"/>
			<path class="st2" d="M39.6,45.5c-0.1,0,0-0.3,0-0.4c0.1-0.2,0.3-0.5,0.6-0.6c0.1,0,0.2,0,0.2-0.1c0.1-0.1-0.2-0.3-0.2-0.5
				c0-0.1,0.2-0.2,0.6-0.3c0.3-0.1,0.4-0.1,0.6-0.2c0.1,0,0.2-0.1,0.3-0.2c0.5-0.3,0.6-0.4,0.7-0.4c0.1,0,0.2,0.2,0.2,0.3
				c0,0.2-0.4,0.2-0.6,0.6c-0.1,0.2-0.1,0.2-0.2,0.5c0,0-0.1,0.1-0.2,0.2c-0.1,0.1-0.2,0.2-0.7,0.4c-0.4,0.2-0.4,0.1-0.7,0.2
				C39.8,45.4,39.7,45.6,39.6,45.5z"/>
			<path class="st2" d="M42.7,37.5c-0.1,0.2-0.2,0.3-0.2,0.4c0,0.1,0.6,0.2,1.2,0.1c0.5-0.1,1.3-0.2,1.7-0.8
				c0.1-0.1,0.3-0.4,0.2-0.6c-0.1-0.1-0.3-0.1-0.6-0.1c-0.2,0-0.4,0-0.7,0.1c-0.4,0.2-0.5,0.4-0.6,0.3c-0.1-0.1,0-0.4-0.1-0.5
				c-0.1-0.1-0.5,0.1-0.6,0.3c-0.1,0.1-0.2,0.2-0.2,0.4C42.7,37.3,42.7,37.4,42.7,37.5z"/>
			<path class="st2" d="M90.6,32.5c-0.1,0.1,0.7,0.8,1.4,0.7c0.5,0,0.7-0.3,1.4-0.4c0.3,0,0.6,0,0.6,0c0,0-0.7-0.1-1.2-0.2
				c-0.3,0-0.3,0-1.4-0.1C90.7,32.4,90.6,32.4,90.6,32.5z"/>
			<path class="st2" d="M43.4,33.6c-2.1,1.6-2,1.6-2.1,1.6c-2,1.6-2.3,1.6-3.5,2.6c-0.7,0.7-1.9,1.8-1.7,2c0.2,0.2,2-1.3,5.3-2.9
				c0.6-0.3,0.3-0.1,2.8-1.2c2.5-1.1,3.1-1.4,3.8-1.7c1.6-0.9,1.3-1,2.2-1.4c1.1-0.5,2-0.5,3.3-1.4c0.7-0.5,0.7-0.7,0.7-0.7
				c-0.1-0.5-2.7-0.3-3.2-0.2c-0.7,0.1-1.6,0.1-2.7,0.5c-0.4,0.1-0.7,0.3-1,0.4c-0.9,0.5-1.8,0.9-2.7,1.5
				C44.2,33,43.8,33.3,43.4,33.6z"/>
			<path class="st2" d="M112.8,107.5c-0.1,0.1-0.2,0.2-0.3,0.3c-0.9,0.8-1.7,1.4-2.2,1.7c-1.3,0.9-1.7,0.9-2.5,1.6
				c-0.7,0.6-0.8,0.9-1.7,2.1c-0.2,0.2-1.4,1.9-2.6,3.1c-2,1.9-3.7,2.6-3.6,2.8c0.1,0.1,1.2-0.2,2.8-0.9
				C106.5,115.2,109.9,111.6,112.8,107.5z"/>
			<path class="st2" d="M119.9,68.8c0,0-0.2-0.9-0.1-1.4c0-0.5,0.4-1.6-0.3-3.5c-0.8-1.9-1.2-2.4-1.3-3.1c-0.1-0.7-0.3-0.4-1.2-1.8
				c-0.8-1.4-0.5-1.4-0.4-1.9c0.1-0.5-0.2-0.2-0.5-0.5c-0.3-0.2-0.3-0.2-0.3-0.1c0,0.1-0.2,0.3-0.3,0.2s-0.4-0.7-0.4-0.7
				s0,0-0.3-0.4c-0.3-0.4-0.5-0.3-0.3-0.6c0.2-0.3,0-0.2,0-0.5c0-0.3-0.2-0.6-0.2-0.9c0-0.3,0.3,0.4,0.5,0.7
				c0.2,0.2,0.2,0.5,0.6,0.9c0.1,0.1-0.1-0.9-0.1-0.9s0,0,0.2,0.1c0.2,0.1,0.2,0.6,0.5,0.9c0.2,0.4,0.3,0.6,0.5,0.7s0.1,0,0.1-0.1
				c0-0.2,0-0.4-0.2-0.9c-0.2-0.4-0.3-0.5-0.7-1.5c-0.4-1-0.1-1-1.2-2.9c-1.2-1.9-3-4.5-4.2-5.6c-1.2-1.2-1.1-1-1.8-1.6
				c-0.6-0.6-1.9-1.7-2.7-2.6c-0.8-0.8-0.7-0.7-0.3-0.6c0.4,0.1,1.3,0.3-0.6-1c-1.9-1.3-5.5-4.1-5.6-4.3c-0.1-0.2-0.3,0-0.6-0.2
				c-0.3-0.2-0.9-0.5-1.4-0.5c-0.5-0.1-1.3-0.5-1.3-0.6c0,0-0.7-0.1-2.1,0c-1.4,0.1,0.3,0.2,0.7,0.3c0.4,0.1,0.1,0.3-0.3,0.3
				c-0.4,0-0.7-0.2-1.1-0.3C93,33.9,92,33.7,92,33.7s-1-0.3-1.4-0.5c-0.4-0.1-0.4,0-0.6,0c-0.2,0,0.1,0.2,0,0.2c-0.1,0-0.3,0-0.6,0
				c-0.3,0,0.1-0.2,0-0.2c-0.1,0-1,0-1.7,0c-0.7,0-0.6-0.1-0.9-0.4c-0.3-0.2-0.3,0.1-0.2,0.3c0.1,0.2,0.1,0.2-0.6,0.2
				c-0.6,0-0.2-0.1-0.2-0.1c0.1-0.1,0.2-0.1,0.2-0.5s-0.2-0.4-0.3-0.4s-0.2-0.1-0.6-0.1c-0.4,0-0.9-0.1-1.3-0.1s-1.1-0.3-1.6-0.3
				c-0.5,0-0.1,0.1-0.1,0.1c0,0,0,0.1-0.8,0.4c-0.8,0.3-0.3,0-0.7,0c-0.4,0-1,0.2-1,0.2s0.2,0.3,0.5,0.5c0.3,0.2-0.2,0.1-0.6,0.1
				s-0.4,0-0.9,0.2c-0.5,0.2,0.6,0.1,1.3,0.6s-0.4,0.1-1-0.2c-0.6-0.3-0.7-0.1-0.7-0.1l-0.4,0.2l0.8,0.4l0,0.2L78,34.3
				c0,0-0.3-0.1-0.8-0.4s0.3,0.4,0.3,0.4l0.5,0.5l0.5,0.3l0.6,0l1,0.3l0.7,0.7c0,0-0.8-0.3-1.1-0.4c-0.3-0.2-0.4-0.2-0.5-0.2
				c-0.1,0-0.2,0.1-0.2,0.2c0,0.1,0.2,0.3,0.2,0.5c0,0.2-0.3,0.3-0.3,0.3h-0.6c0,0-0.2-0.2-0.2-0.4c0.1-0.1,0.5-0.2,0.5-0.2
				s0-0.1-0.1-0.5c-0.1-0.4-0.1-0.1-0.7-0.5C77,34.5,77,34.4,77,34.4s0,0-0.3-0.5c-0.3-0.5-0.3-0.1-1-0.4c-0.7-0.3-0.3,0-0.4,0.4
				c-0.1,0.3-0.3,0.3,0,0.6c0.2,0.3,0,0.2,0.2,0.3c0.1,0.1,0.6,0.2,1,0.3s0,0.2-0.1,0.3c-0.1,0-1.2-0.3-1.2-0.3s-0.7-0.2-1.3-0.3
				s-0.2,0-0.8-0.1c-0.6,0-0.3-0.1-0.7-0.1c-0.5-0.1,0.1,0.2,0.4,0.3c0.3,0.1,0.7,0.1,0.7,0.1l0.1,0.2c0,0,0,0-0.4,0.2
				s-0.3,0-0.4-0.3s-0.6,0.3-0.6,0.3s-0.1,0-0.7,0.1c-0.7,0.1-0.2,0-0.3-0.3c-0.1-0.3-0.1,0-0.2,0c-0.1,0.1-0.3,0.1-0.7,0.1
				c-0.4,0-0.1,0-0.8,0.3S69.1,36,69.1,36s0,0.1-0.2,0.3c-0.1,0.2-0.3,0.1-1-0.1c-0.7-0.2,0.1-0.2,0.1-0.2s0.2-0.2,0.3-0.4
				c0.1-0.2-0.8-0.1-0.8-0.1l-0.5,0.3c0,0,0.1,0.5,0.2,0.7c0,0.2,0,0.3-0.6,0s-0.5,0.1-0.6,0.2c-0.1,0.1-0.4,0.2-0.5,0.3
				c-0.1,0.1,0.3,0.5,0.3,0.5s-0.4,0-0.7,0c-0.3,0-0.3-0.2-0.8-0.4c-0.5-0.2-0.3,0.1-0.2,0.2c0.1,0.1,0.4,0.3,0.6,0.4
				c0.1,0.1-0.1,0.1-0.5,0.1s-0.3-0.1-0.5-0.2c-0.2-0.1-0.3-0.1-0.3-0.3s-0.2-0.1-0.2-0.4s0.1-0.1-0.1-0.3c-0.2-0.3-0.3-0.1-0.6-0.2
				s-0.1-0.1,0-0.3c0.1-0.1,0.7,0.3,1,0.5c0.4,0.1,0.5,0.1,0.8,0.1s0.4,0,0.8,0c0.4,0,0.3-0.1,0.6-0.3c0.2-0.2,0.1-0.2,0.1-0.2
				c0-0.1-0.3-0.3-0.3-0.3s-0.6-0.2-0.9-0.3c-0.4-0.1-0.7-0.3-1.3-0.4c-0.5,0-0.4-0.1-0.8-0.1c-0.3,0-0.2,0-0.5-0.2
				c-0.2-0.1,0-0.2-0.1-0.2c-0.2-0.1-0.7,0.1-0.6-0.1c0.1-0.3-0.2,0.1-0.3,0.1c-0.1,0-0.3-0.2-0.7-0.2c-0.4,0-0.2,0-0.5,0.1
				c-0.3,0-0.5,0.1-0.7,0.2c-0.2,0.1-0.3,0.1-0.5,0.1c-0.2,0-0.2,0.3-0.5,0.3c-0.3,0,0-0.1-0.2-0.2c-0.2-0.1-0.2,0-0.2,0
				s-0.2,0.3-0.4,0.3c-0.2,0-0.1,0-0.3,0c-0.2,0-0.1,0.1-0.2,0.2c-0.1,0.1-0.2,0-0.3,0c-0.1,0-0.3,0-0.3,0c-0.1,0-0.3,0.1-0.5,0.1
				s-0.2,0.1-0.9,0.4c-0.7,0.3,0.1,0.1,0.3,0c0.2-0.1,0.4-0.1,0.4-0.1s0.6-0.2,0.8-0.2s-0.1,0.1-0.3,0.2c-0.2,0.1-0.1,0-0.3,0.2
				c-0.2,0.1,0,0-0.3,0.2c-0.3,0.2-0.6,0.3-1.1,0.8c-0.5,0.4-0.4,0.2-0.5,0.3c-0.1,0.1-0.6,0.2-1.2,0.6c-0.6,0.4,0.2,0,0.4,0
				c0.3,0-0.6,0.2-0.5,0.3c0.1,0.1-0.2,0.1-0.3-0.1c-0.1-0.2-0.2,0.1-0.3,0c-0.1-0.1-0.3,0.1-0.3,0.2s-0.2,0-0.4,0.1
				c-0.2,0.1-0.2,0.1-0.3,0.2c-0.1,0.2-0.3-0.1-0.3,0.1c0,0.2-0.4,0.1-0.4,0.1s-0.3,0.2-0.5,0.3c-0.2,0.1-0.1,0.4-0.1,0.4
				s-0.1,0.2-0.3,0.2c-0.2,0.1,0,0.1,0.1,0.2c0.1,0.1,0.1,0.1,0.1,0.2c0,0.1-0.2,0.1-0.4,0.1s-0.1,0.2,0.1,0.2s0.1,0,0,0.2
				c-0.1,0.1-0.1,0-0.3,0.2c-0.2,0.2,0.3,0.3,0.3,0.3s0.2,0.2,0.7,0.2c0.5,0,0.5-0.3,0.6-0.5c0.2-0.2,0.3-0.1,0.5-0.1
				s0.2-0.2,0.3-0.3s0.1,0.1,0.2,0.3c0.1,0.1,0,0.1,0,0.3c-0.1,0.2-0.1,0.2-0.1,0.4c0,0.2,0.1,0.2,0.1,0.6c0,0.3,0.1,0.2,0.1,0.4
				c0,0.1-0.1,0.1-0.3,0.1c-0.2,0,0,0.2,0,0.6c0,0.4,0.2,0,0.6,0s0.2,0,0.3-0.1c0.1-0.1,0-0.1,0.1-0.3c0.1-0.2,0.5,0,0.5,0
				s0.3,0,0.7,0c0.4,0,0.3-0.5,0.3-0.6c0-0.2,0.2-0.3,0.2-0.5c0.1-0.2,0.1-0.1,0.2-0.3c0.2-0.2,0.1,0,0.2-0.1c0.1,0,0.3-0.2,0.4-0.3
				s0.1-0.1,0.3-0.1c0.2,0,0-0.2,0-0.2s0.1-0.1,0.2-0.1c0.1-0.1,0.1-0.1,0.2-0.2c0-0.1-0.1-0.2-0.1-0.2l-0.3-0.2l0.1-0.4
				c0,0,0.3-0.5,0.4-0.5c0.1,0,0.1-0.1,0.5-0.3c0.4-0.3,0.4-0.2,0.6-0.2c0.2-0.1,0.6-0.2,0.6-0.2s0.4-0.1,0.5-0.2
				c0.1-0.1,0-0.2-0.1-0.3c0-0.1,0.2-0.1,0.2-0.2c0.1-0.1,0.1,0,0.3-0.1c0.2-0.2,0.2,0.2,0.2,0.2h0.7l0.3,0c0,0,0,0.2,0,0.2
				c-0.1,0.1-0.8,0.2-0.8,0.2s-0.6,0.5-0.9,0.6c-0.3,0.1-0.3,0.2-0.5,0.3c-0.2,0.1,0,0.5,0,0.5s-0.1,0.2-0.3,0.5
				c-0.1,0.2,0.2,0.3,0.3,0.4s0.8,0.1,0.8,0.1s0.3,0,0.7,0c0.4,0,0.2,0,0.6-0.1c0.4-0.1,1-0.2,1-0.2s0.5,0.1,0.7,0.3
				c0.3,0.2-0.4,0.2-0.5,0.2c-0.1,0-0.5,0.2-0.5,0.2s-0.2,0-0.5,0s-0.3-0.1-0.7-0.1s-0.4,0.1-0.7,0.1c-0.2,0.1-0.3,0.1-0.4,0.3
				c-0.1,0.2,0.1,0.4,0.3,0.5c0.2,0.1,0,0.1-0.1,0.2c-0.1,0.1,0,0.1-0.3,0.4s-0.1,0-0.3-0.1c-0.2-0.1-0.3-0.3-0.6-0.3
				c-0.3,0-0.5,0.6-0.6,0.6c-0.1,0-0.1,0.2-0.1,0.2S56,42.7,56,42.9c0,0.2,0,0.3,0,0.3s-0.1,0.1-0.2,0.1c-0.2,0-0.3,0.1-0.3,0.1
				s-0.1,0.2-0.1,0.3c0,0.1-0.1,0-0.2,0c-0.2,0-0.4,0-0.5-0.1c0,0,0.1-0.3-0.3-0.3c-0.4,0-0.6,0.3-1.1,0.4S52,44.1,52,44.1
				s-0.1-0.1-0.2-0.3c-0.1-0.2-0.2-0.1-0.2-0.1c0,0-0.1,0-0.4,0.1c-0.3,0.1-0.1,0-0.5,0.2c-0.4,0.2-0.1,0-0.2,0
				c-0.1,0-0.1,0-0.4-0.1c-0.3-0.1-0.1-0.1-0.1-0.2c-0.1-0.1-0.2-0.2-0.2-0.2s-0.3,0-0.4,0s0,0.1-0.1,0.2c0,0.2-0.1,0.2-0.3,0.3
				c-0.2,0.2-0.2,0.1-0.6,0.2c-0.4,0.1-0.3,0.2-0.3,0.2s-0.1-0.1-0.3-0.1c-0.2-0.1-0.2,0-0.4,0.1c-0.2,0-0.3,0.1-0.6,0.3
				c-0.3,0.2,0,0.1-0.2,0.4c-0.1,0.3-0.3,0.2-0.6,0.4s-0.7,0.5-1,0.6s-0.2,0.1-0.5,0.1c-0.3,0-0.3,0.5-0.3,0.5s-0.1,0.2-0.3,0.4
				c-0.1,0.1-0.3,0-0.4,0c-0.1,0-0.2,0.1-0.3,0.2s0,0.1-0.1,0.3c-0.1,0.2-0.1,0-0.2,0c-0.1,0-0.3,0-0.3-0.1c0-0.1,0-0.1,0-0.2
				s-0.1,0-0.3,0.1c-0.2,0.1-0.1,0.3-0.1,0.5c-0.1,0.2-0.1,0.2-0.5,0.2c-0.4,0-0.2,0-0.2-0.2s-0.1-0.1-0.2-0.1
				c-0.1,0-0.5,0.1-0.6,0.2c-0.1,0-0.3,0.4-0.3,0.4s0.3,0.2,0.5,0.2s0.2,0.2,0.2,0.3c0,0.1,0,0.3,0,0.3s-0.1,0.2,0,0.4
				c0.1,0.2,0.3,0.3,0.1,0.4c-0.2,0.1,0,0.1,0,0.4s-0.1-0.2-0.2-0.1c-0.1,0.1,0,0.1-0.1,0.5c-0.1,0.3-0.1,0.2-0.1,0.6
				c0,0.3-0.7,0.9-0.7,0.9s-0.3,0-0.4,0c-0.1,0-0.3-0.1-0.7-0.2s0-0.1-0.8-0.2c-0.8-0.1-1.1,0-1.1,0l-0.6,0.4c0,0-0.4,0.5-0.6,0.7
				c-0.2,0.2-0.2,0.5-0.3,0.9c-0.1,0.4-0.2,0.4-0.3,0.8c-0.1,0.3-0.1,0.3-0.8,1c-0.6,0.7,0,0.6-0.3,1c-0.4,0.4,0.2,0.6,0.7,0.6
				c0.5,0,0.3,0.3,0.4,0.7c0.1,0.4,0.3,0.2,0.6,0c0.3-0.2,0.2-0.1,0.3-0.1c0.1,0,0.3,0.1,0.6,0.2c0.3,0.1,0.4,0,0.5-0.2
				c0.1-0.2,0.3,0,0.3,0s0.4,0,0.4-0.3s0.1-0.2,0.2-0.2c0-0.1,0.6-0.2,0.6-0.2s0.2-0.2,0.2-0.5s0.1-0.2,0.4-0.3c0.3-0.2,0-0.6,0-0.8
				c0-0.2,0.1,0,0.3-0.1c0.2-0.1,0.1,0,0.1,0l0,0c0,0,0,0,0.5,0c0.5,0,0.2-0.7,0.2-0.7s0-0.2,0-0.3c0-0.2,0.3-0.1,0.4-0.2
				c0.1,0,0.2-0.1,0.4-0.1c0.3,0,0.4-0.2,0.4-0.2s0.2-0.2,0.2-0.3c0.1-0.1,0.4-0.2,0.4-0.2s0.1-0.2,0.2-0.3c0.1-0.1,0-0.2,0.1-0.5
				s0-0.2,0.2-0.2c0.1-0.1,0.1-0.1,0.4-0.3c0.3-0.2,0,0,0.2,0s0.4,0.2,0.4,0.2s0.2,0.1,0.6,0.2c0.4,0.1,0.3,0.1,0.4,0
				c0.2-0.2,0.4-0.2,0.5-0.4c0.1-0.1,0.1,0,0.3-0.2c0.2-0.2,0.1,0,0.2-0.2c0.1-0.2,0.1-0.1,0.5-0.1c0.4,0,0.3-0.2,0.5,0
				c0.1,0.2,0.2,0.2,0.5,0.3c0.2,0,0,0.2,0,0.4c0,0.2,0,0.3,0.1,0.6c0.1,0.3,0.2,0.4,0.5,0.5c0.3,0.1,0.2,0.1,0.4,0.6
				c0.2,0.4,0.3,0.1,0.7,0.2c0.4,0,0.2,0.4,0.5,0.5s0.2,0.1,0.2,0.3c0,0.2,0,0.3,0.3,0.2c0.3,0,0.3,0.6,0.3,0.7s0.1,0.4-0.1,0.5
				c-0.2,0.1-0.2,0.1-0.3,0.3c-0.1,0.1-0.1,0.1-0.1,0.2c0,0.1,0.1,0.1,0.2,0.1c0.1,0,0.2-0.2,0.4-0.2c0.2-0.1,0.2-0.2,0.2-0.2
				s0.1-0.1,0.4-0.3c0.3-0.1,0.2-0.2,0.2-0.2L50.9,55c0,0-0.1-0.2-0.2-0.3c-0.1-0.1,0.2-0.3,0.2-0.3l0.6,0c0,0,0.1,0.2,0.3,0.3
				c0.1,0.1,0.2,0.2,0.3,0.2s0.2-0.2,0.2-0.2s0-0.1-0.5-0.7c-0.5-0.6-0.2-0.2-0.5-0.3c-0.2-0.1-0.6-0.3-0.6-0.3s0-0.1,0-0.3
				c0-0.2-0.3,0-0.3,0s-0.2,0-0.3-0.1c-0.1-0.1-0.3-0.2-0.3-0.2s-0.1-0.1-0.3-0.3c-0.2-0.2,0-0.1,0-0.2s0-0.1,0-0.3
				c0-0.2-0.1-0.2-0.3-0.3c-0.2-0.1-0.4-0.4-0.3-0.6c0.1-0.2,0.2-0.2,0-0.5c-0.2-0.3,0.2-0.1,0.8-0.1c0.5,0,0,0.3,0.2,0.5
				c0.2,0.2,0.1-0.2,0.5-0.3c0.3-0.1,0.1-0.1,0.2,0.1c0,0.2,0.1,0.3,0.1,0.7c0,0.4,0.2,0.3,0.7,0.4c0.5,0.1,0.3,0.2,0.5,0.5
				c0.2,0.2,0.4,0.2,0.6,0.4c0.2,0.2,0.1,0.1,0.5,0.3c0.4,0.2,0.1,0.2,0.3,0.3c0.1,0.1,0,0.2-0.1,0.3c-0.1,0.2,0,0.2-0.3,0.3
				c-0.3,0.2-0.1,0.5-0.1,0.3c0.1-0.1,0.3-0.1,0.2,0.1c-0.1,0.1,0.1,0.2,0.2,0.4c0.2,0.2,0,0.1,0.2,0.3c0.2,0.2,0.1,0.2,0.1,0.3
				c0,0.2,0.1,0.1,0.2,0.4c0.2,0.3,0.3,0.1,0.4,0.2c0.1,0,0.2,0,0.4,0c0.2,0,0.5,0.1,0.5,0.1s0.3,0,0.5,0.1c0.1,0.1,0.3,0.6,0.3,0.6
				s0.2,0.1,0.2-0.1c0-0.2,0-0.2,0-0.3c0.1-0.1,0.2-0.1,0.2-0.2c0-0.1-0.2-0.3-0.2-0.3s-0.2-0.3-0.4-0.6c-0.1-0.3-0.5-0.3-0.5-0.7
				c-0.1-0.3,0.3-0.3,0.2-0.2c0,0.1,0.1,0.3,0.5,0.2c0.3-0.1,0.2-0.1,0.1-0.4c-0.1-0.2,0.2,0,0.4-0.1c0.1-0.2,0.2-0.1,0.3,0
				c0.2,0,0.2-0.1,0.3-0.2c0.1-0.1,0.4,0.1,0.4,0.1s0.2,0.1,0.4,0.2c0.2,0.1,0.2,0.1,0.4,0.1c0.2,0,0.3-0.1,0.7-0.3
				c0.3-0.2,0.1,0,0.5,0s0.4,0,0.9,0c0.5,0,0.2,0.2,0.2,0.2c-0.1,0-0.1,0-0.4,0s0,0.4-0.1,0.6c0,0.1-0.6,0.3-0.6,0.3s-0.4,0-0.9,0
				s-0.3-0.3-0.5-0.3c-0.1,0.1-0.2,0-0.5,0.2c-0.2,0.3,0,0.1,0.3,0.1c0.3,0,0.2,0,0.2,0.1c0,0.1,0,0.1,0.1,0.2
				c0.1,0.1,0.1,0.1,0,0.2c0,0.1-0.4,0.1-0.4,0.1s-0.3,0.1-0.2,0.3c0.1,0.2,0.4,0,0.8,0.1c0.4,0.1,0.1,0.5,0.1,0.7
				c0,0.2,0.1,0.2,0.5,0.2c0.4,0,0.3,0.1,0.4,0.2c0.1,0.2,0.2,0,0.4,0.1c0.2,0.1,0,0.3,0.3,0.3c0.3,0,0.4,0,0.8,0.1
				c0.4,0,0.1-0.1,0.2-0.4c0-0.3,0.3-0.3,0.8,0c0.5,0.2,0.6,0.5,0.7,0.5c0.1,0,0.6,0,0.7,0c0.1,0,0.6-0.3,1-0.5
				c0.5-0.2,0.2,0,0.6,0.1c0.4,0.1,0.2-0.1,0.4-0.2c0.2-0.1,0,0.3,0,0.5c0,0.2,0,0.2-0.1,0.4c-0.1,0.2-0.1,0.2,0.1,0.3
				c0.2,0-0.1,0.3,0,0.6c0.1,0.3-0.1,0.3-0.2,0.5c-0.1,0.2-0.5,0.9-0.5,1.3c0,0.5-0.3,1.1-0.5,1.3c-0.2,0.2-0.3,0.1-0.9,0.1
				c-0.7,0.1-0.6,0-0.8,0c-0.2,0-0.3,0-0.3-0.2s-0.3,0.1-0.6-0.1c-0.3-0.1-0.2,0-0.6,0s0,0.2-0.2,0.2c-0.2,0-0.1,0-0.5,0.3
				c-0.4,0.3-0.2,0-1.1-0.1c-0.9-0.1-0.3,0-1.1-0.2c-0.8-0.3-0.6-0.2-1.3-0.2c-0.8,0-0.1,0-0.2-0.4c-0.1-0.4,0,0-0.3-0.1
				c-0.3-0.1-0.4,0-1.1,0c-0.7-0.1-0.1-0.1-0.2-0.2c0-0.1-0.1-0.2-0.3-0.3c-0.2-0.1-0.3,0-0.9,0c-0.6,0-0.4,0.1-0.9,0.3
				c-0.5,0.2-0.5,0.6-0.4,0.8c0,0.3,0.1,0.5,0.1,0.8c0,0.3-0.7,0.6-1.5,0.2c-0.8-0.4-0.8-0.6-1.2-0.6c-0.4,0-0.8-0.4-1-0.7
				c-0.1-0.3-0.3-0.4-0.4-0.5c0-0.1-1.1-0.2-1.1-0.2L46,60.9c0,0-0.2-0.1-0.5-0.2c-0.3-0.1-0.3-0.2-0.7-0.8s0.4-0.6,0.4-0.6
				s0.1-0.2,0.6-0.7c0.6-0.5-0.1-0.3-0.3-0.7c-0.2-0.4,0.2-0.3,0.6-0.6c0.3-0.3-0.2-0.2-0.5-0.1c-0.3,0.1-0.2,0.1-0.3-0.2
				c-0.1-0.3-0.6,0.3-0.6,0.3h-0.8c0,0-0.6-0.1-1.2,0.2s-0.5,0-0.8-0.2c-0.3-0.2-0.8,0.2-2.2,0.2c-1.3,0-2,1-2.4,1.2
				c-0.5,0.1-0.6,0.1-0.8-0.1c-0.1-0.2-0.7,0.1-0.7,0.1s-0.5-0.2-0.5-0.8c0-0.5-0.6,0.1-0.7,0.9c-0.1,0.8-1,1.1-1.8,1.5
				c-0.8,0.4-1.3,2.2-1.5,2.9c-0.2,0.7-1.1,1.7-1.6,1.7c-0.5,0.1-0.9,0.7-1,1.2c-0.1,0.5-0.3,0.3-0.6,0.8c-0.3,0.5-0.7,1.3-0.8,1.5
				c-0.2,0.2-0.2,0.2-0.2,0.4c-0.1,0.2-0.2,0.8-0.6,1.7c-0.4,0.9-0.3,1.4-0.3,1.7c0,0.3,0.2,0.8,0,0.8c-0.2,0,0,0.3,0,1
				c0.1,0.7,0,2.1-0.1,2.3c0,0.2-0.1,0.6-0.1,1c0,0.3-0.6,0.6-0.4,1.1c0.2,0.5,0.4,0.7,0.3,1c-0.2,0.2,0,0.8,0,0.8s0.1,0.2,0.1,0.5
				c0.1,0.3,0.2,0.4,0.4,0.3c0.1-0.1,0.2,0.1,0.1,0.3c0,0.2,0,0.3,0.1,0.5s0.2,0.1,0.3,0.2s0,0.2,0.2,0.5c0.2,0.3,0.2,0.5,0.4,0.6
				c0.2,0.1,0.2,0.5,0.3,0.7c0.1,0.2,0,0.2,0,0.4c0,0.3,0,0.2,0.1,0.4c0.1,0.3,0.2,0.3,0.4,0.5c0.2,0.2-0.1,0.3,0.3,0.4
				c0.3,0.1,0.2,0.1,0.3,0.4c0.1,0.3,0.2,0.2,0.6,0.5c0.4,0.3,0.4,0.5,0.7,1c0.3,0.6,1,0.7,1.3,0.9s0.2-0.1,0.3-0.2
				c0-0.1,0.3-0.2,0.3-0.2s0.1-0.2,0.3-0.3s0.3-0.1,0.6-0.1c0.3-0.1,0.5,0,0.9,0.1c0.4,0.1,0.2,0,0.5,0c0.2,0,0.1,0,0.5,0.2
				c0.3,0.2,0.1,0,0.3,0c0.2,0,0.1-0.1,0.2-0.3c0.1-0.2,0.2-0.1,0.4-0.2c0.2-0.1,0.2-0.1,0.4-0.3c0.2-0.2,0.4-0.1,0.6-0.1
				c0.2,0,0.3,0,0.3-0.2c0-0.2,0.2-0.1,0.2-0.2c0.1-0.1,0.1-0.1,0.3-0.1s0.3-0.1,0.3-0.1s0.2,0,0.3,0c0.2,0,0.3,0.1,0.3-0.1
				c0-0.2,0.2-0.1,0.1,0c-0.1,0.1,0.2,0,0.3,0s0.1,0,0.6,0.3c0.4,0.3,0.3,0.4,0.3,0.5c0.1,0.1,0.1,0.2,0.3,0.1c0.1-0.1,0,0.2,0,0.4
				c0,0.2,0,0.1,0.1,0.3c0.1,0.2,0.2,0.2,0.3,0.3c0.2,0.2,0.2,0.1,0.3,0.1c0.1-0.1,0.2,0,0.4,0c0.2,0,0.1-0.2,0.3,0s0.1-0.1,0.2-0.2
				c0.1-0.1,0.1,0.1,0.4,0.1c0.3,0,0.2-0.1,0.2-0.3s0.2,0.2,0.4,0.3s0.2,0.2,0.2,0.4c0,0.1,0.2,0.2,0.5,0.2s0.1,0.3,0.3,0.5
				c0.2,0.1,0.1,0.1,0.1,0.3c-0.1,0.2,0,0.7-0.1,0.9c-0.1,0.2,0,0.2,0,0.5c-0.1,0.3,0,0.4,0,1s-0.2,1.4-0.4,1.6
				c-0.2,0.2,0.2,0.1,0.4,0.3c0.2,0.2,0.2,0.2,0.5,0.5s0.2,0.7,0.5,0.7s0.4,0.1,0.4,0.3s0.2,0.2,0.6,0.6c0.4,0.4,0.6,0.6,0.8,1
				c0.3,0.4,0,0.3,0.4,0.8c0.4,0.4,0.7,1.2,1,1.6c0.3,0.5,0.6,0.7,0.3,1.1c-0.3,0.4,0,0.3,0.6,0.8c0.6,0.5,0.8,1.7,0.6,2.1
				s-0.6,0.6-0.6,1.2c0,0.7,0.1,1.3,0,1.7c-0.1,0.4,0.3,0.9,0.3,0.9s0.1,0.4,0.5,1c0.4,0.6,1.9,2.1,2.5,2.6c0.6,0.5,0.5,1.2,0.9,1.9
				c0.5,0.7,1,1.5,1.5,2.1c0.5,0.6,0.6,0.4,0.9,0.8c0.4,0.4,1.7,1.9,1.9,2.2c0.2,0.2-0.3,0.2,0,0.5c0.3,0.3,0.3,0.5,0.6,0.4
				c0.2-0.1,0.1,0,0.5,0.2s0.2,0,0.5-0.1c0.3-0.2,0.2,0,0.6,0.1c0.4,0.1,0.1-0.2,0.3-0.3c0.2-0.2,0.2,0,0.4,0c0.2,0,0.2,0,0.4,0.1
				c0.1,0,0.1,0,0.5,0c0.4,0,0,0,0.2,0s0.1,0,0.2-0.1c0-0.1,0.3-0.1,0.3-0.1l0.7-0.2c0,0,0.2-0.2,0.4-0.6c0.2-0.4,0.1-0.5,0.5-0.6
				c0.4-0.1,0.1-0.2,0.2-0.4c0.1-0.2,0.2-0.3,0.3-0.7c0.2-0.4,0.2-0.4,0.5-0.5c0.3,0,0.1-0.2,0.1-0.3c0-0.2,0.1-0.3,0.3-0.7
				c0.2-0.3,0-0.2,0-0.7c0-0.4,0,0-0.2-0.2s0.1-0.4,0.1-0.4l0.4-0.3L66,113l0.2-0.2c0,0,0.1-0.3,0-0.4c0-0.1-0.1-0.4-0.1-0.4
				s0.1-0.3,0.1-0.5s0-0.2-0.1-0.4c-0.1-0.2,0-0.1,0-0.4c0-0.3-0.3-0.7-0.4-1c-0.1-0.3,0-0.1,0.2-0.4c0.2-0.2,0.1-0.2,0.3-0.4
				c0.2-0.2,0.3-0.3,0.7-0.5c0.3-0.2-0.3,0.1,0.2-0.4c0.5-0.5,0.1-0.2,0.8-0.6c0.6-0.4,0.8-0.3,0.8-0.3l0.5-0.4l0.5-0.4l0.2-0.6
				l0.3-0.3c0,0,0-0.2-0.1-0.6c-0.1-0.4-0.2-0.6-0.2-2.1c0-1.5,0-0.4-0.1-1c-0.1-0.6,0,0-0.4-0.3c-0.4-0.3,0-0.6,0-1
				c0-0.4-0.3-1-0.3-1s-0.1-0.4,0.1-0.7c0.2-0.3-0.8-0.2-0.8-0.2v-1.1V97l0.8-0.6c0,0,0.5-0.6,0.5-0.9c0-0.3,0.1-0.2,0.6-0.6
				s0,0,0.1-0.3c0.1-0.3,0.6-0.2,0.6-0.2s0.5-0.1,0.8-0.9c0,0,0.9-1.2,1.7-1.9c0.8-0.7,1.6-1,4-3.8c2.4-2.8,2.3-5.3,2.3-6.1
				c0-0.8-0.7,0-0.9,0.2c-0.3,0.2-1,0-1.8,0.1c-0.8,0.1-1.6,0.3-1.6,0.3s-1,0.1-1.6,0.1c-0.6,0-0.9-0.4-0.9-1.5s-1.6-2-1.6-2
				l-2.1-1.4c0,0-0.3-0.9-0.5-1.7s-0.2-0.9-1.1-1.5c-0.8-0.6-0.8-1.1-0.8-2.1s-0.3-1.2-0.6-1.4s-0.9-0.8-1-1.1
				c-0.1-0.3,0-0.2,0.1-0.6c0.2-0.3-0.5-0.9-0.5-0.9s-0.4-0.5-0.7-1.3c-0.3-0.7-0.2-0.5-0.7-1.7c-0.5-1.2-0.9-1.2-1.2-1.7
				c-0.3-0.5,1.6,2,1.6,1.5c0-0.5,0.3-0.9,0.6-1.4c0.3-0.5-0.1,0.7-0.2,1.3c-0.2,0.6,0.5,0.6,0.5,0.6l1.3,1.3c0,0,0.1,0.8,1,2
				c0.9,1.2,0.7,0.8,1.1,1.6c0.4,0.8,0,0.7,0.6,1.6s1,0.8,1.5,1.7c0.5,0.9,0.8,1.5,1.3,2.1c0.5,0.7,0.3,0.8,0.3,1.1
				c0,0.3,0.1,1.3,0.2,1.6c0.1,0.3,0.6,1.6,1.4,1.7c0.8,0.1,0.6-0.6,1.3-0.7c0.6-0.1,0.6,0,1.2-0.3c0.6-0.3,0.5-0.3,0.9-0.3
				c0.4,0,0.4-0.1,1.2-0.8c0.7-0.7,0.4-0.3,1.8-0.4c1.4-0.1,0.7-0.8,0.7-0.8s0.2-0.5,1.2-1c1-0.5,0.5,0,1.1-0.4
				c0.6-0.4,0-0.5,0.4-0.6c0.4-0.1,0.6,0,0.8-0.6c0.3-0.6,0.4-0.3,1.1-0.3c0.6-0.1,0-0.2-0.1-1c-0.1-0.8,0-0.6,0.6-0.4
				c0.6,0.2,0.1-0.4,0.4-1.3s0.4-1.2,0.2-1.4c-0.2-0.2-1-0.6-1-0.6s-0.6-0.4-1.4-0.8c-0.8-0.4-0.2-0.2-0.5-0.6
				c-0.2-0.4-0.2-0.4-0.3-1c-0.1-0.7-0.2,0.1-0.6,0.4c-0.3,0.3-0.4,0.4-0.6,0.7c-0.2,0.4,0,0.4-0.4,0.7C81,69,81,68.8,80.5,68.8
				c-0.5-0.1-0.5,0.1-0.9,0.2c-0.4,0-0.3-0.3-0.6-0.7s-1.2-1-1.2-1l0-0.8c0,0,0,0-0.7-0.6c-0.7-0.6-0.5-0.9-0.5-0.9l-0.8-0.4
				c0,0-0.5-0.2-1.3-0.7c-0.8-0.5,0-0.4,0.3-0.6c0.3-0.2,0.3,0,1,0c0.6,0.1,0.4-0.1,0.5-0.5c0.1-0.4,0.3,0.3,1,0.2
				c0.7-0.1,0.1,0.1,0.4,0.6c0.3,0.5,0.8,1.4,1.7,1.7c0.8,0.3,0.7,0.6,0.7,0.6s0.2,0.2,0.8,0.4c0.6,0.1,0.6,0.1,1.7-0.1
				c1.1-0.2,0.7,0.1,1.3,0.9c0.6,0.8,0.3,0.1,2.2,0.5c0.3,0.1,0.6,0.1,0.7,0.1c0,0,0,0.1,0.1,0.1c0.4,0.4,0.6-0.1,0.6-0.1
				s0.1,0.1,0.2,0.1c0.1,0,0.8-0.3,1.4-0.4s1.4-0.3,1.9,0c0.5,0.3,0.3,0.6,0.7,0.5c0.4-0.1,0.3,0.4,0.6,1c0.3,0.6,0.7,0.1,0.7,0.1
				s0,0.3,0.2,0.5c0.1,0.2,0.6,0.4,1.2,0.3c0.5-0.1,0.3,0.1,0.2,0.2c-0.1,0.1-0.4,0.4-0.8,0.2c-0.4-0.1,0.1,0.6,0.9,1.4
				c0.9,0.8,0.8,0.2,1.4,0.1c0.6-0.1,0.1-0.8,0.2-1.3c0.1-0.5,0.3,0.6,0.2,1.3c-0.1,0.6,0.2,0.8,0.5,1.4c0.2,0.6,0,1,0.7,3.1
				c0.7,2.1,2.2,6.9,2.8,7.7s0.6,0.6,0.9,0.1c0.3-0.5,0.7-0.4,0.7-0.4s0-0.3,0.1-0.5c0.1-0.2,0.1-0.3,0.5-0.7
				c0.4-0.3,0.1-0.2,0.1-0.2s0-0.1-0.1-0.7c0-0.6,0.1-0.6,0.1-0.6l0.1-0.7c0,0,0-0.7,0.1-1.5c0.1-0.8-0.1-1.1-0.1-1.5
				s0.1-0.2,0.3-0.2c0.3,0,0.2-0.3,0.3-0.5c0.1-0.2,0.2,0.1,0.3,0c0.1-0.1,0.3-0.2,0.4-0.5c0-0.3,0.3-0.6,0.3-0.6s0.2-0.7,0.4-1
				c0.1-0.3,0.2-0.3,0.5-0.6s0.5-0.3,0.5-0.6c0-0.3,0-0.1,0.2-0.1s0.2,0,0.3,0c0.1,0,0.5-0.6,0.5-0.6s0-0.2,0-0.6
				c0-0.3,0-0.2,0.2-0.4c0.1-0.2,0.1-0.2,0.2-0.5c0.1-0.3,0.3,0.2,0.3,0.2l0.4,0.1l0.1,0.2l0.1,0.3h0.5l0.2-0.5c0,0-0.1-0.5-0.1-0.6
				c-0.1-0.2,0.3-0.6,0.3-0.6l0.3,0.3c0,0,0.2,0.6,0.2,1.1c0,0.6,0.3,0.1,0.3,0.1s0,0.2,0,0.4c0,0.2,0.5,0.5,0.5,0.5l0.3,0.3
				l0.3,0.3c0,0,0,0.2-0.1,0.6c-0.1,0.4,0,0.5,0.2,0.2c0.1-0.2,0.2-0.3,0.2-0.1s0.4,1.3,0.4,1.3s0,0.9,0,1.4c0,0.5,0.1,0.3,0.2,0.4
				c0.1,0.1,0.3,0.2,0.4,0.2c0.1,0,0.1-0.3,0.4-0.7c0.3-0.4,0.3-0.3,0.4-0.7c0.1-0.4,0.4,0.3,0.6,0.8c0.2,0.5,0.4,1.2,0.5,2.3
				c0.2,1,0.2,1.4,0.1,2.4c-0.1,1-0.3,2.3-0.4,3.2c0,0.9,0.5,1.5,0.6,1.9c0.1,0.3,0,0.9,0,1.3c0,0.4,0.1,1.3,0.1,1.3
				s-0.1,0.8-0.1,1.2c0,0.3,0.2,0.6,0.4,1s0.4,0.2,0.5,0c0.2-0.2,0.1-0.3-0.1-1.2c-0.2-0.9,0-0.4,0.2-1.4c0.3-1,0-1.6-0.2-2
				s-0.3-0.5-0.6-0.6c-0.2-0.1-0.1-0.5-0.1-1c0.1-0.6-0.1-0.5,0-1.1c0.1-0.6-0.1-0.1-0.2,0c-0.1,0.1-0.1,0-0.2-0.4
				c-0.1-0.5,0-0.6,0.1-0.9c0-0.3,0.1-0.4,0.4-1.5c0.3-1.1,0-0.3,0-0.6s0.1-0.7,0.2-0.8c0.1-0.2,0.1,0.2,0.1,0.4s0,0.3,0.1,0.5
				c0.1,0.1,0.6,0.1,0.6,0.2c0.1,0.2,0.2,0.7,0.2,0.7s0.1,0.3,0.1,0.7c0,0.4,0.1,0.5,0.4,0.7c0.2,0.2,0.1,0.5,0.1,0.5l-0.1,0.8
				c0,0,0,0.4,0.2,0.3c0.2-0.1,0.1-0.1,0.5-0.7s0-0.6,0.1-1c0.1-0.4,0.3,0.1,0.6-0.4c0.3-0.5,0.3-1,0.4-1.4c0.1-0.4,0.1-0.7,0.1-0.9
				s-0.1-0.9-0.1-1.4c-0.1-0.5-0.1-0.3-0.4-1.3c-0.3-1-0.9-2.2-1-2.5c-0.2-0.3-0.1-0.8,0-1.3c0-0.5,0.2-0.8,0.3-1.2
				c0.1-0.3,0.1-0.6,0.5-0.6c0.4,0,0,0.3,0.4,1.1c0.4,0.7,0.4-0.7,0.4-1.5c0-0.8,0.5-0.7,0.9-1.2C120.4,69.3,119.9,68.8,119.9,68.8z
				 M65.9,103.3c-0.1,0.3-0.5,0-0.2,0.5c0.3,0.5,0.5,0.4,0.5,0.8c0,0.3-0.1,1-0.4,0.4c-0.3-0.6,0-0.2-0.3-1
				c-0.3-0.8-0.3-0.2-0.3-1.2s0-0.8-0.1-1.2c-0.2-0.3-0.2-0.3-0.2-0.3c0.5,0,0.7,0.3,0.7,0.3v0.6v0.5C65.5,102.6,66,103,65.9,103.3z
				 M63,92.8l0.6-0.5c0,0,0.7,0,0.9,0.2c0,0,0.2,0.4,0.7,0.4c0.5,0-0.4,0.2-0.5,0.9c-0.1,0.6-0.1,0.1-0.4,0.3c-0.2,0.2,0,0.2,0,0.4
				c0.1,0.2,0,0.2-0.1,0.4S64.1,95,63.5,95s-0.5,0.2-0.5,0.2l0,0l0,0l-0.4-0.9l-0.1-0.8L63,92.8z M61.8,100
				c-0.2-0.3-0.3-0.8-0.3-0.8L61,98.3l-0.2-0.8l-0.2-0.8c0,0,0.1-0.4,0-0.9c0,0,0.3,0.4,0.4,0.7s0,0.9,0,1.3s0,0.5,0.6,0.7
				s0.2,0.2,0.4,0.8c0.2,0.6,0.3,0.3,0.4,1.2C62.5,101.3,62,100.2,61.8,100z M68.8,53.1c-0.2,0.2-1,0.5-1.2,0.4
				c-0.2-0.1-0.9,0.2-0.9,0.2c-0.1-0.1-0.9,0-0.9-0.2c0-0.2-0.6-0.1-0.6-0.3s-0.9,0-0.9-0.3c-0.1-0.3-1.5,0-2.1,0.4
				c-0.6,0.4-1.4,0.4-1.8,0.3s-1.4-0.9-1.3-1c0.2-0.1,0-0.6,0.2-0.6c0.2-0.1,0.3-0.3,0.3-0.5c0-0.2,0-0.2,0.2-0.3
				c0.2-0.1,0-0.3,0.1-0.5c0.1-0.2,0.3,0.1,0.4-0.1s0.1-0.1,0.3-0.1c0.2-0.1,0-0.2,0-0.5c0-0.3,0.1-0.5,0.3-0.3
				c0.4,0.2,0.3-0.2,0.7-0.3c0.3-0.1,0.2,0,0.4,0.2c0.2,0.2,0.2,0.2,0.6,0.2s1.3,0,1.6-0.2c0.3-0.2,0.2-0.1,0.9-0.3
				c0.6-0.2,0.6-0.1,1.1-0.2c0.5-0.2,0.9,0,0.7,0.1c-0.2,0.1-1,0.4-0.8,0.6c0.2,0.2,0,0.1-0.2,0.2c-0.2,0.2-0.4,0.4-1.4,0.4
				c-1,0-0.3-0.1-1.1-0.3s-0.7,0.1-0.7,0.4c0,0.4,0.1,0.9,0.8,0.7c0.6-0.2,0.5-0.1,0.7-0.4s0.6,0.1,1.2,0c0.6-0.1,0.1,0.2,1,0.6
				c0.9,0.3,0.5,0.3,1.2,0.9c0.7,0.6,0.6,0.1,1.2,0.5C69.4,52.7,69,52.9,68.8,53.1z M79.2,57.1c-0.1,0.1-0.3,0.2-0.8,0.3
				c-0.8,0.1-1,0.1-1.1,0c-0.1,0-0.2-0.1-0.4-0.2c-0.3-0.2-0.2-0.3-0.4-0.4c-0.4-0.3-1,0-1.3-0.3c0-0.1-0.1-0.2-0.1-0.3
				c0-0.1,0-0.2,0-0.3c0-0.4-0.2-0.6-0.1-0.7c0.1-0.1,0.2-0.1,0.2-0.2c0-0.1,0-0.1,0-0.3c0-0.1,0-0.2,0-0.3c0,0-0.1,0-0.1,0
				c0,0,0-0.1,0.1-0.1s0,0.1,0,0.2c0.2,0,0.7-0.2,0.7-0.3c0-0.1-0.3,0-0.7-0.2c-0.1-0.1-0.2-0.1-0.3-0.2c-0.1-0.1-0.2-0.2-0.3-0.3
				c-0.1-0.2-0.2-0.1-0.6-0.5c-0.2-0.2-0.2-0.2-0.6-0.5c-0.1-0.1-0.2-0.2-0.3-0.4c-0.1-0.1-0.1-0.2-0.2-0.2c-0.1-0.3,0.1-0.6,0-0.7
				c-0.1-0.1-0.1,0-0.3,0c-0.2,0-0.4-0.3-0.4-0.5c0-0.1,0.1-0.1,0.2-0.3s0.1-0.3,0.2-0.4c0.1-0.1,0.2-0.1,0.3-0.2
				c0.2-0.1,0.2-0.1,0.4-0.1c0.1-0.1,0.1-0.1,0.3-0.2c0.2-0.2,0.3-0.1,0.4-0.3c0.1-0.1,0.1-0.1,0.1-0.2c0.1-0.1,0.2-0.1,0.2-0.1
				c0.5,0,1,0,1,0c0.1,0,0.2,0,0.3,0.1c0.1,0,0.5,0.1,0.6,0.4c0.1,0.2,0,0.2,0.1,0.4c0.1,0.1,0.2,0.2,0.3,0.3c0.2,0.1,0.3-0.1,0.5,0
				c0.2,0.1,0.2,0.4,0.1,0.5c-0.1,0.1-0.5-0.1-0.7-0.2c-0.4-0.2-0.6-0.5-0.8-0.4c-0.1,0-0.1,0.1-0.2,0.2c-0.2,0.2-0.3,0.2-0.5,0.4
				c0,0.1-0.2,0.3-0.2,0.5c0,0.2,0.3,0.3,0.9,0.7c0.6,0.4,0.9,0.7,1,1c0,0.1,0,0.2,0.2,0.4c0.1,0.1,0.3,0.2,0.3,0.2c0,0,0-0.1,0-0.2
				c0-0.2,0-0.5,0.1-0.5c0.1-0.1,0.3,0.1,0.4,0.2c0.2,0.2,0.2,0.3,0.4,0.4c0.2,0.1,0.2,0.1,0.3,0.2c0.1,0.1,0.1,0.2,0.1,0.3
				c0,0-0.1,0-0.1,0c-0.4,0-0.6,0-0.8,0c0,0-0.2,0.1-0.3,0.2c-0.1,0.1-0.1,0.4,0,0.5c0.1,0.1,0.2-0.1,0.4-0.1c0.2,0,0.4,0.1,0.4,0.2
				c0,0.1,0,0.1-0.1,0.3C78,54.9,78,54.9,78,55c0,0.1,0.3,0,0.6,0.2c0.3,0.2,0.1,0.5,0.4,1.2C79.1,56.8,79.3,56.9,79.2,57.1z
				 M80.4,50.9c-0.1,0-0.1,0-0.2,0c-0.1-0.1-0.1-0.2-0.1-0.7c0-0.3-0.1-0.3,0-0.5c0.1-0.2,0.3-0.3,0.4-0.2c0,0-0.2,0.2-0.2,0.5
				c0,0.2,0.1,0.2,0.2,0.4C80.5,50.6,80.5,50.8,80.4,50.9z M81.6,50.9c0,0.1-0.2,0.2-0.3,0.2c-0.2,0-0.3-0.1-0.4-0.3
				c0-0.1,0.1-0.2,0.1-0.3c0-0.2-0.3-0.3-0.3-0.5c0-0.1,0.1-0.2,0.2-0.2s0,0.1,0.1,0.3C81.2,50.6,81.7,50.7,81.6,50.9z M81.6,49.5
				c0,0-0.1,0-0.4-0.1c-0.3-0.1-0.4-0.1-0.4-0.2c0-0.1,0.1-0.2,0.3-0.2c0.2,0,0.3,0,0.5,0.1c0.1,0.1,0.3,0.1,0.3,0.2
				C81.8,49.5,81.6,49.5,81.6,49.5z M92.7,49.1c0,0.1-0.3,0.2-0.4,0.2c-0.3,0.1-0.4,0-1-0.1c-0.5-0.1-0.7-0.1-0.8,0
				c0,0-0.2,0.1-0.3,0.3c-0.1,0.4,0.4,0.8,0.3,0.9c-0.1,0.1-0.3,0-0.3,0c-0.4-0.1-0.5-0.6-0.5-0.7c0,0,0-0.2,0.1-0.5
				c0-0.1,0.1-0.3,0.4-0.5c0.2-0.1,0.4,0,1.1,0.2c0.5,0.1,0.8,0.1,1,0c0.1-0.1,0.2-0.2,0.3-0.2C92.7,48.9,92.7,49,92.7,49.1z
				 M102.1,45.1c-0.2,0.1-0.5,0-0.6-0.1c-0.2-0.3,0.3-0.6,0.3-1.1c-0.1-0.6-0.9-0.9-0.8-1.2c0-0.1,0.3-0.2,0.4-0.2
				c0.5,0,0.9,0.7,1.1,1.4C102.5,44.2,102.5,44.9,102.1,45.1z"/>
			<path class="st3" d="M85.5,28c9.8,5.6,17.9,14.5,22.4,25.8c10.6,26.6-2.4,56.7-29.1,67.3c-11.3,4.5-23.3,4.7-34.2,1.4
				c13.2,7.6,29.6,9.3,44.9,3.2c26.6-10.6,39.6-40.7,29.1-67.3C112.6,43.2,100.1,32.4,85.5,28z"/>
			<path class="st4" d="M28.2,99.2c-10.6-26.6,2.4-56.7,29.1-67.3c12.2-4.9,25.2-4.7,36.7-0.6c-12.8-6.5-28.2-7.6-42.5-1.9
				C24.8,40,11.8,70.1,22.4,96.6c5.7,14.4,17.1,24.8,30.6,29.6C42.1,120.8,33.1,111.4,28.2,99.2z"/>
			<path class="st2" d="M120.4,67.9c-0.1,0-0.2,0.7-0.1,1.3c0.1,0.8,0.5,1.5,0.6,1.5c0.1,0,0-1-0.1-1.5
				C120.8,69,120.6,67.9,120.4,67.9z"/>
			<path class="st2" d="M122,80.6c-0.1,0-0.2-0.4-0.2-0.5c0,0,0-0.2-0.1-0.5c0-0.3,0-0.4,0-0.6c0-0.3-0.1-0.5-0.2-0.7
				c-0.2-0.6,0.1-1.1,0.1-2c0-1-0.4-1.9-0.5-1.9c0,0,0,0.2,0,0.8c0,0.3,0,0.4,0,1.4c0,1.5,0,0.7,0,1.6c0,0.6,0,0.8,0.1,1.1
				c0.1,0.5,0.2,0.5,0.3,0.8c0.1,0.3,0,0.5-0.1,1.9c0,0.3,0,0.5,0,0.6c0,0.7,0.1,0.8,0.1,1.3c-0.1,0.5-0.2,0.3-0.3,0.8
				c-0.1,0.4,0.1,0.5,0,1.2c0,0.1,0,0.2,0,0.2c0.1,0,0.3-0.6,0.6-1.1c0.2-1.6,0.4-3.3,0.5-5C122.2,80.3,122.1,80.6,122,80.6z"/>
		</g>
		<path class="st5" d="M134.7,65.9l18.4,18.5l-7.6,7.6l-18.4-18.4c-5.1,3.5-10.7,5.2-16.8,5.2c-8.2,0-15.2-2.9-21-8.7
			c-5.8-5.8-8.7-12.8-8.7-21s2.9-15.2,8.7-21c5.8-5.8,12.8-8.7,21-8.7c8.2,0,15.2,2.9,21,8.7C137,34,140,41,140,49.2
			C140,55.3,138.2,60.9,134.7,65.9z M130,49.2c0-5.5-1.9-10.1-5.7-14c-3.8-3.9-8.5-5.8-14-5.8c-5.5,0-10.2,1.9-14,5.8
			c-3.8,3.9-5.8,8.5-5.8,14s1.9,10.1,5.8,13.9c3.9,3.8,8.6,5.8,14,5.8c5.4,0,10.1-1.9,14-5.8C128.2,59.2,130.1,54.5,130,49.2z"/>
	</g>
</g>
</svg>
