<?xml version="1.0" encoding="utf-8"?>
<!-- Generator: Adobe Illustrator 22.0.1, SVG Export Plug-In . SVG Version: 6.00 Build 0)  -->
<svg version="1.1" id="Capa_1" xmlns="http://www.w3.org/2000/svg" xmlns:xlink="http://www.w3.org/1999/xlink" x="0px" y="0px"
	 viewBox="0 0 155 155" style="enable-background:new 0 0 155 155;" xml:space="preserve">
<style type="text/css">
	.st0{fill:#EBECF0;}
	.st1{fill:#FFFFFF;stroke:#8C91A5;stroke-miterlimit:10;}
	.st2{fill:#FDFDFC;stroke:#8C91A5;stroke-width:0.75;stroke-miterlimit:10;}
	.st3{fill:#BFBFBE;}
	.st4{fill:#EED3B7;}
	.st5{fill:#FFFFFF;stroke:#8C91A5;stroke-width:0.5;stroke-miterlimit:10;}
	.st6{fill:#C7CBDB;}
	.st7{fill:#898DA1;}
	.st8{fill:#FFFFFF;}
	.st9{fill:#3A3E4B;}
	.st10{font-family:'Raleway-ExtraBold';}
	.st11{font-size:6.5701px;}
	.st12{opacity:0.1;}
	.st13{fill:#181519;}
	.st14{fill:#C9CEDF;stroke:#FFFFFF;stroke-width:1.239;stroke-miterlimit:10;}
	.st15{fill:#7DAB39;}
</style>
<g>
	<circle class="st0" cx="77.5" cy="77.5" r="71.5"/>
	<g>
		<g>
			<g>
				<path class="st1" d="M114.1,146.1c0,2.8-2.5,5.1-5.6,5.1H45c-3.1,0-5.6-2.3-5.6-5.1V14.8c0-2.8,2.5-5.1,5.6-5.1h63.5
					c3.1,0,5.6,2.3,5.6,5.1V146.1z"/>
				<rect x="43.7" y="16.1" class="st2" width="65.9" height="117.4"/>
				<g>
					<g>
						<g>
							<g>
								<rect x="48.2" y="65" class="st3" width="0.8" height="0.8"/>
							</g>
							<g>
								<rect x="49.9" y="65" class="st3" width="0.8" height="0.8"/>
							</g>
							<g>
								<rect x="51.4" y="65" class="st3" width="0.8" height="0.8"/>
							</g>
						</g>
					</g>
				</g>
				<path class="st4" d="M73.9,57.1L73.9,57.1C73.9,57.2,73.9,57.1,73.9,57.1z"/>
				<circle class="st5" cx="77.3" cy="142.6" r="6.9"/>
				<g>
					<g>
						<rect x="45.3" y="23.2" class="st6" width="62.5" height="12.8"/>
					</g>
					<g>
						<g>
							<rect x="47.8" y="25.9" class="st7" width="7.3" height="1.7"/>
						</g>
						<g>
							<rect x="47.8" y="28.7" class="st7" width="7.3" height="1.7"/>
						</g>
						<g>
							<rect x="47.8" y="31.5" class="st7" width="7.3" height="1.7"/>
						</g>
					</g>
					<g>
						<path class="st7" d="M96.9,29v1.5l1.4,0.1c0.1,0.3,0.2,0.5,0.4,0.8l-0.9,1.1l1,1l1.1-0.9c0.3,0.1,0.5,0.3,0.8,0.4l0.1,1.4h1.5
							l0.1-1.4c0.3-0.1,0.5-0.2,0.8-0.4l1.1,0.9l1-1l-0.9-1.1c0.1-0.3,0.3-0.5,0.4-0.8l1.4-0.1V29l-1.4-0.1
							c-0.1-0.3-0.2-0.6-0.4-0.8l0.9-1.1l-1-1l-1.1,0.9c-0.3-0.1-0.5-0.3-0.8-0.4l-0.1-1.4h-1.5l-0.1,1.4c-0.3,0.1-0.6,0.2-0.8,0.4
							L98.8,26l-1,1l0.9,1.1c-0.1,0.3-0.3,0.5-0.4,0.8L96.9,29z M100.3,29.7c0-0.4,0.1-0.7,0.4-1s0.6-0.4,1-0.4s0.7,0.1,1,0.4
							s0.4,0.6,0.4,1s-0.1,0.7-0.4,1s-0.6,0.4-1,0.4s-0.7-0.1-1-0.4C100.4,30.4,100.3,30.1,100.3,29.7z"/>
					</g>
				</g>
				<g>
					<g>
						<path class="st6" d="M109.6,57.9H46V40.5h63.5L109.6,57.9L109.6,57.9z M46.8,57.2h62v-16h-62C46.8,41.2,46.8,57.2,46.8,57.2z"
							/>
					</g>
					<g>
						<circle class="st8" cx="77.5" cy="55.9" r="9.9"/>
						<path class="st6" d="M77.5,66.2c-5.7,0-10.3-4.6-10.3-10.3s4.6-10.3,10.3-10.3c5.7,0,10.3,4.6,10.3,10.3
							C87.8,61.5,83.2,66.2,77.5,66.2z M77.5,46.4c-5.2,0-9.5,4.3-9.5,9.5s4.3,9.5,9.5,9.5s9.5-4.3,9.5-9.5S82.8,46.4,77.5,46.4z"/>
					</g>
				</g>
				<g>
					<g>
						<path class="st9" d="M102,20v0.3h-1.3V20h0.5v-1.4c0-0.1,0-0.1,0-0.2l-0.3,0.3c0,0,0,0-0.1,0l0,0l0,0l0,0l-0.1-0.2l0.7-0.6
							h0.3V20L102,20L102,20z"/>
						<path class="st9" d="M103,18.8l-0.1,0.1C103,18.9,103.1,18.9,103,18.8c0.1,0.1,0.2,0,0.3,0c0.1,0,0.2,0,0.3,0
							c0.1,0,0.1,0.1,0.2,0.1c0.1,0.1,0.1,0.1,0.1,0.2s0.1,0.2,0.1,0.3c0,0.1,0,0.2-0.1,0.3c0,0.1-0.1,0.2-0.2,0.3
							c-0.1,0.1-0.2,0.1-0.3,0.2c-0.1,0-0.2,0.1-0.4,0.1s-0.3,0-0.3-0.1c-0.1,0-0.2-0.1-0.3-0.2c-0.1-0.1-0.1-0.1-0.2-0.3
							c0-0.1-0.1-0.2-0.1-0.3c0-0.1,0-0.2,0.1-0.4c0-0.1,0.1-0.3,0.2-0.4l0.6-0.8c0,0,0,0,0.1-0.1h0.1h0.4L103,18.8z M103.1,20
							c0.1,0,0.1,0,0.2,0c0,0,0.1,0,0.1-0.1l0.1-0.1c0,0,0-0.1,0-0.2s0-0.1,0-0.2s0-0.1-0.1-0.1l-0.1-0.1c0,0-0.1,0-0.2,0
							s-0.1,0-0.2,0c0,0-0.1,0-0.1,0.1l-0.1,0.1c0,0,0,0.1,0,0.2s0,0.1,0,0.2s0,0.1,0.1,0.1l0.1,0.1C103,20,103.1,20,103.1,20z"/>
						<path class="st9" d="M104.3,18.9v-0.1v-0.1c0,0,0,0,0.1,0h0.1h0.1h0.1c0,0,0,0,0,0.1v0.1V19v0.1c0,0,0,0-0.1,0h-0.1h-0.1h-0.1
							c0,0,0,0,0-0.1C104.3,19,104.3,19,104.3,18.9z M104.3,20.1V20v-0.1c0,0,0,0,0.1,0h0.1h0.1h0.1c0,0,0,0,0,0.1s0,0.1,0,0.1v0.1
							v0.1c0,0,0,0-0.1,0h-0.1h-0.1h-0.1c0,0,0,0,0-0.1V20.1z"/>
						<path class="st9" d="M106.7,20v0.3h-1.3V20h0.5v-1.4c0-0.1,0-0.1,0-0.2l-0.3,0.3c0,0,0,0-0.1,0s0,0,0,0l0,0l0,0l-0.1-0.2
							l0.7-0.6h0.3V20L106.7,20L106.7,20z"/>
						<path class="st9" d="M108.6,20v0.3h-1.3V20h0.5v-1.4c0-0.1,0-0.1,0-0.2l-0.3,0.3c0,0,0,0-0.1,0s0,0-0.1,0l0,0l0,0l-0.1-0.2
							l0.7-0.6h0.3V20L108.6,20L108.6,20z"/>
					</g>
					<g>
						<g>
							<path class="st9" d="M97.9,19L97.9,19L97.9,19L97.9,19L97.9,19L97.9,19L97.9,19v-0.1l0,0l0,0l0,0l0,0l0,0l0,0V19
								C97.8,19,97.9,19,97.9,19L97.9,19z"/>
						</g>
						<g>
							<path class="st9" d="M97.6,19C97.6,19,97.6,18.9,97.6,19C97.6,18.9,97.6,18.9,97.6,19L97.6,19L97.6,19c-0.1,0-0.1,0-0.1,0.1
								c0,0,0,0,0,0.1s0,0.1,0,0.1s0,0,0,0.1l0,0l0,0l0,0l0,0c0,0,0,0,0-0.1c0,0,0,0,0-0.1C97.6,19.1,97.6,19,97.6,19L97.6,19z"/>
						</g>
						<g>
							<path class="st9" d="M97.2,19C97.2,19,97.2,18.9,97.2,19C97.2,18.9,97.2,18.9,97.2,19L97.2,19L97.2,19c-0.1,0-0.1,0-0.1,0.1
								c0,0,0,0,0,0.1s0,0.1,0,0.1s0,0,0,0.1l0,0l0,0l0,0l0,0c0,0,0,0,0-0.1c0,0,0,0,0-0.1C97.2,19.1,97.2,19,97.2,19L97.2,19z"/>
						</g>
						<g>
							<path class="st9" d="M98.2,19.2L98.2,19.2L98.2,19.2C98.1,19.2,98.1,19.2,98.2,19.2L98.2,19.2C98.1,19.2,98.1,19.2,98.2,19.2
								L98.2,19.2v0.1l0,0l0,0l0,0l0,0l0,0l0,0V19.2L98.2,19.2L98.2,19.2z"/>
						</g>
						<g>
							<path class="st9" d="M98,17.6v-0.3h-1.2v0.3h-0.5v3.1h2.2v-3.1H98z M96.9,19.4h-0.3v-0.1h0.1V19l0,0h-0.1l0,0l0,0l0,0l0,0
								l0,0l0.1-0.1h0.1L96.9,19.4L96.9,19.4L96.9,19.4L96.9,19.4z M97.3,19.2C97.3,19.3,97.3,19.3,97.3,19.2c0,0.1-0.1,0.1-0.1,0.1
								s0,0-0.1,0c0,0,0,0-0.1,0c0,0,0,0-0.1,0c0,0,0,0,0-0.1v-0.1V19v-0.1c0,0,0,0,0.1,0c0,0,0,0,0.1,0s0,0,0.1,0c0,0,0,0,0.1,0
								c0,0,0,0,0,0.1v0.1V19.2z M97.7,19.2C97.7,19.3,97.7,19.3,97.7,19.2c0,0.1-0.1,0.1-0.1,0.1s0,0-0.1,0s0,0-0.1,0
								c0,0,0,0-0.1,0c0,0,0,0,0-0.1v-0.1V19v-0.1c0,0,0,0,0.1,0c0,0,0,0,0.1,0s0,0,0.1,0c0,0,0,0,0.1,0c0,0,0,0,0,0.1v0.1V19.2z
								 M97.8,19L97.8,19C97.8,19,97.8,18.9,97.8,19l0.1-0.1l0,0l0,0l0,0l0,0l0,0l0,0l0,0l0,0l0,0l0,0C97.9,19.1,97.8,19.1,97.8,19
								C97.8,19.1,97.8,19,97.8,19L97.8,19z M97.9,19.4L97.9,19.4L97.9,19.4l0.3-0.5l0,0l0,0h0.1L97.9,19.4L97.9,19.4z M98.3,19.3
								L98.3,19.3L98.3,19.3l-0.1,0.1l0,0l0,0l0,0l0,0l0,0l0,0l0,0l0,0l0,0l0,0C98.2,19.2,98.2,19.2,98.3,19.3L98.3,19.3L98.3,19.3z
								"/>
						</g>
						<g>
							<path class="st9" d="M86.1,18.1c0.7,0.9,1.4,1.7,2.1,2.6c0.7-0.9,1.4-1.7,2.1-2.6C89.3,17.1,87.4,17.1,86.1,18.1z"/>
						</g>
						<g>
							<path class="st9" d="M94.1,20.7c0-1.1,0-2.2,0-3.1c-1,1-2.1,2.1-3.1,3.1C92,20.7,93.1,20.7,94.1,20.7z"/>
						</g>
					</g>
				</g>
				<g>
					<path class="st9" d="M47.4,19.4c0,0.1,0,0.3-0.1,0.4c0,0.1-0.1,0.3-0.2,0.3c-0.1,0.1-0.2,0.2-0.3,0.2s-0.3,0.1-0.4,0.1
						c-0.1,0-0.3,0-0.4-0.1c-0.1,0-0.2-0.1-0.3-0.2s-0.1-0.2-0.2-0.3c0-0.1-0.1-0.3-0.1-0.4s0-0.3,0.1-0.4c0-0.1,0.1-0.3,0.2-0.3
						c0.1-0.1,0.2-0.2,0.3-0.2s0.3-0.1,0.4-0.1c0.1,0,0.2,0,0.3,0s0.2,0.1,0.3,0.1s0.1,0.1,0.2,0.1c0.1,0.1,0.1,0.1,0.1,0.2
						s0.1,0.1,0.1,0.3C47.4,19.2,47.4,19.3,47.4,19.4z M47,19.4c0-0.1,0-0.2,0-0.3c0-0.1-0.1-0.2-0.1-0.2c-0.1-0.1-0.1-0.1-0.2-0.1
						c-0.1,0-0.2,0-0.3,0s-0.2,0-0.3,0s-0.1,0.1-0.2,0.1c-0.1,0.1-0.1,0.1-0.1,0.2s0,0.2,0,0.3c0,0.1,0,0.2,0,0.3
						c0,0.1,0.1,0.1,0.1,0.2C46,20,46,20,46.1,20c0.1,0,0.2,0,0.3,0s0.2,0,0.3,0s0.1-0.1,0.2-0.1c0.1-0.1,0.1-0.1,0.1-0.2
						C47,19.6,47,19.5,47,19.4z"/>
					<path class="st9" d="M48.4,18.4c0.1,0,0.3,0,0.4,0c0.1,0,0.2,0.1,0.3,0.1c0.1,0.1,0.1,0.1,0.1,0.2s0,0.2,0,0.3
						c0,0.1,0,0.2,0,0.3c0,0.1-0.1,0.1-0.1,0.2c-0.1,0.1-0.1,0.1-0.3,0.1s-0.2,0-0.4,0h-0.3v0.7h-0.4v-2L48.4,18.4z M48.4,19.4
						c0.1,0,0.1,0,0.2,0c0,0,0.1,0,0.1-0.1l0.1-0.1v-0.1c0-0.1,0-0.1,0-0.1s0-0.1-0.1-0.1c0,0-0.1,0-0.1-0.1c0,0-0.1,0-0.2,0h-0.3
						v0.7L48.4,19.4z"/>
					<path class="st9" d="M49.8,18.7v0.6h0.7v0.3h-0.7v0.6h0.9v0.3h-1.3v-2h1.3v0.3L49.8,18.7L49.8,18.7z"/>
					<path class="st9" d="M52.7,20.4h-0.3c-0.1,0-0.1,0-0.1-0.1l-0.4-0.7l0,0c0,0,0,0-0.1,0h-0.1v0.8h-0.4v-2h0.6c0.1,0,0.3,0,0.4,0
						c0.1,0,0.2,0.1,0.3,0.1s0.1,0.1,0.1,0.2s0,0.1,0,0.3c0,0.1,0,0.1,0,0.2s0,0.1-0.1,0.2l-0.1,0.1c-0.1,0-0.1,0.1-0.2,0.1
						c0,0,0,0,0.1,0c0,0,0,0,0.1,0.1L52.7,20.4z M51.7,19.4c0.1,0,0.1,0,0.2,0c0,0,0.1,0,0.1-0.1l0.1-0.1v-0.1c0-0.1,0-0.2-0.1-0.3
						c-0.1-0.1-0.2-0.1-0.3-0.1h-0.3v0.7H51.7z"/>
					<path class="st9" d="M54.7,20.4h-0.3h-0.1c0,0,0,0,0-0.1l-0.1-0.4h-0.9l-0.1,0.4c0,0,0,0,0,0.1c0,0,0,0-0.1,0h-0.3l0.8-2H54
						L54.7,20.4z M54,19.7L53.7,19v-0.1v-0.1v0.1V19l-0.3,0.7H54z"/>
					<path class="st9" d="M56.7,19.4c0,0.1,0,0.3-0.1,0.4c0,0.1-0.1,0.2-0.2,0.3c-0.1,0.1-0.2,0.1-0.3,0.2c-0.1,0-0.3,0.1-0.4,0.1
						h-0.8v-2h0.8c0.1,0,0.3,0,0.4,0.1c0.1,0,0.2,0.1,0.3,0.2s0.1,0.2,0.2,0.3C56.7,19.1,56.7,19.3,56.7,19.4z M56.3,19.4
						c0-0.1,0-0.2,0-0.3c0-0.1-0.1-0.2-0.1-0.2c-0.1-0.1-0.1-0.1-0.2-0.1c-0.1,0-0.2,0-0.3,0h-0.4v1.4h0.4c0.1,0,0.2,0,0.3,0
						s0.1-0.1,0.2-0.1c0.1-0.1,0.1-0.1,0.1-0.2C56.3,19.6,56.3,19.5,56.3,19.4z"/>
					<path class="st9" d="M59,19.4c0,0.1,0,0.3-0.1,0.4c0,0.1-0.1,0.3-0.2,0.3c-0.1,0.1-0.2,0.2-0.3,0.2s-0.3,0.1-0.4,0.1
						c-0.1,0-0.3,0-0.4-0.1c-0.1,0-0.2-0.1-0.3-0.2C57,20,57,19.9,56.9,19.8c0-0.1-0.1-0.3-0.1-0.4s0-0.3,0.1-0.4
						c0-0.1,0.1-0.3,0.2-0.3c0.1-0.1,0.2-0.2,0.3-0.2s0.3-0.1,0.4-0.1c0.1,0,0.2,0,0.3,0s0.2,0.1,0.3,0.1s0.1,0.1,0.2,0.1
						c0.1,0.1,0.1,0.1,0.1,0.2s0.1,0.1,0.1,0.3C59,19.2,59,19.3,59,19.4z M58.6,19.4c0-0.1,0-0.2,0-0.3c0-0.1-0.1-0.2-0.1-0.2
						c-0.1-0.1-0.1-0.1-0.2-0.1c-0.1,0-0.2,0-0.3,0s-0.2,0-0.3,0s-0.1,0.1-0.2,0.1c-0.1,0.1-0.1,0.1-0.1,0.2s0,0.2,0,0.3
						c0,0.1,0,0.2,0,0.3c0,0.1,0.1,0.1,0.1,0.2c0.1,0.1,0.1,0.1,0.2,0.1c0.1,0,0.2,0,0.3,0s0.2,0,0.3,0s0.1-0.1,0.2-0.1
						c0.1-0.1,0.1-0.1,0.1-0.2C58.6,19.6,58.6,19.5,58.6,19.4z"/>
					<path class="st9" d="M60.9,20.4h-0.3c-0.1,0-0.1,0-0.1-0.1L60,19.7l0,0c0,0,0,0-0.1,0h-0.1v0.8h-0.4v-2H60c0.1,0,0.3,0,0.4,0
						s0.2,0.1,0.3,0.1s0.1,0.1,0.1,0.2s0,0.1,0,0.3c0,0.1,0,0.1,0,0.2s0,0.1-0.1,0.2l-0.1,0.1c-0.1,0-0.1,0.1-0.2,0.1c0,0,0,0,0.1,0
						c0,0,0,0,0.1,0.1L60.9,20.4z M59.9,19.4c0.1,0,0.1,0,0.2,0c0,0,0.1,0,0.1-0.1l0.1-0.1v-0.1c0-0.1,0-0.2-0.1-0.3
						c-0.1-0.1-0.2-0.1-0.3-0.1h-0.3v0.7H59.9z"/>
				</g>
				<g>
					<rect x="45.2" y="119.4" class="st6" width="63.1" height="12.8"/>
				</g>
				<g>
					<rect x="46.4" y="63.6" class="st6" width="13.8" height="9.8"/>
				</g>
				<g>
					<rect x="45.6" y="104.1" class="st6" width="62.7" height="9.8"/>
				</g>
				<g>
					<path class="st7" d="M56.5,127.7c0,0.1,0,0.3-0.1,0.4c0,0.2-0.1,0.3-0.1,0.4c-0.1,0.2-0.3,0.4-0.7,0.7
						c-0.4,0.2-0.7,0.3-1.1,0.3c-0.1,0-0.2,0-0.3,0s-0.2,0-0.3-0.1c-0.1,0-0.2-0.1-0.3-0.1s-0.2-0.1-0.3-0.1
						c-0.2-0.1-0.3-0.1-0.3-0.1c-0.4-0.1-0.7-0.3-1.1-0.5c-0.5-0.3-1.1-0.8-1.6-1.3s-1-1.1-1.3-1.6c-0.2-0.3-0.4-0.7-0.5-1.1
						c0,0,0-0.1-0.1-0.3c-0.1-0.2-0.1-0.3-0.1-0.3c0-0.1-0.1-0.1-0.1-0.3c0-0.1,0-0.3-0.1-0.3c0-0.1,0-0.2,0-0.3
						c0-0.4,0.1-0.8,0.3-1.1c0.2-0.4,0.4-0.7,0.6-0.7c0.1,0,0.3-0.1,0.4-0.1c0.2,0,0.3-0.1,0.4-0.1c0.1,0,0.1,0,0.1,0
						c0.1,0,0.2,0.2,0.3,0.5c0,0.1,0.1,0.2,0.2,0.3c0.1,0.1,0.1,0.3,0.2,0.4s0.1,0.2,0.2,0.3c0,0,0,0.1,0.1,0.1
						c0.1,0.1,0.1,0.1,0.1,0.2s0,0.1,0,0.2s-0.1,0.2-0.2,0.3c-0.1,0.1-0.3,0.2-0.4,0.3c-0.1,0.1-0.3,0.2-0.4,0.3
						c-0.1,0.1-0.2,0.2-0.2,0.3v0.1c0,0.1,0,0.1,0,0.1s0,0.1,0.1,0.1c0,0.1,0.1,0.1,0.1,0.1c0.3,0.5,0.7,1,1.1,1.4
						c0.4,0.4,0.9,0.7,1.4,1.1c0,0,0,0,0.1,0.1c0.1,0,0.1,0.1,0.1,0.1h0.1h0.1c0.1,0,0.1,0,0.3-0.1c0.1-0.1,0.2-0.2,0.3-0.4
						c0.1-0.1,0.2-0.3,0.3-0.4s0.2-0.2,0.3-0.2h0.1c0.1,0,0.1,0.1,0.2,0.1c0.1,0.1,0.1,0.1,0.1,0.1c0.1,0.1,0.2,0.1,0.3,0.2
						s0.3,0.1,0.4,0.2c0.1,0.1,0.3,0.1,0.3,0.2c0.3,0.1,0.4,0.3,0.4,0.3C56.5,127.6,56.5,127.6,56.5,127.7z"/>
				</g>
				<g>
					<path class="st7" d="M104.6,122.3c0.3,0,0.5,0.1,0.7,0.3c0.2,0.2,0.3,0.4,0.3,0.8v4.7c0,0.3-0.1,0.5-0.3,0.8
						c-0.2,0.2-0.4,0.3-0.7,0.3h-7.4c-0.3,0-0.5-0.1-0.8-0.3c-0.2-0.2-0.3-0.4-0.3-0.8v-4.7c0-0.3,0.1-0.5,0.3-0.8
						c0.2-0.2,0.4-0.3,0.8-0.3H104.6L104.6,122.3z M100.3,126.9l-0.8-0.7l-1.9,1.9h6.6l-1.9-1.9l-0.8,0.7c-0.1,0.1-0.4,0.2-0.6,0.2
						S100.5,127.1,100.3,126.9z M97.2,127.7l1.9-1.9l-1.9-1.6V127.7L97.2,127.7z M102.7,125.9l1.9,1.9v-3.6L102.7,125.9z
						 M104.6,123.4h-7.4v0.1l3.5,3c0.1,0,0.1,0.1,0.2,0.1s0.2,0,0.2-0.1L104.6,123.4C104.6,123.5,104.6,123.4,104.6,123.4z"/>
				</g>
				<g>
					<path class="st7" d="M82.7,122.8c0.1,0.1,0.2,0.2,0.2,0.4v6.9c0,0.1-0.1,0.3-0.2,0.4c-0.1,0-0.1,0.1-0.2,0.1s-0.1,0-0.2-0.1
						l-2.6-1.6l-2.6,1.6c-0.1,0.1-0.3,0.1-0.4,0l-2.6-1.6l-2.6,1.6c-0.1,0.1-0.3,0.1-0.4,0s-0.2-0.2-0.2-0.4v-6.9
						c0-0.1,0.1-0.3,0.2-0.4l2.8-1.7c0.1-0.1,0.3-0.1,0.4,0l2.6,1.6l2.6-1.6c0.1-0.1,0.3-0.1,0.4,0L82.7,122.8z M73.9,128.1v-6
						l-2,1.2v6L73.9,128.1z M76.6,129.4v-6l-2-1.2v6L76.6,129.4z M79.4,128.1v-6l-2,1.2v6L79.4,128.1z M82.1,129.4v-6l-2-1.2v6
						L82.1,129.4z"/>
				</g>
				<text transform="matrix(1 0 0 1 66.7451 32.0713)" class="st7 st10 st11">App  :)</text>
				<g class="st12">
					<polyline class="st13" points="56.9,16.1 109.7,16.2 109.7,133.5 					"/>
				</g>
			</g>
			<path class="st14" d="M76.5,41.3l73.9,0.2l-0.1,51.6L106.7,93l-30.4,22.5l10.4-22.6H76.3L76.5,41.3z"/>
		</g>
		<path class="st15" d="M108.7,85.4L90.8,67.6l8.5-8.6l9.4,9.3l21.4-21.5l8.5,8.6L108.7,85.4z"/>
	</g>
</g>
</svg>
