<?xml version="1.0" encoding="utf-8"?>
<!-- Generator: Adobe Illustrator 22.0.1, SVG Export Plug-In . SVG Version: 6.00 Build 0)  -->
<svg version="1.1" id="Capa_1" xmlns="http://www.w3.org/2000/svg" xmlns:xlink="http://www.w3.org/1999/xlink" x="0px" y="0px"
	 viewBox="0 0 155 155" style="enable-background:new 0 0 155 155;" xml:space="preserve">
<style type="text/css">
	.st0{fill:#EBECF0;}
	.st1{fill:#FFFFFF;stroke:#8C91A5;stroke-width:0.5;stroke-miterlimit:10;}
	.st2{fill:#FDFDFC;stroke:#8C91A5;stroke-width:0.5;stroke-miterlimit:10;}
	.st3{fill:#BFBFBE;}
	.st4{fill:#EED3B7;}
	.st5{fill:#C7CBDB;}
	.st6{fill:#898DA1;}
	.st7{fill:#FFFFFF;}
	.st8{fill:#3A3E4B;}
	.st9{font-family:'Raleway-ExtraBold';}
	.st10{font-size:6.6041px;}
	.st11{opacity:0.1;}
	.st12{fill:#181519;}
	.st13{fill:#040006;}
	.st14{fill:#37985F;stroke:#37985F;stroke-width:1.3331;stroke-miterlimit:10;}
	.st15{fill:#EFEEEE;}
	.st16{fill:#37985F;}
	.st17{fill:#198B4D;}
</style>
<g>
	<circle class="st0" cx="77.5" cy="77.5" r="71.5"/>
	<g>
		<g>
			<path class="st1" d="M116.7,145.5c0,2.8-2.5,5.2-5.7,5.2H47.2c-3.1,0-5.7-2.3-5.7-5.2V13.5c0-2.8,2.5-5.2,5.7-5.2H111
				c3.1,0,5.7,2.3,5.7,5.2L116.7,145.5L116.7,145.5z"/>
			<rect x="46" y="14.9" class="st2" width="66.3" height="118"/>
			<g>
				<g>
					<g>
						<g>
							<rect x="50.4" y="64" class="st3" width="0.8" height="0.8"/>
						</g>
						<g>
							<rect x="52.1" y="64" class="st3" width="0.8" height="0.8"/>
						</g>
						<g>
							<rect x="53.7" y="64" class="st3" width="0.8" height="0.8"/>
						</g>
					</g>
				</g>
			</g>
			<path class="st4" d="M76.3,56.1L76.3,56.1C76.3,56.1,76.3,56.1,76.3,56.1z"/>
			<circle class="st1" cx="79.7" cy="142" r="6.9"/>
			<g>
				<g>
					<rect x="47.6" y="22" class="st5" width="62.9" height="12.8"/>
				</g>
				<g>
					<g>
						<rect x="50" y="24.7" class="st6" width="7.3" height="1.7"/>
					</g>
					<g>
						<rect x="50" y="27.5" class="st6" width="7.3" height="1.7"/>
					</g>
					<g>
						<rect x="50" y="30.3" class="st6" width="7.3" height="1.7"/>
					</g>
				</g>
				<g>
					<path class="st6" d="M99.4,27.7v1.5l1.4,0.1c0.1,0.3,0.2,0.6,0.4,0.8l-0.9,1.1l1,1l1.1-0.9c0.3,0.1,0.5,0.3,0.8,0.3l0.1,1.4
						h1.5l0.1-1.4c0.3-0.1,0.6-0.2,0.8-0.3l1.1,0.9l1-1l-0.9-1.1c0.1-0.3,0.3-0.6,0.4-0.8l1.4-0.1v-1.5l-1.4-0.1
						c-0.1-0.3-0.2-0.6-0.4-0.8l0.9-1.1l-1-1l-1.1,0.9c-0.3-0.1-0.6-0.3-0.8-0.4l-0.1-1.4h-1.5l-0.1,1.4c-0.3,0.1-0.6,0.2-0.8,0.4
						l-1.1-0.9l-1,1l0.9,1.1c-0.1,0.3-0.3,0.5-0.4,0.8L99.4,27.7z M102.8,28.5c0-0.4,0.1-0.7,0.4-1c0.3-0.3,0.6-0.4,1-0.4
						s0.7,0.1,1,0.4c0.3,0.3,0.4,0.6,0.4,1s-0.1,0.7-0.4,1c-0.3,0.3-0.6,0.4-1,0.4s-0.7-0.1-1-0.4C103,29.2,102.8,28.9,102.8,28.5z"
						/>
				</g>
			</g>
			<g>
				<g>
					<path class="st5" d="M112.1,56.9H48.3V39.4h63.9L112.1,56.9L112.1,56.9z M49.1,56.1h62.3v-16H49.1V56.1z"/>
				</g>
				<g>
					<circle class="st7" cx="79.9" cy="54.9" r="9.9"/>
					<path class="st5" d="M79.9,65.2c-5.7,0-10.3-4.6-10.3-10.3c0-5.7,4.6-10.3,10.3-10.3c5.7,0,10.3,4.6,10.3,10.3
						C90.3,60.6,85.6,65.2,79.9,65.2z M79.9,45.3c-5.2,0-9.6,4.3-9.6,9.6s4.3,9.6,9.6,9.6c5.2,0,9.6-4.3,9.6-9.6
						S85.2,45.3,79.9,45.3z"/>
				</g>
			</g>
			<g>
				<g>
					<path class="st8" d="M104.5,18.8v0.3h-1.3v-0.3h0.5v-1.4c0,0,0-0.1,0-0.2l-0.3,0.3c0,0,0,0-0.1,0s0,0,0,0h0c0,0,0,0,0,0
						l-0.1-0.2l0.7-0.6h0.3v2.1L104.5,18.8L104.5,18.8z"/>
					<path class="st8" d="M105.5,17.6l-0.1,0.1C105.5,17.6,105.6,17.6,105.5,17.6c0.1,0.1,0.2,0.1,0.3,0.1s0.2,0,0.3,0
						s0.1,0.1,0.2,0.1c0.1,0.1,0.1,0.1,0.1,0.2c0,0.1,0.1,0.2,0.1,0.3c0,0.1,0,0.2-0.1,0.3c0,0.1-0.1,0.2-0.2,0.3
						c-0.1,0.1-0.1,0.1-0.3,0.2c-0.1,0-0.2,0.1-0.3,0.1s-0.3,0-0.3-0.1c-0.1,0-0.2-0.1-0.3-0.2c-0.1-0.1-0.1-0.1-0.1-0.3
						c0-0.1-0.1-0.2-0.1-0.3c0-0.1,0-0.2,0.1-0.3c0-0.1,0.1-0.3,0.2-0.4l0.6-0.8c0,0,0,0,0.1-0.1c0,0,0.1,0,0.1,0h0.4L105.5,17.6z
						 M105.7,18.8c0.1,0,0.1,0,0.2,0c0,0,0.1,0,0.1-0.1c0,0,0.1-0.1,0.1-0.1c0,0,0-0.1,0-0.2c0-0.1,0-0.1,0-0.2s0-0.1-0.1-0.1
						c0,0-0.1-0.1-0.1-0.1c0,0-0.1,0-0.2,0s-0.1,0-0.2,0c0,0-0.1,0-0.1,0.1c0,0-0.1,0.1-0.1,0.1c0,0,0,0.1,0,0.2c0,0.1,0,0.1,0,0.2
						c0,0,0,0.1,0.1,0.1s0.1,0.1,0.1,0.1C105.5,18.8,105.6,18.8,105.7,18.8z"/>
					<path class="st8" d="M106.8,17.7c0,0,0-0.1,0-0.1c0,0,0-0.1,0-0.1c0,0,0,0,0.1,0s0.1,0,0.1,0c0,0,0.1,0,0.1,0c0,0,0.1,0,0.1,0
						c0,0,0,0,0,0.1s0,0.1,0,0.1s0,0.1,0,0.1c0,0,0,0.1,0,0.1c0,0,0,0-0.1,0s-0.1,0-0.1,0c0,0-0.1,0-0.1,0c0,0-0.1,0-0.1,0
						c0,0,0,0,0-0.1C106.8,17.7,106.8,17.7,106.8,17.7z M106.8,18.9c0,0,0-0.1,0-0.1c0,0,0-0.1,0-0.1c0,0,0,0,0.1,0s0.1,0,0.1,0
						c0,0,0.1,0,0.1,0c0,0,0.1,0,0.1,0c0,0,0,0,0,0.1c0,0,0,0.1,0,0.1c0,0,0,0.1,0,0.1c0,0,0,0.1,0,0.1c0,0,0,0-0.1,0s-0.1,0-0.1,0
						c0,0-0.1,0-0.1,0c0,0-0.1,0-0.1,0c0,0,0,0,0-0.1C106.8,18.9,106.8,18.9,106.8,18.9z"/>
					<path class="st8" d="M109.2,18.8v0.3h-1.3v-0.3h0.5v-1.4c0,0,0-0.1,0-0.2l-0.3,0.3c0,0,0,0-0.1,0h0h0c0,0,0,0,0,0l-0.1-0.2
						l0.7-0.6h0.3v2.1L109.2,18.8L109.2,18.8z"/>
					<path class="st8" d="M111.2,18.8v0.3h-1.3v-0.3h0.5v-1.4c0,0,0-0.1,0-0.2l-0.3,0.3c0,0,0,0-0.1,0c0,0,0,0,0,0h0c0,0,0,0,0,0
						l-0.1-0.2l0.7-0.6h0.3v2.1L111.2,18.8L111.2,18.8z"/>
				</g>
				<g>
					<g>
						<path class="st8" d="M100.3,17.8L100.3,17.8C100.4,17.8,100.4,17.8,100.3,17.8C100.4,17.8,100.4,17.8,100.3,17.8L100.3,17.8
							C100.4,17.8,100.4,17.8,100.3,17.8L100.3,17.8l0-0.1c0,0,0,0,0,0l0,0c0,0,0,0,0,0c0,0,0,0,0,0l0,0c0,0,0,0,0,0L100.3,17.8
							C100.3,17.8,100.3,17.8,100.3,17.8C100.3,17.8,100.3,17.8,100.3,17.8z"/>
					</g>
					<g>
						<path class="st8" d="M100.1,17.7C100.1,17.7,100.1,17.7,100.1,17.7C100.1,17.7,100.1,17.7,100.1,17.7l-0.1,0c0,0,0,0,0,0
							c0,0,0,0,0,0c0,0,0,0,0,0.1s0,0.1,0,0.1c0,0,0,0,0,0c0,0,0,0,0,0h0h0c0,0,0,0,0,0c0,0,0,0,0,0c0,0,0,0,0-0.1
							C100.2,17.8,100.2,17.8,100.1,17.7C100.1,17.8,100.1,17.7,100.1,17.7z"/>
					</g>
					<g>
						<path class="st8" d="M99.7,17.7C99.7,17.7,99.7,17.7,99.7,17.7C99.7,17.7,99.7,17.7,99.7,17.7l-0.1,0c0,0,0,0,0,0c0,0,0,0,0,0
							c0,0,0,0,0,0.1s0,0.1,0,0.1c0,0,0,0,0,0c0,0,0,0,0,0h0h0c0,0,0,0,0,0c0,0,0,0,0,0c0,0,0,0,0-0.1
							C99.7,17.8,99.7,17.8,99.7,17.7L99.7,17.7z"/>
					</g>
					<g>
						<path class="st8" d="M100.7,18C100.7,18,100.7,17.9,100.7,18C100.7,17.9,100.7,17.9,100.7,18C100.7,18,100.7,18,100.7,18
							L100.7,18C100.7,18,100.7,18,100.7,18L100.7,18l0,0.1c0,0,0,0,0,0l0,0c0,0,0,0,0,0c0,0,0,0,0,0l0,0c0,0,0,0,0,0L100.7,18
							C100.7,18,100.7,18,100.7,18L100.7,18z"/>
					</g>
					<g>
						<path class="st8" d="M100.5,16.3V16h-1.2v0.3h-0.5v3.1h2.2v-3.1H100.5z M99.4,18.1h-0.3V18h0.1v-0.3v0l-0.1,0.1l0,0l0,0l0,0
							l0,0l0,0l0.1-0.1h0.1L99.4,18.1L99.4,18.1L99.4,18.1L99.4,18.1z M99.8,18C99.8,18,99.8,18.1,99.8,18c0,0.1-0.1,0.1-0.1,0.1
							s0,0-0.1,0c0,0,0,0-0.1,0s0,0-0.1,0c0,0,0,0,0-0.1s0-0.1,0-0.1s0-0.1,0-0.1c0,0,0-0.1,0-0.1c0,0,0,0,0.1,0c0,0,0,0,0.1,0
							s0,0,0.1,0c0,0,0,0,0.1,0c0,0,0,0,0,0.1c0,0,0,0.1,0,0.1S99.8,18,99.8,18z M100.2,18C100.2,18,100.2,18.1,100.2,18
							c0,0.1-0.1,0.1-0.1,0.1c0,0,0,0-0.1,0c0,0,0,0-0.1,0c0,0,0,0-0.1,0c0,0,0,0,0-0.1s0-0.1,0-0.1s0-0.1,0-0.1c0,0,0-0.1,0-0.1
							c0,0,0,0,0.1,0s0,0,0.1,0c0,0,0,0,0.1,0s0,0,0.1,0c0,0,0,0,0,0.1c0,0,0,0.1,0,0.1S100.2,18,100.2,18z M100.3,17.7
							C100.3,17.7,100.3,17.7,100.3,17.7C100.3,17.7,100.3,17.7,100.3,17.7l0.1-0.1h0h0c0,0,0,0,0,0c0,0,0,0,0,0v0v0c0,0,0,0,0,0
							l0,0h0h0C100.3,17.9,100.3,17.9,100.3,17.7C100.3,17.8,100.3,17.8,100.3,17.7C100.3,17.8,100.3,17.8,100.3,17.7z M100.4,18.1
							L100.4,18.1L100.4,18.1l0.3-0.5l0,0l0,0h0.1L100.4,18.1L100.4,18.1z M100.8,18.1C100.8,18.1,100.8,18.1,100.8,18.1L100.8,18.1
							l-0.1,0.1h0c0,0,0,0,0,0c0,0,0,0,0,0v0v0c0,0,0,0,0,0l0,0h0h0c0,0,0,0,0,0C100.7,18,100.7,18,100.8,18.1L100.8,18.1
							C100.8,18,100.8,18,100.8,18.1z"/>
					</g>
					<g>
						<path class="st8" d="M88.6,16.9c0.7,0.9,1.4,1.7,2.1,2.6c0.7-0.9,1.4-1.8,2.1-2.6C91.8,15.9,89.8,15.9,88.6,16.9z"/>
					</g>
					<g>
						<path class="st8" d="M96.6,19.5c0-1.1,0-2.2,0-3.1c-1,1-2.1,2.1-3.1,3.1C94.5,19.5,95.5,19.5,96.6,19.5z"/>
					</g>
				</g>
			</g>
			<g>
				<path class="st8" d="M49.6,18.2c0,0.1,0,0.3-0.1,0.4c0,0.1-0.1,0.2-0.2,0.3c-0.1,0.1-0.2,0.1-0.3,0.2c-0.1,0-0.3,0.1-0.4,0.1
					c-0.1,0-0.3,0-0.4-0.1c-0.1,0-0.2-0.1-0.3-0.2c-0.1-0.1-0.1-0.2-0.2-0.3c0-0.1-0.1-0.3-0.1-0.4c0-0.1,0-0.3,0.1-0.4
					c0-0.1,0.1-0.2,0.2-0.3c0.1-0.1,0.2-0.1,0.3-0.2c0.1,0,0.3-0.1,0.4-0.1c0.1,0,0.2,0,0.3,0c0.1,0,0.2,0.1,0.3,0.1
					s0.1,0.1,0.2,0.1c0.1,0.1,0.1,0.1,0.1,0.2c0,0.1,0.1,0.1,0.1,0.3C49.6,18,49.6,18.1,49.6,18.2z M49.2,18.2c0-0.1,0-0.2,0-0.3
					c0-0.1-0.1-0.1-0.1-0.2c0-0.1-0.1-0.1-0.2-0.1s-0.2,0-0.3,0s-0.2,0-0.3,0s-0.1,0.1-0.2,0.1c-0.1,0.1-0.1,0.1-0.1,0.2
					c0,0.1,0,0.2,0,0.3c0,0.1,0,0.2,0,0.3c0,0.1,0.1,0.1,0.1,0.2c0.1,0.1,0.1,0.1,0.2,0.1c0.1,0,0.2,0,0.3,0s0.2,0,0.3,0
					c0.1,0,0.1-0.1,0.2-0.1c0-0.1,0.1-0.1,0.1-0.2C49.2,18.4,49.2,18.3,49.2,18.2z"/>
				<path class="st8" d="M50.6,17.2c0.1,0,0.3,0,0.3,0c0.1,0,0.2,0.1,0.3,0.1c0.1,0.1,0.1,0.1,0.1,0.2c0,0.1,0,0.1,0,0.3
					c0,0.1,0,0.2,0,0.3c0,0.1-0.1,0.1-0.1,0.2c-0.1,0.1-0.1,0.1-0.3,0.1s-0.2,0-0.3,0h-0.3v0.7H50v-2.1H50.6z M50.6,18.2
					c0.1,0,0.1,0,0.2,0c0,0,0.1,0,0.1-0.1C51,18,51,18,51,18s0-0.1,0-0.1c0,0,0-0.1,0-0.1c0,0,0-0.1-0.1-0.1c0,0-0.1,0-0.1-0.1
					c0,0-0.1,0-0.2,0h-0.3v0.7H50.6z"/>
				<path class="st8" d="M52.1,17.5V18h0.7v0.3h-0.7v0.6H53v0.3h-1.3v-2.1H53v0.3L52.1,17.5L52.1,17.5z"/>
				<path class="st8" d="M54.9,19.2h-0.3c-0.1,0-0.1,0-0.1-0.1L54,18.5c0,0,0,0,0,0c0,0,0,0-0.1,0h-0.1v0.8h-0.4v-2.1H54
					c0.1,0,0.3,0,0.4,0c0.1,0,0.2,0.1,0.3,0.1s0.1,0.1,0.1,0.2c0,0.1,0,0.1,0,0.2c0,0.1,0,0.1,0,0.2c0,0.1,0,0.1-0.1,0.1
					c0,0-0.1,0.1-0.1,0.1c0,0-0.1,0.1-0.2,0.1c0,0,0,0,0.1,0c0,0,0,0,0,0.1L54.9,19.2z M54,18.2c0.1,0,0.1,0,0.2,0
					c0,0,0.1,0,0.1-0.1c0,0,0.1-0.1,0.1-0.1s0-0.1,0-0.1c0-0.1,0-0.2-0.1-0.2s-0.2-0.1-0.3-0.1h-0.3v0.7H54z"/>
				<path class="st8" d="M56.9,19.2h-0.3c0,0-0.1,0-0.1,0c0,0,0,0,0-0.1l-0.1-0.4h-0.9l-0.1,0.4c0,0,0,0,0,0.1c0,0,0,0-0.1,0h-0.3
					l0.8-2.1h0.4L56.9,19.2z M56.2,18.5L56,17.8c0,0,0-0.1,0-0.1s0-0.1,0-0.1c0,0,0,0.1,0,0.1c0,0,0,0.1,0,0.1l-0.3,0.7H56.2z"/>
				<path class="st8" d="M59,18.2c0,0.1,0,0.3-0.1,0.4c0,0.1-0.1,0.2-0.2,0.3c-0.1,0.1-0.2,0.1-0.3,0.2c-0.1,0-0.3,0.1-0.4,0.1h-0.8
					v-2.1h0.8c0.1,0,0.3,0,0.4,0.1c0.1,0,0.2,0.1,0.3,0.2c0.1,0.1,0.1,0.2,0.2,0.3C58.9,17.9,59,18,59,18.2z M58.6,18.2
					c0-0.1,0-0.2,0-0.3c0-0.1-0.1-0.1-0.1-0.2c-0.1-0.1-0.1-0.1-0.2-0.1c-0.1,0-0.2,0-0.3,0h-0.4v1.5H58c0.1,0,0.2,0,0.3,0
					c0.1,0,0.1-0.1,0.2-0.1c0-0.1,0.1-0.1,0.1-0.2C58.6,18.4,58.6,18.3,58.6,18.2z"/>
				<path class="st8" d="M61.3,18.2c0,0.1,0,0.3-0.1,0.4c0,0.1-0.1,0.2-0.2,0.3c-0.1,0.1-0.2,0.1-0.3,0.2c-0.1,0-0.3,0.1-0.4,0.1
					c-0.1,0-0.3,0-0.4-0.1c-0.1,0-0.2-0.1-0.3-0.2c-0.1-0.1-0.1-0.2-0.2-0.3c0-0.1-0.1-0.3-0.1-0.4c0-0.1,0-0.3,0.1-0.4
					c0-0.1,0.1-0.2,0.2-0.3c0.1-0.1,0.2-0.1,0.3-0.2c0.1,0,0.3-0.1,0.4-0.1c0.1,0,0.2,0,0.3,0c0.1,0,0.2,0.1,0.3,0.1
					s0.1,0.1,0.2,0.1c0.1,0.1,0.1,0.1,0.1,0.2c0,0.1,0.1,0.1,0.1,0.3C61.2,18,61.3,18.1,61.3,18.2z M60.9,18.2c0-0.1,0-0.2,0-0.3
					c0-0.1-0.1-0.1-0.1-0.2c0-0.1-0.1-0.1-0.2-0.1s-0.2,0-0.3,0c-0.1,0-0.2,0-0.3,0s-0.1,0.1-0.2,0.1c0,0.1-0.1,0.1-0.1,0.2
					c0,0.1,0,0.2,0,0.3c0,0.1,0,0.2,0,0.3c0,0.1,0.1,0.1,0.1,0.2c0.1,0.1,0.1,0.1,0.2,0.1c0.1,0,0.2,0,0.3,0c0.1,0,0.2,0,0.3,0
					c0.1,0,0.1-0.1,0.2-0.1c0-0.1,0.1-0.1,0.1-0.2C60.9,18.4,60.9,18.3,60.9,18.2z"/>
				<path class="st8" d="M63.2,19.2h-0.3c-0.1,0-0.1,0-0.1-0.1l-0.4-0.7c0,0,0,0,0,0c0,0,0,0-0.1,0H62v0.8h-0.4v-2.1h0.6
					c0.1,0,0.3,0,0.4,0c0.1,0,0.2,0.1,0.3,0.1s0.1,0.1,0.1,0.2c0,0.1,0,0.1,0,0.2c0,0.1,0,0.1,0,0.2C63,18,63,18,63,18
					c0,0-0.1,0.1-0.1,0.1c-0.1,0-0.1,0.1-0.2,0.1c0,0,0,0,0.1,0c0,0,0,0,0.1,0.1L63.2,19.2z M62.2,18.2c0.1,0,0.1,0,0.2,0
					c0,0,0.1,0,0.1-0.1c0,0,0.1-0.1,0.1-0.1s0-0.1,0-0.1c0-0.1,0-0.2-0.1-0.2s-0.2-0.1-0.3-0.1H62v0.7H62.2z"/>
			</g>
			<g>
				<rect x="47.4" y="118.7" class="st5" width="63.4" height="12.8"/>
			</g>
			<g>
				<rect x="48.6" y="62.6" class="st5" width="13.9" height="9.9"/>
			</g>
			<g>
				<rect x="47.8" y="103.3" class="st5" width="63" height="9.9"/>
			</g>
			<g>
				<path class="st6" d="M58.8,127c0,0.1,0,0.3-0.1,0.4c0,0.2-0.1,0.3-0.1,0.4c-0.1,0.2-0.3,0.4-0.7,0.6c-0.4,0.2-0.7,0.3-1.1,0.3
					c-0.1,0-0.2,0-0.3,0c-0.1,0-0.2,0-0.3-0.1c-0.1,0-0.2-0.1-0.3-0.1c-0.1,0-0.2-0.1-0.3-0.1c-0.1-0.1-0.3-0.1-0.3-0.1
					c-0.4-0.1-0.7-0.3-1-0.5c-0.5-0.3-1-0.7-1.6-1.3c-0.6-0.6-1-1.1-1.3-1.6c-0.2-0.3-0.4-0.7-0.5-1c0,0,0-0.1-0.1-0.3
					s-0.1-0.3-0.1-0.3c0-0.1-0.1-0.1-0.1-0.3c0-0.1,0-0.3-0.1-0.3c0-0.1,0-0.2,0-0.3c0-0.4,0.1-0.7,0.3-1.1c0.2-0.4,0.4-0.7,0.6-0.7
					c0.1,0,0.2-0.1,0.4-0.1c0.2,0,0.3-0.1,0.4-0.1c0.1,0,0.1,0,0.1,0c0.1,0,0.2,0.2,0.3,0.4c0,0.1,0.1,0.2,0.2,0.3
					c0.1,0.1,0.1,0.3,0.2,0.4c0.1,0.1,0.1,0.2,0.2,0.3c0,0,0,0.1,0.1,0.1c0.1,0.1,0.1,0.1,0.1,0.2c0,0.1,0,0.1,0,0.2
					s-0.1,0.2-0.2,0.3s-0.2,0.2-0.4,0.3c-0.1,0.1-0.3,0.2-0.4,0.3c-0.1,0.1-0.1,0.2-0.2,0.3c0,0,0,0.1,0,0.1c0,0.1,0,0.1,0,0.1
					c0,0,0,0.1,0.1,0.1c0,0.1,0.1,0.1,0.1,0.1c0.3,0.6,0.6,1,1,1.4c0.4,0.4,0.9,0.7,1.4,1c0,0,0,0,0.1,0.1c0.1,0,0.1,0.1,0.1,0.1
					c0,0,0.1,0,0.1,0c0,0,0.1,0,0.1,0s0.1,0,0.3-0.1c0.1-0.1,0.2-0.2,0.3-0.4c0.1-0.1,0.2-0.3,0.3-0.4c0.1-0.1,0.2-0.1,0.3-0.2
					c0,0,0.1,0,0.1,0c0.1,0,0.1,0.1,0.2,0.1c0.1,0.1,0.1,0.1,0.1,0.1c0.1,0.1,0.2,0.1,0.3,0.2c0.1,0.1,0.2,0.1,0.4,0.2
					c0.1,0.1,0.3,0.1,0.3,0.2c0.3,0.1,0.4,0.2,0.4,0.3C58.8,126.9,58.8,127,58.8,127z"/>
			</g>
			<g>
				<path class="st6" d="M107.1,121.7c0.3,0,0.6,0.1,0.7,0.3s0.3,0.4,0.3,0.7v4.8c0,0.3-0.1,0.5-0.3,0.7c-0.2,0.2-0.4,0.3-0.7,0.3
					h-7.4c-0.3,0-0.6-0.1-0.7-0.3c-0.2-0.2-0.3-0.4-0.3-0.7v-4.8c0-0.3,0.1-0.6,0.3-0.7s0.4-0.3,0.7-0.3H107.1L107.1,121.7z
					 M102.8,126.3l-0.8-0.7l-1.9,1.9h6.7l-1.9-1.9l-0.8,0.7c-0.1,0.1-0.3,0.2-0.6,0.2C103.2,126.4,103,126.4,102.8,126.3z
					 M99.7,127.1l1.9-1.9l-1.9-1.6V127.1z M105.2,125.2l1.9,1.9v-3.6L105.2,125.2z M107.1,122.7h-7.4v0.1l3.5,3
					c0.1,0,0.1,0.1,0.2,0.1c0.1,0,0.2,0,0.2-0.1l3.5-3V122.7z"/>
			</g>
			<g>
				<path class="st6" d="M85.1,122.1c0.1,0.1,0.2,0.2,0.2,0.3v6.9c0,0.1-0.1,0.3-0.2,0.3c-0.1,0-0.1,0.1-0.2,0.1
					c-0.1,0-0.1,0-0.2-0.1l-2.5-1.6l-2.5,1.6c-0.1,0.1-0.3,0.1-0.4,0l-2.6-1.6l-2.5,1.6c-0.1,0.1-0.3,0.1-0.4,0
					c-0.1-0.1-0.2-0.2-0.2-0.3v-6.9c0-0.1,0.1-0.3,0.2-0.3l2.8-1.7c0.1-0.1,0.3-0.1,0.4,0l2.5,1.6l2.6-1.6c0.1-0.1,0.3-0.1,0.4,0
					L85.1,122.1z M76.3,127.5v-6l-2,1.2v6L76.3,127.5z M79,128.7v-6l-2-1.2v6L79,128.7z M81.8,127.5v-6l-2,1.2v6L81.8,127.5z
					 M84.5,128.7v-6l-2-1.2v6L84.5,128.7z"/>
			</g>
			<text transform="matrix(1 0 0 1 69.0864 30.9092)" class="st6 st9 st10">App  :)</text>
			<g class="st11">
				<polyline class="st12" points="59.2,14.9 112.3,15 112.3,132.9 				"/>
			</g>
		</g>
		<g>
			<g>
				<path class="st13" d="M140.7,44.4c0,0-29.4,14.5-26.5-9.6c0,0-17.9,28.2-44.9,7.7c0,0,19.2,21.7-15.3,34.3
					c0,0,34.3-7.1,17.8,33.7c0,0,22.8-34.2,26.1,17c0,0,4.9-37.6,25.5-18.9c0,0,0.6-18.4,14.7-17.8c0,0-9.5-19.3,9.7-18.8
					C147.9,72,124.9,62.2,140.7,44.4z"/>
				<polygon class="st13" points="77.7,128.7 85.7,112.4 75.7,128.5 				"/>
				<polygon class="st13" points="73,128.2 75.1,128.4 83.1,112.1 				"/>
				<polygon class="st13" points="54.2,96 63,91.6 53.5,94.8 				"/>
				<polygon class="st13" points="52.6,93.3 53.3,94.5 62.1,90.1 				"/>
				<polygon class="st13" points="54.7,62 66.1,60.9 54.3,60.2 				"/>
				<polygon class="st13" points="65.5,58.6 53.7,57.9 54.1,59.7 				"/>
				<polygon class="st13" points="84.3,34.1 83.4,35.8 89.7,46.2 				"/>
				<polygon class="st13" points="149.7,53 138,56.9 150.4,54.5 				"/>
				<polygon class="st13" points="142.5,107.3 143.8,105.2 135.3,92.7 				"/>
				<polygon class="st13" points="140.8,110.2 142.1,108 133.6,95.6 				"/>
				<polygon class="st13" points="119.5,123.3 120.7,122.1 115.7,108.7 				"/>
				<polygon class="st13" points="117.9,125.1 119.1,123.8 114.1,110.4 				"/>
				<polygon class="st13" points="133.7,27.6 122.1,38.1 134.8,28.6 				"/>
				<polygon class="st13" points="136.2,29.9 135.1,28.9 123.6,39.4 				"/>
			</g>
			<g>
				<path class="st14" d="M124,106.6c0,0,0.1-18.4,14.2-18.2c0,0-10-19,9.2-19.1c0,0-23.3-9.2-8-27.4c0,0-29,15.3-26.7-8.8
					c0,0-17.1,28.7-44.7,9c0,0,19.9,21.1-14.3,34.8c0,0,34.1-8.1,18.8,33.2c0,0,21.8-34.8,26.6,16.2
					C99.1,126.2,102.8,88.5,124,106.6z"/>
				<path class="st15" d="M123.2,103.1c0,0-0.9-15.6,12.1-15.5c0,0-9.8-18.8,8.1-18.9c0,0-21.1-7.3-6.9-24.1c0,0-26.9,14.2-24.8-8.2
					c0,0-14.8,27.3-40.3,9c0,0,19.4,17.1-12.2,29.8c0,0,29.3-6.6,15.1,31.7c0,0,21-35,25.5,12.2C99.7,119.1,103.6,86.4,123.2,103.1z
					"/>
				<g>
					<polygon class="st16" points="85.7,112.2 75.4,128.1 77.3,128.4 					"/>
					<polygon class="st16" points="83.1,111.8 72.7,127.8 74.7,128 					"/>
				</g>
				<g>
					<polygon class="st16" points="63.1,91.5 53.4,94.3 54.1,95.5 					"/>
					<polygon class="st16" points="62.2,90 52.6,92.8 53.2,94 					"/>
				</g>
				<g>
					<polygon class="st16" points="66.1,60.9 54.3,59.7 54.6,61.5 					"/>
					<polygon class="st16" points="65.6,58.6 53.9,57.4 54.2,59.1 					"/>
				</g>
				<g>
					<polygon class="st16" points="89.6,46.1 85.1,33.7 84,35.3 					"/>
				</g>
				<g>
					<polygon class="st16" points="138.2,56.9 150.2,53 149.4,51.6 					"/>
				</g>
				<g>
					<polygon class="st16" points="134.9,92.2 144.1,105.7 145.1,103.3 					"/>
					<polygon class="st16" points="133.6,95.3 142.8,108.7 143.8,106.4 					"/>
				</g>
				<g>
					<polygon class="st16" points="115.5,108.4 120.5,122.7 121.6,121.4 					"/>
					<polygon class="st16" points="114.1,110.3 119.1,124.5 120.2,123.2 					"/>
				</g>
				<g>
					<polygon class="st16" points="122.2,37.9 134.1,27.6 133,26.7 					"/>
					<polygon class="st16" points="123.8,39.1 135.7,28.8 134.5,27.9 					"/>
				</g>
			</g>
		</g>
		<g>
			<path class="st17" d="M102.8,77c1.4,0,2.8,0.2,4.1,0.6c0.6-5,3.2-35,3.2-35H95.6c0,0,2.5,30,3.2,35C100.1,77.2,101.4,77,102.8,77
				z"/>
			<circle class="st17" cx="102.8" cy="89.2" r="8.1"/>
		</g>
	</g>
</g>
</svg>
