<?xml version="1.0" encoding="utf-8"?>
<!-- Generator: Adobe Illustrator 21.1.0, SVG Export Plug-In . SVG Version: 6.00 Build 0)  -->
<svg version="1.1" id="Capa_1" xmlns="http://www.w3.org/2000/svg" xmlns:xlink="http://www.w3.org/1999/xlink" x="0px" y="0px"
	 viewBox="0 0 155 155" style="enable-background:new 0 0 155 155;" xml:space="preserve">
<style type="text/css">
	.st0{fill:#EBECF0;}
	.st1{opacity:0.5;}
	.st2{fill:#00C86B;}
	.st3{fill:#00FFFF;}
	.st4{clip-path:url(#SVGID_2_);}
	.st5{fill-rule:evenodd;clip-rule:evenodd;fill:#FFFFFF;}
	.st6{fill-rule:evenodd;clip-rule:evenodd;fill:#F3F2EF;}
	.st7{fill-rule:evenodd;clip-rule:evenodd;fill:#6B9F5C;}
	.st8{fill-rule:evenodd;clip-rule:evenodd;fill:#55904B;}
	.st9{fill-rule:evenodd;clip-rule:evenodd;fill:#181818;}
	.st10{fill-rule:evenodd;clip-rule:evenodd;fill:#E9DFDE;}
	.st11{fill-rule:evenodd;clip-rule:evenodd;fill:#93402E;}
	.st12{fill-rule:evenodd;clip-rule:evenodd;fill:#939482;}
	.st13{fill-rule:evenodd;clip-rule:evenodd;fill:#AAAF9B;}
	.st14{fill-rule:evenodd;clip-rule:evenodd;fill:#B3BA9E;}
	.st15{fill-rule:evenodd;clip-rule:evenodd;fill:#817C79;}
	.st16{fill-rule:evenodd;clip-rule:evenodd;fill:#DEEAF2;}
</style>
<circle class="st0" cx="77.5" cy="77.5" r="71.5"/>
<g class="st1">
	<path class="st2" d="M131.8,77c0,29.2-23.3,54-54,54.1c-30.4,0.1-53.9-24.4-54.2-53.7c-0.2-29.8,23.9-54.5,53.9-54.5
		C107.5,22.8,131.7,47,131.8,77z M60.4,35.7c-1,0.3-1.9,0.7-2.9,1c-7.7,3.5-13.5,9.2-18.2,16.4c2.4,2.3,4.8,4.6,7.1,6.9
		c-0.2,0.2-0.3,0.4-0.5,0.5c-0.5-0.1-1-0.3-1.6-0.5c0.1,0.7,0.2,1.1,0.3,1.6c0,0.4,0.1,0.9,0,1.3c-1,5.5,0.7,9.9,5.3,13.1
		c0.6,0.4,1,1.1,1.4,1.7c1.7,3,3.3,6.1,5,9.2c0.3-0.1,0.5-0.3,0.8-0.4c-1.2-2.6-2.5-5.1-4-8.2c1,0.5,1.4,0.5,1.6,0.8
		c1.2,1.7,2.4,3.4,3.4,5.2c1.4,2.6,4.3,4.2,4.4,7.6c0,0.6,0.9,1.5,1.5,1.8c2.4,1,4.2,2.8,7.2,2.9c2.3,0.1,4.6,2,6.8,3
		c0.2,0.1,0.5,0,0.7,0.1c0.3,0.1,0.5,0.3,0.7,0.5c1.7,1.8,3.3,3.6,5,5.3c0.4,0.4,1.3,0.9,1.4,0.7c0.5-0.4,0.7-1.1,0.8-1.3
		c-1.2-0.7-2.3-1-3-1.8c-0.8-0.8-1.4-2,0-3.1c0.1-0.1-0.1-0.7-0.2-1c-0.6-2.5-1.6-3-5.5-2.5c0.5-1.6,1-3,1.4-4.4
		c0.1-0.5,0.2-1.5,0-1.6c-0.6-0.2-1.4-0.4-1.9-0.1c-0.6,0.3-0.8,1.2-1.4,1.7c-0.8,0.6-1.6,1.5-2.5,1.6c-1.9,0.2-3.5-1.3-3.8-3.7
		c-0.2-1.5,0-3,0.1-4.5c0.1-3.5,2.1-5.2,5.6-4.6c0.5,0.1,1.1-0.1,1.5-0.4c2.2-1.3,6.2,0.2,7.1,2.6c0.3,0.9,0.9,1.7,1.4,2.6
		c0.3-0.1,0.5-0.2,0.8-0.3c-0.1-1.5,0.2-3.3-0.4-4.6c-1.2-2.7-1.4-2.7,1.3-4.2c1.8-1,3.2-2.2,2.3-4.7c-0.2-0.5,0.7-1.5,1.3-2
		c1.4-1.1,3.6-1.7,4.1-3.1c0.9-2.4,3-2.5,4.5-3.7c0.5-0.4,1.1-0.6,1.2-0.7c0-1.5,0-2.5,0-4c-1.4,0.4-2.9,0.8-4.2,1.1
		c1.6-2.1,5.5-2.9,8.6-1.9c1.1-0.6,2-1.2,3-1.7c1.2-0.7,1.8-1.1,0.3-2.4c-1.9-1.8-5.2-2.1-5.9-5.2c-0.2-0.7-0.9-1.3-1.3-1.8
		c-1,0.5-1.7,1.2-2.5,1.3c-0.7,0.1-2-0.2-2.3-0.8c-1.5-2.9-4.7-4.3-7.8-3.4c-0.1,1.5-0.2,2.9-0.3,4.7c0.3,0.7,2.6,1.5,0.6,2.8
		c-1.9,1.2-1.9,2.5-0.9,4c-1.5,1.5-2.5,1-3.2-0.6c-0.5-1-0.8-2.4-1.7-2.8c-2.3-1-4.7-1.7-7.2-2.3c-1.6-0.4-3-1.8-2.6-3.4
		c0.5-2,1.2-3.8,3.7-4.2c1-0.2,2-1,2.6-1.9c0.9-1.2,1.5-1.9,3.1-1.2c0.4,0.2,1.6-0.3,1.6-0.4c-0.2-1.1-0.5-2.2-0.7-3.3
		c-0.7,0.3-1.4,0.4-2,0.9c-0.7,0.6-1.2,1.4-1.9,2.2c-1.2-1-1.5-2.9-3.4-2.3c-0.4,0.1-1-1.2-1.7-1.6c-0.9-0.6-1.9-1-2.9-1.4
		c-0.3-0.1-0.8,0.5-1.2,0.8c0.3,0.4,0.5,0.9,0.9,1.1c0.6,0.4,1.3,0.7,1.9,1c-0.9,1-1.5,1.7-2.2,2.5c-0.7-2.1-2.6-0.9-4.1-1.1
		c-0.9-0.1-2.4-0.3-2.6-0.9C63.2,33.8,62.4,33.6,60.4,35.7z M85.3,121.6c10.1-1.8,18.1-6.2,24.6-13c-1.4-1.2-2.6-2.3-4-3.2
		c-1.2-0.8-2.8-2.3-3.8-2c-2.2,0.5-3.5-0.6-5.2-1.3c-2-0.8-4-1.3-5.8,0.5c-1,0.9-2.1,1.8-3.3,2.8c0,0.1,0.1,0.6,0.1,1
		c0.5,2.9,1,5.8-1.9,8c-0.5,0.4-0.5,1.5-0.6,2.3c-0.1,0.9,0,1.7,0,2.6C85.6,119.9,85.4,120.5,85.3,121.6z"/>
	<path class="st3" d="M60.4,35.7c2.1-2.1,2.8-1.9,4,0.8c0.3,0.6,1.7,0.7,2.6,0.9c1.5,0.2,3.4-1,4.1,1.1c0.6-0.7,1.3-1.5,2.2-2.5
		c-0.6-0.3-1.3-0.6-1.9-1c-0.4-0.3-0.6-0.8-0.9-1.1c0.4-0.3,0.9-0.9,1.2-0.8c1,0.3,2,0.8,2.9,1.4c0.7,0.4,1.3,1.7,1.7,1.6
		c2-0.6,2.2,1.3,3.4,2.3c0.6-0.8,1.1-1.6,1.9-2.2c0.5-0.4,1.3-0.6,2-0.9c0.3,1.1,0.6,2.2,0.7,3.3c0,0.1-1.2,0.6-1.6,0.4
		c-1.6-0.8-2.3-0.1-3.1,1.2c-0.6,0.8-1.6,1.7-2.6,1.9c-2.5,0.5-3.2,2.2-3.7,4.2c-0.4,1.6,1,3.1,2.6,3.4c2.4,0.6,4.9,1.2,7.2,2.3
		c0.8,0.4,1.2,1.8,1.7,2.8c0.8,1.5,1.7,2.1,3.2,0.6c-1-1.6-1-2.8,0.9-4c2.1-1.3-0.2-2.1-0.6-2.8c0.1-1.8,0.2-3.2,0.3-4.7
		c3.1-0.9,6.3,0.5,7.8,3.4c0.3,0.5,1.5,0.9,2.3,0.8c0.8-0.1,1.5-0.8,2.5-1.3c0.4,0.5,1.1,1.1,1.3,1.8c0.7,3.2,4,3.5,5.9,5.2
		c1.5,1.3,0.8,1.8-0.3,2.4c-1,0.5-1.9,1.1-3,1.7c-3.2-1-7.1-0.2-8.6,1.9c1.3-0.4,2.8-0.8,4.2-1.1c0,1.5,0,2.5,0,4
		c-0.1,0-0.7,0.3-1.2,0.7c-1.5,1.2-3.7,1.2-4.5,3.7c-0.5,1.3-2.8,2-4.1,3.1c-0.6,0.5-1.5,1.6-1.3,2c0.9,2.5-0.5,3.8-2.3,4.7
		c-2.7,1.5-2.6,1.5-1.3,4.2c0.6,1.3,0.3,3.1,0.4,4.6c-0.3,0.1-0.5,0.2-0.8,0.3c-0.5-0.9-1-1.7-1.4-2.6c-0.9-2.4-4.9-3.9-7.1-2.6
		c-0.4,0.3-1,0.5-1.5,0.4c-3.4-0.6-5.5,1-5.6,4.6c0,1.5-0.3,3-0.1,4.5c0.4,2.4,1.9,3.9,3.8,3.7c0.9-0.1,1.8-1,2.5-1.6
		c0.5-0.5,0.8-1.3,1.4-1.7c0.5-0.3,1.3-0.1,1.9,0.1c0.2,0.1,0.1,1.1,0,1.6c-0.4,1.4-0.9,2.8-1.4,4.4c3.8-0.5,4.9,0.1,5.5,2.5
		c0.1,0.4,0.3,1,0.2,1c-1.4,1-0.8,2.2,0,3.1c0.7,0.7,1.8,1.1,3,1.8c-0.1,0.2-0.3,0.9-0.8,1.3c-0.2,0.1-1.1-0.3-1.4-0.7
		c-1.7-1.7-3.4-3.5-5-5.3c-0.2-0.2-0.4-0.4-0.7-0.5c-0.2-0.1-0.5,0-0.7-0.1c-2.3-1.1-4.5-2.9-6.8-3c-3-0.1-4.8-2-7.2-2.9
		c-0.7-0.3-1.5-1.2-1.5-1.8c-0.1-3.4-3-5.1-4.4-7.6c-1-1.8-2.2-3.5-3.4-5.2c-0.2-0.3-0.6-0.3-1.6-0.8c1.5,3.1,2.8,5.7,4,8.2
		c-0.3,0.1-0.5,0.3-0.8,0.4c-1.7-3.1-3.3-6.1-5-9.2c-0.4-0.6-0.8-1.3-1.4-1.7c-4.6-3.3-6.3-7.6-5.3-13.1c0.1-0.4,0.1-0.9,0-1.3
		c0-0.4-0.1-0.9-0.3-1.6c0.7,0.2,1.2,0.3,1.6,0.5c0.2-0.2,0.3-0.4,0.5-0.5c-2.4-2.3-4.7-4.5-7.1-6.9c4.7-7.2,10.5-12.9,18.2-16.4
		c1.3-0.3,1.8-1,2.2-0.7c1.4-0.7-0.6,0.4,0.5-0.2C60.2,35.6,60.3,35.8,60.4,35.7C59.5,35.6,61.3,35.8,60.4,35.7z"/>
	<path class="st3" d="M85.3,121.6c0.2-1,0.3-1.7,0.3-2.3c0.1-0.9,0-1.7,0-2.6c0.1-0.8,0.1-1.9,0.6-2.3c2.8-2.2,2.3-5.1,1.9-8
		c-0.1-0.4-0.1-0.9-0.1-1c1.2-1,2.3-1.8,3.3-2.8c1.8-1.8,3.8-1.3,5.8-0.5c1.6,0.7,3,1.8,5.2,1.3c1-0.3,2.6,1.2,3.8,2
		c1.3,0.9,2.5,2,4,3.2C103.4,115.4,95.3,119.8,85.3,121.6z"/>
</g>
<g>
	<defs>
		<circle id="SVGID_1_" cx="76.7" cy="77" r="71.5"/>
	</defs>
	<clipPath id="SVGID_2_">
		<use xlink:href="#SVGID_1_"  style="overflow:visible;"/>
	</clipPath>
	<g class="st4">
		<circle class="st5" cx="62.7" cy="96.3" r="7.9"/>
		<circle class="st5" cx="62.4" cy="109.9" r="11.4"/>
		<circle class="st5" cx="48.2" cy="116.1" r="11.4"/>
		<circle class="st5" cx="40.1" cy="143.5" r="22.2"/>
		<circle class="st5" cx="49.8" cy="89.4" r="3.8"/>
		<circle class="st5" cx="65.8" cy="122.7" r="2.8"/>
		<circle class="st5" cx="58.3" cy="158.7" r="7.6"/>
		<circle class="st5" cx="70.6" cy="148.2" r="2.8"/>
		<g>
			<path class="st6" d="M80.4,89.3c-0.2,0.1-0.4,0.2-0.6,0.4c-0.5,0.3-1,0.6-1.5,0.9c0,0-0.1,0.1-0.2,0.1c-0.1,0-0.1,0-0.2,0
				c-0.1-0.1-0.1-0.1-0.2-0.2c-0.3-0.3-0.5-0.6-0.8-0.9c0,0-0.1-0.1-0.1-0.1c-0.6-0.5-1.1-1.1-1.7-1.6c-0.1-0.1-0.2-0.2-0.3-0.3
				c0-0.1-0.1-0.2-0.2-0.2c-0.1,0,0,0.1,0,0c0,0,0,0,0,0c0.1,0,0.2,0.1,0.2,0.2c-0.2,0.1-0.3,0-0.4-0.1c0,0-0.1,0-0.1-0.1
				c-0.1-0.1-0.2-0.2-0.3-0.3c0,0-0.1,0-0.1-0.1c-0.1-0.1-0.1-0.2-0.2-0.2c0,0,0-0.1,0-0.1c0,0,0,0,0,0c0,0,0,0,0,0
				c0.1-0.2,0.2-0.5,0.4-0.7c0.7-1.1,1.5-2.1,2.3-3.2c0.7-1,1.4-2.1,2-3.2c0.4-0.7,0.8-1.3,1.1-2c1.8-3.4,3.5-7,4.2-10.8
				c0.1-0.3,0.2-0.7,0.1-1.1c-0.1,0-0.3,0.1-0.3-0.2c0.6-0.6,1-1.3,1.4-2c0.7-1.2,1.6-2.3,2.3-3.5c0.1-0.1,0.1-0.2,0.2-0.3
				c0.2-0.1,0.3,0,0.5,0.1c1.1,0.6,2.2,1,3.4,1.2c2.7,0.3,5.1-0.4,7.1-2.2c2.2-2,3.1-4.5,2.7-7.5c-0.3-2.3-1.4-4.2-3.1-5.6
				c-0.1-0.1-0.2-0.1-0.3-0.2c-0.2-0.2-0.4-0.3-0.6-0.4c-0.3-0.1-0.7-0.3-0.9-0.7c0.2-0.2,0.4,0,0.5,0.1c0.5,0.2,0.5,0.2,0.8-0.2
				c1.1-1.6,2.2-3.2,3.2-4.8c0.2-0.4,0.5-0.8,0.9-1c0.2,0,0.4,0.1,0.5,0.2c1.3,0.8,2.5,1.7,3.7,2.5c0.9,0.6,1.8,1.3,2.7,1.9
				c0.8,0.6,1.6,1.2,2.4,1.8c0.1,0.1,0.2,0.2,0.2,0.3c0,0.1,0,0.1,0,0.2c-0.1,0.4-0.2,0.8-0.3,1.2c-0.2,0.6-0.3,1.2-0.5,1.8
				c-0.3,0.8-0.5,1.6-0.8,2.5c-0.3,1-0.7,2-1.1,2.9c-0.3,0.7-0.6,1.4-0.9,2.1c-0.4,0.9-0.8,1.8-1.2,2.6c-0.1,0.3-0.3,0.6-0.4,0.9
				c-0.2,0.4-0.4,0.8-0.7,1.3c-0.4,0.8-0.9,1.7-1.4,2.5c-0.2,0.4-0.4,0.7-0.6,1.1c-0.1,0.2-0.2,0.4-0.4,0.6
				c-0.2,0.4-0.5,0.9-0.8,1.3c-0.3,0.5-0.7,1.1-1,1.6c-0.5,0.7-0.9,1.4-1.4,2.1c-0.2,0.2-0.3,0.5-0.5,0.7c-0.4,0.5-0.8,1.1-1.2,1.6
				c-0.4,0.5-0.8,1-1.2,1.6c-0.4,0.6-0.9,1.2-1.4,1.7c-0.3,0.3-0.5,0.7-0.8,1c-0.2,0.2-0.4,0.5-0.6,0.7c-0.3,0.3-0.5,0.6-0.8,0.9
				c-0.2,0.2-0.4,0.4-0.5,0.6c0,0.2-0.1,0.3-0.2,0.4c-3.6,3.8-7.5,7.2-11.8,10.1C80.8,89.2,80.6,89.3,80.4,89.3z"/>
			<path class="st5" d="M87.8,59.7c-0.3,0.4-0.5,0.8-0.8,1.3c-0.1,0.1-0.2,0.2-0.3,0.3c-0.1,0.1-0.2,0.2-0.2,0.3
				c-0.6,0.9-1.2,1.9-1.8,2.8c-0.1,0.2-0.2,0.4-0.4,0.5c0,0-0.1,0.1-0.1,0.1c-0.1,0.1-0.1,0.2-0.3,0.3c-0.1,0-0.1,0.1-0.2,0.1
				c0,0-0.1,0.1-0.1,0.1c0,0.2-0.2,0.3-0.3,0.3c-2.7,1.7-4.9,3.9-7,6.3c-1.2,1.4-2.3,2.8-3.4,4.3c-0.8,1-1.5,2.1-2.2,3.2
				c-0.6,0.9-1.2,1.9-1.7,2.8c-0.1,0.2-0.2,0.3-0.3,0.4c-0.1,0.1-0.2,0.2-0.3,0.2c-0.7-0.3-1.4-0.6-2-0.9c-0.4-0.2-0.9-0.4-1.3-0.5
				c-0.1-0.1-0.3-0.1-0.3-0.2c0-0.1-0.1-0.1-0.2-0.2c-0.4-0.1-0.7-0.2-1.1-0.4c-0.1,0-0.2-0.1-0.3-0.1c-0.1,0-0.1-0.1-0.1-0.1
				c0.1-0.4,0.1-0.8,0.2-1.1c0.1-0.5,0.2-1,0.2-1.5c-0.1-0.3,0-0.5,0.1-0.8c0.4-2.1,0.9-4.1,1.5-6.1c0.9-2.9,1.9-5.7,3.1-8.4
				c0.1-0.1,0.1-0.3,0.3-0.4c0.3-0.6,0.6-1.2,0.9-1.9c0.1-0.3,0.3-0.5,0.4-0.8c0.4-0.7,0.7-1.4,1.1-2.1c0,0,0,0,0,0
				c0.5-0.9,1-1.9,1.6-2.8c0.3-0.5,0.6-0.9,0.8-1.4c0.3-0.4,0.5-0.8,0.8-1.2c0.3-0.5,0.6-1,0.9-1.4c0.2-0.3,0.5-0.7,0.7-1
				c0.4-0.5,0.7-1,1.1-1.5c0.3-0.4,0.7-0.9,1-1.3c0.3-0.4,0.6-0.7,0.8-1.1c0.4-0.4,0.7-0.9,1.1-1.3c0,0,0.1-0.1,0.1-0.1
				c0.2-0.3,0.5-0.6,0.7-0.8c0.1-0.1,0.2-0.3,0.3-0.4c0.2-0.2,0.4-0.4,0.5-0.6c0,0,0,0,0-0.1c0.3-0.3,0.5-0.6,0.8-0.9
				c0.1-0.1,0.2-0.3,0.3-0.4c0.5-0.5,1-1.1,1.6-1.6c0.2-0.2,0.4-0.5,0.7-0.7c0.1-0.1,0.2-0.2,0.3-0.3c0.1-0.1,0.1-0.1,0.2-0.2
				c0.2-0.2,0.3-0.3,0.5-0.5c0.2-0.2,0.4-0.4,0.6-0.6c0.4-0.4,0.8-0.7,1.2-1.1c0.5-0.5,1.1-1,1.6-1.4c0.3-0.3,0.6-0.5,1-0.8
				c0.6-0.5,1.2-1,1.8-1.4c0.1-0.1,0.1-0.1,0.2-0.1c0.3,0.1,0.6,0.2,0.9,0.4c1.2,0.8,2.5,1.4,3.7,2.3c0.7,0.5,1.4,0.9,2,1.3
				c1,0.7,2,1.3,3,1.9c0,0,0.1,0.1,0.1,0.1c-0.1,0.1-0.2,0.2-0.3,0.4c-0.1,0.1-0.2,0.2-0.3,0.3c-0.1,0.1-0.2,0.2-0.2,0.3
				c-0.6,0.9-1.2,1.9-1.8,2.8c-0.1,0.2-0.2,0.3-0.4,0.5c-0.1,0.1-0.2,0.2-0.3,0.3c-0.3,0.5-0.6,0.9-0.9,1.4
				c-0.1,0.1-0.1,0.2-0.2,0.2c0,0-0.1,0-0.1,0c-0.2-0.1-0.4-0.1-0.6-0.2c-0.1-0.1-0.2-0.1-0.4-0.2c0,0-0.1,0-0.1,0
				c-0.1,0.1-0.3,0-0.4,0c-1.6-0.6-3.2-0.8-4.8-0.5c-1.5,0.3-2.9,0.9-4.1,1.9c-1.8,1.5-2.8,3.4-3.1,5.7c-0.3,2.4,0.4,4.6,2,6.5
				c0.4,0.5,0.9,1,1.5,1.4c0.1,0.1,0.2,0.1,0.2,0.2C87.8,59.6,87.8,59.6,87.8,59.7z"/>
			<path class="st7" d="M68.5,62.3c0,0.1-0.1,0.2-0.1,0.3c-0.2,0.6-0.5,1.1-0.7,1.7c-0.3,0.8-0.7,1.6-1,2.5
				c-0.6,1.6-1.2,3.3-1.6,4.9c-0.6,2-1.1,3.9-1.4,5.9c0,0.1-0.1,0.2-0.1,0.4c-0.6-0.1-1.2-0.2-1.7-0.3c-0.1,0-0.2,0-0.4,0
				c-0.4,0-0.8-0.1-1.2-0.1c-0.2-0.1-0.5,0-0.7,0c-0.2,0-0.3,0-0.4,0c-0.3,0-0.7,0-1,0c-0.1,0-0.2,0-0.3,0c-0.3,0-0.5,0-0.7,0.1
				c0,0-0.1,0-0.1,0c-0.5,0-1,0.1-1.5,0.2c-0.9,0.1-1.8,0.3-2.6,0.5c-0.6,0.1-1.1,0.3-1.7,0.5c-0.6,0.2-1.2,0.4-1.8,0.7
				c-0.4,0.2-0.8,0.4-1.2,0.6c-0.2,0.1-0.4,0.2-0.6,0.3c-0.9,0.5-1.8,1-2.6,1.6c-0.1,0-0.1,0.1-0.2,0.1c0,0,0,0-0.1,0c0,0,0,0,0,0
				c0,0,0-0.1,0-0.1c0.2-0.8,0.4-1.6,0.7-2.4c0.3-0.8,0.5-1.6,0.9-2.3c0.1-0.2,0.2-0.3,0.2-0.5c0.2-0.4,0.4-0.8,0.6-1.2
				c0.5-0.9,1-1.7,1.6-2.5c0.3-0.4,0.6-0.9,1-1.3c0.2-0.3,0.4-0.5,0.6-0.8c0.3-0.4,0.6-0.7,0.9-1c0.7-0.7,1.4-1.4,2.1-2
				c0.8-0.6,1.5-1.2,2.4-1.7c0.4-0.2,0.7-0.5,1.1-0.7c0.3-0.2,0.5-0.3,0.8-0.4c0.9-0.4,1.7-0.8,2.6-1.2c1.2-0.5,2.3-0.8,3.6-1.1
				c0.6-0.1,1.2-0.2,1.8-0.3c0.4-0.1,0.9-0.1,1.3-0.2c0.5-0.1,1.1-0.1,1.6-0.1C68.5,62.3,68.5,62.3,68.5,62.3z"/>
			<path class="st8" d="M80.4,89.3c0.1-0.1,0.2-0.2,0.3-0.2c1.2-0.8,2.3-1.6,3.4-2.4c1.6-1.2,3.1-2.5,4.6-3.9
				c0.6-0.6,1.2-1.2,1.9-1.8c0.8-0.8,1.5-1.5,2.2-2.3c0,0,0.1,0,0.1-0.1c0.1,0.1,0.1,0.1,0.1,0.2c0.3,0.9,0.6,1.9,0.9,2.8
				c0.2,0.9,0.4,1.7,0.5,2.6c0.1,0.4,0.1,0.7,0.1,1.1c0.1,0.4,0.1,0.8,0.1,1.2c0,0.4,0,0.8,0,1.2c0,0.3,0,0.6,0,0.9
				c0,0.4,0,0.8-0.1,1.2c-0.1,0.6-0.1,1.1-0.2,1.7c-0.1,0.9-0.3,1.7-0.5,2.6c-0.3,1-0.6,2.1-1,3.1c-0.2,0.6-0.5,1.2-0.8,1.7
				c-0.5,1-1,1.9-1.6,2.8c-0.3,0.5-0.7,1-1,1.4c-0.2,0.3-0.4,0.5-0.6,0.8c-0.2,0.2-0.3,0.4-0.5,0.6c-0.1,0.1-0.3,0.3-0.4,0.4
				c-0.2,0.2-0.4,0.4-0.6,0.6c-0.3,0.3-0.7,0.7-1.1,1c-0.6,0.5-1.2,1-1.9,1.5c-0.1,0.1-0.3,0.2-0.4,0.3c0,0-0.1,0-0.1,0
				c0,0,0,0,0-0.1c0,0,0-0.1,0-0.1c0.2-0.8,0.3-1.5,0.4-2.3c0.1-0.5,0.1-1,0.1-1.6c0-0.3,0-0.5,0-0.8c0-0.5,0-1,0-1.5
				c0-0.1,0-0.3,0-0.4c0,0,0-0.1,0-0.1c0-0.4-0.1-0.8-0.1-1.3c-0.1-0.7-0.2-1.3-0.3-2c-0.2-1-0.4-2-0.7-2.9
				c-0.2-0.7-0.5-1.4-0.8-2.1c-0.2-0.5-0.5-1-0.7-1.5c-0.2-0.3-0.3-0.7-0.6-1C80.9,90.2,80.7,89.7,80.4,89.3z"/>
			<path class="st8" d="M111.4,45.2c0,0-0.1,0-0.1-0.1c-0.1-0.1-0.2-0.2-0.3-0.2c-0.5-0.4-1.1-0.8-1.6-1.2c-0.7-0.5-1.4-1-2-1.5
				c-0.9-0.6-1.8-1.3-2.7-1.9c-0.8-0.6-1.7-1.2-2.6-1.7c-0.1,0-0.1-0.1-0.2-0.1v0c0,0,0-0.1,0-0.1c0.2-0.6,0.6-1.1,1-1.6
				c0.2-0.2,0.4-0.5,0.5-0.7c1.1-1.9,2.4-3.6,3.6-5.4c1-1.6,2.1-3.2,3.1-4.8c0.4-0.6,0.9-1.2,1.3-1.9c0.1-0.1,0.2-0.3,0.4-0.3
				c0.1,0,0.2,0,0.2,0.1c0,0,0,0.1,0,0.1c0.3,1,0.5,1.9,0.6,2.9c0.1,0.8,0.2,1.6,0.3,2.4c0.1,1.2,0.2,2.5,0.2,3.7
				c0,0.9,0,1.9-0.1,2.8c-0.1,1-0.2,2-0.3,3c-0.3,2.2-0.7,4.3-1.2,6.5C111.4,45.1,111.4,45.1,111.4,45.2z"/>
			<path class="st7" d="M111.8,23.6c-0.3,0.5-0.7,1.1-1,1.6c-0.1,0.1-0.2,0.3-0.3,0.4c-0.1,0.1-0.1,0.2-0.2,0.3c-0.7,1-1.3,2-2,3
				c-0.1,0.1-0.2,0.3-0.3,0.4c-0.1,0.1-0.2,0.3-0.3,0.4c-0.6,0.9-1.2,1.8-1.8,2.7c-0.1,0.2-0.3,0.3-0.3,0.5c0,0,0,0,0,0.1
				c-0.2,0.1-0.3,0.3-0.4,0.5c-0.5,0.8-1,1.6-1.6,2.4c-0.1,0.1-0.2,0.3-0.3,0.4c0,0.1-0.1,0.1-0.1,0.2c-0.1,0.1-0.1,0.2-0.2,0.2
				c-0.1,0.1-0.2,0.2-0.2,0.3c-0.2,0.3-0.4,0.7-0.7,1c-0.1,0.1-0.2,0.2-0.3,0.4c-0.1,0-0.2-0.1-0.4-0.2c-1.5-0.9-3-1.9-4.5-2.8
				c-0.1-0.1-0.2-0.2-0.4-0.2c-0.1,0-0.1-0.1-0.2-0.2c-0.6-0.4-1.2-0.7-1.8-1.1c-0.7-0.4-1.4-0.8-2.1-1.2c-0.1-0.1-0.2-0.1-0.4-0.2
				c0,0-0.1-0.1-0.1-0.1c0.6-0.4,1.2-0.9,1.8-1.3c1.3-0.9,2.6-1.7,3.9-2.5c1.3-0.7,2.6-1.4,4-2.1c1.5-0.7,3-1.3,4.5-1.8
				c1.3-0.4,2.7-0.8,4.1-1c0.3-0.1,0.7-0.1,1-0.2C111.6,23.6,111.7,23.6,111.8,23.6z"/>
			<path class="st8" d="M84,65.4c0,0,0.1-0.1,0.1-0.1c0,0,0.1,0,0.1,0.1c0,0.7-0.1,1.3-0.3,2c-0.2,1.1-0.6,2.2-0.9,3.2
				c-0.3,0.8-0.6,1.7-1,2.5c-0.2,0.6-0.5,1.1-0.8,1.7c-0.3,0.7-0.7,1.4-1.1,2.1c-0.4,0.8-0.9,1.6-1.3,2.4c-0.6,1.1-1.3,2.2-2,3.2
				c-0.4,0.6-0.9,1.3-1.3,1.9c-0.3,0.4-0.6,0.9-1,1.3c-0.1,0.1-0.1,0.2-0.2,0.3c-0.2,0.2-0.3,0.5-0.5,0.6v0c0,0,0,0,0,0c0,0,0,0,0,0
				v0c0,0,0,0.1,0,0.1c-0.6,0.7-1.1,1.4-1.7,2.1c-0.1,0.1-0.2,0.2-0.3,0.2c-0.5,0.6-1,1.1-1.5,1.6c-0.1,0.1-0.2,0.3-0.4,0.4
				c-0.1,0-0.1,0.1-0.2,0.2c-0.9,0.9-1.9,1.8-2.9,2.6c-0.7,0.5-1.4,1-2.2,1.4c-0.1,0-0.1,0.1-0.2,0.1c0,0-0.1,0-0.1-0.1
				c0,0,0-0.1,0-0.1c0.1-0.4,0.3-0.7,0.5-1c1.2-1.9,2.4-3.7,3.6-5.5c1.6-2.5,3.3-5,5-7.5c0.8-1.2,1.6-2.5,2.4-3.6
				c0.8-1.2,1.6-2.4,2.4-3.6c0.8-1.2,1.5-2.4,2.4-3.5c1-1.4,1.9-2.9,2.9-4.3C83.6,65.8,83.8,65.6,84,65.4z"/>
			<path class="st7" d="M84,65.4c-0.1,0.2-0.2,0.4-0.4,0.6c-0.2,0.3-0.4,0.5-0.6,0.8c-0.6,0.9-1.2,1.9-1.8,2.8
				c-0.1,0.2-0.2,0.3-0.3,0.4c-0.1,0.1-0.1,0.2-0.2,0.3c-0.6,0.9-1.2,1.8-1.7,2.7c-0.1,0.1-0.2,0.3-0.3,0.4
				c-0.1,0.1-0.2,0.3-0.3,0.4c-0.6,1-1.3,2-1.9,3c-0.1,0.1-0.2,0.3-0.3,0.4c-0.1,0.1-0.2,0.2-0.2,0.3c-0.6,0.9-1.2,1.8-1.8,2.7
				c-0.1,0.2-0.2,0.3-0.4,0.5c-0.1,0.1-0.1,0.2-0.2,0.3c-0.7,1-1.3,2-2,3c-0.1,0.1-0.1,0.3-0.3,0.4c0,0,0,0-0.1,0.1
				c-0.1,0.3-0.3,0.4-0.4,0.7c-0.1,0.2-0.3,0.4-0.4,0.7C70,86.5,69.5,87.3,69,88c-0.1,0.1-0.2,0.3-0.3,0.4c-0.1,0.1-0.1,0.2-0.2,0.3
				c-0.6,0.9-1.1,1.8-1.7,2.7c-0.2,0.3-0.3,0.5-0.5,0.7c-0.1,0.1-0.2,0.2-0.2,0.3c-0.5,0.8-1.1,1.7-1.6,2.5
				c-0.1,0.1-0.1,0.2-0.2,0.3c0-0.8,0.2-1.5,0.3-2.3c0.1-0.5,0.2-0.9,0.4-1.4c0.1-0.4,0.3-0.8,0.4-1.2c0-0.1,0.1-0.3,0.1-0.4
				c0.2-0.6,0.5-1.2,0.7-1.9c0.3-0.7,0.6-1.4,0.9-2.1c0-0.1,0-0.2,0-0.2c0-0.1,0.1-0.1,0.1-0.2c0.2-0.5,0.4-0.9,0.7-1.3
				c0.1-0.5,0.5-0.8,0.8-1.2c0.3-0.6,0.6-1.2,1-1.7c0.5-0.8,1-1.7,1.6-2.5c0.4-0.6,0.9-1.3,1.3-1.9c0.3-0.4,0.6-0.8,0.9-1.2
				c0.3-0.4,0.6-0.8,0.9-1.2c0.2-0.3,0.4-0.5,0.6-0.8c0.3-0.4,0.7-0.9,1.1-1.3c0.2-0.3,0.5-0.5,0.7-0.8c0.6-0.7,1.2-1.3,1.9-2
				c1.1-1.1,2.2-2.1,3.5-3c0.5-0.3,0.9-0.6,1.4-0.9c0.1,0,0.1-0.1,0.2-0.1c0.1,0,0.1,0,0.2-0.1C83.9,65.5,83.9,65.5,84,65.4z"/>
			<path class="st9" d="M71.8,89.1c0-0.1,0.1-0.2,0.2-0.3c0.3-0.3,0.5-0.6,0.8-0.9c0.2-0.2,0.4-0.5,0.6-0.7c0.1-0.2,0.3-0.4,0.5-0.5
				c0.1,0,0.2,0.1,0.3,0.2c0,0,0,0,0,0c0.1,0.1,0.3,0.2,0.4,0.3l0,0l0,0c0.3,0.3,0.7,0.4,1,0.8c0.4,0.4,0.8,0.8,1.2,1.2
				c0.1,0.1,0.1,0.2,0.1,0.3c0,0.1,0,0.1,0,0.2c-0.1,0.2-0.2,0.3-0.3,0.5c-0.3,0.4-0.5,0.8-0.8,1.2c0,0,0,0,0,0.1c0,0-0.1,0-0.1,0
				c-0.1,0-0.1-0.1-0.2-0.1c-0.6-0.4-1.1-0.7-1.6-1.1c-0.3-0.2-0.6-0.4-0.9-0.6C72.3,89.4,72,89.2,71.8,89.1z"/>
			<path class="st9" d="M64.8,81.5c0.4,0.1,0.7,0.3,1,0.4c0.3,0.1,0.7,0.3,1,0.4c0.3,0.1,0.6,0.3,0.8,0.4c0.2,0.1,0.5,0.2,0.7,0.4
				c0,0,0,0,0.1,0c0,0.4-0.3,0.6-0.4,0.9c-0.1,0.2-0.2,0.3-0.2,0.4c-0.2,0.4-0.4,0.8-0.6,1.2c0,0,0,0.1,0,0.1c0,0.1-0.1,0.2-0.2,0.2
				c-0.3-0.2-0.6-0.4-0.9-0.6c-0.8-0.5-1.6-1.1-2.4-1.6c-0.1-0.1-0.2-0.1-0.3-0.2c-0.1,0-0.1-0.1,0-0.2c0-0.1,0.1-0.1,0.1-0.2
				c0.3-0.5,0.7-1,1-1.5C64.6,81.5,64.7,81.5,64.8,81.5z"/>
			<path class="st10" d="M75.4,88.1c-0.1-0.1-0.1-0.1-0.2-0.2c-0.2-0.2-0.4-0.4-0.6-0.6c0,0-0.1-0.1-0.1-0.1
				c0.1,0.1,0.2,0.1,0.3,0.2c0.1,0,0.1,0,0.2,0v0c0.1,0.1,0.3,0.2,0.4,0.3c0.2,0.2,0.5,0.4,0.7,0.6c0.3,0.3,0.6,0.6,0.8,0.9
				c0,0,0.1,0.1,0.1,0.2c0,0.1-0.1,0.1-0.2,0.1c0,0-0.1-0.1-0.1-0.1c0,0,0-0.1-0.1-0.1c0,0,0,0,0,0c0,0,0,0,0,0
				C76.2,88.9,75.9,88.4,75.4,88.1z"/>
			<path class="st11" d="M67.1,85.9c0-0.1,0.1-0.1,0.1-0.2c0,0,0.1,0,0.1,0C67.2,85.8,67.2,85.9,67.1,85.9
				C67.1,85.9,67.1,85.9,67.1,85.9z"/>
			<path class="st8" d="M87.8,59.7C87.8,59.6,87.8,59.6,87.8,59.7c0-0.4,0.2-0.6,0.4-0.8c0.3-0.3,0.5-0.7,0.8-1.1
				c0.3-0.4,0.3-0.4,0.7-0.2c0.1,0.1,0.2,0.1,0.3,0.2c0.7,0.2,1.4,0.5,2.1,0.6c3.8,0.4,7-2.7,6.6-6.5c-0.2-1.8-1-3.1-2.4-4.2
				c-0.1-0.1-0.3-0.2-0.3-0.4c0.1-0.5,0.5-0.8,0.7-1.2c0.1-0.2,0.3-0.4,0.4-0.6c0.3-0.4,0.3-0.4,0.7-0.1c0.1,0,0.1,0.1,0.2,0.1
				c0.2,0.1,0.4,0.3,0.6,0.5c0.6,0.6,1.2,1.2,1.6,1.9c0.7,1.2,1.2,2.5,1.3,4c0.1,1.1,0,2.2-0.4,3.2c-0.2,0.8-0.6,1.5-1.1,2.2
				c-0.9,1.4-2.2,2.4-3.7,3.1c-1.3,0.6-2.6,0.8-4,0.8c-1.1,0-2.1-0.3-3.1-0.7C88.8,60.3,88.3,60,87.8,59.7z"/>
			<path class="st7" d="M98,45.4c-0.1-0.1-0.3-0.2-0.4-0.2c-0.1,0-0.1,0-0.2,0c-0.1,0.1-0.1,0.2-0.2,0.3c-0.3,0.4-0.5,0.8-0.8,1.3
				c-0.1,0.1-0.2,0.3-0.3,0.4c-0.1,0.1-0.1,0.1-0.1,0.2c-0.3,0.1-0.4-0.2-0.7-0.2c-2.2-1-4.3-0.8-6.2,0.6c-1.9,1.5-2.7,3.5-2.3,5.9
				c0.3,1.4,1,2.6,2.1,3.5c0.1,0.2,0.3,0.2,0.5,0.4c0.2,0.1,0.4,0.2,0.5,0.5c-0.1,0-0.1,0-0.2,0c-0.1-0.1-0.2-0.1-0.3-0.2
				c-0.1,0-0.1-0.1-0.2-0.1c0,0-0.1,0-0.1,0c0,0.1-0.1,0.1-0.1,0.2c-0.1,0.2-0.2,0.4-0.4,0.6c-0.1,0.2-0.2,0.4-0.4,0.5
				c-0.1,0.1-0.1,0.2-0.2,0.2c-0.1,0.2-0.2,0.3-0.4,0.5c-0.2-0.1-0.5-0.3-0.7-0.5c-0.9-0.7-1.6-1.6-2.1-2.5c-0.5-1-0.9-2-1-3.2
				c-0.1-1-0.1-2.1,0.2-3.1c0.2-0.7,0.5-1.5,0.8-2.1c0.4-0.6,0.8-1.3,1.3-1.8c0.4-0.5,0.9-0.9,1.5-1.3c1-0.7,2-1.1,3.2-1.3
				c1.3-0.3,2.6-0.2,3.9,0.1c0.5,0.1,1,0.3,1.5,0.5c0,0,0.1,0,0.1,0c0.3,0.2,0.7,0.4,1,0.6C97.7,45.1,97.8,45.2,98,45.4
				C98,45.3,98,45.4,98,45.4z"/>
			<path class="st10" d="M73.9,86.6c0.2-0.3,0.3-0.5,0.5-0.6c-0.1,0.1-0.2,0.3-0.3,0.4c-0.1,0.1-0.1,0.2,0,0.3c0,0,0,0,0,0.1
				c0,0,0,0,0,0C74,86.7,73.9,86.6,73.9,86.6z"/>
			<path class="st10" d="M74.4,86.9C74.5,87,74.5,87,74.4,86.9C74.5,87,74.5,87,74.4,86.9C74.5,87,74.5,87.1,74.4,86.9
				c0,0.1-0.1,0-0.1,0c0,0,0,0,0-0.1c0,0,0,0,0,0C74.4,86.9,74.4,86.9,74.4,86.9z"/>
			<path class="st10" d="M74.4,87.2c-0.1-0.1-0.3-0.2-0.4-0.3c0.1,0.1,0.2,0.1,0.3,0.2C74.4,87.1,74.4,87.2,74.4,87.2z"/>
			<path class="st10" d="M74.9,87.4c-0.1,0-0.1-0.1-0.2-0.1c0,0,0,0,0-0.1c0,0,0,0,0,0C74.8,87.3,74.9,87.3,74.9,87.4L74.9,87.4z"/>
			<path class="st10" d="M74,86.9c-0.1-0.1-0.2-0.1-0.3-0.2c0,0,0,0,0.1,0C73.9,86.7,74,86.7,74,86.9z"/>
			<path class="st10" d="M73.8,86.6C73.8,86.6,73.8,86.6,73.8,86.6C73.8,86.6,73.9,86.6,73.8,86.6C73.9,86.6,73.8,86.6,73.8,86.6z"
				/>
			<path class="st6" d="M96.7,35.2c0.1,0,0.2,0.1,0.3,0.1c0.5,0.3,1.1,0.7,1.6,1c1,0.7,2,1.3,3.1,2c0.1,0,0.1,0.1,0.2,0.1
				c0,0,0,0,0,0.1c-0.1-0.1-0.2-0.1-0.3-0.2c-1.5-1-3.1-2-4.6-2.9C96.9,35.3,96.8,35.3,96.7,35.2z"/>
			<path class="st12" d="M68,84c0.1-0.3,0.3-0.6,0.5-0.9c0.1,0,0.1,0,0.1-0.1c0,0,0.1-0.1,0.1-0.1c0,0.1,0,0.1,0,0.2
				c-0.1,0.2-0.2,0.4-0.3,0.5C68.2,83.8,68.2,83.9,68,84c0.1,0.1,0,0.2,0,0.2c0,0-0.1,0-0.1,0C68,84.1,68,84.1,68,84z"/>
			<path class="st13" d="M68,84.2C68,84.2,68,84.2,68,84.2c0,0.1-0.1,0.2-0.1,0.3c-0.1,0.1-0.1,0.2-0.1,0.3c0,0.1,0,0.1-0.1,0.2
				c-0.1,0.2-0.2,0.4-0.3,0.6c-0.1,0-0.1,0.1-0.1,0.1c0,0,0-0.1,0-0.1c0.2-0.4,0.4-0.8,0.6-1.1C67.8,84.3,67.9,84.2,68,84.2z"/>
			<path class="st14" d="M67.2,85.6c0,0,0.1-0.1,0.1-0.1C67.3,85.6,67.3,85.7,67.2,85.6C67.2,85.7,67.2,85.7,67.2,85.6
				C67.2,85.7,67.2,85.7,67.2,85.6z"/>
			<path class="st6" d="M75.4,88.1c0,0,0.1,0,0.1,0c0.1,0,0.1,0.1,0.2,0.1c0.2,0.2,0.3,0.3,0.5,0.5c0.1,0.2,0.3,0.3,0.5,0.5
				c0,0,0.1,0.1,0.1,0.1c0,0,0,0,0,0c0,0,0,0-0.1,0c0,0-0.1,0-0.1,0c0,0,0,0-0.1,0c-0.2-0.2-0.4-0.4-0.6-0.7
				c-0.1-0.1-0.2-0.2-0.3-0.3C75.5,88.2,75.4,88.2,75.4,88.1z"/>
			<path class="st15" d="M68,84.2c-0.1,0.1-0.1,0.2-0.2,0.2c0-0.2,0.1-0.3,0.2-0.4C68,84.1,68,84.1,68,84.2z"/>
			<path class="st16" d="M95.4,46.9c0.1,0,0.1,0,0.2,0.1c0.2,0.1,0.3,0.2,0.5,0.3c0.1,0,0.1,0.1,0.2,0.1c1.3,1,2.2,2.2,2.5,3.8
				c0.2,1.2,0.1,2.4-0.4,3.5c-0.2,0.6-0.5,1.1-0.9,1.5c-1,1.2-2.2,1.8-3.7,2.1c-1.2,0.2-2.4,0.1-3.5-0.5c-0.1,0-0.2-0.1-0.2-0.1
				c-0.1,0-0.1-0.1-0.2-0.1c-0.2-0.1-0.4-0.2-0.6-0.4c-0.1-0.1-0.3-0.2-0.3-0.3c0.4,0.1,0.6-0.2,0.8-0.5c1-1.3,1.8-2.8,2.7-4.1
				c0.8-1.2,1.6-2.4,2.3-3.5c0.3-0.4,0.6-0.7,0.8-1.1c0.2-0.3,0.2-0.5-0.1-0.7C95.4,47.1,95.4,47,95.4,46.9z"/>
			<path class="st5" d="M95.4,46.9c0.1,0.1,0.3,0.2,0.4,0.3c0,0,0.1,0.1,0.1,0.1c0,0,0,0.1,0,0.1c0,0,0,0.1-0.1,0.1
				c-0.1,0.2-0.3,0.5-0.4,0.7c0,0.1-0.1,0.1-0.1,0.2c-0.1,0.1-0.2,0.2-0.3,0.4c-0.6,1-1.3,2-1.9,3c-0.1,0.2-0.2,0.3-0.4,0.5
				c-0.1,0.1-0.1,0.2-0.2,0.3c-0.6,0.9-1.2,1.9-1.8,2.8c-0.1,0.1-0.1,0.2-0.2,0.3c0,0.1-0.1,0.1-0.1,0.1c-0.2,0.1-0.2,0.3-0.3,0.4
				c-0.2,0.3-0.4,0.5-0.5,0.8c0,0.1-0.1,0.1-0.1,0.2c0,0.1-0.1,0.1-0.2,0.1c-0.1-0.1-0.2-0.1-0.3-0.2c-0.4-0.3-0.8-0.7-1.1-1.1
				c-0.6-0.8-1-1.8-1.1-2.8c-0.2-1.2,0-2.3,0.5-3.4c0.9-1.8,2.3-2.9,4.3-3.3c1.1-0.2,2.2-0.2,3.3,0.2C95,46.7,95.2,46.8,95.4,46.9z"
				/>
		</g>
	</g>
</g>
</svg>
