<?xml version="1.0" encoding="utf-8"?>
<!-- Generator: Adobe Illustrator 16.0.0, SVG Export Plug-In . SVG Version: 6.00 Build 0)  -->
<!DOCTYPE svg PUBLIC "-//W3C//DTD SVG 1.1//EN" "http://www.w3.org/Graphics/SVG/1.1/DTD/svg11.dtd">
<svg version="1.1" id="Capa_1" xmlns="http://www.w3.org/2000/svg" xmlns:xlink="http://www.w3.org/1999/xlink" x="0px" y="0px"
	 width="155px" height="155px" viewBox="0 0 155 155" enable-background="new 0 0 155 155" xml:space="preserve">
<circle fill="#EBECF0" cx="77.5" cy="77.499" r="71.5"/>
<g>
	<path fill="#E7911F" d="M80.931,80.042c-0.277,1.532-0.547,3.066-0.83,4.595c-0.827,4.482-1.664,8.965-2.49,13.448
		c-0.302,1.635-1.027,3.037-2.226,4.195c-1.979,1.909-4.351,2.981-7.073,3.284c-3.144,0.35-6.121-0.14-8.816-1.883
		c-1.845-1.195-3.273-2.744-3.801-4.939c-0.332-1.384-0.542-2.796-0.803-4.196c-0.655-3.51-1.309-7.02-1.961-10.529
		c-0.901-4.844-1.803-9.687-2.702-14.53c-0.258-1.382-0.509-2.767-0.762-4.15c3.859-0.003,7.718-0.006,11.578-0.009
		c0.356,1.841,0.72,3.68,1.066,5.522c0.511,2.716,1.01,5.434,1.516,8.151c0.533,2.863,1.067,5.728,1.605,8.593
		c0.15,0.793,0.645,1.235,1.348,1.238c0.665,0.001,1.171-0.441,1.318-1.209c0.465-2.415,0.915-4.834,1.374-7.252
		c0.021-0.114,0.067-0.224,0.102-0.335C73.225,80.039,77.077,80.041,80.931,80.042z"/>
	<path fill="#6C6269" d="M100.391,65.3c0.354,1.291,0.533,2.617,0.779,3.93c1.156,6.15,2.295,12.304,3.44,18.457
		c0.125,0.667,0.697,1.166,1.321,1.167c0.629,0.002,1.184-0.472,1.314-1.158c0.468-2.448,0.93-4.899,1.395-7.35
		c0.018-0.097,0.059-0.189,0.09-0.283c0.346,0.093,0.692,0.001,1.04,0.001c3.51-0.003,7.02,0,10.528,0.004
		c-0.333,1.846-0.662,3.691-1.004,5.534c-0.778,4.186-1.578,8.366-2.341,12.556c-0.446,2.449-1.901,4.161-3.899,5.492
		c-4.715,3.145-11.808,2.575-15.826-1.26c-1.363-1.299-2.065-2.9-2.402-4.751c-1.426-7.831-2.91-15.649-4.367-23.475
		c-0.551-2.946-1.084-5.896-1.625-8.843c3.519,0.003,7.036,0.007,10.555,0.008C99.723,65.329,100.058,65.311,100.391,65.3z"/>
	<path fill="#CFC412" d="M21.666,65.332c0.345,1.244,0.503,2.525,0.755,3.788c0.406,2.034,0.754,4.082,1.135,6.121
		c0.77,4.129,1.545,8.259,2.316,12.388c0.14,0.745,0.634,1.196,1.323,1.198c0.687,0.002,1.18-0.445,1.323-1.188
		c0.487-2.53,0.977-5.061,1.465-7.591c0.168,0.107,0.357,0.067,0.538,0.067c3.511,0.004,7.021,0.004,10.53,0.004
		c0.166,0,0.336,0.021,0.488-0.074c-0.294,1.65-0.583,3.302-0.885,4.948c-0.628,3.427-1.249,6.855-1.903,10.278
		c-0.261,1.365-0.397,2.761-0.845,4.083c-0.7,2.059-2.19,3.463-3.997,4.55c-2.584,1.553-5.409,1.98-8.375,1.665
		c-2.45-0.261-4.637-1.144-6.533-2.729c-1.521-1.271-2.487-2.846-2.832-4.832c-0.534-3.086-1.16-6.158-1.733-9.237
		c-0.765-4.117-1.514-8.237-2.278-12.355c-0.667-3.59-1.347-7.179-2.019-10.768c-0.019-0.098-0.021-0.199-0.031-0.299
		c0.201-0.005,0.402-0.018,0.602-0.019C14.362,65.332,18.014,65.332,21.666,65.332z"/>
	<path fill="#D92554" d="M41.54,80.046c-0.152,0.096-0.323,0.074-0.488,0.074c-3.51,0-7.02,0-10.531-0.004
		c-0.18,0-0.369,0.04-0.538-0.067c0.42-2.307,0.834-4.615,1.262-6.921c1.26-6.771,2.526-13.54,3.789-20.31
		c0.31-1.665,0.59-3.334,0.93-4.993c0.3-1.472,1.066-2.704,2.132-3.748c1.958-1.917,4.34-2.941,7.035-3.248
		c2.903-0.33,5.7,0.05,8.262,1.533c2.242,1.298,3.969,3.047,4.477,5.709c0.669,3.506,1.302,7.02,1.952,10.529
		c0.386,2.076,0.778,4.152,1.164,6.228c0.031,0.163,0.039,0.332,0.058,0.498c-3.859,0.002-7.718,0.005-11.579,0.009
		c-0.413-2.171-0.829-4.341-1.235-6.513c-0.146-0.781-0.623-1.252-1.319-1.271c-0.685-0.017-1.225,0.45-1.369,1.222
		c-1.192,6.369-2.376,12.74-3.566,19.109C41.841,78.606,41.685,79.326,41.54,80.046z"/>
	<path fill="#EDCF11" d="M100.391,65.3c-0.333,0.011-0.668,0.029-1.002,0.029c-3.517-0.001-7.036-0.005-10.554-0.008
		c-0.245-1.262-0.495-2.524-0.737-3.789c-0.183-0.951-0.344-1.908-0.536-2.858c-0.149-0.727-0.64-1.114-1.341-1.107
		c-0.62,0.005-1.156,0.443-1.291,1.127c-0.363,1.872-0.703,3.749-1.05,5.624c-0.366,1.973-0.726,3.947-1.091,5.92
		c-0.583,3.143-1.163,6.283-1.748,9.424c-0.024,0.129-0.072,0.253-0.109,0.38c-3.854-0.001-7.706-0.003-11.559-0.007
		c0.159-1.381,0.471-2.737,0.724-4.103c0.746-4.035,1.513-8.065,2.268-12.099c0.873-4.674,1.74-9.351,2.609-14.025
		c0.226-1.216,0.339-2.457,0.922-3.585c1.094-2.114,2.824-3.55,4.976-4.412c4.4-1.763,8.693-1.538,12.724,1.085
		c1.65,1.074,2.945,2.511,3.463,4.474c0.296,1.114,0.478,2.261,0.69,3.396c0.385,2.042,0.755,4.086,1.134,6.129
		c0.492,2.652,0.992,5.302,1.483,7.954C100.391,64.996,100.384,65.15,100.391,65.3z"/>
	<path fill="#CFC412" d="M120.3,80.067c-3.509-0.004-7.019-0.007-10.528-0.004c-0.347,0-0.695,0.092-1.041-0.001
		c0.255-1.452,0.502-2.906,0.769-4.354c0.65-3.526,1.31-7.051,1.967-10.575c0.511-2.733,1.029-5.465,1.539-8.199
		c0.564-3.03,1.094-6.067,1.692-9.09c0.361-1.818,1.404-3.249,2.832-4.394c2.901-2.333,6.247-3.026,9.879-2.612
		c2.704,0.308,5.062,1.36,7.027,3.259c1.433,1.379,2.069,3.114,2.391,5.035c0.472,2.809,1.028,5.603,1.543,8.404
		c0.467,2.538,0.927,5.076,1.391,7.613l-0.012-0.008c-0.26,0.072-0.521,0.099-0.791,0.098c-3.38-0.004-6.761-0.003-10.14-0.003
		c-0.216,0-0.438,0.022-0.64-0.087c-0.37-1.923-0.741-3.847-1.111-5.771c-0.045-0.23-0.079-0.462-0.123-0.692
		c-0.126-0.665-0.635-1.106-1.288-1.121c-0.65-0.012-1.203,0.41-1.329,1.066c-0.374,1.94-0.734,3.885-1.096,5.828
		c-0.938,5.039-1.874,10.078-2.814,15.119C120.385,79.741,120.339,79.904,120.3,80.067z"/>
	<path fill="#D82554" d="M133.446,93.424c-0.013-0.065-0.022-0.132-0.034-0.197c0.103-0.091,0.104-0.216,0.081-0.327
		c-0.176-0.81-0.339-1.618-0.438-2.44c-0.013-0.109-0.077-0.223-0.211-0.257c-0.013-0.064-0.023-0.134-0.035-0.2
		c0.215-0.594-0.105-1.139-0.187-1.699c-0.192-1.314-0.494-2.611-0.734-3.92c-0.22-1.209-0.366-2.434-0.639-3.633
		c-0.21-0.922-0.371-1.854-0.56-2.781c-0.323-1.58-0.573-3.173-0.865-4.758c-0.176-0.963-0.377-1.922-0.558-2.886
		c-0.169-0.915-0.316-1.834-0.486-2.748c-0.133-0.703-0.37-1.388-0.321-2.118c3.76-0.001,7.52-0.002,11.28-0.002
		c-0.002,0.252,0.038,0.495,0.092,0.743c0.185,0.859,0.343,1.727,0.492,2.591c0.301,1.752,0.662,3.493,0.959,5.246
		c0.15,0.884,0.282,1.774,0.489,2.646c0.211,0.892,0.32,1.8,0.513,2.693c0.177,0.827,0.327,1.662,0.479,2.496
		c0.225,1.238,0.433,2.481,0.667,3.721c0.233,1.24,0.53,2.472,0.73,3.719c0.266,1.658,0.606,3.302,0.911,4.952
		c0.291,1.569,0.614,3.133,0.908,4.704c0.312,1.666,0.59,3.34,0.921,5.004c0.085,0.423,0.045,0.55-0.417,0.548
		c-3.419-0.019-6.839-0.021-10.257,0.003c-0.526,0.004-0.672-0.232-0.721-0.67c-0.03-0.27,0.007-0.569-0.257-0.763
		c-0.01-0.065-0.021-0.132-0.029-0.198c0.15-0.199,0.076-0.409,0.031-0.621c-0.123-0.569-0.24-1.14-0.344-1.71
		c-0.16-0.87-0.303-1.738-0.46-2.605c-0.18-0.981-0.321-1.973-0.568-2.937C133.742,94.486,133.86,93.88,133.446,93.424z"/>
	<path fill="#6C626A" d="M21.666,65.332c-3.652,0-7.304,0-10.958,0.001c-0.2,0-0.401,0.013-0.602,0.019
		c-0.415-2.171-0.834-4.341-1.243-6.515c-1.03-5.483-2.054-10.967-3.083-16.45c-0.125-0.667-0.13-0.666,0.531-0.666
		c3.489,0,6.978,0.008,10.467-0.01c0.397-0.001,0.549,0.109,0.622,0.497c1.403,7.559,2.816,15.118,4.226,22.676
		C21.655,65.029,21.654,65.182,21.666,65.332z"/>
	<path fill="#6C636B" d="M109.034,116.702c0.2-0.949,0.396-1.899,0.599-2.847c0.219-1.007,1.157-1.445,2.062-0.963
		c0.313,0.17,0.393,0.486,0.467,0.797c0.24,0.993,0.477,1.987,0.715,2.979c0.004,0.017,0.018,0.027,0.069,0.104
		c0.238-1.081,0.458-2.113,0.695-3.145c0.164-0.716,0.685-1.018,1.393-0.833c0.562,0.147,0.865,0.595,0.776,1.169
		c-0.04,0.264-0.104,0.526-0.186,0.781c-0.37,1.165-0.743,2.328-1.134,3.485c-0.257,0.759-0.589,0.957-1.456,0.931
		c-0.945-0.028-1.303-0.25-1.509-1.02c-0.219-0.823-0.396-1.66-0.624-2.629c-0.207,0.905-0.379,1.675-0.563,2.444
		c-0.25,1.053-1.467,1.581-2.441,1.066c-0.205-0.109-0.324-0.285-0.408-0.491c-0.585-1.445-1.017-2.943-1.441-4.437
		c-0.192-0.678,0.185-1.196,0.822-1.318c0.72-0.138,1.157,0.143,1.336,0.863c0.252,1.023,0.497,2.048,0.747,3.071
		C108.98,116.71,109.006,116.706,109.034,116.702z"/>
	<path fill="#6C636A" d="M140.722,118.289c-0.895,0.882-2.29,1.115-3.396,0.617c-0.701-0.313-0.966-0.889-0.983-1.612
		c-0.019-0.719,0.337-1.213,0.969-1.51c0.775-0.364,1.621-0.393,2.453-0.488c0.386-0.046,0.866,0,0.883-0.582
		c0.012-0.37-0.368-0.559-0.979-0.544c-0.35,0.007-0.648,0.141-0.936,0.324c-0.213,0.137-0.412,0.299-0.641,0.397
		c-0.368,0.155-0.78,0.226-1.058-0.135c-0.272-0.356-0.199-0.764,0.06-1.12c0.151-0.207,0.361-0.357,0.593-0.454
		c1.466-0.628,2.943-0.584,4.396,0.015c0.618,0.252,0.936,0.766,0.932,1.474c-0.005,1.107-0.041,2.214,0.044,3.318
		c0.055,0.719-0.115,0.969-0.661,1.113c-0.7,0.187-1.271-0.019-1.56-0.56C140.8,118.469,140.771,118.392,140.722,118.289z
		 M140.614,116.383c-0.423,0.174-0.878,0.198-1.314,0.301c-0.296,0.07-0.486,0.237-0.471,0.559c0.016,0.334,0.234,0.5,0.546,0.557
		C140.264,117.956,140.764,117.394,140.614,116.383z"/>
	<path fill="#6C636B" d="M121.033,118.297c-0.923,0.935-2.001,1.023-3.144,0.701c-0.84-0.236-1.213-0.795-1.227-1.687
		c-0.009-0.802,0.369-1.327,1.171-1.621c0.732-0.269,1.503-0.314,2.272-0.4c0.376-0.04,0.824-0.023,0.846-0.569
		c0.016-0.354-0.354-0.551-0.926-0.554c-0.351-0.001-0.655,0.117-0.944,0.302c-0.212,0.136-0.416,0.284-0.637,0.402
		c-0.425,0.223-0.939,0.151-1.15-0.143c-0.229-0.32-0.146-0.847,0.188-1.194c0.165-0.171,0.362-0.3,0.582-0.389
		c1.438-0.576,2.886-0.546,4.306,0.041c0.64,0.265,0.959,0.782,0.954,1.515c-0.008,1.156-0.058,2.313,0.058,3.47
		c0.042,0.43-0.125,0.75-0.559,0.898c-0.587,0.202-1.296,0.06-1.567-0.338C121.173,118.609,121.119,118.468,121.033,118.297z
		 M120.988,116.764c-0.075-0.097,0.155-0.401-0.196-0.343c-0.425,0.073-0.843,0.179-1.261,0.289
		c-0.248,0.063-0.405,0.234-0.401,0.504c0.003,0.259,0.146,0.436,0.379,0.537C120.199,118.054,120.976,117.546,120.988,116.764z"/>
	<path fill="#6C636A" d="M127.209,116.76c0.25-1.024,0.478-2.056,0.755-3.072c0.211-0.768,0.658-1.044,1.324-0.904
		c0.573,0.123,0.865,0.498,0.815,1.084c-0.018,0.197-0.063,0.399-0.127,0.587c-0.57,1.681-1.129,3.368-1.731,5.038
		c-0.503,1.4-1.579,1.989-3.054,1.733c-0.114-0.019-0.231-0.046-0.337-0.093c-0.446-0.196-0.603-0.555-0.547-1.021
		c0.057-0.459,0.411-0.528,0.77-0.577c0.801-0.108,0.817-0.13,0.556-0.884c-0.491-1.427-1.005-2.846-1.466-4.279
		c-0.31-0.96,0.178-1.632,1.095-1.607c0.514,0.014,0.824,0.265,0.983,0.84c0.248,0.886,0.477,1.779,0.718,2.668
		c0.046,0.17,0.103,0.337,0.153,0.506C127.146,116.77,127.18,116.766,127.209,116.76z"/>
	<path fill="#6D656C" d="M133.103,114.305c0.242-0.479,0.403-0.848,0.678-1.146c0.356-0.385,0.848-0.511,1.274-0.326
		c0.409,0.177,0.605,0.609,0.556,1.239c-0.036,0.487-0.244,0.828-0.763,0.914c-0.149,0.023-0.295,0.071-0.439,0.109
		c-0.879,0.226-1.105,0.512-1.113,1.402c-0.003,0.521,0.008,1.039-0.003,1.56c-0.018,0.683-0.46,1.096-1.167,1.103
		c-0.723,0.011-1.196-0.37-1.21-1.052c-0.022-1.426-0.021-2.851,0-4.274c0.01-0.651,0.431-1.053,1.032-1.073
		c0.64-0.023,1.015,0.303,1.112,0.974C133.081,113.884,133.083,114.036,133.103,114.305z"/>
	<path fill="#D2476A" d="M135.251,103.089c0.264,0.193,0.227,0.493,0.257,0.764c0.049,0.437,0.194,0.673,0.721,0.669
		c3.418-0.023,6.838-0.021,10.257-0.004c0.462,0.003,0.502-0.123,0.417-0.546c-0.333-1.665-0.609-3.339-0.921-5.006
		c-0.294-1.569-0.617-3.133-0.908-4.703c-0.304-1.651-0.646-3.295-0.911-4.951c-0.2-1.247-0.497-2.479-0.73-3.72
		c-0.234-1.238-0.442-2.482-0.667-3.721c-0.152-0.833-0.302-1.669-0.479-2.496c-0.192-0.893-0.302-1.801-0.513-2.693
		c-0.207-0.874-0.338-1.762-0.489-2.646c-0.297-1.753-0.658-3.495-0.959-5.246c-0.149-0.863-0.308-1.731-0.492-2.592
		c-0.054-0.247-0.094-0.49-0.092-0.742c0.002-0.03,0.002-0.062-0.002-0.094c0.004-0.074,0.004-0.147,0.006-0.222l0.013,0.008
		c0.366,1.892,0.739,3.781,1.096,5.673c1.461,7.795,2.916,15.592,4.372,23.388c0.624,3.328,1.238,6.657,1.877,9.984
		c0.075,0.398,0.008,0.511-0.417,0.509c-3.573-0.015-7.146-0.014-10.72-0.002c-0.333,0.002-0.489-0.094-0.527-0.423
		C135.392,103.88,135.314,103.484,135.251,103.089z"/>
	<path fill="#6C636A" d="M144.218,117.769c0-0.716,0.583-1.299,1.31-1.311c0.729-0.01,1.315,0.568,1.312,1.296
		c-0.002,0.736-0.581,1.326-1.299,1.321C144.82,119.069,144.218,118.476,144.218,117.769z"/>
	<path fill="#D2476A" d="M128.46,65.46c-0.049,0.729,0.19,1.414,0.322,2.117c0.171,0.915,0.317,1.834,0.487,2.749
		c0.179,0.964,0.381,1.923,0.558,2.886c0.291,1.585,0.54,3.178,0.864,4.758c0.188,0.927,0.35,1.859,0.56,2.781
		c0.272,1.199,0.418,2.424,0.638,3.633c0.24,1.309,0.544,2.604,0.734,3.92c0.083,0.561,0.401,1.105,0.188,1.699
		c-0.327-1.692-0.667-3.384-0.985-5.08c-1.21-6.456-2.415-12.912-3.62-19.37c-0.012-0.064-0.01-0.132-0.014-0.198
		c0.027,0,0.056,0.002,0.085,0.004C128.311,65.441,128.388,65.447,128.46,65.46z"/>
	<path fill="#D2476A" d="M133.446,93.424c0.414,0.454,0.296,1.063,0.435,1.593c0.248,0.964,0.389,1.955,0.568,2.937
		c0.157,0.867,0.3,1.736,0.46,2.605c0.104,0.57,0.221,1.141,0.344,1.71c0.045,0.212,0.119,0.422-0.031,0.621
		c-0.338-1.739-0.681-3.479-1.01-5.22C133.946,96.256,133.698,94.838,133.446,93.424z"/>
	<path fill="#EA9C44" d="M128.275,65.36c-0.029-0.003-0.057-0.004-0.085-0.005c-0.006-0.068-0.009-0.137-0.014-0.205
		c0.2,0.109,0.421,0.087,0.639,0.087c3.379,0,6.76-0.002,10.14,0.003c0.271,0,0.53-0.027,0.791-0.098
		c-0.002,0.074-0.004,0.148-0.006,0.223c-0.534-0.008-1.071-0.022-1.608-0.021C134.848,65.347,131.562,65.353,128.275,65.36z"/>
	<path fill="#D2476A" d="M132.845,90.203c0.134,0.034,0.198,0.147,0.211,0.257c0.098,0.821,0.262,1.63,0.438,2.44
		c0.022,0.111,0.021,0.235-0.081,0.326C133.164,92.229,132.993,91.219,132.845,90.203z"/>
	<path fill="#BD4323" d="M128.275,65.36c3.286-0.006,6.572-0.013,9.856-0.018c0.538,0,1.075,0.014,1.608,0.021
		c0.004,0.031,0.004,0.063,0.002,0.093c-3.761,0-7.521,0.002-11.28,0.003C128.388,65.447,128.311,65.441,128.275,65.36z"/>
</g>
</svg>
