<?xml version="1.0" encoding="utf-8"?>
<!-- Generator: Adobe Illustrator 21.1.0, SVG Export Plug-In . SVG Version: 6.00 Build 0)  -->
<svg version="1.1" id="Capa_1" xmlns="http://www.w3.org/2000/svg" xmlns:xlink="http://www.w3.org/1999/xlink" x="0px" y="0px"
	 viewBox="0 0 155 155" style="enable-background:new 0 0 155 155;" xml:space="preserve">
<style type="text/css">
	.st0{fill:#EBECF0;}
	.st1{fill:#8D3032;}
	.st2{fill:#933233;}
	.st3{fill:#8B3032;}
	.st4{fill:#8C3032;}
	.st5{fill:#913132;}
	.st6{fill:#993333;}
	.st7{fill:#8F3132;}
	.st8{fill:#963233;}
	.st9{fill:#923233;}
	.st10{fill:#9C3233;}
	.st11{fill:#8A3032;}
	.st12{fill:#A23132;}
	.st13{fill:#983333;}
	.st14{fill:#903132;}
	.st15{fill:#A13232;}
	.st16{fill:#A23232;}
	.st17{fill:#A53032;}
	.st18{fill:#A52F32;}
	.st19{fill:#A03233;}
	.st20{fill:#BC7E72;}
	.st21{fill:#AF5848;}
	.st22{fill:#AD5343;}
	.st23{fill:#BC7F73;}
	.st24{fill:#AF5948;}
	.st25{fill:#B26152;}
	.st26{fill:#B26252;}
	.st27{fill:#BC7F74;}
	.st28{fill:#AC5242;}
	.st29{fill:#B77263;}
	.st30{fill:#B97769;}
	.st31{fill:#A83D38;}
	.st32{fill:#AE5747;}
	.st33{fill:#B77163;}
	.st34{fill:#A73636;}
	.st35{fill:#AA473C;}
	.st36{fill:#A73736;}
	.st37{fill:#B46A5A;}
	.st38{fill:#BA7A6C;}
	.st39{fill:#AF5949;}
	.st40{fill:#AC5342;}
	.st41{fill:#A93F3A;}
	.st42{fill:#A93F39;}
	.st43{fill:#AC5141;}
	.st44{fill:#BA796C;}
	.st45{fill:#B9786A;}
	.st46{fill:#B46A59;}
	.st47{fill:#AA493E;}
	.st48{fill:#B15F4F;}
	.st49{fill:#AA493D;}
	.st50{fill:#A83836;}
	.st51{fill:#B05C4C;}
	.st52{fill:#B66F60;}
	.st53{fill:#A73535;}
	.st54{fill:#B36455;}
	.st55{fill:#B97466;}
	.st56{fill:#A93E39;}
	.st57{fill:#883032;}
	.st58{fill:#62282C;}
	.st59{fill:#863132;}
	.st60{fill:#873132;}
	.st61{fill:#944E51;}
	.st62{fill:#61282C;}
	.st63{fill:#8B5053;}
	.st64{fill:#864E51;}
	.st65{fill:#66292D;}
	.st66{fill:#672A2D;}
	.st67{fill:#662A2D;}
	.st68{fill:#7A2D31;}
	.st69{fill:#833132;}
	.st70{fill:#803032;}
	.st71{fill:#7D2F32;}
	.st72{fill:#6E2D2F;}
	.st73{fill:#6A2A2E;}
	.st74{fill:#7D2F31;}
	.st75{fill:#823132;}
	.st76{fill:#7F3032;}
	.st77{fill:#7C2E31;}
	.st78{fill:#762D30;}
	.st79{fill:#722D2F;}
	.st80{fill:#752D30;}
	.st81{fill:#6D2C2F;}
	.st82{fill:#692A2E;}
	.st83{fill:#792D31;}
</style>
<circle class="st0" cx="77.5" cy="77.5" r="71.5"/>
<g>
	<path class="st1" d="M29.6,71.7c0.5-1.5,1.2-2.9,2.2-4.1c0.3-0.2,0.6-0.3,1-0.3c2.1,0,4.3-0.1,6.4,0.1c1.6,0.2,3.2,0,4.9,0.1
		c2.8,0,5.5,0,8.3,0c0.7,0,1.4,0,2.1,0.3c0.3,0.2,0.4,0.5,0.5,0.8c0.2,1.1,0,2.3,0.2,3.4c0,0.2-0.1,0.4-0.2,0.5
		c-4.1-0.6-8.3-0.3-12.4-0.3c-3.3,0-6.7-0.3-10-0.2c-0.9,0-1.9,0-2.8,0.1C29.4,72,29.5,71.9,29.6,71.7z"/>
	<path class="st2" d="M54.5,68c-4.1-0.4-8.3-0.1-12.4-0.2c-3.5-0.1-6.9-0.3-10.4-0.2c1.4-1.9,3.2-3.4,4.9-5.1c3,0.3,6,0.3,8.9,0.3
		c2.5,0,5.1,0,7.6,0c0.6,0,1.2,0,1.6,0.4C55.3,64.9,55,66.4,54.5,68z"/>
	<path class="st3" d="M125.7,82c-0.2,0.8-0.5,1.6-1,2.3c-0.4,0.3-0.9,0.3-1.4,0.3c-7.2,0-14.5,0-21.7,0c-0.4,0-0.8,0-1.2-0.2
		c-0.7-1.1-0.8-2.3-0.4-3.5c1.2,0.2,2.4,0.1,3.6,0.1c6.8,0,13.6,0,20.4,0c0.5,0,1.1-0.1,1.6,0.2C125.9,81.6,125.8,81.8,125.7,82z"/>
	<path class="st4" d="M83.2,29.4c0.8,0.2,1.6,0.6,2.4,1.1c0.3,0.7,0.1,1.4,0.1,2.1c0,6.7,0,13.3,0,20c0,0.5,0.1,1.1-0.2,1.6
		c-0.1,0.2-0.4,0.4-0.6,0.4c-1,0.1-2.1,0.5-3.1,0c0.3-0.7,0.3-1.5,0.3-2.3c0-7.1,0-14.2,0-21.3c0-0.5-0.1-1.1,0.2-1.6
		C82.6,29.2,82.9,29.3,83.2,29.4z"/>
	<path class="st5" d="M68.2,123.2c-1.3-0.8-2.4-2-3.4-3.1c0.2-0.6,0.2-1.3,0.2-1.9c0-3.6,0-7.1,0-10.7c0-2.1,0.3-4.3,0.2-6.4
		c0-0.3,0-0.6,0.3-0.9c1.1-0.5,2.1-0.4,3.2,0c0.3,0.4,0.3,0.9,0.3,1.3c0,4.8,0.1,9.7,0,14.5c0,2-0.1,4-0.2,6
		C68.7,122.4,68.7,122.9,68.2,123.2z"/>
	<path class="st1" d="M68.2,123.2c0.2-0.3,0.2-0.6,0.2-0.9c0.2-7.4,0.2-14.7,0.2-22.1c0.1-0.2,0.2-0.3,0.4-0.3
		c0.5,0,1.1-0.1,1.6-0.1c0.4,0,0.7,0,1,0.3c0.3,0.4,0.3,0.9,0.3,1.4c0,7.3-0.3,14.6-0.2,21.9c0,0.5,0,1.1-0.5,1.4
		C70.1,124.4,69.1,123.9,68.2,123.2z"/>
	<path class="st6" d="M54.7,63.3c-0.5-0.2-1.1-0.2-1.6-0.2c-4,0-8.1,0-12.1,0c-1.2,0-2.4-0.3-3.6-0.2c-0.3,0-0.5-0.2-0.8-0.4
		c1.4-1.4,2.7-2.7,4.1-4.1c0.5,0.2,1,0.3,1.5,0.3c3.9,0,7.8,0.3,11.8,0.2c0.4,0,0.8,0,1.2,0.2c0.5,0.4,0.2,0.9,0.2,1.3
		c0,0.5-0.1,1.1-0.3,1.6c-0.1,0.3-0.1,0.7-0.2,1.1C54.9,63.2,54.8,63.2,54.7,63.3z"/>
	<path class="st7" d="M100.4,84.4c8.1,0,16.3,0,24.4,0c-0.4,1-1,1.9-1.7,2.7c-0.3,0.1-0.6,0.1-0.9,0.1c-6.6,0-13.2,0-19.9,0
		c-0.5,0-1.1,0.1-1.6-0.2c-0.7-0.6-0.2-1.4-0.5-2C100.2,84.8,100.2,84.5,100.4,84.4z"/>
	<path class="st8" d="M65.5,100.2c-0.3,6.3-0.2,12.7-0.2,19c0,0.4,0.1,0.8-0.5,0.9c-1.1-1-2.1-2-3.1-3.1c0.2-1.8,0.3-3.6,0.4-5.4
		c0.1-3.9,0-7.8,0-11.7c0.6-0.7,1.3-0.1,1.9-0.1c0.4,0.2,0.9,0.1,1.4,0.3C65.4,100.1,65.4,100.1,65.5,100.2z"/>
	<path class="st8" d="M120.7,89.6c-0.9,1-1.9,2-2.9,2.9c-0.3,0.1-0.6,0.1-1,0.1c-5.1,0-10.2,0-15.3,0c-0.4,0-0.8,0-1.2-0.1
		c-0.1,0-0.2-0.1-0.3-0.2c-0.1-0.2-0.1-0.3-0.1-0.5c0.2-0.6,0.1-1.3,0.1-1.9c0-0.2,0.1-0.5,0.3-0.6c0.4-0.2,0.9-0.2,1.3-0.2
		c5.7,0,11.4,0,17.1,0C119.5,89.1,120.2,89,120.7,89.6z"/>
	<path class="st9" d="M120.7,89.6c-0.5-0.2-1.1-0.2-1.6-0.2c-6.2,0-12.4,0-18.7,0c-0.1-0.1-0.2-0.3-0.2-0.5c0.2-0.7-0.2-1.5,0.3-2.1
		c7,0,14.1,0,21.1,0c0.5,0,0.9,0,1.3,0.2C122.4,88.1,121.5,88.9,120.7,89.6z"/>
	<path class="st10" d="M95.7,39.9c1.3,1.3,2.7,2.5,3.8,3.9c-0.1,3.4,0,6.9-0.1,10.3c0,0.5,0.1,1-0.2,1.5c-0.2,0.3-0.5,0.3-0.9,0.3
		c-1-0.2-2-0.3-3-0.7C95.1,54.9,95,54.5,95,54c0-4.3,0-8.7,0-13C95,40.5,95,39.9,95.7,39.9z"/>
	<path class="st11" d="M71.1,124.8c0.2-0.6,0.2-1.1,0.2-1.7c0-2.9,0-5.8,0-8.8c-0.1-4.3,0.3-8.6,0.2-12.8c0-0.5,0-1-0.2-1.4
		c0.8-0.5,1.6-0.7,2.4-0.2c0.3,0.5,0.2,1,0.2,1.5c0.1,3.1-0.2,6.3-0.2,9.4c0,4.3,0,8.6,0,13c0,0.5,0.1,1-0.2,1.5
		c-0.3,0.3-0.6,0.2-0.9,0.1C72.1,125.1,71.6,125,71.1,124.8z"/>
	<path class="st12" d="M111.3,99c-1.6,1.7-3.3,3.5-5.1,5c-2.3-0.1-4.6,0-6.9-0.1c-0.5,0-1.1,0-1.6-0.3c-0.5-0.7,0.1-1.4,0.2-2
		c0.2-0.7,0.3-1.5,0.5-2.2c0.1-0.4,0.2-0.8,0.7-1c3.6,0,7.1,0,10.7,0C110.4,98.5,111,98.5,111.3,99z"/>
	<path class="st13" d="M95.7,39.9c-0.4,0.2-0.4,0.5-0.4,0.9c0,4.5,0,8.9,0,13.4c0,0.4,0.1,0.7,0.4,0.9c-1.3,0.2-2.6,0.2-3.7-0.7
		c-0.2-0.4-0.1-0.8-0.1-1.2c0-4.8,0-9.7,0-14.5c0-0.7-0.1-1.5,0.7-2C93.7,37.7,94.7,38.8,95.7,39.9z"/>
	<path class="st6" d="M62.1,99.8c0.2,0.3,0.2,0.7,0.2,1.1c0,3.8,0,7.7,0,11.5c0,1.2-0.2,2.5-0.2,3.8c0,0.4-0.1,0.6-0.5,0.8
		c-1-1-2.1-2.1-3.1-3.1c0.2-1.6,0.3-3.2,0.4-4.8c0.1-2.7,0-5.4,0-8.1c0-0.5-0.1-1,0.2-1.4C60.2,99,61.2,99.3,62.1,99.8z"/>
	<path class="st9" d="M87.5,31.8c1,0.8,1.9,1.6,2.7,2.6c-0.1,6.1,0,12.1-0.1,18.2c0,0.9,0.5,1.3,0.9,1.9c-1.2,0.5-2.4,0.2-3.6-0.2
		c-0.3-0.4-0.2-0.9-0.2-1.3c0-6.6,0-13.1,0-19.7C87.2,32.8,87.1,32.2,87.5,31.8z"/>
	<path class="st14" d="M87.5,31.8c0,7.5,0,15,0,22.5c-0.4,0.4-0.9,0.2-1.3,0.3c-0.3,0-0.6,0-0.8-0.3c0-7.4,0-14.8,0-22.1
		c0-0.6,0-1.2,0.2-1.7C86.2,30.9,87,31.2,87.5,31.8z"/>
	<path class="st10" d="M111.3,99c-0.5-0.2-1.1-0.2-1.6-0.2c-3.1,0-6.3,0-9.4,0c-0.4,0-0.8,0.1-1.2-0.2c-0.2-1.2,0-2.4,0.7-3.5
		c0.4-0.2,0.8-0.2,1.1-0.2c4.1,0,8.2,0,12.4,0c0.6,0,1.2-0.1,1.6,0.5C113.7,96.7,112.5,97.9,111.3,99z"/>
	<path class="st15" d="M55.4,110.7c-1.6-1.5-3.1-2.9-4.5-4.5c0.5-1.6,0.2-3.3,0.3-5c0.1-1.2-0.2-2.5,0.2-3.7
		c0.9-0.3,4.1,0.8,4.8,1.5c0.2,0.7,0.1,1.4,0.1,2.1c0,2.8,0,5.6,0,8.4C56.2,110,56.4,110.8,55.4,110.7z"/>
	<path class="st16" d="M99.2,55.7c0-3.7,0-7.3,0-11c0-0.3-0.2-0.8,0.4-1c1.3,1.3,2.6,2.5,3.9,3.8c0.2,0.2,0.5,0.4,0.6,0.7
		c-0.1,2.6-0.1,5.1-0.1,7.7c0,0.3,0,0.7-0.1,1c-0.2,0.4-0.5,0.3-0.9,0.3c-1.2-0.3-2.4-0.8-3.6-1.2C99.2,56,99.2,55.9,99.2,55.7z"/>
	<path class="st6" d="M114.8,95.5c-0.5-0.2-1.1-0.2-1.6-0.2c-4.5,0-9.1,0-13.6,0c-0.2-0.7,0.1-1.3,0.2-1.9c0.1-0.3,0.1-0.7,0.4-1
		c5.4,0,10.9,0,16.3,0c0.4,0,0.8,0,1.2,0.2C116.8,93.6,115.8,94.6,114.8,95.5z"/>
	<path class="st10" d="M55.3,59.2c-2.5,0-5.1,0.1-7.6,0c-2.1-0.1-4.1-0.2-6.2-0.2c-0.4,0-0.8-0.1-0.8-0.6c1-1.1,2-2.1,3.2-3.1
		c3.3,0.1,6.7,0,10,0.1c0.7,0,1.4-0.1,2.1,0c0.1,0,0.2,0.1,0.2,0.2C56.1,56.9,56,58.1,55.3,59.2z"/>
	<path class="st8" d="M91,54.5c-1.2-0.1-1.2-0.8-1.2-1.8c0-5.6,0-11.3,0-16.9c0-0.5,0-1,0.4-1.4c0.7,0.9,1.8,1.3,2.3,2.3
		c-0.3,0.6-0.4,1.2-0.4,1.9c0,5.3,0,10.6,0,15.9C91.8,54.9,91.4,54.9,91,54.5z"/>
	<path class="st10" d="M55.4,110.7c0.6-0.1,0.5-0.6,0.5-1c0-3.6,0-7.3,0-10.9c1.2-0.4,2.3,0,3.3,0.6c0,3.4,0,6.8,0,10.2
		c0,1.2-0.2,2.4-0.2,3.7c0,0.3-0.1,0.6-0.5,0.6C57.5,112.8,56.5,111.8,55.4,110.7z"/>
	<path class="st17" d="M51.4,97.5c0,2.6,0,5.3,0,7.9c0,0.4-0.2,0.7-0.6,0.8c-1.7-1.7-3.4-3.4-5.1-5.1c-0.1-1.9-0.4-3.7,0.2-5.5
		c0.5-0.5,0.9-0.1,1.3,0c1.1,0.5,2.4,0.9,3.5,1.4C51.1,97.1,51.3,97.2,51.4,97.5z"/>
	<path class="st18" d="M103.7,57.1c0-2.4,0-4.8,0-7.2c0-0.6,0-1.1,0.4-1.6c1.6,1.6,3.4,3.1,4.9,4.8c0.4,0.7,0.3,1.5,0.3,2.3
		c0,1.1,0.1,2.3-0.1,3.4c-0.3,0.6-0.8,0.3-1.2,0.2c-1.2-0.5-2.4-1-3.7-1.4C104,57.5,103.7,57.5,103.7,57.1z"/>
	<path class="st18" d="M97.7,103.5c1,0.3,2,0.2,3,0.2c1.6,0,3.2,0,4.7,0c0.3,0,0.7-0.2,0.9,0.3c-1.6,1.4-2.8,3.2-4.5,4.5
		c-0.3,0.2-0.7,0.3-1,0.3c-1.6-0.1-3.3,0.3-4.9-0.2c-0.3-0.2-0.2-0.5-0.1-0.8c0.6-1.3,1-2.6,1.5-3.9
		C97.3,103.7,97.4,103.5,97.7,103.5z"/>
	<path class="st18" d="M49.7,49.5c1.2-1.2,2.5-2.5,3.7-3.7c0.3-0.2,0.7-0.3,1.1-0.3c1.5,0,3,0.2,4.5,0.3c0.3,0.1,0.3,0.4,0.2,0.7
		c-0.6,1.3-0.8,2.8-1.7,4c-0.1,0.1-0.3,0.2-0.4,0.2c-2.3,0.2-4.6,0.2-6.9,0C49.4,50.6,49.3,50.2,49.7,49.5z"/>
	<path class="st12" d="M49.7,49.5c-0.1,0.4-0.2,0.9,0.4,0.9c2.5,0,5,0.3,7.6-0.2c0.1,0.1,0.1,0.2,0.1,0.3c-0.2,0.9-0.5,1.7-0.8,2.6
		c-0.1,0.3-0.3,0.6-0.6,0.7c-1.4,0.2-2.8-0.2-4.2-0.1c-1.5,0.1-3,0.1-4.4,0c-1-0.1-1.2-0.4-0.9-1.2C47.7,51.4,48.7,50.5,49.7,49.5z"
		/>
	<path class="st19" d="M46.7,52.4c-0.2,0.7,0.1,1,0.8,1c1,0,2,0,3,0c2-0.1,4,0.2,6,0.2c0.4,0.8,0.1,1.4-0.4,1.9
		c-0.3,0.2-0.7,0.2-1.1,0.2c-3.2,0-6.4,0-9.6,0c-0.5,0-1-0.1-1.5-0.4C44.8,54.4,45.8,53.4,46.7,52.4z"/>
	<path class="st20" d="M83.2,29.4c-0.3,0-0.5,0-0.8,0c-1.1,0.2-2.2-0.4-3.3-0.3c-1,0-2,0-3,0.3c-0.5,0.1-1.1,0.2-1.6,0.4
		c-0.6,0.2-1.3,0.5-1.8,0.8c-0.5,0.2-1,0.6-1.7,0.6c-0.3-0.1-0.6-0.1-1-0.2c-0.3-0.1-0.5-0.2-0.3-0.6c1.6-1.2,3.5-1.7,5.4-1.9
		c2.6-0.4,5.2-0.1,7.8,0.7C83,29.2,83.1,29.3,83.2,29.4z"/>
	<path class="st21" d="M57.7,41.5c0.8-0.8,1.6-1.6,2.4-2.3c0.9-0.1,1.8-0.3,2.7,0.3c0.3,0.4,0,0.7-0.1,1c-0.5,0.6-0.6,1.4-1.4,1.6
		c-0.9,0.1-1.7,0.1-2.6,0.1C58.2,42.1,57.7,42,57.7,41.5z"/>
	<path class="st22" d="M111.7,55.8c0.8,0.8,1.7,1.5,2.3,2.4c-0.2,0.6-0.1,1.3-0.1,1.9c0,0.5,0,1-0.4,1.4c-0.9-0.1-1.7-0.5-2.1-1.4
		c-0.1-1.2-0.1-2.3-0.1-3.5C111.4,56.4,111.4,56.1,111.7,55.8z"/>
	<path class="st23" d="M29.6,71.7c0,0.1,0,0.3,0,0.4c0.2,1.1-0.4,2.1-0.3,3.2c0,0.9-0.1,1.7,0.1,2.6c0.1,0.6,0.2,1.1,0.3,1.6
		c0.1,0.3,0.1,0.6,0.2,0.9c0.2,0.8,0.8,1.5,0.8,2.4c0,0.4-0.1,0.7-0.2,1c-0.2,0.4-0.4,0.4-0.6,0.1C28.1,79.8,27.9,75.8,29.6,71.7z"
		/>
	<path class="st24" d="M41.7,97c-0.7-0.7-1.4-1.4-2.1-2.2c-0.3-0.9-0.1-1.8,0-2.7c0.5-0.5,0.9,0.1,1.3,0.2c0.5,0.3,1.1,0.5,1.2,1.2
		C42,94.3,42,95.1,42,96C41.9,96.3,42,96.7,41.7,97z"/>
	<path class="st23" d="M125.7,82c0-0.2,0-0.4,0-0.6c-0.3-0.4-0.2-0.9-0.1-1.3c0.2-0.9,0.3-1.8,0.1-2.7c-0.1-0.5-0.1-0.9-0.2-1.4
		c-0.2-0.7-0.3-1.4-0.6-2.1c-0.2-0.6-0.6-1.2-0.6-1.8c0.2-0.5-0.1-1.2,0.7-1.3C126.8,74.4,127,78.2,125.7,82z"/>
	<path class="st25" d="M39.7,92c0,1,0.1,1.9-0.2,2.9c-0.8-0.7-1.6-1.5-2.3-2.3c-0.4-0.7-0.4-1.5,0-2.2c0.1-0.1,0.3-0.2,0.4-0.1
		C38.4,90.7,39.3,91.1,39.7,92z"/>
	<path class="st26" d="M62.7,39.5c-0.9-0.4-1.8,0-2.7-0.4c0.8-0.9,1.6-1.7,2.5-2.5c0.7,0.1,1.4,0,2,0.3c0.1,0,0.1,0.1,0.1,0.2
		C64.2,38,63.8,39,62.7,39.5z"/>
	<path class="st27" d="M72.7,125.3c0.3,0,0.5,0,0.8,0c0.9-0.3,1.8,0.2,2.7,0.1c0.9,0,1.8-0.1,2.6-0.3c0.7-0.2,1.5-0.3,2.2-0.6
		c0.5-0.2,1-0.4,1.5-0.5c0.6,0.1,1.3-0.2,1.5,0.7C80.3,126.4,76.5,126.6,72.7,125.3z"/>
	<path class="st28" d="M41.7,97c0.1-1.2-0.2-2.5,0.2-3.7c0.8-0.2,1.3,0.3,1.6,0.9c0.1,1.2,0.1,2.3,0.1,3.5c0,0.3,0,0.6-0.3,0.8
		C42.7,98.1,42.2,97.5,41.7,97z"/>
	<path class="st29" d="M90.4,119.9c-0.8,1-1.8,2-2.8,2.7c-0.6,0.3-1.3,0.4-1.9,0c-0.4-0.4,0-0.6,0.2-0.9c0.5-0.5,1.1-1,1.6-1.5
		c0.3-0.4,0.7-0.7,1.3-0.8C89.3,119.6,89.9,119.5,90.4,119.9z"/>
	<path class="st30" d="M69.7,30.4c0.3,0.7,1,0.1,1.4,0.6c-0.1,0.7-0.8,0.8-1.1,1.1c-0.8,0.4-1.3,1.2-2.2,1.4c-0.6,0-1.3,0.3-1.4-0.7
		C67.4,31.8,68.4,30.9,69.7,30.4z"/>
	<path class="st31" d="M54.3,44.9c0.3-0.3,0.6-0.6,1-1c1.6-0.5,3.2-0.3,4.8-0.1c0.4,0.2,0.3,0.5,0.2,0.8c-0.1,0.4-0.4,0.6-0.8,0.7
		c-1.4,0.2-2.8,0.1-4.2,0C54.9,45.4,54.5,45.3,54.3,44.9z"/>
	<path class="st32" d="M97.4,112.8c-0.4,0.6-1,1.1-1.5,1.6c-1,0.1-2,0.3-3-0.2c-0.2-0.3-0.1-0.5,0-0.8c0.2-0.4,0.3-1,0.9-1
		c0.8,0,1.6,0,2.3,0C96.6,112.4,97.1,112.4,97.4,112.8z"/>
	<path class="st33" d="M120.5,64.6c1,0.9,2,1.8,2.7,2.9c-0.1,0.1-0.4,0-0.3,0.3c0.1,0.4,0,0.7-0.3,1c-0.5,0.2-0.7-0.1-0.9-0.4
		c-0.5-0.7-1.1-1.2-1.7-1.8c-0.1-0.1-0.2-0.3-0.2-0.4C119.9,65.7,119.7,64.9,120.5,64.6z"/>
	<path class="st34" d="M95.7,108.4c0.7,0.4,1.4,0.2,2.1,0.2c1.3,0,2.6,0,4,0c-0.3,0.4-0.6,0.7-1,1c-1.6,0.6-3.3,0.3-4.9,0.2
		c-0.2,0-0.4-0.2-0.5-0.4C95.2,108.9,95.3,108.6,95.7,108.4z"/>
	<path class="st35" d="M111.7,55.8c0,1.5,0,3,0,4.5c-0.7,0.2-1.1-0.2-1.4-0.8c-0.2-1.3-0.1-2.6-0.1-3.9c0-0.3,0-0.8,0.5-0.8
		C111.1,55.2,111.4,55.5,111.7,55.8z"/>
	<path class="st36" d="M108.9,59c0-2,0-3.9,0-5.9c0.4,0.3,0.7,0.6,1,1c0.5,1.7,0.3,3.5,0.2,5.3C109.5,59.9,109.2,59.6,108.9,59z"/>
	<path class="st37" d="M90.4,119.9c-0.6,0-1.2,0.1-1.8-0.2c-0.2-0.4,0.1-0.7,0.4-0.9c0.5-0.5,0.9-1,1.3-1.6c0.2-0.2,0.3-0.4,0.6-0.2
		c0.5,0.5,1.3,0.1,1.9,0.6C92,118.4,91.3,119.2,90.4,119.9z"/>
	<path class="st38" d="M122.6,69c0.1-0.4,0.2-0.7,0.2-1.1c0-0.4,0.2-0.4,0.5-0.3c0.8,0.9,1.4,2,1.9,3.1c-0.7,0.3-0.1,1-0.6,1.4
		c-0.1,0.1-0.2,0.1-0.2,0c-0.5-0.6-0.7-1.3-1.3-1.9C122.8,69.9,122.3,69.6,122.6,69z"/>
	<path class="st39" d="M113.4,61.5c0.3-0.8,0.2-1.6,0.2-2.5c0-0.3-0.1-0.7,0.4-0.8c0.5,0.4,1.1,0.8,1.4,1.4c0,0.9,0.3,1.8-0.2,2.6
		c-0.4,0.3-0.7,0-1-0.1C113.9,62,113.5,61.9,113.4,61.5z"/>
	<path class="st40" d="M97.4,112.8c-0.8-0.3-1.7-0.1-2.6-0.2c-0.4,0-0.8,0.1-1.1-0.2c-0.1-0.7,0.1-1.2,0.9-1.4
		c1,0.2,1.9,0.1,2.9,0.1c0.4,0,0.9-0.1,1.3,0.3C98.4,112,97.9,112.4,97.4,112.8z"/>
	<path class="st41" d="M45.2,100.5c-0.4-0.3-0.7-0.6-1-1c-0.3-0.4-0.3-0.8-0.3-1.3c0-1.2-0.1-2.4,0.1-3.6c0.2-0.4,0.5-0.2,0.8-0.1
		c0.3,0.1,0.5,0.4,0.6,0.7c0.2,1.5,0.1,3,0.1,4.5C45.5,100,45.4,100.3,45.2,100.5z"/>
	<path class="st26" d="M92.8,117.5c-0.5,0-0.9,0-1.4,0c-0.4,0-0.6-0.2-0.5-0.6c0.2-0.8,0.5-1.6,1.4-1.8c0.4,0.1,0.9,0.2,1.3,0.2
		c0.3,0,0.7,0,0.9,0.4C94,116.5,93.4,117,92.8,117.5z"/>
	<path class="st42" d="M95.5,109.1c0.1,0.5,0.5,0.4,0.8,0.4c1.5,0,3,0,4.4,0c-0.2,0.4-0.7,0.7-1,1c-1.5,0.6-3.1,0.3-4.7,0.2
		c-0.6-0.5-0.2-1,0.1-1.5C95.3,109.1,95.4,109.1,95.5,109.1z"/>
	<path class="st43" d="M57.7,41.5c0.3,0.3,0.6,0.4,1,0.4c0.9,0,1.8,0,2.7,0c0.1,0.7-0.2,1.1-0.8,1.4c-1.1,0.2-2.2,0.1-3.3,0.1
		c-0.3,0-0.8,0-0.8-0.6C56.9,42.3,57.2,41.8,57.7,41.5z"/>
	<path class="st44" d="M85.5,122.4c0.6,0.4,1.3,0.1,2,0.2c-1,1-2.2,1.7-3.5,2.1c-0.4-0.6-1-0.4-1.6-0.4c0-0.1,0-0.2,0-0.3
		c0.6-0.5,1.3-0.7,1.9-1.2C84.7,122.6,85,122.3,85.5,122.4z"/>
	<path class="st45" d="M29.9,83.8c0.9-0.1,0.4-0.8,0.7-1.2c0.1,0,0.2,0,0.3,0c0.5,0.6,0.7,1.3,1.3,1.9c0.2,0.3,0.4,0.6,0.4,0.9
		c0,0.6,0.1,1.3-0.6,1.7C31.1,86.1,30.4,85,29.9,83.8z"/>
	<path class="st46" d="M37.4,90.3c-0.3,0.7-0.2,1.5-0.2,2.3c-0.7-0.7-1.4-1.4-2.2-2.1c-0.2-0.6-0.1-1.2,0.2-1.7
		c0.9-0.1,1.3,0.7,2,1.2C37.3,90,37.4,90.1,37.4,90.3z"/>
	<path class="st47" d="M44.2,94.5c0,1.7,0,3.3,0,5c-0.4-0.3-0.7-0.6-1-1c0-1.5,0-3,0-4.5C43.7,93.9,44,94.1,44.2,94.5z"/>
	<path class="st48" d="M115,62.3c0.4-0.9-0.1-1.9,0.4-2.7c0.6,0.5,1.3,1,1.8,1.7c-0.3,0.7-0.1,1.5-0.3,2.2c-0.2,0.3-0.5,0.2-0.7,0
		C115.8,63.2,115.2,62.9,115,62.3z"/>
	<path class="st49" d="M56.5,42.8c0.2,0.4,0.6,0.3,0.9,0.3c1.1,0,2.2,0,3.3,0c0.2,0.5-0.1,0.8-0.6,1c-1.7,0-3.3,0-5,0
		C55.6,43.6,56,43.2,56.5,42.8z"/>
	<path class="st46" d="M120.5,64.6c-0.4,0.5-0.4,1.2-0.5,1.8c-1.1-0.3-1.7-1.2-2.2-2.2c-0.1-0.4-0.1-0.7,0-1.1
		c0.1-0.3,0.2-0.6,0.6-0.4C119.3,63.2,119.9,64,120.5,64.6z"/>
	<path class="st47" d="M94.9,110.5c1.6,0,3.2,0,4.9,0c-0.2,0.4-0.6,0.7-0.9,1c-1.2,0-2.3,0-3.5,0c-0.3,0-0.7,0.2-0.8-0.4
		C94.4,110.8,94.5,110.5,94.9,110.5z"/>
	<path class="st50" d="M45.2,100.5c0-1.8,0-3.6,0-5.4c0.4-0.2,0.8-0.2,1,0.4c-0.3,1.5-0.1,2.9-0.2,4.4c0,0.4,0,0.8-0.2,1.2
		C45.6,100.9,45.4,100.7,45.2,100.5z"/>
	<path class="st51" d="M94.5,115.8c-0.4-0.3-0.9-0.2-1.3-0.2c-0.4,0-0.8,0-1-0.4c-0.2-0.7,0.2-1,0.8-1.2c0.3,0.4,0.8,0.2,1.2,0.2
		c0.6,0,1.2,0,1.8,0.2C95.6,115,94.9,115.3,94.5,115.8z"/>
	<path class="st37" d="M64.6,37c-0.7-0.1-1.5,0.3-2.1-0.4c0.5-0.7,1.2-1.3,1.9-1.9c0.5,0.2,1,0.2,1.5,0.3c0.2,1-0.6,1.4-1.2,1.9
		C64.7,37,64.7,37,64.6,37z"/>
	<path class="st52" d="M66.1,35.2c-0.6-0.1-1.3,0.3-1.6-0.5c0.7-0.6,1.3-1.3,2-1.9c0.4,0.8,1.1,0.4,1.6,0.5c0,0.7-0.7,1-1.1,1.4
		C66.7,34.9,66.5,35.3,66.1,35.2z"/>
	<path class="st53" d="M54.3,44.9c1.8,0.5,3.6,0.1,5.4,0.2c0.2,0.4,0.1,0.7-0.4,0.8c-1.9,0.1-3.9-0.3-5.8-0.2
		C53.7,45.5,54,45.2,54.3,44.9z"/>
	<path class="st52" d="M35.4,88.7c-0.1,0.6-0.3,1.2-0.4,1.8c-0.5-0.5-1-1.1-1.6-1.6c-0.3-0.6-0.1-1.2,0.3-1.7c0.5-0.2,0.7,0.2,1,0.4
		C35,87.9,35.5,88.1,35.4,88.7z"/>
	<path class="st54" d="M118.5,62.7c-0.8,0.4-0.2,1.2-0.4,1.8c-0.2,0.2-0.4,0.1-0.7,0c-0.3-0.2-0.6-0.4-0.7-0.8c0-0.5,0-1.1,0-1.6
		c0-0.3,0-0.7,0.5-0.7C117.7,61.8,118.2,62.1,118.5,62.7z"/>
	<path class="st55" d="M33.9,87.1c-0.1,0.6-0.3,1.2-0.4,1.7c-0.6-0.5-1.1-1.1-1.6-1.7c0.4-0.5,0.4-1.1,0.4-1.8
		C33.2,85.6,33.6,86.3,33.9,87.1z"/>
	<path class="st56" d="M109.9,59.6c0-1.8,0-3.7,0-5.5c0.3,0.2,0.6,0.5,0.8,0.8c-0.4,0.3-0.2,0.6-0.2,1c0,1.3,0,2.6,0,3.9
		c-0.2,0.1-0.4,0-0.5-0.1C110,59.6,109.9,59.6,109.9,59.6z"/>
	<path class="st57" d="M54.9,72.5c0.2,1,0.3,1.9,0.5,2.9c-0.4,0.5-1,0.5-1.5,0.5c-1.9,0.1-3.8-0.1-5.6-0.2c-2.7-0.1-5.4-0.1-8.1,0
		c-3.3,0.1-6.7-0.3-10-0.2c-0.4,0-0.8,0-1.1-0.3c0-1.1,0.2-2.1,0.6-3.1c0.2-0.3,0.5-0.4,0.9-0.4c2.2,0,4.5-0.1,6.7,0
		c5,0.3,10,0,14.9,0.2C53.1,71.9,54.1,71.8,54.9,72.5z"/>
	<path class="st58" d="M58,66c-1.1,0.9-2.2,1.7-3.3,2.6c-0.2-0.1-0.2-0.4-0.2-0.6c-0.1-1.6,0.3-3.1,0.2-4.7c0-0.1,0-0.1,0-0.2
		c0.2-0.3,0-0.7,0.2-1c0.1-1,0.3-2,0.4-2.9c0.3-1.2,0.5-2.5,0.8-3.7c0.2-0.6,0.4-1.3,0.4-1.9c0.5-1,0.6-2.1,1.1-3.1
		c0.7,0.2,0.5,0.8,0.5,1.3c0,2.9,0,5.8,0,8.7c0,1.6-0.1,3.2,0,4.7C58.2,65.5,58.2,65.8,58,66z"/>
	<path class="st59" d="M100,81.1c-0.1-0.8-0.3-1.7-0.4-2.5c0.5-0.4,1.1-0.3,1.7-0.3c7.6,0,15.2,0,22.8,0c0.8,0,1.5-0.1,1.9-0.9
		c0.4,1.1,0.1,2.1,0,3.2c0,0.3-0.1,0.6-0.2,0.9c-8.2,0-16.3,0-24.5,0C100.8,81.4,100.3,81.6,100,81.1z"/>
	<path class="st60" d="M81.8,54.7c-0.9,0.2-1.8,0.3-2.7,0.5c-0.4-0.4-0.3-0.8-0.3-1.3c0-7.9,0-15.9,0-23.8c0-0.4,0-0.9,0.3-1.3
		c1.2-0.1,2.3,0.1,3.3,0.5c0,8.1,0,16.1,0,24.2C82.4,54.1,82.4,54.5,81.8,54.7z"/>
	<path class="st58" d="M66.4,96.9c0.8,1,1.6,2.1,2.4,3.1c-0.1,0.1-0.2,0.2-0.2,0.2c-1,0-2.1,0-3.1,0c0,0,0,0,0,0
		c-0.4-0.3-0.9,0-1.4-0.2c-0.7-0.1-1.3-0.1-2-0.2c-1-0.1-1.9-0.3-2.9-0.4c-1.1-0.2-2.2-0.5-3.3-0.6c-1.5-0.4-3-0.9-4.5-1.3
		c-0.2-0.1-0.4-0.2-0.6-0.2c-0.3-0.2-0.2-0.4,0.1-0.5c0.4-0.2,0.8-0.1,1.1-0.1c3.8,0,7.6,0,11.3,0C64.4,96.6,65.4,96.7,66.4,96.9z"
		/>
	<path class="st2" d="M54.9,62.1c0,0.3,0.1,0.7-0.2,1C54.8,62.8,54.6,62.4,54.9,62.1z"/>
	<path class="st61" d="M100.3,85.9c0-0.3,0-0.6,0-0.9c0.3,0.6,0.1,1.3,0.2,1.9c-0.1,0.7,0.2,1.5-0.2,2.1
		C99.9,88,99.9,86.9,100.3,85.9z"/>
	<path class="st5" d="M64.1,100c0.5,0.1,0.9-0.2,1.4,0.2C65,100.1,64.5,100.3,64.1,100z"/>
	<path class="st62" d="M100.3,85.9c0,1.1,0,2.1,0,3.2c0,0.1,0,0.3,0,0.4c0,0.2,0,0.4,0,0.6c-0.3,0.6,0.1,1.2-0.2,1.7
		c0,0.1,0,0.3,0,0.4c-0.2,0.4,0,0.8-0.2,1.2c0,0.7-0.2,1.3-0.4,1.9c-0.1,1.1-0.4,2.2-0.6,3.3c-0.3,1-0.5,2.1-0.8,3.1
		c-0.5,0.2-0.5-0.2-0.6-0.5c-0.1-0.3-0.1-0.7-0.1-1.1c0-3.6,0-7.1,0-10.7c0-0.6,0-1.1,0.3-1.6C98.7,87.2,99.5,86.5,100.3,85.9z"/>
	<path class="st63" d="M100.2,91.8c0.1-0.6-0.2-1.2,0.2-1.7C100.3,90.6,100.6,91.2,100.2,91.8z"/>
	<path class="st64" d="M100,93.3c0-0.4-0.2-0.8,0.2-1.2c0,0.1,0,0.1,0,0.2C100.1,92.7,100.3,93.1,100,93.3z"/>
	<path class="st58" d="M88.7,57.7c-0.8-1.1-1.7-2.1-2.5-3.2c0.4-0.3,0.9-0.1,1.4-0.2c1.2,0.1,2.3,0.1,3.5,0.2c0.4,0,0.8,0,1.2,0
		c1.2,0.2,2.3,0.4,3.5,0.6c1.2,0.2,2.3,0.4,3.5,0.6c1.5,0.4,2.9,1.1,4.5,1.3c0.1,0.2,0.4,0.2,0.6,0.2c-0.3,0.8-1,0.6-1.5,0.7
		c-1.9,0.1-3.8,0-5.6,0c-2.3,0-4.6,0-6.9,0C89.6,58,89.1,58,88.7,57.7z"/>
	<path class="st59" d="M73.6,99.8c0.9-0.2,1.8-0.4,2.7-0.5c0.3,0.4,0.3,0.8,0.3,1.2c0,1.7,0.1,3.5,0,5.2c-0.3,3-0.1,5.9-0.2,8.9
		c0,3.2,0,6.5,0,9.7c0,0.5,0.1,1.1-0.3,1.5c-0.9,0.1-1.8-0.1-2.7-0.3C73.5,116.8,73.4,108.3,73.6,99.8z"/>
	<path class="st65" d="M97.8,87.8c0,4.3,0,8.6,0,12.9c0,0.3-0.2,0.8,0.4,1c-0.2,0.6-0.4,1.2-0.5,1.8c-0.7,1.6-1.1,3.3-2,4.9
		c-0.2,0.2-0.2,0.5-0.2,0.8c-0.1,0-0.1,0-0.2,0c-0.5-0.2-0.5-0.7-0.5-1.2c0-5.4,0-10.8,0-16.2c0-0.6,0.1-1.3,0.3-1.9
		C96,89.2,96.9,88.5,97.8,87.8z"/>
	<path class="st66" d="M66.4,96.9c-0.8,0.4-1.5,0-2.3,0c-4.3,0-8.6,0-12.9,0c-0.2,0-0.6-0.1-0.4,0.4c-1.2-0.4-2.4-0.8-3.5-1.4
		c0.2-0.6,0.8-0.6,1.3-0.6c1-0.1,2.1-0.1,3.1,0c4.1,0.4,8.2,0.1,12.2,0.2c0.5,0,1-0.1,1.5,0.3C65.8,96.1,66.1,96.5,66.4,96.9z"/>
	<path class="st66" d="M65.5,95.7c-3.7,0-7.3,0-11,0c-1.7,0-3.5-0.3-5.2-0.2c-0.7,0-1.3,0.1-2,0.4c-0.4-0.1-0.8-0.3-1.2-0.4
		c-0.3-0.3-0.6-0.3-1-0.4c-0.1-0.1-0.3-0.2-0.4-0.4c0.1-0.6,0.6-0.6,1-0.6c3.9,0.2,7.9,0.1,11.8,0c2.1,0,4.1,0.3,6.2,0.2
		c0.4,0,0.7,0.1,1,0.3C65.1,95,65.4,95.3,65.5,95.7z"/>
	<path class="st67" d="M88.7,57.7c4.7,0,9.3,0,14,0c0.6,0,1.1,0,1.6-0.4c1.6,0.6,3.1,1.2,4.7,1.7c0.3,0.3,0.6,0.4,1,0.5c0,0,0,0,0,0
		c0.3,0.2,0.2,0.4-0.1,0.6c-0.4,0.2-0.9,0.1-1.3,0.1c-5.3,0-10.7,0-16,0c-0.7,0-1.4,0.3-2-0.1C89.9,59.3,89.3,58.5,88.7,57.7z"/>
	<path class="st66" d="M58,66c-0.3-1.4-0.2-2.8-0.2-4.2c0-3.4,0-6.9,0-10.3c0-0.4,0.1-0.8-0.2-1.1c0-0.1,0-0.1,0-0.2
		c0.5-1.4,1.1-2.9,1.6-4.3c0.2-0.2,0.3-0.5,0.4-0.8c0.1-0.2,0.3-0.4,0.4-0.6c0.5-0.2,0.5,0.2,0.6,0.5c0.1,0.4,0.1,0.8,0.1,1.2
		c0,5.5,0,11,0,16.5c0,0.5,0.1,1.1-0.3,1.6C59.6,64.9,58.8,65.5,58,66z"/>
	<path class="st68" d="M72.9,57.3c-0.8,0.4-1.7,0.8-2.5,1.2C69.9,58,70,57.4,70,56.8c0-7.1,0-14.3,0-21.4c0-1.2,0-2.3-0.1-3.5
		c0.4-0.3,0.8-0.6,1.2-1c0.5-0.2,1-0.4,1.5-0.6c0.6,0.3,0.5,0.9,0.5,1.5c0,2.4,0,4.8,0,7.2c0,5.5,0,11.1,0,16.6
		C73.2,56.2,73.3,56.8,72.9,57.3z"/>
	<path class="st69" d="M79.1,28.8c0,8.8,0,17.6,0,26.4c-0.8,0.2-1.7,0.5-2.5,0.7c-0.4-0.5-0.3-1.1-0.3-1.7c0-7.6,0-15.3,0-22.9
		c0-0.7,0-1.4-0.3-2.1C77,28.7,78,28.8,79.1,28.8z"/>
	<path class="st70" d="M76,29.2c0.7,0.1,0.6,0.6,0.6,1.1c0,3.1,0,6.2,0,9.2c0,5.5,0,10.9,0,16.4c-0.6,0.2-1.3,0.5-1.9,0.7
		c-0.4-0.4-0.3-0.8-0.3-1.3c0-8.3,0-16.6,0-24.9c0-0.3,0-0.6,0.1-0.9C74.9,29.3,75.4,29.2,76,29.2z"/>
	<path class="st71" d="M74.4,29.6c0.3,0.3,0.2,0.7,0.2,1.1c0,8.6,0,17.3,0,25.9c-0.6,0.2-1.2,0.5-1.8,0.7c0-8.6,0-17.1,0-25.7
		c0-0.5,0-0.9-0.2-1.3C73.2,29.9,73.8,29.7,74.4,29.6z"/>
	<path class="st72" d="M65.1,61.3c-0.8,0.5-1.5,1.1-2.3,1.4c-0.4-0.5-0.3-1-0.3-1.6c0-5.9,0-11.9,0-17.8c0-1,0-2-0.1-3
		c0.1-0.3,0.3-0.5,0.4-0.8c0.6-0.9,1.3-1.7,1.9-2.6c0,0,0.1,0,0.1,0c0.5-0.2,0.5,0.2,0.6,0.5c0.1,0.3,0.1,0.7,0.1,1.1
		c0,7.1,0,14.1,0,21.2C65.4,60.3,65.4,60.9,65.1,61.3z"/>
	<path class="st73" d="M62.4,40.3c0.5,0.4,0.4,0.9,0.4,1.5c0,7,0,14,0,20.9c-0.7,0.7-1.5,1.1-2.3,1.6c0-6.2,0-12.5,0-18.7
		c0-0.4,0.3-0.9-0.4-1c0.1-0.2,0.1-0.4,0.2-0.6c0.2-0.3,0.4-0.7,0.6-1c0.2-0.4,0.4-0.8,0.6-1.2C61.7,41.3,62,40.8,62.4,40.3z"/>
	<path class="st73" d="M90.5,60.2c0.8-0.2,1.6-0.2,2.4-0.2c5.4,0,10.9,0,16.3,0c0.2,0,0.8,0.4,0.7-0.4c0.2,0.1,0.4,0.1,0.6,0.2
		c0.4,0.2,0.7,0.5,1.2,0.6c0.5,0.5,1.3,0.6,1.8,1.2c0.3,0.1,0.5,0.3,0.8,0.4c0,0.5-0.4,0.6-0.7,0.6c-0.4,0.1-0.8,0.1-1.2,0.1
		c-6.2,0-12.5,0-18.7,0c-0.6,0-1.2,0.1-1.7-0.3C91.5,61.6,91,60.9,90.5,60.2z"/>
	<path class="st69" d="M29,75.2c6.7,0.1,13.4,0.2,20,0.2c1.5,0,3.1,0.1,4.7,0.2c0.6,0,1.1,0,1.6-0.2c0.3,1,0.6,1.9,0.8,2.9
		c-0.4,0.3-0.8,0.3-1.3,0.3c-6.6-0.2-13.2-0.2-19.9-0.2c-1.5,0-3.1-0.2-4.7-0.2c-0.4,0-0.8,0-1.1-0.3C28.9,77,29,76.1,29,75.2z"/>
	<path class="st74" d="M56.9,80.4c0.3,0.6,0.6,1.1,0.8,1.8c-0.3,0.3-0.7,0.3-1.1,0.3c-4.2,0-8.3,0.2-12.5,0
		c-3.8-0.2-7.7-0.1-11.5-0.1c-0.7,0-1.3,0.1-1.9,0.3c-0.1,0-0.1,0-0.2,0c-0.3-0.8-0.6-1.5-0.8-2.3c0.4-0.4,0.8-0.3,1.3-0.3
		c7.2,0,14.5,0.3,21.7,0.2C54.1,80.2,55.5,80.1,56.9,80.4z"/>
	<path class="st70" d="M56.9,80.4c-1.2,0.3-2.5,0.3-3.8,0.1c-0.9-0.1-1.7-0.1-2.6,0c-6.9,0.1-13.9-0.3-20.8-0.2
		c-0.2-0.2-0.1-0.5-0.2-0.7c-0.2-0.5,0.2-0.6,0.6-0.7c0.4-0.1,0.8-0.1,1.3-0.1c7,0,13.9,0.3,20.9,0.2c1.4,0,2.8,0,4.2,0.3
		C56.7,79.7,56.8,80,56.9,80.4z"/>
	<path class="st70" d="M56.5,79.3c-1,0.3-2.1,0.3-3.2,0.1c-0.3-0.1-0.7-0.1-1.1-0.1c-2.7,0-5.3,0-8,0c-4.6,0.1-9.1-0.4-13.7-0.2
		c-0.4,0-0.9-0.2-1,0.4c-0.3-0.5-0.4-1-0.4-1.6c6.4,0.3,12.8,0.1,19.1,0.2c2.6,0.1,5.2,0.1,7.8,0.1C56,78.7,56.6,78.9,56.5,79.3z"/>
	<path class="st72" d="M61.8,90c0.5,0.8,1,1.6,1.5,2.3c-0.3,0.5-0.7,0.5-1.2,0.5c-0.8,0-1.6,0.1-2.4,0c-4-0.4-8-0.2-11.9-0.2
		c-2.3,0-4.7-0.3-7-0.2c-0.3-0.2-0.7-0.4-1-0.5c-0.8-0.6-1.6-1.2-2.3-1.7c-0.1-0.1-0.1-0.2-0.2-0.2c-0.1-0.7,0.5-0.7,0.9-0.7
		c1.1-0.1,2.2-0.1,3.3,0c2.2,0.3,4.4,0.2,6.6,0.1c4.3-0.1,8.6,0.1,12.9,0.2C61.2,89.7,61.6,89.7,61.8,90z"/>
	<path class="st73" d="M40.7,92.5c0.9-0.7,1.9-0.3,2.8-0.3c0.4,0,0.8,0.1,1.2,0.1c2.6,0,5.3,0.1,7.9,0c3.1-0.1,6.1,0.2,9.2,0.2
		c0.5,0,1,0,1.4-0.2c0.5,0.8,1,1.6,1.6,2.3c-6.1-0.3-12.2-0.2-18.4-0.2c-0.6,0-1.2-0.5-1.7,0.2c-0.2-0.1-0.4-0.1-0.6-0.2
		c-0.3-0.2-0.6-0.4-1-0.4c-0.4-0.3-0.8-0.7-1.4-0.8C41.5,93.1,41.1,92.8,40.7,92.5z"/>
	<path class="st75" d="M125.9,77.3c0.2,1-0.3,1.2-1.2,1.2c-8.4,0-16.7,0-25.1,0c-0.2-0.8-0.5-1.7-0.7-2.5c0.3-0.2,0.7-0.1,1-0.1
		c8.3,0,16.5,0,24.8,0c0.4,0,0.7,0,1.1,0.1C126,76.4,125.9,76.9,125.9,77.3z"/>
	<path class="st70" d="M125.7,76c-0.3,0.3-0.7,0.2-1,0.2c-8.3,0-16.5,0-24.8,0c-0.4,0-0.8,0-1.1-0.2c-0.2-0.5-0.4-1-0.6-1.6
		c0.4-0.7,1-0.5,1.6-0.5c5.4,0,10.8,0,16.2,0c3.1,0,6.1,0.1,9.2-0.1C125.5,74.5,125.7,75.2,125.7,76z"/>
	<path class="st74" d="M125.1,73.8c-0.1,0.6-0.7,0.4-1,0.4c-8.2,0-16.4,0-24.6,0c-0.4,0-0.8-0.1-1.2,0.2c-0.4-0.6-0.6-1.3-0.8-1.9
		c0.5-0.4,1.1-0.3,1.7-0.3c6.8,0,13.6,0,20.4,0c1.6,0,3.2,0,4.9-0.1c0.1,0,0.1,0,0.2,0C124.7,72.7,124.9,73.2,125.1,73.8z"/>
	<path class="st75" d="M76.2,125.7c0-4.3,0.1-8.5,0-12.8c-0.1-4.1,0.3-8.1,0.2-12.2c0-0.5,0-1,0-1.5c0.9-0.3,1.8-0.5,2.7-0.8
		c0.4,0.4,0.3,0.8,0.3,1.3c0,5.2,0.1,10.5,0,15.7c-0.1,2.9-0.1,5.8-0.1,8.7c0,0.5,0,0.9-0.3,1.3C78,125.6,77.1,125.8,76.2,125.7z"/>
	<path class="st76" d="M78.9,125.4c0-2.7-0.1-5.3,0-8c0.4-6.3,0.1-12.6,0.2-19c0.6-0.2,1.2-0.4,1.7-0.7c0.5,0.2,0.5,0.7,0.5,1.2
		c0,2.3,0.1,4.5-0.1,6.8c-0.1,1.2,0,2.5,0,3.7c0,4.7,0,9.4,0,14.1c0,0.4,0,0.8-0.1,1.2C80.4,125.2,79.6,125.1,78.9,125.4z"/>
	<path class="st77" d="M81.1,124.7c-0.3-0.3-0.2-0.7-0.2-1c0-5.8-0.1-11.7,0-17.5c0.1-2.4,0.1-4.8,0.2-7.3c0-0.4,0-0.8-0.2-1.2
		c0.5-0.2,1.1-0.5,1.6-0.7c0.5,0.3,0.5,0.8,0.5,1.3c-0.1,4.7,0.1,9.3-0.1,14c-0.2,3.4,0,6.8,0,10.2c0,0.6,0,1.1-0.3,1.6
		c0,0.1,0,0.1,0,0.2C82,124.5,81.5,124.6,81.1,124.7z"/>
	<path class="st78" d="M84.6,96.1c1-0.5,1.9-1,2.9-1.5c0.4,0.4,0.3,0.8,0.3,1.3c0,5.9,0.1,11.7,0,17.6c0,2.3-0.2,4.7-0.1,7
		c-0.7,0.7-1.4,1.3-2.1,2c-0.4,0.2-0.8,0.4-1.1,0.6c-0.4-0.4-0.3-0.8-0.3-1.3c0-4.9-0.1-9.9,0-14.8c0.1-3.3,0.1-6.7,0.1-10
		C84.2,96.6,84.2,96.3,84.6,96.1z"/>
	<path class="st79" d="M87.6,120.4c-0.5-0.3-0.4-0.8-0.3-1.2c0.3-8.2,0.2-16.4,0.2-24.6c0.9-0.5,1.8-1,2.7-1.6
		c0.5,0.3,0.5,0.9,0.5,1.4c-0.4,6.8-0.1,13.6-0.2,20.4c0,0.8-0.2,1.7-0.1,2.5c-0.4,0.9-1.4,1.4-1.8,2.3
		C88.3,119.9,88,120.2,87.6,120.4z"/>
	<path class="st80" d="M69.9,31.9c0.5,0.4,0.4,0.9,0.4,1.4c0,8.4,0,16.8,0,25.1c-1,0.5-2.1,1.1-3.1,1.6c-0.4-0.5-0.3-1.1-0.3-1.7
		c0-6.9,0-13.9,0-20.8c0-1,0-2-0.1-3c0.4-0.4,0.8-0.9,1.2-1.3C68.7,32.9,69.2,32.2,69.9,31.9z"/>
	<path class="st81" d="M90.4,117.3c-0.3-0.3-0.4-0.7-0.4-1.2c0.4-2.9,0.1-5.8,0.2-8.7c0.1-3.2,0-6.4,0-9.6c0-1.2,0.3-2.4,0.2-3.7
		c0-0.4-0.1-0.8-0.2-1.1c0.9-0.6,1.8-1.1,2.7-1.7c0.5,0.3,0.5,0.8,0.5,1.3c-0.4,6.1-0.1,12.3-0.2,18.4c0,0.8-0.1,1.6-0.1,2.4
		c-0.1,0.2-0.1,0.4-0.2,0.6c-0.4,0.3-0.6,0.7-0.8,1.2c-0.5,0.6-0.9,1.2-1.4,1.8C90.7,117.1,90.5,117.2,90.4,117.3z"/>
	<path class="st82" d="M93.1,113.4c-0.3-0.3-0.2-0.7-0.2-1c0-6,0-12,0-18c0-1,0.5-2,0-3c0.7-0.5,1.5-1,2.2-1.5c0.4,0.6,0,1.2,0,1.8
		c0,5.6,0,11.1,0,16.7c0,0.3,0.1,0.6,0.2,0.8c-0.1,0.4-0.3,0.9-0.4,1.3c-0.1,0.2-0.2,0.4-0.4,0.6c-0.3,0.4-0.6,0.8-0.8,1.4
		C93.5,112.8,93.3,113.1,93.1,113.4z"/>
	<path class="st78" d="M96.4,70.3c-0.6-1.1-1.2-2.2-1.7-3.3c0.5-0.4,1-0.3,1.6-0.3c7.8,0,15.6,0,23.5,0c0.2,0,0.3,0,0.5,0
		c1,0.6,1.5,1.6,2.3,2.4c0.1,0.4,0.4,0.8,0.6,1.1c0,0.5-0.4,0.4-0.7,0.5c-0.4,0.1-0.7,0-1.1,0c-7.8,0-15.5,0-23.3,0
		C97.6,70.6,96.9,70.7,96.4,70.3z"/>
	<path class="st79" d="M120.2,66.6c-0.3,0.5-0.8,0.4-1.2,0.4c-8.1,0-16.2,0-24.3,0c-0.4-0.8-0.9-1.6-1.3-2.3
		c0.5-0.4,1.1-0.3,1.7-0.3c7.3,0,14.7,0,22,0c0.2,0,0.3,0,0.5,0c0.2,0.1,0.4,0.1,0.6,0.2c0.6,0.7,1.2,1.4,2,1.9
		C120.1,66.5,120.2,66.6,120.2,66.6z"/>
	<path class="st68" d="M96.4,70.3c8.5,0,17,0,25.6,0c0.4,0,0.9,0.2,1.2-0.2c0.5,0.6,0.9,1.2,1.2,2c-0.3,0.6-0.8,0.4-1.2,0.4
		c-8.6,0-17.2,0-25.7,0C97,71.8,96.7,71.1,96.4,70.3z"/>
	<path class="st72" d="M117.5,64.3c-0.3,0.5-0.8,0.4-1.2,0.4c-7.6,0-15.3,0-22.9,0c-0.5-0.8-1-1.5-1.4-2.3c7,0,14,0,21,0
		c0.4,0,0.9,0.2,1.2-0.4c0.3,0.1,0.5,0.2,0.8,0.4c0.6,0.4,1.2,0.9,1.8,1.3C117,63.9,117.3,64.1,117.5,64.3z"/>
	<path class="st68" d="M84.6,96.1c0,0.1-0.1,0.2-0.1,0.3c0.3,8.9-0.3,17.8-0.1,26.7c-0.6,0.5-1.3,0.8-2,1.1c0-3.9-0.2-7.8,0-11.7
		c0.2-4.6,0-9.3,0.2-13.9c0-0.5,0-1-0.2-1.5C83.1,96.7,83.9,96.4,84.6,96.1z"/>
	<path class="st78" d="M58.8,84.6c0.5,1,1.1,2.1,1.6,3.1c-0.2,0.3-0.6,0.3-0.9,0.3c-1.5,0-3.1,0.1-4.6-0.1c-0.6-0.1-1.2-0.1-1.7-0.1
		c-3.9,0-7.8,0-11.7,0c-2.3,0-4.6-0.3-6.9-0.1c-0.3-0.2-0.5-0.4-0.8-0.6c-0.5-0.6-0.9-1.3-1.6-1.8c-0.1-0.3-0.3-0.5-0.4-0.8
		c0.1-0.5,0.6-0.5,0.9-0.5c3.1,0,6.2-0.1,9.2,0.1c2.2,0.2,4.5,0,6.7,0.1c3.1,0,6.3-0.1,9.4,0.2C58.5,84.4,58.6,84.5,58.8,84.6z"/>
	<path class="st83" d="M58.8,84.6c-1.1,0.5-2.1,0-3.2,0c-3.2,0-6.4,0-9.5,0c-4.4,0-8.7-0.3-13.1-0.2c-0.4,0-0.8-0.1-1.1,0.2
		c-0.5-0.6-0.9-1.3-1.2-2c0-0.5,0.4-0.6,0.8-0.6c3.7,0,7.3-0.2,11,0c5,0.3,10.1,0.1,15.1,0.1C58.1,83,58.4,83.8,58.8,84.6z"/>
	<path class="st79" d="M34.6,87.7c0.2-0.4,0.4-0.4,0.8-0.4c6.4,0.3,12.8,0.1,19.2,0.2c1.9,0,3.9,0.1,5.8,0.1c0.5,0.7,1,1.5,1.3,2.3
		c-0.5,0-1,0-1.5,0c-5.8-0.3-11.6-0.1-17.4-0.2c-1.6,0-3.2-0.1-4.8-0.1c-0.3,0-0.8-0.1-0.8,0.4c-0.6-0.5-1.2-0.9-1.7-1.4
		C35.2,88.3,34.9,88,34.6,87.7z"/>
	<path class="st79" d="M66.8,34.6c0.6,0.3,0.4,0.8,0.4,1.2c0,8.1,0,16.2,0,24.3c-0.7,0.4-1.4,0.8-2.1,1.2c0-7.8,0-15.5,0-23.3
		c0-0.4,0.3-0.9-0.4-1.1c0.5-0.6,0.9-1.2,1.4-1.8C66.3,35,66.6,34.8,66.8,34.6z"/>
</g>
</svg>
