<?xml version="1.0" encoding="utf-8"?>
<!-- Generator: Adobe Illustrator 21.1.0, SVG Export Plug-In . SVG Version: 6.00 Build 0)  -->
<svg version="1.1" id="Capa_1" xmlns="http://www.w3.org/2000/svg" xmlns:xlink="http://www.w3.org/1999/xlink" x="0px" y="0px"
	 viewBox="0 0 155 155" style="enable-background:new 0 0 155 155;" xml:space="preserve">
<style type="text/css">
	.st0{fill:#EBECF0;}
	.st1{fill-rule:evenodd;clip-rule:evenodd;fill:#B00C17;}
	.st2{fill-rule:evenodd;clip-rule:evenodd;fill:#A70C16;}
	.st3{fill-rule:evenodd;clip-rule:evenodd;fill:#B10C18;}
	.st4{fill-rule:evenodd;clip-rule:evenodd;fill:#C20D1B;}
	.st5{fill-rule:evenodd;clip-rule:evenodd;fill:#B40D18;}
	.st6{fill-rule:evenodd;clip-rule:evenodd;fill:#C10D1A;}
	.st7{fill-rule:evenodd;clip-rule:evenodd;fill:#AF0D17;}
	.st8{fill-rule:evenodd;clip-rule:evenodd;fill:#B60C18;}
	.st9{fill-rule:evenodd;clip-rule:evenodd;fill:#B70D19;}
	.st10{fill-rule:evenodd;clip-rule:evenodd;fill:#D63A6E;}
	.st11{fill-rule:evenodd;clip-rule:evenodd;fill:#D64175;}
	.st12{fill-rule:evenodd;clip-rule:evenodd;fill:#D6204E;}
	.st13{fill-rule:evenodd;clip-rule:evenodd;fill:#D64879;}
	.st14{fill-rule:evenodd;clip-rule:evenodd;fill:#D52D5F;}
	.st15{fill-rule:evenodd;clip-rule:evenodd;fill:#D62655;}
	.st16{fill-rule:evenodd;clip-rule:evenodd;fill:#D62A58;}
	.st17{fill-rule:evenodd;clip-rule:evenodd;fill:#D7376E;}
	.st18{fill-rule:evenodd;clip-rule:evenodd;fill:#D53C6F;}
	.st19{fill-rule:evenodd;clip-rule:evenodd;fill:#D62652;}
	.st20{fill-rule:evenodd;clip-rule:evenodd;fill:#D63569;}
	.st21{fill-rule:evenodd;clip-rule:evenodd;fill:#D22A5C;}
	.st22{fill-rule:evenodd;clip-rule:evenodd;fill:#D53C6D;}
	.st23{fill-rule:evenodd;clip-rule:evenodd;fill:#D53362;}
	.st24{fill-rule:evenodd;clip-rule:evenodd;fill:#B90D19;}
	.st25{fill-rule:evenodd;clip-rule:evenodd;fill:#C70D1D;}
	.st26{fill-rule:evenodd;clip-rule:evenodd;fill:#D71128;}
	.st27{fill-rule:evenodd;clip-rule:evenodd;fill:#D61023;}
	.st28{fill-rule:evenodd;clip-rule:evenodd;fill:#B20D18;}
	.st29{fill-rule:evenodd;clip-rule:evenodd;fill:#D41020;}
	.st30{fill-rule:evenodd;clip-rule:evenodd;fill:#C00D1A;}
	.st31{fill-rule:evenodd;clip-rule:evenodd;fill:#D71D40;}
	.st32{fill-rule:evenodd;clip-rule:evenodd;fill:#D62049;}
	.st33{fill-rule:evenodd;clip-rule:evenodd;fill:#D71127;}
	.st34{fill-rule:evenodd;clip-rule:evenodd;fill:#D61123;}
	.st35{fill-rule:evenodd;clip-rule:evenodd;fill:#D0101F;}
	.st36{fill-rule:evenodd;clip-rule:evenodd;fill:#C50D1C;}
	.st37{fill-rule:evenodd;clip-rule:evenodd;fill:#CA0D1E;}
	.st38{fill-rule:evenodd;clip-rule:evenodd;fill:#D81C44;}
	.st39{fill-rule:evenodd;clip-rule:evenodd;fill:#9C0D13;}
	.st40{fill-rule:evenodd;clip-rule:evenodd;fill:#A00C14;}
	.st41{fill-rule:evenodd;clip-rule:evenodd;fill:#9E0D14;}
	.st42{fill-rule:evenodd;clip-rule:evenodd;fill:#A80C15;}
	.st43{fill-rule:evenodd;clip-rule:evenodd;fill:#74090C;}
	.st44{fill-rule:evenodd;clip-rule:evenodd;fill:#BC0D19;}
	.st45{fill-rule:evenodd;clip-rule:evenodd;fill:#BA0D19;}
	.st46{fill-rule:evenodd;clip-rule:evenodd;fill:#C90D1E;}
	.st47{fill-rule:evenodd;clip-rule:evenodd;fill:#A60C16;}
	.st48{fill-rule:evenodd;clip-rule:evenodd;fill:#D81127;}
	.st49{fill-rule:evenodd;clip-rule:evenodd;fill:#D61022;}
	.st50{fill-rule:evenodd;clip-rule:evenodd;fill:#D10F1F;}
	.st51{fill-rule:evenodd;clip-rule:evenodd;fill:#D3101F;}
	.st52{fill-rule:evenodd;clip-rule:evenodd;fill:#D71739;}
	.st53{fill-rule:evenodd;clip-rule:evenodd;fill:#D61B43;}
	.st54{fill-rule:evenodd;clip-rule:evenodd;fill:#D61633;}
	.st55{fill-rule:evenodd;clip-rule:evenodd;fill:#9B0C12;}
	.st56{fill-rule:evenodd;clip-rule:evenodd;fill:#940B11;}
	.st57{fill-rule:evenodd;clip-rule:evenodd;fill:#870B0F;}
	.st58{fill-rule:evenodd;clip-rule:evenodd;fill:#8F0B10;}
	.st59{fill-rule:evenodd;clip-rule:evenodd;fill:#960C11;}
	.st60{fill-rule:evenodd;clip-rule:evenodd;fill:#910B10;}
	.st61{fill-rule:evenodd;clip-rule:evenodd;fill:#83090F;}
	.st62{fill-rule:evenodd;clip-rule:evenodd;fill:#A20C14;}
	.st63{fill-rule:evenodd;clip-rule:evenodd;fill:#9B0C13;}
	.st64{fill-rule:evenodd;clip-rule:evenodd;fill:#960B12;}
	.st65{fill-rule:evenodd;clip-rule:evenodd;fill:#960B11;}
	.st66{fill-rule:evenodd;clip-rule:evenodd;fill:#890B0F;}
	.st67{fill-rule:evenodd;clip-rule:evenodd;fill:#80090E;}
	.st68{fill-rule:evenodd;clip-rule:evenodd;fill:#8B0B0F;}
	.st69{fill-rule:evenodd;clip-rule:evenodd;fill:#900B0F;}
	.st70{fill-rule:evenodd;clip-rule:evenodd;fill:#80090F;}
	.st71{fill-rule:evenodd;clip-rule:evenodd;fill:#8B0B10;}
	.st72{fill-rule:evenodd;clip-rule:evenodd;fill:#730C0E;}
	.st73{fill-rule:evenodd;clip-rule:evenodd;fill:#AD0C17;}
	.st74{fill-rule:evenodd;clip-rule:evenodd;fill:#CE0F1F;}
	.st75{fill-rule:evenodd;clip-rule:evenodd;fill:#78090D;}
	.st76{fill-rule:evenodd;clip-rule:evenodd;fill:#A80C16;}
	.st77{fill-rule:evenodd;clip-rule:evenodd;fill:#720B0C;}
	.st78{fill-rule:evenodd;clip-rule:evenodd;fill:#850B0F;}
	.st79{fill-rule:evenodd;clip-rule:evenodd;fill:#76090D;}
	.st80{fill-rule:evenodd;clip-rule:evenodd;fill:#7D090D;}
	.st81{fill-rule:evenodd;clip-rule:evenodd;fill:#740D0C;}
	.st82{fill-rule:evenodd;clip-rule:evenodd;fill:#82090E;}
	.st83{fill-rule:evenodd;clip-rule:evenodd;fill:#7B090D;}
	.st84{fill-rule:evenodd;clip-rule:evenodd;fill:#85090F;}
	.st85{fill-rule:evenodd;clip-rule:evenodd;fill:#740C0B;}
</style>
<circle class="st0" cx="77.5" cy="77.5" r="71.5"/>
<g>
	<path class="st1" d="M74.3,130.8c-0.8,0.1-1.5-0.1-2.2-0.5c-1.6-1.5-2-3.3-1.9-5.4c0.1-7.6-0.1-15.2,0.2-22.8
		c1.3-1,2.8-1.3,4.3-0.8c1.3,1.4,0.8,3.1,0.9,4.8c0.2,7.5-0.4,15,0.3,22.5C76,130,75.8,130.8,74.3,130.8z"/>
	<path class="st2" d="M74.3,130.8c0.1-0.6,1.4-0.1,1.2-1.1c-1.4-5.5-0.5-11.1-0.5-16.6c0-3-1.3-6.2,0.4-9.1c0.6-1.1-2-1.2-0.5-2.4
		c1-1.4,2.4-1.4,3.9-1.4c1,0.4,1.5,1,0.5,2c-1.6,1.8-1.2,4.1-0.7,5.9c1.4,4.8,0.8,9.7,0.9,14.5c0,2.3,0.6,4.7-0.7,6.9
		c-0.2,0.2-0.4,0.3-0.7,0.4c0.2,0.1,0.4,0.1,0.6,0.1c0.4,0.1,0.6,0.3,0.6,0.7c-1.5,0.8-3,0.4-4.5,0.2
		C74.6,131,74.4,130.9,74.3,130.8z"/>
	<path class="st3" d="M23,74.1c0.1-2.1,0.6-4.1,1.8-5.9c5.9,1,11.8,1.7,17.8,1.4c3.1-0.1,6.1-0.7,9.2-0.6c0.5,0.1,0.9,0.4,1.1,0.8
		c0.4,0.9,0.4,1.9,0.1,2.8c-0.4,1.7-1.7,1.8-3.2,1.8C42,74.7,34.3,74.1,26.6,74c-1,0-2.3-0.4-2.2,1.4c-0.1,0.8-0.1,1.6-0.8,2.2
		C22,76.7,23,75.3,23,74.1z"/>
	<path class="st4" d="M26.1,66c0.4-0.7,0.9-1.3,1.4-2c1.1-2,2.2-3.9,4.8-4.1c3.3,0.9,6.6,0.4,10,0.5c2.2,0.1,4.3,0.1,6.5,0
		c2.1,0,3.4,0.8,3.8,3c0.1,0.8,0.1,1.6-0.5,2.3c-7.2,0.2-14.4,0.5-21.6-0.3c-1.5-0.2-1.7,1.5-3,1.2C26.9,66.5,26.4,66.4,26.1,66z"/>
	<path class="st5" d="M85.6,23.1c0.6,0.4,1.1,0.8,1.7,1.2c0.3,1.4-0.3,2.8-0.2,4.2c-0.2,4.1-0.2,8.3-0.1,12.4c0.1,3-1,5.9-0.3,8.8
		c0.2,1-0.8,1.2-1.6,1.6c-0.8,0.2-1.6,0.2-2.4-0.1c-0.7-0.4-1.1-0.9-1-1.7c0.8-7.4,0.2-14.8,0.4-22.3c0-1.7,0.3-3.2,1.4-4.6
		C84.2,22.7,84.9,22.9,85.6,23.1z"/>
	<path class="st6" d="M67.1,127.8c-0.7-0.4-1.4-0.9-2-1.3c-1.6-0.7-3-1.5-2.9-3.5c-0.3-6-0.3-12.1,0.4-18.1c0.1-1,0.1-2,1.1-2.7
		c3.1-0.4,4.1,0.3,3.7,3.4c-0.4,4.1-0.4,8.1-0.4,12.2c0,2.4,0.1,4.9,0.6,7.3C67.3,125.9,67.8,126.9,67.1,127.8z"/>
	<path class="st7" d="M83.5,22.6c-1.1,8.1-0.4,16.3-0.5,24.4c0,1.3-1.3,2.6-0.1,3.9c-0.5,1.4-1.5,1-2.5,0.7
		c-1.2-0.6-1.1-1.7-1.1-2.8c0-7.9,0-15.7,0-23.6c0-1-0.2-2.3,1.2-2.6c0.8-0.1,1.6,0.2,2.3-0.1C83.2,22.5,83.3,22.5,83.5,22.6z"/>
	<path class="st8" d="M26.1,66c0.4,0,0.9,0.1,1.3,0.1c7.6,1.7,15.3,0.1,22.9,1.5c0.5,0.1,1.1,0.2,1.5,0.5c0.4,0.4,0.4,0.8,0.1,1.3
		c-2.2,1.1-4.7,0.8-7,1c-4,0.3-8.1,0.4-12.2,0c-2.7-0.3-5.7-0.4-8.1-2.1C24.9,67.3,25.3,66.5,26.1,66z"/>
	<path class="st9" d="M67.1,127.8c-0.2-0.8-0.3-1.6-0.5-2.4c1.4-0.5,1.9-1.6,1.9-3c0.1-1.9,0.3-3.8-0.1-5.7c-0.8-4,0.4-7.9-0.1-11.9
		c-0.1-1-0.2-2.5,1.3-3c0.3-0.1,0.6,0,0.8,0.2c0.2,0.5,1.2,0.3,1.1,1c-1.3,7.9-0.1,15.8-0.7,23.7c-0.1,1.6,1.7,2.1,1.2,3.5
		C70.2,129.9,68.5,129.1,67.1,127.8z"/>
	<path class="st10" d="M65,26.8c4.4-4.5,9.7-6.2,15.9-5c-0.6,0.8-1.7,0.6-2.5,1c-1.7,0-3.4,0.3-4.9,1.2c-0.6,0.4-1.3,0.7-1.9,1
		c-1.6,0.4-2.8,1.3-3.9,2.5c-0.3,0.3-0.6,0.5-0.9,0.7c-0.4,0.2-0.9,0.4-1.4,0.4C64.3,28.2,64.8,27.5,65,26.8z"/>
	<path class="st11" d="M74.7,130.9c1.5-0.4,3.1,0.3,4.5-0.6c1.1-1,2.8-1.2,4-2c1-0.4,2-1,2.9-1.8c0.8-0.5,1.6-1.1,2.6-0.8
		c0.6,0.4,0.5,0.9,0.3,1.5C84.8,130.7,80.1,132,74.7,130.9z"/>
	<path class="st12" d="M37.2,98.2c-0.4-0.2-0.7-0.4-1.1-0.6c-1.9-1-3.4-2.4-4.3-4.4c0-0.1,0-0.3-0.1-0.4c0-0.7,0.3-1.3,0.7-1.9
		c2,0,3.1,1.5,4.4,2.7C37.2,95.1,38.7,96.6,37.2,98.2z"/>
	<path class="st13" d="M23,74.1c0.4,1.1-0.2,2.4,0.6,3.5c1.1,0.9,0.9,2.4,1.6,3.5c0.4,1.4,1.7,2.4,1.6,4c-0.1,0.6-0.4,1-1,1.2
		C23.1,82.6,22.1,78.6,23,74.1z"/>
	<path class="st14" d="M122.7,59.1c1.4,0.8,2.3,2,3.3,3.2c0.3,0.8,0.1,1.6-0.4,2.2c-2.4-0.5-3.5-2.4-4.7-4.2
		C121.1,59.3,121.9,59.2,122.7,59.1z"/>
	<path class="st15" d="M59,32.8c-0.1-1.3,1.6-1.1,1.7-2.1c0.3-0.2,0.6-0.4,1-0.6c1-0.1,1.7-1.4,2.9-0.5c-0.4,2-1.8,3.3-3.3,4.6
		C59.8,35,59,34.6,59,32.8z"/>
	<path class="st16" d="M97,119.4c-0.7,0.8-1.4,1.5-2.1,2.3c-0.8,0.2-1.2,1-1.8,1.5c-0.9,0.1-1.2-0.4-1.3-1.1c0-1.6,1.1-2.5,2.2-3.5
		C95.2,118.4,96.3,118.2,97,119.4z"/>
	<path class="st17" d="M25.7,86.3c0.2-0.4,0.4-0.9,0.7-1.3c0.6-0.1,1,0.2,1.4,0.5c1.1,1.3,2.3,2.6,3.2,4.1c0.1,0.7-0.1,1.3-0.9,1.6
		C28.4,89.8,26.8,88.3,25.7,86.3z"/>
	<path class="st18" d="M125.5,64.2c0.2-0.6,0.3-1.3,0.5-1.9c1.4,1,2.5,2.2,3.3,3.7c-0.4,0.2-0.8,0.5-1.2,0.7
		c-0.5,0.2-0.9-0.1-1.2-0.3c-0.4-0.4-0.8-0.8-1.2-1.2C125.5,64.9,125.4,64.6,125.5,64.2z"/>
	<path class="st19" d="M122.7,59.1c-0.6,0.3-1.1,0.7-1.7,1c-0.3,0.3-0.7,0.3-1.1,0.1c-0.4-0.3-0.7-0.7-0.8-1.3
		c0.4-0.8-0.3-2,0.8-2.6c0.4,0.2,0.7,0.4,1.1,0.6C121.6,57.7,122.1,58.4,122.7,59.1z"/>
	<path class="st20" d="M64.4,29.5c-1-0.2-1.6,1.4-2.7,0.5c0.9-1.2,2-2.4,3.3-3.3c0.7,0.4-0.4,1.3,0.4,1.6
		C65.7,29.4,65.3,29.7,64.4,29.5z"/>
	<path class="st21" d="M30.1,91.2c0.2-0.5,0.4-1.1,0.6-1.6c0.2-0.2,0.4-0.3,0.6-0.2c0.7,0.4,1.2,0.8,1.1,1.7
		c0.5,0.8,0.3,1.4-0.6,1.8C31.2,92.2,30.6,91.7,30.1,91.2z"/>
	<path class="st22" d="M89,127.3c-0.1-0.5-0.1-1-0.6-1.3c-0.3-0.9,0.4-1.3,0.8-1.9c0.4-0.3,0.8-0.6,1.4-0.5c1.2,0.4,0.2,1.3,0.4,1.9
		C90.3,126,89.7,126.6,89,127.3z"/>
	<path class="st23" d="M91,125.4c-0.8-0.4,0.3-1.2-0.4-1.6c-0.3-0.9,0.3-1.3,0.9-1.8c0.2-0.1,0.5-0.1,0.7,0c0.3,0.4,0.7,0.8,1,1.2
		C92.4,123.9,91.7,124.6,91,125.4z"/>
	<path class="st5" d="M78.1,22.5c0.8-1,1.9-0.2,2.8-0.6c0.7,0.1,1.5,0,2.1,0.6c-0.1,0.7-0.2,1.4-1.1,0.6c-1-0.7-2.1,0-3.1-0.1
		C78.5,22.8,78.2,22.7,78.1,22.5z"/>
	<path class="st24" d="M131.4,82.9c-0.6,2.4-2,4.4-3.8,6c-4.9-1.4-9.9-0.6-14.8-0.8c-2.9-0.1-5.8,0.1-8.6-0.7
		c-0.4-0.2-0.8-0.5-1-0.9c-0.3-0.6-0.1-1.2,0.1-1.7c0.4-0.7,0.4-1.8,1.4-2.2c8.3-1,16.6-0.2,24.9-0.5
		C130.3,82,130.9,82.2,131.4,82.9z"/>
	<path class="st25" d="M127,89.4c-2,2.3-4.2,4.5-6.5,6.5c-1.3-0.2-2.2-1.6-3.7-1.3c-3.5,0-7,0-10.5,0c-1.1,0-2.2,0-3.1-0.6
		c-1.1-1.6-0.8-3.1,0.3-4.6c0.8-0.7,1.8-0.7,2.8-0.7c5.8,0.1,11.6-0.4,17.3,0.4C124.7,89.3,125.9,88.7,127,89.4z"/>
	<path class="st26" d="M111.1,105.2c-2.8,3.3-6,6.3-9.2,9.2c-1.4-0.7-3.5,1-4.6-1.2c-0.2-0.5-0.2-1,0-1.5c0.9-1.9,1.7-3.8,2.3-5.7
		c0.3-0.9,0.4-2,1.5-2.5c1.9,0.5,3.8,0.7,5.7,1.1c0.5,0.1,1.2,0.5,1.3-0.4c0.1-1.3,0.7-2.1,2.1-1.8
		C112,102.9,110.7,104.4,111.1,105.2z"/>
	<path class="st27" d="M111.1,105.2c-0.3-0.3-0.8-0.4-0.5-1c0.6-1-0.3-1.3-0.9-1.3c-0.6,0-1.2,0.3-1,1.2c0.6,1.8,0.1,1.6-1.6,1.4
		c-1.5-0.3-3-1.5-4.9-0.6c-0.7,0.3-0.8-0.7-1-1.3c0-0.1,0-0.2,0-0.4c0.4-1.2,0.5-2.4,0.2-3.7c0-0.8,0.2-1.6,1-2
		c0.6,1.7,1.8,1.3,3.1,1.1c2.7-0.4,5.3,0.2,8.1-0.4c2.1-0.5,1.9,1.3,1.6,2.7C114.4,102.7,112.5,103.7,111.1,105.2z"/>
	<path class="st28" d="M131.4,82.9c-8.1,0.1-16.2,0.1-24.3,0.2c-1,0-2,0.5-2.9-0.2c-0.7-0.6-0.8-1.5-0.9-2.3c0-0.4,0.1-0.8,0.5-1.1
		c1.8,1,3.7,0.7,5.6,0.6c4.3-0.3,8.7-0.1,13-0.1c2.8,0,5.6-0.2,8.4-0.3c0.3,0.1,0.5,0.2,0.7,0.4c0.3,0.3,0.2,0.8,0.3,1.2
		C132,81.9,131.8,82.4,131.4,82.9z"/>
	<path class="st29" d="M115.5,100.9c-0.3-1.8-0.4-2.5-3-1.6c-2.5,0.8-5.8,0-8.7,0.2c-1.2,0.1-0.4-1.5-1.2-1.8
		c-0.9-1.1-0.6-2.1,0.5-2.9c4.9,0.5,9.9,1.1,14.7-0.4c1.7-0.9,1.8,1,2.7,1.6C119.1,97.9,117.1,99.2,115.5,100.9z"/>
	<path class="st30" d="M127,89.4c-2.4,1.2-4.8,0-7.2,0c-5.4,0-10.8,0-16.2,0c-0.8-0.9-0.8-1.8,0-2.7c6.5,0.9,13.1,0.5,19.6,0.5
		c1.7,0,3.2,0.2,4.3,1.6C127.4,89.1,127.2,89.3,127,89.4z"/>
	<path class="st31" d="M97.5,113.4c0.8,0,1.6,1.1,2.5,0.3c1.2-1.1,1.1,0.9,1.9,0.8c-0.9,0.9-1.8,1.8-2.7,2.7c-1.3,0.6-2.6,1.9-4,0.1
		c-0.2-0.7,0-1.2,0.3-1.8C96.2,114.7,96.3,113.5,97.5,113.4z"/>
	<path class="st32" d="M95.4,117.2c1.3,1.4,2.5-0.7,3.8,0c0,0.1,0,0.3,0,0.4l0,0c-0.7,0.6-1.4,1.2-2.1,1.7c-0.9-0.2-1.8-0.3-2.7-0.5
		C94.2,117.9,94.3,117.3,95.4,117.2z"/>
	<path class="st33" d="M109.6,46c2.8,2.3,5.2,4.9,7.6,7.5c-0.8,1.1-1.4,2.2-1.3,3.6c-0.1,0.2-0.3,0.4-0.6,0.4
		c-3.1-0.9-5.9-2.7-9.1-3.4c-1.3-0.4-2.6-0.6-3.6-1.6c-0.1-0.2-0.1-0.4,0-0.5c2.4-1.8,1.7-4.3,1.5-6.7c-0.1-1-0.2-2.1,0.8-2.6
		c1-0.5,1.5,0.8,2.2,1.1C108,44.4,108.3,45.9,109.6,46z"/>
	<path class="st34" d="M109.6,46c-2.2,0.1-2.9-2.2-4.8-2.9c-1,2.9,1.8,7-2.3,9.2c-0.8,0.7-1.4,0.1-2-0.4c-2.1-1.1-2.7-2.9-2.6-5.2
		c0.1-2.7,0-5.4,0.1-8.1c0-1.1-0.1-2.4,1.3-3C102.9,38.9,106.4,42.4,109.6,46z"/>
	<path class="st35" d="M99.3,35.7c-1.1,4.6-0.3,9.3-0.4,13.9c0,0.8,0.7,1.2,1.6,1.2c0.9,0,0.7,0.6,0.5,1.1c-2.5,0.8-4.9,0.6-7.1-0.9
		c0.7-5.3,0.1-10.6,0.6-15.9c0.1-1.1-0.2-2.5,1.6-2.6C97.1,33.5,98.2,34.6,99.3,35.7z"/>
	<path class="st30" d="M86.8,27.9c-0.6-1.3-0.5-2.6,0.5-3.7c1.8,0.9,3,2.4,4.3,3.8c-0.3,6.7-0.2,13.5-0.3,20.2
		c0,0.8-0.1,1.6-0.8,2.2c-2.7,0.5-3.1,0.1-3.1-2.4c0.2-5,0-9.9,0.1-14.9C87.6,31.4,87.4,29.6,86.8,27.9z"/>
	<path class="st36" d="M90.6,50.2c0-6.5,0-13,0.2-19.6c0-0.8-0.3-2,0.8-2.6c0.7,0.3,1.2,0.9,1.6,1.6c0.5,3.4,0.2,6.8,0.2,10.2
		c0,3.5,0.2,7,0,10.6c-0.1,0.6-0.5,0.7-1,0.7C91.8,51.1,91.1,50.9,90.6,50.2z"/>
	<path class="st37" d="M93.3,50.8c-0.8-1.3-0.5-2.8-0.5-4.2c-0.2-4.6,0.3-9.3-0.3-13.9c-0.1-0.9,0.5-2,0.8-3
		c1.3,0.5,1.8,1.8,2.7,2.8c-1.5,2-0.8,4.4-1,6.6c-0.3,2.9-0.1,5.9,0,8.9c0,1.2-0.1,2.1-1.1,2.8C93.7,50.9,93.5,50.9,93.3,50.8z"/>
	<path class="st38" d="M115.6,57.2c-0.6-1.7-0.5-3.1,1.6-3.6c1.2,0.6,1.8,1.8,2.7,2.8c-0.6,0.8,0.8,2-0.6,2.7
		C117.6,59.5,116.4,58.8,115.6,57.2z"/>
	<path class="st39" d="M78.6,100.5c1.1-0.4,2.2-0.8,3.3-1.2c3,1.1,2.4,3.9,2.2,6c-0.5,4.8-0.3,9.5-0.4,14.3c0,3.1,0,6.1-0.1,9.2
		c-1.3,0.9-2.7,1.6-4.4,1.6c-0.3-0.3-1.2,0.5-1.2-0.6c1.5-0.6,1.4-1.9,1.4-3.2c-0.1-8.4,0.3-16.8-0.3-25.1
		C79.8,100.7,78.6,100.9,78.6,100.5z"/>
	<path class="st40" d="M79.2,101.4c1.1,0.8,1.1,1.9,1.1,3.1c0,7.9,0,15.7,0.1,23.6c0,2.2-1.3,1.4-2.3,1.6c0.8-1.3,0.5-2.8,0.5-4.2
		c0-1.5-0.1-3.1,0-4.6c0.7-5.8-1-11.4-1.2-17.1C77.4,102.2,78,101.8,79.2,101.4z"/>
	<path class="st41" d="M54.6,79.4c0.3,1,0.7,2,1,3c-0.6,2.1-1.9,1.1-3.1,0.7c-0.2-0.3-0.5-0.7-0.8-0.7c-6.1,0.9-12.3-1.9-18.4-0.1
		c-2.5,0.7-4.9-0.9-7.4-0.1c-0.4,0.1-0.6-0.8-1.2-1c-0.8-1.1-1.1-2.4-1.1-3.7c0-0.8,0-1.5,0.1-2.3c1.1,1.5,2.8,1.4,4.4,1.4
		c8.4,0,16.8,0,25.2-0.1C54.5,77.1,54.2,78.4,54.6,79.4z"/>
	<path class="st42" d="M53.4,76.9c-5.1,1-10.2,0.4-15.4,0.5c-3.7,0.1-7.4,0-11.1,0c-1.6,0-3.1,0-3.3-2.2c0-0.9,0-1.8,0-2.7
		c0.8-0.1,0.9,0.8,1.7,0.8c8.5,0.1,16.9,0.1,25.4,0.4c1.3,0,1.1-0.8,1.7-1.2c0.2,0.7,0.5,1.4,0.7,2.1C53.7,75.4,54,76.1,53.4,76.9z"
		/>
	<path class="st43" d="M54.6,64.9c-0.9,0.6-1.7,1.2-2.6,1.8c-0.4-0.4-0.4-0.8-0.1-1.2c0-0.7,0-1.5,0-2.2c-0.6-2-0.2-4.1-0.1-6.1
		c0-0.3,0.1-0.6,0.1-0.8c0.5-1.6,0.7-3.3,1.1-4.9c1.1-3.6,1.6-7.4,4-10.4c0.3-0.1,0.5-0.2,0.8,0c0.9,0.9,0.6,2,0.3,3
		c-1,4.7-0.8,9.5-0.4,14.2c0.1,1.5-0.3,2.9-0.5,4.4l0.1,0.2C57,64.2,55.6,64.4,54.6,64.9L54.6,64.9z"/>
	<path class="st44" d="M51.9,65.5c0,0.4,0.1,0.8,0.1,1.2c0,0.5-0.1,1-0.1,1.5c-6.8-0.7-13.5-0.6-20.3-0.5c-1.7,0-2.7-1.3-4.1-1.7
		c1.2-1.8,2.7-1.2,4.5-1.2c5.6,0.2,11.2,0.1,16.8,0.1C49.8,65,50.9,64.9,51.9,65.5z"/>
	<path class="st37" d="M52.5,56.8c-0.2,2.2-0.4,4.3-0.6,6.5c-0.5-1.6-1.4-2.2-3.3-2.2c-5.2,0.1-10.4,0.2-15.6-0.1
		c-1-0.1-0.7-0.8-1.2-1c0-0.2,0-0.3,0.1-0.5c0.5-0.4,1.1-0.8,1.6-1.2c4.5-1.7,9-0.7,13.6-0.4C49,58.1,50.9,58.3,52.5,56.8z"/>
	<path class="st45" d="M87.8,51.2c-0.8-0.6-1.8-0.3-2.7-0.4c-0.2-0.6,1.8,0,0.6-1.1c-0.4-0.4-0.4-0.7-0.3-1.2
		c1.4-5.9,0.5-11.8,0.8-17.7c0-0.9-0.4-2,0.5-2.8c1.3,0.4,1.7,1.3,1.7,2.7c-0.1,6.1-0.1,12.2-0.2,18.3c-0.1,2.3,1.6,0.9,2.4,1.3
		c0.6,0,1.2-0.1,1.6,0.5C90.9,51.9,89.3,51.6,87.8,51.2z"/>
	<path class="st44" d="M67.8,101.9c0.7,0.1,1.3,0.1,2,0.2c-1,1.2-0.9,2.7-0.9,4c-0.1,5.4,0.3,10.9,0.4,16.3c0,1.7,0.1,3.7-2.7,3
		c-0.9-6.4-0.8-12.8,0-19.1c0.4-3.5,0.2-3.7-3.2-3.7c-0.7,0.4-1.2,0.3-1-0.7c0.7-0.6,1.5-0.6,2.3-0.6
		C65.7,101.1,66.8,101.4,67.8,101.9z"/>
	<path class="st46" d="M62.3,102c0.3,0.4,0.7,0.5,1.1,0.5c-0.7,5.2-0.5,10.4-0.6,15.7c0,1.2-1.1,2.4,0.5,3.6
		c0.9,0.7-0.2,1.3-1.1,1.4c-1.1-0.7-2-1.6-2.7-2.7c-0.7-1.3-0.5-2.7-0.4-4.1c1.2-3.4-0.2-6.8,0.1-10.2c0.2-1.6,0.1-3.3,1.7-4.3
		C61.4,101.7,61.9,101.7,62.3,102z"/>
	<path class="st47" d="M80.8,51.3c-2,0.6-4,1.1-6,1.7c-0.3-1.3,0.9-2.2,0.7-3.5c0.3-6.7,0.1-13.3,0.1-20c0-1.2,0-2.3,0-3.5
		c-0.1-2.1,0.6-3.5,3-3.5c1.1,0.2,2.3-0.4,3.3,0.5c-0.9,0-1.8-0.3-1.7,1.4c0.1,8.5,0,17-0.1,25.5C80,50.7,80.5,50.8,80.8,51.3z"/>
	<path class="st48" d="M57.3,40.9c-1.2,3.5-2.5,7-3.7,10.4c-2.5-1.3-0.2-2.9-0.4-4.2c-0.5,1.4-0.7,3.3-3.1,3.2
		c-1.7-0.1-3.4,0.6-5.1,0c-2.4-1-0.5-2.3-0.2-3.4c1.5-1.6,3-3.2,4.4-4.8c1.1-0.9,2.2-1.9,3.2-2.8C54.2,39.4,56.1,39.2,57.3,40.9z"/>
	<path class="st49" d="M44.8,47c0.1,0.2,0.5,0.5,0.4,0.6c-0.9,2.4-0.8,2.6,2,2.2c0.3,0,0.5-0.1,0.8,0c2.7,0.3,4.9,0,5.1-3.6
		c0.8,1.9-1.1,3.7,0.5,5.3c-0.1,1.7-0.4,3.3-1.1,4.9c-0.9-0.2-1.4-0.8-2.6-0.6c-3.8,0.8-7.6-0.5-11.4-0.9c-0.4,0-0.5-0.4-0.7-0.8
		C40.1,51.7,42.4,49.3,44.8,47z"/>
	<path class="st50" d="M37.7,54.1c4.2,0.4,8.4,1.8,12.6,0.9c1.8-0.4,1.5,0.9,2.2,1.3c0,0.2,0,0.3,0,0.5c-0.4,2.4-2.1,2.5-3.9,2.2
		c-4.7-0.8-9.4-0.7-14.1-0.3c-0.3,0-0.7-0.1-1.1-0.2C34.6,56.8,36.1,55.3,37.7,54.1z"/>
	<path class="st27" d="M53.5,114.5c-1.8-1.8-3.6-3.6-5.5-5.4c0.5-0.5,0.6-1.3,0.2-2.4c-0.7-2.1-0.2-4.1,0.6-6
		c0.6-1.4,2.3-0.4,3.4-0.9c1.8,0,3.6,0.2,5.1,1.4c0,0.1,0.1,0.2,0.1,0.3c-0.1,1.3-1.2,0.5-1.8,0.9c0.9,0.7,0.6,1.8,0.8,2.7
		c0.5,3-0.6,5.8-0.6,8.7C55.8,115.9,54.5,115,53.5,114.5z"/>
	<path class="st26" d="M51.9,100.3c-2.6,0.7-2.7,0.7-3.1,2.6c-0.3,1.7-0.7,3.6,1,4.9c0.5,0.4,1,1,0.4,1.6c-0.7,0.7-0.7-0.4-1.1-0.6
		c-0.5-0.2-0.8-0.2-1.1,0.3c-2.5-2.6-5.1-5.1-7.6-7.7c-1.4-1.9-0.7-3.8,0.1-5.7c0.7-0.3,1.3,0,1.9,0.3c1.5,0.7,3.1,1.3,4.7,1.7
		C48.6,98.8,50.8,98.5,51.9,100.3z"/>
	<path class="st51" d="M53.5,114.5c1.2,0,2.8,0.3,1.3-1.7c-0.2-0.3-0.4-0.8-0.3-0.9c2.3-2.9,1.1-6.1,0.8-9.1c0-0.5-0.1-0.5,2-1.2
		c0.7-0.9,1.6-0.8,2.6-0.4c0.2,0.2,0.4,0.4,0.4,0.7c-1.7,1.7-1.8,3.9-1.7,6.2c0.1,1.7,0.2,3.4,0,5.1c-0.2,1.4,0.1,2.5,1,3.5
		c0,1.3,0,2.5,0,3.8c-0.5-0.4-1-0.7-1.6-1.1c-1.3-1.6-2.7-3.1-4.4-4.4C53.6,114.9,53.6,114.7,53.5,114.5z"/>
	<path class="st52" d="M40.5,96.1c0.8,1.8-0.7,3.6,0,5.4c-1.4-0.8-2.5-1.8-3.3-3.3c0.3-1.5-0.4-2.9-0.5-4.3c0.2-0.2,0.4-0.3,0.7-0.3
		C38.6,94.1,39.9,94.7,40.5,96.1z"/>
	<path class="st53" d="M59,32.8c0.5,0.7,0.9,1.7,2.1,1.1c0.1,0.1,0.1,0.2,0.2,0.3c-0.1,1.7-1.5,2.7-2.1,4.1
		c-0.2,0.1-0.4,0.2-0.7,0.3c-1.4-0.2-2.9-0.2-3.9-1.5C56,35.7,57.5,34.3,59,32.8z"/>
	<path class="st54" d="M54.6,37.2c1.3,0.4,2.6,0.8,3.9,1.1c0.7,1.3-0.1,2.1-1.1,2.8l-0.2-0.1c-1.7-0.3-3.3-0.7-4.8-1.6
		C53.2,38.6,53.9,37.9,54.6,37.2z"/>
	<path class="st55" d="M75.3,50.3c1.4,1.2-0.5,1.7-0.5,2.7c-1.6,0.7-3.3,1.5-4.9,2.2c-1.3-1.2,0.3-2.3,0.1-3.4
		c1-0.7,1.3-1.6,1.3-2.8c0.1-5.9,0-11.8,0-17.6c0-0.7,0.1-1.6-0.4-2.1c-1.7-1.8-0.6-3.3,0.6-4.7c0.5-0.3,1.1-0.7,1.6-1
		c1.4,0.1,2.4,0.8,2.4,2.4C75.5,33.9,75.9,42.1,75.3,50.3z"/>
	<path class="st56" d="M71.5,24.4c-0.2,1.4-1.5,3,0.3,4.3c0.3,0.2,0.2,1,0.2,1.6c0,6.2,0,12.3,0,18.5c0,1.8-0.3,3.1-2.2,3.6
		c-1,0.5-1.3-0.2-1.4-0.9c-0.3-1.5-0.4-3-0.4-4.6c0-5.4-0.1-10.8-0.1-16.2c0-1.2-0.6-2.3-0.9-3.4C68.2,25.9,69.6,24.7,71.5,24.4z"/>
	<path class="st57" d="M68.3,55.9c-1.1,0.6-2.2,1.2-3.4,1.8c-0.8-0.2-1.6-0.3-2.4-0.4c-0.5-0.1-1.2-0.1-1.3-0.7
		c-0.1-0.7,0.6-0.7,1.1-1c1-0.5-0.3-0.8-0.1-1.5c0.8-2.5,0.4-5.2,0.4-7.8c0-2.8,0-5.6,0-8.4c0-1.5-0.4-2.8-1.3-4l-0.2,0
		c1.1-1.5,2.2-2.9,3.3-4.4c0.5-0.2,0.9-0.5,1-1.1c0.4-0.2,0.8-0.5,1.2-0.7c0.5,0.5,0.6,1.1,0.5,1.7c-0.6,6.3,0,12.7-0.2,19
		C66.8,51.1,66.9,53.6,68.3,55.9z"/>
	<path class="st58" d="M68.3,55.9c-2.3-0.4-2.3-2-2.3-3.9c-0.1-6.5,0.3-13-0.2-19.5c-0.1-1.6,0.4-3.2,0.7-4.8
		c0.1-0.2,0.3-0.3,0.5-0.5c1.4,0.7,1.8,1.8,1.8,3.3c0,6.8-0.2,13.7,0.2,20.5c0,0.5-0.3,1.4,0.8,1.3c1.1,0.2,1.2,0.7,0.4,1.4
		c-0.5,0.4-0.7,0.7-0.4,1.3C69.4,55.4,68.8,55.6,68.3,55.9z"/>
	<path class="st40" d="M75.3,50.3c-0.9-0.8-0.5-1.9-0.5-2.8c0-6.8-0.1-13.7,0-20.5c0-1.6-0.4-2.7-1.8-3.5c1.6-0.8,3.2-1.4,5-0.9
		c0.2,0,0.4,0,0.5,0c-2,0.6-2.2,2.1-2.2,3.8c0,7.1,0,14.2,0,21.3C76.4,48.6,77,49.9,75.3,50.3z"/>
	<path class="st59" d="M83.6,128.8c-2.2-1.9-0.4-4.4-0.5-6.5c-0.2-5.6-0.6-11.2,0.3-16.8c0.4-2.2,0-4.4-1.6-6.2
		c1.6-0.8,3.2-1.6,4.9-2.4c0.2,0.2,0.3,0.4,0.3,0.7c-0.4,2.1-0.9,4,0.1,6.2c0.9,2-0.2,4.3-0.3,6.4c-0.1,1.9-0.2,3.7,0,5.6
		c0.2,2,0.3,3.9-0.6,5.8c-0.8,1.7,0.6,3.5,0.2,5.3C85.7,128,84.7,128.4,83.6,128.8z"/>
	<path class="st60" d="M86.4,127.1c-0.9-2.2-2.1-4.3-0.3-6.7c0.3-0.4,0.2-1.2,0.2-1.9c-0.2-4.5-0.5-8.9,0.5-13.4
		c0.1-0.6-0.1-1.3-0.4-1.8c-1.5-2.1-0.9-3.9,0.4-5.8c2.1-0.6,2.3,1,2.3,2.3c0.2,4.8,0.3,9.6-0.1,14.4c-0.3,3.4-0.8,6.7,0.6,10
		c-0.4,0.5-0.8,1.1-1.2,1.6C87.7,126.3,87,126.7,86.4,127.1z"/>
	<path class="st61" d="M37.2,93.9l-0.2,0c0,0-0.3,0-0.3,0c-1.4-1-2.9-1.9-4.3-2.9c-0.4-0.5-0.8-0.9-1.2-1.4
		c-0.7-0.8-0.8-1.4,0.4-1.6c0.8-0.1,1.4,0.4,2,0.6c1.6,0.6,3.2,1.5,5,0.4c0.5-0.3,1.3-0.3,1.9-0.2c4.3,0.7,8.7,0.7,13,0
		c1.5-0.2,2.8,1,4.4,0.2c0.6-0.3,0.5,1.5,1.6,1c0.7,1.1,1.4,2.2,2.1,3.3c-0.4,0.7-1.1,0.8-1.8,1c-1.7,0.6-3.2-1.1-5.2,0
		c-1.8,1-4.2,0.2-6.4,0.3C46,94.6,44,95,41.9,94.8C40.3,94.7,38.8,94,37.2,93.9z"/>
	<path class="st62" d="M102.1,77.3c-0.1-0.3-0.1-0.6-0.2-0.9c-0.3-0.4-0.4-0.8-0.3-1.3c0.3-1.7,0.1-2.8,3-2.7
		c7.4,0.1,14.8,0.1,22.2,0c1.7,0,3.1,0.7,4.6,1.3c0.6,0.6,0.5,1.4,0.5,2.2c0,0.6,0,1.1-0.1,1.7c-0.2,0.8-0.7-1.6-0.9,0.1
		c-0.1,0.6-0.6,0.6-1.1,0.4c-3.1-1.3-6.4-0.6-9.6-0.7c-4.3-0.1-8.7,0-13,0c-1.6,0-3,0.2-4.4,1C102.3,78.2,102.2,77.7,102.1,77.3z"/>
	<path class="st63" d="M131.5,73.6c-0.1,0.2-0.2,0.5-0.3,0.7c-2-1.8-4.4-1.1-6.7-1.1c-6.2-0.1-12.5,0.1-18.7-0.1
		c-0.9,0-2.3,1.9-2.9-0.5c-0.7,0.9,0.2,2.3-1,2.9c-1.6-0.4-1.1-1.9-1.5-2.9c0-0.3,0-0.6-0.1-0.9c0.1-0.5,0.5-1.1,0.8-1
		c1.4,0.6,1.1-2,2.7-1.2c1.2,0.6,2.7,0.3,4,0.3c5.7,0,11.4,0,17.1,0c2.6,0,5.2,0.3,6.1,3.5C131.1,73.3,131.3,73.4,131.5,73.6z"/>
	<path class="st64" d="M131,73.1c-1.4-2.7-3.9-2.6-6.5-2.7c-7.1-0.2-14.2,0.6-21.4-0.3c-0.6-0.1-1.9,0.9-2.8,1.5l0,0
		c-0.5-0.8,0.1-1.8-0.3-2.6c0-1.7,1.1-1.5,2.2-1.5c5.5,0.2,11-0.1,16.5,0.2c2.3,0.1,4.5-1.4,6.9-0.3c0.7,0.3,0.6-1.2,1.4-1.4
		c0.3,0.2,0.7,0.5,1,0.7C129.2,68.8,131.1,70.5,131,73.1z"/>
	<path class="st65" d="M24.7,81.3c4.8,0,9.6,0.9,14.4-0.5c1.2-0.3,2.5,0,3.9,0.5c2.5,1,5.4,0.7,8,0.2c2-0.4,2.2,0.4,2.1,1.9
		c0.4,0.6,0.6,1.5-0.2,1.5c-1.1,0-0.5-1.1-0.6-1.9c0.4,1.9-0.9,1.8-2,1.8c-3.2,0.1-6.4,0.5-9.7,0.1c-3.6-0.5-7.2-0.2-10.7,0.7
		c-0.8,0.5-1.6,0.1-2.4,0.1c-0.3-0.2-0.7-0.5-1-0.7C26,83.7,24.8,82.7,24.7,81.3z"/>
	<path class="st66" d="M97.5,65.6c-0.4-0.8-0.9-1.5-1.3-2.3c0.4-0.7,0.5-1.5,0.8-2.2c0.2-0.1,0.5-0.2,0.7-0.1
		c0.5,0.2,0.9,0.5,1.3,0.8c0.2,0.1,0.5,0.3,0.7,0.4c5.2,0.7,10.5,0.3,15.7,0.2c0.6,0,1.2-0.3,1.7-0.7c0.9-0.7,1.6-1.6,2.8-1.7
		c0.3,0,0.6,0.1,0.9,0.1c1.5,1.4,3,2.7,4.5,4.1c0.2,0.2,0.4,0.4,0.6,0.7c-0.2,1.4-1.5,1.6-2.4,1.4c-5.4-1.1-10.8-0.2-16.2-0.5
		C104.1,65.6,100.8,66.2,97.5,65.6z"/>
	<path class="st67" d="M95.4,117.2c-0.4,0.5-0.7,1.1-1.1,1.6c-0.8,1-1.8,1.9-2.2,3.1c-0.2,0.1-0.3,0.1-0.5,0.1
		c-0.8,0.1-0.8-0.5-0.8-1.1c1-2.3,2.3-4.6,1.3-7.3c-0.1-0.3-0.1-0.7,0-1.1c1.5-4.7,0.3-9.7,1.2-14.5c0-0.4,0.6-0.8,0.1-1.3
		c-2.4,0-1.7-1.6-1.4-2.9c0.1-0.4,0.5-0.5,0.8-0.7l0,0c0.2-0.2,0.5-0.3,0.8-0.2c2.8,0.5,3.6,1.1,3,3.3c-1.6,5.8-0.8,11.7-0.6,17.5
		c0.1,0.5,0,1.1,0,1.6C95.8,116.1,95.6,116.7,95.4,117.2z"/>
	<path class="st68" d="M27.4,85.7c0.5-0.9,1.1-0.2,1.7,0c3.8-0.4,7.6,0.5,11.5-0.1c4.1-0.6,8.2,0.6,12.4,0.5c1.5,0,2.8,0.2,3.9-1
		c0.9,1.5,1.8,2.9,2.7,4.4c0,0.2,0,0.4,0,0.5c-0.7,0.3-0.1,1-0.5,1.4c-0.9-0.4-0.1-1.6-0.9-1.9c-1-0.7-1.4,3.3-2.5,0.1
		c-0.1-0.2-1-0.2-1.5-0.1c-4.8,0.7-9.5,0.7-14.3,0c-0.9-0.1-1.8-0.2-1.8,1.2c-1.2-1.6-3.4,0.2-4.7-1.5c-0.5-0.7-1.9-2.2-2.1,0.4
		l-0.3,0c0,0-0.3,0-0.3,0C29.4,88.4,28.3,87.1,27.4,85.7z"/>
	<path class="st69" d="M97.5,65.6c2.3-0.9,4.8-0.6,7.2-0.6c5.6-0.1,11.1-0.3,16.7-0.1c1.6,0.1,3.1,1.2,4.6,0
		c0.4,0.4,0.7,0.7,1.1,1.1c-0.2,0.5-0.4,1-0.2,1.5c0.2,0.4,0.1,0.9-0.2,1.2c-0.7,0.6-0.9-0.3-1.3-0.5c-0.9-0.6-1.7-1.2-2.8-0.2
		c-0.5,0.4-1.6,0.2-2.4,0.2c-6.4-0.2-12.8,0.4-19.1-0.3c-0.8-0.1-0.3,1.1-0.7,1.4c0.1,0.6-0.1,0.8-0.7,0.6
		C99,68.5,98.2,67,97.5,65.6z"/>
	<path class="st70" d="M120,60c-0.7,0.6-1.1,1.6-2.2,1.7c-0.2,0.3-0.4,0.7-0.8,0.5c-5.3-1.8-10.8-0.6-16.2-0.6c-0.7,0-1.2,0.8-2,0.6
		l0,0c-0.4-0.4-0.3-1.1-1.1-1.1c-0.2,0-0.4,0-0.5,0c-0.6,0.3-1,1.1-1.8,0.6c-0.1-0.2-0.3-0.4-0.4-0.5c-0.4-2.3,1.2-2.7,2.9-2.8
		c4.3-0.4,8.7,0,13-0.4c0.9-0.2,1.8-0.2,2.6,0.2c1,0.4,1.6-0.3,2.2-0.8c0,0,0-0.2,0-0.2c1.3,0.6,2.5,1.3,3.8,1.9
		C119.6,59.4,119.8,59.7,120,60z"/>
	<path class="st71" d="M91.1,121.1c0,0.4,0.1,0.8,0.5,1.1c-0.4,0.6-0.7,1.1-1.1,1.7c-0.3,0.2-0.7,0.4-1,0.6
		c-3.1-2.5-1.7-5.8-1.4-8.8c0.5-5.5,0.1-11,0.2-16.4c0-1-0.7-1.4-1.6-1.5c0-0.2,0-0.4,0-0.6c0.6-0.7,1.4-0.8,2.2-1
		c1.8,0.1,2.5,1,2.5,2.8c-0.1,5.1-0.2,10.3,0.5,15.4C92.3,116.5,90.9,118.7,91.1,121.1z"/>
	<path class="st72" d="M103.6,86.7c0,0.9,0,1.8,0,2.7c-0.4,1.4-0.6,2.9-0.5,4.4c0.3,0.4,0.3,0.7-0.1,1.1c-0.6,0.8-0.6,1.8-0.5,2.7
		c-0.2,0.7-0.3,1.5-0.5,2.2c0.3,0.9,0.2,1.7-0.7,2.3c-2.2-1.8-2.2-4.2-1.4-6.6c0.7-2.3,0.9-4.6,0.2-6.9c0.6-1.3,1.4-2.4,3.1-2.4
		C103.4,86.4,103.5,86.6,103.6,86.7z"/>
	<path class="st73" d="M103.6,85.1l-0.1-0.1l0.1-0.2c-0.3-1.2-0.3-2.5-0.2-3.7c0.1-0.1,0.2-0.2,0.3-0.4c0.8,0.6,0.5,1.4,0.5,2.2
		C104.1,83.7,104.5,84.6,103.6,85.1z"/>
	<path class="st74" d="M103.1,94.9c0-0.4,0-0.7,0.1-1.1c4,0,8.1,0,12.1,0c0.9,0,1.8-0.3,2.5,0.5c-0.6,1-1.3,1.7-2.6,1.6
		c-3.3,0-6.5-0.1-9.8,0C104.4,96.1,103.8,95.6,103.1,94.9z"/>
	<path class="st75" d="M99.4,89c0.3-0.1,0.7-0.3,1-0.4c1.5,1.7,1.4,3.7,0.7,5.6c-1.1,2.7-0.9,5.3,0.4,7.9c0.5,0.5,0.5,1.1,0,1.6
		c0,0,0,0,0,0c-1.5,2.6-1.6,5.9-3.7,8.3c-0.1-0.1-0.2-0.1-0.3-0.2c-1-1.5,0.2-3.3-0.7-4.8c-0.1-0.3-0.2-0.5-0.3-0.8
		c-0.5-5.2,0.3-10.3,0.7-15.4C97.5,89.7,98.6,89.5,99.4,89z"/>
	<path class="st75" d="M96,115.6c-0.4-0.2-0.5-0.6-0.5-1.1c0.5-1,0-2.1,0.1-3.2c0.1-0.6-0.2-1.4,0.5-1.6c1-0.3,1,0.8,1.2,1.4
		c0.1,0.2,0.2,0.5,0.3,0.7l0.1,0.1c-0.1,0.5-0.2,1-0.2,1.5C97,114.1,96.5,114.9,96,115.6z"/>
	<path class="st26" d="M101.4,103.6c0-0.5,0-1.1,0-1.6c0.2-0.7,0.5-1.4,0.7-2.1C102.8,101.3,102.7,102.5,101.4,103.6z"/>
	<path class="st76" d="M102.6,78c0.6-1.1,1.3-1.7,2.7-1.7c7.4,0.1,14.9,0.1,22.3,0c1.2,0,2.3,0,3.1,1.5c0.2-0.9,0.3-1.5,0.4-2.2
		c0.6,0.6,0.2,1.4,0.9,1.8c-0.9,0.8,0.4,2-0.5,2.7l0,0c-0.8-0.7-1.7-0.8-2.8-0.8c-7.3,0.1-14.6-0.5-21.8,0.4
		c-1.1,0.1-2.1-0.4-3.2-0.1c0,0.4,0,0.7,0,1.1h0c-0.3,0.2-0.5,0.2-0.8,0C102.2,79.9,102,79,102.6,78z"/>
	<path class="st73" d="M103.7,79.7c2-1,4.3-1,6.5-1c5.9-0.2,11.8-0.1,17.7-0.1c1.4,0,3-0.2,3.6,1.6c-7.3,1.1-14.7,0.2-22.1,0.6
		C107.2,81,105.2,81.7,103.7,79.7z"/>
	<path class="st75" d="M115.6,57.4c-0.2,1.4-0.9,1.9-2.3,1.5c-0.7-0.2-1.4-0.3-2-0.4c-3.1-1.5-6.3-0.8-9.5-0.9
		c-1.6-0.1-3.2,0.2-4.8-0.1c-1.4-0.2-2.8-0.6-3.7,1c-0.5-0.7-1.1-1.5-1.6-2.2c-0.4-2.1,0.8-2.9,2.6-2.7c2.7,0.3,5.6,0.1,8.2,0.9
		c-0.6-0.3-1.4,0-2-0.5c-0.1-0.2-0.1-0.5,0.2-0.7c1-0.7,2.1-0.4,3.1-0.2c0.9,0.2,1.6,0.9,2.6,0.4C109.6,54.4,112.7,55.8,115.6,57.4z
		"/>
	<path class="st77" d="M106.3,53.6c-1.8,1.3-3.6-1-5.6,0.3c0.9,0.1,1.7,0.2,2.4,0.3c0,0.1,0,0.1,0,0.2c-2.7,0-5.4,0.3-8-0.1
		c-2-0.3-2.9,0.2-3.5,2c-1.3-1.7-2.5-3.4-3.8-5.1c1.4-0.8,3-0.2,4.4-0.4c0.4,0,0.7,0,1.1,0c0.2,0,0.4,0,0.5,0
		c2.4,0.4,4.7,0.7,7.1,1.1c0.5,0.3,1,0.6,1.6,0.5C103.8,52.8,105.1,53.2,106.3,53.6z"/>
	<path class="st78" d="M91.1,121.1c-1.2-0.9-0.8-2.3-0.4-3.2c0.9-2.3,0.2-4.6,0.1-6.9c-0.2-3.9-0.3-7.8-0.2-11.6
		c0.1-1.7-0.5-2.6-1.7-3.4c0.4-0.7,1.5-0.6,1.7-1.6c0.2,0,0.3,0,0.5-0.1c0.3-0.3,0.6-1,1.1-0.3c0.2,0.3,0.7,0.6,0.6,0.8
		c-0.1,1.5-0.1,1.5,1.5,1.1c0.4,0.7-0.5,1.1-0.5,1.6c0.4,3.6-1,7.1,0,10.7c0.2,0.7-0.1,1.4-0.4,2.1c-0.8,1.7-1.3,3.5,0.2,5.2
		c0.2,0.2,0.5,0.4,0.2,0.6C92,117.3,93.4,120.1,91.1,121.1z"/>
	<path class="st79" d="M46.8,98.2c-1.8,0-3.2-0.9-4.7-1.7c0-1.1,0.9-1,1.5-1c5.3-0.2,10.7-0.2,16-0.3c1.7,0,3,0,4.1,1.4
		c0.8,1.1,1.6,2.1,2.4,3.2c0.2,0.5-0.1,0.7-0.5,0.8c-3.5-0.7-7-0.5-10.6-0.5C52.2,100.1,49.5,98.9,46.8,98.2z"/>
	<path class="st80" d="M63.7,96.5c-1.2-1-2.5-0.8-3.9-0.8C54.3,95.9,48.7,96,43,96.1c-0.3,0-0.6,0.3-0.9,0.5
		c-0.5-0.2-1.1-0.3-1.6-0.5c-1.1-0.7-2.2-1.4-3.3-2.1c0.2-0.3,0.6-0.8,0.7-0.7c3.3,1.5,6.8,1,10.2,0.6c2.6-0.3,5.5,1.3,7.8-1.1
		c1.8,1.4,3.7,0.9,5.7,0.6C62.3,94.4,63,95.5,63.7,96.5z"/>
	<path class="st81" d="M65.5,100.4c0.2-0.2,0.4-0.4,0.6-0.6c0.6,0.7,1.2,1.5,1.8,2.2c-1.1,0-2.3,0-3.4,0c-0.5-0.5-1.4,0.1-1.7-0.7
		C63.3,99.9,64.5,100.4,65.5,100.4z"/>
	<path class="st82" d="M61.3,33.9c2.2,0.4,2.1,1.8,2,3.7c-0.2,4.9,0,9.8,0,14.7c0,0.5,0.2,1.2-0.1,1.6c-1.3,1.9,0.7,1.1,1.3,1.6
		c-1,0.3-1.9,0.7-3.2,1.1c1.4,0.6,3.2-1,3.7,1.2c-1.8,1.1-3.6,2.2-5.4,3.3c-0.4-0.1-0.7-0.4-0.6-0.8c1.5-5.2,0.3-10.4,0-15.6
		c-0.1-2.1,0.5-4.3,0-6.4C59.1,36.4,60.6,35.4,61.3,33.9z"/>
	<path class="st60" d="M56.8,85.1c-1.5,0.6-0.2,1.4-0.2,2.1c-0.7,0.5-0.9-0.4-1.4-0.4c-5.6,0.3-11.2-1.4-16.9-0.3
		c-1.4,0.3-3,0.5-4.4-0.4c-1.3-0.7-2.5,1.1-4,0.3c-0.4-0.2-0.8-0.4-0.9-0.8c1.4-2.1,3.7-1.4,5.6-1.5c2.9-0.3,5.9-0.4,8.9,0.3
		c2.5,0.6,5.1-0.9,7.8-0.3c1,0.2,0.3-1.2,0.9-1.7c0.6,0.5,0.2,1.1,0.3,1.6c0.1,0.3,0,0.9,0.5,0.2c0.1-0.2,0.1-0.5,0.1-0.8
		c0.4-1.4,2,0.1,2.6-1.1C56,83.3,56.4,84.2,56.8,85.1z"/>
	<path class="st83" d="M58.9,38.2c0.7,0.5,1.3,1.3,1.1,2c-1,3.1,0.2,6,0.1,9.1c-0.1,3.9,1,7.9-0.6,11.8c-0.7,0.5-1.5,1-2.2,1.5
		c-1.8-1.8-0.2-3.9-0.3-5.8c-0.4-4.7-0.7-9.6,0.9-14.2c0.2-0.5,0.1-1.1-0.4-1.5c0.4-0.9,0.7-1.8,1.1-2.8
		C58.6,38.3,58.8,38.2,58.9,38.2z"/>
	<path class="st80" d="M93.2,58.4c0.3-1.8,0.9-2.2,3-1.8c3.5,0.6,7.2,0.3,10.8,0.1c1.8-0.1,3.1,0.3,4.2,1.7c-3.3,1-6.7,0.4-10,0.5
		c-1.4,0.1-2.9-0.1-4.3,0.1c-1.1,0.2-1.9,1-2.1,2.1C94.4,60.3,93.8,59.4,93.2,58.4z"/>
	<path class="st84" d="M95.3,61.8c0.7,0.1,0.9-1.3,1.8-0.6c0.1,0.9,0.9,2.1-0.9,2.2C95.9,62.8,95.6,62.3,95.3,61.8z"/>
	<path class="st63" d="M99.7,69.9c0.2-0.2,0.5-0.4,0.7-0.6c1,0.7-0.2,1.4,0,2.2C99.9,71.1,99.8,70.5,99.7,69.9z"/>
	<path class="st79" d="M62.8,101.4c0.6,0,1.2-0.1,1.6,0.5c-0.7,0-1.5,0-2.2,0.1c-0.4,0-0.7,0-1.1,0c-0.4,0.3-0.7,0.3-1.1,0
		c0-0.2-0.1-0.3-0.1-0.5C60.9,100.6,61.9,100.6,62.8,101.4z"/>
	<path class="st74" d="M60.1,102c0.4,0,0.7,0,1.1,0c-1.9,3.1-1.2,6.4-0.8,9.6c0.2,1.9,0.3,3.5-0.8,5.1c-1.3-0.2-2.5,0.1-1.8-2.3
		c0.7-2.7,0.3-5.7,0.1-8.6C57.8,103.9,58,102.4,60.1,102z"/>
	<path class="st85" d="M62.8,101.4c-0.9,0-1.9,0-2.8,0.1c-0.9,0-1.7,0-2.6,0.1c-1.8-0.5-3.5-1.2-5.4-1.2c-1.6-0.9-3.6-0.9-5.1-2.1
		c0.8-0.1,1.6,0,2.4,0.2c4.2,1.1,8.4,1.1,12.7,0.7c1.2-0.1,2.7-0.1,3.6,1.2C64.9,101.4,63.4,100.4,62.8,101.4z"/>
	<path class="st84" d="M98.8,62.2c0.6-1.2,1.5-1.7,3-1.7c4.8,0.1,9.6,0.3,14.4-0.2c1.8-0.2,0,2.6,1.7,1.3c-0.3,1.5-1.5,1.6-2.7,1.6
		c-4.7,0-9.4,0-14.1,0C100.1,63.3,99.2,63.2,98.8,62.2z"/>
	<path class="st84" d="M97.7,61.1c0.1-0.4,0.1-1,0.7-0.7c0.7,0.4,0.3,1.2,0.4,1.8C98.2,62,97.9,61.7,97.7,61.1z"/>
	<path class="st80" d="M93.3,93.3c1.5-0.9,2.9-1.8,4.4-2.8c-0.2,5.4-0.4,10.9-0.5,16.3c1.4,0.2,0.7,1,0.6,1.7
		c-0.1,1-0.1,2.1-0.1,3.1c-0.4-0.5-0.9-1.1-1.4-1.7c-0.8,1.4,0.4,3.2-0.8,4.5c-0.9-4.9-0.4-9.8-0.6-14.8c0-1,0.8-1.7,0.9-2.5
		c0.1-1.4,1.5-3.8-2-3.1C93.7,94.2,93.5,93.6,93.3,93.3z"/>
	<path class="st80" d="M93.9,97.6c-0.6-0.8,0.6-1,0.5-1.6C95.4,96.9,94.4,97.2,93.9,97.6z"/>
	<path class="st75" d="M97.1,107.4c-0.1,0.3,0.1,0.8-0.5,0.7c-0.2,0-0.4-0.3-0.4-0.5c-0.1-0.4,0.3-0.6,0.6-0.6
		C97.4,106.8,97,107.3,97.1,107.4z"/>
</g>
</svg>
