<?xml version="1.0" encoding="utf-8"?>
<!-- Generator: Adobe Illustrator 16.0.0, SVG Export Plug-In . SVG Version: 6.00 Build 0)  -->
<!DOCTYPE svg PUBLIC "-//W3C//DTD SVG 1.1//EN" "http://www.w3.org/Graphics/SVG/1.1/DTD/svg11.dtd">
<svg version="1.1" id="Capa_1" xmlns="http://www.w3.org/2000/svg" xmlns:xlink="http://www.w3.org/1999/xlink" x="0px" y="0px"
	 width="155px" height="155px" viewBox="0 0 155 155" enable-background="new 0 0 155 155" xml:space="preserve">
<circle fill="#EBECF0" cx="77.5" cy="77.499" r="71.5"/>
<g>
	<path fill-rule="evenodd" clip-rule="evenodd" fill="#04256C" d="M80.196,67.279c-0.199,0.02-0.397,0.051-0.597,0.057
		c-1.717,0.051-3.433,0.112-5.151,0.136c-0.358,0.005-0.519,0.118-0.638,0.447c-1.626,4.492-3.257,8.983-4.902,13.468
		c-0.678,1.85-1.397,3.684-2.585,5.285c-1.276,1.719-2.983,2.563-5.127,2.497c-0.157-0.006-0.312-0.106-0.467-0.165
		c0.082-0.124,0.144-0.272,0.25-0.371c0.92-0.858,1.524-1.933,1.995-3.071c0.871-2.104,1.685-4.231,2.519-6.351
		c0.041-0.104,0.05-0.221,0-0.395c-0.125,0.102-0.259,0.195-0.374,0.308c-1.625,1.584-3.395,2.959-5.528,3.801
		c-1.363,0.537-2.774,0.853-4.251,0.723c-2.38-0.211-3.776-1.744-3.801-4.145c-0.022-2.125,0.587-4.095,1.519-5.97
		c1.317-2.649,3.025-4.987,5.552-6.627c1.419-0.921,2.929-1.621,4.647-1.738c0.395-0.027,0.802-0.003,1.193,0.062
		c1.369,0.226,1.984,1.106,1.763,2.476c-0.222,1.373-0.988,2.458-1.874,3.469c-1.995,2.279-4.479,3.908-7.172,5.217
		c-0.772,0.375-1.132,0.853-1.152,1.667c-0.015,0.605-0.107,1.213-0.074,1.815c0.057,1.06,0.662,1.606,1.721,1.634
		c1.467,0.04,2.752-0.517,3.956-1.275c2.161-1.362,3.903-3.175,5.392-5.227c0.354-0.487,0.483-1.138,0.704-1.717
		c0.675-1.769,1.346-3.54,2.017-5.31c0.046-0.122,0.071-0.251,0.138-0.488c-0.793,0.08-1.518,0.152-2.291,0.229
		c-0.206-0.166-0.077-0.322,0.108-0.489c0.722-0.654,1.566-1.068,2.516-1.242c0.336-0.063,0.501-0.227,0.646-0.515
		c1.119-2.232,2.525-4.248,4.466-5.854c2.271-1.881,4.919-2.786,7.826-3.014c1.6-0.126,3.198-0.165,4.774,0.215
		c0.932,0.226,1.818,0.556,2.448,1.334c0.556,0.687,0.658,1.444,0.259,2.241c-0.715,1.43-1.921,2.337-3.304,3.044
		c-0.104,0.053-0.257,0.007-0.502,0.007c0.253-0.335,0.415-0.542,0.569-0.754c0.578-0.792,0.79-1.686,0.684-2.647
		c-0.096-0.858-0.629-1.413-1.374-1.783c-1.101-0.547-2.279-0.603-3.473-0.505c-2.499,0.206-4.381,1.505-5.9,3.407
		c-1.042,1.304-1.826,2.762-2.475,4.295c-0.032,0.077-0.045,0.162-0.062,0.229c3.599,0,7.175,0,10.757,0
		c-0.121,0.539-0.259,1.021-1.01,1.182c-1.075,0.232-1.889,0.977-2.587,1.795c-2.489,2.914-3.973,6.281-4.435,10.087
		c-0.057,0.466-0.038,0.95,0.017,1.418c0.138,1.189,0.957,1.729,2.082,1.3c0.55-0.21,1.078-0.571,1.511-0.976
		c1.615-1.511,2.605-3.431,3.392-5.461c0.837-2.158,1.314-4.392,1.29-6.719c-0.005-0.524,0.147-0.662,0.843-0.819
		c1.457-0.332,2.916-0.657,4.37-0.999c1.139-0.267,2.268-0.57,3.408-0.823c0.356-0.08,0.738-0.086,1.104-0.063
		c0.996,0.061,1.47,0.594,1.316,1.584c-0.117,0.755-0.331,1.502-0.571,2.231c-0.259,0.785-0.599,1.544-0.899,2.315
		c-0.051,0.128-0.087,0.262-0.131,0.392c0.038,0.021,0.076,0.043,0.115,0.064c0.118-0.15,0.247-0.294,0.356-0.453
		c1.31-1.899,2.744-3.686,4.679-4.998c1.137-0.771,2.366-1.276,3.778-1.222c1.587,0.061,2.483,1.045,2.154,2.595
		c-0.24,1.132-0.651,2.244-1.117,3.307c-0.839,1.91-1.836,3.751-2.652,5.669c-0.646,1.519-1.162,3.097-1.656,4.673
		c-0.373,1.192-0.362,2.423,0.026,3.762c-0.273,0.009-0.528,0.079-0.744,0.012c-2.253-0.686-3.366-2.666-2.902-5.09
		c0.313-1.628,0.943-3.145,1.627-4.639c0.897-1.964,1.838-3.909,2.745-5.869c0.146-0.318,0.246-0.668,0.305-1.015
		c0.113-0.664-0.268-0.983-0.889-0.712c-0.426,0.186-0.84,0.453-1.182,0.767c-2.044,1.863-3.712,4.043-5.032,6.455
		c-1.342,2.451-2.53,4.985-3.767,7.493c-0.16,0.322-0.327,0.456-0.697,0.447c-1.063-0.028-2.126-0.011-3.266-0.011
		c0.287-0.702,0.553-1.339,0.808-1.982c1.527-3.85,3.06-7.698,4.569-11.554c0.173-0.448,0.271-0.942,0.312-1.421
		c0.044-0.552-0.254-0.805-0.801-0.725c-0.879,0.128-1.754,0.287-2.623,0.465c-0.11,0.022-0.24,0.23-0.262,0.367
		c-0.67,4.644-2.611,8.674-5.868,12.049c-1.333,1.38-2.869,2.5-4.796,2.895c-0.714,0.146-1.478,0.189-2.202,0.114
		c-1.79-0.186-2.858-1.34-3.049-3.152c-0.168-1.596,0.139-3.131,0.64-4.629c0.863-2.581,2.208-4.88,4.192-6.763
		c0.565-0.535,1.237-0.958,1.862-1.43c0.108-0.082,0.225-0.152,0.338-0.228C80.226,67.343,80.211,67.311,80.196,67.279z
		 M56.585,75.463c0.171-0.045,0.233-0.047,0.279-0.076c2.014-1.244,3.877-2.666,5.299-4.588c0.63-0.853,1.137-1.773,1.173-2.872
		c0.028-0.835-0.385-1.174-1.201-0.991c-0.884,0.199-1.51,0.787-2.072,1.447c-1.272,1.494-2.136,3.221-2.812,5.046
		C57.013,74.075,56.822,74.737,56.585,75.463z"/>
	<path fill-rule="evenodd" clip-rule="evenodd" fill="#04256C" d="M115.542,65.635c-0.649,1.368-1.272,2.61-1.837,3.878
		c-1.292,2.905-2.568,5.817-3.818,8.74c-0.247,0.578-0.394,1.213-0.498,1.836c-0.164,0.991,0.345,1.453,1.321,1.188
		c0.476-0.129,0.927-0.384,1.356-0.637c0.34-0.2,0.636-0.481,0.944-0.734c0.753-0.615,1.151-1.363,1.386-2.358
		c1.044-4.427,3.222-8.172,7.127-10.696c2.034-1.315,4.289-1.825,6.711-1.325c0.216,0.044,0.433,0.109,0.635,0.197
		c1.077,0.467,1.431,1.445,0.866,2.48c-0.193,0.357-0.437,0.739-0.759,0.969c-0.801,0.573-1.654,1.076-2.503,1.576
		c-0.136,0.079-0.363-0.001-0.503-0.006c0.4-0.725,0.803-1.345,1.092-2.014c0.223-0.516,0.347-1.134-0.117-1.589
		c-0.481-0.473-1.128-0.4-1.668-0.136c-0.59,0.289-1.175,0.65-1.646,1.102c-1.787,1.71-2.946,3.839-3.857,6.11
		c-0.648,1.616-1.112,3.279-1.149,5.037c-0.002,0.029-0.009,0.06-0.009,0.089c-0.061,1.634,0.838,2.407,2.405,1.979
		c0.674-0.185,1.336-0.5,1.927-0.874c1.325-0.839,2.43-1.937,3.377-3.186c0.096-0.126,0.153-0.284,0.216-0.433
		c1.219-2.925,2.766-5.642,5.115-7.818c3.146-2.912,6.877-3.929,11.081-3.295c0.49,0.074,0.959,0.288,1.433,0.452
		c0.289,0.1,0.359,0.269,0.212,0.578c-1.606,3.369-2.991,6.828-4.199,10.359c-0.68,1.985-1.181,4.007-1.313,6.104
		c-0.049,0.761,0.028,1.529,0.051,2.382c-0.162,0-0.396,0.047-0.603-0.007c-1.959-0.514-2.981-2.107-2.732-4.273
		c0.084-0.729,0.225-1.452,0.267-2.226c-0.096,0.114-0.196,0.226-0.286,0.345c-1.187,1.566-2.538,2.959-4.377,3.733
		c-0.734,0.309-1.559,0.51-2.353,0.546c-1.835,0.081-3.009-1.11-3.056-2.948c-0.007-0.245-0.001-0.489-0.001-0.831
		c-0.512,0.465-0.93,0.875-1.38,1.248c-1.585,1.317-3.326,2.35-5.429,2.52c-0.782,0.063-1.605-0.013-2.369-0.196
		c-1.178-0.286-1.918-1.119-2.285-2.275c-0.044-0.138-0.081-0.279-0.144-0.493c-0.171,0.139-0.306,0.24-0.432,0.352
		c-1.408,1.242-2.947,2.253-4.84,2.559c-0.562,0.092-1.16,0.102-1.72,0.01c-1.461-0.24-2.231-1.262-2.127-2.744
		c0.104-1.48,0.548-2.882,1.15-4.223c1.398-3.118,2.84-6.216,4.262-9.324c0.268-0.583,0.714-0.935,1.34-1.05
		C113.011,66.089,114.218,65.875,115.542,65.635z M140.385,67.118c-0.739-0.182-1.39-0.108-2.038,0.072
		c-1.289,0.359-2.285,1.163-3.172,2.115c-1.826,1.965-3.13,4.258-4.128,6.732c-0.509,1.264-0.952,2.554-1.027,3.931
		c-0.056,1.019,0.43,1.385,1.409,1.095c0.168-0.05,0.354-0.1,0.488-0.206c0.689-0.548,1.434-1.05,2.034-1.688
		c1.192-1.269,2.088-2.759,2.84-4.324c1.132-2.358,2.219-4.737,3.324-7.108C140.202,67.554,140.277,67.365,140.385,67.118z"/>
	<path fill-rule="evenodd" clip-rule="evenodd" fill="#04256C" d="M154.998,97.744c-0.911,0.058-1.824,0.145-2.737,0.169
		c-4.856,0.132-9.714,0.285-14.571,0.358c-7.954,0.121-15.909,0.194-23.864,0.273c-4.592,0.046-9.184,0.075-13.777,0.089
		c-9.497,0.024-18.993,0.04-28.49,0.048c-5.022,0.003-10.045-0.01-15.067-0.03c-4.919-0.02-9.837-0.048-14.755-0.089
		c-5.867-0.049-11.733-0.086-17.599-0.183c-6.902-0.112-13.803-0.279-20.704-0.436c-0.991-0.022-1.981-0.11-2.972-0.171
		c-0.154-0.01-0.307-0.036-0.46-0.055c0.001-0.041,0.002-0.083,0.003-0.126c0.967-0.057,1.934-0.145,2.901-0.166
		c6.294-0.15,12.587-0.312,18.882-0.417c5.703-0.096,11.406-0.134,17.11-0.184c4.474-0.04,8.947-0.071,13.421-0.089
		c8.134-0.032,16.267-0.068,24.401-0.07c8.208-0.003,16.416,0.025,24.625,0.054c4.695,0.016,9.392,0.048,14.087,0.089
		c5.586,0.049,11.172,0.083,16.755,0.182c6.827,0.122,13.653,0.3,20.48,0.462c0.782,0.019,1.564,0.096,2.346,0.146
		C155.007,97.646,155.003,97.695,154.998,97.744z"/>
	<path fill-rule="evenodd" clip-rule="evenodd" fill="#04256C" d="M33.205,58.908c-0.163-0.054-0.202-0.078-0.239-0.077
		c-3.094,0.031-6.196-0.145-9.266,0.412c-2.235,0.405-4.36,1.074-6.199,2.484c-2.075,1.592-3.212,4.429-2.13,7.3
		c-0.222,0-0.418,0.03-0.602-0.004c-2.072-0.393-3.405-2.405-3.021-4.571c0.324-1.83,1.333-3.236,2.773-4.355
		c1.929-1.498,4.174-2.258,6.527-2.752c2.287-0.48,4.606-0.618,6.936-0.619c5.423-0.002,10.846,0.004,16.269-0.003
		c1.421-0.001,2.844-0.028,4.222-0.462c0.083-0.027,0.257,0.016,0.282,0.074c0.034,0.077-0.006,0.225-0.066,0.299
		c-0.586,0.715-1.334,1.211-2.193,1.537c-1.335,0.507-2.734,0.64-4.146,0.649c-2,0.012-4,0.011-6-0.005
		c-0.355-0.002-0.618,0.112-0.88,0.331c-1.045,0.872-1.833,1.957-2.38,3.176c-1.118,2.494-2.217,5.001-3.199,7.551
		c-1.716,4.458-3.327,8.958-5.003,13.431c-0.619,1.65-1.442,3.185-2.807,4.36c-1.425,1.228-3.107,1.661-4.949,1.572
		c-0.115-0.007-0.253-0.124-0.322-0.229c-0.035-0.052,0.031-0.231,0.103-0.285c1.101-0.818,1.753-1.975,2.26-3.189
		c1.051-2.525,2.018-5.085,3.017-7.631c1.541-3.922,3.033-7.866,4.638-11.763c1.205-2.926,3.203-5.235,5.907-6.911
		C32.869,59.145,32.994,59.051,33.205,58.908z"/>
	<path fill-rule="evenodd" clip-rule="evenodd" fill="#04256C" d="M43.781,79.164c-0.137,0.116-0.281,0.225-0.41,0.349
		c-1.73,1.654-3.63,3.042-5.941,3.779c-0.91,0.29-1.84,0.447-2.801,0.369c-2.257-0.188-3.568-1.506-3.709-3.768
		c-0.124-1.983,0.364-3.855,1.165-5.643c1.383-3.083,3.285-5.758,6.225-7.563c1.325-0.813,2.732-1.425,4.311-1.52
		c0.41-0.024,0.831,0,1.237,0.067c1.284,0.213,1.884,1.042,1.736,2.338c-0.105,0.923-0.49,1.732-1.014,2.481
		c-1.357,1.937-3.131,3.43-5.116,4.672c-1.127,0.706-2.31,1.323-3.48,1.956c-0.275,0.149-0.443,0.32-0.469,0.63
		c-0.073,0.883-0.229,1.767-0.207,2.646c0.029,1.101,0.626,1.574,1.737,1.553c1.087-0.023,2.053-0.433,2.952-0.996
		c2.199-1.377,3.93-3.253,5.329-5.398c0.693-1.063,1.065-2.336,1.596-3.508c1.712-3.772,3.431-7.54,5.143-11.312
		c0.28-0.617,0.734-0.968,1.408-1.082c1.09-0.185,2.176-0.404,3.363-0.628c-0.312,0.75-0.578,1.432-0.875,2.1
		c-1.946,4.379-3.927,8.742-5.836,13.137c-1.101,2.536-2.14,5.104-2.755,7.815c-0.273,1.203-0.464,2.414-0.176,3.648
		c0.068,0.293-0.216,0.454-0.586,0.32c-1.35-0.493-2.353-1.351-2.8-2.762c-0.327-1.031-0.278-2.073-0.046-3.116
		c0.037-0.169,0.072-0.337,0.108-0.506C43.839,79.204,43.81,79.185,43.781,79.164z M35.957,75.428
		c0.233-0.081,0.348-0.1,0.438-0.156c1.931-1.21,3.719-2.588,5.098-4.431c0.599-0.801,1.083-1.665,1.198-2.684
		c0.121-1.061-0.442-1.514-1.451-1.154c-0.793,0.284-1.38,0.851-1.904,1.485c-1.25,1.513-2.096,3.252-2.778,5.076
		C36.341,74.139,36.179,74.732,35.957,75.428z"/>
	<path fill-rule="evenodd" clip-rule="evenodd" fill="#04256C" d="M118.039,60.066c0.01,1.079-0.856,2.235-1.896,2.53
		c-1.089,0.31-2.01-0.392-2.006-1.529c0.002-1.044,0.783-2.139,1.775-2.486C117.056,58.182,118.027,58.86,118.039,60.066z"/>
</g>
</svg>
