<?xml version="1.0" encoding="utf-8"?>
<!-- Generator: Adobe Illustrator 16.0.0, SVG Export Plug-In . SVG Version: 6.00 Build 0)  -->
<!DOCTYPE svg PUBLIC "-//W3C//DTD SVG 1.1//EN" "http://www.w3.org/Graphics/SVG/1.1/DTD/svg11.dtd">
<svg version="1.1" id="Capa_1" xmlns="http://www.w3.org/2000/svg" xmlns:xlink="http://www.w3.org/1999/xlink" x="0px" y="0px"
	 width="155px" height="155px" viewBox="0 0 155 155" enable-background="new 0 0 155 155" xml:space="preserve">
<circle fill="#EBECF0" cx="77.5" cy="77.499" r="71.5"/>
<g>
	<path fill-rule="evenodd" clip-rule="evenodd" fill="#E60000" d="M96.649,29.598c-6.313-0.033-12.249,0.901-17.939,3.064
		c-12.737,4.842-22.024,13.348-27.021,26.154c-2.975,7.625-3.718,15.509-1.206,23.408c3.374,10.604,10.461,17.547,21.406,19.959
		c9.067,1.998,17.149-0.447,23.952-6.78c9.602-8.939,10.262-23.103,4.596-32.667c-3.316-5.597-8.404-8.94-14.463-10.952
		c-1.068-0.355-2.158-0.672-3.262-0.89c-0.712-0.141-0.805-0.503-0.786-1.111c0.233-7.411,3.526-13.11,9.761-17.024
		c1.732-1.088,3.775-1.693,5.705-2.445c0.389-0.151,0.965-0.091,1.361,0.084c16.164,7.115,26.85,19.006,30.518,36.421
		c3.12,14.806-0.341,28.369-9.756,40.22c-8.4,10.575-19.449,16.959-32.779,18.989c-18.139,2.762-34.002-2.166-47.067-15.182
		c-7.548-7.521-12.272-16.676-13.586-27.285c-2.517-20.318,5.104-36.282,21.6-48.076c7.375-5.273,15.776-8.092,24.785-8.979
		c8.067-0.794,15.958,0.126,23.621,2.83C96.2,29.375,96.304,29.435,96.649,29.598z"/>
</g>
</svg>
