<?xml version="1.0" encoding="utf-8"?>
<!-- Generator: Adobe Illustrator 16.0.0, SVG Export Plug-In . SVG Version: 6.00 Build 0)  -->
<!DOCTYPE svg PUBLIC "-//W3C//DTD SVG 1.1//EN" "http://www.w3.org/Graphics/SVG/1.1/DTD/svg11.dtd">
<svg version="1.1" id="Capa_1" xmlns="http://www.w3.org/2000/svg" xmlns:xlink="http://www.w3.org/1999/xlink" x="0px" y="0px"
	 width="155px" height="155px" viewBox="0 0 155 155" enable-background="new 0 0 155 155" xml:space="preserve">
<circle fill="#EBECF0" cx="77.5" cy="77.499" r="71.5"/>
<g>
	<path fill-rule="evenodd" clip-rule="evenodd" fill="#00C86B" d="M131.758,76.994c-0.021,29.156-23.309,54.048-54.042,54.108
		c-30.373,0.061-53.949-24.403-54.19-53.723c-0.245-29.821,23.939-54.456,53.922-54.523
		C107.469,22.789,131.687,46.979,131.758,76.994z M60.374,35.689c-0.969,0.334-1.938,0.668-2.908,1.002
		c-7.743,3.475-13.482,9.166-18.209,16.368c2.426,2.344,4.779,4.617,7.132,6.892c-0.174,0.177-0.348,0.354-0.521,0.533
		c-0.485-0.141-0.97-0.283-1.643-0.478c0.122,0.704,0.229,1.136,0.263,1.573c0.034,0.425,0.054,0.868-0.024,1.283
		c-1.027,5.504,0.688,9.875,5.29,13.124c0.583,0.412,1.044,1.079,1.399,1.717c1.687,3.035,3.318,6.101,4.97,9.153
		c0.263-0.129,0.525-0.258,0.788-0.387c-1.239-2.553-2.478-5.104-3.991-8.224c0.998,0.473,1.449,0.539,1.625,0.794
		c1.179,1.697,2.412,3.372,3.411,5.175c1.417,2.559,4.344,4.213,4.431,7.609c0.015,0.627,0.863,1.522,1.53,1.791
		c2.376,0.956,4.241,2.782,7.192,2.908c2.314,0.099,4.552,1.96,6.83,3.021c0.194,0.091,0.468,0.004,0.667,0.087
		c0.254,0.107,0.508,0.271,0.697,0.47c1.68,1.764,3.322,3.564,5.035,5.295c0.376,0.381,1.276,0.86,1.43,0.724
		c0.458-0.405,0.665-1.095,0.794-1.34c-1.231-0.682-2.35-1.014-3.023-1.751c-0.766-0.836-1.433-2.021,0.006-3.063
		c0.134-0.098-0.067-0.694-0.152-1.049c-0.6-2.455-1.604-2.972-5.453-2.506c0.504-1.579,0.986-2.953,1.368-4.356
		c0.142-0.518,0.218-1.497,0.026-1.58c-0.552-0.238-1.389-0.364-1.864-0.094c-0.588,0.332-0.842,1.206-1.391,1.667
		c-0.77,0.645-1.638,1.504-2.533,1.596c-1.949,0.2-3.461-1.285-3.814-3.676c-0.216-1.464,0.01-2.995,0.05-4.495
		c0.091-3.533,2.13-5.179,5.554-4.572c0.473,0.084,1.08-0.128,1.52-0.384c2.214-1.288,6.206,0.197,7.094,2.611
		c0.337,0.915,0.913,1.744,1.38,2.613c0.271-0.109,0.54-0.219,0.812-0.328c-0.095-1.547,0.233-3.288-0.37-4.601
		c-1.247-2.708-1.374-2.712,1.322-4.185c1.82-0.994,3.22-2.241,2.285-4.744c-0.173-0.462,0.691-1.521,1.308-2.023
		c1.351-1.104,3.631-1.748,4.113-3.089c0.864-2.409,3.015-2.482,4.52-3.651c0.502-0.39,1.123-0.627,1.181-0.658c0-1.5,0-2.5,0-3.986
		c-1.38,0.377-2.855,0.781-4.173,1.141c1.565-2.059,5.482-2.917,8.649-1.872c1.077-0.621,2.034-1.182,2.998-1.729
		c1.177-0.668,1.81-1.117,0.342-2.442c-1.943-1.757-5.166-2.07-5.906-5.234c-0.164-0.7-0.895-1.268-1.295-1.806
		c-0.98,0.55-1.719,1.24-2.527,1.337c-0.739,0.088-1.978-0.237-2.266-0.772c-1.548-2.889-4.667-4.305-7.804-3.383
		c-0.093,1.473-0.18,2.898-0.29,4.682c0.316,0.651,2.646,1.46,0.562,2.794c-1.886,1.207-1.854,2.477-0.863,4.042
		c-1.521,1.493-2.464,0.976-3.234-0.568c-0.493-0.988-0.846-2.444-1.656-2.802c-2.282-1.008-4.74-1.67-7.182-2.25
		c-1.623-0.386-3.033-1.85-2.638-3.449c0.491-1.979,1.217-3.76,3.692-4.214c0.967-0.177,2.017-1.035,2.604-1.877
		c0.851-1.22,1.541-1.941,3.104-1.167c0.407,0.202,1.646-0.317,1.637-0.375c-0.166-1.109-0.461-2.198-0.729-3.291
		c-0.664,0.275-1.44,0.417-1.966,0.858c-0.702,0.587-1.21,1.407-1.851,2.185c-1.237-0.963-1.465-2.853-3.437-2.291
		c-0.361,0.103-1.004-1.182-1.659-1.612c-0.878-0.578-1.866-1.036-2.868-1.352c-0.282-0.089-0.777,0.5-1.175,0.778
		c0.284,0.387,0.498,0.872,0.867,1.138c0.612,0.438,1.325,0.734,1.889,1.034c-0.874,0.978-1.545,1.73-2.194,2.457
		c-0.73-2.084-2.618-0.875-4.11-1.099c-0.927-0.141-2.358-0.305-2.625-0.888C63.194,33.828,62.436,33.593,60.374,35.689z
		 M85.272,121.586c10.074-1.793,18.127-6.168,24.632-12.974c-1.421-1.158-2.623-2.263-3.951-3.184
		c-1.207-0.838-2.753-2.291-3.794-2.034c-2.179,0.538-3.525-0.611-5.174-1.309c-1.989-0.839-3.962-1.344-5.794,0.458
		c-0.963,0.948-2.053,1.768-3.254,2.788c0.018,0.137,0.053,0.587,0.129,1.029c0.496,2.929,0.966,5.799-1.851,8.031
		c-0.485,0.386-0.466,1.493-0.55,2.281c-0.091,0.86,0.004,1.737-0.049,2.604C85.578,119.911,85.435,120.539,85.272,121.586z"/>
	<path fill-rule="evenodd" clip-rule="evenodd" fill="#00FFFF" d="M60.374,35.689c2.062-2.096,2.82-1.861,4.023,0.76
		c0.267,0.583,1.698,0.748,2.625,0.888c1.492,0.225,3.379-0.985,4.11,1.099c0.648-0.726,1.32-1.479,2.194-2.457
		c-0.563-0.3-1.277-0.596-1.889-1.034c-0.37-0.266-0.583-0.751-0.867-1.138c0.398-0.278,0.894-0.867,1.175-0.778
		c1.002,0.315,1.99,0.773,2.868,1.352c0.655,0.431,1.297,1.715,1.659,1.612c1.972-0.562,2.199,1.328,3.437,2.291
		c0.641-0.778,1.148-1.598,1.851-2.185c0.525-0.441,1.302-0.583,1.966-0.858c0.268,1.093,0.563,2.182,0.729,3.291
		c0.009,0.059-1.229,0.577-1.637,0.375c-1.563-0.773-2.254-0.052-3.104,1.167c-0.588,0.843-1.638,1.7-2.604,1.877
		c-2.476,0.454-3.202,2.235-3.692,4.214c-0.396,1.599,1.015,3.063,2.638,3.449c2.441,0.58,4.899,1.242,7.182,2.25
		c0.811,0.358,1.163,1.814,1.656,2.802c0.771,1.543,1.713,2.061,3.234,0.568c-0.991-1.565-1.022-2.835,0.863-4.042
		c2.085-1.334-0.245-2.143-0.562-2.794c0.11-1.783,0.197-3.209,0.29-4.682c3.137-0.921,6.256,0.495,7.804,3.383
		c0.288,0.535,1.526,0.861,2.266,0.772c0.809-0.097,1.547-0.788,2.527-1.337c0.4,0.538,1.131,1.106,1.295,1.806
		c0.74,3.164,3.963,3.477,5.906,5.234c1.468,1.326,0.835,1.774-0.342,2.442c-0.964,0.547-1.921,1.107-2.998,1.729
		c-3.167-1.045-7.084-0.187-8.649,1.872c1.317-0.36,2.793-0.764,4.173-1.141c0,1.486,0,2.486,0,3.986
		c-0.058,0.031-0.679,0.268-1.181,0.658c-1.505,1.169-3.655,1.243-4.52,3.651c-0.482,1.341-2.763,1.985-4.113,3.089
		c-0.616,0.503-1.48,1.562-1.308,2.023c0.935,2.502-0.465,3.75-2.285,4.744c-2.696,1.473-2.569,1.477-1.322,4.185
		c0.604,1.313,0.275,3.054,0.37,4.601c-0.271,0.109-0.541,0.219-0.812,0.328c-0.467-0.869-1.043-1.698-1.38-2.613
		c-0.888-2.414-4.88-3.899-7.094-2.611c-0.439,0.256-1.047,0.468-1.52,0.384c-3.423-0.606-5.462,1.039-5.554,4.572
		c-0.04,1.5-0.266,3.031-0.05,4.495c0.354,2.391,1.866,3.876,3.814,3.676c0.895-0.092,1.764-0.951,2.533-1.596
		c0.549-0.461,0.803-1.335,1.391-1.667c0.476-0.271,1.313-0.145,1.864,0.094c0.191,0.083,0.115,1.063-0.026,1.58
		c-0.382,1.403-0.864,2.777-1.368,4.356c3.849-0.466,4.854,0.051,5.453,2.506c0.085,0.354,0.286,0.951,0.152,1.049
		c-1.438,1.042-0.771,2.227-0.006,3.063c0.674,0.737,1.792,1.069,3.023,1.751c-0.129,0.245-0.336,0.935-0.794,1.34
		c-0.153,0.137-1.054-0.343-1.43-0.724c-1.713-1.73-3.355-3.531-5.035-5.295c-0.189-0.198-0.443-0.362-0.697-0.47
		c-0.199-0.083-0.473,0.004-0.667-0.087c-2.278-1.062-4.516-2.923-6.83-3.021c-2.951-0.126-4.816-1.952-7.192-2.908
		c-0.667-0.269-1.515-1.164-1.53-1.791c-0.087-3.396-3.014-5.051-4.431-7.609c-0.999-1.803-2.232-3.478-3.411-5.175
		c-0.177-0.255-0.628-0.321-1.625-0.794c1.514,3.12,2.752,5.671,3.991,8.224c-0.263,0.129-0.525,0.258-0.788,0.387
		c-1.652-3.053-3.283-6.118-4.97-9.153c-0.355-0.639-0.815-1.306-1.399-1.717c-4.601-3.25-6.316-7.62-5.29-13.124
		c0.078-0.416,0.058-0.858,0.024-1.283c-0.034-0.437-0.142-0.869-0.263-1.573c0.672,0.195,1.158,0.337,1.643,0.478
		c0.174-0.178,0.348-0.356,0.521-0.533c-2.353-2.274-4.706-4.548-7.132-6.892c4.727-7.202,10.466-12.894,18.209-16.368
		c1.341-0.296,1.766-1.035,2.15-0.741c1.403-0.728-0.551,0.378,0.529-0.182C60.186,35.608,60.333,35.849,60.374,35.689
		C59.454,35.625,61.294,35.752,60.374,35.689z"/>
	<path fill-rule="evenodd" clip-rule="evenodd" fill="#00FFFF" d="M85.272,121.586c0.162-1.047,0.306-1.675,0.345-2.309
		c0.053-0.866-0.042-1.743,0.049-2.604c0.084-0.788,0.064-1.896,0.55-2.281c2.816-2.232,2.347-5.103,1.851-8.031
		c-0.076-0.442-0.111-0.893-0.129-1.029c1.201-1.021,2.291-1.84,3.254-2.788c1.832-1.802,3.805-1.297,5.794-0.458
		c1.648,0.697,2.995,1.847,5.174,1.309c1.041-0.257,2.587,1.196,3.794,2.034c1.328,0.921,2.53,2.025,3.951,3.184
		C103.399,115.418,95.347,119.793,85.272,121.586z"/>
</g>
</svg>
