<?xml version="1.0" encoding="utf-8"?>
<!-- Generator: Adobe Illustrator 16.0.0, SVG Export Plug-In . SVG Version: 6.00 Build 0)  -->
<!DOCTYPE svg PUBLIC "-//W3C//DTD SVG 1.1//EN" "http://www.w3.org/Graphics/SVG/1.1/DTD/svg11.dtd">
<svg version="1.1" id="Capa_1" xmlns="http://www.w3.org/2000/svg" xmlns:xlink="http://www.w3.org/1999/xlink" x="0px" y="0px"
	 width="155px" height="155px" viewBox="0 0 155 155" enable-background="new 0 0 155 155" xml:space="preserve">
<circle fill="#EBECF0" cx="77.5" cy="77.499" r="71.5"/>
<g>
	<g>
		<g>
			<g>
				<g>
					<g>
						<g>
							
								<rect x="50.795" y="17.079" transform="matrix(-0.4373 -0.8993 0.8993 -0.4373 48.3715 190.6111)" fill="#00C86B" width="66.044" height="126.187"/>
							
								<rect x="54.198" y="21.164" transform="matrix(-0.4373 -0.8993 0.8993 -0.4373 48.3707 190.6077)" fill="#009550" width="59.235" height="118.015"/>
							<path fill="#00C86B" d="M126.719,42.112c-0.41,0.307-0.85,0.583-1.326,0.815c-4.188,2.038-9.233,0.293-11.271-3.894
								c-0.207-0.428-0.369-0.877-0.5-1.318L31.97,77.42c0.34,0.439,0.643,0.921,0.895,1.439c2.034,4.184,0.293,9.232-3.895,11.271
								c-0.479,0.231-0.966,0.407-1.46,0.541l13.402,27.563c0.415-0.301,0.853-0.578,1.331-0.812
								c4.188-2.036,9.233-0.292,11.269,3.896c0.211,0.434,0.363,0.877,0.498,1.32l81.828-39.793c-0.207-0.308-0.4-0.628-0.566-0.97
								c-2.037-4.188-0.293-9.232,3.896-11.271c0.387-0.188,0.785-0.337,1.184-0.462L126.719,42.112z"/>
						</g>
						<g>
							<path fill="#FDFEFF" d="M67.35,87.751c-5.086-10.457-0.74-23.047,9.713-28.131c10.441-5.077,23.029-0.72,28.113,9.737
								c5.086,10.459,0.742,23.055-9.699,28.132C85.023,102.57,72.436,98.21,67.35,87.751z"/>
							<path fill="#A5C089" d="M95.391,70.266c0.775,3.687-1.379,6.485-3.926,8.673c-0.385,0.338-0.955,0.76-1.602,1.23
								c-1.324,0.964-2.967,2.154-4.025,3.299c-0.82,0.883-1.291,1.735-0.986,2.438c0.146,0.33,0.334,1.064,0.625,1.287
								c0.519,0.402,1.248,0.867,2.494,0.662c0.271-0.043,0.553-0.11,0.871-0.222c0.799-0.282,2.32-1.091,3.035-1.56
								c0.24-0.152,0.434-0.329,0.609-0.51c1.477-1.58,0.25-3.814,0.25-3.814l5.918-2.878c0,0,3.252,5.919-3.453,10.608
								c-0.178,0.131-0.393,0.26-0.615,0.399l0.951,1.959l-4.553,2.214L90.035,92.1c-0.244,0.088-0.469,0.166-0.676,0.223
								c-5.529,1.572-7.688-0.446-9.426-1.872c-0.728-0.591-1.574-2.331-1.677-3.249c-0.303-2.831,0.509-5.346,5.167-8.693
								c0.585-0.417,1.221-0.846,1.926-1.289c0.627-0.393,1.432-1.099,2.146-1.918c0.842-0.969,1.545-2.11,1.61-3.099
								c0.047-0.539-0.455-1.572-0.907-1.868c-0.666-0.457-1.982-0.772-3.369-0.514c-0.095,0.021-0.183,0.032-0.276,0.052
								c-0.957,0.24-2.738,1.238-3.589,1.746c-0.255,0.15-0.455,0.31-0.657,0.478c-2.439,2.099-0.381,5.206-0.381,5.206l-6.11,3.054
								c0,0-3.573-7.737,4.329-12.707l-0.972-1.995l4.554-2.214l0.934,1.919c0.178-0.083,0.354-0.161,0.514-0.232
								c1.906-0.846,8.104-1.229,10.742,2.108C94.434,67.88,95.219,69.449,95.391,70.266z"/>
						</g>
					</g>
					<g>
						<g>
							
								<rect x="43.278" y="20.367" transform="matrix(-0.298 -0.9546 0.9546 -0.298 19.3673 181.168)" fill="#00C86B" width="66.046" height="126.191"/>
							
								<rect x="46.698" y="24.454" transform="matrix(-0.2981 -0.9545 0.9545 -0.2981 19.3997 181.1851)" fill="#009550" width="59.235" height="118.013"/>
							<path fill="#00C86B" d="M124.418,52.237c-0.453,0.242-0.928,0.45-1.436,0.607c-4.445,1.388-9.174-1.09-10.563-5.535
								c-0.142-0.454-0.233-0.922-0.299-1.377L25.456,72.993c0.271,0.484,0.497,1.006,0.669,1.557
								c1.387,4.44-1.09,9.173-5.535,10.562c-0.509,0.158-1.016,0.259-1.525,0.316l9.135,29.256
								c0.455-0.236,0.928-0.443,1.436-0.604c4.445-1.389,9.173,1.09,10.561,5.535c0.144,0.46,0.228,0.92,0.294,1.378l86.854-27.119
								c-0.158-0.335-0.304-0.681-0.416-1.043c-1.388-4.445,1.09-9.174,5.536-10.563c0.41-0.127,0.826-0.217,1.24-0.279
								L124.418,52.237z"/>
						</g>
						<g>
							<path fill="#FDFEFF" d="M58.895,88.494c-3.465-11.101,2.712-22.901,13.808-26.365c11.083-3.459,22.877,2.728,26.342,13.828
								c3.467,11.102-2.711,22.906-13.793,26.366C74.158,105.788,62.361,99.596,58.895,88.494z"/>
							<path fill="#A5C089" d="M89.234,75.394c0.217,3.762-2.334,6.208-5.18,7.989c-0.431,0.276-1.058,0.608-1.768,0.979
								c-1.452,0.757-3.255,1.687-4.474,2.66c-0.943,0.75-1.535,1.523-1.338,2.262c0.094,0.352,0.172,1.104,0.426,1.365
								c0.451,0.478,1.104,1.043,2.367,1.028c0.274-0.002,0.563-0.026,0.896-0.088c0.832-0.159,2.457-0.731,3.233-1.089
								c0.261-0.115,0.478-0.262,0.679-0.413c1.694-1.342,0.817-3.733,0.817-3.733l6.279-1.961c0,0,2.332,6.338-4.998,9.974
								c-0.197,0.102-0.426,0.196-0.67,0.304l0.65,2.079l-4.832,1.509l-0.648-2.074c-0.254,0.051-0.486,0.094-0.701,0.118
								c-5.702,0.729-7.534-1.589-9.04-3.261c-0.63-0.691-1.207-2.539-1.172-3.463c0.124-2.844,1.302-5.209,6.408-7.822
								c0.642-0.324,1.331-0.654,2.095-0.986c0.68-0.295,1.58-0.873,2.408-1.574c0.979-0.836,1.844-1.857,2.059-2.825
								c0.127-0.525-0.215-1.623-0.619-1.982c-0.59-0.551-1.846-1.061-3.256-1.011c-0.094,0.005-0.185,0.005-0.278,0.01
								c-0.982,0.095-2.893,0.814-3.81,1.19c-0.275,0.11-0.497,0.239-0.722,0.374c-2.725,1.71-1.153,5.091-1.153,5.091l-6.498,2.104
								c0,0-2.378-8.186,6.175-11.917l-0.662-2.117l4.834-1.509l0.635,2.037c0.19-0.055,0.374-0.105,0.544-0.153
								c2.014-0.55,8.195-0.003,10.307,3.689C88.645,72.892,89.186,74.56,89.234,75.394z"/>
						</g>
					</g>
					<g>
						<g>
							
								<rect x="39.62" y="10.307" transform="matrix(-0.5439 -0.8391 0.8391 -0.5439 50.5586 174.278)" fill="#00C86B" width="66.041" height="126.185"/>
							
								<rect x="43.021" y="14.392" transform="matrix(-0.5439 -0.8391 0.8391 -0.5439 50.5566 174.2744)" fill="#009550" width="59.234" height="118.012"/>
							<path fill="#00C86B" d="M110.568,30.383c-0.369,0.355-0.771,0.682-1.217,0.972c-3.908,2.534-9.129,1.419-11.662-2.488
								c-0.258-0.398-0.476-0.825-0.658-1.246L20.844,77.004c0.391,0.395,0.75,0.835,1.063,1.319
								c2.531,3.903,1.418,9.129-2.489,11.661c-0.447,0.289-0.908,0.521-1.384,0.716l16.67,25.719
								c0.374-0.351,0.775-0.678,1.221-0.967c3.908-2.533,9.129-1.418,11.662,2.489c0.262,0.404,0.467,0.824,0.654,1.248
								l76.354-49.49c-0.244-0.28-0.477-0.574-0.682-0.893c-2.533-3.909-1.42-9.128,2.49-11.662
								c0.359-0.234,0.738-0.432,1.119-0.604L110.568,30.383z"/>
						</g>
						<g>
							<path fill="#009550" d="M55.387,63.576c-4.381,10.771,0.791,23.047,11.558,27.425C77.7,95.375,89.969,90.191,94.35,79.42
								c4.381-10.771-0.789-23.051-11.543-27.425C72.04,47.617,59.768,52.804,55.387,63.576z"/>
							<path fill="#00C86B" d="M84.525,79.164c0.531-3.73-1.808-6.38-4.493-8.394c-0.405-0.311-1.003-0.695-1.679-1.122
								c-1.385-0.875-3.104-1.953-4.235-3.023c-0.878-0.827-1.403-1.647-1.146-2.367c0.125-0.341,0.264-1.083,0.54-1.326
								c0.488-0.437,1.186-0.947,2.443-0.826c0.273,0.024,0.56,0.072,0.885,0.163c0.815,0.229,2.387,0.934,3.133,1.354
								c0.25,0.137,0.453,0.301,0.641,0.469c1.578,1.477,0.503,3.789,0.503,3.789l6.096,2.479c0,0,2.853-6.122-4.147-10.356
								c-0.188-0.119-0.41-0.232-0.643-0.358l0.82-2.019l-4.688-1.906l-0.819,2.012c-0.25-0.069-0.479-0.132-0.689-0.175
								c-5.621-1.204-7.642,0.955-9.281,2.494c-0.685,0.637-1.414,2.429-1.456,3.354c-0.115,2.844,0.861,5.299,5.732,8.331
								c0.611,0.377,1.271,0.762,2.005,1.158c0.652,0.35,1.501,1,2.269,1.771c0.904,0.912,1.682,2.004,1.814,2.985
								c0.081,0.535-0.352,1.6-0.782,1.924c-0.636,0.499-1.929,0.901-3.328,0.735c-0.096-0.014-0.185-0.02-0.28-0.033
								c-0.97-0.176-2.814-1.053-3.696-1.504c-0.266-0.133-0.476-0.278-0.689-0.432c-2.572-1.933-0.724-5.17-0.724-5.17l-6.3-2.641
								c0,0-3.051,7.958,5.161,12.392l-0.836,2.056l4.69,1.905l0.804-1.976c0.183,0.068,0.363,0.136,0.529,0.197
								c1.959,0.715,8.167,0.687,10.579-2.816C83.729,81.607,84.409,79.99,84.525,79.164z"/>
						</g>
					</g>
				</g>
			</g>
		</g>
	</g>
</g>
<g>
	<g>
		<g>
			<g>
				<g>
					<g>
						<g>
							
								<rect x="48.101" y="12.204" transform="matrix(-0.8507 -0.5257 0.5257 -0.8507 110.549 181.9961)" fill="#00C86B" width="66.043" height="126.188"/>
							
								<rect x="51.502" y="16.29" transform="matrix(-0.8507 -0.5257 0.5257 -0.8507 110.5455 181.9942)" fill="#009550" width="59.235" height="118.016"/>
							<path fill="#00C86B" d="M96.995,20.187c-0.183,0.479-0.405,0.947-0.685,1.398c-2.447,3.963-7.643,5.189-11.604,2.742
								c-0.404-0.251-0.781-0.543-1.129-0.846L35.85,100.718c0.522,0.189,1.036,0.434,1.526,0.737
								c3.957,2.446,5.188,7.643,2.741,11.605c-0.281,0.451-0.599,0.86-0.944,1.238l26.073,16.112
								c0.189-0.477,0.411-0.945,0.69-1.398c2.448-3.961,7.644-5.187,11.604-2.739c0.41,0.253,0.775,0.546,1.127,0.849l47.83-77.405
								c-0.34-0.149-0.674-0.316-0.997-0.516c-3.963-2.448-5.188-7.642-2.74-11.606c0.227-0.366,0.482-0.705,0.753-1.023
								L96.995,20.187z"/>
						</g>
						<g>
							<path fill="#FDFEFF" d="M71.267,90.512c-9.893-6.112-12.959-19.073-6.849-28.962c6.103-9.876,19.069-12.932,28.959-6.819
								c9.894,6.114,12.964,19.079,6.861,28.956C94.126,93.572,81.159,96.625,71.267,90.512z"/>
							<path fill="#A5C089" d="M85.598,60.735c2.628,2.7,2.305,6.216,1.324,9.428c-0.145,0.492-0.4,1.153-0.694,1.897
								c-0.604,1.522-1.354,3.407-1.635,4.941c-0.221,1.185-0.162,2.157,0.471,2.587c0.301,0.2,0.853,0.72,1.218,0.752
								c0.653,0.063,1.518,0.065,2.461-0.775c0.207-0.181,0.407-0.389,0.617-0.653c0.523-0.666,1.376-2.163,1.729-2.941
								c0.121-0.258,0.189-0.51,0.241-0.757c0.402-2.125-1.83-3.356-1.83-3.356l3.459-5.598c0,0,5.915,3.259,2.761,10.81
								c-0.081,0.206-0.192,0.43-0.306,0.667l1.852,1.146l-2.662,4.307l-1.846-1.142c-0.16,0.204-0.309,0.391-0.453,0.549
								c-3.829,4.288-6.733,3.738-8.964,3.464c-0.931-0.11-2.577-1.128-3.155-1.848c-1.771-2.23-2.431-4.788-0.287-10.109
								c0.271-0.666,0.579-1.367,0.938-2.12c0.318-0.667,0.621-1.694,0.785-2.768c0.193-1.269,0.176-2.609-0.298-3.479
								c-0.248-0.48-1.226-1.084-1.766-1.093c-0.808-0.03-2.088,0.409-3.121,1.369c-0.069,0.068-0.138,0.125-0.205,0.192
								c-0.681,0.714-1.652,2.511-2.099,3.396c-0.135,0.263-0.218,0.505-0.299,0.755c-0.938,3.078,2.465,4.602,2.465,4.602
								l-3.528,5.849c0,0-7.159-4.624-3.143-13.05l-1.889-1.166l2.662-4.307l1.815,1.122c0.106-0.166,0.213-0.325,0.31-0.471
								c1.158-1.735,6.188-5.375,10.202-3.968C83.512,59.232,85.015,60.138,85.598,60.735z"/>
						</g>
					</g>
					<g>
						<g>
							
								<rect x="43.51" y="19.003" transform="matrix(-0.7626 -0.6469 0.6469 -0.7626 81.7825 194.2151)" fill="#00C86B" width="66.046" height="126.191"/>
							
								<rect x="46.926" y="23.083" transform="matrix(-0.7626 -0.6468 0.6468 -0.7626 81.8204 194.2045)" fill="#009550" width="59.235" height="118.012"/>
							<path fill="#00C86B" d="M100.47,29.971c-0.253,0.447-0.542,0.876-0.888,1.281c-3.013,3.552-8.333,3.989-11.886,0.978
								c-0.362-0.308-0.69-0.653-0.989-1.003l-58.729,69.238c0.488,0.264,0.958,0.583,1.398,0.957
								c3.548,3.009,3.988,8.331,0.976,11.884c-0.345,0.406-0.719,0.762-1.119,1.083l23.373,19.825
								c0.258-0.442,0.546-0.871,0.89-1.278c3.012-3.552,8.333-3.987,11.883-0.976c0.368,0.312,0.685,0.655,0.986,1.007
								l58.859-69.389c-0.313-0.198-0.621-0.412-0.91-0.659c-3.552-3.012-3.988-8.333-0.976-11.886
								c0.278-0.327,0.581-0.625,0.897-0.9L100.47,29.971z"/>
						</g>
						<g>
							<path fill="#FDFEFF" d="M64.522,95.664c-8.868-7.523-9.965-20.797-2.445-29.662c7.512-8.853,20.786-9.938,29.653-2.415
								c8.869,7.522,9.968,20.801,2.458,29.654C86.67,102.105,73.39,103.188,64.522,95.664z"/>
							<path fill="#A5C089" d="M83.141,68.362c2.196,3.062,1.351,6.492-0.101,9.52c-0.216,0.465-0.567,1.08-0.97,1.772
								c-0.821,1.417-1.847,3.167-2.356,4.642c-0.395,1.139-0.48,2.109,0.081,2.627c0.268,0.247,0.736,0.84,1.09,0.926
								c0.637,0.161,1.491,0.29,2.55-0.398c0.23-0.148,0.462-0.323,0.71-0.554c0.617-0.579,1.685-1.932,2.148-2.649
								c0.159-0.237,0.264-0.477,0.353-0.713c0.713-2.04-1.308-3.591-1.308-3.591l4.256-5.017c0,0,5.361,4.105,1.115,11.1
								c-0.113,0.191-0.255,0.395-0.404,0.615l1.663,1.409l-3.275,3.859l-1.658-1.405c-0.187,0.18-0.36,0.34-0.529,0.476
								c-4.426,3.667-7.214,2.689-9.381,2.083c-0.901-0.248-2.378-1.499-2.843-2.299c-1.417-2.469-1.688-5.097,1.227-10.037
								c0.369-0.617,0.774-1.265,1.242-1.953c0.416-0.613,0.867-1.584,1.191-2.619c0.38-1.23,0.564-2.555,0.228-3.488
								c-0.173-0.511-1.051-1.256-1.584-1.343c-0.793-0.15-2.127,0.092-3.292,0.888c-0.077,0.055-0.153,0.104-0.229,0.158
								c-0.779,0.605-2.008,2.236-2.582,3.044c-0.174,0.239-0.292,0.468-0.41,0.702c-1.387,2.903,1.75,4.918,1.75,4.918
								l-4.363,5.254c0,0-6.389-5.641-1.161-13.371l-1.692-1.434l3.276-3.861l1.626,1.381c0.131-0.148,0.26-0.289,0.377-0.421
								c1.407-1.542,6.921-4.388,10.681-2.399C81.303,66.564,82.653,67.684,83.141,68.362z"/>
						</g>
					</g>
					<g>
						<g>
							
								<rect x="35.035" y="12.464" transform="matrix(-0.9085 -0.4178 0.4178 -0.9085 98.3192 172.6364)" fill="#00C86B" width="66.041" height="126.185"/>
							
								<rect x="38.436" y="16.551" transform="matrix(-0.9085 -0.4178 0.4178 -0.9085 98.3144 172.6363)" fill="#009550" width="59.234" height="118.013"/>
							<path fill="#00C86B" d="M77.075,18.921c-0.121,0.498-0.287,0.989-0.508,1.473c-1.945,4.232-6.953,6.084-11.184,4.139
								c-0.43-0.199-0.843-0.442-1.222-0.7L26.229,106.32c0.542,0.125,1.08,0.305,1.604,0.546c4.227,1.943,6.083,6.952,4.137,11.183
								c-0.222,0.483-0.488,0.927-0.786,1.345L59.03,132.2c0.128-0.497,0.292-0.987,0.514-1.47c1.946-4.231,6.953-6.084,11.184-4.14
								c0.438,0.202,0.836,0.446,1.22,0.705l38.017-82.668c-0.355-0.106-0.71-0.23-1.054-0.39
								c-4.231-1.947-6.084-6.951-4.137-11.185c0.178-0.39,0.393-0.76,0.622-1.109L77.075,18.921z"/>
						</g>
						<g>
							<path fill="#009550" d="M48.224,76.491c2.063,11.444,13.001,19.046,24.44,16.983C84.09,91.413,91.68,80.469,89.616,69.025
								s-13.003-19.05-24.428-16.99C53.751,54.099,46.16,65.048,48.224,76.491z"/>
							<path fill="#00C86B" d="M81.18,74.066c-1.547-3.436-4.94-4.422-8.288-4.686c-0.508-0.046-1.219-0.05-2.018-0.05
								c-1.638,0.002-3.667,0.011-5.196-0.287c-1.184-0.229-2.066-0.64-2.235-1.386c-0.077-0.355-0.356-1.056-0.253-1.409
								c0.178-0.63,0.495-1.435,1.622-2.005c0.243-0.126,0.511-0.239,0.834-0.336c0.811-0.243,2.516-0.488,3.371-0.533
								c0.284-0.018,0.543,0.012,0.792,0.053c2.124,0.403,2.453,2.932,2.453,2.932l6.476-1.168c0,0-0.867-6.698-9.046-6.529
								c-0.223,0-0.47,0.024-0.734,0.042l-0.388-2.144l-4.98,0.898l0.385,2.137c-0.249,0.076-0.475,0.145-0.676,0.221
								c-5.393,1.991-5.944,4.896-6.505,7.073c-0.238,0.905,0.105,2.809,0.565,3.613c1.424,2.464,3.563,4.016,9.3,3.97
								c0.718-0.008,1.482-0.036,2.313-0.094c0.739-0.054,1.804,0.041,2.865,0.28c1.252,0.287,2.494,0.793,3.129,1.552
								c0.355,0.408,0.56,1.539,0.371,2.044c-0.271,0.762-1.148,1.794-2.418,2.402c-0.089,0.04-0.167,0.083-0.254,0.121
								c-0.914,0.371-2.941,0.617-3.927,0.708c-0.296,0.03-0.551,0.021-0.813,0.005c-3.207-0.257-3.378-3.98-3.378-3.98
								l-6.735,1.141c0,0,1.681,8.355,10.991,7.705l0.394,2.185l4.982-0.9L73.8,85.542c0.191-0.04,0.38-0.08,0.553-0.116
								c2.037-0.445,7.266-3.791,7.43-8.041C81.814,76.558,81.523,74.826,81.18,74.066z"/>
						</g>
					</g>
				</g>
			</g>
		</g>
	</g>
</g>
</svg>
