<?xml version="1.0" encoding="utf-8"?>
<!-- Generator: Adobe Illustrator 16.0.0, SVG Export Plug-In . SVG Version: 6.00 Build 0)  -->
<!DOCTYPE svg PUBLIC "-//W3C//DTD SVG 1.1//EN" "http://www.w3.org/Graphics/SVG/1.1/DTD/svg11.dtd">
<svg version="1.1" id="Capa_1" xmlns="http://www.w3.org/2000/svg" xmlns:xlink="http://www.w3.org/1999/xlink" x="0px" y="0px"
	 width="155px" height="155px" viewBox="0 0 155 155" enable-background="new 0 0 155 155" xml:space="preserve">
<circle fill="#EBECF0" cx="77.5" cy="77.499" r="71.5"/>
<g>
	<g>
		<g>
			<g>
				<g>
					<g>
						<g>
							
								<rect x="50.794" y="17.08" transform="matrix(0.4373 0.8993 -0.8993 0.4373 119.2656 -30.2632)" fill="#00C86B" width="66.044" height="126.189"/>
							
								<rect x="54.196" y="21.165" transform="matrix(0.4373 0.8993 -0.8993 0.4373 119.2641 -30.2623)" fill="#009550" width="59.236" height="118.017"/>
							<path fill="#00C86B" d="M126.719,42.112c-0.41,0.307-0.85,0.583-1.326,0.815c-4.189,2.038-9.234,0.293-11.271-3.894
								c-0.207-0.428-0.369-0.877-0.5-1.318L31.97,77.42c0.34,0.439,0.643,0.921,0.895,1.439c2.034,4.184,0.293,9.233-3.895,11.271
								c-0.479,0.231-0.966,0.407-1.46,0.541l13.402,27.563c0.415-0.301,0.853-0.578,1.331-0.811
								c4.188-2.037,9.233-0.292,11.269,3.896c0.211,0.433,0.363,0.876,0.498,1.319l81.828-39.792
								c-0.207-0.308-0.4-0.628-0.566-0.97c-2.037-4.188-0.293-9.232,3.896-11.271c0.387-0.188,0.785-0.337,1.184-0.462
								L126.719,42.112z"/>
						</g>
						<g>
							<path fill="#FDFEFF" d="M67.35,87.751c-5.086-10.457-0.74-23.047,9.713-28.131c10.441-5.077,23.029-0.72,28.113,9.737
								c5.086,10.459,0.742,23.055-9.699,28.132C85.023,102.571,72.436,98.21,67.35,87.751z"/>
							<path fill="#A5C089" d="M95.391,70.266c0.775,3.687-1.379,6.485-3.926,8.674c-0.385,0.337-0.955,0.759-1.602,1.23
								c-1.324,0.964-2.967,2.154-4.025,3.299c-0.821,0.883-1.291,1.735-0.986,2.437c0.146,0.331,0.334,1.064,0.625,1.287
								c0.518,0.403,1.248,0.867,2.494,0.663c0.271-0.044,0.553-0.111,0.871-0.222c0.799-0.282,2.32-1.091,3.035-1.56
								c0.24-0.152,0.434-0.329,0.609-0.51c1.477-1.579,0.25-3.814,0.25-3.814l5.918-2.878c0,0,3.252,5.919-3.453,10.608
								c-0.178,0.131-0.393,0.26-0.615,0.4l0.951,1.959l-4.553,2.214L90.035,92.1c-0.244,0.087-0.469,0.165-0.676,0.222
								c-5.529,1.573-7.688-0.446-9.426-1.872c-0.727-0.591-1.573-2.331-1.676-3.249c-0.303-2.831,0.508-5.346,5.167-8.693
								c0.585-0.417,1.22-0.846,1.925-1.289c0.627-0.393,1.432-1.099,2.146-1.918c0.842-0.969,1.545-2.11,1.611-3.099
								c0.047-0.539-0.455-1.572-0.908-1.868c-0.666-0.457-1.982-0.772-3.369-0.514c-0.094,0.021-0.182,0.032-0.276,0.052
								c-0.957,0.24-2.738,1.238-3.589,1.746c-0.255,0.15-0.455,0.31-0.658,0.478c-2.439,2.099-0.38,5.206-0.38,5.206l-6.11,3.053
								c0,0-3.573-7.737,4.328-12.706l-0.971-1.995l4.553-2.214l0.934,1.919c0.178-0.083,0.354-0.161,0.514-0.232
								c1.906-0.846,8.104-1.229,10.742,2.108C94.434,67.88,95.219,69.449,95.391,70.266z"/>
						</g>
					</g>
					<g>
						<g>
							
								<rect x="43.286" y="20.369" transform="matrix(0.298 0.9546 -0.9546 0.298 133.2356 -14.2529)" fill="#00C86B" width="66.044" height="126.188"/>
							
								<rect x="46.689" y="24.452" transform="matrix(0.2981 0.9545 -0.9545 0.2981 133.2308 -14.255)" fill="#009550" width="59.237" height="118.017"/>
							<path fill="#00C86B" d="M124.418,52.237c-0.453,0.242-0.928,0.45-1.436,0.607c-4.445,1.388-9.174-1.09-10.563-5.535
								c-0.141-0.454-0.234-0.922-0.299-1.377L25.456,72.993c0.271,0.484,0.497,1.006,0.669,1.557
								c1.387,4.44-1.09,9.173-5.535,10.561c-0.509,0.158-1.016,0.259-1.525,0.317l9.135,29.255
								c0.455-0.236,0.928-0.443,1.436-0.603c4.445-1.388,9.173,1.09,10.561,5.535c0.144,0.46,0.228,0.92,0.294,1.378l86.854-27.119
								c-0.158-0.335-0.303-0.681-0.416-1.043c-1.387-4.445,1.09-9.174,5.537-10.563c0.41-0.128,0.826-0.217,1.24-0.28
								L124.418,52.237z"/>
						</g>
						<g>
							<path fill="#FDFEFF" d="M58.895,88.494c-3.465-11.101,2.712-22.901,13.808-26.365c11.083-3.459,22.877,2.728,26.342,13.828
								c3.467,11.101-2.711,22.906-13.793,26.366C74.158,105.788,62.361,99.595,58.895,88.494z"/>
							<path fill="#A5C089" d="M89.234,75.394c0.217,3.762-2.334,6.207-5.18,7.989c-0.43,0.276-1.057,0.608-1.767,0.979
								c-1.452,0.756-3.255,1.686-4.474,2.659c-0.943,0.751-1.535,1.524-1.338,2.262c0.094,0.352,0.172,1.104,0.426,1.366
								c0.451,0.477,1.104,1.043,2.367,1.028c0.274-0.002,0.563-0.026,0.895-0.088c0.832-0.159,2.457-0.732,3.234-1.089
								c0.26-0.115,0.477-0.262,0.678-0.413c1.695-1.342,0.817-3.734,0.817-3.734l6.28-1.961c0,0,2.332,6.338-4.998,9.974
								c-0.197,0.102-0.426,0.197-0.67,0.304l0.65,2.079l-4.832,1.509l-0.648-2.074c-0.254,0.05-0.487,0.093-0.701,0.118
								c-5.702,0.729-7.534-1.589-9.04-3.261c-0.63-0.691-1.207-2.539-1.172-3.463c0.124-2.843,1.302-5.209,6.408-7.822
								c0.642-0.325,1.331-0.654,2.095-0.987c0.68-0.295,1.58-0.872,2.408-1.574c0.979-0.835,1.844-1.857,2.059-2.825
								c0.126-0.525-0.216-1.623-0.62-1.982c-0.59-0.551-1.845-1.061-3.255-1.011c-0.095,0.005-0.185,0.005-0.279,0.01
								c-0.982,0.095-2.893,0.814-3.81,1.19c-0.275,0.11-0.497,0.239-0.722,0.374c-2.725,1.71-1.153,5.091-1.153,5.091l-6.498,2.105
								c0,0-2.378-8.186,6.175-11.918l-0.662-2.117l4.834-1.509l0.635,2.037c0.19-0.055,0.374-0.105,0.544-0.153
								c2.013-0.55,8.195-0.003,10.307,3.689C88.645,72.892,89.186,74.56,89.234,75.394z"/>
						</g>
					</g>
					<g>
						<g>
							
								<rect x="39.617" y="10.308" transform="matrix(0.5439 0.8391 -0.8391 0.5439 94.7244 -27.476)" fill="#00C86B" width="66.044" height="126.19"/>
							
								<rect x="43.018" y="14.394" transform="matrix(0.5439 0.8391 -0.8391 0.5439 94.7232 -27.4746)" fill="#009550" width="59.237" height="118.017"/>
							<path fill="#00C86B" d="M110.568,30.383c-0.369,0.355-0.771,0.682-1.217,0.972c-3.908,2.534-9.129,1.419-11.662-2.488
								c-0.258-0.398-0.475-0.825-0.658-1.246L20.844,77.004c0.391,0.395,0.75,0.835,1.063,1.319
								c2.531,3.903,1.418,9.129-2.489,11.661c-0.447,0.289-0.908,0.522-1.384,0.716l16.67,25.719
								c0.374-0.351,0.775-0.678,1.221-0.967c3.908-2.533,9.129-1.418,11.662,2.489c0.262,0.404,0.467,0.824,0.654,1.248
								l76.355-49.49c-0.244-0.28-0.477-0.574-0.682-0.893c-2.533-3.909-1.42-9.128,2.49-11.662
								c0.359-0.234,0.738-0.432,1.119-0.604L110.568,30.383z"/>
						</g>
						<g>
							<path fill="#009550" d="M55.387,63.576c-4.381,10.771,0.791,23.047,11.558,27.425c10.755,4.374,23.024-0.809,27.405-11.581
								c4.381-10.771-0.789-23.051-11.543-27.425C72.04,47.617,59.768,52.804,55.387,63.576z"/>
							<path fill="#00C86B" d="M84.525,79.164c0.531-3.73-1.807-6.38-4.493-8.394c-0.405-0.311-1.003-0.695-1.679-1.122
								c-1.384-0.875-3.103-1.953-4.235-3.023c-0.878-0.827-1.403-1.647-1.146-2.367c0.125-0.341,0.264-1.083,0.54-1.326
								c0.488-0.437,1.186-0.947,2.443-0.826c0.273,0.024,0.56,0.072,0.885,0.163c0.815,0.229,2.387,0.934,3.133,1.354
								c0.249,0.137,0.453,0.301,0.641,0.469c1.578,1.477,0.502,3.789,0.502,3.789l6.096,2.479c0,0,2.852-6.122-4.148-10.356
								c-0.188-0.119-0.409-0.232-0.642-0.358l0.82-2.019l-4.688-1.906l-0.818,2.012c-0.25-0.069-0.479-0.132-0.689-0.175
								c-5.621-1.204-7.642,0.955-9.281,2.494c-0.685,0.637-1.414,2.429-1.456,3.354c-0.115,2.844,0.861,5.299,5.732,8.331
								c0.611,0.377,1.271,0.762,2.005,1.158c0.652,0.35,1.501,1,2.269,1.771c0.904,0.912,1.682,2.004,1.814,2.985
								c0.081,0.535-0.352,1.6-0.782,1.924c-0.636,0.499-1.929,0.902-3.328,0.736c-0.096-0.014-0.185-0.02-0.28-0.033
								c-0.97-0.176-2.814-1.054-3.696-1.504c-0.266-0.133-0.476-0.279-0.689-0.432c-2.572-1.933-0.724-5.17-0.724-5.17l-6.3-2.641
								c0,0-3.051,7.958,5.161,12.392l-0.836,2.055l4.69,1.906l0.804-1.976c0.183,0.069,0.363,0.136,0.529,0.197
								c1.959,0.716,8.167,0.687,10.579-2.816C83.729,81.608,84.409,79.99,84.525,79.164z"/>
						</g>
					</g>
				</g>
			</g>
		</g>
	</g>
</g>
</svg>
