<?xml version="1.0" encoding="utf-8"?>
<!-- Generator: Adobe Illustrator 21.1.0, SVG Export Plug-In . SVG Version: 6.00 Build 0)  -->
<svg version="1.1" id="Capa_1" xmlns="http://www.w3.org/2000/svg" xmlns:xlink="http://www.w3.org/1999/xlink" x="0px" y="0px"
	 viewBox="0 0 155 155" style="enable-background:new 0 0 155 155;" xml:space="preserve">
<style type="text/css">
	.st0{fill:#EBECF0;}
	.st1{fill:#039FD6;}
</style>
<circle class="st0" cx="77.5" cy="77.5" r="71.5"/>
<path class="st1" d="M120,52.5v3.4c0,1.1-0.9,2.1-2.1,2.1c0,0,0,0,0,0H68.6c-12.7,0-23-10.3-23-23v-3.4c0-1.1,0.9-2.1,2.1-2.1
	c0,0,0,0,0,0H97c10.6,0,19.8,7.2,22.3,17.4c0,0,0,0.1,0,0.1C119.8,48.8,120,50.7,120,52.5z M100.4,64.6H68.6
	c-12.7,0-23,10.2-23,22.9c0,0,0,0.1,0,0.1V91c0,1.1,0.9,2.1,2.1,2.1h31.8c12.7,0,23-10.3,23-23v-3.4
	C102.4,65.6,101.5,64.7,100.4,64.6C100.4,64.6,100.4,64.6,100.4,64.6z M71.9,99.8H47.7c-1.2,0-2.1,0.9-2.1,2.1v24.3
	c0,1.1,0.9,2.1,2.1,2H51c12.7,0,23-10.3,23-23c0,0,0,0,0,0v-3.3C74,100.7,73.1,99.8,71.9,99.8C71.9,99.8,71.9,99.8,71.9,99.8
	L71.9,99.8z"/>
</svg>
