<?xml version="1.0" encoding="utf-8"?>
<!-- Generator: Adobe Illustrator 16.0.0, SVG Export Plug-In . SVG Version: 6.00 Build 0)  -->
<!DOCTYPE svg PUBLIC "-//W3C//DTD SVG 1.1//EN" "http://www.w3.org/Graphics/SVG/1.1/DTD/svg11.dtd">
<svg version="1.1" id="Capa_1" xmlns="http://www.w3.org/2000/svg" xmlns:xlink="http://www.w3.org/1999/xlink" x="0px" y="0px"
	 width="155px" height="155px" viewBox="0 0 155 155" enable-background="new 0 0 155 155" xml:space="preserve">
<circle fill="#EBECF0" cx="77.5" cy="77.499" r="71.5"/>
<g>
	<polygon fill="#424242" points="76.821,32.712 76.853,32.712 76.889,32.712 76.889,37.724 76.853,37.724 76.821,37.724 	"/>
	<polygon fill="#424242" points="76.895,37.714 76.884,37.714 76.895,37.714 	"/>
	<path fill="#FFE082" d="M96.23,111.96c-0.232,1.408-0.477,2.889-0.652,3.879l-0.252,2.493l-2.215-0.001H60.61h-2.099l-0.368-2.492
		c-0.176-0.99-0.419-2.471-0.651-3.879c-1.127-6.854-1.896-11.528-6.468-18.572c-2.281-3.515-4.55-7.186-6.284-11.191
		c-1.782-4.119-2.964-8.515-2.964-13.311h0.01c-0.001-9.898,3.914-18.921,10.24-25.473c6.326-6.551,15.065-10.643,24.722-10.691v0
		h0.035h0.009l0.039-0.001l0.029,0l0.029,0l0.039,0.001h0.009h0.035v0c9.658,0.048,18.396,4.14,24.722,10.691
		c6.324,6.552,10.24,15.575,10.24,25.473h0.01c0,4.796-1.184,9.191-2.965,13.311c-1.732,4.006-4.002,7.677-6.283,11.191
		C98.125,100.432,97.355,105.106,96.23,111.96z"/>
	<path fill="#00C86B" d="M76.861,118.331H60.61h-2.099l-0.368-2.492c-0.176-0.99-0.419-2.471-0.651-3.879
		c-1.127-6.854-1.896-11.528-6.468-18.572c-2.281-3.515-4.55-7.186-6.284-11.191c-1.782-4.119-2.964-8.515-2.964-13.311h0.01
		c-0.001-9.898,3.914-18.921,10.24-25.473c6.326-6.551,15.065-10.643,24.722-10.691v0h0.035h0.009l0.039-0.001l0.029,0V118.331z"/>
	<path fill="#009550" d="M96.23,111.96c-0.232,1.408-0.477,2.889-0.652,3.879l-0.252,2.493l-2.215-0.001H76.878h-0.018V32.72
		l0.029,0l0.039,0.001h0.009h0.013h0.022v0c9.658,0.048,18.396,4.14,24.722,10.691c6.324,6.552,10.24,15.575,10.24,25.473h0.01
		c0,4.796-1.184,9.191-2.965,13.311c-1.732,4.006-4.002,7.677-6.283,11.191C98.125,100.432,97.355,105.106,96.23,111.96z"/>
	<path d="M62.49,65.192c-0.007-0.324,0.248-0.591,0.571-0.599c0.323-0.008,0.591,0.248,0.599,0.571l0.048,1.986l7.36,10.215
		c0.075,0.104,0.11,0.225,0.11,0.342h0.002v40.285c0,0.324-0.263,0.587-0.587,0.587s-0.587-0.263-0.587-0.587V77.895l-7.35-10.202
		c-0.069-0.094-0.111-0.208-0.114-0.333L62.49,65.192z"/>
	<path d="M90.057,65.164c0.008-0.323,0.275-0.579,0.598-0.571c0.324,0.008,0.58,0.275,0.572,0.599l-0.053,2.167
		c-0.002,0.125-0.045,0.239-0.113,0.333l-7.35,10.202v40.098c0,0.324-0.264,0.587-0.588,0.587s-0.588-0.263-0.588-0.587V77.707
		h0.003c0-0.117,0.035-0.237,0.11-0.342l7.359-10.215L90.057,65.164z"/>
	<path fill="#FFFFFE" d="M83.075,63.465c0.095,0.076,0.184,0.163,0.267,0.264c0.293-0.227,0.613-0.411,0.938-0.522
		c0.541-0.187,1.136-0.123,1.7,0.081c0.658,0.236,1.285,0.666,1.732,1.096c0.133,0.129,0.617,0.605,1.006,1.008
		c0.238,0.249,0.445,0.475,0.529,0.595c0.125,0.176,0.082,0.42-0.096,0.544c-0.176,0.124-0.42,0.082-0.543-0.095
		c-0.061-0.085-0.24-0.28-0.455-0.502c-0.379-0.396-0.852-0.86-0.984-0.987c-0.379-0.366-0.906-0.729-1.451-0.925
		c-0.41-0.147-0.826-0.198-1.185-0.075c-0.259,0.089-0.519,0.242-0.757,0.433c0.564,0.991,0.58,1.8,0.356,2.353
		c-0.173,0.429-0.491,0.714-0.832,0.832c-0.075,0.025-0.151,0.044-0.227,0.054v-0.802c0.131-0.056,0.257-0.183,0.335-0.375
		c0.134-0.333,0.12-0.833-0.206-1.482c-0.046,0.057-0.089,0.115-0.129,0.174V63.465z M79.943,63.485L79.943,63.485
		c0.102,0.075,0.193,0.16,0.273,0.254l0.001-0.001c0.331-0.243,0.694-0.432,1.059-0.541c0.384-0.115,0.774-0.142,1.14-0.054
		c0.236,0.058,0.46,0.163,0.659,0.322v1.667c-0.167,0.245-0.29,0.495-0.347,0.726c-0.119,0.497-0.068,0.792,0.059,0.924
		c0.064,0.065,0.162,0.078,0.262,0.044c0.008-0.003,0.018-0.007,0.026-0.011v0.802c-0.31,0.041-0.618-0.053-0.85-0.293
		c-0.296-0.306-0.448-0.851-0.255-1.65c0.112-0.466,0.406-0.975,0.797-1.412c-0.148-0.196-0.334-0.312-0.535-0.36
		c-0.223-0.054-0.475-0.033-0.732,0.044c-0.279,0.083-0.561,0.23-0.82,0.422l-0.028,0.021c0.558,0.987,0.573,1.791,0.351,2.342
		c-0.174,0.429-0.493,0.714-0.832,0.832c-0.076,0.025-0.151,0.044-0.227,0.054v-0.802c0.131-0.056,0.256-0.183,0.333-0.375
		c0.136-0.334,0.121-0.836-0.208-1.488c-0.045,0.055-0.086,0.11-0.125,0.167V63.485z M77.025,63.485
		c0.39-0.285,0.928-0.429,1.459-0.429c0.531,0,1.07,0.144,1.459,0.429v1.634c-0.164,0.235-0.285,0.487-0.347,0.74
		c-0.121,0.497-0.068,0.792,0.059,0.924c0.063,0.065,0.161,0.078,0.261,0.044c0.009-0.003,0.018-0.007,0.027-0.011v0.802
		c-0.311,0.041-0.619-0.053-0.852-0.293c-0.294-0.306-0.447-0.851-0.254-1.65c0.121-0.503,0.413-0.996,0.797-1.413
		c-0.042-0.054-0.094-0.103-0.153-0.146c-0.251-0.184-0.62-0.276-0.997-0.276s-0.748,0.092-0.998,0.276
		c-0.036,0.026-0.069,0.055-0.099,0.084c0.334,0.379,0.596,0.872,0.743,1.474c0.192,0.799,0.039,1.344-0.255,1.65
		c-0.232,0.24-0.541,0.334-0.851,0.293v-0.802c0.009,0.003,0.019,0.007,0.028,0.011c0.098,0.034,0.197,0.021,0.26-0.044
		c0.127-0.132,0.179-0.427,0.059-0.924c-0.078-0.323-0.197-0.604-0.346-0.841V63.485z M73.568,63.483
		c0.083,0.062,0.16,0.129,0.229,0.205c0.019-0.013,0.037-0.024,0.056-0.036c0.444-0.274,0.943-0.411,1.443-0.411V63.24
		c0.498,0,0.998,0.138,1.443,0.412c0.02,0.012,0.038,0.023,0.057,0.036c0.069-0.075,0.146-0.143,0.229-0.204l0,0v1.532
		c-0.029-0.046-0.059-0.09-0.089-0.133c-0.364,0.686-0.384,1.21-0.244,1.557c0.078,0.192,0.203,0.319,0.333,0.375v0.802
		c-0.076-0.01-0.152-0.028-0.227-0.054c-0.339-0.118-0.659-0.403-0.832-0.832c-0.227-0.562-0.207-1.388,0.385-2.402l-0.021-0.013
		c-0.316-0.195-0.674-0.293-1.034-0.293v-0.001c-0.358,0-0.715,0.099-1.034,0.295l-0.021,0.013c0.593,1.014,0.611,1.84,0.385,2.402
		c-0.173,0.429-0.493,0.714-0.832,0.832c-0.075,0.025-0.151,0.044-0.227,0.054v-0.802c0.13-0.056,0.256-0.183,0.333-0.375
		c0.14-0.347,0.12-0.871-0.244-1.557c-0.031,0.042-0.061,0.087-0.089,0.132V63.483z M70.717,63.485l0.014-0.01
		c0.383-0.283,0.904-0.42,1.418-0.419c0.515,0.002,1.035,0.145,1.414,0.423l0.006,0.004v1.533c-0.149,0.238-0.269,0.518-0.347,0.842
		c-0.119,0.497-0.068,0.792,0.06,0.924c0.063,0.065,0.162,0.078,0.26,0.044c0.009-0.003,0.019-0.007,0.028-0.011v0.802
		c-0.31,0.041-0.618-0.053-0.851-0.293c-0.295-0.306-0.448-0.851-0.255-1.65c0.146-0.603,0.408-1.095,0.742-1.474
		c-0.032-0.032-0.067-0.063-0.104-0.091c-0.244-0.179-0.595-0.271-0.952-0.272c-0.357-0.001-0.71,0.087-0.957,0.269
		c-0.062,0.045-0.116,0.098-0.162,0.155c0.054,0.06,0.105,0.121,0.156,0.183c0.315,0.393,0.547,0.829,0.642,1.234l0,0
		c0.187,0.803,0.027,1.351-0.272,1.655c-0.231,0.235-0.534,0.328-0.839,0.289V66.82c0.007,0.003,0.015,0.006,0.023,0.009
		c0.097,0.034,0.195,0.021,0.259-0.044c0.129-0.131,0.184-0.428,0.066-0.93h0l0-0.002c-0.053-0.231-0.177-0.485-0.349-0.733V63.485z
		 M65.391,66.15c-0.157,0.147-0.404,0.14-0.552-0.017c-0.147-0.158-0.14-0.405,0.017-0.553c0.048-0.045,0.243-0.239,0.482-0.477
		c0.258-0.256,0.566-0.562,0.8-0.792c0.582-0.569,1.243-1.007,1.955-1.168c0.639-0.146,1.306-0.069,1.978,0.325
		c0.133,0.077,0.262,0.165,0.386,0.26c0.078-0.09,0.166-0.171,0.261-0.244v1.635c-0.039-0.056-0.08-0.111-0.123-0.166
		c-0.33,0.653-0.346,1.155-0.212,1.49c0.078,0.193,0.204,0.32,0.334,0.375v0.801c-0.078-0.01-0.157-0.028-0.234-0.055
		c-0.337-0.118-0.652-0.403-0.824-0.83c-0.223-0.553-0.206-1.364,0.361-2.358c-0.11-0.088-0.226-0.167-0.343-0.236
		c-0.483-0.283-0.96-0.338-1.413-0.235c-0.556,0.125-1.092,0.487-1.578,0.964c-0.234,0.23-0.541,0.534-0.796,0.788
		C65.64,65.905,65.437,66.107,65.391,66.15z"/>
	<g>
		<polygon fill="#424242" points="88.205,147.139 84.458,152.999 82.908,153 70.808,153 69.494,153 68.743,151.894 65.512,147.139 
					"/>
		<path fill="#BDBDBD" d="M88.209,147.131l-0.002,0.003l-0.002,0.005H65.512l-0.005-0.008l-0.261,0.008
			c-0.305,0-0.612-0.008-0.918-0.022c-2.505-0.132-4.915-0.931-4.915-4.477h0.01c0-0.208-0.015-1.049-0.035-2.028
			c-0.018-0.879-0.042-1.894-0.063-2.657l-0.07-2.575h2.566h30.073h2.549l-0.053,2.555l-0.096,4.706h0.008
			c0,3.836-2.82,4.457-5.529,4.496c-0.102,0.002-0.203,0.003-0.303,0.003l-0.145-0.004L88.209,147.131z"/>
		<path fill="#263238" d="M95.5,140.469H58.216c0-7.492,0-14.984,0-22.477H95.5C95.5,125.484,95.5,132.977,95.5,140.469z"/>
		<path fill="#37474F" d="M96.906,122.927H56.81c0-1.646,0-3.29,0-4.935h40.096C96.906,119.637,96.906,121.281,96.906,122.927z"/>
		<path fill="#37474F" d="M96.906,130.367H56.81c0-1.645,0-3.29,0-4.934h40.096C96.906,127.077,96.906,128.723,96.906,130.367z"/>
		<path fill="#37474F" d="M96.906,137.808H56.81c0-1.645,0-3.289,0-4.935h40.096C96.906,134.519,96.906,136.163,96.906,137.808z"/>
	</g>
	<g>
		<polygon fill="#525455" points="76.82,153 70.808,153 69.494,153 68.743,151.894 65.512,147.139 76.82,147.139 		"/>
		<path fill="#C1C3C4" d="M76.82,147.139H65.512l-0.005-0.008l-0.261,0.008c-0.305,0-0.612-0.008-0.918-0.022
			c-2.505-0.132-4.915-0.931-4.915-4.477h0.01c0-0.208-0.015-1.049-0.035-2.028c-0.018-0.879-0.042-1.894-0.063-2.657l-0.07-2.575
			h2.566H76.82V147.139z"/>
		<path fill="#39464C" d="M76.82,140.469H58.216c0-7.492,0-14.984,0-22.477H76.82V140.469z"/>
		<path fill="#485861" d="M76.82,122.927H56.81c0-1.646,0-3.29,0-4.935h20.01V122.927z"/>
		<path fill="#485861" d="M76.82,130.367H56.81c0-1.645,0-3.29,0-4.934h20.01V130.367z"/>
		<path fill="#485861" d="M76.82,137.808H56.81c0-1.645,0-3.289,0-4.935h20.01V137.808z"/>
	</g>
	<path fill="#EDEDED" d="M83.075,63.465c0.095,0.076,0.184,0.163,0.267,0.264c0.293-0.227,0.613-0.411,0.938-0.522
		c0.541-0.187,1.136-0.123,1.7,0.081c0.658,0.236,1.285,0.666,1.732,1.096c0.133,0.129,0.617,0.605,1.006,1.008
		c0.238,0.249,0.445,0.475,0.529,0.595c0.125,0.176,0.082,0.42-0.096,0.544c-0.176,0.124-0.42,0.082-0.543-0.095
		c-0.061-0.085-0.24-0.28-0.455-0.502c-0.379-0.396-0.852-0.86-0.984-0.987c-0.379-0.366-0.906-0.729-1.451-0.925
		c-0.41-0.147-0.826-0.198-1.185-0.075c-0.259,0.089-0.519,0.242-0.757,0.433c0.564,0.991,0.58,1.8,0.356,2.353
		c-0.173,0.429-0.491,0.714-0.832,0.832c-0.075,0.025-0.151,0.044-0.227,0.054v-0.802c0.131-0.056,0.257-0.183,0.335-0.375
		c0.134-0.333,0.12-0.833-0.206-1.482c-0.046,0.057-0.089,0.115-0.129,0.174V63.465z M79.943,63.485L79.943,63.485
		c0.102,0.075,0.193,0.16,0.273,0.254l0.001-0.001c0.331-0.243,0.694-0.432,1.059-0.541c0.384-0.115,0.774-0.142,1.14-0.054
		c0.236,0.058,0.46,0.163,0.659,0.322v1.667c-0.167,0.245-0.29,0.495-0.347,0.726c-0.119,0.497-0.068,0.792,0.059,0.924
		c0.064,0.065,0.162,0.078,0.262,0.044c0.008-0.003,0.018-0.007,0.026-0.011v0.802c-0.31,0.041-0.618-0.053-0.85-0.293
		c-0.296-0.306-0.448-0.851-0.255-1.65c0.112-0.466,0.406-0.975,0.797-1.412c-0.148-0.196-0.334-0.312-0.535-0.36
		c-0.223-0.054-0.475-0.033-0.732,0.044c-0.279,0.083-0.561,0.23-0.82,0.422l-0.028,0.021c0.558,0.987,0.573,1.791,0.351,2.342
		c-0.174,0.429-0.493,0.714-0.832,0.832c-0.076,0.025-0.151,0.044-0.227,0.054v-0.802c0.131-0.056,0.256-0.183,0.333-0.375
		c0.136-0.334,0.121-0.836-0.208-1.488c-0.045,0.055-0.086,0.11-0.125,0.167V63.485z M76.861,67.583v-0.88
		c0.059,0.059,0.125,0.1,0.192,0.124c0.098,0.034,0.197,0.021,0.26-0.044c0.127-0.132,0.179-0.427,0.059-0.924
		c-0.093-0.387-0.245-0.71-0.436-0.975c-0.027,0.051-0.052,0.1-0.075,0.148v-1.409c0.052-0.049,0.106-0.095,0.164-0.138
		c0.39-0.285,0.928-0.429,1.459-0.429c0.531,0,1.07,0.144,1.459,0.429v1.634c-0.164,0.235-0.285,0.487-0.347,0.74
		c-0.121,0.497-0.068,0.792,0.059,0.924c0.063,0.065,0.161,0.078,0.261,0.044c0.009-0.003,0.018-0.007,0.027-0.011v0.802
		c-0.311,0.041-0.619-0.053-0.852-0.293c-0.294-0.306-0.447-0.851-0.254-1.65c0.121-0.503,0.413-0.996,0.797-1.413
		c-0.042-0.054-0.094-0.103-0.153-0.146c-0.251-0.184-0.62-0.276-0.997-0.276s-0.748,0.092-0.998,0.276
		c-0.036,0.026-0.069,0.055-0.099,0.084c0.334,0.379,0.596,0.872,0.743,1.474c0.192,0.799,0.039,1.344-0.255,1.65
		C77.602,67.607,77.224,67.687,76.861,67.583z"/>
</g>
</svg>
