<?xml version="1.0" encoding="utf-8"?>
<!-- Generator: Adobe Illustrator 21.1.0, SVG Export Plug-In . SVG Version: 6.00 Build 0)  -->
<svg version="1.1" id="Capa_1" xmlns="http://www.w3.org/2000/svg" xmlns:xlink="http://www.w3.org/1999/xlink" x="0px" y="0px"
	 viewBox="0 0 55.4 70" style="enable-background:new 0 0 55.4 70;" xml:space="preserve">
<style type="text/css">
	.st0{fill:url(#SVGID_1_);}
	.st1{fill:url(#SVGID_2_);}
	.st2{fill:url(#SVGID_3_);}
	.st3{fill:url(#SVGID_4_);}
	.st4{fill:url(#SVGID_5_);}
	.st5{fill:url(#SVGID_6_);}
</style>
<g>
	
		<linearGradient id="SVGID_1_" gradientUnits="userSpaceOnUse" x1="1053.7009" y1="719.2813" x2="1053.7009" y2="772.7986" gradientTransform="matrix(1 0 0 1 -1039.87 -711.19)">
		<stop  offset="0" style="stop-color:#CC2585"/>
		<stop  offset="1" style="stop-color:#EC1C24"/>
	</linearGradient>
	<path class="st0" d="M12.6,44.5L12.6,44.5c0-0.1,0-0.2,0-0.3V14.6c-0.1-3.4-2.9-6.2-6.3-6.3C2.8,8.3,0,11.2,0,14.6v29.6
		c0,9.4,7.6,17,16.9,17c3.9,0,7.7-1.4,10.8-3.8C19.3,57.4,12.6,52.1,12.6,44.5z"/>
	
		<linearGradient id="SVGID_2_" gradientUnits="userSpaceOnUse" x1="1063.2144" y1="734.8621" x2="1063.2144" y2="772.5001" gradientTransform="matrix(1 0 0 1 -1039.87 -711.19)">
		<stop  offset="0" style="stop-color:#CC2585"/>
		<stop  offset="1" style="stop-color:#BF0426"/>
	</linearGradient>
	<path class="st1" d="M34,44.3V29.7c0-0.2-0.1-0.4-0.1-0.6c-0.4-3.4-3.5-5.9-7-5.5c-3.1,0.4-5.5,3-5.6,6.1v14.5c0,2.4-2,4.4-4.4,4.4
		c-2.3,0-4.3-1.8-4.4-4.1l0,0c0,7.6,6.7,12.9,15.1,12.9C31.7,54.2,34,49.4,34,44.3z"/>
	
		<linearGradient id="SVGID_3_" gradientUnits="userSpaceOnUse" x1="1078.3062" y1="728.404" x2="1078.3062" y2="772.4183" gradientTransform="matrix(1 0 0 1 -1039.87 -711.19)">
		<stop  offset="0" style="stop-color:#CC2585"/>
		<stop  offset="1" style="stop-color:#EC1C24"/>
	</linearGradient>
	<path class="st2" d="M55.4,30.4v-0.6c0-0.2-0.1-0.4-0.1-0.6c-0.4-3.4-3.5-5.9-7-5.5c-3.1,0.4-5.5,3-5.6,6.1v14.5
		c-0.1,2.4-2.1,4.4-4.5,4.3c-2.4-0.1-4.2-2-4.3-4.3V23.5c-0.1-3.4-2.8-6.3-6.3-6.3s-6.3,2.8-6.3,6.3v20.8c0,9.4,7.6,17,17,17
		s17-7.6,17-17V30.4L55.4,30.4z"/>
	
		<linearGradient id="SVGID_4_" gradientUnits="userSpaceOnUse" x1="1084.6102" y1="734.6499" x2="1084.6102" y2="772.6376" gradientTransform="matrix(1 0 0 1 -1039.87 -711.19)">
		<stop  offset="0" style="stop-color:#CC2585"/>
		<stop  offset="1" style="stop-color:#BF0426"/>
	</linearGradient>
	<path class="st3" d="M55.4,44.3V29.7c0-0.2-0.1-0.4-0.1-0.6c-0.4-3.4-3.5-5.9-7-5.5c-3.1,0.4-5.5,3-5.6,6.1v14.5
		c0,2.4-2,4.4-4.4,4.4c-2.3,0-4.3-1.8-4.4-4.1l0,0c0,7.6,6.7,12.9,15.1,12.9C53.1,54.2,55.4,49.4,55.4,44.3z"/>
	
		<linearGradient id="SVGID_5_" gradientUnits="userSpaceOnUse" x1="1052.8221" y1="725.8823" x2="1052.8221" y2="772.7307" gradientTransform="matrix(1 0 0 1 -1039.87 -711.19)">
		<stop  offset="0" style="stop-color:#FFFFFF;stop-opacity:0"/>
		<stop  offset="1" style="stop-color:#FFFFFF;stop-opacity:0.2"/>
	</linearGradient>
	<path class="st4" d="M10.2,59.8c5.1,2.2,10.9,1.8,15.7-1.1C7.6,58.6,5,48.5,5,39.8V14.7H0v29.6C0,51,4,57.1,10.2,59.8z"/>
	
		<linearGradient id="SVGID_6_" gradientUnits="userSpaceOnUse" x1="1074.218" y1="734.6699" x2="1074.218" y2="772.6576" gradientTransform="matrix(1 0 0 1 -1039.87 -711.19)">
		<stop  offset="0" style="stop-color:#FFFFFF;stop-opacity:0"/>
		<stop  offset="1" style="stop-color:#FFFFFF;stop-opacity:0.2"/>
	</linearGradient>
	<path class="st5" d="M31.6,59.8c5.1,2.2,10.9,1.8,15.7-1.1c-18.3,0-20.9-10.2-20.9-18.9V23.5h-5v20.8C21.4,51,25.4,57.1,31.6,59.8z
		"/>
</g>
</svg>
