<?xml version="1.0" encoding="utf-8"?>
<!-- Generator: Adobe Illustrator 21.1.0, SVG Export Plug-In . SVG Version: 6.00 Build 0)  -->
<svg version="1.1" id="Capa_1" xmlns="http://www.w3.org/2000/svg" xmlns:xlink="http://www.w3.org/1999/xlink" x="0px" y="0px"
	 viewBox="0 0 257 78.5" style="enable-background:new 0 0 257 78.5;" xml:space="preserve">
<style type="text/css">
	.st0{fill:url(#SVGID_1_);}
	.st1{fill:url(#SVGID_2_);}
	.st2{fill:url(#SVGID_3_);}
	.st3{fill:url(#SVGID_4_);}
	.st4{fill:url(#SVGID_5_);}
	.st5{fill:url(#SVGID_6_);}
	.st6{fill:url(#SVGID_7_);}
	.st7{fill:url(#SVGID_8_);}
	.st8{fill:url(#SVGID_9_);}
	.st9{fill:url(#SVGID_10_);}
	.st10{fill:url(#SVGID_11_);}
	.st11{fill:url(#SVGID_12_);}
	.st12{fill:url(#SVGID_13_);}
	.st13{fill:url(#SVGID_14_);}
	.st14{fill:url(#SVGID_15_);}
	.st15{fill:url(#SVGID_16_);}
	.st16{fill:url(#SVGID_17_);}
	.st17{fill:url(#SVGID_18_);}
	.st18{fill:url(#SVGID_19_);}
</style>
<g>
	
		<linearGradient id="SVGID_1_" gradientUnits="userSpaceOnUse" x1="1057.9856" y1="-105.8514" x2="1057.9856" y2="-175.8876" gradientTransform="matrix(1 0 0 -1 -1039.87 -103.19)">
		<stop  offset="0" style="stop-color:#CC2585"/>
		<stop  offset="1" style="stop-color:#EC1C24"/>
	</linearGradient>
	<path class="st0" d="M16.5,50.3L16.5,50.3c0-0.1,0-0.2,0-0.4V11.2C16.4,6.7,12.7,3.1,8.2,3C3.7,3,0,6.7,0,11.2V50
		c0,12.3,9.9,22.2,22.1,22.3c5.1,0,10.1-1.8,14.1-5C25.3,67.2,16.5,60.3,16.5,50.3z"/>
	
		<linearGradient id="SVGID_2_" gradientUnits="userSpaceOnUse" x1="1070.3677" y1="-126.2414" x2="1070.3677" y2="-175.497" gradientTransform="matrix(1 0 0 -1 -1039.87 -103.19)">
		<stop  offset="0" style="stop-color:#CC2585"/>
		<stop  offset="1" style="stop-color:#BF0426"/>
	</linearGradient>
	<path class="st1" d="M44.5,50V31c0-0.3-0.1-0.5-0.1-0.8c-0.5-4.5-4.6-7.7-9.1-7.2c-4.1,0.5-7.2,3.9-7.3,8v19c0,3.2-2.6,5.8-5.7,5.8
		c-3,0-5.6-2.4-5.7-5.4l0,0c0,10,8.8,16.9,19.7,16.9C41.5,63,44.5,56.7,44.5,50z"/>
	
		<linearGradient id="SVGID_3_" gradientUnits="userSpaceOnUse" x1="1090.1486" y1="-117.74" x2="1090.1486" y2="-175.3839" gradientTransform="matrix(1 0 0 -1 -1039.87 -103.19)">
		<stop  offset="0" style="stop-color:#CC2585"/>
		<stop  offset="1" style="stop-color:#EC1C24"/>
	</linearGradient>
	<path class="st2" d="M72.5,31.8V31c0-0.3-0.1-0.5-0.1-0.8c-0.5-4.5-4.6-7.7-9.1-7.2c-4.1,0.5-7.2,3.9-7.3,8v19
		c-0.1,3.2-2.8,5.7-5.9,5.6C47,55.5,44.6,53,44.5,50V22.8c-0.1-4.5-3.7-8.2-8.2-8.2c-4.5,0-8.2,3.7-8.2,8.2V50
		c0,12.3,10,22.2,22.2,22.2s22.2-10,22.2-22.2L72.5,31.8L72.5,31.8z"/>
	
		<linearGradient id="SVGID_4_" gradientUnits="userSpaceOnUse" x1="1098.3595" y1="-125.9638" x2="1098.3595" y2="-175.6769" gradientTransform="matrix(1 0 0 -1 -1039.87 -103.19)">
		<stop  offset="0" style="stop-color:#CC2585"/>
		<stop  offset="1" style="stop-color:#BF0426"/>
	</linearGradient>
	<path class="st3" d="M72.5,50V31c0-0.3-0.1-0.5-0.1-0.8c-0.5-4.5-4.6-7.7-9.1-7.2c-4.1,0.5-7.2,3.9-7.3,8v19c0,3.2-2.6,5.8-5.7,5.8
		c-3,0-5.6-2.4-5.7-5.4l0,0c0,10,8.8,16.9,19.7,16.9C69.5,63,72.5,56.7,72.5,50z"/>
	
		<linearGradient id="SVGID_5_" gradientUnits="userSpaceOnUse" x1="1056.806" y1="-114.4607" x2="1056.806" y2="-175.7694" gradientTransform="matrix(1 0 0 -1 -1039.87 -103.19)">
		<stop  offset="0" style="stop-color:#FFFFFF;stop-opacity:0"/>
		<stop  offset="1" style="stop-color:#FFFFFF;stop-opacity:0.2"/>
	</linearGradient>
	<path class="st4" d="M13.4,70.3c6.7,2.9,14.3,2.4,20.5-1.5c-24,0-27.3-13.3-27.3-24.7V11.3H0V50C0,58.8,5.3,66.8,13.4,70.3z"/>
	
		<linearGradient id="SVGID_6_" gradientUnits="userSpaceOnUse" x1="1084.8082" y1="-125.9638" x2="1084.8082" y2="-175.6769" gradientTransform="matrix(1 0 0 -1 -1039.87 -103.19)">
		<stop  offset="0" style="stop-color:#FFFFFF;stop-opacity:0"/>
		<stop  offset="1" style="stop-color:#FFFFFF;stop-opacity:0.2"/>
	</linearGradient>
	<path class="st5" d="M41.4,70.3c6.7,2.9,14.3,2.4,20.5-1.5c-24,0-27.3-13.3-27.3-24.7V22.8H28V50C28,58.8,33.3,66.8,41.4,70.3z"/>
	
		<linearGradient id="SVGID_7_" gradientUnits="userSpaceOnUse" x1="88.9588" y1="45.4815" x2="88.9588" y2="7.1533" gradientTransform="matrix(1 0 0 -1 0 80)">
		<stop  offset="0" style="stop-color:#CC2585"/>
		<stop  offset="1" style="stop-color:#EC1C24"/>
	</linearGradient>
	<path class="st6" d="M89,34.3L89,34.3c4.5,0,8.2,3.7,8.2,8.2V64c0,4.6-3.7,8.2-8.2,8.2h0c-4.5,0-8.2-3.7-8.2-8.2V42.5
		C80.7,38,84.4,34.3,89,34.3z"/>
	
		<linearGradient id="SVGID_8_" gradientUnits="userSpaceOnUse" x1="141.6788" y1="57.2262" x2="141.6788" y2="7.7393" gradientTransform="matrix(1 0 0 -1 0 80)">
		<stop  offset="0" style="stop-color:#CC2585"/>
		<stop  offset="1" style="stop-color:#BF0426"/>
	</linearGradient>
	<path class="st7" d="M141.7,22.8L141.7,22.8c4.5,0,8.2,3.7,8.2,8.2V64c0,4.6-3.7,8.2-8.2,8.2l0,0c-4.5,0-8.2-3.7-8.2-8.2V31
		C133.4,26.5,137.1,22.8,141.7,22.8z"/>
	
		<linearGradient id="SVGID_9_" gradientUnits="userSpaceOnUse" x1="10432.4063" y1="-125.9792" x2="10432.4063" y2="-175.3891" gradientTransform="matrix(-1 0 0 -1 10667.1299 -103.19)">
		<stop  offset="0" style="stop-color:#CC2585"/>
		<stop  offset="1" style="stop-color:#EC1C24"/>
	</linearGradient>
	<path class="st8" d="M212.5,31.8V31c0-0.3,0.1-0.5,0.1-0.8c0.5-4.5,4.6-7.7,9.1-7.2c4.1,0.5,7.2,3.9,7.3,8v19
		c0.1,3.2,2.8,5.7,5.9,5.6c3.1-0.1,5.5-2.5,5.6-5.6V31c0.1-4.5,3.7-8.2,8.2-8.2c4.5,0,8.2,3.7,8.2,8.2V50c0,12.3-10,22.2-22.2,22.2
		s-22.2-10-22.2-22.2L212.5,31.8L212.5,31.8z"/>
	
		<linearGradient id="SVGID_10_" gradientUnits="userSpaceOnUse" x1="10440.6172" y1="-125.9638" x2="10440.6172" y2="-175.6769" gradientTransform="matrix(-1 0 0 -1 10667.1299 -103.19)">
		<stop  offset="0" style="stop-color:#CC2585"/>
		<stop  offset="1" style="stop-color:#BF0426"/>
	</linearGradient>
	<path class="st9" d="M212.5,50V31c0-0.3,0.1-0.5,0.1-0.8c0.5-4.5,4.6-7.7,9.1-7.2c4.1,0.5,7.2,3.9,7.3,8v19c0,3.2,2.6,5.8,5.7,5.8
		c3,0,5.6-2.4,5.7-5.4l0,0c0,10-8.8,16.9-19.7,16.9C215.6,63,212.5,56.7,212.5,50z"/>
	
		<linearGradient id="SVGID_11_" gradientUnits="userSpaceOnUse" x1="10427.0664" y1="-134.203" x2="10427.0664" y2="-175.6306" gradientTransform="matrix(-1 0 0 -1 10667.1299 -103.19)">
		<stop  offset="0" style="stop-color:#FFFFFF;stop-opacity:0"/>
		<stop  offset="1" style="stop-color:#FFFFFF;stop-opacity:0.2"/>
	</linearGradient>
	<path class="st10" d="M243.6,70.3c-6.7,2.9-14.3,2.4-20.5-1.5c24,0,27.3-13.3,27.3-24.7V31h6.6V50C257,58.8,251.7,66.8,243.6,70.3z
		"/>
	
		<linearGradient id="SVGID_12_" gradientUnits="userSpaceOnUse" x1="1289.5759" y1="-12341.0361" x2="1289.5759" y2="-12291.6318" gradientTransform="matrix(1 0 0 1 -1161.87 12363.8096)">
		<stop  offset="0" style="stop-color:#CC2585"/>
		<stop  offset="1" style="stop-color:#EC1C24"/>
	</linearGradient>
	<path class="st11" d="M149.9,63.2V64c0,0.3-0.1,0.5-0.1,0.8c-0.5,4.5-4.6,7.7-9.1,7.2c-4.1-0.5-7.2-3.9-7.3-8V45
		c-0.1-3.2-2.8-5.7-5.9-5.6c-3.1,0.1-5.5,2.5-5.6,5.6V64c-0.1,4.5-3.7,8.2-8.2,8.2c-4.5,0-8.2-3.7-8.2-8.2V45
		c0-12.3,10-22.2,22.2-22.2s22.2,10,22.2,22.2L149.9,63.2L149.9,63.2z"/>
	
		<linearGradient id="SVGID_13_" gradientUnits="userSpaceOnUse" x1="1297.7869" y1="-12336.0508" x2="1297.7869" y2="-12286.3369" gradientTransform="matrix(1 0 0 1 -1161.87 12363.8096)">
		<stop  offset="0" style="stop-color:#CC2585"/>
		<stop  offset="1" style="stop-color:#BF0426"/>
	</linearGradient>
	<path class="st12" d="M149.9,45v19c0,0.3-0.1,0.5-0.1,0.8c-0.5,4.5-4.6,7.7-9.1,7.2c-4.1-0.5-7.2-3.9-7.3-8V45
		c0-3.2-2.6-5.8-5.7-5.8c-3,0-5.6,2.4-5.7,5.4l0,0c0-10,8.8-16.9,19.7-16.9C146.9,32,149.9,38.3,149.9,45z"/>
	
		<linearGradient id="SVGID_14_" gradientUnits="userSpaceOnUse" x1="1284.2305" y1="-12299.8711" x2="1284.2305" y2="-12341.293" gradientTransform="matrix(1 0 0 1 -1161.87 12363.8096)">
		<stop  offset="0" style="stop-color:#FFFFFF;stop-opacity:0"/>
		<stop  offset="1" style="stop-color:#FFFFFF;stop-opacity:0.2"/>
	</linearGradient>
	<path class="st13" d="M118.8,24.6c6.7-2.9,14.3-2.4,20.5,1.5c-24,0-27.3,13.3-27.3,24.7v13.2h-6.6V45
		C105.4,36.2,110.7,28.2,118.8,24.6z"/>
	
		<linearGradient id="SVGID_15_" gradientUnits="userSpaceOnUse" x1="1126.6417" y1="-142.9255" x2="1126.6417" y2="-175.3891" gradientTransform="matrix(1 0 0 -1 -1039.87 -103.19)">
		<stop  offset="0" style="stop-color:#FFFFFF;stop-opacity:0"/>
		<stop  offset="1" style="stop-color:#FFFFFF;stop-opacity:0.2"/>
	</linearGradient>
	<path class="st14" d="M80.7,42.5V64c0,4.5,3.7,8.2,8.2,8.2c1.4,0,2.7-0.4,3.9-1c-3.8-1.5-5.5-5-5.5-10.5V34.4
		C83.4,35.2,80.7,38.6,80.7,42.5z"/>
	
		<linearGradient id="SVGID_16_" gradientUnits="userSpaceOnUse" x1="1221.067" y1="-125.9638" x2="1221.067" y2="-175.3891" gradientTransform="matrix(1 0 0 -1 -1039.87 -103.19)">
		<stop  offset="0" style="stop-color:#CC2585"/>
		<stop  offset="1" style="stop-color:#BF0426"/>
	</linearGradient>
	<path class="st15" d="M199.3,72.2h-15.8c-13.3,0-24.7-10.2-25.4-23.5c-0.7-13.6,9.8-25.3,23.5-25.9c0.4,0,0.8,0,1.2,0h6.7
		c4.5,0,8.1,3.6,8.2,8.1c0,4.6-2,8.4-6.6,8.4h-7.9c-4.3,0-8.1,3.1-8.6,7.4c-0.5,4.5,2.8,8.6,7.3,9c0.3,0,0.6,0,0.9,0h4.9v-4.6
		c0-4.3,3.1-8.1,7.4-8.6c4.5-0.5,8.6,2.8,9,7.4c0,0.3,0,0.6,0,0.9v16.5C204.2,70,202.1,72.2,199.3,72.2z"/>
	
		<linearGradient id="SVGID_17_" gradientUnits="userSpaceOnUse" x1="1245.687" y1="-144.4391" x2="1197.7008" y2="-144.4391" gradientTransform="matrix(1 0 0 -1 -1039.87 -103.19)">
		<stop  offset="0" style="stop-color:#CC2585"/>
		<stop  offset="1" style="stop-color:#EC1C24"/>
	</linearGradient>
	<path class="st16" d="M182.5,39.3L182.5,39.3c0.1,0,0.2,0,0.3,0H196c4.5,0,8.2-3.7,8.2-8.2c0-4.5-3.7-8.2-8.2-8.2h-13.2
		c-13.6,0-24.7,11-24.7,24.6c0,4.3,1.1,8.6,3.3,12.3C165.2,45.8,172.2,39.3,182.5,39.3z"/>
	
		<linearGradient id="SVGID_18_" gradientUnits="userSpaceOnUse" x1="1235.4482" y1="-142.9332" x2="1198.0247" y2="-142.9332" gradientTransform="matrix(1 0 0 -1 -1039.87 -103.19)">
		<stop  offset="0" style="stop-color:#FFFFFF;stop-opacity:0"/>
		<stop  offset="1" style="stop-color:#FFFFFF;stop-opacity:0.2"/>
	</linearGradient>
	<path class="st17" d="M190.8,29.4h4.9v-6.6h-12.8c-13.6,0-24.7,11.1-24.7,24.7c0,3.2,0.6,6.3,1.8,9.2C162.2,38,172,29.4,190.8,29.4
		z"/>
	
		<linearGradient id="SVGID_19_" gradientUnits="userSpaceOnUse" x1="88.9614" y1="65.6659" x2="88.9614" y2="52.662" gradientTransform="matrix(1 0 0 -1 0 80)">
		<stop  offset="0" style="stop-color:#E5288E"/>
		<stop  offset="1" style="stop-color:#CC2585"/>
	</linearGradient>
	<circle class="st18" cx="89" cy="22.8" r="8.2"/>
</g>
</svg>
