<?xml version="1.0" encoding="utf-8"?>
<!-- Generator: Adobe Illustrator 21.1.0, SVG Export Plug-In . SVG Version: 6.00 Build 0)  -->
<svg version="1.1" id="Capa_1" xmlns="http://www.w3.org/2000/svg" xmlns:xlink="http://www.w3.org/1999/xlink" x="0px" y="0px"
	 viewBox="0 0 150 150" style="enable-background:new 0 0 150 150;" xml:space="preserve">
<style type="text/css">
	.st0{fill:#B09E9E;}
</style>
<path class="st0" d="M113.1,0H36.9C16.6,0,0,16.6,0,36.9v76.3C0,133.4,16.6,150,36.9,150h76.3c20.3,0,36.9-16.6,36.9-36.9V36.9
	C150,16.6,133.4,0,113.1,0z M75,115.3c-22.3,0-40.3-18-40.3-40.3c0-22.3,18-40.3,40.3-40.3s40.3,18,40.3,40.3
	C115.3,97.3,97.3,115.3,75,115.3z M82.5,68.7h13.7l-34,32.7l6.3-20.7H53.8l34.7-32L82.5,68.7z"/>
</svg>
