<?xml version="1.0" encoding="utf-8"?>
<!-- Generator: Adobe Illustrator 21.1.0, SVG Export Plug-In . SVG Version: 6.00 Build 0)  -->
<svg version="1.1" id="Capa_1" xmlns="http://www.w3.org/2000/svg" xmlns:xlink="http://www.w3.org/1999/xlink" x="0px" y="0px"
	 viewBox="0 0 141 40" style="enable-background:new 0 0 141 40;" xml:space="preserve">
<style type="text/css">
	.st0{fill:#039FD6;}
</style>
<path id="Forma_1_copia_4" class="st0" d="M22.9,13v1c0,0.3-0.3,0.6-0.6,0.6c0,0,0,0,0,0H7.5c-3.8,0-6.9-3.1-6.9-6.9v-1
	c0-0.3,0.3-0.6,0.6-0.6c0,0,0,0,0,0H16c3.2,0,5.9,2.1,6.7,5.2c0,0,0,0,0,0C22.8,11.9,22.9,12.5,22.9,13z M17,16.7H7.5
	c-3.8,0-6.9,3.1-6.9,6.8c0,0,0,0,0,0v1c0,0.3,0.3,0.6,0.6,0.6h9.5c3.8,0,6.9-3.1,6.9-6.9v-1C17.6,16.9,17.4,16.7,17,16.7
	C17,16.7,17,16.7,17,16.7z M8.5,27.1H1.3c-0.3,0-0.6,0.3-0.6,0.6V35c0,0.3,0.3,0.6,0.6,0.6h1c3.8,0,6.9-3.1,6.9-6.9c0,0,0,0,0,0v-1
	C9.2,27.4,8.9,27.2,8.5,27.1C8.5,27.1,8.5,27.1,8.5,27.1L8.5,27.1z M46.3,14.4c-0.4,0-0.7-0.1-1-0.2c-0.7-0.3-1.2-0.8-1.4-1.4
	c-0.1-0.3-0.2-0.7-0.2-1.1c0-0.4,0.1-0.7,0.2-1.1c0.1-0.3,0.3-0.6,0.6-0.8c0.2-0.2,0.5-0.4,0.9-0.6c1-0.4,2.2-0.2,3,0.6
	c1.1,1,1.1,2.7,0,3.8c0,0,0,0,0,0C47.8,14.1,47.1,14.4,46.3,14.4L46.3,14.4z M44.2,32.3V16.5h4.2v15.8H44.2L44.2,32.3z M52.3,9.2
	h4.2v6.9l-0.3,2.3h0.3c0.4-0.7,1.1-1.3,1.8-1.7c0.9-0.5,2-0.7,3-0.7c1,0,2,0.2,2.9,0.6c0.9,0.4,1.7,1,2.4,1.7
	c0.7,0.8,1.3,1.7,1.7,2.7c0.8,2.2,0.8,4.6,0,6.8c-0.4,1-0.9,1.9-1.7,2.7c-0.7,0.7-1.5,1.3-2.4,1.7c-0.9,0.4-1.9,0.6-2.9,0.6
	c-1.1,0-2.1-0.2-3-0.7c-0.7-0.4-1.4-1-1.8-1.7h-0.3v1.9h-4V9.2L52.3,9.2z M60.5,28.9c0.5,0,1.1-0.1,1.6-0.3c0.5-0.2,1-0.5,1.3-0.9
	c0.4-0.4,0.7-0.9,0.9-1.4c0.5-1.2,0.5-2.5,0-3.7c-0.2-0.5-0.5-1-0.9-1.4c-0.4-0.4-0.8-0.7-1.3-0.9c-0.5-0.2-1-0.3-1.6-0.3
	c-0.5,0-1.1,0.1-1.6,0.3c-0.5,0.2-1,0.5-1.3,0.9c-0.4,0.4-0.7,0.9-0.9,1.4c-0.5,1.2-0.5,2.6,0,3.8c0.2,0.5,0.5,1,0.9,1.4
	c0.4,0.4,0.8,0.7,1.3,0.9C59.4,28.8,60,28.9,60.5,28.9L60.5,28.9z M79.1,16c1.2,0,2.3,0.2,3.4,0.6c1,0.4,1.9,1,2.6,1.7
	c0.8,0.8,1.3,1.7,1.7,2.7c0.8,2.2,0.8,4.6,0,6.8c-0.8,2-2.4,3.6-4.4,4.4c-2.2,0.8-4.6,0.8-6.7,0c-2-0.8-3.6-2.4-4.4-4.4
	c-0.8-2.2-0.8-4.6,0-6.8c0.4-1,1-1.9,1.7-2.7c0.8-0.7,1.7-1.3,2.6-1.7C76.8,16.2,78,16,79.1,16L79.1,16z M79.1,28.9
	c0.5,0,1.1-0.1,1.6-0.3c0.5-0.2,1-0.5,1.3-0.9c0.4-0.4,0.7-0.9,0.9-1.4c0.5-1.2,0.5-2.6,0-3.8c-0.2-0.5-0.5-1-0.9-1.4
	c-0.4-0.4-0.8-0.7-1.3-0.9c-0.5-0.2-1-0.3-1.6-0.3c-0.5,0-1.1,0.1-1.6,0.3c-0.5,0.2-0.9,0.5-1.3,0.9c-0.4,0.4-0.7,0.9-0.9,1.4
	c-0.4,1.2-0.4,2.6,0,3.8c0.2,0.5,0.5,1,0.9,1.4c0.4,0.4,0.8,0.7,1.3,0.9C78,28.8,78.6,28.9,79.1,28.9L79.1,28.9z M93.8,18.6h0.3
	c0.5-0.8,1.2-1.4,2-1.9C97,16.2,98,16,99,16c0.9,0,1.8,0.1,2.6,0.5c0.7,0.3,1.4,0.8,1.9,1.4c0.5,0.6,0.9,1.4,1.1,2.1
	c0.3,0.9,0.4,1.8,0.4,2.8v9.6h-4.2v-9c0.1-0.9-0.2-1.8-0.8-2.5c-0.6-0.6-1.4-0.9-2.2-0.8c-0.5,0-1.1,0.1-1.5,0.4
	c-0.4,0.2-0.8,0.6-1.1,1c-0.3,0.4-0.6,1-0.7,1.5c-0.2,0.6-0.2,1.2-0.2,1.8v7.7h-4.2V16.5h4V18.6L93.8,18.6z M117.9,30.6h-0.3
	c-0.5,0.6-1.1,1.1-1.8,1.5c-0.8,0.5-1.7,0.7-2.7,0.6c-0.8,0-1.6-0.1-2.3-0.4c-0.7-0.3-1.3-0.6-1.9-1.1c-0.5-0.5-1-1.1-1.3-1.7
	c-0.3-0.7-0.5-1.4-0.4-2.2c0-0.8,0.2-1.5,0.5-2.2c0.3-0.7,0.8-1.2,1.4-1.7c0.6-0.5,1.3-0.9,2-1.1c0.8-0.3,1.7-0.4,2.6-0.4
	c0.9,0,1.7,0.1,2.5,0.2c0.6,0.1,1.1,0.3,1.6,0.5v-0.5c0-0.8-0.4-1.6-1-2.1c-0.7-0.6-1.6-0.9-2.5-0.8c-1.5,0-2.8,0.7-3.7,1.8
	l-3.1-2.1c1.6-2.1,4.2-3.3,6.9-3.2c2.4,0,4.3,0.6,5.6,1.7c1.3,1.1,1.9,2.8,1.9,5.1v9.5h-4.2L117.9,30.6L117.9,30.6z M117.9,25.9
	c-0.5-0.2-1-0.4-1.5-0.6c-0.6-0.1-1.1-0.2-1.7-0.2c-0.8-0.1-1.7,0.2-2.3,0.7c-0.5,0.4-0.8,1-0.8,1.6c0,0.6,0.3,1.2,0.8,1.5
	c0.5,0.4,1.2,0.6,1.8,0.6c0.5,0,1.1-0.1,1.5-0.3c0.5-0.2,0.9-0.5,1.2-0.8C117.6,27.7,117.9,26.8,117.9,25.9L117.9,25.9z M137,30.4
	h-0.3c-0.4,0.7-1.1,1.3-1.8,1.7c-0.9,0.5-2,0.7-3,0.7c-1,0-2-0.2-2.9-0.6c-0.9-0.4-1.7-1-2.4-1.7c-0.7-0.8-1.3-1.7-1.7-2.7
	c-0.8-2.2-0.8-4.6,0-6.8c0.4-1,0.9-1.9,1.7-2.7c0.7-0.7,1.5-1.3,2.4-1.7c0.9-0.4,1.9-0.6,2.9-0.6c1.1,0,2.1,0.2,3,0.7
	c0.7,0.4,1.4,1,1.8,1.7h0.3l-0.3-2.3V9.2h4.2v23.1h-4V30.4L137,30.4z M132.8,28.9c0.5,0,1.1-0.1,1.6-0.3c0.5-0.2,1-0.5,1.3-0.9
	c0.4-0.4,0.7-0.9,0.9-1.4c0.5-1.2,0.5-2.6,0-3.8c-0.2-0.5-0.5-1-0.9-1.4c-0.4-0.4-0.8-0.7-1.3-0.9c-0.5-0.2-1-0.3-1.6-0.3
	c-0.5,0-1.1,0.1-1.6,0.3c-0.5,0.2-1,0.5-1.3,0.9c-0.4,0.4-0.7,0.9-0.9,1.4c-0.5,1.2-0.5,2.5,0,3.7c0.2,0.5,0.5,1,0.9,1.4
	c0.4,0.4,0.8,0.7,1.3,0.9C131.7,28.8,132.3,28.9,132.8,28.9L132.8,28.9z M34.3,16.2L34.3,16.2c0-1.7,1.3-3,3-3
	c0.8,0,1.6,0.3,2.2,0.9l3-3c-2.8-2.9-7.3-2.9-10.2-0.1c-1.4,1.4-2.2,3.2-2.2,5.2l0,0v16.1h4.2v-8.9h5.4v-4.2h-5.4V16.2L34.3,16.2z"
	/>
</svg>
