<?xml version="1.0" encoding="utf-8"?>
<!-- Generator: Adobe Illustrator 16.0.0, SVG Export Plug-In . SVG Version: 6.00 Build 0)  -->
<!DOCTYPE svg PUBLIC "-//W3C//DTD SVG 1.1//EN" "http://www.w3.org/Graphics/SVG/1.1/DTD/svg11.dtd">
<svg version="1.1" id="Capa_1" xmlns="http://www.w3.org/2000/svg" xmlns:xlink="http://www.w3.org/1999/xlink" x="0px" y="0px"
	 width="155px" height="155px" viewBox="0 0 155 155" enable-background="new 0 0 155 155" xml:space="preserve">
<g>
	<path fill-rule="evenodd" clip-rule="evenodd" fill="#CACFE0" d="M0,73.104c0.217-0.415,0.22-0.886,0.239-1.32
		c0.056-1.308,0.244-2.596,0.394-3.892c0.139-1.188,0.34-2.364,0.53-3.544c0.187-1.16,0.436-2.306,0.676-3.456
		c0.674-3.206,1.628-6.331,2.735-9.41c0.701-1.949,1.477-3.871,2.343-5.754c0.593-1.292,1.217-2.567,1.87-3.827
		c0.884-1.706,1.862-3.356,2.873-4.99c1.263-2.043,2.633-4.011,4.087-5.92c0.857-1.126,1.754-2.222,2.671-3.302
		c1.583-1.866,3.243-3.658,5.004-5.354c1.192-1.15,2.426-2.255,3.686-3.333c2.522-2.159,5.169-4.146,7.948-5.958
		c1.974-1.286,4.014-2.463,6.09-3.583c2.986-1.608,6.091-2.937,9.253-4.14c3.142-1.196,6.367-2.12,9.643-2.868
		c1.802-0.409,3.615-0.753,5.443-1.031c1.16-0.177,2.324-0.319,3.486-0.466c0.664-0.083,1.352-0.099,2.013-0.195
		c1.083-0.156,2.182,0.014,3.255-0.218c0.147-0.032,0.305-0.013,0.458-0.013c0.962-0.001,1.926,0.03,2.886-0.007
		c1.662-0.064,3.319,0.063,4.97,0.164c1.514,0.091,3.025,0.286,4.537,0.459c3.686,0.422,7.295,1.199,10.869,2.152
		c2.74,0.732,5.419,1.657,8.052,2.72c2.207,0.891,4.39,1.839,6.502,2.934c2.149,1.115,4.249,2.321,6.301,3.613
		c2.105,1.327,4.119,2.784,6.086,4.302c1.225,0.944,2.405,1.944,3.566,2.971c1.503,1.333,2.974,2.699,4.37,4.144
		c1.136,1.175,2.209,2.409,3.284,3.64c2.271,2.601,4.301,5.379,6.177,8.272c1.081,1.666,2.093,3.372,3.037,5.12
		c0.656,1.213,1.289,2.434,1.879,3.677c0.909,1.911,1.739,3.857,2.474,5.844c1.132,3.07,2.131,6.181,2.858,9.376
		c0.449,1.971,0.854,3.951,1.15,5.952c0.214,1.44,0.408,2.881,0.536,4.333c0.116,1.302,0.161,2.607,0.271,3.906
		c0.162,1.879,0.097,3.754,0.077,5.628c-0.012,1.235-0.055,2.479-0.216,3.712c-0.079,0.603-0.07,1.215-0.13,1.823
		c-0.162,1.644-0.389,3.277-0.646,4.909c-0.399,2.517-0.935,5.001-1.584,7.463c-0.745,2.83-1.68,5.597-2.741,8.321
		c-0.968,2.483-2.072,4.905-3.305,7.269c-0.961,1.839-1.995,3.636-3.095,5.394c-1.238,1.979-2.565,3.897-3.983,5.752
		c-0.874,1.142-1.775,2.26-2.713,3.352c-1.537,1.79-3.117,3.536-4.815,5.173c-1.493,1.437-3.035,2.814-4.627,4.143
		c-2.315,1.93-4.727,3.726-7.251,5.365c-1.921,1.246-3.904,2.389-5.922,3.482c-2.906,1.573-5.927,2.88-9.003,4.064
		c-2.849,1.096-5.771,1.975-8.741,2.695c-1.798,0.437-3.604,0.841-5.426,1.138c-1.413,0.231-2.833,0.437-4.262,0.58
		c-1.711,0.171-3.423,0.286-5.138,0.405c-2.12,0.148-4.238,0.124-6.351,0.063c-1.58-0.044-3.169-0.125-4.749-0.317
		c-0.968-0.119-1.944-0.221-2.917-0.323c-1.144-0.12-2.279-0.327-3.414-0.527c-2.251-0.396-4.471-0.932-6.68-1.519
		c-2.807-0.745-5.548-1.682-8.244-2.758c-2.211-0.883-4.392-1.835-6.504-2.932c-2.091-1.085-4.136-2.254-6.136-3.505
		c-2.185-1.367-4.271-2.872-6.307-4.442c-1.224-0.942-2.402-1.948-3.564-2.973c-1.541-1.358-3.037-2.761-4.459-4.24
		c-1.087-1.131-2.123-2.31-3.153-3.495c-1.189-1.365-2.314-2.781-3.392-4.233c-1.469-1.979-2.837-4.028-4.11-6.141
		c-1.308-2.174-2.509-4.402-3.601-6.688c-0.921-1.932-1.752-3.9-2.495-5.906c-1.136-3.069-2.131-6.182-2.857-9.376
		c-0.448-1.973-0.851-3.951-1.146-5.953c-0.209-1.42-0.387-2.841-0.539-4.268c-0.096-0.908-0.066-1.826-0.244-2.726
		C0.106,82.42,0.07,82.348,0,82.29C0,79.229,0,76.166,0,73.104z M5.259,72.846c-0.118,1.041-0.153,2.087-0.158,3.134
		c-0.014,2.818-0.021,5.632,0.286,8.438c0.099,0.909,0.168,1.823,0.295,2.729c0.269,1.92,0.577,3.834,1.008,5.725
		c0.218,0.955,0.365,1.927,0.737,2.841c0.069,0.273,0.066,0.557,0.146,0.836c0.493,1.717,1.023,3.423,1.609,5.111
		c0.629,1.814,1.345,3.596,2.133,5.346c0.744,1.651,1.542,3.278,2.412,4.872c0.816,1.494,1.675,2.962,2.594,4.395
		c1.496,2.332,3.114,4.574,4.856,6.733c1.44,1.783,2.991,3.464,4.55,5.137c1.146,1.229,2.43,2.318,3.67,3.451
		c0.741,0.679,1.511,1.32,2.287,1.955c1.314,1.075,2.674,2.096,4.062,3.079c2.247,1.589,4.578,3.043,6.993,4.359
		c1.284,0.698,2.581,1.372,3.911,1.985c2.062,0.952,4.15,1.834,6.286,2.602c2.544,0.917,5.132,1.688,7.767,2.301
		c1.631,0.38,3.271,0.711,4.926,0.974c1.31,0.206,2.623,0.372,3.938,0.536c1.317,0.166,2.645,0.308,3.96,0.33
		c2.771,0.049,5.544,0.145,8.318-0.07c1.475-0.115,2.944-0.248,4.416-0.399c1.32-0.138,2.629-0.355,3.931-0.59
		c1.927-0.347,3.838-0.771,5.729-1.282c2.401-0.65,4.776-1.385,7.092-2.292c2.683-1.048,5.318-2.2,7.861-3.568
		c1.865-1.005,3.702-2.053,5.483-3.198c2.478-1.592,4.835-3.349,7.107-5.226c1.499-1.237,2.893-2.584,4.341-3.875
		c0.664-0.595,1.244-1.286,1.858-1.933c1.19-1.249,2.338-2.533,3.432-3.864c1.176-1.432,2.32-2.888,3.369-4.415
		c1.617-2.358,3.142-4.771,4.502-7.293c1.201-2.234,2.26-4.53,3.25-6.861c0.802-1.889,1.437-3.839,2.063-5.793
		c0.354-1.097,0.737-2.19,0.897-3.341c0.132-0.183,0.162-0.399,0.215-0.61c0.557-2.244,0.999-4.508,1.348-6.796
		c0.354-2.307,0.609-4.624,0.705-6.949c0.116-2.835,0.17-5.678-0.099-8.511c0.055-0.614-0.077-1.216-0.129-1.821
		c-0.188-2.166-0.503-4.313-0.892-6.454c-0.606-3.349-1.481-6.626-2.55-9.852c-0.688-2.067-1.477-4.099-2.38-6.082
		c-0.396-0.868-0.712-1.778-1.264-2.571c-0.19-0.245-0.19-0.564-0.341-0.833c-0.306-0.553-0.604-1.112-0.896-1.673
		c-0.817-1.568-1.732-3.08-2.693-4.563c-1.469-2.27-3.034-4.47-4.743-6.571c-1.529-1.88-3.162-3.662-4.822-5.42
		c-1.081-1.141-2.282-2.156-3.439-3.217c-0.742-0.677-1.515-1.316-2.29-1.951c-1.313-1.077-2.675-2.096-4.062-3.079
		c-2.229-1.578-4.54-3.021-6.935-4.327c-1.36-0.741-2.729-1.463-4.145-2.104c-2.009-0.909-4.034-1.77-6.108-2.513
		c-2.545-0.914-5.133-1.687-7.767-2.298c-1.886-0.438-3.782-0.816-5.698-1.098c-1.053-0.156-2.111-0.269-3.165-0.409
		c-1.317-0.176-2.646-0.308-3.96-0.33c-2.771-0.048-5.543-0.143-8.317,0.071c-1.475,0.113-2.944,0.252-4.415,0.401
		c-1.323,0.132-2.63,0.354-3.931,0.591c-1.882,0.343-3.75,0.758-5.601,1.254c-2.446,0.654-4.862,1.399-7.218,2.32
		c-2.763,1.081-5.482,2.26-8.096,3.684c-1.784,0.973-3.535,1.992-5.247,3.082c-1.987,1.265-3.88,2.663-5.739,4.112
		c-2.049,1.597-3.945,3.363-5.853,5.119c-0.951,0.875-1.764,1.877-2.659,2.804c-0.741,0.767-1.449,1.571-2.124,2.397
		c-1.033,1.264-2.045,2.546-3.003,3.871c-1.215,1.68-2.364,3.403-3.438,5.177c-0.701,1.156-1.381,2.326-2.015,3.519
		c-0.366,0.688-0.818,1.349-0.963,2.139c-0.426,0.353-0.524,0.887-0.744,1.352c-1.316,2.783-2.407,5.65-3.331,8.584
		c-0.935,2.972-1.678,5.991-2.218,9.06c-0.226,1.283-0.415,2.573-0.562,3.869C5.453,70.335,5.287,71.584,5.259,72.846z"/>
	<path fill-rule="evenodd" clip-rule="evenodd" fill="#FFFFFF" d="M12.451,46.219c0.145-0.791,0.597-1.451,0.963-2.139
		c0.634-1.193,1.314-2.363,2.015-3.519c1.074-1.774,2.223-3.497,3.438-5.177c0.958-1.325,1.97-2.606,3.003-3.871
		c0.675-0.826,1.383-1.63,2.124-2.397c0.895-0.926,1.708-1.929,2.659-2.804c1.908-1.755,3.804-3.522,5.853-5.119
		c1.859-1.449,3.752-2.847,5.739-4.112c1.711-1.09,3.463-2.108,5.247-3.082c2.613-1.424,5.333-2.603,8.096-3.684
		c2.355-0.921,4.771-1.666,7.218-2.32c1.851-0.496,3.719-0.911,5.601-1.254c1.301-0.237,2.608-0.459,3.931-0.591
		c1.471-0.149,2.939-0.288,4.415-0.401c2.774-0.214,5.547-0.119,8.317-0.071c1.314,0.022,2.643,0.154,3.96,0.33
		c1.054,0.14,2.112,0.253,3.165,0.409c1.916,0.282,3.813,0.66,5.698,1.098c2.634,0.611,5.222,1.384,7.767,2.298
		c2.074,0.744,4.1,1.604,6.108,2.513c1.415,0.641,2.784,1.363,4.145,2.104c2.395,1.306,4.706,2.749,6.935,4.327
		c1.387,0.983,2.749,2.002,4.062,3.079c0.775,0.635,1.548,1.273,2.29,1.951c1.157,1.061,2.358,2.077,3.439,3.217
		c1.66,1.758,3.293,3.541,4.822,5.42c1.709,2.101,3.274,4.301,4.743,6.571c0.961,1.483,1.876,2.995,2.693,4.563
		c0.293,0.561,0.591,1.121,0.896,1.673c0.15,0.269,0.15,0.588,0.341,0.833c-0.008,0.218-0.023,0.437-0.023,0.653
		c-0.001,8.511-0.003,17.024-0.003,25.536c0,0.195,0.021,0.391,0.031,0.586l-0.054-0.019c-0.283,0.006-0.566,0.017-0.85,0.017
		c-7.095,0.001-14.19,0.001-21.285,0.001c-0.006-0.283-0.014-0.566-0.014-0.85c-0.002-7.137,0-14.273-0.003-21.411
		c0-0.281,0.051-0.57-0.107-0.832c0.003-0.24,0.005-0.48,0.005-0.721c0-0.788-0.001-1.574,0-2.362
		c0.002-0.734,0.003-0.734,0.766-0.735c0.152-0.001,0.306,0,0.459,0c2.165,0,4.331,0,6.494,0c2.493,0,4.986,0.001,7.48-0.001
		c0.581-0.001,0.651-0.113,0.371-0.581c-0.694-1.16-1.38-2.328-2.108-3.467c-1.021-1.6-2.135-3.134-3.285-4.646
		c-1.176-1.547-2.418-3.04-3.746-4.45c-1.78-1.89-3.619-3.726-5.608-5.411c-1.983-1.679-4.026-3.275-6.18-4.722
		c-2.794-1.876-5.699-3.555-8.752-4.984c-2.355-1.104-4.756-2.085-7.216-2.921c-2.042-0.693-4.121-1.267-6.223-1.761
		c-1.78-0.419-3.576-0.761-5.383-1.014c-1.396-0.194-2.802-0.368-4.216-0.451c-1.391-0.082-2.777-0.252-4.173-0.229
		c-1.505,0.024-3.008-0.038-4.516,0.092c-1.19,0.105-2.386,0.163-3.579,0.276c-1.582,0.148-3.146,0.394-4.713,0.65
		c-3.016,0.495-5.966,1.257-8.866,2.197c-3.659,1.188-7.196,2.668-10.595,4.484c-1.946,1.041-3.834,2.171-5.684,3.373
		c-1.647,1.068-3.212,2.252-4.755,3.465c-1.269,0.997-2.507,2.036-3.67,3.152c-2.127,2.04-4.202,4.131-6.074,6.421
		c-1.284,1.571-2.512,3.182-3.666,4.849c-1.082,1.562-2.101,3.162-3.011,4.831c-0.13,0.24-0.448,0.466-0.274,0.743
		c0.144,0.23,0.487,0.098,0.74,0.099c4.679,0.005,9.359,0.004,14.039,0.004c0.763,0,0.763,0.001,0.766,0.735
		c0.003,1.029,0.006,2.056,0.01,3.084c-0.008,0.283-0.021,0.566-0.021,0.851c-0.001,7.126,0,14.254-0.002,21.38
		c0,0.285-0.014,0.568-0.021,0.852c-7.381,0.002-14.763,0.004-22.146,0.007l-0.045,0.016c0.01-0.173,0.028-0.347,0.028-0.521
		C12.455,63.629,12.453,54.925,12.451,46.219z"/>
	<path fill-rule="evenodd" clip-rule="evenodd" fill="#FFFFFF" d="M147.179,95.713c-0.16,1.15-0.544,2.244-0.897,3.341
		c-0.626,1.954-1.261,3.904-2.063,5.793c-0.99,2.331-2.049,4.627-3.25,6.861c-1.36,2.521-2.885,4.935-4.502,7.293
		c-1.049,1.527-2.193,2.983-3.369,4.415c-1.094,1.331-2.241,2.615-3.432,3.864c-0.614,0.646-1.194,1.338-1.858,1.933
		c-1.448,1.291-2.842,2.638-4.341,3.875c-2.272,1.877-4.63,3.634-7.107,5.226c-1.781,1.146-3.618,2.193-5.483,3.198
		c-2.543,1.368-5.179,2.521-7.861,3.568c-2.315,0.907-4.69,1.642-7.092,2.292c-1.892,0.512-3.803,0.936-5.729,1.282
		c-1.302,0.234-2.61,0.452-3.931,0.59c-1.472,0.151-2.941,0.284-4.416,0.399c-2.774,0.215-5.548,0.119-8.318,0.07
		c-1.315-0.022-2.643-0.164-3.96-0.33c-1.315-0.164-2.628-0.33-3.938-0.536c-1.655-0.263-3.295-0.594-4.926-0.974
		c-2.635-0.612-5.223-1.384-7.767-2.301c-2.136-0.768-4.224-1.649-6.286-2.602c-1.33-0.613-2.627-1.287-3.911-1.985
		c-2.415-1.316-4.746-2.771-6.993-4.359c-1.388-0.983-2.748-2.004-4.062-3.079c-0.775-0.635-1.546-1.276-2.287-1.955
		c-1.241-1.133-2.525-2.223-3.67-3.451c-1.56-1.673-3.11-3.354-4.55-5.137c-1.742-2.159-3.36-4.401-4.856-6.733
		c-0.918-1.433-1.778-2.9-2.594-4.395c-0.87-1.594-1.668-3.221-2.412-4.872c-0.788-1.75-1.504-3.531-2.133-5.346
		c-0.586-1.688-1.116-3.395-1.609-5.111c-0.08-0.279-0.077-0.563-0.146-0.836c0.545-0.004,1.09-0.004,1.635-0.015
		c1.134-0.021,2.268,0.049,3.399-0.038c0.002,1.235,0,2.47,0.009,3.705c0.003,0.496,0.016,0.503,0.521,0.51
		c0.563,0.01,1.126,0.003,1.689,0.003c0.006,0.177,0.063,0.342,0.123,0.507c1.001,2.752,2.168,5.427,3.546,8.014
		c1.295,2.431,2.69,4.795,4.271,7.051c2.08,2.971,4.338,5.796,6.896,8.373c1.309,1.318,2.596,2.662,4.02,3.857
		c1.685,1.415,3.4,2.792,5.194,4.074c2.832,2.021,5.804,3.809,8.904,5.374c1.557,0.786,3.152,1.503,4.777,2.147
		c2.13,0.845,4.284,1.611,6.493,2.231c2.118,0.597,4.251,1.123,6.416,1.513c1.198,0.217,2.402,0.408,3.61,0.552
		c1.014,0.121,2.036,0.205,3.051,0.315c1.108,0.119,2.219,0.138,3.324,0.188c2.462,0.108,4.928,0.026,7.388-0.203
		c0.691-0.063,1.395-0.098,2.082-0.183c1.746-0.214,3.493-0.458,5.22-0.793c2.631-0.514,5.229-1.171,7.777-2.007
		c3.51-1.151,6.912-2.56,10.185-4.282c1.799-0.946,3.56-1.954,5.27-3.048c3.225-2.061,6.248-4.39,9.062-6.976
		c1.541-1.418,3.018-2.911,4.419-4.479c1.177-1.318,2.301-2.679,3.388-4.07c2.522-3.224,4.655-6.696,6.545-10.321
		c0.909-1.744,1.705-3.541,2.423-5.371c0.315-0.811,0.72-1.593,0.866-2.464c0.565,0,1.131,0.007,1.697-0.003
		c0.498-0.007,0.509-0.016,0.512-0.522c0.007-1.22,0.002-2.438,0-3.656C143.816,95.7,145.497,95.708,147.179,95.713z"/>
	<path fill-rule="evenodd" clip-rule="evenodd" fill="#00A658" d="M147.179,95.713c-1.682-0.005-3.362-0.013-5.044-0.018
		c-0.009-0.284-0.024-0.567-0.024-0.851c-0.003-7.101-0.003-14.201-0.003-21.302c0-0.239-0.014-0.48-0.022-0.72l0.054,0.019
		c2.403,0.001,4.806,0.003,7.209,0.004c0.269,2.833,0.215,5.676,0.099,8.511c-0.096,2.325-0.352,4.643-0.705,6.949
		c-0.349,2.288-0.791,4.552-1.348,6.796C147.341,95.313,147.311,95.53,147.179,95.713z"/>
	<path fill-rule="evenodd" clip-rule="evenodd" fill="#247FAD" d="M12.462,95.659c-1.132,0.087-2.266,0.018-3.399,0.038
		c-0.544,0.011-1.09,0.011-1.635,0.015c-0.372-0.914-0.519-1.886-0.737-2.841c-0.431-1.891-0.739-3.805-1.008-5.725
		c-0.127-0.905-0.196-1.819-0.295-2.729c-0.307-2.806-0.3-5.62-0.286-8.438c0.005-1.047,0.04-2.093,0.158-3.134
		c2.39,0.003,4.779,0.007,7.168,0.01l0.045-0.016c-0.006,0.24-0.018,0.48-0.018,0.72c-0.001,3.41-0.002,6.82-0.001,10.23
		C12.456,87.747,12.459,91.702,12.462,95.659z"/>
	<path fill-rule="evenodd" clip-rule="evenodd" fill="#41B76B" d="M149.348,72.846c-2.403-0.001-4.806-0.003-7.209-0.004
		c-0.011-0.195-0.031-0.391-0.031-0.586c0-8.512,0.002-17.025,0.003-25.536c0-0.217,0.016-0.435,0.023-0.653
		c0.552,0.793,0.868,1.703,1.264,2.571c0.903,1.983,1.692,4.015,2.38,6.082c1.068,3.226,1.943,6.503,2.55,9.852
		c0.389,2.141,0.703,4.288,0.892,6.454C149.271,71.63,149.402,72.232,149.348,72.846z"/>
	<path fill-rule="evenodd" clip-rule="evenodd" fill="#3FA4D7" d="M12.427,72.856c-2.389-0.003-4.778-0.007-7.168-0.01
		c0.028-1.262,0.194-2.511,0.336-3.763c0.147-1.296,0.336-2.586,0.562-3.869c0.541-3.069,1.283-6.088,2.218-9.06
		c0.924-2.934,2.015-5.801,3.331-8.584c0.22-0.464,0.318-0.999,0.744-1.352c0.002,8.706,0.004,17.41,0.005,26.116
		C12.456,72.509,12.438,72.683,12.427,72.856z"/>
	<path fill-rule="evenodd" clip-rule="evenodd" fill="#FCCD95" d="M34.619,72.833c0.008-0.284,0.021-0.567,0.021-0.852
		c0.001-7.126,0-14.253,0.002-21.38c0-0.285,0.014-0.568,0.021-0.851c11.193-0.001,22.385-0.003,33.578-0.003
		c0.131,0,0.263,0.005,0.394,0.008c0.003,0.041,0.005,0.083,0.006,0.124c-0.058,0.125-0.161,0.2-0.279,0.265
		c-1.031,0.57-1.397,1.521-1.418,2.62c-0.031,1.618-0.02,3.237-0.004,4.855c0.016,1.59,1.205,2.754,2.784,2.754
		c6.866,0,13.733,0,20.599,0c0.175,0,0.35,0.002,0.524,0c0.158-0.003,0.306,0.021,0.425,0.134c0.493,0.468,1.075,0.815,1.618,1.217
		c1.925,1.422,3.842,2.856,5.773,4.271c2.158,1.583,4.335,3.143,6.494,4.725c2.265,1.659,4.519,3.333,6.778,5
		c2.102,1.55,4.196,3.111,6.313,4.639c0.544,0.389,1.015,0.894,1.661,1.135c0.013,0.13,0.036,0.26,0.036,0.39
		c0.002,3.887,0.003,7.776,0,11.663c0,0.19,0.055,0.398-0.118,0.556c-1.386,0.038-2.639-0.396-3.823-1.078
		c-0.247-0.406-0.671-0.615-1.035-0.884c-1.889-1.4-3.788-2.784-5.681-4.178c-1.438-1.058-2.868-2.126-4.305-3.184
		c-2.051-1.509-4.107-3.012-6.156-4.523c-1.437-1.06-2.86-2.136-4.297-3.195c-2.242-1.653-4.49-3.298-6.734-4.949
		c-0.174-0.127-0.356-0.354-0.563-0.245c-0.236,0.127-0.282,0.448-0.297,0.697c-0.016,0.259,0.253,0.383,0.442,0.524
		c2.7,2.02,5.404,4.038,8.103,6.061c2.716,2.037,5.422,4.087,8.139,6.124c3.064,2.297,6.131,4.592,9.212,6.867
		c0.43,0.318,0.801,0.738,1.336,0.908c0.14,0.271,0.286,0.538,0.418,0.813c0.433,0.913,0.313,1.806-0.24,2.602
		c-1.019,1.463-2.084,2.893-3.139,4.331c-1.046,1.424-2.826,1.566-4.093,0.588c-0.413-0.319-0.818-0.649-1.245-0.949
		c-0.869-0.615-1.665-1.33-2.583-1.877c-0.146-0.251-0.36-0.438-0.588-0.606c-2.13-1.581-4.269-3.151-6.393-4.739
		c-4.229-3.166-8.457-6.336-12.669-9.526c-0.406-0.307-0.576-0.176-0.679,0.225c-0.026,0.104-0.028,0.219-0.07,0.317
		c-0.15,0.347-0.027,0.548,0.278,0.755c0.756,0.513,1.476,1.076,2.218,1.61c1.483,1.067,2.973,2.124,4.456,3.19
		c2.03,1.461,4.059,2.926,6.085,4.391c1.78,1.288,3.547,2.593,5.342,3.86c0.526,0.371,0.993,0.849,1.629,1.056
		c0.455,0.336,0.897,0.69,1.368,1.002c0.498,0.328,0.823,0.779,0.998,1.33c0.285,0.899,0.196,1.764-0.368,2.546
		c-1.059,1.461-2.106,2.93-3.191,4.37c-0.934,1.24-2.5,1.445-3.772,0.581c-0.574-0.391-1.092-0.867-1.728-1.167
		c-0.133-0.235-0.338-0.389-0.556-0.543c-1.454-1.034-2.904-2.077-4.352-3.122c-2.102-1.517-4.199-3.036-6.3-4.555
		c-1.234-0.893-2.471-1.785-3.704-2.68c-0.652-0.473-1.302-0.949-1.95-1.425c-0.114-0.085-0.214-0.147-0.331,0
		c-0.376,0.475-0.31,0.971,0.182,1.33c2.055,1.506,4.108,3.012,6.164,4.518c2.916,2.134,5.826,4.277,8.758,6.39
		c0.45,0.324,0.849,0.766,1.434,0.882c0.206,0.328,0.533,0.561,0.65,0.966c0.236,0.813,0.111,1.569-0.357,2.238
		c-1.089,1.55-2.202,3.084-3.336,4.603c-0.496,0.665-1.208,0.954-2.047,0.998c-0.524,0.028-0.965-0.261-1.468-0.275
		c-0.178-0.416-0.315-0.843-0.429-1.283c-0.118-0.461-0.365-0.874-0.708-1.235c-1.263-1.33-2.667-2.514-3.958-3.815
		c-0.327-0.33-0.729-0.586-1.198-0.61c-0.647-0.034-1.313-0.123-1.908,0.27c-0.248,0.162-0.484,0.133-0.721-0.062
		c-0.234-0.191-0.494-0.355-0.744-0.528c-0.506-0.353-0.542-0.372-0.214-0.925c0.552-0.928,0.334-2.608-0.506-3.457
		c-1.32-1.336-2.735-2.57-4.057-3.903c-0.105-0.104-0.244-0.183-0.376-0.255c-1.141-0.625-2.376-0.306-3.261,0.479
		c-0.555,0.49-1.014,1.084-1.604,1.539c-0.529-0.349-1.108-0.62-1.591-1.041c0.43-0.584,1.007-1.026,1.487-1.561
		c0.333-0.371,0.714-0.725,0.861-1.214c0.352-1.167,0.197-2.237-0.7-3.134c-1.264-1.264-2.533-2.521-3.848-3.731
		c-1.053-0.969-2.7-0.997-3.719,0.009c-0.994,0.981-1.974,1.978-2.967,2.959c-0.262,0.261-0.49,0.559-0.811,0.757
		c-0.595-0.428-1.273-0.727-1.844-1.193c0.144-0.162,0.28-0.332,0.433-0.487c1.064-1.067,2.146-2.119,3.194-3.203
		c1.461-1.515,1.409-2.984,0.182-4.342c-1.273-1.41-2.717-2.65-4.082-3.97c-0.146-0.142-0.316-0.244-0.504-0.296
		c-1.161-0.324-2.229-0.261-3.139,0.667c-1.377,1.404-2.775,2.79-4.171,4.174c-0.553,0.548-0.888,1.179-0.853,1.974
		c-0.389-0.238-0.781-0.472-1.166-0.716c-0.356-0.227-0.724-0.353-1.162-0.35c-3.419,0.014-6.837,0.01-10.256,0.01
		c-0.002-4.994-0.004-9.988-0.009-14.98C34.642,73.356,34.626,73.095,34.619,72.833z"/>
	<path fill-rule="evenodd" clip-rule="evenodd" fill="#C9CEDF" d="M68.636,49.756c-0.131-0.003-0.263-0.008-0.394-0.008
		c-11.193,0-22.385,0.001-33.578,0.003c-0.003-1.029-0.006-2.056-0.01-3.084c-0.003-0.734-0.003-0.735-0.766-0.735
		c-4.679,0-9.359,0.001-14.039-0.004c-0.253-0.001-0.596,0.131-0.74-0.099c-0.174-0.276,0.144-0.503,0.274-0.743
		c0.91-1.669,1.93-3.27,3.011-4.831c1.154-1.667,2.381-3.278,3.666-4.849c1.872-2.29,3.946-4.381,6.074-6.421
		c1.163-1.116,2.401-2.155,3.67-3.152c1.543-1.213,3.108-2.397,4.755-3.465c1.85-1.202,3.737-2.332,5.684-3.373
		c3.399-1.816,6.937-3.297,10.595-4.484c2.9-0.94,5.85-1.703,8.866-2.197c1.566-0.256,3.131-0.501,4.713-0.65
		c1.193-0.114,2.389-0.171,3.579-0.276c1.508-0.13,3.011-0.068,4.516-0.092c1.396-0.022,2.782,0.147,4.173,0.229
		c1.414,0.083,2.819,0.256,4.216,0.451c1.807,0.253,3.603,0.595,5.383,1.014c2.102,0.495,4.181,1.068,6.223,1.761
		c2.46,0.836,4.86,1.817,7.216,2.921c3.053,1.429,5.958,3.108,8.752,4.984c2.153,1.446,4.196,3.043,6.18,4.722
		c1.989,1.685,3.828,3.521,5.608,5.411c1.328,1.41,2.57,2.903,3.746,4.45c1.15,1.512,2.264,3.046,3.285,4.646
		c0.729,1.139,1.414,2.307,2.108,3.467c0.28,0.467,0.21,0.58-0.371,0.581c-2.494,0.003-4.987,0.001-7.48,0.001
		c-2.163,0-4.329,0-6.494,0c-0.153,0-0.307-0.001-0.459,0c-0.763,0.001-0.764,0.001-0.766,0.735c-0.001,0.788,0,1.574,0,2.362
		c0,0.241-0.002,0.481-0.005,0.721c-14.392,0.001-28.783,0.003-43.175,0.004c-2.493,0-4.986,0.004-7.479,0.006
		C68.993,49.759,68.814,49.758,68.636,49.756z"/>
	<path fill-rule="evenodd" clip-rule="evenodd" fill="#F4B27C" d="M69.172,49.759c2.493-0.001,4.986-0.006,7.479-0.006
		c14.392-0.001,28.783-0.002,43.175-0.004c0.158,0.262,0.107,0.551,0.107,0.832c0.003,7.137,0.001,14.273,0.003,21.411
		c0,0.284,0.008,0.567,0.014,0.85c-0.003,1.792-0.006,3.584-0.013,5.377c-0.004,1.091-0.017,2.183-0.026,3.275
		c-0.646-0.241-1.117-0.746-1.661-1.135c-2.117-1.527-4.212-3.089-6.313-4.639c-2.26-1.666-4.514-3.341-6.778-5
		c-2.159-1.583-4.336-3.143-6.494-4.725c-1.932-1.415-3.849-2.849-5.773-4.271c-0.543-0.402-1.125-0.75-1.618-1.217
		c-0.119-0.113-0.267-0.137-0.425-0.134c-0.175,0.002-0.35,0-0.524,0c-6.866,0-13.733,0-20.599,0c-1.579,0-2.768-1.165-2.784-2.754
		c-0.016-1.618-0.026-3.237,0.004-4.855c0.021-1.098,0.387-2.05,1.418-2.62c0.118-0.065,0.221-0.14,0.279-0.265
		C68.822,49.855,69.022,49.922,69.172,49.759z"/>
	<path fill-rule="evenodd" clip-rule="evenodd" fill="#EEEEED" d="M119.911,81.494c0.01-1.093,0.022-2.185,0.026-3.275
		c0.007-1.792,0.01-3.585,0.013-5.377c7.095,0,14.19,0,21.285-0.001c0.283,0,0.566-0.011,0.85-0.017
		c0.009,0.24,0.022,0.48,0.022,0.72c0,7.101,0,14.201,0.003,21.302c0,0.283,0.016,0.566,0.024,0.851
		c0.002,1.218,0.007,2.437,0,3.656c-0.003,0.507-0.014,0.516-0.512,0.522c-0.566,0.01-1.132,0.003-1.697,0.003
		c-6.399,0-12.797-0.001-19.196-0.001c-0.173,0-0.349-0.009-0.522,0c-0.288,0.011-0.39-0.135-0.378-0.402
		c0.005-0.131,0-0.263,0-0.393c0-1.659,0-3.319,0-4.979c0.173-0.157,0.118-0.365,0.118-0.556c0.003-3.887,0.002-7.776,0-11.663
		C119.947,81.754,119.924,81.624,119.911,81.494z M131.026,96.35c1.91-0.01,3.514-1.562,3.451-3.453
		c-0.068-2.11-1.505-3.442-3.471-3.489c-2.004-0.05-3.522,1.649-3.482,3.482C127.566,94.862,129.049,96.36,131.026,96.35z"/>
	<path fill-rule="evenodd" clip-rule="evenodd" fill="#EEEEED" d="M34.619,72.833c0.008,0.262,0.023,0.522,0.023,0.785
		c0.004,4.992,0.006,9.986,0.009,14.98c0,3.537,0,7.076-0.001,10.614c0,0.655-0.005,0.655-0.642,0.663c-0.153,0.001-0.305,0-0.458,0
		c-6.29,0-12.58,0.001-18.869,0.001c-0.563,0-1.126,0.007-1.689-0.003c-0.505-0.007-0.517-0.014-0.521-0.51
		c-0.009-1.235-0.006-2.47-0.009-3.705c-0.002-3.957-0.006-7.912-0.008-11.869c-0.001-3.41,0-6.82,0.001-10.23
		c0-0.239,0.011-0.48,0.018-0.72C19.855,72.837,27.237,72.836,34.619,72.833z M23.552,96.348c1.954,0,3.485-1.537,3.479-3.489
		c-0.006-1.905-1.548-3.454-3.452-3.467c-1.94-0.013-3.5,1.533-3.504,3.473C20.07,94.826,21.59,96.348,23.552,96.348z"/>
	<path fill-rule="evenodd" clip-rule="evenodd" fill="#C9CEDF" d="M14.681,99.877c6.29,0,12.58-0.001,18.869-0.001
		c0.153,0,0.306,0.001,0.458,0c0.636-0.008,0.641-0.008,0.642-0.663c0.001-3.538,0.001-7.077,0.001-10.614
		c3.419,0,6.837,0.004,10.256-0.01c0.438-0.003,0.806,0.123,1.162,0.35c0.385,0.244,0.777,0.478,1.166,0.716
		c-0.047,0.843,0.307,1.516,0.886,2.094c1.232,1.231,2.488,2.439,3.688,3.703c0.847,0.894,2.778,1.129,3.84,0.044
		c0.149-0.153,0.281-0.342,0.526-0.357c0.571,0.467,1.25,0.766,1.844,1.193c-0.229,0.381-0.573,0.66-0.891,0.953
		c-1.297,1.197-1.284,2.901-0.06,4.186c1.163,1.217,2.356,2.406,3.57,3.571c1.377,1.32,3.13,1.091,4.19-0.076
		c0.749-0.825,1.567-1.586,2.358-2.37c0.151-0.15,0.273-0.354,0.529-0.349c0.482,0.421,1.062,0.692,1.591,1.041
		c-0.102,0.229-0.303,0.37-0.472,0.54c-0.894,0.899-1.806,1.78-2.685,2.695c-1.209,1.26-1.273,2.881,0.024,4.194
		c1.183,1.198,2.375,2.387,3.572,3.571c0.905,0.896,1.984,1.038,3.147,0.636c0.458-0.157,0.812-0.507,1.152-0.846
		c1.132-1.126,2.259-2.257,3.388-3.386c0.186-0.185,0.374-0.368,0.557-0.556c0.125-0.127,0.249-0.17,0.397-0.038
		c0.359,0.317,0.718,0.636,1.082,0.948c0.222,0.19,0.188,0.35-0.011,0.539c-0.411,0.393-0.801,0.808-1.21,1.203
		c-1.211,1.169-1.227,2.942-0.003,4.127c0.754,0.729,1.485,1.483,2.229,2.224c0.558,0.555,1.099,1.13,1.687,1.651
		c0.91,0.81,2.519,0.865,3.378,0.036c1.222-1.182,2.528-2.293,3.451-3.753c0.503,0.015,0.943,0.304,1.468,0.275
		c0.839-0.044,1.551-0.333,2.047-0.998c1.134-1.519,2.247-3.053,3.336-4.603c0.469-0.669,0.594-1.425,0.357-2.238
		c-0.117-0.405-0.444-0.638-0.65-0.966c0.219-0.266,0.438-0.53,0.655-0.795c0.636,0.3,1.153,0.776,1.728,1.167
		c1.272,0.864,2.839,0.659,3.772-0.581c1.085-1.44,2.133-2.909,3.191-4.37c0.564-0.782,0.653-1.646,0.368-2.546
		c-0.175-0.551-0.5-1.002-0.998-1.33c-0.471-0.312-0.913-0.666-1.368-1.002c0.13-0.177,0.26-0.354,0.391-0.532
		c0.918,0.547,1.714,1.262,2.583,1.877c0.427,0.3,0.832,0.63,1.245,0.949c1.267,0.979,3.047,0.836,4.093-0.588
		c1.055-1.438,2.12-2.868,3.139-4.331c0.554-0.796,0.673-1.688,0.24-2.602c-0.132-0.274-0.278-0.542-0.418-0.813
		c0.612-0.009,1.225-0.016,1.836-0.024c1.185,0.682,2.438,1.116,3.823,1.078c0,1.659,0,3.319,0,4.979c0,0.13,0.005,0.262,0,0.393
		c-0.012,0.268,0.09,0.413,0.378,0.402c0.174-0.009,0.35,0,0.522,0c6.399,0,12.797,0.001,19.196,0.001
		c-0.146,0.871-0.551,1.653-0.866,2.464c-0.718,1.83-1.514,3.627-2.423,5.371c-1.89,3.625-4.022,7.098-6.545,10.321
		c-1.087,1.392-2.211,2.752-3.388,4.07c-1.401,1.567-2.878,3.061-4.419,4.479c-2.813,2.586-5.837,4.915-9.062,6.976
		c-1.71,1.094-3.471,2.102-5.27,3.048c-3.272,1.723-6.675,3.131-10.185,4.282c-2.548,0.836-5.146,1.493-7.777,2.007
		c-1.727,0.335-3.474,0.579-5.22,0.793c-0.688,0.085-1.391,0.119-2.082,0.183c-2.46,0.229-4.925,0.312-7.388,0.203
		c-1.104-0.05-2.216-0.068-3.324-0.188c-1.015-0.11-2.037-0.194-3.051-0.315c-1.208-0.144-2.412-0.335-3.61-0.552
		c-2.164-0.39-4.297-0.916-6.416-1.513c-2.208-0.62-4.363-1.387-6.493-2.231c-1.625-0.645-3.22-1.361-4.777-2.147
		c-3.1-1.565-6.072-3.353-8.904-5.374c-1.794-1.282-3.51-2.659-5.194-4.074c-1.423-1.195-2.711-2.539-4.02-3.857
		c-2.558-2.577-4.815-5.402-6.896-8.373c-1.581-2.256-2.976-4.62-4.271-7.051c-1.377-2.587-2.545-5.262-3.546-8.014
		C14.743,100.219,14.687,100.054,14.681,99.877z"/>
	<path fill-rule="evenodd" clip-rule="evenodd" fill="#F4B27C" d="M88.991,117.074c-0.923,1.46-2.229,2.571-3.451,3.753
		c-0.859,0.829-2.468,0.773-3.378-0.036c-0.588-0.521-1.129-1.097-1.687-1.651c-0.744-0.74-1.476-1.494-2.229-2.224
		c-1.224-1.185-1.208-2.958,0.003-4.127c0.409-0.396,0.799-0.811,1.21-1.203c0.198-0.189,0.232-0.349,0.011-0.539
		c-0.364-0.313-0.723-0.631-1.082-0.948c-0.148-0.132-0.272-0.089-0.397,0.038c-0.183,0.188-0.372,0.371-0.557,0.556
		c-1.128,1.129-2.255,2.26-3.388,3.386c-0.34,0.339-0.693,0.688-1.152,0.846c-1.163,0.402-2.242,0.261-3.147-0.636
		c-1.197-1.185-2.389-2.373-3.572-3.571c-1.297-1.313-1.234-2.935-0.024-4.194c0.878-0.915,1.791-1.796,2.685-2.695
		c0.168-0.17,0.37-0.312,0.472-0.54c0.591-0.455,1.05-1.049,1.604-1.539c0.885-0.784,2.121-1.104,3.261-0.479
		c0.132,0.072,0.271,0.15,0.376,0.255c1.322,1.333,2.736,2.567,4.057,3.903c0.84,0.849,1.058,2.529,0.506,3.457
		c-0.328,0.553-0.292,0.572,0.214,0.925c0.25,0.173,0.51,0.337,0.744,0.528c0.236,0.194,0.473,0.224,0.721,0.062
		c0.595-0.393,1.261-0.304,1.908-0.27c0.469,0.024,0.871,0.28,1.198,0.61c1.291,1.302,2.695,2.485,3.958,3.815
		c0.343,0.361,0.59,0.774,0.708,1.235C88.676,116.231,88.813,116.658,88.991,117.074z"/>
	<path fill-rule="evenodd" clip-rule="evenodd" fill="#F4B27C" d="M67.716,102.246c-0.255-0.005-0.378,0.198-0.529,0.349
		c-0.792,0.784-1.61,1.545-2.358,2.37c-1.06,1.167-2.813,1.396-4.19,0.076c-1.214-1.165-2.408-2.354-3.57-3.571
		c-1.224-1.284-1.237-2.988,0.06-4.186c0.318-0.293,0.662-0.572,0.891-0.953c0.32-0.198,0.548-0.496,0.811-0.757
		c0.993-0.981,1.973-1.978,2.967-2.959c1.019-1.006,2.666-0.978,3.719-0.009c1.315,1.211,2.584,2.468,3.848,3.731
		c0.897,0.896,1.052,1.967,0.7,3.134c-0.147,0.489-0.528,0.843-0.861,1.214C68.724,101.22,68.146,101.662,67.716,102.246z"/>
	<path fill-rule="evenodd" clip-rule="evenodd" fill="#F4B27C" d="M56.176,95.138c-0.245,0.016-0.377,0.204-0.526,0.357
		c-1.063,1.085-2.993,0.85-3.84-0.044c-1.199-1.264-2.455-2.472-3.688-3.703c-0.58-0.578-0.933-1.251-0.886-2.094
		c-0.035-0.795,0.3-1.426,0.853-1.974c1.396-1.384,2.793-2.77,4.171-4.174c0.909-0.928,1.978-0.991,3.139-0.667
		c0.188,0.052,0.358,0.154,0.504,0.296c1.365,1.319,2.809,2.56,4.082,3.97c1.227,1.357,1.279,2.827-0.182,4.342
		c-1.047,1.084-2.13,2.136-3.194,3.203C56.456,94.806,56.319,94.976,56.176,95.138z"/>
	<path fill-rule="evenodd" clip-rule="evenodd" fill="#F4B27C" d="M116.006,93.024c-0.611,0.009-1.224,0.016-1.836,0.024
		c-0.535-0.17-0.906-0.59-1.336-0.908c-3.081-2.275-6.147-4.57-9.212-6.867c-2.717-2.037-5.423-4.087-8.139-6.124
		c-2.698-2.023-5.402-4.041-8.103-6.061c-0.189-0.142-0.458-0.265-0.442-0.524c0.015-0.249,0.061-0.569,0.297-0.697
		c0.206-0.109,0.389,0.118,0.563,0.245c2.244,1.65,4.492,3.295,6.734,4.949c1.437,1.059,2.86,2.135,4.297,3.195
		c2.049,1.512,4.105,3.015,6.156,4.523c1.437,1.058,2.867,2.126,4.305,3.184c1.893,1.394,3.792,2.777,5.681,4.178
		C115.335,92.409,115.759,92.618,116.006,93.024z"/>
	<path fill-rule="evenodd" clip-rule="evenodd" fill="#F4B27C" d="M103.288,98.556c-0.131,0.178-0.261,0.355-0.391,0.532
		c-0.636-0.207-1.103-0.685-1.629-1.056c-1.795-1.268-3.562-2.572-5.342-3.86c-2.026-1.465-4.055-2.93-6.085-4.391
		c-1.483-1.066-2.973-2.123-4.456-3.19c-0.742-0.534-1.462-1.098-2.218-1.61c-0.306-0.207-0.429-0.408-0.278-0.755
		c0.042-0.099,0.044-0.213,0.07-0.317c0.103-0.4,0.272-0.531,0.679-0.225c4.212,3.19,8.439,6.36,12.669,9.526
		c2.124,1.588,4.263,3.158,6.393,4.739C102.928,98.117,103.143,98.305,103.288,98.556z"/>
	<path fill-rule="evenodd" clip-rule="evenodd" fill="#F4B27C" d="M96.204,107.75c-0.218,0.265-0.437,0.529-0.655,0.795
		c-0.585-0.116-0.983-0.558-1.434-0.882c-2.932-2.112-5.842-4.256-8.758-6.39c-2.056-1.506-4.109-3.012-6.164-4.518
		c-0.491-0.359-0.558-0.855-0.182-1.33c0.117-0.147,0.217-0.085,0.331,0c0.648,0.476,1.298,0.952,1.95,1.425
		c1.233,0.895,2.47,1.787,3.704,2.68c2.101,1.519,4.198,3.038,6.3,4.555c1.447,1.045,2.897,2.088,4.352,3.122
		C95.866,107.361,96.071,107.515,96.204,107.75z"/>
	<path fill-rule="evenodd" clip-rule="evenodd" fill="#F4D1B1" d="M69.172,49.759c-0.149,0.163-0.35,0.096-0.53,0.121
		c-0.001-0.041-0.003-0.083-0.006-0.124C68.814,49.758,68.993,49.759,69.172,49.759z"/>
	<path fill-rule="evenodd" clip-rule="evenodd" fill="#41B76B" d="M131.026,96.35c-1.978,0.011-3.46-1.487-3.502-3.46
		c-0.04-1.833,1.479-3.532,3.482-3.482c1.966,0.047,3.402,1.379,3.471,3.489C134.54,94.788,132.937,96.34,131.026,96.35z"/>
	<path fill-rule="evenodd" clip-rule="evenodd" fill="#3FA4D7" d="M23.552,96.348c-1.962,0-3.482-1.521-3.478-3.483
		c0.004-1.939,1.564-3.485,3.504-3.473c1.904,0.013,3.446,1.562,3.452,3.467C27.037,94.811,25.506,96.348,23.552,96.348z"/>
</g>
</svg>
