<?xml version="1.0" encoding="utf-8"?>
<!-- Generator: Adobe Illustrator 16.0.0, SVG Export Plug-In . SVG Version: 6.00 Build 0)  -->
<!DOCTYPE svg PUBLIC "-//W3C//DTD SVG 1.1//EN" "http://www.w3.org/Graphics/SVG/1.1/DTD/svg11.dtd">
<svg version="1.1" id="Capa_1" xmlns="http://www.w3.org/2000/svg" xmlns:xlink="http://www.w3.org/1999/xlink" x="0px" y="0px"
	 width="141px" height="40px" viewBox="0 0 141 40" enable-background="new 0 0 141 40" xml:space="preserve">
<g>
	<path fill-rule="evenodd" clip-rule="evenodd" fill="#F9457D" d="M39.654,17.918c0.067,0.601,0.308,1.184,0.156,1.802
		c-0.083,0.045-0.163,0.043-0.243-0.011c-0.169-0.21-0.172-0.494-0.315-0.717c-0.069-0.113-0.132-0.229-0.181-0.352
		c-0.105-0.813-0.717-1.407-0.945-2.169c-0.017-0.394,0.262-0.368,0.523-0.367C39.196,16.593,39.323,17.312,39.654,17.918z"/>
	<g>
		<path fill-rule="evenodd" clip-rule="evenodd" fill="#FFFFFF" d="M67.871,12.722c-0.019-0.107-0.038-0.216-0.057-0.325
			c-0.725-3.136-3.873-5.085-7.036-4.369c-0.945,0.214-1.719,1.067-2.545,1.127c-0.81,0.06-1.563-0.96-2.535-1.095
			c-0.032-0.003-0.065,0.006-0.098,0.009c-0.852-0.269-1.705-0.279-2.557,0c-2.417,0.468-4.314,2.528-4.531,4.918
			c-0.166,3.684-0.109,7.37-0.031,11.054c0.992,0.434,2.036,0.055,3.042,0.194c0.736,0.105,0.936-0.154,0.924-0.9
			c-0.046-3.083-0.016-6.167-0.021-9.25c-0.002-0.501,0.032-0.98,0.356-1.396c0.554-0.708,1.296-0.909,2.11-0.657
			c0.876,0.272,1.297,0.942,1.297,1.872c-0.002,3.183-0.004,6.364,0.008,9.545c0.002,0.26-0.17,0.748,0.217,0.741
			c1.24-0.027,2.499,0.286,3.722-0.156c0.013-3.548,0.027-7.098,0.042-10.646c0.601-1.203,1.331-1.631,2.379-1.397
			c0.961,0.218,1.392,0.918,1.394,2.287c0.003,2.232-0.024,4.466,0.013,6.699c0.019,1.069-0.49,2.538,0.212,3.098
			c0.666,0.533,2.075,0.114,3.154,0.167c0.565,0.027,0.713-0.165,0.709-0.717c-0.024-3.314-0.013-6.63-0.018-9.948
			C68.021,13.289,68.053,12.985,67.871,12.722z"/>
		<path fill-rule="evenodd" clip-rule="evenodd" fill="#FFFFFF" d="M130.603,14.163c-0.043-0.054-0.093-0.06-0.149-0.018
			c-1.334-0.247-2.682-0.063-4.021-0.1c-0.743-0.02-1.232-0.303-1.223-1.082c0.009-0.746,0.512-0.994,1.2-0.989
			c1.281,0.009,2.563,0.011,3.847,0.002c1.047-0.007,2.446,0.363,3.049-0.166c0.689-0.604,0.112-2.042,0.229-3.107
			c0.083-0.728-0.229-0.86-0.886-0.848c-2.137,0.038-4.274,0-6.411,0.02c-2.876,0.027-5.127,2.311-5.115,5.156
			c0.011,2.804,2.247,5.034,5.093,5.069c1.084,0.015,2.171,0.033,3.255-0.009c0.705-0.029,1.21,0.194,1.517,0.837
			c-0.011,0.167-0.021,0.334-0.03,0.5c-0.346,0.559-0.849,0.715-1.496,0.708c-2.195-0.033-4.394,0.011-6.587-0.027
			c-0.621-0.011-0.794,0.174-0.756,0.777c0.053,0.882,0.05,1.769,0.011,2.654c-0.025,0.569,0.182,0.711,0.729,0.704
			c2.162-0.029,4.325-0.004,6.49-0.019c0.514-0.004,1.049,0.109,1.542-0.146c0.101-0.021,0.201-0.043,0.302-0.063
			c2.481-0.62,3.988-2.785,3.775-5.424C134.781,16.312,132.861,14.363,130.603,14.163z"/>
		<path fill-rule="evenodd" clip-rule="evenodd" fill="#FFFFFF" d="M119.878,8.267c0.004-0.216-0.07-0.412-0.324-0.392
			c-1.241,0.1-2.502-0.229-3.728,0.18c-0.002,0.128-0.004,0.259-0.007,0.392c-0.015,2.594-0.03,5.187-0.044,7.78
			c-0.011,2.303-1.442,3.884-3.532,3.895c-2.148,0.013-3.578-1.548-3.582-3.924c-0.003-2.53-0.021-5.06,0.016-7.588
			c0.009-0.617-0.168-0.8-0.773-0.766c-0.852,0.051-1.71,0.055-2.561-0.003c-0.66-0.045-0.818,0.187-0.811,0.822
			c0.036,2.66,0.017,5.321,0.017,7.981c0,1.742,0.578,3.283,1.635,4.648c1.887,2.441,5.193,3.516,8.114,2.653
			c2.93-0.864,5.18-3.441,5.433-6.225c0.016-0.178,0.031-0.355,0.048-0.532C120.016,14.216,119.818,11.24,119.878,8.267z
			 M118.809,8.156c-0.008,0-0.016,0-0.023,0c0.003,0,0.006-0.002,0.008-0.002C118.798,8.154,118.804,8.154,118.809,8.156z
			 M119.778,8.417c0-0.009,0-0.018,0-0.029c0.016-0.013,0.025-0.025,0.045-0.038C119.801,8.372,119.796,8.396,119.778,8.417z"/>
		<path fill-rule="evenodd" clip-rule="evenodd" fill="#FFFFFF" d="M140.667,8.051c-1.227-0.412-2.489-0.109-3.736-0.17
			c-0.316-0.015-0.229,0.339-0.229,0.546c-0.006,5.083-0.004,10.165,0,15.247c0,0.209-0.088,0.554,0.245,0.535
			c1.241-0.066,2.502,0.268,3.726-0.17c0.018-2.387,0.051-4.773,0.049-7.16C140.72,13.937,140.688,10.995,140.667,8.051z"/>
		<path fill-rule="evenodd" clip-rule="evenodd" fill="#FFFFFF" d="M96.259,8.062c-0.114-0.013-0.227-0.025-0.34-0.036
			c-1.435-0.267-2.88-0.082-4.319-0.111c-0.504-0.011-0.687-0.132-0.672-0.661c0.029-1.051-0.014-2.102-0.027-3.152
			c-0.08-0.417-0.417-0.227-0.631-0.232c-0.886-0.025-1.776,0.038-2.658-0.025c-0.654-0.047-0.736,0.219-0.729,0.786
			c0.027,2.659-0.006,5.317,0.019,7.976c0.014,1.508-0.122,3.02,0.103,4.523c0.247,4.364,5.064,7.954,9.322,6.941
			c0.108-0.015,0.217-0.03,0.326-0.045c3.458-0.486,6.462-3.858,6.498-7.292c0.092-0.459,0.085-0.917-0.003-1.374
			C103.031,11.788,99.771,8.336,96.259,8.062z M91.777,8.164c-0.114,0.005-0.229,0.001-0.345,0.007
			c0.099-0.007,0.197-0.009,0.296-0.014C91.745,8.16,91.762,8.162,91.777,8.164z M95.258,20.16c-2.2,0.11-4.145-1.536-4.288-3.726
			c-0.086-1.307-0.008-2.623-0.039-3.935c-0.011-0.47,0.208-0.535,0.593-0.524c0.654,0.02,1.312,0.005,1.968,0.005
			c0,0.002,0,0.003,0,0.005c0.591,0,1.182-0.021,1.771,0.004c2.189,0.094,3.938,1.949,3.919,4.136
			C99.162,18.256,97.419,20.051,95.258,20.16z"/>
		<path fill-rule="evenodd" clip-rule="evenodd" fill="#FFFFFF" d="M82.037,9.249c-2.606-1.677-5.375-1.9-8.148-0.494
			c-2.593,1.318-4.168,3.436-4.453,6.405c-0.115,0.59-0.118,1.18-0.001,1.77c0.01,0.229-0.008,0.461,0.033,0.684
			c0.672,3.531,3.861,6.374,7.404,6.603c3.82,0.248,7.254-2.038,8.45-5.628C86.473,15.143,85.126,11.236,82.037,9.249z
			 M77.467,20.172c-2.046-0.025-3.756-1.537-4.051-3.584c-0.283-1.969,1.032-3.907,3.033-4.472c1.912-0.539,3.971,0.437,4.803,2.289
			c0.146,0.327,0.25,0.669,0.376,1.005c0,0.426,0.002,0.851,0.004,1.277C80.833,19.047,79.458,20.196,77.467,20.172z"/>
	</g>
	<path fill-rule="evenodd" clip-rule="evenodd" fill="#CC0410" d="M39.592,21.666c-0.058-0.131-0.114-0.262-0.172-0.391
		c-0.165-0.379-0.154-0.764-0.044-1.154c0.042-0.174,0.089-0.349,0.256-0.454c0.057,0.022,0.118,0.04,0.179,0.051
		C39.834,20.379,39.878,21.042,39.592,21.666z"/>
	<g>
		<path fill-rule="evenodd" clip-rule="evenodd" fill="#86A3A1" d="M134.346,28.798c-0.392-0.003-0.385,0.276-0.386,0.545
			c-0.002,0.853-0.002,1.706-0.002,2.561c-0.059,0.021-0.116,0.038-0.178,0.057c-0.6-0.934-1.207-1.858-1.795-2.799
			c-0.18-0.288-0.403-0.441-0.729-0.347c-0.296,0.085-0.231,0.363-0.232,0.583c-0.006,1.214-0.006,2.432,0,3.647
			c0.001,0.287-0.053,0.649,0.411,0.613c0.449-0.036,0.344-0.41,0.349-0.683c0.014-0.821,0.005-1.644,0.005-2.466
			c0.774,0.896,1.356,1.806,1.934,2.719c0.165,0.259,0.327,0.517,0.693,0.419c0.341-0.093,0.305-0.387,0.305-0.646
			c0.004-1.214,0.004-2.432,0-3.646C134.72,29.091,134.736,28.804,134.346,28.798z"/>
		<path fill-rule="evenodd" clip-rule="evenodd" fill="#86A3A1" d="M104.757,32.936c-0.328-0.003-0.658-0.023-0.985,0.002
			c-0.541,0.042-0.85-0.066-0.84-0.729c0.009-0.615,0.292-0.666,0.788-0.693c0.401-0.02,1.139,0.289,1.134-0.301
			c-0.004-0.583-0.742-0.272-1.146-0.289c-0.511-0.023-0.777-0.11-0.776-0.711c0.003-0.603,0.274-0.731,0.786-0.691
			c0.293,0.023,0.591,0.013,0.886,0.004c0.287-0.01,0.659,0.051,0.685-0.369c0.026-0.47-0.371-0.362-0.644-0.37
			c-0.559-0.015-1.119,0.027-1.676-0.011c-0.59-0.044-0.833,0.147-0.796,0.771c0.046,0.818,0.007,1.643,0.007,2.465
			c0.001,1.666,0.003,1.666,1.658,1.669c0.296,0,0.592,0.004,0.887,0c0.261-0.005,0.56,0.031,0.575-0.357
			C105.314,32.935,105.025,32.939,104.757,32.936z"/>
		<path fill-rule="evenodd" clip-rule="evenodd" fill="#86A3A1" d="M140.47,31.011c-0.403-0.114-0.886-0.175-1.249,0.038
			c-0.301,0.176-0.283,0.514,0.135,0.633c0.265,0.076,0.66-0.016,0.577,0.456c-0.073,0.427-0.342,0.704-0.781,0.776
			c-0.388,0.065-0.776-0.034-0.929-0.399c-0.351-0.842-0.414-1.724-0.007-2.571c0.174-0.366,0.544-0.439,0.933-0.396
			c0.286,0.032,0.472,0.212,0.646,0.412c0.232,0.265,0.572,0.334,0.77,0.092c0.165-0.201-0.083-0.486-0.25-0.684
			c-0.688-0.816-2.021-0.804-2.687,0.011c-0.438,0.539-0.322,1.18-0.345,1.604c0,0.421-0.005,0.649,0.004,0.88
			c0.036,1.149,0.702,1.85,1.733,1.831c1.002-0.016,1.686-0.785,1.671-1.907C140.686,31.515,140.84,31.116,140.47,31.011z"/>
		<path fill-rule="evenodd" clip-rule="evenodd" fill="#86A3A1" d="M78.699,32.936c-0.359-0.001-0.725-0.034-1.08,0.006
			c-0.648,0.078-0.718-0.256-0.769-0.802c-0.069-0.735,0.383-0.556,0.784-0.619c0.408-0.063,1.146,0.29,1.153-0.294
			c0.008-0.594-0.735-0.3-1.13-0.302c-0.589-0.003-0.77-0.18-0.812-0.782c-0.05-0.724,0.369-0.615,0.787-0.615
			c0.328,0,0.656,0.006,0.983-0.003c0.261-0.006,0.571,0.009,0.578-0.361c0.006-0.368-0.294-0.354-0.562-0.381
			c-2.528-0.256-2.528-0.258-2.525,2.265c0.001,0.032,0.001,0.065,0.002,0.098c0.001,0.655,0.007,1.311-0.001,1.966
			c-0.006,0.341,0.082,0.569,0.485,0.564c0.721-0.009,1.442,0.004,2.162,0.002c0.259-0.002,0.459-0.1,0.439-0.397
			C79.177,32.973,78.942,32.938,78.699,32.936z"/>
		<path fill-rule="evenodd" clip-rule="evenodd" fill="#86A3A1" d="M124.102,30.96c-0.186-0.063-0.379-0.107-0.573-0.142
			c-0.455-0.082-1.037-0.124-0.919-0.753c0.12-0.636,0.713-0.536,1.213-0.511c0.338,0.019,0.864,0.497,0.972-0.127
			c0.092-0.544-0.577-0.476-0.937-0.624c-0.143-0.06-0.322-0.031-0.416-0.036c-0.974,0.016-1.618,0.526-1.627,1.307
			c-0.01,0.848,0.461,1.326,1.292,1.459c0.227,0.038,0.452,0.076,0.677,0.123c0.321,0.067,0.539,0.234,0.536,0.596
			c-0.004,0.392-0.228,0.622-0.597,0.649c-0.321,0.021-0.65-0.02-0.972-0.065c-0.337-0.045-0.778-0.59-0.972,0.023
			c-0.188,0.59,0.479,0.562,0.829,0.708c0.468,0.198,0.964,0.186,1.446,0.04c0.667-0.197,1.052-0.613,1.045-1.355
			C125.093,31.552,124.719,31.167,124.102,30.96z"/>
		<path fill-rule="evenodd" clip-rule="evenodd" fill="#86A3A1" d="M99.637,28.8c-0.363-0.085-0.509,0.169-0.602,0.488
			c-0.278,0.971-0.575,1.935-0.939,3.154c-0.379-1.214-0.697-2.198-0.986-3.19c-0.1-0.338-0.265-0.554-0.619-0.436
			c-0.416,0.138-0.142,0.434-0.073,0.646c0.388,1.214,0.797,2.421,1.194,3.633c0.083,0.249,0.12,0.543,0.457,0.558
			c0.425,0.02,0.41-0.371,0.497-0.621c0.406-1.174,0.806-2.352,1.165-3.541C99.79,29.292,100.182,28.927,99.637,28.8z"/>
		<path fill-rule="evenodd" clip-rule="evenodd" fill="#86A3A1" d="M115.9,28.793c-0.852-0.006-1.704-0.004-2.555-0.002
			c-0.217,0.002-0.406,0.085-0.421,0.317c-0.017,0.265,0.208,0.33,0.404,0.298c0.89-0.15,0.957,0.374,0.905,1.042
			c-0.027,0.357-0.005,0.72-0.006,1.081c-0.002,0.524-0.003,1.049-0.001,1.573c0.001,0.266-0.009,0.549,0.374,0.56
			c0.382,0.011,0.395-0.262,0.395-0.535c0.001-0.886,0.015-1.77-0.007-2.655c-0.015-0.63-0.047-1.224,0.883-1.065
			c0.189,0.032,0.42-0.008,0.423-0.276C116.298,28.889,116.118,28.795,115.9,28.793z"/>
		<path fill-rule="evenodd" clip-rule="evenodd" fill="#86A3A1" d="M118.951,28.795c-0.295-0.004-0.409,0.143-0.408,0.421
			c0.004,0.657,0.001,1.313,0.001,1.969c0.001,0.657,0,1.314,0.001,1.971c0,0.234-0.008,0.478,0.322,0.499
			c0.313,0.024,0.391-0.165,0.391-0.43c0.002-1.345,0.005-2.689,0.002-4.032C119.26,28.99,119.233,28.8,118.951,28.795z"/>
		<path fill-rule="evenodd" clip-rule="evenodd" fill="#86A3A1" d="M127.911,28.804c-0.262,0.023-0.289,0.227-0.29,0.428
			c-0.005,0.655-0.003,1.311-0.003,1.966h-0.002c0,0.689-0.002,1.378,0,2.065c0.002,0.216,0.071,0.389,0.325,0.401
			c0.23,0.011,0.385-0.091,0.389-0.332c0.016-1.376,0.029-2.752,0.028-4.127C128.358,28.943,128.198,28.778,127.911,28.804z"/>
		<path fill-rule="evenodd" clip-rule="evenodd" fill="#86A3A1" d="M73.593,33.442c0.016,0.013,0.029,0.021,0.045,0.036
			c0.012-0.047,0.028-0.094,0.028-0.158c0.013-0.771-0.844-0.373-1.271-0.358c-0.818,0.028-1.056-0.229-1.05-1.05
			c0.005-1.025,0.257-2.076-0.152-3.081c-0.445-0.084-0.595,0.138-0.561,0.546c-0.011,0.852-0.029,1.704-0.032,2.558
			c-0.005,1.753,0,1.783,1.769,1.731c0.4-0.012,1.108,0.301,1.263-0.156c-0.031,0-0.057,0-0.088,0
			C73.564,33.489,73.58,33.468,73.593,33.442z"/>
		<path fill-rule="evenodd" clip-rule="evenodd" fill="#86A3A1" d="M73.632,33.51c0.015,0,0.026,0,0.041,0
			c-0.013-0.011-0.023-0.021-0.035-0.031C73.635,33.487,73.635,33.5,73.632,33.51z"/>
		<path fill-rule="evenodd" clip-rule="evenodd" fill="#86A3A1" d="M67.25,29c-0.275,1.519-0.229,3.039-0.024,4.563c0,0,0,0,0,0.002
			c0.645,0.294,0.633-0.171,0.637-0.57c0.011-1.142-0.008-2.285,0.011-3.429C67.88,29.106,67.743,28.878,67.25,29z"/>
		<path fill-rule="evenodd" clip-rule="evenodd" fill="#86A3A1" d="M52.633,28.976c-0.57-0.479-0.693,0.038-0.878,0.397
			c-0.392,0.765-0.579,1.632-1.162,2.409c-0.424-0.937-0.805-1.771-1.181-2.608c-0.119-0.265-0.289-0.438-0.606-0.374
			c-0.323,0.067-0.271,0.33-0.272,0.55c-0.004,1.249-0.005,2.497-0.003,3.746c0,0.276,0.042,0.55,0.403,0.556
			c0.405,0.007,0.352-0.311,0.355-0.563c0.008-0.659,0.003-1.319,0.003-1.98c0.412,0.452,0.627,0.922,0.847,1.391
			c0.099,0.208,0.196,0.411,0.481,0.43c0.345,0.021,0.439-0.227,0.549-0.467c0.259-0.563,0.405-1.183,0.839-1.656
			c0,0.747-0.004,1.495,0.003,2.245c0.002,0.246-0.058,0.575,0.323,0.588c0.398,0.015,0.337-0.321,0.337-0.566
			C52.664,31.706,52.647,30.341,52.633,28.976z"/>
		<path fill-rule="evenodd" clip-rule="evenodd" fill="#86A3A1" d="M64.427,30.654c0.433-0.688,0.125-1.47-0.651-1.742
			c-0.729-0.254-1.571-0.309-2.221-0.034c-0.579,0.243-0.155,1.067-0.244,1.626c-0.035,0.226-0.006,0.459-0.003,0.689
			c0,0.625-0.003,1.249,0.001,1.873c0.001,0.262-0.026,0.583,0.347,0.588c0.717,0.012,1.453,0.158,2.147-0.104
			c0.858-0.325,1.189-1.272,0.625-2.011C64.137,31.155,64.208,31.003,64.427,30.654z M62.057,30.233
			c0.034-0.436-0.043-0.882,0.628-0.829c0.532,0.044,1.147,0.027,1.166,0.74c0.019,0.71-0.586,0.641-1.152,0.659
			C62.32,30.887,62.012,30.825,62.057,30.233z M62.836,32.936c-0.425-0.003-0.838,0.09-0.803-0.62
			c0.032-0.641,0.225-0.913,0.783-0.797c0.609-0.017,1.112,0.04,1.086,0.735C63.877,32.954,63.342,32.939,62.836,32.936z"/>
		<path fill-rule="evenodd" clip-rule="evenodd" fill="#86A3A1" d="M91.297,28.8c-1.062,0.16-0.359,1.047-0.529,1.581
			c-0.076,0.237-0.013,0.521-0.012,0.782c0.001,0.622-0.001,1.245,0.003,1.867c0.001,0.227-0.008,0.448,0.241,0.592
			c1.026,0.583,2.856-0.188,3.146-1.341c0.17-0.676,0.178-1.369,0.042-2.046C93.943,29.025,93.01,28.539,91.297,28.8z
			 M93.235,32.575c-0.367,0.45-0.884,0.396-1.366,0.334c-0.565-0.073-0.312-0.558-0.338-0.87c-0.039-0.455-0.037-0.92-0.001-1.375
			c0.038-0.479-0.303-1.176,0.692-1.152c0.813,0.018,1.229,0.345,1.259,1.154c0.007,0.193,0.001,0.392,0.001,0.856
			C93.475,31.707,93.556,32.183,93.235,32.575z"/>
		<path fill-rule="evenodd" clip-rule="evenodd" fill="#86A3A1" d="M110.421,29.043c-0.771-0.478-1.708-0.4-2.479-0.163
			c-0.563,0.174-0.156,0.993-0.243,1.514c-0.042,0.256-0.008,0.522-0.007,0.786c0,0.654-0.006,1.31,0.003,1.965
			c0.002,0.224-0.024,0.492,0.311,0.507c0.352,0.015,0.438-0.226,0.443-0.516c0.007-0.327-0.004-0.657,0.005-0.983
			c0.01-0.255-0.032-0.552,0.354-0.583c0.274-0.021,0.535,0.004,0.676,0.283c0.205,0.408,0.401,0.822,0.594,1.237
			c0.156,0.336,0.338,0.759,0.769,0.543c0.53-0.265,0.05-0.624-0.09-0.871c-0.386-0.686-0.629-1.223,0.08-1.956
			C111.378,30.246,111.097,29.466,110.421,29.043z M109.172,30.939c-0.47,0.078-0.753-0.093-0.739-0.728
			c0.013-0.55,0.113-0.867,0.753-0.814c0.542,0.045,1.11,0.041,1.102,0.778C110.281,30.818,109.794,30.938,109.172,30.939z"/>
		<path fill-rule="evenodd" clip-rule="evenodd" fill="#86A3A1" d="M57.064,28.766c-0.904-0.034-1.626,0.544-1.776,1.491
			c-0.105,0.68-0.115,1.374,0.022,2.053c0.177,0.871,0.914,1.429,1.768,1.387c0.845-0.043,1.542-0.684,1.646-1.542
			c0.035-0.291,0.006-0.59,0.006-0.885c0.003,0,0.006,0,0.011,0c0-0.263,0.016-0.525-0.002-0.785
			C58.669,29.484,57.999,28.8,57.064,28.766z M57.975,31.774c-0.025,0.615-0.221,1.133-0.937,1.144
			c-0.751,0.011-1.01-0.495-1.03-1.165c-0.011-0.394-0.02-0.79,0.01-1.18c0.05-0.63,0.331-1.076,1.042-1.034
			c0.646,0.038,0.901,0.453,0.914,1.056c0.002,0.198,0,0.394,0,0.59C57.977,31.383,57.983,31.578,57.975,31.774z"/>
		<path fill-rule="evenodd" clip-rule="evenodd" fill="#86A3A1" d="M86.957,29.21c-0.083-0.227-0.193-0.421-0.479-0.412
			c-0.339,0.011-0.403,0.274-0.494,0.526c-0.444,1.234-0.902,2.465-1.334,3.702c-0.068,0.196-0.373,0.488,0.066,0.628
			c0.3,0.093,0.547-0.07,0.593-0.364c0.122-0.763,0.645-0.738,1.235-0.759c0.61-0.019,1.011,0.105,1.131,0.773
			c0.054,0.299,0.303,0.406,0.606,0.349c0.161-0.031,0.213-0.128,0.182-0.281c-0.021-0.063-0.042-0.124-0.064-0.186
			C87.919,31.861,87.438,30.537,86.957,29.21z M86.421,31.941c-0.474-0.027-0.67-0.11-0.457-0.611
			c0.176-0.412,0.304-0.844,0.531-1.488c0.219,0.615,0.329,0.985,0.48,1.338C87.23,31.77,87.075,31.979,86.421,31.941z"/>
	</g>
	<g>
		<path fill-rule="evenodd" clip-rule="evenodd" fill="#CF0410" d="M18.701,39.604c-0.291,0.049-0.546-0.047-0.791-0.19
			c-0.589-0.526-0.712-1.199-0.699-1.96c0.041-2.757-0.032-5.517,0.067-8.277c0.477-0.354,0.997-0.467,1.571-0.276
			c0.458,0.523,0.299,1.122,0.315,1.748c0.067,2.713-0.13,5.43,0.123,8.138C19.339,39.33,19.272,39.597,18.701,39.604z"/>
		<path fill-rule="evenodd" clip-rule="evenodd" fill="#C5040F" d="M18.701,39.604c0.048-0.232,0.515-0.051,0.421-0.415
			c-0.516-1.991-0.181-4.015-0.191-6.021c-0.005-1.096-0.462-2.252,0.157-3.308c0.236-0.403-0.737-0.449-0.193-0.862
			c0.347-0.501,0.866-0.52,1.397-0.507c0.376,0.164,0.537,0.382,0.197,0.733c-0.57,0.659-0.438,1.488-0.25,2.154
			c0.491,1.746,0.282,3.503,0.308,5.256c0.014,0.831,0.218,1.702-0.247,2.492c-0.077,0.06-0.158,0.115-0.254,0.14
			c0.075,0.026,0.156,0.018,0.233,0.038c0.14,0.036,0.225,0.114,0.221,0.267c-0.526,0.303-1.078,0.142-1.623,0.085
			C18.808,39.667,18.75,39.651,18.701,39.604z"/>
		<path fill-rule="evenodd" clip-rule="evenodd" fill="#D00411" d="M0.111,19.074c0.042-0.764,0.222-1.488,0.643-2.138
			c2.129,0.366,4.263,0.604,6.434,0.517c1.113-0.045,2.215-0.271,3.333-0.207c0.182,0.037,0.31,0.144,0.403,0.301
			c0.148,0.332,0.135,0.67,0.04,1.011c-0.162,0.604-0.616,0.637-1.145,0.65c-2.804,0.067-5.6-0.154-8.4-0.196
			c-0.361-0.006-0.846-0.146-0.799,0.513c-0.03,0.289-0.036,0.583-0.278,0.793C-0.232,19.994,0.137,19.499,0.111,19.074z"/>
		<path fill-rule="evenodd" clip-rule="evenodd" fill="#E40515" d="M1.244,16.109c0.163-0.243,0.326-0.488,0.489-0.733
			c0.386-0.715,0.798-1.401,1.732-1.479c1.188,0.337,2.404,0.14,3.607,0.183c0.784,0.027,1.569,0.02,2.353,0.002
			c0.772-0.016,1.248,0.294,1.366,1.082c0.045,0.294,0.042,0.579-0.167,0.822c-2.614,0.067-5.233,0.198-7.837-0.096
			c-0.528-0.06-0.625,0.541-1.074,0.423C1.527,16.312,1.36,16.269,1.244,16.109z"/>
		<path fill-rule="evenodd" clip-rule="evenodd" fill="#D40511" d="M22.806,0.566c0.209,0.147,0.416,0.292,0.625,0.439
			c0.115,0.512-0.094,1.011-0.065,1.521c-0.085,1.499-0.082,2.998-0.021,4.492c0.043,1.076-0.347,2.122-0.118,3.203
			c0.079,0.376-0.308,0.439-0.563,0.564c-0.295,0.078-0.585,0.075-0.87-0.047c-0.241-0.138-0.396-0.314-0.364-0.628
			c0.281-2.686,0.059-5.379,0.127-8.069c0.016-0.606,0.103-1.174,0.499-1.661C22.306,0.443,22.556,0.505,22.806,0.566z"/>
		<path fill-rule="evenodd" clip-rule="evenodd" fill="#E30514" d="M16.11,38.515c-0.245-0.159-0.49-0.319-0.735-0.479
			c-0.583-0.238-1.087-0.539-1.057-1.283c-0.11-2.19-0.113-4.381,0.128-6.564c0.038-0.347,0.043-0.731,0.397-0.962
			c1.112-0.161,1.476,0.108,1.352,1.241c-0.163,1.472-0.145,2.942-0.163,4.416c-0.012,0.887,0.022,1.768,0.201,2.639
			C16.169,37.849,16.354,38.208,16.11,38.515z"/>
		<path fill-rule="evenodd" clip-rule="evenodd" fill="#CE0510" d="M22.055,0.381c-0.417,2.942-0.135,5.902-0.168,8.853
			c-0.004,0.467-0.484,0.944-0.025,1.412c-0.176,0.508-0.541,0.37-0.899,0.265c-0.423-0.229-0.407-0.632-0.406-1.027
			c0.017-2.849,0.008-5.699,0.007-8.548c0-0.376-0.09-0.82,0.449-0.953c0.278-0.051,0.568,0.065,0.847-0.044
			C21.924,0.354,21.99,0.367,22.055,0.381z"/>
		<path fill-rule="evenodd" clip-rule="evenodd" fill="#D60411" d="M1.244,16.109c0.159,0.013,0.319,0.023,0.479,0.034
			c2.742,0.612,5.558,0.04,8.309,0.53c0.195,0.034,0.388,0.065,0.553,0.187c0.132,0.149,0.135,0.305,0.026,0.467
			c-0.796,0.408-1.686,0.292-2.52,0.361c-1.462,0.122-2.953,0.146-4.41-0.003c-0.984-0.102-2.047-0.134-2.928-0.748
			C0.826,16.606,0.969,16.319,1.244,16.109z"/>
		<path fill-rule="evenodd" clip-rule="evenodd" fill="#D70512" d="M16.11,38.515c-0.059-0.286-0.117-0.571-0.177-0.858
			c0.496-0.188,0.682-0.584,0.704-1.076c0.03-0.688,0.102-1.39-0.033-2.063c-0.288-1.436,0.141-2.867-0.025-4.303
			c-0.042-0.367-0.081-0.892,0.456-1.091c0.108-0.029,0.202-0.002,0.279,0.078c0.079,0.187,0.448,0.096,0.407,0.345
			c-0.479,2.853-0.036,5.729-0.242,8.584c-0.041,0.57,0.601,0.765,0.432,1.283C17.229,39.277,16.624,38.986,16.11,38.515z"/>
		<path fill-rule="evenodd" clip-rule="evenodd" fill="#F93770" d="M15.34,1.933c1.596-1.617,3.504-2.236,5.744-1.795
			c-0.233,0.294-0.603,0.232-0.905,0.345c-0.618,0.015-1.216,0.112-1.765,0.423c-0.231,0.129-0.457,0.267-0.699,0.374
			c-0.565,0.156-1.024,0.477-1.417,0.904c-0.095,0.094-0.201,0.176-0.314,0.247c-0.156,0.089-0.317,0.162-0.502,0.162
			C15.099,2.445,15.275,2.176,15.34,1.933z"/>
		<path fill-rule="evenodd" clip-rule="evenodd" fill="#F83F77" d="M18.876,39.656c0.533-0.15,1.12,0.116,1.631-0.207
			c0.416-0.377,1.001-0.417,1.45-0.729c0.377-0.163,0.728-0.37,1.038-0.644c0.288-0.194,0.571-0.403,0.952-0.289
			c0.219,0.144,0.183,0.336,0.103,0.537C22.531,39.569,20.818,40.056,18.876,39.656z"/>
		<path fill-rule="evenodd" clip-rule="evenodd" fill="#FA1A4E" d="M5.269,27.804c-0.128-0.074-0.257-0.147-0.384-0.222
			c-0.683-0.375-1.245-0.869-1.572-1.595c-0.002-0.053-0.008-0.105-0.018-0.16c0.003-0.263,0.117-0.48,0.27-0.686
			c0.734-0.012,1.111,0.561,1.588,0.967C5.286,26.668,5.811,27.201,5.269,27.804z"/>
		<path fill-rule="evenodd" clip-rule="evenodd" fill="#F8467C" d="M0.111,19.074c0.148,0.405-0.061,0.869,0.209,1.254
			c0.384,0.339,0.342,0.869,0.575,1.274c0.143,0.501,0.61,0.873,0.584,1.442c-0.044,0.207-0.147,0.365-0.362,0.429
			C0.169,22.146-0.208,20.689,0.111,19.074z"/>
		<path fill-rule="evenodd" clip-rule="evenodd" fill="#F82960" d="M36.25,13.626c0.494,0.281,0.834,0.722,1.188,1.149
			c0.117,0.297,0.05,0.561-0.153,0.8c-0.859-0.176-1.256-0.866-1.685-1.517C35.672,13.695,35.955,13.651,36.25,13.626z"/>
		<path fill-rule="evenodd" clip-rule="evenodd" fill="#FA2156" d="M13.166,4.104c-0.055-0.476,0.577-0.392,0.631-0.777
			c0.117-0.071,0.234-0.143,0.352-0.214c0.351-0.038,0.633-0.516,1.044-0.164c-0.161,0.724-0.657,1.207-1.199,1.657
			C13.445,4.891,13.161,4.733,13.166,4.104z"/>
		<path fill-rule="evenodd" clip-rule="evenodd" fill="#FA2559" d="M26.957,35.474c-0.253,0.273-0.506,0.548-0.76,0.82
			c-0.304,0.085-0.437,0.366-0.648,0.557c-0.311,0.04-0.426-0.152-0.489-0.408c0.018-0.581,0.413-0.918,0.813-1.252
			C26.275,35.121,26.685,35.036,26.957,35.474z"/>
		<path fill-rule="evenodd" clip-rule="evenodd" fill="#FA3470" d="M1.117,23.474c0.079-0.156,0.158-0.313,0.238-0.469
			c0.2-0.04,0.351,0.059,0.498,0.177c0.407,0.484,0.845,0.945,1.165,1.499c0.035,0.267-0.049,0.468-0.32,0.563
			C2.075,24.738,1.486,24.203,1.117,23.474z"/>
		<path fill-rule="evenodd" clip-rule="evenodd" fill="#F73971" d="M37.255,15.472c0.061-0.232,0.123-0.464,0.183-0.697
			c0.494,0.361,0.913,0.791,1.21,1.33c-0.141,0.087-0.282,0.174-0.423,0.263c-0.181,0.071-0.315-0.025-0.451-0.122
			c-0.155-0.132-0.299-0.276-0.432-0.434C37.268,15.711,37.222,15.601,37.255,15.472z"/>
		<path fill-rule="evenodd" clip-rule="evenodd" fill="#FA2152" d="M36.25,13.626c-0.208,0.122-0.417,0.243-0.625,0.365
			c-0.117,0.102-0.247,0.102-0.385,0.049c-0.163-0.107-0.258-0.254-0.272-0.452c0.152-0.299-0.119-0.731,0.297-0.947
			c0.128,0.069,0.256,0.138,0.383,0.207C35.848,13.107,36.05,13.367,36.25,13.626z"/>
		<path fill-rule="evenodd" clip-rule="evenodd" fill="#F9326B" d="M15.137,2.915c-0.353-0.057-0.584,0.504-0.987,0.198
			c0.339-0.452,0.729-0.853,1.191-1.18c0.261,0.14-0.147,0.461,0.159,0.59C15.604,2.86,15.454,2.964,15.137,2.915z"/>
		<path fill-rule="evenodd" clip-rule="evenodd" fill="#F5265D" d="M2.698,25.243c0.068-0.192,0.136-0.389,0.204-0.581
			c0.058-0.072,0.135-0.1,0.228-0.087c0.242,0.134,0.446,0.292,0.382,0.617c0.183,0.299,0.125,0.515-0.217,0.635
			C3.095,25.633,2.897,25.438,2.698,25.243z"/>
		<path fill-rule="evenodd" clip-rule="evenodd" fill="#F8396F" d="M24.05,38.324c-0.021-0.184-0.043-0.364-0.224-0.472
			c-0.124-0.328,0.132-0.488,0.302-0.688c0.145-0.118,0.299-0.207,0.495-0.198c0.452,0.142,0.061,0.455,0.137,0.675
			C24.525,37.869,24.287,38.096,24.05,38.324z"/>
		<path fill-rule="evenodd" clip-rule="evenodd" fill="#F82F63" d="M24.76,37.642c-0.292-0.132,0.121-0.44-0.146-0.578
			c-0.123-0.327,0.119-0.473,0.319-0.638c0.083-0.036,0.166-0.038,0.252-0.009c0.121,0.144,0.242,0.288,0.363,0.434
			C25.286,37.114,25.024,37.377,24.76,37.642z"/>
		<path fill-rule="evenodd" clip-rule="evenodd" fill="#D40511" d="M20.079,0.351c0.277-0.349,0.685-0.075,1.005-0.212
			c0.271,0.021,0.555-0.009,0.776,0.201c-0.044,0.24-0.072,0.512-0.401,0.212c-0.37-0.25-0.759,0.004-1.136-0.04
			C20.224,0.485,20.142,0.432,20.079,0.351z"/>
		<path fill-rule="evenodd" clip-rule="evenodd" fill="#DA0512" d="M39.403,22.261c-0.232,0.87-0.712,1.579-1.391,2.16
			c-1.768-0.51-3.577-0.216-5.367-0.294c-1.044-0.046-2.1,0.053-3.123-0.254c-0.154-0.069-0.286-0.167-0.378-0.313
			c-0.114-0.216-0.035-0.419,0.044-0.622c0.155-0.272,0.129-0.661,0.506-0.79c3.003-0.372,6.02-0.068,9.029-0.199
			C38.995,21.937,39.243,22.015,39.403,22.261z"/>
		<path fill-rule="evenodd" clip-rule="evenodd" fill="#EA0517" d="M37.813,24.622c-0.726,0.852-1.524,1.63-2.366,2.365
			c-0.477-0.078-0.802-0.581-1.345-0.478c-1.274-0.011-2.544,0.004-3.815-0.008c-0.389-0.005-0.787,0.015-1.135-0.219
			c-0.4-0.583-0.29-1.137,0.1-1.672c0.3-0.25,0.666-0.262,1.026-0.252c2.095,0.047,4.197-0.162,6.286,0.148
			C36.979,24.569,37.417,24.362,37.813,24.622z"/>
		<path fill-rule="evenodd" clip-rule="evenodd" fill="#FC0924" d="M32.06,30.345c-1.021,1.205-2.173,2.277-3.327,3.35
			c-0.522-0.269-1.273,0.349-1.663-0.432c-0.072-0.188-0.059-0.374,0.003-0.561c0.33-0.672,0.603-1.368,0.851-2.074
			c0.116-0.329,0.154-0.714,0.527-0.896c0.688,0.169,1.391,0.264,2.083,0.412c0.168,0.036,0.419,0.164,0.455-0.146
			c0.052-0.467,0.253-0.752,0.75-0.646C32.389,29.488,31.91,30.025,32.06,30.345z"/>
		<path fill-rule="evenodd" clip-rule="evenodd" fill="#FB071E" d="M32.06,30.345c-0.115-0.099-0.299-0.152-0.166-0.374
			c0.223-0.367-0.105-0.472-0.322-0.478c-0.2-0.007-0.451,0.118-0.349,0.448c0.201,0.639,0.052,0.596-0.573,0.492
			c-0.558-0.091-1.104-0.545-1.757-0.224c-0.254,0.124-0.297-0.252-0.351-0.465c0.005-0.045,0.009-0.09,0.014-0.134
			c0.136-0.441,0.179-0.888,0.067-1.341c0.006-0.306,0.083-0.574,0.38-0.727c0.205,0.611,0.652,0.465,1.122,0.403
			c0.966-0.127,1.938,0.08,2.922-0.149c0.751-0.176,0.674,0.465,0.591,0.968C33.251,29.432,32.566,29.798,32.06,30.345z"/>
		<path fill-rule="evenodd" clip-rule="evenodd" fill="#D10511" d="M39.403,22.261c-2.938,0.025-5.875,0.051-8.813,0.076
			c-0.348,0.004-0.708,0.171-1.038-0.076c-0.261-0.223-0.273-0.542-0.328-0.848c0.002-0.159,0.035-0.307,0.198-0.384
			c0.653,0.355,1.324,0.256,2.04,0.208c1.569-0.104,3.148-0.053,4.722-0.027c1.013,0.017,2.018-0.074,3.026-0.114
			c0.096,0.033,0.181,0.084,0.257,0.151c0.091,0.125,0.07,0.282,0.124,0.419C39.627,21.896,39.539,22.087,39.403,22.261z"/>
		<path fill-rule="evenodd" clip-rule="evenodd" fill="#F8071B" d="M33.638,28.766c-0.11-0.659-0.14-0.905-1.07-0.598
			c-0.917,0.306-2.093,0-3.158,0.065c-0.426,0.025-0.132-0.529-0.434-0.643c-0.336-0.408-0.232-0.747,0.165-1.038
			c1.787,0.186,3.575,0.391,5.344-0.145c0.628-0.317,0.648,0.374,0.961,0.579C34.947,27.686,34.242,28.174,33.638,28.766z"/>
		<path fill-rule="evenodd" clip-rule="evenodd" fill="#E20514" d="M37.813,24.622c-0.866,0.421-1.733,0.006-2.6,0.008
			c-1.956,0.003-3.91,0-5.866,0c-0.272-0.331-0.275-0.659,0.005-0.987c2.366,0.315,4.745,0.181,7.118,0.185
			c0.622,0,1.157,0.055,1.542,0.594C37.945,24.488,37.879,24.557,37.813,24.622z"/>
		<path fill-rule="evenodd" clip-rule="evenodd" fill="#FB173F" d="M27.137,33.294c0.304,0.013,0.58,0.388,0.897,0.114
			c0.452-0.393,0.412,0.33,0.699,0.286c-0.33,0.329-0.657,0.659-0.986,0.989c-0.477,0.222-0.95,0.688-1.438,0.019
			c-0.089-0.243,0-0.452,0.121-0.655C26.654,33.787,26.693,33.348,27.137,33.294z"/>
		<path fill-rule="evenodd" clip-rule="evenodd" fill="#FA1A49" d="M26.38,34.689c0.459,0.512,0.911-0.236,1.367-0.006
			c-0.007,0.051-0.011,0.102-0.008,0.15l-0.004,0.008c-0.259,0.21-0.518,0.423-0.777,0.632c-0.32-0.063-0.641-0.124-0.961-0.188
			C25.911,34.95,25.971,34.707,26.38,34.689z"/>
		<path fill-rule="evenodd" clip-rule="evenodd" fill="#FC0923" d="M31.517,8.895c1.002,0.828,1.884,1.775,2.758,2.733
			c-0.283,0.383-0.509,0.79-0.488,1.289c-0.052,0.085-0.126,0.132-0.224,0.145c-1.14-0.309-2.144-0.985-3.311-1.22
			c-0.456-0.158-0.96-0.207-1.314-0.586c-0.024-0.063-0.052-0.156-0.013-0.185c0.859-0.65,0.632-1.555,0.554-2.412
			c-0.035-0.377-0.073-0.775,0.283-0.957c0.362-0.187,0.531,0.274,0.806,0.416C30.937,8.309,31.041,8.83,31.517,8.895z"/>
		<path fill-rule="evenodd" clip-rule="evenodd" fill="#FB081E" d="M31.517,8.895c-0.815,0.04-1.057-0.813-1.738-1.049
			c-0.364,1.063,0.666,2.53-0.818,3.343c-0.293,0.236-0.508,0.038-0.73-0.128c-0.762-0.403-0.976-1.063-0.946-1.884
			c0.036-0.98-0.013-1.962,0.019-2.942c0.014-0.409-0.05-0.878,0.464-1.085C29.097,6.318,30.334,7.579,31.517,8.895z"/>
		<path fill-rule="evenodd" clip-rule="evenodd" fill="#F4071A" d="M27.767,5.149c-0.41,1.666-0.121,3.355-0.15,5.034
			c-0.005,0.291,0.271,0.421,0.563,0.43c0.329,0.009,0.25,0.207,0.188,0.397c-0.91,0.274-1.776,0.207-2.579-0.335
			c0.25-1.909,0.023-3.838,0.222-5.75c0.042-0.397-0.07-0.906,0.569-0.957C26.976,4.363,27.371,4.755,27.767,5.149z"/>
		<path fill-rule="evenodd" clip-rule="evenodd" fill="#E10514" d="M23.235,2.329c-0.218-0.483-0.174-0.927,0.195-1.323
			c0.654,0.313,1.08,0.884,1.566,1.385c-0.1,2.438-0.09,4.878-0.111,7.318c-0.003,0.294-0.046,0.588-0.288,0.806
			c-0.968,0.17-1.135,0.051-1.105-0.866c0.062-1.798,0.005-3.597,0.037-5.396C23.541,3.59,23.461,2.949,23.235,2.329z"/>
		<path fill-rule="evenodd" clip-rule="evenodd" fill="#E70516" d="M24.619,10.417c0.016-2.363,0.014-4.728,0.073-7.092
			c0.007-0.291-0.11-0.731,0.305-0.935c0.269,0.115,0.448,0.321,0.593,0.566c0.166,1.232,0.084,2.474,0.089,3.709
			c0.005,1.276,0.06,2.55-0.015,3.826c-0.029,0.205-0.184,0.238-0.351,0.254C25.042,10.724,24.793,10.648,24.619,10.417z"/>
		<path fill-rule="evenodd" clip-rule="evenodd" fill="#ED0518" d="M25.605,10.608c-0.301-0.477-0.174-1.009-0.197-1.522
			c-0.076-1.681,0.122-3.369-0.104-5.051c-0.044-0.341,0.183-0.719,0.287-1.078c0.478,0.19,0.666,0.668,0.99,1.013
			c-0.551,0.722-0.283,1.584-0.358,2.375c-0.102,1.069-0.041,2.154-0.019,3.232c0.009,0.417-0.052,0.771-0.401,1.033
			C25.735,10.661,25.67,10.663,25.605,10.608z"/>
		<path fill-rule="evenodd" clip-rule="evenodd" fill="#FC1643" d="M33.689,12.931c-0.215-0.619-0.195-1.133,0.585-1.303
			c0.44,0.23,0.666,0.669,0.99,1.013c-0.205,0.296,0.295,0.74-0.202,0.977C34.422,13.755,33.969,13.517,33.689,12.931z"/>
		<path fill-rule="evenodd" clip-rule="evenodd" fill="#B8050B" d="M20.285,28.641c0.393-0.144,0.786-0.285,1.179-0.429
			c1.082,0.408,0.876,1.421,0.802,2.158c-0.177,1.731-0.123,3.459-0.127,5.185c-0.004,1.109,0.005,2.216-0.034,3.323
			c-0.479,0.343-0.997,0.571-1.597,0.571c-0.125-0.106-0.446,0.178-0.43-0.216c0.556-0.21,0.511-0.684,0.504-1.148
			c-0.048-3.036,0.091-6.076-0.107-9.112C20.696,28.698,20.282,28.789,20.285,28.641z"/>
		<path fill-rule="evenodd" clip-rule="evenodd" fill="#BD040C" d="M20.474,28.973c0.409,0.281,0.397,0.7,0.397,1.136
			c0.003,2.852-0.01,5.7,0.047,8.552c0.017,0.786-0.482,0.505-0.841,0.573c0.297-0.482,0.184-1.02,0.195-1.537
			c0.013-0.557-0.052-1.121,0.012-1.673c0.246-2.093-0.379-4.122-0.438-6.194C19.829,29.235,20.072,29.117,20.474,28.973z"/>
		<path fill-rule="evenodd" clip-rule="evenodd" fill="#BA050C" d="M11.562,20.969c0.124,0.368,0.247,0.737,0.369,1.105
			c-0.215,0.755-0.687,0.408-1.115,0.262c-0.084-0.099-0.164-0.255-0.294-0.236c-2.225,0.311-4.443-0.681-6.672-0.021
			c-0.89,0.263-1.786-0.327-2.698-0.029c-0.129,0.044-0.227-0.296-0.417-0.372c-0.303-0.399-0.397-0.862-0.413-1.349
			c0.008-0.276,0.016-0.55,0.024-0.826c0.411,0.556,1.005,0.499,1.598,0.499c3.047-0.003,6.093,0.011,9.142-0.034
			C11.551,20.154,11.44,20.617,11.562,20.969z"/>
		<path fill-rule="evenodd" clip-rule="evenodd" fill="#C6040E" d="M11.144,20.09c-1.846,0.379-3.713,0.144-5.57,0.191
			c-1.341,0.034-2.685,0.007-4.026,0.007c-0.573,0-1.134-0.019-1.204-0.786c0-0.327,0-0.651,0-0.982
			c0.281-0.027,0.335,0.278,0.602,0.281c3.069,0.027,6.138,0.049,9.205,0.153c0.457,0.014,0.416-0.294,0.616-0.436
			c0.085,0.257,0.17,0.517,0.256,0.776C11.234,19.535,11.369,19.786,11.144,20.09z"/>
		<path fill-rule="evenodd" clip-rule="evenodd" fill="#880204" d="M11.585,15.738c-0.316,0.212-0.634,0.425-0.95,0.637
			c-0.144-0.131-0.161-0.278-0.05-0.438c-0.001-0.265-0.002-0.53-0.004-0.795c-0.217-0.74-0.073-1.482-0.022-2.225
			c0.007-0.104,0.028-0.207,0.053-0.309c0.173-0.583,0.238-1.189,0.407-1.773c0.396-1.29,0.576-2.664,1.447-3.773
			c0.097-0.054,0.194-0.058,0.293-0.011c0.336,0.334,0.204,0.729,0.125,1.105c-0.354,1.708-0.284,3.427-0.142,5.147
			c0.045,0.543-0.111,1.062-0.181,1.592l0.03,0.089c-0.161,0.486-0.642,0.546-1.011,0.757L11.585,15.738z"/>
		<path fill-rule="evenodd" clip-rule="evenodd" fill="#DD0512" d="M10.585,15.938c0.017,0.147,0.034,0.292,0.05,0.438
			c-0.015,0.185-0.028,0.372-0.042,0.557c-2.451-0.258-4.91-0.2-7.367-0.19c-0.599,0.002-0.974-0.472-1.503-0.599
			c0.42-0.633,0.994-0.45,1.629-0.424c2.027,0.082,4.059,0.031,6.09,0.029C9.834,15.748,10.23,15.715,10.585,15.938z"/>
		<path fill-rule="evenodd" clip-rule="evenodd" fill="#ED0518" d="M10.805,12.788c-0.075,0.786-0.149,1.57-0.224,2.355
			c-0.178-0.59-0.513-0.809-1.184-0.8c-1.888,0.027-3.777,0.08-5.666-0.025c-0.356-0.02-0.265-0.287-0.443-0.354
			c0.01-0.056,0.017-0.114,0.021-0.17c0.191-0.14,0.384-0.278,0.574-0.417c1.617-0.63,3.278-0.245,4.913-0.152
			C9.546,13.265,10.22,13.343,10.805,12.788z"/>
		<path fill-rule="evenodd" clip-rule="evenodd" fill="#DB0512" d="M23.61,10.75c-0.291-0.23-0.644-0.094-0.962-0.164
			c-0.082-0.212,0.668-0.001,0.204-0.394c-0.159-0.134-0.131-0.254-0.091-0.421c0.506-2.125,0.186-4.285,0.281-6.428
			C23.058,3,22.915,2.617,23.235,2.329c0.475,0.156,0.612,0.483,0.602,0.975c-0.043,2.212-0.034,4.426-0.085,6.641
			c-0.018,0.82,0.571,0.335,0.867,0.474c0.215,0.009,0.443-0.031,0.593,0.183C24.715,11.033,24.163,10.909,23.61,10.75z"/>
		<path fill-rule="evenodd" clip-rule="evenodd" fill="#DD0512" d="M16.378,29.154c0.244,0.02,0.488,0.038,0.734,0.058
			c-0.35,0.419-0.334,0.983-0.339,1.434c-0.02,1.971,0.105,3.942,0.136,5.913c0.01,0.607,0.024,1.336-0.976,1.098
			c-0.315-2.312-0.304-4.622-0.011-6.937c0.159-1.257,0.067-1.343-1.174-1.352c-0.269,0.131-0.44,0.116-0.374-0.252
			c0.241-0.204,0.534-0.205,0.824-0.215C15.618,28.863,16.009,28.958,16.378,29.154z"/>
		<path fill-rule="evenodd" clip-rule="evenodd" fill="#EC0518" d="M14.352,29.181c0.091,0.151,0.238,0.184,0.396,0.188
			c-0.265,1.888-0.182,3.786-0.201,5.683c-0.003,0.438-0.385,0.859,0.192,1.299c0.331,0.254-0.058,0.479-0.388,0.518
			c-0.389-0.269-0.719-0.596-0.985-0.987c-0.257-0.479-0.177-0.991-0.141-1.501c0.452-1.22-0.074-2.454,0.049-3.683
			c0.059-0.59,0.032-1.183,0.603-1.566C14.047,29.051,14.208,29.051,14.352,29.181z"/>
		<path fill-rule="evenodd" clip-rule="evenodd" fill="#C4040F" d="M21.063,10.79c-0.722,0.2-1.445,0.399-2.166,0.599
			c-0.097-0.456,0.334-0.811,0.245-1.269c0.118-2.416,0.022-4.827,0.052-7.239c0.006-0.425,0.018-0.85,0.006-1.272
			c-0.021-0.755,0.231-1.25,1.075-1.252c0.396,0.063,0.838-0.164,1.184,0.196c-0.34,0.013-0.636-0.111-0.627,0.523
			c0.045,3.076,0.005,6.156-0.031,9.232C20.798,10.566,20.976,10.63,21.063,10.79z"/>
		<path fill-rule="evenodd" clip-rule="evenodd" fill="#FD0923" d="M12.545,7.042c-0.446,1.259-0.89,2.521-1.335,3.782
			c-0.913-0.459-0.084-1.036-0.158-1.504c-0.171,0.512-0.251,1.212-1.115,1.151c-0.618-0.044-1.245,0.234-1.85-0.007
			c-0.872-0.349-0.164-0.817-0.069-1.236c0.535-0.579,1.073-1.16,1.609-1.739c0.39-0.339,0.781-0.677,1.172-1.017
			C11.438,6.486,12.106,6.412,12.545,7.042z"/>
		<path fill-rule="evenodd" clip-rule="evenodd" fill="#FB071D" d="M8.019,9.227c0.053,0.074,0.166,0.174,0.149,0.221
			c-0.344,0.873-0.296,0.927,0.722,0.793c0.096-0.013,0.198-0.027,0.293-0.016c0.962,0.124,1.773,0.013,1.849-1.311
			c0.295,0.701-0.392,1.351,0.179,1.909c-0.045,0.612-0.163,1.209-0.389,1.781c-0.315-0.08-0.525-0.3-0.96-0.211
			c-1.391,0.283-2.766-0.17-4.148-0.314c-0.13-0.013-0.199-0.156-0.248-0.281C6.316,10.94,7.167,10.083,8.019,9.227z"/>
		<path fill-rule="evenodd" clip-rule="evenodd" fill="#F5061A" d="M5.464,11.798c1.521,0.146,3.045,0.657,4.552,0.334
			c0.66-0.142,0.546,0.321,0.805,0.472c0.003,0.062-0.003,0.123-0.017,0.183c-0.136,0.884-0.758,0.896-1.43,0.786
			c-1.699-0.283-3.402-0.261-5.108-0.123c-0.125,0.009-0.255-0.049-0.384-0.075C4.347,12.784,4.875,12.261,5.464,11.798z"/>
		<path fill-rule="evenodd" clip-rule="evenodd" fill="#FB071E" d="M11.194,33.715c-0.66-0.653-1.321-1.305-1.982-1.958
			c0.187-0.186,0.214-0.483,0.089-0.862c-0.249-0.752-0.061-1.494,0.202-2.173c0.201-0.521,0.838-0.132,1.236-0.334
			c0.669-0.011,1.312,0.071,1.848,0.523c0.008,0.032,0.026,0.063,0.024,0.094c-0.032,0.465-0.447,0.19-0.646,0.334
			c0.312,0.271,0.223,0.649,0.28,0.995c0.174,1.072-0.234,2.1-0.228,3.166C12.021,34.203,11.534,33.871,11.194,33.715z"/>
		<path fill-rule="evenodd" clip-rule="evenodd" fill="#FC0924" d="M10.605,28.569c-0.94,0.258-0.983,0.251-1.112,0.949
			c-0.116,0.626-0.248,1.298,0.375,1.79c0.195,0.152,0.363,0.362,0.143,0.573c-0.256,0.243-0.245-0.162-0.39-0.226
			c-0.183-0.081-0.305-0.072-0.408,0.101c-0.918-0.924-1.837-1.85-2.755-2.775c-0.498-0.688-0.268-1.368,0.026-2.049
			c0.244-0.11,0.457-0.008,0.671,0.095c0.542,0.27,1.108,0.48,1.7,0.62C9.409,28.009,10.206,27.912,10.605,28.569z"/>
		<path fill-rule="evenodd" clip-rule="evenodd" fill="#F7071A" d="M11.194,33.715c0.448,0.005,1.016,0.105,0.462-0.632
			c-0.07-0.091-0.149-0.283-0.109-0.336c0.843-1.041,0.389-2.192,0.304-3.313c-0.016-0.192-0.019-0.192,0.725-0.423
			c0.269-0.321,0.59-0.285,0.926-0.142c0.09,0.062,0.143,0.15,0.156,0.258c-0.615,0.633-0.667,1.415-0.626,2.241
			c0.031,0.617,0.062,1.243-0.015,1.854c-0.063,0.499,0.047,0.902,0.35,1.276c0,0.459-0.001,0.92-0.001,1.381
			c-0.188-0.135-0.375-0.271-0.563-0.405c-0.462-0.591-0.984-1.121-1.581-1.577C11.215,33.836,11.205,33.776,11.194,33.715z"/>
		<path fill-rule="evenodd" clip-rule="evenodd" fill="#FB0F37" d="M6.461,27.016c0.278,0.657-0.251,1.311-0.004,1.966
			c-0.5-0.287-0.907-0.67-1.188-1.178c0.097-0.543-0.159-1.046-0.193-1.571c0.066-0.067,0.148-0.097,0.242-0.091
			C5.779,26.326,6.238,26.519,6.461,27.016z"/>
		<path fill-rule="evenodd" clip-rule="evenodd" fill="#FA1442" d="M13.166,4.104c0.192,0.252,0.318,0.631,0.766,0.403
			c0.024,0.036,0.049,0.073,0.073,0.109c-0.039,0.612-0.559,0.971-0.778,1.488c-0.072,0.053-0.153,0.089-0.24,0.107
			c-0.517-0.063-1.056-0.071-1.418-0.537C12.101,5.151,12.633,4.626,13.166,4.104z"/>
		<path fill-rule="evenodd" clip-rule="evenodd" fill="#FA0E30" d="M11.568,5.673c0.472,0.136,0.943,0.272,1.415,0.408
			c0.242,0.476-0.021,0.759-0.382,1.005l-0.055-0.045c-0.606-0.116-1.203-0.263-1.745-0.57C11.056,6.205,11.312,5.94,11.568,5.673z"
			/>
		<path fill-rule="evenodd" clip-rule="evenodd" fill="#B7040A" d="M19.091,10.421c0.513,0.438-0.189,0.633-0.194,0.967
			c-0.594,0.263-1.188,0.528-1.782,0.792c-0.472-0.43,0.103-0.824,0.041-1.241c0.357-0.249,0.466-0.597,0.468-1.02
			c0.02-2.129,0.008-4.26,0.005-6.388c0-0.265,0.024-0.57-0.149-0.761c-0.606-0.668-0.202-1.178,0.211-1.7
			c0.194-0.127,0.388-0.252,0.582-0.379c0.523,0.054,0.886,0.309,0.886,0.864C19.162,4.51,19.299,7.466,19.091,10.421z"/>
		<path fill-rule="evenodd" clip-rule="evenodd" fill="#AF0309" d="M17.692,1.069c-0.07,0.522-0.561,1.07,0.124,1.559
			c0.108,0.078,0.087,0.37,0.087,0.563c0.006,2.234-0.018,4.468,0.018,6.701c0.009,0.657-0.121,1.13-0.802,1.317
			c-0.37,0.185-0.458-0.067-0.519-0.343c-0.12-0.544-0.163-1.098-0.158-1.655c0.016-1.962-0.022-3.922-0.044-5.882
			c-0.004-0.445-0.204-0.82-0.316-1.227C16.518,1.601,16.997,1.165,17.692,1.069z"/>
		<path fill-rule="evenodd" clip-rule="evenodd" fill="#A00307" d="M16.552,12.461c-0.406,0.223-0.813,0.446-1.22,0.669
			c-0.29-0.056-0.577-0.12-0.873-0.15c-0.189-0.02-0.437-0.025-0.47-0.263c-0.034-0.25,0.213-0.269,0.389-0.349
			c0.373-0.17-0.125-0.283-0.043-0.533C14.636,10.92,14.47,9.947,14.483,9c0.014-1.018-0.006-2.036-0.008-3.054
			c0-0.554-0.132-1.025-0.459-1.456l-0.083,0.016c0.401-0.532,0.802-1.062,1.204-1.591c0.167-0.087,0.313-0.196,0.362-0.392
			c0.139-0.083,0.277-0.166,0.417-0.247c0.196,0.171,0.215,0.399,0.192,0.632c-0.222,2.29,0.011,4.584-0.085,6.875
			C15.983,10.726,16.033,11.635,16.552,12.461z"/>
		<path fill-rule="evenodd" clip-rule="evenodd" fill="#A90308" d="M16.552,12.461c-0.845-0.132-0.821-0.733-0.828-1.397
			c-0.023-2.354,0.096-4.706-0.057-7.058c-0.037-0.568,0.16-1.152,0.25-1.729c0.055-0.058,0.11-0.116,0.166-0.172
			c0.519,0.236,0.644,0.65,0.646,1.2c0.005,2.477-0.086,4.955,0.091,7.43c0.013,0.19-0.097,0.506,0.299,0.475
			c0.405,0.063,0.452,0.263,0.141,0.496c-0.193,0.145-0.268,0.263-0.144,0.476C16.927,12.272,16.739,12.367,16.552,12.461z"/>
		<path fill-rule="evenodd" clip-rule="evenodd" fill="#BD040D" d="M19.091,10.421c-0.321-0.289-0.189-0.673-0.191-1.016
			c-0.011-2.483-0.029-4.964,0.011-7.446c0.01-0.586-0.133-0.991-0.637-1.269c0.57-0.281,1.148-0.518,1.805-0.339
			c0.066,0.001,0.132,0.003,0.196,0.005c-0.726,0.2-0.798,0.751-0.794,1.386c0.014,2.576,0.013,5.151-0.003,7.726
			C19.474,9.813,19.689,10.296,19.091,10.421z"/>
		<path fill-rule="evenodd" clip-rule="evenodd" fill="#B10409" d="M22.105,38.878c-0.792-0.706-0.161-1.583-0.191-2.345
			c-0.082-2.019-0.23-4.055,0.117-6.08c0.133-0.785,0.008-1.592-0.567-2.241c0.587-0.285,1.174-0.568,1.761-0.853
			c0.065,0.074,0.099,0.159,0.104,0.256c-0.155,0.749-0.339,1.45,0.025,2.25c0.325,0.713-0.071,1.541-0.103,2.323
			c-0.028,0.684-0.072,1.354,0.006,2.043c0.08,0.708,0.096,1.425-0.235,2.114c-0.304,0.632,0.221,1.276,0.063,1.928
			C22.832,38.595,22.48,38.756,22.105,38.878z"/>
		<path fill-rule="evenodd" clip-rule="evenodd" fill="#AB0308" d="M23.086,38.273c-0.321-0.791-0.774-1.564-0.111-2.417
			c0.117-0.151,0.072-0.448,0.059-0.674c-0.087-1.62-0.167-3.239,0.182-4.846c0.044-0.201-0.019-0.482-0.138-0.653
			c-0.527-0.755-0.313-1.428,0.159-2.093c0.77-0.206,0.818,0.38,0.836,0.845c0.063,1.738,0.125,3.482-0.018,5.216
			c-0.103,1.23-0.285,2.438,0.2,3.626c-0.143,0.192-0.285,0.385-0.428,0.575C23.58,37.992,23.333,38.132,23.086,38.273z"/>
		<path fill-rule="evenodd" clip-rule="evenodd" fill="#9B0207" d="M5.258,26.241l-0.09-0.011c0,0-0.093,0-0.093,0.002
			c-0.521-0.347-1.043-0.693-1.563-1.04c-0.141-0.171-0.281-0.344-0.422-0.514c-0.268-0.287-0.301-0.516,0.162-0.598
			c0.281-0.053,0.491,0.137,0.734,0.226c0.582,0.212,1.164,0.544,1.814,0.15c0.192-0.116,0.455-0.104,0.681-0.067
			c1.571,0.249,3.141,0.253,4.708-0.009c0.534-0.087,1.02,0.376,1.589,0.069c0.23-0.124,0.166,0.548,0.566,0.379
			c0.25,0.396,0.499,0.789,0.749,1.184c-0.154,0.243-0.416,0.281-0.662,0.366c-0.623,0.213-1.167-0.402-1.896-0.007
			c-0.644,0.35-1.536,0.076-2.317,0.104c-0.749,0.027-1.489,0.153-2.245,0.103C6.38,26.539,5.845,26.271,5.258,26.241z"/>
		<path fill-rule="evenodd" clip-rule="evenodd" fill="#BF040D" d="M28.789,20.21c-0.018-0.104-0.037-0.209-0.056-0.311
			c-0.121-0.142-0.137-0.309-0.121-0.484c0.114-0.604,0.049-1.005,1.098-0.987c2.68,0.047,5.369,0.053,8.054-0.013
			c0.618-0.017,1.131,0.239,1.667,0.463c0.223,0.223,0.194,0.51,0.199,0.789c-0.008,0.204-0.014,0.409-0.021,0.614
			c-0.083,0.287-0.238-0.59-0.317,0.021c-0.027,0.212-0.225,0.21-0.386,0.144c-1.134-0.474-2.324-0.222-3.488-0.252
			c-1.567-0.042-3.136-0.001-4.704-0.014c-0.566-0.004-1.104,0.065-1.604,0.348C28.865,20.561,28.841,20.372,28.789,20.21z"/>
		<path fill-rule="evenodd" clip-rule="evenodd" fill="#B7040B" d="M39.431,18.878c-0.038,0.08-0.076,0.163-0.114,0.245
			c-0.72-0.642-1.599-0.396-2.419-0.404c-2.261-0.026-4.523,0.027-6.78-0.053c-0.309-0.011-0.817,0.695-1.044-0.192
			c-0.254,0.33,0.063,0.816-0.345,1.036c-0.57-0.154-0.396-0.682-0.532-1.054c-0.007-0.113-0.015-0.227-0.021-0.339
			c0.035-0.171,0.182-0.399,0.278-0.356c0.498,0.227,0.39-0.729,0.961-0.432c0.429,0.225,0.964,0.124,1.453,0.122
			c2.063-0.007,4.124-0.005,6.186-0.003c0.939,0,1.896,0.091,2.204,1.256C39.314,18.76,39.373,18.818,39.431,18.878z"/>
		<path fill-rule="evenodd" clip-rule="evenodd" fill="#B1030A" d="M39.256,18.702c-0.513-0.973-1.416-0.96-2.348-0.991
			c-2.576-0.083-5.159,0.216-7.738-0.125c-0.217-0.027-0.672,0.321-0.996,0.53l-0.003-0.006c-0.18-0.292,0.037-0.639-0.123-0.935
			c-0.009-0.599,0.397-0.553,0.812-0.542c1.993,0.063,3.989-0.022,5.978,0.067c0.839,0.037,1.634-0.492,2.498-0.098
			c0.236,0.109,0.228-0.443,0.522-0.494c0.123,0.085,0.244,0.172,0.367,0.259C38.616,17.125,39.298,17.753,39.256,18.702z"/>
		<path fill-rule="evenodd" clip-rule="evenodd" fill="#B10309" d="M0.733,21.677c1.74-0.013,3.489,0.339,5.226-0.163
			c0.437-0.127,0.906-0.008,1.397,0.194c0.909,0.375,1.945,0.259,2.889,0.076c0.742-0.144,0.783,0.138,0.755,0.675
			c0.143,0.209,0.202,0.543-0.068,0.533c-0.406-0.013-0.181-0.406-0.232-0.696c0.131,0.677-0.312,0.644-0.718,0.651
			c-1.172,0.02-2.33,0.188-3.52,0.03c-1.292-0.172-2.613-0.072-3.893,0.264c-0.279,0.182-0.57,0.047-0.856,0.023
			c-0.119-0.087-0.239-0.172-0.357-0.26C1.218,22.528,0.782,22.194,0.733,21.677z"/>
		<path fill-rule="evenodd" clip-rule="evenodd" fill="#A20307" d="M27.125,15.969c-0.16-0.274-0.318-0.548-0.477-0.822
			c0.131-0.252,0.19-0.534,0.305-0.797c0.082-0.047,0.168-0.062,0.262-0.047c0.18,0.069,0.33,0.186,0.487,0.292
			c0.083,0.054,0.167,0.107,0.254,0.154c1.898,0.247,3.801,0.127,5.701,0.071c0.233-0.005,0.45-0.094,0.62-0.267
			c0.313-0.239,0.571-0.577,1.012-0.604c0.112,0.014,0.225,0.027,0.336,0.042c0.542,0.494,1.087,0.987,1.63,1.481
			c0.071,0.082,0.141,0.162,0.211,0.243c-0.085,0.524-0.543,0.586-0.883,0.517c-1.947-0.399-3.91-0.083-5.86-0.196
			C29.525,15.965,28.32,16.2,27.125,15.969z"/>
		<path fill-rule="evenodd" clip-rule="evenodd" fill="#980206" d="M26.38,34.689c-0.127,0.199-0.256,0.399-0.384,0.597
			c-0.298,0.359-0.648,0.677-0.81,1.131c-0.063,0.02-0.125,0.034-0.188,0.045c-0.308,0.025-0.289-0.192-0.295-0.394
			c0.379-0.84,0.818-1.668,0.469-2.641c-0.043-0.12-0.042-0.271-0.004-0.39c0.535-1.716,0.097-3.514,0.442-5.24
			c-0.012-0.163,0.234-0.303,0.034-0.479c-0.867-0.013-0.599-0.57-0.508-1.044c0.043-0.14,0.181-0.18,0.28-0.258l-0.001,0.002
			c0.084-0.072,0.182-0.095,0.29-0.072c1.014,0.18,1.312,0.417,1.095,1.212c-0.57,2.112-0.289,4.236-0.228,6.359
			c0.021,0.194,0.011,0.389,0.013,0.583C26.516,34.295,26.448,34.493,26.38,34.689z"/>
		<path fill-rule="evenodd" clip-rule="evenodd" fill="#A40307" d="M1.712,23.265c0.193-0.328,0.4-0.078,0.604-0.017
			c1.381-0.148,2.757,0.189,4.151-0.03c1.492-0.234,2.983,0.21,4.486,0.187c0.528-0.007,1.017,0.059,1.421-0.351
			c0.328,0.526,0.657,1.053,0.985,1.579c-0.006,0.065-0.011,0.131-0.016,0.196c-0.244,0.098-0.023,0.366-0.185,0.508
			c-0.336-0.142-0.042-0.599-0.312-0.691c-0.348-0.241-0.491,1.182-0.891,0.035c-0.026-0.073-0.372-0.073-0.559-0.044
			c-1.727,0.258-3.45,0.25-5.176-0.004c-0.323-0.045-0.667-0.063-0.661,0.429c-0.441-0.563-1.25,0.087-1.717-0.535
			c-0.177-0.238-0.691-0.81-0.754,0.152L2.997,24.66c0,0-0.095,0-0.095,0.002C2.43,24.259,2.038,23.791,1.712,23.265z"/>
		<path fill-rule="evenodd" clip-rule="evenodd" fill="#AA0307" d="M27.125,15.969c0.849-0.32,1.734-0.209,2.61-0.22
			c2.019-0.024,4.039-0.096,6.055-0.029c0.562,0.018,1.111,0.436,1.676-0.005c0.131,0.131,0.262,0.261,0.392,0.394
			c-0.072,0.18-0.159,0.35-0.065,0.561c0.069,0.154,0.053,0.334-0.089,0.448c-0.248,0.202-0.331-0.098-0.463-0.19
			c-0.332-0.234-0.6-0.421-1.013-0.065c-0.175,0.151-0.565,0.076-0.856,0.067c-2.31-0.071-4.624,0.152-6.931-0.122
			c-0.292-0.035-0.105,0.381-0.271,0.521c0.038,0.216-0.049,0.287-0.254,0.222C27.653,17.021,27.388,16.495,27.125,15.969z"/>
		<path fill-rule="evenodd" clip-rule="evenodd" fill="#980207" d="M35.289,13.949c-0.249,0.23-0.417,0.566-0.803,0.615
			c-0.079,0.102-0.152,0.243-0.305,0.19c-1.938-0.648-3.915-0.221-5.874-0.218c-0.251,0-0.438,0.299-0.729,0.225l0,0
			c-0.135-0.129-0.124-0.405-0.396-0.394c-0.066,0-0.132,0-0.198,0c-0.211,0.1-0.353,0.412-0.663,0.225
			c-0.044-0.065-0.091-0.132-0.136-0.2c-0.135-0.842,0.441-0.971,1.058-1.027c1.566-0.14,3.143-0.006,4.708-0.14
			c0.32-0.067,0.65-0.06,0.947,0.057c0.373,0.147,0.564-0.096,0.796-0.278c0,0-0.006-0.073-0.006-0.074
			c0.458,0.229,0.916,0.457,1.374,0.686C35.138,13.728,35.213,13.838,35.289,13.949z"/>
		<path fill-rule="evenodd" clip-rule="evenodd" fill="#A40308" d="M24.814,36.077c0.004,0.156,0.031,0.3,0.184,0.385
			c-0.129,0.202-0.256,0.401-0.384,0.602c-0.121,0.07-0.24,0.143-0.361,0.214c-1.128-0.907-0.604-2.093-0.51-3.188
			c0.169-1.987,0.048-3.973,0.068-5.96c0.002-0.347-0.238-0.513-0.576-0.539c-0.003-0.077-0.008-0.153-0.012-0.231
			c0.208-0.247,0.515-0.283,0.798-0.37c0.651,0.028,0.911,0.373,0.895,1.016c-0.045,1.86-0.077,3.721,0.19,5.568
			C25.232,34.437,24.718,35.221,24.814,36.077z"/>
		<path fill-rule="evenodd" clip-rule="evenodd" fill="#870406" d="M29.353,23.643c-0.001,0.33-0.003,0.658-0.005,0.987
			c-0.132,0.519-0.233,1.041-0.168,1.58c0.095,0.138,0.102,0.269-0.02,0.395c-0.213,0.301-0.225,0.639-0.183,0.986
			c-0.06,0.27-0.12,0.536-0.179,0.803c0.126,0.339,0.063,0.619-0.252,0.822c-0.803-0.661-0.784-1.537-0.519-2.399
			c0.26-0.848,0.318-1.664,0.063-2.508c0.231-0.476,0.523-0.873,1.128-0.855C29.261,23.517,29.307,23.58,29.353,23.643z"/>
		<path fill-rule="evenodd" clip-rule="evenodd" fill="#CC0410" d="M29.335,23.054L29.296,23l0.034-0.057
			c-0.095-0.44-0.125-0.889-0.083-1.339c0.035-0.044,0.071-0.089,0.107-0.133c0.288,0.207,0.168,0.518,0.198,0.789
			C29.522,22.537,29.646,22.854,29.335,23.054z"/>
		<path fill-rule="evenodd" clip-rule="evenodd" fill="#F2061A" d="M29.159,26.604c0.006-0.131,0.015-0.262,0.02-0.395
			c1.465,0,2.929-0.007,4.393,0.004c0.311,0.002,0.66-0.109,0.914,0.194c-0.2,0.374-0.483,0.597-0.937,0.594
			c-1.182-0.013-2.365-0.022-3.546,0.007C29.624,27.018,29.392,26.84,29.159,26.604z"/>
		<path fill-rule="evenodd" clip-rule="evenodd" fill="#8D0205" d="M27.805,24.442c0.123-0.053,0.25-0.106,0.373-0.159
			c0.551,0.615,0.507,1.33,0.237,2.016c-0.393,0.993-0.309,1.932,0.134,2.869c0.171,0.196,0.167,0.391-0.002,0.585
			c0,0-0.003-0.006-0.003-0.008c-0.557,0.953-0.588,2.135-1.323,3.01c-0.039-0.025-0.076-0.051-0.115-0.075
			c-0.354-0.538,0.075-1.181-0.239-1.728c-0.042-0.089-0.072-0.183-0.094-0.281c-0.177-1.867,0.101-3.717,0.236-5.571
			C27.127,24.704,27.529,24.649,27.805,24.442z"/>
		<path fill-rule="evenodd" clip-rule="evenodd" fill="#8D0205" d="M26.584,34.102c-0.156-0.088-0.186-0.232-0.19-0.393
			c0.185-0.376,0.012-0.768,0.053-1.15c0.024-0.22-0.083-0.518,0.179-0.592c0.377-0.107,0.346,0.279,0.439,0.49
			c0.039,0.087,0.061,0.182,0.116,0.261c0,0,0.038,0.037,0.039,0.037c-0.027,0.18-0.056,0.359-0.083,0.539
			C26.953,33.563,26.768,33.831,26.584,34.102z"/>
		<path fill-rule="evenodd" clip-rule="evenodd" fill="#FC0924" d="M28.546,29.753c0.001-0.194,0.002-0.391,0.002-0.585
			c0.083-0.257,0.166-0.517,0.248-0.774C29.054,28.911,28.996,29.368,28.546,29.753z"/>
		<path fill-rule="evenodd" clip-rule="evenodd" fill="#C6040F" d="M28.979,20.484c0.2-0.401,0.456-0.613,0.974-0.606
			c2.69,0.032,5.383,0.018,8.075,0.011c0.427,0,0.832,0.011,1.117,0.539c0.063-0.343,0.1-0.544,0.144-0.782
			c0.209,0.205,0.065,0.515,0.319,0.635c-0.338,0.279,0.154,0.715-0.189,0.994l0,0c-0.291-0.239-0.621-0.303-0.997-0.295
			c-2.637,0.049-5.279-0.172-7.91,0.154c-0.395,0.049-0.767-0.15-1.156-0.054c0,0.13-0.001,0.261-0.001,0.392h-0.001
			c-0.094,0.07-0.186,0.069-0.278-0.004C28.843,21.161,28.757,20.836,28.979,20.484z"/>
		<path fill-rule="evenodd" clip-rule="evenodd" fill="#CC0410" d="M29.356,21.08c0.743-0.378,1.573-0.345,2.353-0.373
			c2.134-0.073,4.274-0.033,6.411-0.018c0.503,0.003,1.08-0.082,1.299,0.586c-2.661,0.399-5.34,0.065-8.002,0.226
			C30.651,21.546,29.923,21.829,29.356,21.08z"/>
		<path fill-rule="evenodd" clip-rule="evenodd" fill="#8D0205" d="M33.695,13.005c-0.08,0.49-0.328,0.704-0.84,0.535
			c-0.237-0.078-0.492-0.109-0.738-0.16c-1.107-0.544-2.292-0.287-3.447-0.328c-0.585-0.022-1.175,0.054-1.75-0.029
			c-0.525-0.08-1.014-0.21-1.336,0.367c-0.197-0.265-0.392-0.528-0.589-0.792c-0.133-0.764,0.29-1.054,0.951-0.976
			c0.993,0.114,2.013,0.02,2.983,0.339c-0.224-0.124-0.515,0.011-0.73-0.165c-0.03-0.087-0.035-0.191,0.055-0.249
			c0.368-0.238,0.752-0.136,1.138-0.056c0.31,0.063,0.595,0.314,0.938,0.132C31.527,11.906,32.628,12.414,33.695,13.005z"/>
		<path fill-rule="evenodd" clip-rule="evenodd" fill="#860304" d="M30.331,11.624c-0.641,0.467-1.318-0.355-2.036,0.122
			c0.336,0.042,0.606,0.074,0.875,0.107c-0.002,0.021-0.005,0.043-0.009,0.065c-0.971,0-1.961,0.116-2.908-0.037
			c-0.735-0.12-1.068,0.071-1.258,0.717c-0.46-0.617-0.923-1.232-1.385-1.849c0.512-0.294,1.072-0.056,1.602-0.149
			c0.131,0.002,0.262,0.005,0.393,0.007c0.065,0,0.131,0,0.198,0.002c0.855,0.134,1.709,0.267,2.565,0.401
			c0.182,0.109,0.362,0.227,0.592,0.178C29.417,11.334,29.874,11.479,30.331,11.624z"/>
		<path fill-rule="evenodd" clip-rule="evenodd" fill="#9D0307" d="M24.814,36.077c-0.448-0.33-0.272-0.816-0.147-1.154
			c0.315-0.847,0.083-1.654,0.035-2.487c-0.083-1.401-0.123-2.812-0.057-4.213c0.029-0.609-0.176-0.943-0.623-1.233
			c0.148-0.255,0.551-0.232,0.616-0.576c0.06-0.001,0.117-0.014,0.172-0.038c0.11-0.127,0.2-0.347,0.4-0.092
			c0.081,0.102,0.236,0.206,0.229,0.301c-0.032,0.545-0.044,0.545,0.558,0.414c0.13,0.263-0.169,0.383-0.197,0.593
			c0.132,1.291-0.377,2.579-0.011,3.875c0.07,0.245-0.045,0.497-0.161,0.746c-0.286,0.621-0.467,1.269,0.062,1.869
			c0.063,0.071,0.171,0.138,0.075,0.201C25.115,34.707,25.621,35.742,24.814,36.077z"/>
		<path fill-rule="evenodd" clip-rule="evenodd" fill="#8B0205" d="M8.767,27.811c-0.649,0.01-1.172-0.326-1.71-0.62
			c-0.001-0.397,0.313-0.37,0.557-0.38c1.935-0.07,3.869-0.068,5.804-0.117c0.614-0.017,1.086,0.014,1.472,0.502
			c0.285,0.389,0.569,0.779,0.854,1.167c0.078,0.194-0.046,0.247-0.194,0.28c-1.271-0.271-2.551-0.188-3.838-0.166
			C10.707,28.491,9.742,28.063,8.767,27.811z"/>
		<path fill-rule="evenodd" clip-rule="evenodd" fill="#930205" d="M14.889,27.195c-0.417-0.348-0.9-0.284-1.396-0.273
			c-2.036,0.049-4.071,0.06-6.107,0.096c-0.111,0.002-0.22,0.112-0.33,0.173c-0.198-0.059-0.396-0.116-0.595-0.175
			c-0.4-0.258-0.802-0.517-1.202-0.774c0.083-0.095,0.211-0.285,0.244-0.269c1.204,0.55,2.46,0.375,3.69,0.216
			c0.946-0.122,1.998,0.482,2.841-0.379c0.644,0.499,1.356,0.312,2.058,0.203C14.358,26.406,14.624,26.8,14.889,27.195z"/>
		<path fill-rule="evenodd" clip-rule="evenodd" fill="#880504" d="M15.539,28.577c0.069-0.071,0.136-0.142,0.205-0.215
			c0.211,0.266,0.423,0.528,0.635,0.792c-0.413,0.001-0.826,0.003-1.238,0.005c-0.168-0.194-0.502,0.034-0.634-0.248
			C14.724,28.404,15.167,28.603,15.539,28.577z"/>
		<path fill-rule="evenodd" clip-rule="evenodd" fill="#9A0206" d="M14.016,4.49c0.793,0.15,0.745,0.653,0.718,1.328
			c-0.071,1.771,0.001,3.546,0.015,5.319c0.001,0.196,0.061,0.445-0.034,0.581c-0.464,0.671,0.269,0.385,0.456,0.573
			c-0.362,0.124-0.702,0.24-1.164,0.399c0.515,0.212,1.173-0.365,1.326,0.439c-0.656,0.403-1.312,0.806-1.968,1.209
			c-0.134-0.049-0.248-0.151-0.21-0.285c0.525-1.893,0.123-3.778-0.008-5.669c-0.053-0.775,0.188-1.555-0.009-2.332
			C13.197,5.401,13.755,5.029,14.016,4.49z"/>
		<path fill-rule="evenodd" clip-rule="evenodd" fill="#AC0308" d="M12.375,23.054c-0.554,0.207-0.086,0.513-0.06,0.773
			c-0.242,0.171-0.324-0.152-0.499-0.142c-2.041,0.125-4.066-0.522-6.119-0.1c-0.517,0.107-1.072,0.187-1.608-0.127
			c-0.457-0.267-0.912,0.404-1.433,0.095c-0.145-0.086-0.273-0.151-0.341-0.306c0.51-0.742,1.351-0.489,2.016-0.548
			c1.062-0.095,2.145-0.129,3.227,0.114c0.921,0.205,1.854-0.317,2.823-0.123c0.374,0.076,0.097-0.443,0.311-0.617
			c0.209,0.163,0.062,0.399,0.113,0.59c0.024,0.093-0.006,0.332,0.168,0.083c0.048-0.066,0.02-0.19,0.026-0.288
			c0.16-0.494,0.739,0.034,0.931-0.383C12.079,22.4,12.227,22.728,12.375,23.054z"/>
		<path fill-rule="evenodd" clip-rule="evenodd" fill="#910205" d="M13.136,6.053c0.255,0.182,0.477,0.468,0.391,0.735
			c-0.355,1.109,0.061,2.19,0.041,3.281c-0.026,1.427,0.358,2.869-0.203,4.271c-0.267,0.185-0.535,0.37-0.802,0.557
			c-0.661-0.653-0.068-1.414-0.122-2.114c-0.131-1.713-0.247-3.47,0.309-5.164c0.062-0.187,0.04-0.394-0.148-0.532
			c0.127-0.335,0.254-0.669,0.382-1.005C13.033,6.073,13.084,6.063,13.136,6.053z"/>
		<path fill-rule="evenodd" clip-rule="evenodd" fill="#930205" d="M25.584,13.39c0.116-0.637,0.313-0.792,1.089-0.663
			c1.275,0.216,2.615,0.105,3.922,0.033c0.656-0.038,1.142,0.1,1.522,0.621c-1.193,0.352-2.417,0.136-3.628,0.194
			c-0.515,0.023-1.037-0.023-1.545,0.045c-0.401,0.056-0.672,0.35-0.757,0.773C25.985,14.06,25.784,13.724,25.584,13.39z"/>
		<path fill-rule="evenodd" clip-rule="evenodd" fill="#9D0207" d="M26.322,14.593c0.258,0.029,0.336-0.461,0.663-0.225
			c0.055,0.331,0.338,0.762-0.336,0.779C26.54,14.963,26.431,14.778,26.322,14.593z"/>
		<path fill-rule="evenodd" clip-rule="evenodd" fill="#B7040B" d="M27.917,17.55c0.084-0.075,0.168-0.149,0.254-0.222
			c0.353,0.26-0.07,0.523,0.001,0.782C28.004,17.962,27.942,17.764,27.917,17.55z"/>
		<path fill-rule="evenodd" clip-rule="evenodd" fill="#8B0205" d="M14.552,28.973c0.213,0.007,0.443-0.036,0.588,0.187
			c-0.264,0.008-0.526,0.015-0.789,0.021c-0.131-0.001-0.262-0.005-0.392-0.007c-0.133,0.11-0.264,0.118-0.388-0.015
			c-0.016-0.056-0.031-0.112-0.046-0.169C13.863,28.682,14.205,28.677,14.552,28.973z"/>
		<path fill-rule="evenodd" clip-rule="evenodd" fill="#F1061A" d="M13.572,29.159c0.129,0.006,0.259,0.009,0.388,0.015
			c-0.677,1.11-0.429,2.319-0.29,3.484c0.081,0.679,0.108,1.276-0.302,1.841c-0.48-0.078-0.891,0.018-0.656-0.852
			c0.264-0.971,0.102-2.07,0.049-3.11C12.728,29.858,12.814,29.334,13.572,29.159z"/>
		<path fill-rule="evenodd" clip-rule="evenodd" fill="#880403" d="M14.552,28.973c-0.342,0.007-0.684,0.013-1.026,0.018
			c-0.317,0.008-0.633,0.013-0.95,0.021c-0.653-0.165-1.28-0.446-1.971-0.441c-0.583-0.321-1.301-0.321-1.838-0.76
			c0.294-0.022,0.578,0.001,0.873,0.076c1.518,0.386,3.057,0.39,4.612,0.261c0.447-0.036,0.974-0.051,1.287,0.431
			C15.308,28.952,14.784,28.597,14.552,28.973z"/>
		<path fill-rule="evenodd" clip-rule="evenodd" fill="#9D0207" d="M27.579,14.762c0.227-0.439,0.541-0.623,1.079-0.61
			c1.739,0.038,3.492,0.12,5.212-0.067c0.644-0.069,0.006,0.933,0.616,0.479c-0.116,0.553-0.558,0.584-0.985,0.588
			c-1.702,0.011-3.402,0.002-5.103,0.005C28.053,15.16,27.741,15.123,27.579,14.762z"/>
		<path fill-rule="evenodd" clip-rule="evenodd" fill="#9D0207" d="M27.183,14.368c0.04-0.132,0.04-0.375,0.246-0.271
			c0.265,0.135,0.109,0.438,0.15,0.665C27.391,14.688,27.258,14.555,27.183,14.368z"/>
		<path fill-rule="evenodd" clip-rule="evenodd" fill="#930205" d="M25.605,26.03c0.526-0.334,1.052-0.668,1.578-1.002
			c-0.066,1.974-0.132,3.946-0.198,5.919c0.505,0.06,0.252,0.366,0.225,0.63c-0.038,0.377-0.021,0.76-0.029,1.141
			c-0.154-0.197-0.309-0.394-0.493-0.631c-0.283,0.524,0.147,1.163-0.295,1.622c-0.32-1.774-0.152-3.567-0.202-5.354
			c-0.01-0.361,0.291-0.61,0.317-0.904c0.041-0.491,0.536-1.39-0.709-1.125C25.758,26.335,25.671,26.136,25.605,26.03z"/>
		<path fill-rule="evenodd" clip-rule="evenodd" fill="#930205" d="M25.802,27.591c-0.233-0.297,0.201-0.371,0.197-0.593
			C26.353,27.335,26.013,27.44,25.802,27.591z"/>
		<path fill-rule="evenodd" clip-rule="evenodd" fill="#8D0205" d="M26.987,31.127c-0.032,0.106,0.025,0.283-0.169,0.25
			c-0.063-0.009-0.146-0.12-0.155-0.192c-0.022-0.152,0.105-0.203,0.231-0.225C27.093,30.924,26.932,31.085,26.987,31.127z"/>
	</g>
</g>
</svg>
