<?xml version="1.0" encoding="utf-8"?>
<!-- Generator: Adobe Illustrator 16.0.0, SVG Export Plug-In . SVG Version: 6.00 Build 0)  -->
<!DOCTYPE svg PUBLIC "-//W3C//DTD SVG 1.1//EN" "http://www.w3.org/Graphics/SVG/1.1/DTD/svg11.dtd">
<svg version="1.1" id="Capa_1" xmlns="http://www.w3.org/2000/svg" xmlns:xlink="http://www.w3.org/1999/xlink" x="0px" y="0px"
	 width="155px" height="155px" viewBox="0 0 155 155" enable-background="new 0 0 155 155" xml:space="preserve">
<g>
	<g>
		<path fill-rule="evenodd" clip-rule="evenodd" fill="#C9CEDF" d="M154.871,83.025c-0.287,0.586-0.178,1.238-0.23,1.85
			c-0.467,5.275-1.517,10.436-3.097,15.48c-1.117,3.563-2.467,7.043-4.093,10.422c-1.788,3.709-3.844,7.26-6.188,10.643
			c-1.866,2.689-3.905,5.246-6.097,7.686c-1.657,1.842-3.406,3.594-5.211,5.279c-2.489,2.324-5.159,4.441-7.953,6.398
			c-3.609,2.525-7.399,4.742-11.386,6.613c-5.616,2.631-11.455,4.609-17.547,5.824c-3.187,0.633-6.395,1.055-9.633,1.328
			c-2.905,0.244-5.811,0.32-8.712,0.203c-3.237-0.127-6.463-0.463-9.672-0.986c-4.275-0.697-8.46-1.725-12.551-3.127
			c-5.456-1.873-10.645-4.307-15.559-7.342c-3.54-2.188-6.878-4.643-10.027-7.346c-2.672-2.291-5.164-4.773-7.488-7.426
			c-2.378-2.717-4.572-5.566-6.572-8.566c-1.662-2.492-3.178-5.078-4.511-7.76c-2.476-4.982-4.429-10.164-5.815-15.561
			c-0.874-3.4-1.506-6.846-1.934-10.326c-0.532-4.328-0.536-8.685-0.376-13.031c0.114-3.127,0.567-6.233,1.095-9.33
			c0.99-5.798,2.73-11.366,4.985-16.775c1.669-4.003,3.72-7.81,6.085-11.45c2.301-3.542,4.853-6.88,7.689-10.013
			c4.692-5.182,9.967-9.67,15.852-13.438c7.658-4.9,15.951-8.297,24.813-10.293c2.846-0.64,5.734-1.047,8.637-1.388
			c4.076-0.479,8.163-0.441,12.243-0.33c3.35,0.091,6.68,0.55,9.98,1.159c3.803,0.703,7.537,1.668,11.189,2.937
			c4.802,1.669,9.403,3.775,13.799,6.343c3.481,2.031,6.776,4.321,9.906,6.849c2.605,2.102,5.065,4.374,7.353,6.816
			c3.307,3.526,6.299,7.308,8.912,11.382c3.053,4.766,5.562,9.799,7.514,15.115c1.532,4.167,2.714,8.43,3.49,12.797
			c0.366,2.055,0.679,4.122,0.871,6.206c0.065,0.702-0.041,1.435,0.237,2.115C154.871,75.666,154.871,79.346,154.871,83.025z
			 M77.493,149.666c39.838,0.168,72.363-32.438,72.379-71.845c0.009-19.91-7.036-37.046-21.004-51.143
			C114.979,12.659,97.943,5.451,78.206,5.266C37.651,4.886,5.204,37.698,5.196,77.44C5.189,117.342,37.743,149.736,77.493,149.666z"
			/>
		<path fill-rule="evenodd" clip-rule="evenodd" fill="#FEFEFE" d="M77.493,149.666c-39.75,0.07-72.304-32.324-72.297-72.226
			C5.204,37.698,37.651,4.886,78.206,5.266c19.737,0.186,36.773,7.394,50.662,21.412c13.968,14.097,21.013,31.233,21.004,51.143
			C149.856,117.229,117.331,149.834,77.493,149.666z M144.104,77.428c0.175-36.464-29.765-66.183-65.958-66.444
			c-37.249-0.269-67.167,29.861-67.19,66.374c-0.022,36.787,29.695,66.474,66.373,66.615
			C114.389,144.115,144.312,113.936,144.104,77.428z"/>
		<path fill-rule="evenodd" clip-rule="evenodd" fill="#C9CEDF" d="M144.104,77.428c0.207,36.507-29.716,66.687-66.775,66.544
			c-36.678-0.141-66.396-29.828-66.373-66.615c0.023-36.513,29.941-66.643,67.19-66.374
			C114.34,11.246,144.279,40.964,144.104,77.428z"/>
	</g>
	<g>
		<path fill-rule="evenodd" clip-rule="evenodd" fill="#F2A900" d="M69.69,133.114c16.79,0,30.481-6.479,30.481-14.422
			c0-7.943-13.691-14.422-30.481-14.422c-16.789,0-30.482,6.479-30.482,14.422C39.208,126.635,52.901,133.114,69.69,133.114z"/>
		<rect x="39.208" y="112.765" fill-rule="evenodd" clip-rule="evenodd" fill="#F2A900" width="60.963" height="5.928"/>
		<g>
			<path fill-rule="evenodd" clip-rule="evenodd" fill="#F2A900" d="M69.69,127.186c16.79,0,30.481-6.479,30.481-14.422
				S86.479,98.343,69.69,98.343c-16.789,0-30.482,6.478-30.482,14.421S52.901,127.186,69.69,127.186z"/>
			<path fill-rule="evenodd" clip-rule="evenodd" fill="#FFD573" d="M69.69,124.386c14.593,0,26.497-5.221,26.497-11.622
				c0-6.4-11.903-11.621-26.497-11.621c-14.594,0-26.497,5.221-26.497,11.621C43.193,119.165,55.096,124.386,69.69,124.386z"/>
			<path fill="#F2A900" d="M72.646,105.936c1.248,0.163,2.288,0.431,3.123,0.808c1.157,0.522,1.897,1.223,2.22,2.1l-4.685,0.289
				c-0.127-0.309-0.347-0.574-0.658-0.794V105.936L72.646,105.936z M72.646,111.381c2.122,0.343,3.621,0.761,4.489,1.252
				c1.075,0.604,1.612,1.379,1.612,2.327c0,1.056-0.677,1.947-2.023,2.671c-1.044,0.562-2.405,0.953-4.078,1.179v-2.087
				c0.254-0.086,0.485-0.187,0.695-0.303c0.582-0.326,0.873-0.706,0.873-1.146c0-0.392-0.247-0.728-0.733-1.012
				c-0.216-0.126-0.495-0.238-0.834-0.34V111.381z M68.396,116.904v-3.671c-0.417-0.057-0.816-0.118-1.195-0.185v-2.651
				c0.33,0.129,0.728,0.242,1.195,0.338v-3.033c-0.458,0.074-0.855,0.179-1.195,0.315v-2.136c0.382-0.041,0.78-0.071,1.195-0.091
				v-0.867h2.681v0.867c0.555,0.032,1.078,0.08,1.569,0.145v2.402c-0.383-0.271-0.906-0.474-1.569-0.608v3.426
				c0.556,0.071,1.079,0.146,1.569,0.226v2.542c-0.427-0.125-0.95-0.229-1.569-0.312v3.415c0.595-0.051,1.117-0.152,1.569-0.304
				v2.087c-0.496,0.066-1.019,0.118-1.569,0.156v1.64h-2.681v-1.598c-0.414-0.024-0.812-0.058-1.195-0.1v-2.404
				C67.574,116.674,67.972,116.809,68.396,116.904z M67.202,113.049c-1.82-0.318-3.199-0.752-4.135-1.302
				c-1.125-0.664-1.694-1.469-1.694-2.414c0-0.958,0.638-1.763,1.916-2.414c1.033-0.525,2.337-0.869,3.914-1.037v2.136
				c-0.204,0.083-0.387,0.175-0.55,0.28c-0.43,0.28-0.645,0.593-0.645,0.931c0,0.308,0.196,0.599,0.588,0.862
				c0.167,0.11,0.369,0.212,0.607,0.307V113.049L67.202,113.049z M67.202,118.908c-1.6-0.179-2.939-0.522-4.015-1.031
				c-1.334-0.629-2.182-1.52-2.555-2.672l4.837-0.245c0.196,0.467,0.569,0.87,1.113,1.209c0.197,0.124,0.404,0.235,0.62,0.335
				V118.908z"/>
		</g>
		<path fill-rule="evenodd" clip-rule="evenodd" fill="#F2A900" d="M90.24,125.437c16.79,0,30.482-6.479,30.482-14.421
			c0-7.944-13.692-14.421-30.482-14.421c-16.788,0-30.48,6.477-30.48,14.421C59.76,118.958,73.453,125.437,90.24,125.437z"/>
		<rect x="59.759" y="105.088" fill-rule="evenodd" clip-rule="evenodd" fill="#F2A900" width="60.963" height="5.928"/>
		<g>
			<path fill-rule="evenodd" clip-rule="evenodd" fill="#F2A900" d="M90.24,119.509c16.79,0,30.482-6.479,30.482-14.421
				c0-7.943-13.692-14.422-30.482-14.422c-16.788,0-30.48,6.479-30.48,14.422C59.76,113.03,73.453,119.509,90.24,119.509z"/>
			<path fill-rule="evenodd" clip-rule="evenodd" fill="#FFD573" d="M90.24,116.709c14.595,0,26.498-5.221,26.498-11.621
				S104.835,93.467,90.24,93.467c-14.593,0-26.495,5.221-26.495,11.621S75.647,116.709,90.24,116.709z"/>
			<path fill="#F2A900" d="M93.197,98.259c1.247,0.163,2.288,0.431,3.124,0.807c1.156,0.523,1.896,1.224,2.219,2.101l-4.685,0.289
				c-0.128-0.31-0.346-0.574-0.658-0.795V98.259L93.197,98.259z M93.197,103.704c2.122,0.343,3.62,0.761,4.489,1.252
				c1.075,0.604,1.612,1.379,1.612,2.326c0,1.058-0.677,1.949-2.022,2.672c-1.045,0.562-2.405,0.952-4.079,1.179v-2.087
				c0.255-0.086,0.487-0.188,0.695-0.303c0.581-0.326,0.873-0.705,0.873-1.146c0-0.393-0.247-0.727-0.733-1.011
				c-0.217-0.127-0.495-0.241-0.835-0.341V103.704z M88.948,109.228v-3.671c-0.418-0.055-0.816-0.118-1.195-0.185v-2.651
				c0.33,0.129,0.729,0.243,1.195,0.339v-3.033c-0.459,0.073-0.855,0.178-1.195,0.315v-2.138c0.383-0.04,0.781-0.069,1.195-0.09
				v-0.867h2.681v0.867c0.555,0.032,1.077,0.08,1.568,0.145v2.401c-0.384-0.27-0.904-0.472-1.568-0.608v3.426
				c0.557,0.072,1.079,0.147,1.568,0.227v2.542c-0.426-0.125-0.949-0.229-1.568-0.312v3.416c0.595-0.052,1.117-0.153,1.568-0.305
				v2.087c-0.496,0.066-1.018,0.118-1.568,0.155v1.641h-2.681v-1.599c-0.413-0.022-0.813-0.056-1.195-0.1v-2.404
				C88.125,108.998,88.523,109.131,88.948,109.228z M87.753,105.372c-1.82-0.319-3.198-0.753-4.135-1.302
				c-1.126-0.664-1.696-1.469-1.696-2.415c0-0.957,0.64-1.76,1.917-2.413c1.034-0.524,2.338-0.869,3.914-1.038v2.138
				c-0.203,0.082-0.386,0.176-0.55,0.279c-0.431,0.282-0.645,0.593-0.645,0.931c0,0.308,0.196,0.599,0.588,0.861
				c0.168,0.111,0.369,0.213,0.606,0.308V105.372L87.753,105.372z M87.753,111.23c-1.599-0.177-2.938-0.521-4.015-1.031
				c-1.335-0.628-2.182-1.52-2.554-2.67l4.836-0.247c0.195,0.467,0.569,0.871,1.113,1.21c0.197,0.124,0.404,0.234,0.619,0.334
				V111.23z"/>
		</g>
		<path fill-rule="evenodd" clip-rule="evenodd" fill="#F2A900" d="M65.6,113.009c16.789,0,30.482-6.479,30.482-14.421
			c0-7.943-13.693-14.422-30.482-14.422s-30.482,6.479-30.482,14.422C35.118,106.53,48.811,113.009,65.6,113.009z"/>
		<rect x="35.117" y="92.658" fill-rule="evenodd" clip-rule="evenodd" fill="#F2A900" width="60.965" height="5.93"/>
		<g>
			<path fill-rule="evenodd" clip-rule="evenodd" fill="#F2A900" d="M65.6,107.08c16.789,0,30.482-6.478,30.482-14.422
				c0-7.942-13.693-14.421-30.482-14.421s-30.482,6.479-30.482,14.421C35.118,100.603,48.811,107.08,65.6,107.08z"/>
			<path fill-rule="evenodd" clip-rule="evenodd" fill="#FFD573" d="M65.6,104.28c14.594,0,26.495-5.22,26.495-11.622
				c0-6.4-11.901-11.62-26.495-11.62s-26.497,5.22-26.497,11.62C39.103,99.061,51.006,104.28,65.6,104.28z"/>
			<path fill="#F2A900" d="M68.555,85.83c1.248,0.163,2.289,0.431,3.124,0.808c1.157,0.523,1.896,1.223,2.219,2.1l-4.685,0.29
				c-0.127-0.311-0.346-0.574-0.658-0.794V85.83L68.555,85.83z M68.555,91.276c2.123,0.342,3.621,0.76,4.489,1.251
				c1.075,0.604,1.612,1.38,1.612,2.327c0,1.057-0.677,1.947-2.023,2.672c-1.044,0.56-2.405,0.953-4.079,1.178v-2.087
				c0.254-0.085,0.486-0.187,0.695-0.303c0.582-0.325,0.873-0.706,0.873-1.146c0-0.392-0.247-0.727-0.733-1.012
				c-0.217-0.125-0.495-0.239-0.835-0.339V91.276z M64.306,96.8v-3.671c-0.417-0.057-0.815-0.118-1.194-0.185v-2.652
				c0.33,0.13,0.728,0.243,1.194,0.339v-3.033c-0.458,0.073-0.855,0.179-1.194,0.315v-2.137c0.382-0.04,0.78-0.071,1.194-0.09
				v-0.868h2.681v0.868c0.555,0.032,1.078,0.079,1.568,0.144v2.403c-0.383-0.271-0.905-0.474-1.568-0.608v3.425
				c0.556,0.071,1.079,0.147,1.568,0.227v2.542c-0.426-0.125-0.949-0.229-1.568-0.312v3.415c0.595-0.052,1.117-0.153,1.568-0.305
				v2.087c-0.496,0.066-1.018,0.119-1.568,0.156v1.639h-2.681v-1.597c-0.413-0.023-0.811-0.058-1.194-0.1v-2.405
				C63.483,96.568,63.882,96.703,64.306,96.8z M63.111,92.944c-1.82-0.32-3.199-0.753-4.135-1.303
				c-1.126-0.664-1.695-1.469-1.695-2.414c0-0.957,0.639-1.762,1.916-2.414c1.033-0.525,2.337-0.869,3.914-1.037v2.137
				c-0.204,0.083-0.386,0.175-0.55,0.279c-0.43,0.281-0.645,0.593-0.645,0.931c0,0.308,0.196,0.598,0.588,0.861
				c0.167,0.112,0.369,0.214,0.607,0.308V92.944L63.111,92.944z M63.111,98.803c-1.599-0.179-2.939-0.522-4.015-1.031
				c-1.334-0.628-2.182-1.521-2.554-2.671l4.837-0.246c0.196,0.467,0.569,0.871,1.112,1.209c0.197,0.124,0.404,0.235,0.62,0.334
				V98.803z"/>
		</g>
		<path fill-rule="evenodd" clip-rule="evenodd" fill="#F2A900" d="M87.414,102.545c16.789,0,30.48-6.479,30.48-14.421
			c0-7.943-13.691-14.422-30.48-14.422c-16.79,0-30.482,6.479-30.482,14.422C56.932,96.066,70.625,102.545,87.414,102.545z"/>
		<rect x="56.931" y="82.196" fill-rule="evenodd" clip-rule="evenodd" fill="#F2A900" width="60.963" height="5.928"/>
		<g>
			<path fill-rule="evenodd" clip-rule="evenodd" fill="#F2A900" d="M87.414,96.617c16.789,0,30.48-6.479,30.48-14.421
				c0-7.944-13.691-14.422-30.48-14.422c-16.79,0-30.482,6.479-30.482,14.422C56.932,90.138,70.625,96.617,87.414,96.617z"/>
			<path fill-rule="evenodd" clip-rule="evenodd" fill="#FFD573" d="M87.414,93.816c14.592,0,26.496-5.221,26.496-11.62
				c0-6.402-11.904-11.623-26.496-11.623c-14.595,0-26.497,5.221-26.497,11.623C60.917,88.596,72.819,93.816,87.414,93.816z"/>
			<path fill="#F2A900" d="M90.369,75.367c1.248,0.163,2.288,0.431,3.123,0.807c1.159,0.523,1.897,1.224,2.22,2.1l-4.686,0.291
				c-0.127-0.311-0.347-0.575-0.657-0.795V75.367L90.369,75.367z M90.369,80.813c2.123,0.343,3.622,0.761,4.489,1.251
				c1.075,0.604,1.613,1.379,1.613,2.328c0,1.056-0.678,1.947-2.023,2.672c-1.044,0.561-2.406,0.951-4.079,1.177v-2.086
				c0.253-0.086,0.485-0.188,0.695-0.303c0.582-0.327,0.873-0.707,0.873-1.146c0-0.393-0.247-0.728-0.734-1.011
				c-0.216-0.127-0.494-0.241-0.834-0.341V80.813z M86.12,86.335v-3.67c-0.418-0.058-0.816-0.118-1.196-0.186v-2.65
				c0.331,0.13,0.729,0.242,1.196,0.339v-3.034c-0.459,0.072-0.854,0.178-1.196,0.316v-2.137c0.384-0.041,0.78-0.071,1.196-0.091
				v-0.867h2.68v0.867c0.556,0.032,1.079,0.08,1.569,0.145v2.402c-0.383-0.27-0.905-0.473-1.569-0.609v3.426
				c0.557,0.071,1.08,0.147,1.569,0.227v2.542c-0.426-0.125-0.948-0.229-1.569-0.313v3.417c0.597-0.052,1.117-0.153,1.569-0.305
				v2.086c-0.495,0.067-1.018,0.119-1.569,0.156v1.64h-2.68v-1.599c-0.414-0.022-0.813-0.056-1.196-0.1v-2.403
				C85.297,86.105,85.696,86.239,86.12,86.335z M84.924,82.479c-1.819-0.319-3.197-0.752-4.135-1.301
				c-1.125-0.664-1.694-1.47-1.694-2.414c0-0.958,0.639-1.763,1.916-2.415c1.034-0.524,2.337-0.869,3.913-1.037v2.137
				c-0.203,0.081-0.386,0.175-0.548,0.279c-0.432,0.28-0.646,0.592-0.646,0.931c0,0.308,0.195,0.598,0.589,0.861
				c0.165,0.111,0.368,0.214,0.605,0.308V82.479L84.924,82.479z M84.924,88.338c-1.599-0.179-2.938-0.521-4.015-1.03
				c-1.333-0.628-2.181-1.52-2.554-2.672l4.836-0.244c0.196,0.466,0.57,0.87,1.113,1.208c0.198,0.124,0.405,0.235,0.619,0.335
				V88.338z"/>
		</g>
		<path fill-rule="evenodd" clip-rule="evenodd" fill="#F2A900" d="M78.056,92.075c16.789,0,30.482-6.479,30.482-14.421
			c0-7.943-13.693-14.422-30.482-14.422c-16.788,0-30.481,6.479-30.481,14.422C47.574,85.597,61.268,92.075,78.056,92.075z"/>
		<rect x="47.574" y="71.726" fill-rule="evenodd" clip-rule="evenodd" fill="#F2A900" width="60.964" height="5.929"/>
		<g>
			<path fill-rule="evenodd" clip-rule="evenodd" fill="#F2A900" d="M78.056,86.147c16.789,0,30.482-6.479,30.482-14.422
				c0-7.942-13.693-14.421-30.482-14.421c-16.788,0-30.481,6.479-30.481,14.421C47.574,79.669,61.268,86.147,78.056,86.147z"/>
			<path fill-rule="evenodd" clip-rule="evenodd" fill="#FFD573" d="M78.056,83.347c14.594,0,26.497-5.221,26.497-11.621
				c0-6.401-11.903-11.621-26.497-11.621c-14.593,0-26.496,5.22-26.496,11.621C51.56,78.126,63.462,83.347,78.056,83.347z"/>
			<path fill="#F2A900" d="M81.011,64.896c1.249,0.164,2.288,0.432,3.125,0.808c1.158,0.523,1.896,1.223,2.22,2.1l-4.687,0.291
				c-0.127-0.31-0.346-0.575-0.658-0.794V64.896L81.011,64.896z M81.011,70.342c2.123,0.343,3.623,0.761,4.49,1.252
				c1.075,0.604,1.614,1.379,1.614,2.327c0,1.056-0.678,1.947-2.025,2.671c-1.042,0.561-2.404,0.953-4.079,1.178v-2.087
				c0.255-0.084,0.487-0.186,0.697-0.302c0.581-0.326,0.873-0.707,0.873-1.146c0-0.392-0.248-0.727-0.734-1.011
				c-0.217-0.126-0.495-0.24-0.836-0.339V70.342z M76.763,75.866v-3.67c-0.417-0.057-0.816-0.119-1.195-0.185v-2.651
				c0.33,0.13,0.729,0.243,1.195,0.338v-3.034c-0.458,0.073-0.855,0.179-1.195,0.316v-2.137c0.382-0.041,0.781-0.071,1.195-0.09
				v-0.868h2.681v0.868c0.555,0.032,1.078,0.08,1.567,0.144V67.3c-0.382-0.271-0.903-0.474-1.567-0.608v3.425
				c0.557,0.071,1.079,0.146,1.567,0.226v2.543c-0.425-0.125-0.947-0.229-1.567-0.313v3.417c0.596-0.052,1.117-0.154,1.567-0.306
				v2.087c-0.495,0.067-1.017,0.119-1.567,0.157v1.639h-2.681v-1.598c-0.414-0.023-0.812-0.057-1.195-0.1v-2.405
				C75.94,75.636,76.338,75.769,76.763,75.866z M75.568,72.011c-1.82-0.32-3.199-0.753-4.135-1.302
				c-1.125-0.664-1.695-1.469-1.695-2.414c0-0.958,0.639-1.763,1.916-2.415c1.033-0.525,2.336-0.869,3.914-1.037v2.137
				c-0.204,0.082-0.386,0.175-0.55,0.279c-0.43,0.281-0.646,0.592-0.646,0.931c0,0.308,0.197,0.598,0.589,0.861
				c0.167,0.111,0.369,0.214,0.606,0.308V72.011L75.568,72.011z M75.568,77.869c-1.6-0.178-2.939-0.521-4.015-1.031
				c-1.334-0.628-2.182-1.52-2.555-2.671l4.837-0.245c0.195,0.466,0.569,0.87,1.112,1.209c0.197,0.124,0.404,0.235,0.62,0.334
				V77.869z"/>
		</g>
		<path fill-rule="evenodd" clip-rule="evenodd" fill="#F2A900" d="M85.85,83.822c16.787,0,30.48-6.479,30.48-14.422
			c0-7.942-13.693-14.421-30.48-14.421c-16.791,0-30.483,6.479-30.483,14.421C55.366,77.344,69.059,83.822,85.85,83.822z"/>
		<rect x="55.366" y="63.473" fill-rule="evenodd" clip-rule="evenodd" fill="#F2A900" width="60.964" height="5.928"/>
		<g>
			<path fill-rule="evenodd" clip-rule="evenodd" fill="#F2A900" d="M85.85,77.894c16.787,0,30.48-6.479,30.48-14.421
				c0-7.943-13.693-14.422-30.48-14.422c-16.791,0-30.483,6.479-30.483,14.422C55.366,71.416,69.059,77.894,85.85,77.894z"/>
			<path fill-rule="evenodd" clip-rule="evenodd" fill="#FFD573" d="M85.85,75.093c14.592,0,26.496-5.22,26.496-11.621
				c0-6.401-11.904-11.621-26.496-11.621c-14.595,0-26.498,5.22-26.498,11.621C59.352,69.873,71.254,75.093,85.85,75.093z"/>
			<path fill="#F2A900" d="M88.805,56.644c1.248,0.164,2.288,0.432,3.124,0.808c1.157,0.523,1.896,1.223,2.218,2.1l-4.685,0.291
				c-0.127-0.31-0.347-0.574-0.657-0.794V56.644L88.805,56.644z M88.805,62.089c2.122,0.343,3.621,0.761,4.489,1.251
				c1.075,0.604,1.612,1.38,1.612,2.328c0,1.056-0.677,1.947-2.023,2.672c-1.045,0.56-2.405,0.952-4.078,1.177v-2.087
				c0.253-0.085,0.485-0.186,0.695-0.302c0.582-0.327,0.873-0.707,0.873-1.146c0-0.391-0.247-0.727-0.734-1.01
				c-0.216-0.126-0.493-0.239-0.834-0.339V62.089z M84.556,67.613v-3.67c-0.418-0.057-0.816-0.118-1.194-0.185v-2.652
				c0.329,0.13,0.728,0.243,1.194,0.339v-3.034c-0.459,0.072-0.856,0.178-1.194,0.315V56.59c0.382-0.041,0.78-0.071,1.194-0.09
				v-0.868h2.681V56.5c0.556,0.031,1.078,0.08,1.568,0.144v2.403c-0.383-0.271-0.904-0.474-1.568-0.609v3.426
				c0.556,0.071,1.078,0.146,1.568,0.226v2.543c-0.426-0.126-0.95-0.23-1.568-0.314v3.417c0.595-0.052,1.116-0.154,1.568-0.305
				v2.087c-0.495,0.067-1.019,0.119-1.568,0.156v1.64h-2.681v-1.598c-0.413-0.024-0.813-0.057-1.194-0.1v-2.405
				C83.731,67.383,84.131,67.517,84.556,67.613z M83.361,63.758c-1.821-0.32-3.2-0.753-4.136-1.302
				c-1.126-0.664-1.695-1.469-1.695-2.414c0-0.958,0.639-1.762,1.916-2.415c1.033-0.525,2.337-0.87,3.915-1.037v2.136
				c-0.205,0.083-0.388,0.176-0.552,0.28c-0.431,0.282-0.645,0.593-0.645,0.931c0,0.309,0.196,0.599,0.589,0.862
				c0.167,0.111,0.368,0.214,0.607,0.308V63.758L83.361,63.758z M83.361,69.616c-1.601-0.178-2.939-0.522-4.016-1.031
				c-1.335-0.628-2.182-1.52-2.555-2.671l4.837-0.245c0.194,0.466,0.569,0.87,1.112,1.208c0.196,0.125,0.404,0.236,0.621,0.334
				V69.616z"/>
		</g>
		<path fill-rule="evenodd" clip-rule="evenodd" fill="#F2A900" d="M75.378,75.167c16.79,0,30.481-6.479,30.481-14.422
			c0-7.942-13.691-14.421-30.481-14.421c-16.789,0-30.481,6.479-30.481,14.421C44.897,68.688,58.59,75.167,75.378,75.167z"/>
		<rect x="44.896" y="54.817" fill-rule="evenodd" clip-rule="evenodd" fill="#F2A900" width="60.963" height="5.929"/>
		<g>
			<path fill-rule="evenodd" clip-rule="evenodd" fill="#F2A900" d="M75.378,69.238c16.79,0,30.481-6.478,30.481-14.421
				c0-7.944-13.691-14.421-30.481-14.421c-16.789,0-30.481,6.478-30.481,14.421C44.897,62.76,58.59,69.238,75.378,69.238z"/>
			<path fill-rule="evenodd" clip-rule="evenodd" fill="#FFD573" d="M75.378,66.438c14.593,0,26.498-5.221,26.498-11.621
				c0-6.401-11.904-11.622-26.498-11.622s-26.496,5.22-26.496,11.622C48.882,61.218,60.785,66.438,75.378,66.438z"/>
			<path fill="#F2A900" d="M78.334,47.988c1.249,0.164,2.289,0.432,3.125,0.808c1.156,0.523,1.896,1.223,2.218,2.1l-4.685,0.29
				c-0.127-0.31-0.347-0.575-0.658-0.794V47.988L78.334,47.988z M78.334,53.434c2.123,0.343,3.621,0.761,4.489,1.252
				c1.076,0.604,1.613,1.379,1.613,2.327c0,1.056-0.678,1.947-2.023,2.672c-1.045,0.561-2.405,0.953-4.079,1.177v-2.087
				c0.255-0.085,0.486-0.186,0.696-0.302c0.581-0.326,0.872-0.706,0.872-1.145c0-0.392-0.247-0.728-0.732-1.012
				c-0.217-0.126-0.495-0.239-0.836-0.339V53.434z M74.085,58.958v-3.67c-0.417-0.058-0.816-0.119-1.195-0.186V52.45
				c0.33,0.13,0.729,0.244,1.195,0.339v-3.034c-0.459,0.073-0.856,0.179-1.195,0.315v-2.136c0.382-0.041,0.781-0.071,1.195-0.09
				v-0.868h2.681v0.868c0.555,0.031,1.078,0.079,1.567,0.143v2.404c-0.382-0.271-0.905-0.474-1.567-0.609v3.426
				c0.556,0.071,1.078,0.146,1.567,0.226v2.543c-0.426-0.125-0.949-0.23-1.567-0.313v3.416c0.595-0.052,1.117-0.153,1.567-0.305
				v2.087c-0.495,0.067-1.018,0.119-1.567,0.156v1.64h-2.681v-1.598c-0.414-0.023-0.812-0.057-1.195-0.1v-2.405
				C73.262,58.727,73.661,58.861,74.085,58.958z M72.89,55.102c-1.82-0.32-3.198-0.752-4.135-1.302
				c-1.125-0.664-1.694-1.469-1.694-2.415c0-0.957,0.639-1.762,1.916-2.414c1.033-0.525,2.337-0.87,3.914-1.037v2.136
				c-0.203,0.082-0.386,0.175-0.549,0.28c-0.43,0.281-0.646,0.592-0.646,0.931c0,0.308,0.196,0.598,0.588,0.861
				c0.167,0.111,0.369,0.214,0.606,0.307V55.102L72.89,55.102z M72.89,60.961c-1.599-0.179-2.938-0.522-4.015-1.032
				c-1.334-0.627-2.181-1.52-2.555-2.671l4.837-0.246c0.196,0.467,0.569,0.871,1.112,1.209c0.198,0.124,0.404,0.236,0.62,0.334
				V60.961z"/>
		</g>
		<path fill-rule="evenodd" clip-rule="evenodd" fill="#F2A900" d="M67.786,67.171c16.789,0,30.481-6.479,30.481-14.421
			c0-7.943-13.692-14.422-30.481-14.422S37.304,44.806,37.304,52.75C37.304,60.692,50.997,67.171,67.786,67.171z"/>
		<rect x="37.304" y="46.821" fill-rule="evenodd" clip-rule="evenodd" fill="#F2A900" width="60.964" height="5.928"/>
		<g>
			<path fill-rule="evenodd" clip-rule="evenodd" fill="#F2A900" d="M67.786,61.242c16.789,0,30.481-6.478,30.481-14.421
				c0-7.942-13.692-14.421-30.481-14.421s-30.482,6.479-30.482,14.421C37.304,54.765,50.997,61.242,67.786,61.242z"/>
			<path fill-rule="evenodd" clip-rule="evenodd" fill="#FFD573" d="M67.786,58.442c14.593,0,26.496-5.221,26.496-11.622
				c0-6.4-11.903-11.62-26.496-11.62c-14.594,0-26.497,5.22-26.497,11.62C41.29,53.222,53.192,58.442,67.786,58.442z"/>
			<path fill="#F2A900" d="M70.742,39.992c1.248,0.164,2.288,0.432,3.123,0.807c1.157,0.524,1.897,1.224,2.219,2.1l-4.685,0.29
				c-0.128-0.31-0.347-0.574-0.658-0.794V39.992L70.742,39.992z M70.742,45.437c2.122,0.344,3.621,0.762,4.489,1.253
				c1.075,0.604,1.612,1.378,1.612,2.327c0,1.056-0.676,1.948-2.023,2.671c-1.044,0.561-2.405,0.953-4.078,1.178V50.78
				c0.254-0.085,0.485-0.187,0.695-0.303c0.582-0.326,0.873-0.706,0.873-1.146c0-0.392-0.247-0.727-0.734-1.011
				c-0.216-0.126-0.495-0.239-0.834-0.339V45.437z M66.493,50.961v-3.671c-0.417-0.056-0.816-0.118-1.195-0.184v-2.651
				c0.33,0.129,0.729,0.242,1.195,0.337v-3.033c-0.458,0.073-0.856,0.179-1.195,0.316v-2.137c0.382-0.041,0.78-0.07,1.195-0.091
				v-0.867h2.681v0.867c0.556,0.033,1.078,0.081,1.569,0.145v2.403c-0.383-0.27-0.906-0.473-1.569-0.609v3.426
				c0.556,0.072,1.079,0.146,1.569,0.225v2.544c-0.427-0.125-0.949-0.229-1.569-0.313v3.417c0.595-0.052,1.117-0.154,1.569-0.305
				v2.086c-0.496,0.067-1.019,0.119-1.569,0.156v1.64h-2.681v-1.598c-0.414-0.024-0.812-0.058-1.195-0.1V50.56
				C65.67,50.731,66.068,50.865,66.493,50.961z M65.298,47.106c-1.82-0.32-3.199-0.753-4.135-1.302
				c-1.125-0.664-1.694-1.469-1.694-2.414c0-0.958,0.639-1.762,1.916-2.414c1.033-0.525,2.337-0.87,3.914-1.038v2.137
				c-0.204,0.082-0.386,0.176-0.55,0.28c-0.43,0.281-0.645,0.592-0.645,0.93c0,0.308,0.196,0.599,0.588,0.862
				c0.167,0.111,0.369,0.214,0.607,0.308V47.106L65.298,47.106z M65.298,52.965c-1.6-0.179-2.939-0.522-4.015-1.031
				c-1.334-0.628-2.182-1.52-2.555-2.672l4.837-0.245c0.196,0.466,0.569,0.87,1.113,1.208c0.197,0.125,0.404,0.235,0.62,0.334
				V52.965z"/>
		</g>
		<path fill-rule="evenodd" clip-rule="evenodd" fill="#F2A900" d="M81.575,56.757c16.788,0,30.481-6.479,30.481-14.421
			S98.363,27.914,81.575,27.914c-16.79,0-30.482,6.479-30.482,14.422S64.786,56.757,81.575,56.757z"/>
		<rect x="51.092" y="36.408" fill-rule="evenodd" clip-rule="evenodd" fill="#F2A900" width="60.964" height="5.928"/>
		<g>
			<path fill-rule="evenodd" clip-rule="evenodd" fill="#F2A900" d="M81.575,50.829c16.788,0,30.481-6.478,30.481-14.42
				c0-7.944-13.693-14.422-30.481-14.422c-16.79,0-30.482,6.478-30.482,14.422C51.093,44.351,64.786,50.829,81.575,50.829z"/>
			<path fill-rule="evenodd" clip-rule="evenodd" fill="#FFD573" d="M81.575,48.029c14.594,0,26.496-5.221,26.496-11.621
				c0-6.401-11.902-11.622-26.496-11.622c-14.595,0-26.497,5.221-26.497,11.622C55.078,42.808,66.98,48.029,81.575,48.029z"/>
			<path fill="#F2A900" d="M84.531,29.579c1.247,0.164,2.288,0.431,3.123,0.807c1.157,0.523,1.897,1.224,2.22,2.1l-4.686,0.291
				c-0.128-0.31-0.348-0.575-0.657-0.794V29.579L84.531,29.579z M84.531,35.024c2.123,0.343,3.62,0.761,4.489,1.252
				c1.074,0.604,1.611,1.379,1.611,2.328c0,1.055-0.677,1.947-2.022,2.671c-1.045,0.56-2.404,0.953-4.078,1.178v-2.088
				c0.254-0.084,0.484-0.186,0.695-0.302c0.581-0.325,0.872-0.706,0.872-1.145c0-0.392-0.246-0.728-0.732-1.012
				c-0.217-0.126-0.497-0.239-0.835-0.339V35.024z M80.281,40.548v-3.67c-0.417-0.057-0.816-0.119-1.195-0.186v-2.652
				c0.33,0.13,0.729,0.244,1.195,0.34v-3.034c-0.459,0.073-0.855,0.178-1.195,0.315v-2.137c0.383-0.041,0.78-0.071,1.195-0.09
				v-0.868h2.681v0.868c0.556,0.032,1.078,0.08,1.569,0.144v2.403c-0.384-0.271-0.907-0.474-1.569-0.609v3.426
				c0.557,0.071,1.078,0.146,1.569,0.226v2.543c-0.428-0.125-0.951-0.23-1.569-0.313v3.417c0.595-0.052,1.117-0.154,1.569-0.306
				v2.088c-0.496,0.067-1.02,0.119-1.569,0.156v1.639h-2.681v-1.598c-0.414-0.023-0.812-0.057-1.195-0.1v-2.404
				C79.458,40.317,79.857,40.452,80.281,40.548z M79.086,36.692c-1.82-0.319-3.198-0.752-4.135-1.302
				c-1.125-0.664-1.695-1.469-1.695-2.414c0-0.958,0.639-1.763,1.916-2.415c1.034-0.524,2.337-0.87,3.914-1.037v2.137
				c-0.203,0.082-0.386,0.175-0.55,0.28c-0.431,0.281-0.645,0.592-0.645,0.93c0,0.308,0.196,0.598,0.588,0.861
				c0.167,0.111,0.369,0.214,0.606,0.307V36.692L79.086,36.692z M79.086,42.551c-1.599-0.179-2.939-0.521-4.015-1.032
				c-1.334-0.627-2.182-1.519-2.554-2.671l4.836-0.245c0.196,0.466,0.569,0.87,1.113,1.208c0.197,0.125,0.403,0.236,0.619,0.335
				V42.551z"/>
		</g>
		<g>
			<path fill-rule="evenodd" clip-rule="evenodd" fill="#F2A900" d="M121.062,147.181c16.788,0,30.481-13.693,30.481-30.482
				s-13.693-30.481-30.481-30.481c-16.789,0-30.481,13.692-30.481,30.481S104.272,147.181,121.062,147.181z"/>
			<path fill-rule="evenodd" clip-rule="evenodd" fill="#FFD573" d="M121.062,141.261c13.528,0,24.563-11.033,24.563-24.563
				c0-13.528-11.035-24.563-24.563-24.563s-24.563,11.034-24.563,24.563C96.499,130.228,107.533,141.261,121.062,141.261z"/>
		</g>
	</g>
	<g>
		<path fill="#F2A900" d="M109.604,112.897h2.524c0.315-1.578,0.806-3.008,1.47-4.29s1.473-2.377,2.426-3.284
			s2.031-1.604,3.234-2.09s2.501-0.729,3.896-0.729c1.854,0,3.441,0.358,4.763,1.074c1.321,0.717,2.416,1.68,3.283,2.89
			l-1.933,2.051c-0.145,0.158-0.296,0.3-0.453,0.424c-0.158,0.125-0.382,0.188-0.671,0.188s-0.549-0.104-0.779-0.315
			c-0.229-0.21-0.503-0.443-0.818-0.7c-0.315-0.256-0.717-0.489-1.203-0.7c-0.486-0.21-1.137-0.315-1.952-0.315
			c-1.407,0-2.601,0.486-3.58,1.46c-0.979,0.973-1.673,2.419-2.08,4.339h9.525v1.637c0,0.315-0.135,0.614-0.404,0.897
			c-0.27,0.282-0.634,0.424-1.095,0.424h-8.401c-0.013,0.197-0.02,0.397-0.02,0.602s0,0.411,0,0.621v0.828h8.027v1.637
			c0,0.316-0.136,0.615-0.404,0.897c-0.271,0.283-0.629,0.425-1.075,0.425h-6.252c0.354,2.09,1.012,3.648,1.972,4.674
			s2.144,1.538,3.551,1.538c0.591,0,1.101-0.059,1.528-0.178c0.427-0.118,0.795-0.263,1.104-0.434
			c0.309-0.171,0.568-0.358,0.778-0.562c0.211-0.204,0.404-0.392,0.582-0.563s0.349-0.315,0.513-0.434
			c0.165-0.119,0.352-0.178,0.563-0.178c0.171,0,0.313,0.023,0.424,0.069s0.233,0.141,0.365,0.285l2.366,2.131
			c-0.907,1.446-2.084,2.551-3.53,3.313c-1.446,0.763-3.109,1.145-4.989,1.145c-1.552,0-2.942-0.26-4.172-0.779
			s-2.297-1.252-3.204-2.199c-0.907-0.946-1.65-2.084-2.229-3.412c-0.578-1.327-0.992-2.8-1.242-4.417h-2.406v-2.959h2.15
			c-0.014-0.145-0.021-0.282-0.021-0.414c0-0.131,0-0.27,0-0.414c0-0.21,0.004-0.414,0.01-0.611c0.007-0.197,0.017-0.401,0.03-0.611
			h-2.17V112.897z"/>
	</g>
</g>
</svg>
