<?xml version="1.0" encoding="utf-8"?>
<!-- Generator: Adobe Illustrator 16.0.0, SVG Export Plug-In . SVG Version: 6.00 Build 0)  -->
<!DOCTYPE svg PUBLIC "-//W3C//DTD SVG 1.1//EN" "http://www.w3.org/Graphics/SVG/1.1/DTD/svg11.dtd">
<svg version="1.1" id="Capa_1" xmlns="http://www.w3.org/2000/svg" xmlns:xlink="http://www.w3.org/1999/xlink" x="0px" y="0px"
	 width="150px" height="150px" viewBox="0 0 150 150" enable-background="new 0 0 150 150" xml:space="preserve">
<g>
	<g>
		<path fill="#FFFFFF" d="M149.59,70.46c0,2.964,0,5.931,0,8.896c-0.038,0.205-0.097,0.412-0.109,0.62
			c-0.302,4.64-1.034,9.211-2.216,13.706c-9.476,36.071-43.907,59.643-80.952,55.411c-10.666-1.219-20.61-4.593-29.845-10.074
			C8.5,122.414-5.499,89.289,2.007,57.659C10.686,21.08,46.061-4.789,85.824,0.995c15.312,2.228,28.702,8.674,39.994,19.25
			c13.536,12.676,21.335,28.303,23.417,46.754C149.363,68.151,149.471,69.307,149.59,70.46z"/>
	</g>
	<g>
		<path fill="#FFD023" d="M122.906,17.592c2.246,1.828,4.355,3.815,6.338,5.924c3.697,3.93,6.962,8.197,9.754,12.82
			c3.105,5.139,5.537,10.581,7.334,16.307c0.854,2.715,1.553,5.473,2.07,8.269c0.405,2.211,0.726,4.44,0.961,6.682
			c0.068,0.656-0.061,1.346,0.225,1.979c0,3.557,0,7.117,0,10.675c-0.294,0.581-0.187,1.225-0.231,1.829
			c-0.275,3.689-0.989,7.306-1.856,10.884c-0.88,3.633-2.099,7.169-3.532,10.63c-1.998,4.823-4.489,9.368-7.452,13.66
			c-1.835,2.66-3.844,5.183-6.012,7.584c-1.59,1.762-3.263,3.442-4.992,5.059c-2.423,2.261-5.022,4.318-7.739,6.225
			c-2.393,1.675-4.868,3.213-7.438,4.591c-3.037,1.631-6.175,3.045-9.413,4.238c-2.657,0.98-5.345,1.866-8.102,2.503
			c-2.829,0.655-5.662,1.272-8.563,1.57c-1.95,0.197-3.895,0.381-5.852,0.515c-2.072,0.142-4.145,0.109-6.211,0.057
			c-0.959-0.024-1.941,0.024-2.896-0.187c-0.216-0.049-0.354-0.042-0.329-0.378c0.11-1.453-0.247-2.803-1.073-4.015
			c-0.104-0.151-0.3-0.308-0.202-0.497c0.103-0.194,0.35-0.11,0.524-0.092c3.204,0.34,6.419,0.311,9.629,0.229
			c2.439-0.061,4.868-0.342,7.289-0.701c3.153-0.466,6.252-1.161,9.313-2.044c2.909-0.84,5.742-1.873,8.508-3.091
			c4.327-1.907,8.431-4.225,12.279-6.968c2.202-1.567,4.329-3.229,6.328-5.058c1.375-1.261,2.693-2.573,3.993-3.905
			c2.348-2.408,4.442-5.028,6.409-7.756c2.553-3.55,4.688-7.342,6.519-11.302c2.302-4.98,3.967-10.18,5.009-15.573
			c0.586-3.041,0.976-6.104,1.166-9.201c0.156-2.561,0.194-5.125,0.061-7.674c-0.304-5.912-1.32-11.709-3.122-17.366
			c-1.258-3.938-2.814-7.747-4.735-11.398c-2.269-4.312-4.938-8.356-8.065-12.104c-1.789-2.145-3.683-4.189-5.678-6.142
			c-0.148-0.146-0.314-0.28-0.473-0.419C122.734,21.831,122.819,19.711,122.906,17.592z"/>
		<path fill="#FFD023" d="M54.547,103.118c-2.756-0.317-5.16,0.448-7.23,2.306c-2.058,1.848-3.008,4.18-3.061,6.9
			c-0.012,0.688,0.083,1.392,0.292,2.058c0.138,0.447,0.005,0.581-0.432,0.553c-1.283-0.083-2.519,0.111-3.725,0.575
			c-0.681,0.267-1.299,0.623-1.877,1.047c-0.347,0.256-0.518,0.258-0.793-0.128c-2.17-3.029-5.019-5.174-8.54-6.396
			c-2.094-0.727-4.263-1.022-6.479-0.928c-0.524,0.022-1.059,0.063-1.566,0.187c-0.453,0.109-0.694-0.019-0.934-0.396
			c-2.221-3.514-4.06-7.221-5.55-11.1c-1.684-4.387-2.873-8.91-3.555-13.559c-0.285-1.937-0.447-3.889-0.569-5.849
			c-0.116-1.841-0.121-3.681-0.072-5.516c0.071-2.568,0.322-5.124,0.71-7.672c0.589-3.892,1.52-7.693,2.817-11.405
			c1.567-4.486,3.599-8.75,6.123-12.779c2.229-3.554,4.769-6.857,7.628-9.933c4.646-4.999,9.954-9.125,15.91-12.438
			c5.109-2.842,10.5-4.962,16.19-6.304c2.624-0.619,5.277-1.074,7.962-1.379c3.286-0.374,6.58-0.44,9.873-0.333
			c2.797,0.092,5.585,0.421,8.348,0.914c2.324,0.415,4.619,0.964,6.893,1.606c-0.077,0.069-0.154,0.138-0.233,0.207
			c-0.839,0.755-1.852,1.31-2.571,2.206c-0.268-0.045-0.426,0.13-0.602,0.288c-0.422,0.384-0.846,0.764-1.279,1.134
			c-2.394,2.043-4.67,4.216-6.819,6.511c-2.882,3.081-5.627,6.282-8.201,9.633c-3.038,3.957-5.821,8.077-8.391,12.345
			c-2.389,3.97-4.535,8.071-6.471,12.281c-0.996,2.166-1.929,4.356-2.784,6.581c-1.956,0.006-3.865,0.391-5.746,0.849
			c-8.88,2.161-16.265,6.723-21.987,13.891c-3.779,4.736-6.347,10.064-7.685,15.977c-0.182,0.804-0.333,1.613-0.522,2.544
			c0.193-0.131,0.261-0.172,0.325-0.221c3.523-2.734,7.409-4.785,11.627-6.23c3.054-1.043,6.199-1.648,9.392-1.964
			c2.026-0.201,4.076-0.168,6.112-0.014c0.625,0.048,1.272,0.015,1.877,0.247c-0.034,1.256-0.209,2.499-0.364,3.744
			c-0.048,0.391,0.005,0.649,0.447,0.735c0.451,0.089,0.903,0.193,1.338,0.342c0.25,0.086,0.616-0.018,0.729,0.357
			c-0.548,0.898-1.078,1.809-1.656,2.687c-0.241,0.363-0.162,0.514,0.183,0.716c1.762,1.027,3.514,2.076,5.265,3.121
			c0.127,0.076,0.237,0.173,0.396,0.097c-0.004,0.065-0.006,0.134-0.009,0.201C55.037,101.983,54.794,102.553,54.547,103.118z
			 M38.187,108.974c1.936,0.135,3.914-1.57,3.871-3.824c-0.047-2.355-1.705-3.857-3.926-3.882c-2.146-0.021-3.805,1.793-3.844,3.912
			C34.254,106.998,36.057,109.184,38.187,108.974z"/>
		<path fill="#FFD023" d="M121.844,30.515c-0.022,0.687,0.537,1.039,0.912,1.453c2.121,2.334,4.039,4.825,5.781,7.448
			c2.95,4.438,5.311,9.172,7.082,14.203c1.313,3.734,2.283,7.55,2.884,11.454c0.414,2.688,0.598,5.399,0.714,8.122
			c0.079,1.845-0.008,3.678-0.09,5.504c-0.144,3.22-0.62,6.409-1.295,9.567c-1.241,5.823-3.249,11.366-6.041,16.621
			c-1.997,3.76-4.345,7.29-7.054,10.579c-1.575,1.912-3.216,3.759-4.998,5.475c-3.977,3.826-8.35,7.123-13.149,9.856
			c-3.837,2.186-7.854,3.948-12.051,5.302c-3.315,1.066-6.699,1.859-10.152,2.359c-2.38,0.344-4.771,0.516-7.17,0.669
			c-2.124,0.135-4.226-0.013-6.333-0.066c-1.323-0.031-2.643-0.234-3.963-0.361c-0.483-0.048-0.291-0.281-0.138-0.506
			c0.603-0.89,0.999-1.841,1.128-2.923c0.217-1.812-0.262-3.413-1.442-4.754c-1.982-2.25-4.594-2.833-7.353-1.703
			c-0.847,0.347-1.595,0.885-2.175,1.604c-0.225,0.276-0.383,0.254-0.62,0.084c-1.389-0.998-2.912-1.712-4.578-2.109
			c-0.479-0.116-0.392-0.375-0.221-0.704c0.694-1.339,1.027-2.769,0.961-4.273c-0.024-0.543-0.149-1.082-0.22-1.624
			c-0.036-0.263-0.097-0.492,0.354-0.446c2.403,0.248,4.568-0.418,6.463-1.882c2.607-2.013,3.744-4.736,3.556-7.985
			c-0.079-1.346-0.42-2.666-1.256-3.791c0.497-0.601,0.994-1.198,1.49-1.798c1.682,1.003,3.366,1.999,5.042,3.011
			c0.875,0.528,0.9,0.558,1.395-0.32c0.446-0.794,1.053-1.504,1.332-2.392c0.226-0.038,0.405,0.03,0.567,0.2
			c0.378,0.398,0.831,0.743,1.139,1.188c0.312,0.452,0.561,0.386,0.929,0.127c1.053-0.732,2.117-1.448,3.177-2.169
			c0.801,1.34,1.728,2.603,2.478,3.98c4.086,7.495,5.712,15.468,4.73,23.96c-0.059,0.503-0.109,1.009-0.179,1.64
			c0.292-0.213,0.464-0.328,0.623-0.458c2.41-1.957,4.584-4.154,6.434-6.641c6.313-8.501,9.019-18.005,7.861-28.571
			c-0.426-3.897-1.438-7.63-2.969-11.232c-0.073-0.175-0.061-0.446-0.355-0.463c2.032-2.283,3.837-4.749,5.625-7.225
			c1.89-2.618,3.63-5.338,5.316-8.098c1.829-2.996,3.515-6.07,5.096-9.199c1.038-2.047,1.991-4.139,2.907-6.247
			c1.471-3.393,2.788-6.842,3.95-10.349c1.187-3.583,2.161-7.229,2.958-10.917c0.128-0.592,0.479-1.191,0.193-1.836
			c0.154-0.058,0.128-0.201,0.151-0.32C121.465,32.543,121.653,31.528,121.844,30.515z"/>
		<path fill="#FFD023" d="M98.491,9.173c-3.408-1.27-6.91-2.199-10.479-2.89c-2.607-0.504-5.235-0.822-7.884-1.04
			c-2.532-0.209-5.065-0.311-7.598-0.204c-4.571,0.194-9.101,0.755-13.565,1.813c-4.826,1.142-9.477,2.761-13.963,4.882
			c-5.089,2.404-9.802,5.388-14.192,8.907c-2.698,2.165-5.188,4.547-7.524,7.08c-3.923,4.254-7.262,8.942-10.021,14.042
			c-2.962,5.48-5.159,11.244-6.581,17.301c-0.606,2.582-1.072,5.193-1.347,7.837c-0.175,1.679-0.282,3.358-0.396,5.04
			c-0.093,1.398-0.117,2.792-0.075,4.182c0.085,2.884,0.306,5.759,0.712,8.62C6.234,89.4,7.38,93.928,8.953,98.349
			c1.541,4.336,3.524,8.47,5.908,12.403c0.269,0.442,0.209,0.639-0.204,0.867c-1.078,0.598-2.061,1.334-2.916,2.217
			c-0.398,0.414-0.612,0.362-0.888-0.103c-1.816-3.051-3.463-6.186-4.858-9.452C4.467,100.7,3.217,97.03,2.257,93.259
			c-0.519-2.042-1.004-4.098-1.305-6.179c-0.271-1.887-0.521-3.781-0.709-5.687c-0.282-2.87-0.231-5.742-0.22-8.614
			c0.011-2.924,0.304-5.826,0.729-8.721c0.739-5.045,1.977-9.965,3.717-14.752c1.446-3.979,3.207-7.813,5.336-11.482
			c1.476-2.542,3.063-5.004,4.811-7.362c1.434-1.934,2.965-3.785,4.576-5.577c1.546-1.717,3.169-3.359,4.859-4.924
			c3.366-3.116,6.999-5.904,10.894-8.341c2.244-1.402,4.531-2.724,6.91-3.874c4.346-2.1,8.845-3.803,13.509-5.06
			c2.157-0.583,4.335-1.083,6.537-1.444c2.117-0.349,4.246-0.617,6.385-0.827c3.464-0.34,6.933-0.293,10.392-0.188
			c3.046,0.095,6.083,0.441,9.086,1.042c1.898,0.382,3.813,0.689,5.688,1.19c3.267,0.875,6.479,1.906,9.613,3.182
			c0.292,0.121,0.576,0.263,0.904,0.267C102.143,6.998,100.316,8.084,98.491,9.173z"/>
		<path fill="#F19300" d="M121.844,30.515c-0.19,1.014-0.379,2.028-0.569,3.043c-0.022,0.12,0.004,0.261-0.15,0.32
			c-2.894-2.023-5.858-3.938-8.849-5.813c-2.111-1.323-4.214-2.667-6.403-3.861c-0.067-0.074-0.134-0.148-0.201-0.224
			c0.27-0.054,0.351-0.299,0.463-0.489c1.427-2.392,2.841-4.788,4.256-7.185c2.306-3.906,4.612-7.812,6.906-11.723
			c0.874-1.489,1.829-2.933,2.566-4.501c0.354-0.218,0.416,0.039,0.501,0.298c0.659,2.05,1.181,4.135,1.55,6.254
			c0.537,3.079,0.899,6.171,0.886,9.307c-0.002,0.539-0.073,1.112,0.105,1.653c-0.087,2.12-0.171,4.239-0.258,6.36
			c-0.209,1.75-0.417,3.5-0.628,5.251C121.966,29.641,121.902,30.078,121.844,30.515z"/>
		<path fill="#F8AF15" d="M119.864,0.081c-0.737,1.568-1.692,3.011-2.566,4.501c-2.295,3.911-4.603,7.817-6.906,11.723
			c-1.415,2.396-2.831,4.792-4.256,7.185c-0.113,0.19-0.193,0.435-0.463,0.489c-0.151-0.071-0.308-0.134-0.452-0.216
			c-4.959-2.88-9.981-5.641-15.112-8.2c0.719-0.896,1.73-1.45,2.571-2.205c0.077-0.069,0.156-0.138,0.233-0.207
			c1.831-1.366,3.687-2.695,5.578-3.978c1.825-1.087,3.652-2.174,5.48-3.263c3.626-1.906,7.349-3.58,11.29-4.739
			C116.774,0.726,118.285,0.271,119.864,0.081z"/>
		<path fill="#F19300" d="M62.874,105.887c-0.497,0.599-0.995,1.198-1.49,1.797c-1.835,2.067-3.703,4.102-5.819,5.89
			c-1.145,0.967-2.33,1.885-3.638,2.627c-0.305,0.177-0.539,0.281-0.396-0.245c1.041-1.488,1.88-3.098,2.802-4.656
			c2.279-3.853,4.566-7.7,6.841-11.556c3.142-5.331,6.269-10.671,9.413-15.999c2.692-4.564,5.405-9.116,8.09-13.687
			c0.38-0.645,0.885-1.237,1.024-2.011c0.168-0.13,0.334-0.262,0.501-0.394c0.183,0.092,0.104,0.253,0.101,0.392
			c-0.042,1.72-0.306,3.41-0.688,5.082c-1.316,5.781-3.63,11.176-6.316,16.428c-2.21,4.32-4.757,8.438-7.534,12.416
			c-0.484,0.64-0.988,1.267-1.449,1.924C63.842,104.564,63.221,105.126,62.874,105.887z"/>
		<path fill="#F8AF15" d="M79.699,68.047c-0.139,0.773-0.644,1.366-1.024,2.011c-2.685,4.57-5.398,9.122-8.09,13.687
			c-3.145,5.328-6.27,10.668-9.413,15.999c-2.273,3.855-4.562,7.703-6.841,11.556c-0.923,1.559-1.761,3.168-2.802,4.656
			c0.033-2.385,0.536-4.692,1.131-6.986c0.515-1.986,1.249-3.902,1.888-5.851c0.245-0.565,0.49-1.135,0.735-1.702
			c0.725-1.488,1.411-2.994,2.03-4.53c0.076-0.127,0.162-0.249,0.225-0.381c2.319-4.762,4.994-9.313,8.021-13.658
			c2.896-4.157,6.06-8.091,9.807-11.523C76.704,70.097,78.077,68.906,79.699,68.047z"/>
		<path fill="#FFFFFF" d="M79.699,68.047c-1.622,0.86-2.995,2.05-4.333,3.276c-3.749,3.432-6.911,7.367-9.808,11.523
			c-3.027,4.346-5.703,8.897-8.02,13.658c-0.064,0.132-0.15,0.254-0.226,0.381c-0.039-0.004-0.077-0.003-0.113,0.01
			c-1.967-0.938-4.001-1.697-6.094-2.301c-0.114-0.377-0.479-0.272-0.731-0.358c-0.433-0.147-0.885-0.252-1.337-0.341
			c-0.442-0.087-0.495-0.345-0.447-0.736c0.155-1.245,0.33-2.488,0.364-3.744c0.215-0.269,0.173-0.604,0.215-0.908
			c0.65-4.788,1.688-9.492,3.012-14.135c0.968-3.399,2.152-6.725,3.378-10.036c0.855-2.225,1.789-4.416,2.786-6.581
			c1.936-4.21,4.083-8.311,6.469-12.281c2.57-4.268,5.354-8.39,8.393-12.345c2.574-3.352,5.317-6.552,8.201-9.633
			c2.149-2.296,4.423-4.468,6.819-6.512c0.434-0.37,0.857-0.75,1.279-1.134c0.176-0.158,0.332-0.334,0.602-0.288
			c5.131,2.561,10.153,5.321,15.112,8.2c0.143,0.082,0.301,0.145,0.452,0.216c0.067,0.075,0.134,0.151,0.201,0.224
			c-0.213,0.2-0.432,0.376-0.586,0.645c-1.452,2.491-2.94,4.962-4.382,7.458c-0.467,0.812-1.111,1.543-1.279,2.512
			c-0.077-0.017-0.154-0.031-0.231-0.047c-0.16-0.1-0.314-0.211-0.484-0.296c-2.877-1.458-5.893-1.838-9.063-1.239
			c-7.277,1.373-12.279,8.92-10.712,16.155c0.85,3.908,2.964,6.91,6.306,9.074c-0.222,0.551-0.588,1.017-0.887,1.523
			c-1.072,1.813-2.148,3.621-3.191,5.449c-0.413,0.724-1.016,1.354-1.161,2.217C80.033,67.784,79.867,67.917,79.699,68.047z"/>
		<path fill="#F8AF15" d="M55.559,64.337c-1.227,3.311-2.412,6.636-3.378,10.035c-1.324,4.644-2.362,9.348-3.012,14.136
			c-0.042,0.305,0,0.64-0.216,0.908c-0.604-0.232-1.253-0.199-1.877-0.246c-2.036-0.155-4.086-0.188-6.111,0.013
			c-3.194,0.314-6.339,0.921-9.393,1.964c-4.22,1.445-8.104,3.496-11.627,6.23c-0.064,0.049-0.132,0.09-0.325,0.221
			c0.189-0.931,0.34-1.74,0.522-2.544c1.34-5.913,3.906-11.241,7.685-15.977c5.722-7.168,13.106-11.729,21.987-13.891
			C51.693,64.728,53.604,64.343,55.559,64.337z"/>
		<path fill="#010101" d="M51.104,94.595c2.093,0.604,4.127,1.363,6.094,2.301c-0.068,0.152-0.135,0.305-0.204,0.459
			c-0.58,1.281-1.267,2.514-1.702,3.859c-0.159,0.078-0.27-0.02-0.396-0.096c-1.753-1.046-3.503-2.094-5.265-3.121
			c-0.345-0.202-0.424-0.353-0.183-0.716C50.028,96.403,50.556,95.492,51.104,94.595z"/>
		<path fill="#C8CDDD" d="M55.292,101.214c0.436-1.346,1.124-2.578,1.702-3.859c0.068-0.152,0.137-0.306,0.205-0.459
			c0.037-0.013,0.075-0.014,0.113-0.01c-0.62,1.536-1.306,3.042-2.029,4.53C55.286,101.347,55.29,101.28,55.292,101.214z"/>
		<path fill="#EDEBEC" d="M99.625,34.817c0.168-0.97,0.813-1.701,1.279-2.512c1.441-2.497,2.93-4.968,4.382-7.458
			c0.154-0.269,0.373-0.445,0.586-0.645c2.189,1.194,4.29,2.538,6.403,3.861c2.99,1.876,5.955,3.792,8.849,5.813
			c0.284,0.645-0.065,1.245-0.194,1.836c-0.797,3.688-1.771,7.334-2.957,10.917c-1.163,3.507-2.479,6.956-3.951,10.349
			c-0.913,2.108-1.868,4.2-2.906,6.247c-1.581,3.128-3.269,6.202-5.096,9.199c-1.687,2.76-3.427,5.479-5.316,8.098
			c-1.786,2.476-3.593,4.941-5.626,7.225c-0.088,0.121-0.169,0.243-0.264,0.356c-4.521,5.366-9.445,10.324-14.92,14.727
			c-1.136,0.915-2.293,1.801-3.438,2.702c-1.06,0.721-2.126,1.437-3.178,2.169c-0.368,0.26-0.617,0.325-0.929-0.127
			c-0.307-0.445-0.761-0.79-1.139-1.188c-0.161-0.17-0.34-0.238-0.568-0.2c-1.555-1.488-3.165-2.913-4.879-4.216
			c2.777-3.978,5.324-8.097,7.535-12.416c2.686-5.25,4.999-10.647,6.316-16.428c0.382-1.671,0.646-3.362,0.688-5.082
			c0.004-0.138,0.083-0.299-0.101-0.392c0.146-0.863,0.748-1.493,1.161-2.217c1.043-1.828,2.119-3.636,3.191-5.449
			c0.299-0.506,0.665-0.973,0.887-1.523c0.036,0.009,0.073,0.019,0.111,0.023c2.472,1.532,5.16,2.143,8.054,1.957
			c9.299-0.594,15.346-10.238,11.823-18.855C104.239,38.686,102.267,36.469,99.625,34.817z"/>
		<path fill="#F19300" d="M76.455,105.532c1.146-0.9,2.305-1.788,3.438-2.701c5.475-4.402,10.397-9.361,14.92-14.728
			c0.097-0.114,0.178-0.236,0.264-0.355c0.296,0.017,0.283,0.288,0.356,0.462c1.529,3.602,2.543,7.334,2.969,11.231
			c1.155,10.566-1.548,20.072-7.861,28.571c-1.85,2.487-4.023,4.685-6.434,6.641c-0.16,0.131-0.333,0.247-0.623,0.459
			c0.067-0.631,0.12-1.136,0.179-1.64c0.981-8.492-0.645-16.466-4.73-23.96C78.183,108.134,77.256,106.873,76.455,105.532z"/>
		<path fill="#010101" d="M65.762,101.97c1.714,1.304,3.323,2.728,4.879,4.216c-0.278,0.889-0.883,1.598-1.332,2.391
			c-0.494,0.88-0.52,0.85-1.394,0.32c-1.677-1.012-3.361-2.008-5.042-3.01c0.347-0.761,0.968-1.322,1.439-1.993
			C64.773,103.236,65.278,102.609,65.762,101.97z"/>
		<path fill="#F19300" d="M99.625,34.817c2.642,1.65,4.614,3.869,5.803,6.772c3.521,8.617-2.524,18.262-11.823,18.855
			c-2.894,0.186-5.584-0.425-8.054-1.957c0.385-0.686,0.752-1.385,1.162-2.057c0.312-0.508,0.521-1.09,1.003-1.482
			c1.757,0.999,3.634,1.462,5.66,1.315c3.854-0.281,7.186-2.878,8.39-6.566c1.192-3.659,0.028-7.799-2.899-10.257
			c-0.43-0.361-0.839-0.773-1.413-0.919c-0.047-0.065-0.096-0.132-0.142-0.197c0.778-1.135,1.498-2.305,2.082-3.555
			C99.471,34.786,99.548,34.802,99.625,34.817z"/>
		<path fill="#F8AF15" d="M99.394,34.77c-0.584,1.25-1.304,2.42-2.082,3.555c-0.29-0.126-0.578-0.253-0.866-0.379
			c-1.886-0.811-3.838-1.016-5.834-0.563c-4.94,1.12-8.076,5.503-7.441,10.553c0.375,2.985,1.874,5.345,4.512,6.908
			c0.009,0.036,0.022,0.07,0.035,0.105c-0.483,0.393-0.692,0.974-1.004,1.482c-0.41,0.672-0.776,1.371-1.162,2.057
			c-0.038-0.005-0.075-0.014-0.111-0.023c-3.342-2.164-5.455-5.166-6.305-9.074c-1.567-7.235,3.434-14.783,10.711-16.155
			c3.171-0.599,6.188-0.219,9.063,1.239C99.079,34.559,99.233,34.67,99.394,34.77z"/>
		<path fill="#D0E7F3" d="M87.716,54.948c-0.014-0.035-0.025-0.069-0.036-0.105c0.665-1.144,1.324-2.291,1.997-3.429
			c2.279-3.859,4.559-7.721,6.86-11.567c0.273-0.456,0.393-1.035,0.916-1.325c0.574,0.146,0.983,0.559,1.413,0.919
			c2.928,2.458,4.092,6.598,2.899,10.257c-1.204,3.687-4.535,6.285-8.39,6.566C91.35,56.411,89.473,55.947,87.716,54.948z"/>
		<path fill="#FDFDFC" d="M97.453,38.522c-0.521,0.291-0.641,0.868-0.914,1.325c-2.304,3.847-4.581,7.708-6.862,11.567
			c-0.673,1.139-1.332,2.285-1.995,3.429c-2.636-1.563-4.137-3.923-4.512-6.908c-0.635-5.05,2.501-9.433,7.441-10.553
			c1.994-0.452,3.948-0.248,5.834,0.563c0.29,0.125,0.578,0.253,0.866,0.379C97.359,38.391,97.406,38.458,97.453,38.522z"/>
	</g>
</g>
</svg>
