<?xml version="1.0" encoding="utf-8"?>
<!-- Generator: Adobe Illustrator 16.0.0, SVG Export Plug-In . SVG Version: 6.00 Build 0)  -->
<!DOCTYPE svg PUBLIC "-//W3C//DTD SVG 1.1//EN" "http://www.w3.org/Graphics/SVG/1.1/DTD/svg11.dtd">
<svg version="1.1" id="Capa_1" xmlns="http://www.w3.org/2000/svg" xmlns:xlink="http://www.w3.org/1999/xlink" x="0px" y="0px"
	 width="150px" height="150px" viewBox="0 0 150 150" enable-background="new 0 0 150 150" xml:space="preserve">
<g>
	<g>
		<path fill="#FFFFFF" d="M150.044,70.691c0,2.972,0,5.946,0,8.917c-0.038,0.206-0.097,0.414-0.109,0.622
			c-0.302,4.651-1.037,9.234-2.221,13.742c-9.5,36.161-44.019,59.792-81.157,55.55c-10.693-1.222-20.664-4.604-29.921-10.1
			C8.597,122.775-5.437,89.567,2.088,57.857C10.789,21.186,46.253-4.749,86.117,1.049c15.35,2.233,28.775,8.696,40.096,19.298
			c13.569,12.708,21.389,28.375,23.476,46.873C149.817,68.376,149.926,69.535,150.044,70.691z"/>
	</g>
	<g>
		<path fill="#C89D64" d="M123.294,17.688c2.251,1.833,4.365,3.825,6.354,5.939c3.708,3.939,6.98,8.217,9.778,12.853
			c3.113,5.152,5.551,10.607,7.354,16.348c0.854,2.723,1.555,5.487,2.075,8.29c0.406,2.217,0.727,4.451,0.963,6.699
			c0.068,0.658-0.061,1.349,0.226,1.984c0,3.566,0,7.133,0,10.701c-0.296,0.583-0.188,1.228-0.233,1.834
			c-0.276,3.699-0.991,7.324-1.859,10.912c-0.883,3.642-2.104,7.187-3.542,10.656c-2.004,4.835-4.501,9.393-7.471,13.694
			c-1.841,2.667-3.854,5.196-6.027,7.604c-1.594,1.767-3.271,3.45-5.005,5.071c-2.429,2.267-5.034,4.329-7.759,6.24
			c-2.397,1.68-4.88,3.222-7.456,4.603c-3.045,1.636-6.191,3.055-9.438,4.25c-2.663,0.981-5.357,1.871-8.122,2.51
			c-2.835,0.655-5.677,1.275-8.586,1.573c-1.953,0.198-3.904,0.381-5.865,0.516c-2.078,0.142-4.155,0.109-6.228,0.057
			c-0.961-0.024-1.946,0.024-2.903-0.188c-0.217-0.049-0.355-0.041-0.33-0.378c0.11-1.457-0.247-2.81-1.076-4.023
			c-0.104-0.153-0.301-0.311-0.202-0.499c0.103-0.195,0.35-0.112,0.525-0.093c3.211,0.342,6.435,0.312,9.653,0.229
			c2.446-0.061,4.882-0.342,7.308-0.702c3.162-0.467,6.268-1.163,9.338-2.05c2.916-0.84,5.756-1.877,8.528-3.097
			c4.338-1.914,8.452-4.237,12.311-6.986c2.207-1.571,4.341-3.237,6.345-5.071c1.379-1.263,2.701-2.58,4.004-3.915
			c2.353-2.414,4.452-5.041,6.424-7.776c2.561-3.558,4.7-7.359,6.535-11.33c2.309-4.993,3.978-10.203,5.022-15.611
			c0.588-3.05,0.978-6.121,1.169-9.226c0.156-2.566,0.194-5.138,0.061-7.693c-0.305-5.927-1.324-11.739-3.13-17.41
			c-1.26-3.949-2.821-7.767-4.748-11.427c-2.273-4.323-4.95-8.377-8.084-12.135c-1.796-2.15-3.692-4.2-5.693-6.157
			c-0.149-0.147-0.315-0.28-0.474-0.419C123.121,21.938,123.207,19.814,123.294,17.688z"/>
		<path fill="#C89D64" d="M54.761,103.433c-2.763-0.32-5.173,0.449-7.249,2.312c-2.063,1.851-3.016,4.189-3.069,6.917
			c-0.013,0.69,0.083,1.395,0.292,2.063c0.139,0.447,0.005,0.581-0.433,0.553c-1.286-0.083-2.525,0.111-3.735,0.578
			c-0.683,0.267-1.302,0.623-1.882,1.049c-0.348,0.257-0.52,0.259-0.795-0.129c-2.176-3.036-5.031-5.187-8.562-6.412
			c-2.099-0.729-4.274-1.025-6.495-0.931c-0.526,0.022-1.062,0.064-1.571,0.187c-0.454,0.112-0.695-0.017-0.936-0.396
			c-2.227-3.522-4.07-7.239-5.564-11.128c-1.688-4.396-2.88-8.933-3.564-13.593c-0.285-1.941-0.448-3.898-0.57-5.864
			c-0.116-1.845-0.122-3.689-0.073-5.528c0.071-2.575,0.323-5.138,0.712-7.692c0.59-3.902,1.523-7.713,2.824-11.434
			c1.571-4.497,3.607-8.772,6.138-12.811c2.234-3.563,4.781-6.875,7.647-9.958c4.657-5.011,9.979-9.147,15.95-12.469
			c5.122-2.85,10.527-4.976,16.231-6.321c2.631-0.621,5.291-1.077,7.982-1.382c3.295-0.375,6.597-0.441,9.898-0.334
			c2.805,0.092,5.599,0.423,8.368,0.917c2.331,0.416,4.632,0.967,6.911,1.61c-0.077,0.069-0.156,0.138-0.234,0.208
			c-0.841,0.757-1.856,1.313-2.578,2.211c-0.269-0.045-0.427,0.13-0.602,0.288c-0.425,0.385-0.848,0.766-1.283,1.137
			c-2.401,2.049-4.682,4.227-6.837,6.529c-2.891,3.088-5.642,6.297-8.222,9.657c-3.046,3.966-5.836,8.098-8.413,12.376
			c-2.395,3.979-4.545,8.092-6.487,12.313c-0.999,2.171-1.934,4.367-2.792,6.597c-1.96,0.006-3.875,0.391-5.76,0.851
			c-8.903,2.167-16.307,6.74-22.043,13.926c-3.788,4.747-6.362,10.09-7.705,16.017c-0.182,0.807-0.333,1.616-0.523,2.55
			c0.194-0.13,0.261-0.172,0.326-0.221c3.532-2.74,7.428-4.798,11.657-6.246c3.062-1.046,6.215-1.652,9.416-1.968
			c2.031-0.203,4.086-0.171,6.128-0.016c0.626,0.049,1.275,0.016,1.882,0.248c-0.034,1.26-0.21,2.506-0.364,3.754
			c-0.048,0.392,0.005,0.651,0.447,0.736c0.453,0.089,0.906,0.195,1.342,0.345c0.251,0.085,0.618-0.02,0.731,0.356
			c-0.55,0.901-1.081,1.813-1.661,2.693c-0.241,0.364-0.162,0.516,0.184,0.718c1.766,1.031,3.522,2.081,5.277,3.13
			c0.128,0.076,0.238,0.173,0.398,0.096c-0.004,0.066-0.005,0.134-0.009,0.202C55.252,102.293,55.009,102.865,54.761,103.433z
			 M38.359,109.302c1.94,0.137,3.923-1.575,3.88-3.834c-0.047-2.36-1.709-3.868-3.936-3.891c-2.151-0.022-3.814,1.797-3.854,3.921
			C34.417,107.321,36.224,109.512,38.359,109.302z"/>
		<path fill="#C89D64" d="M122.229,30.644c-0.022,0.688,0.537,1.041,0.913,1.457c2.127,2.34,4.051,4.837,5.797,7.467
			c2.958,4.449,5.324,9.195,7.099,14.239c1.317,3.743,2.29,7.569,2.892,11.483c0.416,2.695,0.6,5.413,0.717,8.143
			c0.078,1.85-0.008,3.687-0.09,5.517c-0.145,3.228-0.623,6.426-1.299,9.593c-1.244,5.838-3.258,11.395-6.058,16.663
			c-2.001,3.768-4.354,7.309-7.07,10.605c-1.578,1.917-3.224,3.768-5.011,5.488c-3.986,3.836-8.371,7.142-13.183,9.881
			c-3.848,2.191-7.874,3.959-12.082,5.315c-3.323,1.07-6.716,1.864-10.178,2.366c-2.386,0.344-4.782,0.518-7.188,0.671
			c-2.128,0.135-4.235-0.013-6.348-0.066c-1.327-0.032-2.649-0.236-3.973-0.362c-0.484-0.048-0.292-0.282-0.139-0.509
			c0.604-0.891,1.001-1.845,1.131-2.929c0.218-1.817-0.262-3.423-1.445-4.767c-1.988-2.256-4.606-2.839-7.372-1.708
			c-0.849,0.348-1.599,0.888-2.18,1.609c-0.226,0.275-0.383,0.253-0.621,0.083c-1.393-1.001-2.919-1.717-4.589-2.115
			c-0.48-0.116-0.393-0.376-0.222-0.704c0.696-1.344,1.03-2.777,0.964-4.286c-0.024-0.544-0.149-1.084-0.221-1.628
			c-0.036-0.263-0.097-0.493,0.355-0.447c2.409,0.249,4.58-0.42,6.479-1.887c2.613-2.018,3.753-4.749,3.564-8.005
			c-0.079-1.35-0.421-2.674-1.26-3.802c0.499-0.602,0.996-1.201,1.494-1.801c1.686,1.004,3.375,2.003,5.055,3.018
			c0.877,0.531,0.903,0.56,1.399-0.321c0.447-0.795,1.056-1.507,1.335-2.396c0.227-0.04,0.406,0.029,0.569,0.2
			c0.379,0.398,0.833,0.744,1.142,1.191c0.312,0.454,0.562,0.386,0.931,0.127c1.055-0.734,2.123-1.453,3.186-2.174
			c0.804,1.343,1.731,2.608,2.484,3.991c4.096,7.513,5.727,15.505,4.742,24.02c-0.059,0.504-0.11,1.012-0.18,1.644
			c0.293-0.214,0.465-0.329,0.624-0.46c2.416-1.96,4.597-4.164,6.45-6.657c6.33-8.521,9.042-18.05,7.882-28.644
			c-0.426-3.907-1.443-7.649-2.977-11.26c-0.074-0.176-0.061-0.448-0.357-0.465c2.038-2.289,3.849-4.762,5.64-7.243
			c1.895-2.625,3.641-5.351,5.331-8.118c1.833-3.003,3.523-6.085,5.107-9.222c1.041-2.053,1.997-4.149,2.915-6.263
			c1.475-3.4,2.795-6.859,3.96-10.375c1.191-3.593,2.166-7.248,2.966-10.945c0.129-0.593,0.479-1.194,0.193-1.841
			c0.155-0.058,0.129-0.201,0.151-0.321C121.849,32.678,122.038,31.661,122.229,30.644z"/>
		<path fill="#C89D64" d="M98.816,9.248c-3.417-1.272-6.929-2.204-10.504-2.896c-2.614-0.506-5.25-0.824-7.904-1.043
			c-2.538-0.21-5.08-0.312-7.618-0.205c-4.583,0.195-9.125,0.756-13.599,1.818c-4.839,1.145-9.501,2.768-14,4.894
			c-5.102,2.41-9.827,5.401-14.228,8.93c-2.705,2.17-5.202,4.559-7.543,7.098c-3.933,4.265-7.281,8.965-10.047,14.078
			c-2.97,5.494-5.172,11.272-6.598,17.345c-0.608,2.588-1.074,5.206-1.35,7.856c-0.176,1.684-0.282,3.367-0.397,5.053
			c-0.094,1.401-0.117,2.798-0.076,4.191c0.086,2.893,0.307,5.773,0.714,8.643c0.659,4.669,1.809,9.207,3.384,13.641
			c1.545,4.347,3.533,8.491,5.923,12.435c0.269,0.443,0.209,0.64-0.205,0.869c-1.081,0.6-2.066,1.337-2.923,2.223
			c-0.399,0.416-0.614,0.362-0.891-0.103c-1.821-3.059-3.472-6.202-4.871-9.477c-1.531-3.591-2.784-7.27-3.747-11.051
			c-0.52-2.047-1.006-4.108-1.308-6.193c-0.272-1.892-0.523-3.792-0.711-5.701c-0.282-2.879-0.231-5.756-0.22-8.636
			c0.012-2.931,0.305-5.84,0.731-8.743c0.74-5.059,1.981-9.99,3.727-14.789c1.449-3.989,3.215-7.834,5.35-11.512
			c1.479-2.548,3.071-5.017,4.822-7.381c1.438-1.939,2.973-3.794,4.588-5.591c1.549-1.721,3.176-3.368,4.871-4.937
			c3.375-3.125,7.016-5.919,10.922-8.362c2.249-1.406,4.542-2.731,6.928-3.884c4.357-2.105,8.867-3.813,13.543-5.073
			c2.162-0.584,4.346-1.085,6.554-1.448c2.122-0.35,4.256-0.618,6.401-0.829c3.473-0.34,6.95-0.294,10.417-0.188
			c3.054,0.095,6.1,0.442,9.109,1.044c1.904,0.383,3.822,0.691,5.701,1.193c3.275,0.877,6.495,1.911,9.638,3.19
			c0.293,0.121,0.579,0.263,0.906,0.268C102.477,7.068,100.646,8.158,98.816,9.248z"/>
		<path fill="#905E36" d="M122.229,30.644c-0.19,1.017-0.38,2.034-0.571,3.051c-0.022,0.12,0.004,0.262-0.151,0.321
			c-2.899-2.028-5.873-3.948-8.871-5.828c-2.117-1.327-4.225-2.674-6.419-3.872c-0.067-0.074-0.134-0.148-0.202-0.224
			c0.271-0.054,0.352-0.3,0.464-0.49c1.431-2.398,2.849-4.8,4.269-7.203c2.311-3.916,4.622-7.832,6.922-11.752
			c0.877-1.493,1.836-2.94,2.573-4.513c0.354-0.219,0.418,0.039,0.502,0.299c0.661,2.055,1.185,4.146,1.555,6.27
			c0.538,3.086,0.901,6.187,0.888,9.331c-0.002,0.541-0.074,1.115,0.106,1.657c-0.087,2.125-0.173,4.249-0.26,6.376
			c-0.21,1.755-0.418,3.509-0.629,5.264C122.352,29.768,122.288,30.206,122.229,30.644z"/>
		<path fill="#B07F48" d="M120.242,0.133c-0.736,1.572-1.695,3.019-2.572,4.513c-2.3,3.921-4.612,7.837-6.922,11.752
			c-1.42,2.403-2.84,4.805-4.269,7.203c-0.112,0.191-0.193,0.436-0.464,0.49c-0.151-0.072-0.308-0.134-0.452-0.217
			c-4.973-2.887-10.008-5.655-15.152-8.22c0.722-0.898,1.737-1.455,2.578-2.211c0.078-0.069,0.157-0.139,0.234-0.208
			c1.836-1.369,3.696-2.702,5.593-3.988c1.83-1.09,3.662-2.179,5.493-3.271c3.636-1.911,7.369-3.589,11.319-4.75
			C117.146,0.78,118.661,0.323,120.242,0.133z"/>
		<path fill="#905E36" d="M63.109,106.207c-0.499,0.6-0.997,1.201-1.494,1.801c-1.839,2.074-3.712,4.112-5.834,5.906
			c-1.147,0.97-2.336,1.889-3.647,2.633c-0.306,0.178-0.54,0.281-0.397-0.246c1.043-1.491,1.885-3.104,2.809-4.668
			c2.286-3.863,4.578-7.719,6.858-11.585c3.149-5.345,6.285-10.698,9.437-16.038c2.699-4.577,5.419-9.141,8.11-13.722
			c0.381-0.647,0.888-1.24,1.027-2.016c0.168-0.13,0.335-0.262,0.503-0.394c0.183,0.092,0.103,0.253,0.1,0.392
			c-0.04,1.724-0.306,3.418-0.688,5.095c-1.321,5.794-3.641,11.204-6.333,16.469c-2.216,4.33-4.77,8.459-7.553,12.448
			c-0.486,0.64-0.991,1.269-1.453,1.928C64.08,104.883,63.457,105.445,63.109,106.207z"/>
		<path fill="#B07F48" d="M79.977,68.271c-0.14,0.776-0.646,1.369-1.027,2.016c-2.69,4.582-5.411,9.145-8.11,13.722
			c-3.152,5.34-6.286,10.693-9.437,16.038c-2.279,3.866-4.573,7.722-6.859,11.585c-0.925,1.563-1.766,3.177-2.809,4.668
			c0.033-2.391,0.537-4.704,1.134-7.005c0.517-1.99,1.252-3.911,1.893-5.863c0.246-0.567,0.491-1.14,0.737-1.708
			c0.727-1.491,1.414-3.001,2.035-4.54c0.077-0.129,0.163-0.252,0.226-0.384c2.325-4.772,5.007-9.335,8.041-13.693
			c2.904-4.165,6.075-8.11,9.832-11.551C76.974,70.328,78.351,69.133,79.977,68.271z"/>
		<path fill="#FFFFFF" d="M79.977,68.271c-1.626,0.863-3.003,2.056-4.344,3.285c-3.758,3.44-6.928,7.386-9.833,11.551
			c-3.035,4.358-5.717,8.921-8.04,13.693c-0.064,0.132-0.15,0.255-0.227,0.384c-0.039-0.006-0.076-0.004-0.113,0.01
			c-1.972-0.94-4.012-1.702-6.109-2.309c-0.115-0.378-0.48-0.271-0.733-0.358c-0.435-0.147-0.888-0.254-1.341-0.343
			c-0.443-0.087-0.496-0.345-0.447-0.738c0.154-1.248,0.33-2.492,0.364-3.752c0.215-0.271,0.174-0.604,0.215-0.91
			c0.652-4.801,1.692-9.517,3.02-14.172c0.971-3.407,2.158-6.741,3.386-10.061c0.857-2.23,1.793-4.427,2.793-6.597
			c1.941-4.22,4.093-8.333,6.485-12.313c2.576-4.279,5.368-8.411,8.415-12.376c2.58-3.36,5.33-6.568,8.222-9.657
			c2.154-2.303,4.434-4.48,6.836-6.529c0.435-0.371,0.859-0.752,1.282-1.137c0.176-0.159,0.333-0.334,0.603-0.288
			c5.145,2.566,10.18,5.333,15.152,8.22c0.143,0.083,0.301,0.145,0.452,0.217c0.068,0.075,0.135,0.151,0.202,0.224
			c-0.213,0.201-0.433,0.377-0.588,0.646c-1.456,2.498-2.947,4.975-4.393,7.478c-0.469,0.814-1.114,1.547-1.282,2.518
			c-0.076-0.017-0.155-0.031-0.231-0.048c-0.162-0.1-0.316-0.211-0.485-0.296c-2.885-1.461-5.909-1.842-9.087-1.242
			c-7.296,1.376-12.311,8.942-10.739,16.196c0.852,3.918,2.972,6.928,6.321,9.097c-0.224,0.552-0.589,1.02-0.89,1.527
			c-1.073,1.817-2.153,3.629-3.199,5.462c-0.413,0.725-1.019,1.357-1.163,2.223C80.312,68.008,80.145,68.141,79.977,68.271z"/>
		<path fill="#B07F48" d="M55.775,64.553c-1.229,3.319-2.417,6.653-3.386,10.061c-1.328,4.656-2.368,9.371-3.02,14.171
			c-0.042,0.306,0,0.642-0.216,0.91c-0.606-0.232-1.256-0.199-1.882-0.246c-2.042-0.157-4.096-0.189-6.126,0.014
			c-3.203,0.315-6.355,0.922-9.417,1.968c-4.23,1.448-8.125,3.506-11.657,6.246c-0.064,0.049-0.132,0.091-0.326,0.221
			c0.19-0.934,0.341-1.743,0.523-2.55c1.344-5.929,3.917-11.27,7.705-16.018c5.736-7.186,13.14-11.758,22.043-13.925
			C51.9,64.944,53.815,64.558,55.775,64.553z"/>
		<path fill="#010101" d="M51.309,94.886c2.098,0.606,4.138,1.368,6.11,2.309c-0.068,0.152-0.136,0.304-0.205,0.459
			c-0.581,1.284-1.271,2.521-1.707,3.869c-0.16,0.077-0.27-0.02-0.398-0.096c-1.757-1.049-3.512-2.099-5.277-3.13
			c-0.346-0.202-0.425-0.354-0.184-0.718C50.23,96.698,50.76,95.787,51.309,94.886z"/>
		<path fill="#C8CDDD" d="M55.508,101.522c0.437-1.348,1.126-2.585,1.706-3.869c0.069-0.153,0.138-0.307,0.206-0.459
			c0.037-0.014,0.074-0.016,0.113-0.01c-0.622,1.539-1.309,3.049-2.034,4.54C55.501,101.656,55.505,101.588,55.508,101.522z"/>
		<path fill="#EDEBEC" d="M99.953,34.958c0.168-0.972,0.813-1.705,1.282-2.518c1.445-2.504,2.937-4.98,4.393-7.477
			c0.155-0.269,0.376-0.446,0.588-0.646c2.194,1.198,4.301,2.544,6.419,3.872c2.998,1.88,5.972,3.801,8.871,5.828
			c0.286,0.647-0.064,1.249-0.193,1.841c-0.8,3.697-1.774,7.353-2.966,10.945c-1.165,3.516-2.485,6.974-3.961,10.375
			c-0.915,2.114-1.873,4.21-2.913,6.263c-1.585,3.136-3.277,6.218-5.108,9.222c-1.69,2.767-3.437,5.493-5.331,8.118
			c-1.791,2.481-3.602,4.954-5.64,7.243c-0.089,0.121-0.169,0.243-0.263,0.356c-4.534,5.382-9.472,10.353-14.959,14.764
			c-1.14,0.918-2.299,1.807-3.447,2.711c-1.063,0.721-2.132,1.439-3.187,2.174c-0.369,0.261-0.619,0.327-0.931-0.127
			c-0.308-0.447-0.763-0.793-1.142-1.191c-0.162-0.171-0.341-0.24-0.569-0.2c-1.559-1.492-3.173-2.922-4.892-4.227
			c2.784-3.989,5.337-8.118,7.554-12.448c2.692-5.264,5.011-10.675,6.333-16.469c0.383-1.676,0.648-3.371,0.689-5.095
			c0.002-0.139,0.082-0.3-0.101-0.392c0.145-0.866,0.75-1.498,1.163-2.223c1.047-1.833,2.125-3.646,3.199-5.462
			c0.301-0.508,0.666-0.976,0.89-1.527c0.036,0.009,0.073,0.019,0.111,0.023c2.478,1.535,5.174,2.148,8.075,1.961
			c9.321-0.596,15.384-10.264,11.853-18.902C104.578,38.836,102.602,36.613,99.953,34.958z"/>
		<path fill="#905E36" d="M76.725,105.852c1.148-0.902,2.31-1.793,3.447-2.709c5.487-4.411,10.423-9.384,14.959-14.764
			c0.096-0.115,0.176-0.237,0.263-0.356c0.297,0.017,0.283,0.289,0.357,0.463c1.533,3.611,2.551,7.353,2.977,11.26
			c1.158,10.594-1.552,20.124-7.882,28.645c-1.854,2.494-4.033,4.696-6.45,6.656c-0.159,0.133-0.333,0.248-0.624,0.462
			c0.068-0.634,0.12-1.14,0.179-1.644c0.985-8.515-0.646-16.509-4.742-24.021C78.456,108.46,77.527,107.196,76.725,105.852z"/>
		<path fill="#010101" d="M66.004,102.28c1.719,1.307,3.332,2.735,4.892,4.227c-0.279,0.892-0.886,1.602-1.335,2.396
			c-0.495,0.883-0.521,0.853-1.397,0.321c-1.681-1.015-3.369-2.013-5.054-3.018c0.348-0.762,0.971-1.324,1.443-1.999
			C65.013,103.551,65.519,102.922,66.004,102.28z"/>
		<path fill="#905E36" d="M99.953,34.958c2.648,1.654,4.625,3.878,5.817,6.789c3.53,8.639-2.531,18.308-11.854,18.902
			c-2.901,0.187-5.598-0.426-8.074-1.961c0.386-0.688,0.754-1.389,1.165-2.062c0.312-0.509,0.521-1.092,1.005-1.486
			c1.763,1.001,3.643,1.466,5.676,1.318c3.864-0.281,7.203-2.885,8.41-6.583c1.195-3.668,0.029-7.819-2.906-10.283
			c-0.431-0.362-0.841-0.775-1.418-0.922c-0.046-0.065-0.095-0.133-0.141-0.197c0.78-1.138,1.501-2.312,2.087-3.564
			C99.798,34.927,99.877,34.942,99.953,34.958z"/>
		<path fill="#B07F48" d="M99.722,34.91c-0.587,1.253-1.308,2.426-2.088,3.564c-0.29-0.126-0.579-0.253-0.869-0.38
			c-1.89-0.813-3.848-1.018-5.849-0.564c-4.952,1.123-8.097,5.517-7.461,10.58c0.378,2.992,1.881,5.359,4.523,6.925
			c0.011,0.035,0.022,0.07,0.036,0.105c-0.485,0.394-0.695,0.977-1.007,1.486c-0.411,0.673-0.777,1.374-1.165,2.062
			c-0.038-0.005-0.075-0.014-0.111-0.023c-3.35-2.169-5.47-5.179-6.321-9.097c-1.571-7.253,3.443-14.82,10.739-16.196
			c3.178-0.601,6.202-0.22,9.087,1.242C99.405,34.699,99.561,34.811,99.722,34.91z"/>
		<path fill="#D0E7F3" d="M88.013,55.14c-0.014-0.035-0.024-0.07-0.036-0.105c0.667-1.147,1.328-2.297,2.003-3.438
			c2.286-3.869,4.571-7.74,6.879-11.596c0.273-0.457,0.393-1.037,0.916-1.329c0.577,0.147,0.987,0.56,1.418,0.922
			c2.936,2.464,4.102,6.615,2.906,10.283c-1.207,3.696-4.546,6.301-8.41,6.582C91.655,56.605,89.775,56.141,88.013,55.14z"/>
		<path fill="#FDFDFC" d="M97.775,38.672c-0.523,0.292-0.643,0.871-0.916,1.329c-2.309,3.856-4.593,7.728-6.88,11.596
			c-0.675,1.142-1.335,2.291-2.001,3.438c-2.642-1.567-4.146-3.933-4.523-6.925c-0.636-5.063,2.509-9.457,7.461-10.58
			c1.999-0.453,3.959-0.249,5.849,0.564c0.291,0.126,0.58,0.254,0.869,0.38C97.682,38.54,97.729,38.607,97.775,38.672z"/>
	</g>
</g>
</svg>
