<?xml version="1.0" encoding="utf-8"?>
<!-- Generator: Adobe Illustrator 16.0.0, SVG Export Plug-In . SVG Version: 6.00 Build 0)  -->
<!DOCTYPE svg PUBLIC "-//W3C//DTD SVG 1.1//EN" "http://www.w3.org/Graphics/SVG/1.1/DTD/svg11.dtd">
<svg version="1.1" id="Capa_1" xmlns="http://www.w3.org/2000/svg" xmlns:xlink="http://www.w3.org/1999/xlink" x="0px" y="0px"
	 width="150px" height="150px" viewBox="0 0 150 150" enable-background="new 0 0 150 150" xml:space="preserve">
<g>
	<g>
		<path fill="#FFFFFF" d="M150,71.353c0,2.944,0,5.891,0,8.836c-0.037,0.203-0.096,0.408-0.107,0.615
			c-0.299,4.607-1.027,9.148-2.201,13.613c-9.412,35.83-43.613,59.244-80.41,55.041c-10.595-1.211-20.473-4.563-29.646-10.008
			C9.853,122.959-4.051,90.057,3.404,58.638C12.025,22.304,47.163-3.393,86.66,2.352c15.21,2.213,28.512,8.616,39.729,19.121
			c13.444,12.591,21.191,28.113,23.26,46.441C149.775,69.06,149.883,70.208,150,71.353z"/>
	</g>
	<g>
		<path fill="#00476E" d="M123.496,18.838c2.23,1.816,4.325,3.789,6.295,5.884c3.674,3.903,6.916,8.142,9.688,12.733
			c3.086,5.105,5.5,10.512,7.287,16.199c0.847,2.696,1.541,5.436,2.056,8.213c0.401,2.196,0.721,4.41,0.954,6.637
			c0.068,0.652-0.061,1.336,0.224,1.966c0,3.532,0,7.069,0,10.604c-0.293,0.576-0.187,1.217-0.231,1.816
			c-0.271,3.664-0.981,7.258-1.842,10.811c-0.875,3.609-2.085,7.123-3.51,10.561c-1.984,4.791-4.459,9.307-7.4,13.568
			c-1.824,2.643-3.818,5.148-5.974,7.533c-1.579,1.75-3.241,3.42-4.959,5.025c-2.405,2.246-4.987,4.289-7.688,6.182
			c-2.375,1.664-4.834,3.191-7.388,4.563c-3.016,1.617-6.134,3.023-9.351,4.211c-2.639,0.973-5.309,1.852-8.047,2.482
			c-2.811,0.652-5.625,1.268-8.508,1.563c-1.936,0.193-3.867,0.377-5.812,0.51c-2.06,0.141-4.117,0.109-6.17,0.057
			c-0.952-0.023-1.928,0.025-2.876-0.186c-0.215-0.049-0.352-0.041-0.327-0.375c0.109-1.443-0.245-2.783-1.065-3.988
			c-0.103-0.148-0.299-0.305-0.2-0.494c0.102-0.191,0.347-0.107,0.52-0.09c3.182,0.338,6.375,0.311,9.564,0.229
			c2.425-0.063,4.837-0.34,7.24-0.697c3.133-0.461,6.211-1.154,9.252-2.029c2.889-0.836,5.703-1.859,8.449-3.072
			c4.299-1.893,8.375-4.193,12.197-6.92c2.188-1.557,4.301-3.207,6.287-5.023c1.365-1.252,2.676-2.557,3.966-3.879
			c2.332-2.393,4.412-4.994,6.366-7.703c2.536-3.525,4.654-7.293,6.475-11.227c2.288-4.947,3.94-10.113,4.977-15.471
			c0.583-3.02,0.97-6.063,1.158-9.139c0.154-2.545,0.192-5.091,0.061-7.625c-0.302-5.872-1.313-11.631-3.102-17.25
			c-1.25-3.912-2.795-7.695-4.705-11.322c-2.252-4.283-4.903-8.3-8.01-12.022c-1.778-2.13-3.658-4.162-5.642-6.101
			c-0.147-0.146-0.313-0.279-0.469-0.416C123.325,23.049,123.41,20.944,123.496,18.838z"/>
		<path fill="#00476E" d="M55.593,103.791c-2.738-0.313-5.125,0.445-7.182,2.291c-2.044,1.836-2.989,4.152-3.041,6.855
			c-0.012,0.684,0.083,1.383,0.29,2.043c0.138,0.445,0.005,0.578-0.429,0.551c-1.274-0.084-2.502,0.109-3.7,0.57
			c-0.677,0.266-1.291,0.619-1.865,1.039c-0.344,0.256-0.515,0.258-0.788-0.127c-2.156-3.008-4.985-5.141-8.482-6.354
			c-2.08-0.721-4.235-1.016-6.436-0.922c-0.521,0.023-1.051,0.064-1.556,0.188c-0.45,0.107-0.69-0.021-0.927-0.395
			c-2.207-3.492-4.033-7.174-5.513-11.025c-1.673-4.357-2.854-8.852-3.531-13.469c-0.283-1.924-0.444-3.863-0.565-5.811
			c-0.115-1.828-0.121-3.656-0.072-5.478c0.07-2.551,0.32-5.09,0.706-7.621c0.584-3.866,1.509-7.643,2.798-11.329
			c1.557-4.456,3.574-8.69,6.082-12.693c2.214-3.53,4.737-6.812,7.577-9.866c4.614-4.965,9.887-9.063,15.803-12.354
			c5.075-2.823,10.43-4.929,16.082-6.263c2.607-0.614,5.242-1.066,7.909-1.369c3.264-0.371,6.536-0.438,9.806-0.331
			c2.78,0.091,5.549,0.419,8.293,0.907c2.31,0.412,4.588,0.959,6.848,1.596c-0.076,0.068-0.154,0.137-0.23,0.206
			c-0.834,0.75-1.841,1.301-2.556,2.19c-0.267-0.045-0.424,0.129-0.597,0.286c-0.42,0.382-0.842,0.759-1.271,1.126
			c-2.38,2.029-4.64,4.188-6.775,6.469c-2.862,3.06-5.59,6.238-8.146,9.568c-3.018,3.93-5.783,8.023-8.335,12.264
			c-2.373,3.942-4.504,8.017-6.428,12.198c-0.989,2.151-1.917,4.327-2.766,6.537c-1.942,0.005-3.839,0.388-5.707,0.843
			c-8.821,2.147-16.157,6.678-21.84,13.798c-3.754,4.705-6.305,9.996-7.634,15.871c-0.18,0.797-0.33,1.602-0.518,2.525
			c0.192-0.131,0.259-0.17,0.323-0.219c3.499-2.719,7.36-4.754,11.549-6.188c3.034-1.037,6.158-1.641,9.33-1.953
			c2.013-0.199,4.048-0.166,6.071-0.012c0.621,0.047,1.263,0.014,1.865,0.244c-0.034,1.248-0.208,2.48-0.361,3.719
			c-0.048,0.389,0.004,0.645,0.443,0.73c0.448,0.09,0.897,0.191,1.33,0.34c0.249,0.086,0.612-0.018,0.724,0.354
			c-0.544,0.895-1.07,1.797-1.645,2.67c-0.239,0.361-0.161,0.51,0.182,0.711c1.75,1.02,3.49,2.063,5.229,3.102
			c0.126,0.074,0.235,0.17,0.394,0.096c-0.003,0.064-0.005,0.133-0.009,0.199C56.08,102.666,55.838,103.23,55.593,103.791z
			 M39.342,109.611c1.923,0.133,3.888-1.561,3.844-3.799c-0.046-2.342-1.693-3.834-3.899-3.857
			c-2.131-0.021-3.779,1.781-3.818,3.887C35.436,107.648,37.226,109.818,39.342,109.611z"/>
		<path fill="#00476E" d="M122.439,31.675c-0.021,0.682,0.533,1.032,0.906,1.442c2.105,2.318,4.012,4.793,5.741,7.398
			c2.931,4.409,5.275,9.111,7.035,14.107c1.306,3.709,2.269,7.5,2.864,11.377c0.412,2.671,0.594,5.365,0.71,8.067
			c0.077,1.834-0.007,3.653-0.091,5.467c-0.143,3.199-0.615,6.367-1.285,9.504c-1.233,5.783-3.229,11.291-6.001,16.51
			c-1.983,3.734-4.315,7.242-7.007,10.51c-1.563,1.898-3.193,3.732-4.965,5.438c-3.949,3.803-8.293,7.076-13.062,9.791
			c-3.813,2.172-7.802,3.922-11.972,5.268c-3.293,1.059-6.653,1.846-10.084,2.342c-2.363,0.344-4.737,0.514-7.123,0.664
			c-2.107,0.135-4.195-0.01-6.288-0.064c-1.314-0.029-2.625-0.23-3.937-0.359c-0.48-0.045-0.289-0.277-0.137-0.5
			c0.599-0.885,0.992-1.828,1.121-2.904c0.216-1.799-0.26-3.389-1.432-4.723c-1.97-2.234-4.563-2.814-7.304-1.691
			c-0.841,0.346-1.584,0.881-2.161,1.594c-0.224,0.275-0.38,0.252-0.616,0.084c-1.38-0.99-2.892-1.701-4.547-2.096
			c-0.476-0.117-0.389-0.373-0.22-0.701c0.69-1.328,1.021-2.748,0.956-4.244c-0.024-0.539-0.148-1.074-0.219-1.611
			c-0.035-0.264-0.096-0.49,0.352-0.443c2.387,0.246,4.538-0.416,6.419-1.869c2.59-1.998,3.719-4.705,3.532-7.934
			c-0.079-1.336-0.417-2.646-1.249-3.766c0.494-0.596,0.987-1.189,1.48-1.785c1.67,0.996,3.343,1.986,5.008,2.99
			c0.869,0.525,0.895,0.555,1.386-0.316c0.443-0.789,1.046-1.496,1.323-2.377c0.225-0.037,0.402,0.029,0.563,0.197
			c0.376,0.396,0.825,0.74,1.13,1.182c0.311,0.449,0.558,0.385,0.924,0.127c1.045-0.729,2.103-1.438,3.154-2.154
			c0.797,1.332,1.717,2.586,2.461,3.953c4.06,7.445,5.676,15.365,4.699,23.801c-0.059,0.5-0.107,1.002-0.178,1.629
			c0.29-0.213,0.46-0.324,0.619-0.455c2.395-1.943,4.553-4.127,6.391-6.596c6.271-8.445,8.958-17.885,7.809-28.381
			c-0.422-3.871-1.43-7.578-2.948-11.158c-0.073-0.172-0.06-0.443-0.354-0.459c2.021-2.268,3.813-4.717,5.588-7.176
			c1.877-2.602,3.606-5.303,5.281-8.044c1.816-2.977,3.491-6.029,5.063-9.138c1.029-2.034,1.978-4.111,2.887-6.205
			c1.462-3.37,2.77-6.796,3.925-10.279c1.181-3.56,2.146-7.181,2.938-10.844c0.127-0.588,0.475-1.183,0.191-1.824
			c0.153-0.058,0.127-0.198,0.149-0.317C122.063,33.69,122.252,32.682,122.439,31.675z"/>
		<path fill="#00476E" d="M99.243,10.475c-3.386-1.261-6.864-2.184-10.407-2.87c-2.59-0.501-5.201-0.815-7.831-1.032
			c-2.516-0.209-5.032-0.311-7.548-0.203c-4.541,0.192-9.04,0.75-13.474,1.801c-4.794,1.135-9.414,2.742-13.87,4.849
			c-5.055,2.388-9.736,5.353-14.097,8.849c-2.68,2.149-5.153,4.517-7.474,7.032c-3.897,4.226-7.214,8.882-9.954,13.949
			c-2.943,5.442-5.125,11.168-6.538,17.185c-0.603,2.565-1.064,5.159-1.338,7.785c-0.174,1.668-0.28,3.336-0.394,5.006
			c-0.093,1.389-0.116,2.773-0.075,4.154c0.085,2.865,0.304,5.721,0.708,8.563c0.653,4.627,1.792,9.123,3.354,13.516
			c1.53,4.307,3.5,8.412,5.868,12.318c0.267,0.439,0.208,0.637-0.203,0.863c-1.07,0.592-2.047,1.324-2.896,2.201
			c-0.396,0.41-0.608,0.359-0.882-0.104c-1.804-3.027-3.44-6.143-4.826-9.389C5.849,101.391,4.608,97.746,3.654,94
			c-0.516-2.027-0.997-4.07-1.296-6.139c-0.27-1.875-0.518-3.756-0.705-5.648c-0.28-2.852-0.229-5.701-0.218-8.556
			c0.011-2.904,0.302-5.787,0.724-8.662c0.733-5.013,1.963-9.898,3.692-14.653c1.437-3.953,3.186-7.763,5.301-11.406
			c1.466-2.524,3.042-4.971,4.778-7.313c1.424-1.92,2.945-3.758,4.545-5.539c1.535-1.705,3.147-3.338,4.826-4.892
			c3.344-3.096,6.952-5.864,10.822-8.286c2.229-1.393,4.5-2.705,6.864-3.848c4.317-2.086,8.786-3.777,13.419-5.025
			c2.143-0.58,4.306-1.076,6.493-1.435c2.103-0.347,4.217-0.613,6.342-0.821c3.441-0.337,6.886-0.292,10.321-0.186
			c3.026,0.094,6.045,0.438,9.026,1.035c1.888,0.379,3.787,0.685,5.648,1.182c3.245,0.869,6.436,1.895,9.55,3.161
			c0.29,0.12,0.572,0.261,0.896,0.265C102.87,8.315,101.057,9.395,99.243,10.475z"/>
		<path fill="#0B72B5" d="M122.439,31.675c-0.188,1.007-0.377,2.015-0.564,3.022c-0.021,0.119,0.003,0.26-0.15,0.318
			c-2.873-2.009-5.818-3.911-8.789-5.773c-2.098-1.314-4.187-2.649-6.359-3.836c-0.066-0.074-0.133-0.146-0.2-0.222
			c0.269-0.054,0.349-0.297,0.46-0.485c1.417-2.377,2.822-4.757,4.229-7.138c2.289-3.879,4.58-7.76,6.859-11.644
			c0.868-1.479,1.817-2.914,2.549-4.471c0.353-0.218,0.414,0.037,0.498,0.295c0.654,2.037,1.174,4.107,1.539,6.213
			c0.533,3.058,0.894,6.129,0.881,9.244c-0.002,0.537-0.074,1.105,0.104,1.643c-0.086,2.105-0.171,4.21-0.257,6.316
			c-0.208,1.739-0.414,3.478-0.624,5.217C122.563,30.807,122.499,31.241,122.439,31.675z"/>
		<path fill="#39A9DC" d="M120.473,1.446c-0.729,1.557-1.68,2.99-2.549,4.471c-2.279,3.884-4.57,7.765-6.857,11.644
			c-1.406,2.381-2.813,4.761-4.229,7.138c-0.112,0.188-0.192,0.433-0.46,0.485c-0.15-0.071-0.306-0.133-0.447-0.214
			c-4.928-2.861-9.916-5.604-15.014-8.146c0.715-0.89,1.721-1.439,2.555-2.189c0.077-0.068,0.155-0.137,0.231-0.206
			c1.819-1.356,3.662-2.677,5.541-3.951c1.813-1.08,3.628-2.16,5.442-3.241c3.604-1.893,7.302-3.556,11.215-4.707
			C117.404,2.084,118.905,1.633,120.473,1.446z"/>
		<path fill="#0B72B5" d="M63.865,106.543c-0.494,0.596-0.988,1.189-1.48,1.785c-1.823,2.053-3.678,4.074-5.78,5.85
			c-1.137,0.961-2.315,1.873-3.614,2.609c-0.303,0.174-0.535,0.279-0.394-0.244c1.034-1.479,1.867-3.076,2.783-4.625
			c2.265-3.824,4.536-7.648,6.796-11.479c3.12-5.295,6.227-10.598,9.35-15.893c2.674-4.533,5.371-9.054,8.035-13.595
			c0.379-0.641,0.881-1.229,1.02-1.998c0.166-0.129,0.331-0.258,0.497-0.391c0.183,0.092,0.104,0.252,0.101,0.389
			c-0.041,1.709-0.304,3.388-0.683,5.049c-1.31,5.742-3.606,11.101-6.274,16.318c-2.196,4.291-4.727,8.381-7.484,12.332
			c-0.48,0.637-0.981,1.26-1.439,1.91C64.826,105.23,64.209,105.787,63.865,106.543z"/>
		<path fill="#39A9DC" d="M80.577,68.956c-0.14,0.77-0.64,1.357-1.019,1.998c-2.666,4.541-5.36,9.062-8.036,13.595
			c-3.124,5.295-6.228,10.598-9.35,15.893c-2.258,3.83-4.531,7.652-6.795,11.48c-0.917,1.547-1.75,3.145-2.784,4.623
			c0.033-2.367,0.532-4.658,1.124-6.938c0.512-1.973,1.241-3.877,1.875-5.814c0.244-0.561,0.487-1.125,0.73-1.688
			c0.72-1.48,1.401-2.977,2.016-4.502c0.076-0.125,0.161-0.246,0.224-0.377c2.304-4.73,4.961-9.25,7.967-13.566
			c2.877-4.131,6.019-8.037,9.741-11.447C77.602,70.993,78.966,69.81,80.577,68.956z"/>
		<path fill="#FFFFFF" d="M80.577,68.956c-1.611,0.855-2.976,2.037-4.304,3.256c-3.723,3.41-6.864,7.318-9.742,11.447
			c-3.007,4.316-5.665,8.838-7.966,13.566c-0.063,0.131-0.149,0.252-0.225,0.377c-0.038-0.002-0.076-0.002-0.112,0.01
			c-1.954-0.93-3.975-1.686-6.053-2.285c-0.113-0.373-0.476-0.27-0.726-0.354c-0.431-0.148-0.88-0.252-1.329-0.34
			c-0.439-0.086-0.491-0.342-0.444-0.73c0.154-1.236,0.328-2.473,0.361-3.721c0.213-0.266,0.172-0.6,0.213-0.902
			c0.646-4.754,1.677-9.428,2.992-14.039c0.962-3.375,2.138-6.68,3.355-9.969c0.85-2.209,1.777-4.386,2.768-6.535
			c1.923-4.183,4.055-8.257,6.426-12.201c2.552-4.238,5.318-8.332,8.337-12.262c2.556-3.33,5.281-6.508,8.146-9.568
			c2.136-2.281,4.395-4.439,6.774-6.469c0.431-0.367,0.851-0.744,1.271-1.125c0.174-0.158,0.329-0.332,0.597-0.287
			c5.098,2.543,10.086,5.285,15.014,8.146c0.141,0.082,0.297,0.145,0.447,0.214c0.067,0.075,0.133,0.149,0.2,0.222
			c-0.212,0.198-0.429,0.375-0.582,0.641c-1.442,2.475-2.922,4.929-4.353,7.408c-0.465,0.807-1.104,1.533-1.271,2.494
			c-0.075-0.017-0.152-0.031-0.229-0.047c-0.16-0.099-0.313-0.209-0.481-0.294c-2.858-1.448-5.854-1.825-9.004-1.229
			c-7.229,1.363-12.196,8.861-10.64,16.047c0.844,3.882,2.943,6.863,6.263,9.013c-0.222,0.548-0.583,1.011-0.882,1.513
			c-1.063,1.801-2.133,3.597-3.17,5.414c-0.408,0.717-1.008,1.344-1.152,2.201C80.908,68.696,80.743,68.827,80.577,68.956z"/>
		<path fill="#39A9DC" d="M56.598,65.271c-1.218,3.289-2.395,6.593-3.355,9.968c-1.315,4.611-2.347,9.285-2.992,14.041
			c-0.042,0.303,0,0.635-0.214,0.902c-0.601-0.23-1.245-0.197-1.865-0.244c-2.023-0.154-4.059-0.189-6.07,0.012
			c-3.173,0.314-6.297,0.916-9.331,1.953c-4.191,1.434-8.05,3.471-11.549,6.188c-0.064,0.049-0.131,0.088-0.323,0.219
			c0.188-0.924,0.337-1.729,0.518-2.525c1.332-5.875,3.88-11.166,7.634-15.871c5.684-7.121,13.019-11.65,21.84-13.798
			C52.758,65.661,54.656,65.278,56.598,65.271z"/>
		<path fill="#010101" d="M52.173,95.326c2.079,0.6,4.1,1.355,6.054,2.285c-0.067,0.152-0.135,0.303-0.203,0.457
			c-0.576,1.273-1.259,2.496-1.691,3.834c-0.158,0.076-0.268-0.02-0.394-0.096c-1.741-1.037-3.479-2.08-5.229-3.102
			c-0.343-0.199-0.421-0.35-0.182-0.711C51.104,97.123,51.629,96.217,52.173,95.326z"/>
		<path fill="#C8CDDD" d="M56.333,101.902c0.433-1.338,1.116-2.561,1.691-3.834c0.068-0.152,0.136-0.303,0.204-0.457
			c0.037-0.012,0.074-0.012,0.112-0.01c-0.616,1.525-1.297,3.021-2.015,4.502C56.327,102.033,56.33,101.969,56.333,101.902z"/>
		<path fill="#EDEBEC" d="M100.37,35.95c0.166-0.963,0.806-1.689,1.271-2.496c1.433-2.479,2.91-4.935,4.354-7.407
			c0.152-0.267,0.371-0.442,0.582-0.64c2.174,1.187,4.262,2.521,6.359,3.834c2.971,1.863,5.916,3.767,8.789,5.774
			c0.283,0.642-0.063,1.237-0.19,1.824c-0.793,3.663-1.759,7.284-2.938,10.844c-1.154,3.483-2.463,6.91-3.925,10.279
			c-0.907,2.094-1.856,4.171-2.887,6.204c-1.57,3.107-3.247,6.162-5.062,9.139c-1.676,2.742-3.404,5.443-5.281,8.044
			c-1.774,2.459-3.569,4.908-5.588,7.176c-0.088,0.119-0.17,0.242-0.262,0.355c-4.492,5.328-9.384,10.254-14.822,14.627
			c-1.127,0.908-2.276,1.789-3.414,2.684c-1.055,0.717-2.112,1.428-3.156,2.156c-0.366,0.258-0.613,0.32-0.924-0.127
			c-0.304-0.441-0.755-0.785-1.13-1.182c-0.16-0.17-0.338-0.236-0.564-0.197c-1.545-1.48-3.144-2.895-4.847-4.189
			c2.758-3.949,5.288-8.043,7.485-12.332c2.666-5.215,4.965-10.576,6.273-16.318c0.379-1.659,0.643-3.34,0.684-5.047
			c0.002-0.138,0.08-0.297-0.101-0.39c0.144-0.856,0.743-1.483,1.151-2.202c1.037-1.815,2.105-3.611,3.17-5.412
			c0.299-0.504,0.66-0.967,0.883-1.514c0.035,0.01,0.072,0.02,0.109,0.023c2.455,1.521,5.127,2.128,8,1.943
			c9.236-0.59,15.243-10.17,11.743-18.729C104.952,39.792,102.993,37.589,100.37,35.95z"/>
		<path fill="#0B72B5" d="M77.354,106.191c1.139-0.895,2.289-1.775,3.416-2.684c5.438-4.373,10.328-9.299,14.821-14.631
			c0.095-0.111,0.175-0.232,0.261-0.352c0.295,0.016,0.28,0.287,0.354,0.459c1.521,3.578,2.526,7.285,2.949,11.156
			c1.147,10.496-1.537,19.938-7.81,28.381c-1.838,2.469-3.996,4.65-6.391,6.596c-0.159,0.129-0.331,0.244-0.619,0.455
			c0.067-0.625,0.119-1.127,0.178-1.629c0.977-8.436-0.641-16.354-4.699-23.799C79.07,108.775,78.15,107.521,77.354,106.191z"/>
		<path fill="#010101" d="M66.733,102.652c1.703,1.295,3.301,2.711,4.847,4.189c-0.276,0.881-0.878,1.586-1.323,2.373
			c-0.49,0.875-0.517,0.846-1.385,0.318c-1.666-1.006-3.338-1.996-5.007-2.99c0.344-0.756,0.961-1.313,1.429-1.979
			C65.751,103.91,66.252,103.287,66.733,102.652z"/>
		<path fill="#0B72B5" d="M100.37,35.95c2.623,1.639,4.582,3.842,5.763,6.727c3.499,8.559-2.507,18.139-11.744,18.729
			c-2.873,0.186-5.545-0.422-7.998-1.943c0.381-0.682,0.746-1.377,1.153-2.043c0.31-0.506,0.517-1.084,0.995-1.473
			c1.746,0.991,3.609,1.452,5.623,1.305c3.829-0.278,7.139-2.858,8.333-6.521c1.185-3.634,0.028-7.747-2.879-10.188
			c-0.429-0.358-0.833-0.769-1.404-0.914c-0.047-0.064-0.096-0.131-0.141-0.194c0.772-1.127,1.487-2.29,2.067-3.532
			C100.216,35.918,100.294,35.933,100.37,35.95z"/>
		<path fill="#39A9DC" d="M100.141,35.902c-0.58,1.242-1.295,2.404-2.068,3.531c-0.287-0.125-0.573-0.251-0.86-0.376
			c-1.872-0.807-3.812-1.008-5.795-0.561c-4.907,1.113-8.022,5.467-7.392,10.482c0.373,2.965,1.861,5.311,4.48,6.861
			c0.01,0.035,0.022,0.07,0.035,0.104c-0.48,0.391-0.688,0.969-0.997,1.473c-0.407,0.668-0.771,1.361-1.153,2.043
			c-0.039-0.004-0.074-0.014-0.11-0.022c-3.319-2.149-5.421-5.131-6.263-9.013c-1.559-7.188,3.41-14.684,10.64-16.047
			c3.147-0.596,6.146-0.217,9.003,1.229C99.827,35.692,99.98,35.803,100.141,35.902z"/>
		<path fill="#D0E7F3" d="M88.539,55.946c-0.014-0.035-0.023-0.07-0.035-0.104c0.66-1.136,1.315-2.275,1.983-3.406
			c2.266-3.833,4.528-7.669,6.815-11.489c0.271-0.453,0.389-1.029,0.908-1.316c0.571,0.146,0.977,0.555,1.404,0.912
			c2.908,2.441,4.063,6.555,2.879,10.188c-1.195,3.662-4.504,6.243-8.333,6.522C92.148,57.398,90.285,56.937,88.539,55.946z"/>
		<path fill="#FDFDFC" d="M98.213,39.629c-0.52,0.289-0.637,0.861-0.908,1.316c-2.287,3.82-4.551,7.655-6.816,11.489
			c-0.668,1.131-1.322,2.271-1.981,3.406c-2.618-1.554-4.108-3.896-4.481-6.861c-0.631-5.016,2.484-9.37,7.393-10.481
			c1.98-0.449,3.923-0.246,5.795,0.56c0.288,0.125,0.574,0.251,0.86,0.376C98.118,39.499,98.165,39.565,98.213,39.629z"/>
	</g>
</g>
</svg>
