<?xml version="1.0" encoding="utf-8"?>
<!-- Generator: Adobe Illustrator 16.0.0, SVG Export Plug-In . SVG Version: 6.00 Build 0)  -->
<!DOCTYPE svg PUBLIC "-//W3C//DTD SVG 1.1//EN" "http://www.w3.org/Graphics/SVG/1.1/DTD/svg11.dtd">
<svg version="1.1" id="Capa_1" xmlns="http://www.w3.org/2000/svg" xmlns:xlink="http://www.w3.org/1999/xlink" x="0px" y="0px"
	 width="150px" height="150px" viewBox="0 0 150 150" enable-background="new 0 0 150 150" xml:space="preserve">
<g>
	<g>
		<path fill="#FFFFFF" d="M149.295,70.671c0,2.944,0,5.891,0,8.836c-0.037,0.204-0.096,0.408-0.108,0.616
			c-0.299,4.608-1.027,9.148-2.201,13.613c-9.412,35.831-43.613,59.245-80.41,55.042c-10.595-1.211-20.473-4.563-29.646-10.008
			C9.148,122.278-4.756,89.375,2.699,57.956C11.32,21.622,46.458-4.075,85.955,1.67c15.21,2.213,28.512,8.616,39.728,19.121
			c13.445,12.591,21.192,28.113,23.261,46.442C149.07,68.378,149.178,69.525,149.295,70.671z"/>
	</g>
	<g>
		<path fill="#B0B2B3" d="M122.791,18.156c2.23,1.816,4.325,3.79,6.295,5.884c3.674,3.903,6.916,8.142,9.688,12.734
			c3.085,5.105,5.5,10.511,7.286,16.198c0.847,2.697,1.541,5.436,2.056,8.213c0.402,2.197,0.721,4.41,0.954,6.637
			c0.068,0.652-0.06,1.336,0.224,1.966c0,3.533,0,7.069,0,10.604c-0.293,0.577-0.187,1.217-0.231,1.817
			c-0.272,3.664-0.982,7.257-1.842,10.811c-0.875,3.609-2.085,7.122-3.51,10.56c-1.985,4.791-4.459,9.306-7.401,13.569
			c-1.824,2.642-3.818,5.147-5.973,7.533c-1.579,1.75-3.241,3.419-4.959,5.024c-2.406,2.246-4.988,4.289-7.688,6.183
			c-2.375,1.664-4.835,3.19-7.388,4.561c-3.016,1.619-6.134,3.024-9.351,4.211c-2.639,0.973-5.308,1.853-8.047,2.484
			c-2.81,0.651-5.625,1.266-8.507,1.561c-1.936,0.195-3.868,0.378-5.812,0.511c-2.059,0.141-4.117,0.109-6.17,0.057
			c-0.952-0.024-1.928,0.024-2.876-0.186c-0.215-0.049-0.352-0.041-0.327-0.376c0.109-1.442-0.245-2.782-1.065-3.987
			c-0.103-0.15-0.299-0.306-0.2-0.494c0.102-0.193,0.347-0.108,0.52-0.09c3.182,0.337,6.375,0.309,9.564,0.227
			c2.425-0.061,4.837-0.339,7.24-0.696c3.134-0.462,6.211-1.154,9.253-2.03c2.888-0.835,5.702-1.86,8.449-3.071
			c4.299-1.894,8.374-4.195,12.197-6.92c2.188-1.557,4.301-3.207,6.287-5.024c1.365-1.252,2.676-2.556,3.966-3.879
			c2.332-2.392,4.412-4.994,6.366-7.704c2.536-3.525,4.655-7.293,6.475-11.226c2.288-4.948,3.94-10.113,4.976-15.471
			c0.583-3.02,0.97-6.063,1.158-9.139c0.155-2.544,0.193-5.091,0.061-7.624c-0.302-5.872-1.313-11.631-3.102-17.25
			c-1.249-3.912-2.795-7.695-4.704-11.322c-2.252-4.283-4.904-8.3-8.01-12.023c-1.779-2.13-3.658-4.162-5.642-6.101
			c-0.147-0.146-0.313-0.278-0.469-0.416C122.62,22.367,122.705,20.262,122.791,18.156z"/>
		<path fill="#B0B2B3" d="M54.888,103.11c-2.738-0.314-5.125,0.445-7.182,2.291c-2.044,1.835-2.989,4.152-3.041,6.854
			c-0.012,0.685,0.083,1.383,0.29,2.043c0.138,0.445,0.005,0.578-0.429,0.551c-1.274-0.083-2.502,0.11-3.7,0.57
			c-0.677,0.266-1.291,0.619-1.865,1.04c-0.344,0.255-0.515,0.257-0.788-0.127c-2.156-3.009-4.985-5.141-8.482-6.354
			c-2.08-0.721-4.235-1.015-6.436-0.921c-0.521,0.022-1.051,0.063-1.556,0.186c-0.45,0.108-0.69-0.02-0.927-0.394
			c-2.207-3.491-4.033-7.173-5.513-11.025c-1.673-4.358-2.854-8.852-3.531-13.468c-0.283-1.924-0.444-3.864-0.565-5.811
			c-0.115-1.828-0.121-3.656-0.072-5.479c0.07-2.551,0.32-5.09,0.706-7.621c0.584-3.866,1.509-7.642,2.798-11.329
			c1.557-4.456,3.574-8.69,6.082-12.693c2.214-3.531,4.737-6.812,7.577-9.866c4.614-4.965,9.887-9.064,15.803-12.355
			c5.075-2.823,10.43-4.929,16.082-6.262c2.607-0.615,5.242-1.067,7.909-1.37c3.264-0.371,6.536-0.437,9.806-0.331
			c2.78,0.091,5.549,0.419,8.292,0.908c2.31,0.412,4.589,0.958,6.848,1.595c-0.076,0.068-0.154,0.137-0.231,0.206
			c-0.834,0.75-1.84,1.301-2.555,2.191c-0.267-0.045-0.424,0.129-0.597,0.286c-0.42,0.381-0.841,0.759-1.271,1.126
			c-2.38,2.029-4.64,4.188-6.775,6.468c-2.863,3.06-5.59,6.239-8.146,9.569c-3.018,3.93-5.783,8.023-8.335,12.263
			c-2.373,3.943-4.504,8.017-6.428,12.199c-0.989,2.151-1.917,4.327-2.766,6.537c-1.942,0.005-3.839,0.388-5.707,0.843
			c-8.821,2.147-16.157,6.678-21.84,13.799c-3.754,4.704-6.305,9.996-7.634,15.87c-0.18,0.797-0.33,1.602-0.518,2.526
			c0.192-0.131,0.259-0.171,0.323-0.219c3.499-2.718,7.36-4.754,11.549-6.188c3.034-1.037,6.158-1.64,9.33-1.952
			c2.013-0.2,4.048-0.166,6.071-0.013c0.621,0.047,1.263,0.015,1.865,0.245c-0.034,1.248-0.208,2.481-0.361,3.718
			c-0.048,0.39,0.004,0.646,0.443,0.731c0.448,0.089,0.897,0.191,1.33,0.339c0.249,0.086,0.612-0.017,0.724,0.355
			c-0.544,0.893-1.07,1.797-1.645,2.669c-0.239,0.361-0.161,0.511,0.182,0.711c1.75,1.02,3.49,2.063,5.229,3.101
			c0.126,0.075,0.235,0.171,0.394,0.096c-0.003,0.065-0.005,0.133-0.009,0.2C55.375,101.984,55.133,102.549,54.888,103.11z
			 M38.637,108.929c1.923,0.133,3.888-1.561,3.844-3.799c-0.046-2.341-1.693-3.833-3.899-3.857
			c-2.131-0.021-3.779,1.782-3.818,3.887C34.731,106.966,36.521,109.136,38.637,108.929z"/>
		<path fill="#B0B2B3" d="M121.734,30.993c-0.021,0.682,0.533,1.032,0.906,1.443c2.106,2.318,4.013,4.793,5.742,7.398
			c2.931,4.409,5.275,9.111,7.035,14.108c1.305,3.709,2.268,7.5,2.864,11.377c0.412,2.67,0.594,5.364,0.71,8.067
			c0.078,1.834-0.007,3.653-0.09,5.468c-0.143,3.198-0.616,6.366-1.286,9.503c-1.233,5.784-3.228,11.291-6.001,16.51
			c-1.983,3.735-4.315,7.242-7.006,10.51c-1.564,1.899-3.194,3.733-4.965,5.438c-3.95,3.801-8.294,7.076-13.062,9.791
			c-3.813,2.171-7.802,3.922-11.971,5.266c-3.294,1.06-6.654,1.847-10.085,2.343c-2.363,0.343-4.737,0.513-7.122,0.664
			c-2.108,0.135-4.196-0.011-6.289-0.065c-1.314-0.029-2.625-0.231-3.937-0.359c-0.48-0.046-0.289-0.278-0.137-0.501
			c0.599-0.884,0.992-1.828,1.121-2.904c0.216-1.798-0.26-3.389-1.432-4.722c-1.97-2.234-4.563-2.814-7.304-1.691
			c-0.841,0.345-1.584,0.88-2.161,1.593c-0.224,0.275-0.38,0.253-0.616,0.084c-1.38-0.991-2.892-1.701-4.547-2.096
			c-0.476-0.116-0.389-0.372-0.22-0.7c0.69-1.328,1.021-2.749,0.956-4.244c-0.024-0.539-0.148-1.075-0.219-1.612
			c-0.035-0.263-0.096-0.49,0.352-0.444c2.387,0.247,4.538-0.415,6.419-1.869c2.59-1.998,3.719-4.704,3.532-7.933
			c-0.079-1.336-0.417-2.647-1.249-3.765c0.494-0.597,0.987-1.19,1.48-1.787c1.67,0.997,3.343,1.987,5.008,2.992
			c0.869,0.524,0.895,0.554,1.386-0.318c0.443-0.789,1.046-1.495,1.323-2.376c0.225-0.038,0.402,0.029,0.563,0.198
			c0.376,0.396,0.825,0.739,1.131,1.181c0.31,0.449,0.557,0.384,0.923,0.127c1.045-0.728,2.103-1.438,3.155-2.155
			c0.797,1.332,1.716,2.586,2.461,3.954c4.059,7.445,5.675,15.365,4.699,23.801c-0.059,0.499-0.108,1.001-0.178,1.628
			c0.29-0.212,0.46-0.325,0.619-0.455c2.394-1.944,4.553-4.126,6.391-6.596c6.271-8.445,8.958-17.884,7.809-28.38
			c-0.422-3.872-1.43-7.579-2.949-11.159c-0.073-0.172-0.06-0.443-0.354-0.458c2.02-2.269,3.813-4.718,5.588-7.177
			c1.877-2.601,3.606-5.303,5.281-8.044c1.816-2.976,3.491-6.029,5.062-9.138c1.03-2.034,1.978-4.111,2.887-6.205
			c1.462-3.37,2.77-6.796,3.925-10.279c1.18-3.56,2.146-7.181,2.938-10.844c0.127-0.588,0.475-1.183,0.191-1.824
			c0.154-0.058,0.128-0.199,0.15-0.318C121.358,33.008,121.547,32,121.734,30.993z"/>
		<path fill="#B0B2B3" d="M98.538,9.793c-3.385-1.261-6.864-2.184-10.407-2.87c-2.59-0.501-5.201-0.816-7.831-1.033
			c-2.516-0.208-5.033-0.31-7.548-0.203c-4.541,0.193-9.04,0.75-13.474,1.801c-4.794,1.135-9.414,2.743-13.87,4.849
			c-5.055,2.388-9.736,5.352-14.097,8.848c-2.68,2.15-5.153,4.517-7.474,7.033c-3.897,4.226-7.214,8.882-9.954,13.949
			c-2.943,5.443-5.125,11.168-6.538,17.185c-0.603,2.565-1.064,5.159-1.338,7.785c-0.174,1.668-0.28,3.336-0.394,5.006
			c-0.093,1.388-0.116,2.773-0.075,4.154c0.085,2.865,0.304,5.721,0.708,8.563c0.653,4.626,1.792,9.123,3.354,13.515
			c1.53,4.306,3.5,8.412,5.868,12.319c0.267,0.439,0.208,0.636-0.203,0.862c-1.07,0.593-2.047,1.325-2.896,2.202
			c-0.396,0.41-0.608,0.359-0.882-0.103c-1.804-3.029-3.44-6.144-4.826-9.389c-1.517-3.557-2.758-7.202-3.712-10.948
			c-0.516-2.028-0.997-4.07-1.296-6.138c-0.27-1.875-0.518-3.756-0.705-5.649c-0.28-2.851-0.229-5.702-0.218-8.556
			c0.011-2.904,0.302-5.787,0.724-8.663c0.733-5.012,1.963-9.898,3.692-14.653c1.437-3.953,3.186-7.762,5.301-11.406
			c1.466-2.524,3.042-4.971,4.778-7.313c1.424-1.921,2.945-3.759,4.545-5.54c1.535-1.705,3.147-3.337,4.826-4.891
			c3.344-3.096,6.952-5.865,10.822-8.286c2.229-1.393,4.5-2.705,6.864-3.848c4.317-2.086,8.786-3.777,13.419-5.026
			c2.143-0.579,4.306-1.075,6.493-1.434c2.103-0.346,4.217-0.613,6.342-0.821c3.441-0.337,6.886-0.292,10.322-0.186
			c3.026,0.094,6.044,0.438,9.026,1.035c1.887,0.379,3.787,0.685,5.648,1.182c3.245,0.869,6.436,1.894,9.55,3.161
			c0.29,0.12,0.573,0.261,0.897,0.265C102.165,7.633,100.352,8.713,98.538,9.793z"/>
		<path fill="#686E85" d="M121.734,30.993c-0.188,1.007-0.376,2.015-0.564,3.023c-0.022,0.119,0.003,0.259-0.15,0.318
			c-2.873-2.009-5.819-3.911-8.789-5.774c-2.098-1.314-4.187-2.649-6.36-3.835c-0.067-0.074-0.133-0.147-0.2-0.222
			c0.268-0.054,0.348-0.297,0.46-0.486c1.417-2.376,2.822-4.756,4.229-7.137c2.289-3.879,4.58-7.76,6.859-11.644
			c0.868-1.479,1.817-2.914,2.548-4.471c0.353-0.217,0.415,0.038,0.498,0.296c0.655,2.036,1.174,4.107,1.54,6.212
			c0.533,3.058,0.893,6.13,0.88,9.245c-0.002,0.536-0.073,1.105,0.105,1.642c-0.086,2.105-0.171,4.21-0.257,6.317
			c-0.208,1.739-0.414,3.477-0.624,5.216C121.857,30.125,121.794,30.559,121.734,30.993z"/>
		<path fill="#8C91A5" d="M119.768,0.763c-0.73,1.558-1.68,2.991-2.549,4.471c-2.279,3.884-4.57,7.765-6.858,11.644
			c-1.406,2.381-2.813,4.761-4.229,7.137c-0.112,0.189-0.192,0.433-0.46,0.486c-0.15-0.071-0.306-0.133-0.448-0.214
			c-4.927-2.861-9.915-5.603-15.013-8.146c0.715-0.89,1.721-1.44,2.555-2.19c0.077-0.068,0.155-0.137,0.231-0.206
			c1.819-1.356,3.662-2.677,5.541-3.951c1.814-1.08,3.628-2.16,5.443-3.241c3.603-1.893,7.301-3.556,11.215-4.707
			C116.699,1.403,118.2,0.951,119.768,0.763z"/>
		<path fill="#686E85" d="M63.16,105.861c-0.494,0.595-0.988,1.19-1.48,1.785c-1.823,2.053-3.678,4.074-5.78,5.85
			c-1.137,0.96-2.315,1.873-3.614,2.61c-0.303,0.174-0.535,0.279-0.394-0.245c1.034-1.479,1.867-3.076,2.783-4.624
			c2.265-3.826,4.536-7.649,6.796-11.479c3.12-5.296,6.227-10.599,9.35-15.893c2.674-4.534,5.37-9.055,8.035-13.595
			c0.378-0.641,0.88-1.229,1.019-1.998c0.166-0.129,0.331-0.259,0.497-0.391c0.182,0.092,0.104,0.252,0.101,0.389
			c-0.041,1.708-0.304,3.387-0.683,5.048c-1.31,5.742-3.607,11.102-6.274,16.318c-2.196,4.291-4.727,8.382-7.485,12.332
			c-0.48,0.637-0.981,1.26-1.439,1.911C64.121,104.548,63.504,105.105,63.16,105.861z"/>
		<path fill="#8C91A5" d="M79.872,68.274c-0.139,0.769-0.64,1.357-1.019,1.998c-2.665,4.54-5.36,9.061-8.035,13.595
			c-3.124,5.294-6.228,10.597-9.35,15.893c-2.258,3.829-4.531,7.652-6.795,11.479c-0.917,1.548-1.75,3.146-2.784,4.624
			c0.033-2.367,0.532-4.659,1.124-6.938c0.512-1.973,1.241-3.876,1.875-5.813c0.244-0.562,0.487-1.126,0.73-1.689
			c0.72-1.479,1.401-2.976,2.016-4.501c0.076-0.125,0.161-0.247,0.224-0.378c2.304-4.73,4.961-9.249,7.967-13.566
			c2.877-4.13,6.019-8.037,9.741-11.447C76.896,70.311,78.261,69.128,79.872,68.274z"/>
		<path fill="#FFFFFF" d="M79.872,68.274c-1.611,0.855-2.976,2.037-4.304,3.255c-3.723,3.41-6.864,7.319-9.742,11.447
			c-3.007,4.317-5.665,8.838-7.966,13.566c-0.063,0.131-0.149,0.253-0.225,0.378c-0.038-0.003-0.076-0.002-0.112,0.01
			c-1.954-0.93-3.975-1.687-6.053-2.285c-0.113-0.374-0.476-0.271-0.726-0.355c-0.431-0.147-0.88-0.251-1.329-0.339
			c-0.439-0.086-0.491-0.342-0.444-0.731c0.154-1.236,0.328-2.472,0.361-3.72c0.213-0.266,0.172-0.599,0.213-0.902
			c0.646-4.755,1.677-9.428,2.992-14.04c0.962-3.375,2.138-6.679,3.355-9.968c0.85-2.209,1.777-4.386,2.768-6.536
			c1.923-4.182,4.055-8.256,6.426-12.2c2.552-4.239,5.318-8.333,8.337-12.262c2.556-3.33,5.281-6.508,8.146-9.569
			c2.135-2.281,4.394-4.439,6.774-6.468c0.43-0.368,0.851-0.745,1.271-1.126c0.174-0.157,0.329-0.332,0.597-0.286
			c5.098,2.543,10.086,5.285,15.013,8.146c0.141,0.082,0.298,0.144,0.448,0.214c0.067,0.075,0.133,0.149,0.2,0.222
			c-0.212,0.198-0.429,0.374-0.582,0.64c-1.443,2.475-2.922,4.929-4.353,7.408c-0.465,0.807-1.104,1.533-1.271,2.495
			c-0.075-0.017-0.153-0.031-0.229-0.047c-0.16-0.099-0.313-0.209-0.481-0.294c-2.858-1.448-5.854-1.825-9.004-1.23
			c-7.229,1.363-12.196,8.861-10.639,16.047c0.843,3.882,2.943,6.864,6.262,9.013c-0.221,0.547-0.583,1.01-0.881,1.513
			c-1.063,1.801-2.134,3.596-3.17,5.413c-0.409,0.718-1.009,1.344-1.153,2.202C80.203,68.014,80.038,68.145,79.872,68.274z"/>
		<path fill="#8C91A5" d="M55.893,64.589c-1.218,3.289-2.395,6.592-3.355,9.968c-1.315,4.611-2.347,9.284-2.992,14.041
			c-0.042,0.303,0,0.635-0.214,0.902c-0.601-0.23-1.245-0.198-1.865-0.245c-2.023-0.154-4.059-0.188-6.07,0.013
			c-3.173,0.313-6.297,0.915-9.331,1.952c-4.191,1.435-8.05,3.471-11.549,6.188c-0.064,0.048-0.131,0.088-0.323,0.219
			c0.188-0.925,0.337-1.729,0.518-2.526c1.332-5.874,3.88-11.166,7.634-15.87c5.684-7.121,13.019-11.651,21.84-13.799
			C52.053,64.978,53.951,64.595,55.893,64.589z"/>
		<path fill="#010101" d="M51.468,94.645c2.079,0.599,4.1,1.355,6.054,2.285c-0.067,0.151-0.135,0.303-0.203,0.457
			c-0.576,1.272-1.259,2.496-1.691,3.834c-0.158,0.076-0.268-0.021-0.394-0.096c-1.741-1.038-3.479-2.081-5.229-3.101
			c-0.343-0.2-0.421-0.35-0.182-0.711C50.399,96.441,50.924,95.535,51.468,94.645z"/>
		<path fill="#C8CDDD" d="M55.628,101.221c0.433-1.338,1.116-2.562,1.691-3.834c0.068-0.152,0.136-0.304,0.204-0.457
			c0.037-0.012,0.074-0.013,0.112-0.01c-0.616,1.525-1.297,3.022-2.015,4.501C55.622,101.352,55.625,101.286,55.628,101.221z"/>
		<path fill="#EDEBEC" d="M99.665,35.267c0.166-0.963,0.806-1.689,1.271-2.495c1.432-2.48,2.909-4.935,4.353-7.408
			c0.153-0.267,0.371-0.442,0.582-0.64c2.174,1.187,4.262,2.521,6.36,3.835c2.97,1.863,5.916,3.766,8.789,5.774
			c0.283,0.641-0.064,1.237-0.191,1.824c-0.793,3.663-1.759,7.285-2.939,10.844c-1.154,3.483-2.462,6.91-3.924,10.279
			c-0.907,2.094-1.856,4.171-2.887,6.205c-1.57,3.107-3.247,6.161-5.062,9.138c-1.675,2.741-3.404,5.443-5.281,8.044
			c-1.774,2.459-3.569,4.908-5.588,7.177c-0.088,0.119-0.169,0.241-0.261,0.354c-4.492,5.329-9.384,10.255-14.822,14.628
			c-1.128,0.909-2.277,1.789-3.415,2.684c-1.054,0.717-2.112,1.428-3.156,2.155c-0.366,0.259-0.613,0.322-0.923-0.127
			c-0.305-0.441-0.756-0.784-1.131-1.181c-0.16-0.169-0.338-0.236-0.564-0.198c-1.545-1.479-3.144-2.894-4.847-4.188
			c2.758-3.95,5.288-8.043,7.484-12.332c2.667-5.215,4.965-10.576,6.274-16.318c0.379-1.66,0.642-3.34,0.683-5.048
			c0.003-0.137,0.081-0.297-0.1-0.389c0.144-0.857,0.743-1.483,1.152-2.202c1.037-1.816,2.105-3.612,3.17-5.413
			c0.298-0.503,0.66-0.966,0.882-1.513c0.036,0.009,0.072,0.019,0.11,0.023c2.455,1.521,5.126,2.128,8,1.944
			c9.236-0.59,15.243-10.17,11.743-18.729C104.247,39.109,102.288,36.907,99.665,35.267z"/>
		<path fill="#686E85" d="M76.649,105.51c1.138-0.895,2.289-1.776,3.415-2.684c5.438-4.373,10.328-9.299,14.822-14.63
			c0.094-0.112,0.175-0.233,0.261-0.352c0.294,0.015,0.28,0.286,0.354,0.458c1.52,3.578,2.527,7.285,2.949,11.157
			c1.148,10.496-1.537,19.937-7.809,28.38c-1.838,2.47-3.996,4.651-6.391,6.596c-0.159,0.13-0.331,0.245-0.619,0.455
			c0.067-0.625,0.119-1.127,0.178-1.628c0.976-8.436-0.641-16.355-4.699-23.799C78.365,108.094,77.445,106.84,76.649,105.51z"/>
		<path fill="#010101" d="M66.028,101.971c1.703,1.295,3.301,2.71,4.847,4.188c-0.276,0.881-0.878,1.587-1.323,2.374
			c-0.49,0.874-0.517,0.845-1.385,0.318c-1.666-1.005-3.338-1.995-5.007-2.99c0.344-0.756,0.961-1.313,1.429-1.979
			C65.046,103.229,65.547,102.605,66.028,101.971z"/>
		<path fill="#686E85" d="M99.665,35.267c2.623,1.639,4.582,3.842,5.763,6.727c3.499,8.559-2.507,18.139-11.744,18.729
			c-2.874,0.185-5.545-0.422-7.999-1.944c0.382-0.682,0.746-1.376,1.154-2.043c0.309-0.505,0.517-1.083,0.995-1.473
			c1.746,0.992,3.61,1.453,5.623,1.306c3.829-0.279,7.138-2.859,8.333-6.522c1.185-3.634,0.029-7.747-2.879-10.188
			c-0.428-0.358-0.833-0.768-1.404-0.913c-0.047-0.065-0.096-0.131-0.141-0.195c0.773-1.127,1.488-2.29,2.068-3.532
			C99.511,35.236,99.589,35.251,99.665,35.267z"/>
		<path fill="#8C91A5" d="M99.436,35.22c-0.581,1.242-1.296,2.404-2.069,3.531c-0.287-0.125-0.573-0.251-0.86-0.376
			c-1.872-0.806-3.812-1.008-5.795-0.56c-4.907,1.113-8.022,5.466-7.392,10.482c0.373,2.965,1.862,5.31,4.481,6.861
			c0.01,0.036,0.022,0.07,0.035,0.104c-0.48,0.39-0.688,0.968-0.997,1.473c-0.408,0.667-0.771,1.361-1.154,2.043
			c-0.038-0.005-0.074-0.014-0.11-0.023c-3.319-2.149-5.42-5.131-6.263-9.013c-1.558-7.187,3.41-14.684,10.64-16.047
			c3.148-0.595,6.145-0.217,9.003,1.23C99.122,35.01,99.275,35.121,99.436,35.22z"/>
		<path fill="#D0E7F3" d="M87.834,55.263c-0.013-0.034-0.024-0.069-0.035-0.104c0.66-1.136,1.315-2.275,1.983-3.406
			c2.266-3.833,4.529-7.669,6.816-11.49c0.271-0.453,0.389-1.028,0.908-1.316c0.571,0.146,0.977,0.555,1.404,0.913
			c2.908,2.441,4.063,6.554,2.879,10.188c-1.195,3.662-4.504,6.243-8.333,6.522C91.444,56.716,89.58,56.255,87.834,55.263z"/>
		<path fill="#FDFDFC" d="M97.508,38.947c-0.52,0.289-0.637,0.862-0.908,1.316c-2.288,3.821-4.551,7.656-6.817,11.49
			c-0.668,1.131-1.322,2.27-1.981,3.406c-2.618-1.553-4.108-3.896-4.481-6.861c-0.631-5.016,2.484-9.37,7.392-10.482
			c1.981-0.449,3.923-0.246,5.795,0.56c0.288,0.125,0.574,0.251,0.86,0.376C97.413,38.816,97.46,38.883,97.508,38.947z"/>
	</g>
</g>
</svg>
