<?xml version="1.0" encoding="utf-8"?>
<!-- Generator: Adobe Illustrator 16.0.0, SVG Export Plug-In . SVG Version: 6.00 Build 0)  -->
<!DOCTYPE svg PUBLIC "-//W3C//DTD SVG 1.1//EN" "http://www.w3.org/Graphics/SVG/1.1/DTD/svg11.dtd">
<svg version="1.1" id="Capa_1" xmlns="http://www.w3.org/2000/svg" xmlns:xlink="http://www.w3.org/1999/xlink" x="0px" y="0px"
	 width="155px" height="155px" viewBox="0 0 155 155" enable-background="new 0 0 155 155" xml:space="preserve">
<g>
	<path fill-rule="evenodd" clip-rule="evenodd" fill="#FFFFFF" d="M155.088,73.051c0,3.073,0,6.148,0,9.223
		c-0.039,0.213-0.1,0.426-0.113,0.642c-0.312,4.811-1.073,9.55-2.297,14.21c-9.825,37.397-45.521,61.835-83.927,57.448
		c-11.058-1.263-21.368-4.762-30.942-10.445C8.812,126.914-5.7,92.572,2.081,59.779C11.079,21.856,47.754-4.964,88.979,1.032
		c15.875,2.31,29.758,8.993,41.465,19.957c14.033,13.142,22.119,29.343,24.277,48.473C154.854,70.657,154.966,71.855,155.088,73.051
		z"/>
</g>
<g>
	<path fill-rule="evenodd" clip-rule="evenodd" fill="#C9CEDF" d="M127.425,18.239c2.328,1.896,4.515,3.956,6.57,6.142
		c3.834,4.074,7.219,8.498,10.113,13.291c3.219,5.328,5.739,10.97,7.604,16.906c0.884,2.815,1.608,5.674,2.145,8.573
		c0.421,2.293,0.752,4.603,0.997,6.927c0.071,0.681-0.063,1.395,0.233,2.052c0,3.688,0,7.378,0,11.067
		c-0.306,0.603-0.195,1.27-0.241,1.897c-0.285,3.825-1.025,7.574-1.923,11.284c-0.913,3.767-2.176,7.433-3.663,11.021
		c-2.073,4.999-4.655,9.713-7.726,14.161c-1.903,2.758-3.985,5.374-6.233,7.864c-1.648,1.826-3.383,3.568-5.176,5.244
		c-2.512,2.344-5.206,4.477-8.024,6.453c-2.479,1.737-5.046,3.331-7.71,4.76c-3.148,1.69-6.403,3.157-9.76,4.395
		c-2.754,1.015-5.54,1.934-8.398,2.594c-2.933,0.679-5.872,1.319-8.879,1.628c-2.021,0.204-4.038,0.395-6.066,0.533
		c-2.15,0.147-4.298,0.114-6.441,0.059c-0.993-0.026-2.012,0.025-3.002-0.194c-0.224-0.051-0.366-0.043-0.34-0.391
		c0.114-1.507-0.256-2.905-1.113-4.162c-0.107-0.158-0.311-0.319-0.208-0.516c0.106-0.201,0.362-0.114,0.543-0.094
		c3.321,0.352,6.654,0.321,9.982,0.236c2.53-0.063,5.048-0.354,7.556-0.727c3.271-0.482,6.483-1.204,9.658-2.119
		c3.014-0.87,5.952-1.941,8.819-3.204c4.486-1.977,8.74-4.38,12.731-7.224c2.283-1.625,4.489-3.347,6.561-5.244
		c1.426-1.306,2.793-2.668,4.14-4.048c2.434-2.497,4.606-5.214,6.644-8.042c2.648-3.679,4.86-7.611,6.758-11.716
		c2.388-5.165,4.114-10.554,5.193-16.146c0.609-3.154,1.012-6.329,1.209-9.54c0.163-2.655,0.201-5.313,0.063-7.956
		c-0.314-6.129-1.369-12.14-3.237-18.004c-1.303-4.083-2.917-8.031-4.909-11.817c-2.351-4.47-5.119-8.663-8.361-12.549
		c-1.856-2.224-3.818-4.344-5.887-6.368c-0.155-0.152-0.326-0.29-0.49-0.434C127.246,22.634,127.335,20.437,127.425,18.239z"/>
	<path fill-rule="evenodd" clip-rule="evenodd" fill="#C9CEDF" d="M56.553,106.909c-2.858-0.329-5.35,0.465-7.496,2.391
		c-2.134,1.915-3.119,4.333-3.174,7.154c-0.013,0.714,0.086,1.443,0.302,2.133c0.144,0.464,0.006,0.602-0.446,0.573
		c-1.331-0.086-2.612,0.115-3.863,0.597c-0.706,0.276-1.346,0.646-1.946,1.085c-0.36,0.265-0.537,0.268-0.823-0.133
		c-2.249-3.141-5.203-5.364-8.853-6.632c-2.171-0.753-4.42-1.059-6.717-0.962c-0.544,0.023-1.098,0.066-1.624,0.194
		c-0.47,0.114-0.719-0.019-0.967-0.411c-2.303-3.643-4.21-7.486-5.754-11.507c-1.747-4.548-2.979-9.238-3.686-14.057
		c-0.295-2.008-0.463-4.032-0.59-6.064c-0.12-1.909-0.126-3.816-0.075-5.718c0.073-2.663,0.334-5.313,0.736-7.955
		c0.611-4.035,1.576-7.976,2.921-11.824c1.625-4.651,3.73-9.071,6.348-13.248c2.31-3.685,4.944-7.11,7.908-10.298
		c4.816-5.182,10.319-9.46,16.494-12.895c5.297-2.946,10.886-5.145,16.785-6.536c2.721-0.642,5.471-1.114,8.255-1.43
		c3.408-0.387,6.822-0.456,10.236-0.345c2.901,0.095,5.79,0.437,8.654,0.948c2.411,0.43,4.79,1,7.147,1.665
		c-0.08,0.071-0.161,0.143-0.242,0.214c-0.87,0.783-1.92,1.358-2.666,2.287c-0.279-0.047-0.442,0.135-0.623,0.298
		c-0.438,0.398-0.877,0.792-1.326,1.176c-2.484,2.118-4.842,4.371-7.071,6.751c-2.989,3.194-5.834,6.512-8.502,9.987
		c-3.15,4.102-6.036,8.374-8.7,12.799c-2.476,4.116-4.701,8.368-6.708,12.733c-1.033,2.245-2.001,4.516-2.888,6.822
		c-2.027,0.006-4.006,0.405-5.956,0.88c-9.207,2.241-16.864,6.97-22.795,14.402c-3.918,4.91-6.58,10.434-7.968,16.564
		c-0.189,0.833-0.345,1.672-0.541,2.637c0.2-0.136,0.271-0.178,0.337-0.229c3.652-2.835,7.681-4.961,12.055-6.459
		c3.165-1.082,6.426-1.71,9.737-2.036c2.1-0.209,4.226-0.175,6.336-0.014c0.648,0.049,1.319,0.015,1.947,0.255
		c-0.035,1.303-0.217,2.591-0.377,3.882c-0.05,0.405,0.005,0.674,0.463,0.763c0.468,0.092,0.937,0.2,1.387,0.354
		c0.261,0.089,0.639-0.019,0.757,0.371c-0.569,0.931-1.117,1.875-1.718,2.784c-0.25,0.377-0.167,0.534,0.19,0.743
		c1.827,1.065,3.642,2.152,5.458,3.236c0.132,0.079,0.246,0.179,0.411,0.1c-0.003,0.068-0.006,0.138-0.01,0.209
		C57.061,105.733,56.808,106.323,56.553,106.909z M39.591,112.98c2.007,0.14,4.058-1.628,4.012-3.964
		c-0.048-2.443-1.767-4-4.07-4.025c-2.225-0.022-3.944,1.859-3.985,4.056C35.513,110.932,37.383,113.197,39.591,112.98z"/>
	<path fill-rule="evenodd" clip-rule="evenodd" fill="#C9CEDE" d="M126.322,31.637c-0.022,0.712,0.557,1.077,0.946,1.506
		c2.199,2.42,4.188,5.003,5.994,7.722c3.059,4.602,5.506,9.509,7.341,14.725c1.363,3.871,2.367,7.828,2.991,11.875
		c0.43,2.787,0.619,5.598,0.741,8.421c0.081,1.913-0.008,3.812-0.094,5.706c-0.149,3.338-0.644,6.645-1.343,9.919
		c-1.287,6.037-3.369,11.784-6.263,17.232c-2.07,3.897-4.504,7.558-7.313,10.968c-1.632,1.982-3.333,3.897-5.182,5.676
		c-4.123,3.966-8.655,7.384-13.632,10.218c-3.979,2.266-8.143,4.094-12.494,5.497c-3.438,1.106-6.946,1.928-10.525,2.446
		c-2.468,0.356-4.946,0.535-7.435,0.693c-2.2,0.141-4.379-0.013-6.564-0.068c-1.372-0.033-2.74-0.243-4.108-0.375
		c-0.501-0.049-0.302-0.291-0.143-0.525c0.625-0.921,1.034-1.908,1.169-3.03c0.226-1.878-0.271-3.538-1.495-4.929
		c-2.055-2.331-4.762-2.936-7.623-1.765c-0.878,0.359-1.653,0.918-2.255,1.663c-0.233,0.286-0.396,0.263-0.642,0.087
		c-1.441-1.036-3.019-1.775-4.747-2.188c-0.496-0.12-0.406-0.388-0.229-0.729c0.719-1.388,1.066-2.87,0.997-4.431
		c-0.025-0.563-0.154-1.122-0.229-1.684c-0.036-0.272-0.1-0.51,0.368-0.462c2.491,0.258,4.736-0.434,6.7-1.951
		c2.703-2.086,3.882-4.91,3.686-8.279c-0.081-1.396-0.435-2.765-1.302-3.931c0.515-0.622,1.03-1.242,1.545-1.864
		c1.743,1.04,3.489,2.073,5.227,3.122c0.908,0.548,0.934,0.579,1.446-0.332c0.464-0.823,1.092-1.559,1.381-2.479
		c0.235-0.04,0.421,0.031,0.588,0.207c0.393,0.413,0.862,0.771,1.181,1.232c0.323,0.469,0.581,0.4,0.963,0.132
		c1.09-0.76,2.195-1.502,3.294-2.249c0.831,1.39,1.791,2.698,2.568,4.127c4.236,7.77,5.923,16.036,4.905,24.841
		c-0.061,0.522-0.114,1.046-0.186,1.699c0.302-0.22,0.48-0.34,0.646-0.475c2.499-2.028,4.752-4.306,6.67-6.885
		c6.546-8.813,9.35-18.666,8.15-29.621c-0.44-4.041-1.491-7.91-3.077-11.645c-0.077-0.181-0.063-0.463-0.37-0.479
		c2.108-2.368,3.98-4.924,5.832-7.49c1.959-2.715,3.765-5.535,5.513-8.396c1.895-3.106,3.644-6.293,5.283-9.537
		c1.075-2.123,2.064-4.291,3.013-6.477c1.525-3.517,2.89-7.093,4.095-10.729c1.232-3.715,2.241-7.495,3.068-11.318
		c0.133-0.614,0.495-1.235,0.2-1.904c0.16-0.06,0.133-0.208,0.156-0.332C125.93,33.74,126.126,32.688,126.322,31.637z"/>
	<path fill-rule="evenodd" clip-rule="evenodd" fill="#C9CEDF" d="M102.111,9.511c-3.533-1.316-7.163-2.28-10.862-2.996
		c-2.703-0.523-5.428-0.852-8.174-1.078c-2.625-0.217-5.253-0.323-7.877-0.212c-4.74,0.202-9.436,0.783-14.064,1.88
		c-5.004,1.184-9.826,2.863-14.477,5.061c-5.276,2.492-10.162,5.586-14.713,9.235c-2.797,2.244-5.379,4.714-7.801,7.34
		c-4.068,4.411-7.529,9.271-10.39,14.559c-3.072,5.681-5.349,11.657-6.824,17.937c-0.628,2.677-1.111,5.384-1.396,8.125
		c-0.181,1.741-0.292,3.482-0.411,5.225c-0.097,1.449-0.121,2.894-0.078,4.335c0.089,2.99,0.318,5.971,0.738,8.938
		c0.682,4.827,1.87,9.521,3.5,14.105c1.598,4.495,3.653,8.78,6.125,12.858c0.278,0.459,0.217,0.663-0.211,0.9
		c-1.118,0.62-2.137,1.383-3.023,2.298c-0.413,0.429-0.635,0.375-0.921-0.106c-1.883-3.163-3.591-6.413-5.037-9.8
		c-1.583-3.712-2.879-7.517-3.874-11.428c-0.538-2.117-1.041-4.247-1.352-6.405c-0.282-1.957-0.542-3.921-0.736-5.896
		c-0.292-2.976-0.239-5.953-0.228-8.93c0.012-3.031,0.316-6.04,0.756-9.042c0.766-5.231,2.049-10.331,3.854-15.294
		c1.499-4.125,3.325-8.101,5.532-11.904c1.53-2.635,3.176-5.188,4.988-7.633c1.485-2.005,3.074-3.924,4.744-5.782
		c1.602-1.78,3.284-3.483,5.037-5.105c3.49-3.231,7.255-6.122,11.295-8.648c2.325-1.454,4.697-2.824,7.164-4.017
		C47.9,5.854,52.564,4.089,57.4,2.785c2.237-0.604,4.494-1.122,6.778-1.497c2.194-0.361,4.401-0.639,6.619-0.857
		c3.591-0.352,7.187-0.304,10.774-0.194c3.157,0.098,6.307,0.457,9.42,1.08c1.969,0.396,3.953,0.714,5.896,1.234
		c3.386,0.907,6.717,1.976,9.966,3.299c0.303,0.125,0.599,0.272,0.938,0.277C105.897,7.256,104.004,8.383,102.111,9.511z"/>
	<path fill-rule="evenodd" clip-rule="evenodd" fill="#01A558" d="M126.322,31.637c-0.196,1.051-0.393,2.103-0.59,3.155
		c-0.023,0.124,0.004,0.271-0.156,0.332c-2.999-2.097-6.074-4.082-9.173-6.027c-2.19-1.372-4.37-2.765-6.64-4.003
		c-0.069-0.077-0.138-0.154-0.208-0.232c0.279-0.056,0.363-0.31,0.48-0.507c1.478-2.48,2.946-4.964,4.413-7.449
		c2.39-4.049,4.78-8.099,7.159-12.153c0.906-1.544,1.898-3.041,2.661-4.667c0.367-0.226,0.432,0.04,0.519,0.309
		c0.683,2.125,1.225,4.287,1.608,6.484c0.556,3.192,0.931,6.398,0.918,9.649c-0.002,0.559-0.076,1.153,0.11,1.713
		c-0.09,2.198-0.179,4.395-0.269,6.594c-0.217,1.815-0.432,3.629-0.65,5.444C126.45,30.731,126.384,31.184,126.322,31.637z"/>
	<path fill-rule="evenodd" clip-rule="evenodd" fill="#3FB66A" d="M124.27,0.085c-0.763,1.626-1.755,3.122-2.661,4.667
		c-2.379,4.054-4.77,8.104-7.159,12.153c-1.467,2.485-2.936,4.969-4.413,7.449c-0.117,0.198-0.201,0.451-0.48,0.507
		c-0.157-0.074-0.319-0.139-0.468-0.224c-5.142-2.986-10.349-5.848-15.669-8.501c0.746-0.929,1.796-1.504,2.666-2.287
		c0.081-0.071,0.162-0.143,0.242-0.214c1.898-1.416,3.823-2.794,5.784-4.124c1.893-1.127,3.786-2.254,5.681-3.383
		c3.76-1.976,7.62-3.712,11.705-4.913C121.066,0.754,122.634,0.281,124.27,0.085z"/>
	<path fill-rule="evenodd" clip-rule="evenodd" fill="#01A558" d="M65.185,109.779c-0.515,0.622-1.03,1.242-1.544,1.864
		c-1.902,2.143-3.839,4.252-6.033,6.106c-1.187,1.002-2.416,1.954-3.772,2.724c-0.317,0.182-0.558,0.291-0.411-0.255
		c1.079-1.543,1.949-3.211,2.905-4.828c2.363-3.994,4.735-7.983,7.093-11.98c3.257-5.527,6.499-11.062,9.758-16.587
		c2.791-4.732,5.605-9.451,8.388-14.189c0.394-0.669,0.918-1.283,1.062-2.085c0.173-0.135,0.346-0.271,0.519-0.408
		c0.19,0.096,0.108,0.263,0.105,0.406c-0.043,1.783-0.317,3.535-0.713,5.269c-1.366,5.992-3.765,11.587-6.549,17.031
		c-2.292,4.479-4.933,8.749-7.812,12.873c-0.502,0.663-1.024,1.313-1.502,1.994C66.189,108.409,65.545,108.991,65.185,109.779z"/>
	<path fill-rule="evenodd" clip-rule="evenodd" fill="#3FB66A" d="M82.629,70.549c-0.144,0.802-0.668,1.416-1.062,2.085
		c-2.783,4.738-5.597,9.457-8.388,14.189c-3.259,5.525-6.5,11.06-9.758,16.587c-2.357,3.997-4.729,7.986-7.093,11.98
		c-0.957,1.617-1.826,3.285-2.905,4.828c0.034-2.472,0.555-4.864,1.172-7.244c0.535-2.058,1.296-4.045,1.958-6.065
		c0.254-0.586,0.508-1.176,0.762-1.765c0.751-1.543,1.462-3.104,2.104-4.696c0.079-0.132,0.168-0.258,0.234-0.395
		c2.403-4.937,5.177-9.655,8.315-14.16c3.003-4.31,6.282-8.389,10.167-11.947C79.523,72.675,80.948,71.44,82.629,70.549z"/>
	<path fill-rule="evenodd" clip-rule="evenodd" fill="#FEFEFE" d="M82.629,70.549c-1.681,0.892-3.105,2.126-4.493,3.397
		c-3.885,3.558-7.163,7.638-10.167,11.947c-3.139,4.505-5.912,9.224-8.315,14.16c-0.066,0.137-0.155,0.263-0.234,0.395
		c-0.04-0.005-0.079-0.002-0.118,0.01c-2.039-0.972-4.148-1.76-6.318-2.386c-0.118-0.39-0.496-0.282-0.757-0.371
		c-0.45-0.153-0.919-0.262-1.387-0.354c-0.458-0.089-0.513-0.357-0.463-0.763c0.16-1.291,0.342-2.579,0.377-3.882
		c0.223-0.278,0.179-0.625,0.223-0.941c0.673-4.964,1.75-9.841,3.123-14.655c1.003-3.523,2.231-6.971,3.502-10.404
		c0.886-2.306,1.854-4.578,2.888-6.822c2.007-4.365,4.232-8.617,6.708-12.733c2.664-4.425,5.55-8.698,8.7-12.799
		c2.668-3.475,5.513-6.793,8.502-9.987c2.229-2.381,4.587-4.633,7.071-6.751c0.449-0.384,0.889-0.778,1.326-1.176
		c0.181-0.164,0.344-0.346,0.623-0.298c5.32,2.654,10.527,5.516,15.669,8.501c0.148,0.085,0.311,0.15,0.468,0.224
		c0.07,0.078,0.139,0.156,0.208,0.232c-0.22,0.207-0.446,0.39-0.607,0.668c-1.505,2.583-3.048,5.144-4.543,7.732
		c-0.484,0.842-1.152,1.6-1.326,2.604c-0.079-0.017-0.16-0.032-0.239-0.049c-0.167-0.103-0.327-0.219-0.502-0.307
		c-2.983-1.511-6.111-1.905-9.398-1.284c-7.545,1.423-12.73,9.248-11.104,16.749c0.88,4.052,3.072,7.164,6.536,9.407
		c-0.23,0.571-0.61,1.055-0.92,1.58c-1.11,1.879-2.227,3.753-3.308,5.649c-0.427,0.75-1.053,1.403-1.204,2.298
		C82.975,70.277,82.802,70.414,82.629,70.549z"/>
	<path fill-rule="evenodd" clip-rule="evenodd" fill="#40B66A" d="M57.601,66.703c-1.271,3.433-2.499,6.88-3.502,10.404
		c-1.372,4.814-2.449,9.691-3.123,14.655c-0.043,0.316,0,0.663-0.223,0.941c-0.627-0.24-1.299-0.206-1.947-0.255
		c-2.111-0.161-4.236-0.195-6.336,0.014c-3.311,0.326-6.572,0.954-9.737,2.036c-4.375,1.498-8.403,3.624-12.055,6.459
		c-0.066,0.051-0.137,0.093-0.337,0.229c0.196-0.965,0.352-1.804,0.541-2.637c1.389-6.131,4.05-11.654,7.968-16.564
		c5.931-7.432,13.588-12.161,22.795-14.402C53.594,67.108,55.574,66.709,57.601,66.703z"/>
	<path fill-rule="evenodd" clip-rule="evenodd" fill="#020202" d="M52.983,98.072c2.17,0.626,4.279,1.414,6.318,2.386
		c-0.07,0.158-0.141,0.316-0.212,0.475c-0.6,1.329-1.313,2.607-1.765,4.003c-0.165,0.079-0.279-0.021-0.411-0.1
		c-1.817-1.084-3.632-2.171-5.458-3.236c-0.357-0.209-0.439-0.366-0.19-0.743C51.867,99.947,52.415,99.003,52.983,98.072z"/>
	<path fill-rule="evenodd" clip-rule="evenodd" fill="#C9CEDE" d="M57.325,104.936c0.452-1.396,1.165-2.674,1.765-4.003
		c0.071-0.158,0.142-0.316,0.212-0.475c0.039-0.012,0.078-0.015,0.118-0.01c-0.643,1.592-1.353,3.153-2.104,4.696
		C57.319,105.073,57.322,105.004,57.325,104.936z"/>
	<path fill-rule="evenodd" clip-rule="evenodd" fill="#EEEDED" d="M103.287,36.098c0.174-1.005,0.842-1.763,1.326-2.604
		c1.495-2.589,3.038-5.15,4.543-7.732c0.161-0.278,0.388-0.461,0.607-0.668c2.27,1.238,4.449,2.631,6.64,4.003
		c3.099,1.945,6.174,3.931,9.173,6.027c0.295,0.669-0.067,1.291-0.2,1.904c-0.827,3.823-1.836,7.604-3.068,11.318
		c-1.205,3.636-2.569,7.212-4.095,10.729c-0.948,2.186-1.938,4.354-3.013,6.477c-1.64,3.243-3.389,6.43-5.283,9.537
		c-1.748,2.861-3.554,5.681-5.513,8.396c-1.852,2.566-3.724,5.122-5.832,7.49c-0.091,0.124-0.175,0.251-0.272,0.369
		c-4.689,5.563-9.794,10.704-15.47,15.268c-1.177,0.948-2.377,1.867-3.565,2.801c-1.099,0.747-2.204,1.489-3.294,2.249
		c-0.382,0.269-0.64,0.337-0.963-0.132c-0.319-0.462-0.789-0.819-1.181-1.232c-0.167-0.176-0.353-0.247-0.588-0.207
		c-1.613-1.543-3.282-3.02-5.06-4.371c2.879-4.124,5.52-8.395,7.812-12.873c2.785-5.443,5.183-11.039,6.549-17.031
		c0.396-1.733,0.67-3.486,0.713-5.269c0.003-0.143,0.085-0.31-0.105-0.406c0.151-0.895,0.777-1.548,1.204-2.298
		c1.081-1.896,2.197-3.77,3.308-5.649c0.31-0.525,0.689-1.009,0.92-1.58c0.038,0.01,0.076,0.02,0.116,0.024
		c2.562,1.588,5.35,2.222,8.35,2.029c9.64-0.616,15.909-10.614,12.257-19.548C108.071,40.109,106.025,37.81,103.287,36.098z"/>
	<path fill-rule="evenodd" clip-rule="evenodd" fill="#01A558" d="M79.265,109.412c1.188-0.934,2.389-1.853,3.565-2.801
		c5.676-4.563,10.78-9.705,15.47-15.268c0.098-0.118,0.182-0.245,0.272-0.369c0.307,0.017,0.293,0.299,0.37,0.479
		c1.586,3.734,2.637,7.604,3.077,11.645c1.199,10.955-1.604,20.809-8.15,29.621c-1.918,2.579-4.171,4.856-6.67,6.885
		c-0.166,0.135-0.345,0.255-0.646,0.475c0.071-0.653,0.125-1.177,0.186-1.699c1.018-8.805-0.669-17.071-4.905-24.841
		C81.056,112.11,80.096,110.802,79.265,109.412z"/>
	<path fill-rule="evenodd" clip-rule="evenodd" fill="#020202" d="M68.179,105.719c1.778,1.352,3.446,2.828,5.06,4.371
		c-0.289,0.921-0.917,1.656-1.381,2.479c-0.512,0.911-0.539,0.88-1.446,0.332c-1.738-1.049-3.484-2.082-5.227-3.122
		c0.36-0.788,1.004-1.37,1.492-2.066C67.155,107.032,67.677,106.382,68.179,105.719z"/>
	<path fill-rule="evenodd" clip-rule="evenodd" fill="#02A558" d="M103.287,36.098c2.738,1.711,4.784,4.011,6.015,7.021
		c3.652,8.934-2.617,18.933-12.257,19.548c-3,0.193-5.788-0.441-8.35-2.029c0.399-0.711,0.779-1.436,1.205-2.132
		c0.322-0.527,0.539-1.13,1.04-1.537c1.821,1.035,3.767,1.516,5.868,1.363c3.996-0.291,7.45-2.984,8.698-6.807
		c1.236-3.793,0.03-8.086-3.005-10.634c-0.446-0.374-0.87-0.801-1.466-0.953c-0.049-0.068-0.099-0.137-0.147-0.204
		c0.808-1.177,1.553-2.39,2.159-3.686C103.127,36.066,103.208,36.082,103.287,36.098z"/>
	<path fill-rule="evenodd" clip-rule="evenodd" fill="#3FB66A" d="M103.048,36.049c-0.606,1.296-1.352,2.509-2.159,3.686
		c-0.3-0.131-0.599-0.263-0.899-0.393c-1.954-0.841-3.979-1.053-6.049-0.584c-5.121,1.161-8.372,5.705-7.714,10.94
		c0.389,3.095,1.944,5.542,4.677,7.162c0.011,0.037,0.023,0.073,0.037,0.109c-0.501,0.407-0.718,1.01-1.04,1.537
		c-0.426,0.696-0.806,1.421-1.205,2.132c-0.04-0.005-0.078-0.014-0.116-0.024c-3.464-2.243-5.656-5.355-6.536-9.407
		c-1.626-7.501,3.56-15.326,11.104-16.749c3.287-0.621,6.415-0.227,9.398,1.284C102.721,35.83,102.881,35.946,103.048,36.049z"/>
	<path fill-rule="evenodd" clip-rule="evenodd" fill="#D1E8F4" d="M90.94,56.969c-0.014-0.036-0.026-0.072-0.037-0.109
		c0.689-1.186,1.372-2.375,2.069-3.555c2.365-4.001,4.728-8.004,7.115-11.992c0.283-0.473,0.406-1.073,0.948-1.374
		c0.596,0.152,1.02,0.579,1.466,0.953c3.035,2.548,4.241,6.841,3.005,10.634c-1.248,3.822-4.702,6.516-8.698,6.807
		C94.707,58.485,92.762,58.004,90.94,56.969z"/>
	<path fill-rule="evenodd" clip-rule="evenodd" fill="#FDFEFD" d="M101.036,39.939c-0.542,0.301-0.665,0.9-0.948,1.374
		c-2.388,3.988-4.75,7.991-7.115,11.992c-0.697,1.181-1.38,2.369-2.069,3.555c-2.732-1.621-4.288-4.067-4.677-7.162
		c-0.658-5.235,2.593-9.779,7.714-10.94c2.069-0.469,4.095-0.257,6.049,0.584c0.301,0.13,0.6,0.262,0.899,0.393
		C100.938,39.803,100.987,39.872,101.036,39.939z"/>
</g>
</svg>
