<?xml version="1.0" encoding="utf-8"?>
<!-- Generator: Adobe Illustrator 21.1.0, SVG Export Plug-In . SVG Version: 6.00 Build 0)  -->
<svg version="1.1" id="Capa_1" xmlns="http://www.w3.org/2000/svg" xmlns:xlink="http://www.w3.org/1999/xlink" x="0px" y="0px"
	 viewBox="0 0 400 400" style="enable-background:new 0 0 400 400;" xml:space="preserve">
<style type="text/css">
	.st0{fill:#C8CCDC;}
	.st1{fill:#FDFDFD;}
	.st2{clip-path:url(#SVGID_2_);}
	.st3{fill:#8A421A;}
	.st4{fill:#F3DAC9;}
	.st5{fill:#E7C1A7;}
	.st6{fill:#DA3B68;}
	.st7{fill:#FFFFFF;}
	.st8{fill:#72B46E;}
	.st9{fill:#5A8666;}
	.st10{fill:#5CA25D;}
	.st11{fill:#444444;}
</style>
<g>
	<g>
		<path class="st0" d="M394.6,214.7c-0.7,1.5-0.4,3.1-0.6,4.6c-1.2,13.2-3.8,26.1-7.8,38.8c-2.8,8.9-6.2,17.6-10.2,26.1
			c-4.5,9.3-9.6,18.2-15.5,26.7c-4.7,6.7-9.8,13.1-15.3,19.2c-4.2,4.6-8.5,9-13,13.2c-6.2,5.8-12.9,11.1-19.9,16
			c-9,6.3-18.5,11.9-28.5,16.6c-14.1,6.6-28.7,11.5-43.9,14.6c-8,1.6-16,2.6-24.1,3.3c-7.3,0.6-14.6,0.8-21.8,0.5
			c-8.1-0.3-16.2-1.2-24.2-2.5c-10.7-1.7-21.2-4.3-31.4-7.8c-13.7-4.7-26.7-10.8-39-18.4c-8.9-5.5-17.2-11.6-25.1-18.4
			c-6.7-5.7-12.9-12-18.8-18.6c-6-6.8-11.5-13.9-16.5-21.4c-4.2-6.2-8-12.7-11.3-19.4c-6.2-12.5-11.1-25.4-14.6-39
			c-2.2-8.5-3.8-17.1-4.8-25.9c-1.3-10.8-1.3-21.7-0.9-32.6c0.3-7.8,1.4-15.6,2.7-23.4c2.5-14.5,6.8-28.5,12.5-42
			c4.2-10,9.3-19.6,15.2-28.7C43.5,87.4,49.9,79,57,71.2c11.8-13,25-24.2,39.7-33.7c19.2-12.3,39.9-20.8,62.1-25.8
			c7.1-1.6,14.4-2.6,21.6-3.5c10.2-1.2,20.4-1.1,30.7-0.8c8.4,0.2,16.7,1.4,25,2.9c9.5,1.8,18.9,4.2,28,7.4
			c12,4.2,23.5,9.5,34.6,15.9c8.7,5.1,17,10.8,24.8,17.1c6.5,5.3,12.7,11,18.4,17.1c8.3,8.8,15.8,18.3,22.3,28.5
			c7.6,11.9,13.9,24.5,18.8,37.8c3.8,10.4,6.8,21.1,8.7,32.1c0.9,5.1,1.7,10.3,2.2,15.5c0.2,1.8-0.1,3.6,0.6,5.3
			C394.6,196.3,394.6,205.5,394.6,214.7z M200.8,381.6c99.8,0.4,181.2-81.2,181.3-179.9c0-49.9-17.6-92.8-52.6-128.1
			C294.7,38.5,252,20.4,202.6,20C101,19,19.8,101.2,19.8,200.7C19.7,300.6,101.3,381.8,200.8,381.6z"/>
		<path class="st1" d="M200.8,381.6c-99.5,0.2-181.1-81-181.1-180.9C19.8,101.2,101,19,202.6,20c49.4,0.5,92.1,18.5,126.9,53.6
			c35,35.3,52.6,78.2,52.6,128.1C382,300.3,300.6,382,200.8,381.6z M367.6,200.7c0.4-91.3-74.5-165.7-165.2-166.4
			c-93.3-0.7-168.2,74.8-168.3,166.2c-0.1,92.1,74.4,166.5,166.2,166.8C293.2,367.7,368.2,292.1,367.6,200.7z"/>
		<path class="st0" d="M367.6,200.7c0.5,91.4-74.4,167-167.2,166.7C108.6,367,34.1,292.6,34.2,200.5c0.1-91.4,75-166.9,168.3-166.2
			C293.1,34.9,368.1,109.4,367.6,200.7z"/>
	</g>
	<g>
		<defs>
			<circle id="SVGID_1_" cx="200.3" cy="201.9" r="194.3"/>
		</defs>
		<clipPath id="SVGID_2_">
			<use xlink:href="#SVGID_1_"  style="overflow:visible;"/>
		</clipPath>
		<g class="st2">
			<g>
				<g>
					<g>
						<path class="st3" d="M198.3,334.8c-100.6,2-111.8-116.7-108.2-175.3C96.9,50.3,196.1,6.5,236.6,44c43,0,63.2,53.5,68.1,114.5
							C311.1,239.8,281.1,333.2,198.3,334.8z"/>
						<path class="st4" d="M227.4,260.9c-0.6,1-64.3,2-65,3c-20,28.5-63.2,41-97.6,48.7c-34.2,7.6-35.5,51.1-35.6,80h333.5
							c-0.1-28.9-0.7-72.2-35.6-80C292.1,304.9,246.4,290.8,227.4,260.9z"/>
						<path class="st4" d="M229.3,200v81.8c-18.4,24.1-48.4,23.3-66.8,0V200C162.5,155.8,229.3,155.8,229.3,200z"/>
						<path class="st5" d="M229.3,200v54.8c-12.6,9.9-24.8,15.4-33.4,15.4c-8.6,0-20.8-5.5-33.4-15.4V200
							C162.5,155.8,229.3,155.8,229.3,200z"/>
						<path class="st4" d="M195.9,256.6c-21.7,0-67.7-34.2-81.9-83.2C99.7,124,126.7,53,195.9,53c69.2,0,96.2,70.9,81.9,120.4
							C263.6,222.4,217.7,256.6,195.9,256.6z"/>
						<path class="st6" d="M169.7,207.3c11.1-10.7,19.7-2.7,26.2-2.7c6.5,0,15.1-8.1,26.2,2.7C216.2,235.6,177.6,236.5,169.7,207.3z
							"/>
						<path class="st7" d="M173.1,208.7c6.1-1.5,36.9-1.9,45.6-0.3C211.5,221.6,179.2,220.8,173.1,208.7z"/>
						<path class="st6" d="M169.7,207.3c11.1-10.7,19.7-2.7,26.2-2.7c6.5,0,15.1-8.1,26.2,2.7C205.2,215.6,181.1,211.7,169.7,207.3z
							"/>
						
							<ellipse transform="matrix(0.9189 -0.3946 0.3946 0.9189 -56.3886 56.7305)" class="st4" cx="109.7" cy="165.5" rx="13.8" ry="23.8"/>
						
							<ellipse transform="matrix(0.3947 -0.9188 0.9188 0.3947 19.8339 361.0717)" class="st4" cx="284" cy="165.5" rx="23.8" ry="13.8"/>
						<path class="st3" d="M284.4,172.5c26.3-112.7-53.1-131.9-99.4-131.9c-52.1,0-91.4,61.9-82.7,134
							c27.8-16.8,52.3-49.9,113.1-103.9c-8.8,15.9-26.1,44.7-84.7,97c31.5,5.2,90.3-34.6,121.6-76.1
							C259.9,121.1,270.7,153.5,284.4,172.5z"/>
						<path class="st8" d="M144.4,281.9c-18.8,14.7-60.6,26.5-79.6,30.8c-34.2,7.6-35.5,51.1-35.6,80h333.5
							c-0.1-28.9-0.7-72.2-35.6-80c-18.7-4.2-42-10.6-59.6-19.4l-20.9-12.4c-28.7,47.7-34.1,86.2-50.6,95.4
							C179.4,367.1,173,329.5,144.4,281.9z"/>
						<g>
							<path class="st9" d="M88.8,392.7c0.2-6.6,0.8-14.5,2.4-24.1c-2.9,9.4-5,17.2-6.5,24.1H88.8z"/>
							<path class="st9" d="M303,392.7c-0.2-6.6-0.8-14.5-2.4-24.1c3,9.4,5,17.2,6.5,24.1H303z"/>
						</g>
					</g>
					<g>
						<path class="st7" d="M148.3,303.4c15.1,11.2,56.8,18.5,94.3,2.7c-25.9,34.2-17,88.7-17,88.7h-52.9
							C172.6,394.8,167.2,347,148.3,303.4z"/>
						<g>
							<path class="st10" d="M162.3,263.5v33.9l12.6,96.1h-21.7l-23.9-35.7l22.8-15.2l-27.9-13C124.2,329.5,130.1,283.8,162.3,263.5
								z"/>
							<path class="st10" d="M229.4,263.5v33.9l-12.8,96.1h21.7l23.9-35.7l-22.8-15.2l27.9-13C267.3,329.5,256.9,281.5,229.4,263.5z
								"/>
						</g>
					</g>
				</g>
				<path class="st11" d="M278.5,108.3c-12.6-33.1-44.8-55.3-80.2-55.3c-45.6,0-82.9,35.7-85.6,80.6c-1.5-0.8-3.3-1.6-5.5-2.1
					c0,0-4.7-0.8-11.4,1.4c-8.4,3.1-15.3,11.4-16.3,31.1c-1.4,25.9,12.3,36.9,26.4,38.8c2.5,0.3,9.4,0.9,12.2,0.3
					c4.3,5.1,17.8,19.3,39.9,27.1c1.6,4.2,7.8,7.4,15.3,7.4c8.7,0,15.7-4.2,15.7-9.5c0-5.2-7-9.5-15.7-9.5c-6.2,0-11.5,2.1-14,5.3
					c-19.5-7.1-31.8-19.8-36-24.5c-6.8-14.1-7.8-34.8-6.2-46.5c0.6-4.2,0.9-7.8,1.6-11.8c0-0.2,0-0.8,0-1.3c0.1-0.3,0.2-0.7,0.2-1
					c0-43.8,35.6-79.4,79.4-79.4c32.8,0,62.6,20.6,74.3,51.2c0.6,1.6,2.5,2.5,4.1,1.8C278.3,111.8,279.2,109.9,278.5,108.3z"/>
			</g>
		</g>
	</g>
</g>
</svg>
