<?xml version="1.0" encoding="utf-8"?>
<!-- Generator: Adobe Illustrator 21.1.0, SVG Export Plug-In . SVG Version: 6.00 Build 0)  -->
<svg version="1.1" id="Capa_1" xmlns="http://www.w3.org/2000/svg" xmlns:xlink="http://www.w3.org/1999/xlink" x="0px" y="0px"
	 viewBox="0 0 400 400" style="enable-background:new 0 0 400 400;" xml:space="preserve">
<style type="text/css">
	.st0{fill-rule:evenodd;clip-rule:evenodd;fill:#C9CEDF;}
	.st1{fill-rule:evenodd;clip-rule:evenodd;fill:#EDEFF4;}
	.st2{fill-rule:evenodd;clip-rule:evenodd;fill:#58595B;}
	.st3{fill-rule:evenodd;clip-rule:evenodd;fill:#454547;}
	.st4{fill-rule:evenodd;clip-rule:evenodd;fill:#B9BED5;}
	.st5{fill-rule:evenodd;clip-rule:evenodd;fill:#FFFFFF;}
	.st6{fill-rule:evenodd;clip-rule:evenodd;fill:#B4BAD2;}
	.st7{fill-rule:evenodd;clip-rule:evenodd;fill:#DFE3EB;}
	.st8{fill:#01A558;}
	.st9{fill:#40B66A;}
</style>
<g>
	<g>
		<path class="st0" d="M30.3,292c-1.4-2.7-2.7-5.5-4.1-8.2c-2.5-5.2-4.8-10.5-6.8-15.9c-2.8-7.5-5.2-15.1-7-22.9
			c-1.1-4.9-2.1-9.9-2.9-14.9c-0.5-3.6-1-7.2-1.4-10.8c-0.1-1.4-0.3-2.7-0.3-4.1c0-0.3,0-0.7-0.3-0.9c-0.5-0.7,0.1-1.6-0.3-2.3
			c0-7.7,0-15.3,0-23c0.4-0.7-0.1-1.6,0.3-2.3c0.2-0.2,0.3-0.4,0.3-0.7c0-3.8,0.6-7.6,1.1-11.4c0.7-5.7,1.8-11.3,3-16.8
			c1.6-7.3,3.7-14.4,6.2-21.5c1.9-5.4,4-10.6,6.4-15.8c1.5-3.2,3-6.4,4.7-9.6c2.2-4.2,4.6-8.3,7.1-12.3c3.2-5.1,6.6-10,10.2-14.8
			c2.2-2.9,4.4-5.6,6.8-8.4c3.9-4.6,7.9-9,12.3-13.2c3-2.9,6.1-5.7,9.3-8.4c4-3.4,8.2-6.6,12.5-9.8c4.3-3.2,8.8-6.1,13.3-8.8
			c4.8-2.9,9.8-5.7,14.9-8.1c6.1-2.9,12.4-5.6,18.8-7.9c7.5-2.7,15.1-4.9,22.9-6.7c4.5-1,9-1.9,13.6-2.6c3.5-0.5,7.1-1,10.7-1.3
			c3.1-0.3,6.3-0.4,9.4-0.7c5-0.4,9.9-0.3,14.9-0.2c3,0,6.1,0.1,9.1,0.5c1.5,0.2,3,0.2,4.6,0.3c2.3,0.2,4.7,0.5,7,0.8
			c3,0.4,6,0.9,9,1.4c4.3,0.8,8.6,1.8,12.9,2.8c9.1,2.2,18,5.3,26.6,8.9c4.7,1.9,9.3,4,13.8,6.4c5.2,2.8,10.3,5.7,15.3,8.8
			c6.5,4.1,12.6,8.6,18.5,13.4c3.2,2.6,6.2,5.3,9.2,8.1c2.3,2.1,4.5,4.3,6.7,6.5c3,3,5.8,6.3,8.7,9.6c2.9,3.3,5.6,6.7,8.2,10.2
			c3.8,5,7.2,10.2,10.5,15.6c3.1,5,5.9,10.2,8.4,15.5c2.6,5.4,5,10.9,7,16.5c2.7,7.5,5.2,15,6.9,22.8c1.1,5,2.2,10,2.9,15
			c0.5,3.5,1,7.1,1.3,10.7c0.3,3.3,0.4,6.5,0.7,9.8c0.4,4.9,0.3,9.8,0.2,14.7c-0.1,2.9-0.1,5.8-0.5,8.6c-0.2,1.5-0.2,3.1-0.4,4.7
			c-0.4,4-0.9,8.1-1.6,12.1c-1,6.3-2.3,12.5-4,18.7c-1.9,7.1-4.2,14-6.8,20.8c-2.5,6.4-5.4,12.6-8.5,18.8c-0.4,0.7-1,1.3-1.1,2.2
			c-0.4,0.4-0.9,0.4-1.4,0.4c-4.2,0-8.5,0.1-12.7-0.1c-0.2,0-0.4-0.1-0.5-0.2c-0.5-0.9,0.2-1.6,0.6-2.2c2.3-3.9,4.3-8,6.3-12
			c8-16.6,13.2-34.1,15.8-52.3c1.6-11.2,2-22.4,1.5-33.7c-0.6-14.6-3.1-28.9-7.3-42.9c-5.1-17.2-12.8-33.2-22.7-48.1
			c-0.2-0.3-0.4-0.5-0.5-0.9c0,7.9,0,15.8,0,23.6c0,0.8,0.2,1.8-0.5,2.5c-0.2,0-0.4,0-0.5-0.2c-0.4-0.8-0.3-1.7-0.3-2.6
			c0-10,0-20.1,0-30.1c0-2.6-0.8-4.7-3.5-5.7c-1.5-0.8-3.1-0.1-4.7-0.5c-1.9-1.4-3.2-3.4-4.7-5.2c-4.1-4.5-8.2-8.9-12.7-13
			c-5.3-4.9-10.8-9.4-16.6-13.7c-9.8-7.2-20.3-13.3-31.4-18.3C262.3,31,249,26.8,235.2,24.1c-7.7-1.5-15.4-2.5-23.2-2.9
			c-6.9-0.4-13.8-0.5-20.6-0.2c-13.9,0.6-27.6,2.9-41,6.8c-11.6,3.4-22.7,7.8-33.4,13.4c-12.6,6.7-24.3,14.6-35,24.1
			c-3.7,3.3-7.3,6.6-10.7,10.1c-3.2,3.4-6.3,6.8-9.3,10.4c-0.4,0.5-0.7,1-1.3,1.2c-1.8,0.4-3.6-0.1-5.3,0.3
			c-1.4,0.5-2.8,0.8-3.9,1.9c-1,1-1.8,2-1.9,3.5c-0.2,2.7,0,5.4-0.1,8.1c0,0.6,0,1.2-0.1,1.8c-1.6,3.2-3.7,6.2-5.5,9.3
			c-7.7,13.5-13.5,27.8-17.5,42.8c-2.4,9.2-4.1,18.5-5.1,27.9c-1,8.9-1,17.9-0.6,26.8c0.7,16.6,3.9,32.7,9.1,48.5
			c3.7,11,8.5,21.5,14.3,31.6c0.3,0.6,0.6,1.1,0.9,1.7c0.2,0.4,0.3,0.8-0.2,1.1c-1.8,0.5-3.7,0.2-5.5,0.2c-2.2,0-4.5,0-6.7,0
			C31.8,292.5,31,292.6,30.3,292z"/>
		<path class="st1" d="M7.7,186.8c-0.1,0.8,0.3,1.6-0.3,2.3c0-0.8,0-1.5,0-2.3C7.5,186.7,7.6,186.7,7.7,186.8z"/>
		<path class="st1" d="M7.4,212c0.6,0.7,0.2,1.5,0.3,2.3c-0.1,0-0.2,0-0.3,0C7.4,213.5,7.4,212.8,7.4,212z"/>
		<path class="st0" d="M346.2,327.1c-0.9,1.1-1.8,2.2-2.7,3.2c-2.4,2.7-4.9,5.3-7.5,7.8c-3.8,3.7-7.7,7.2-11.8,10.6
			c-3.9,3.2-7.9,6.2-11.9,9.2c-4.3,3.2-8.8,6-13.4,8.7c-7.1,4.2-14.4,7.9-22,11.1c-5.7,2.4-11.4,4.6-17.3,6.5
			c-7.1,2.3-14.3,4.1-21.7,5.5c-3.7,0.8-7.5,1.4-11.2,1.9c-2.4,0.3-4.7,0.6-7.1,0.8c-3.3,0.3-6.5,0.4-9.8,0.7
			c-5.4,0.4-10.7,0.3-16,0.2c-3.9-0.1-7.8-0.4-11.7-0.8c-3.2-0.4-6.4-0.7-9.5-1.1c-4.2-0.6-8.4-1.3-12.5-2.2
			c-7.6-1.7-15.1-3.7-22.5-6.2c-5-1.8-10-3.7-14.9-5.9c-3.4-1.5-6.8-3-10.1-4.7c-5.3-2.8-10.5-5.8-15.6-9
			c-5.3-3.3-10.3-6.9-15.2-10.7c-3.1-2.4-6.1-4.9-9-7.5c-3.3-3-6.6-6-9.8-9.2c-3.2-3.3-6.2-6.7-9.2-10.1c-3-3.4-5.7-6.9-8.4-10.4
			c-1.3-1.7-2.5-3.4-3.7-5.2c0.4-0.4,0.9-0.5,1.3-0.5c4.8,0,9.5-0.1,14.3,0.1c0.6,0.1,1,0.7,1.3,1.1c5.3,6.8,11,13.3,17.3,19.2
			c10.7,10.2,22.5,19.1,35.3,26.5c9.9,5.7,20.3,10.4,31.1,14.1c11.7,4,23.6,6.7,35.9,8.3c10.5,1.4,21,1.6,31.6,1.2
			c13.8-0.6,27.5-2.9,40.8-6.8c17.7-5.1,34.3-12.8,49.6-23c7.9-5.3,15.4-11.2,22.4-17.6c6.4-5.8,12.2-12.2,17.7-18.8
			c0.8-1,1.5-2.1,2.4-3.1c0.4-0.4,0.8-0.9,1.4-1.1c4.7-0.3,9.5-0.1,14.3-0.1c0.5,0,1,0.1,1.3,0.5c-2.5,3.4-4.9,6.9-7.6,10.2
			c-1.3,1.6-2.4,3.2-3.9,4.6c-0.8,0.5-1.5,1.1-2.3,1.6C344.8,327.2,346.4,326.7,346.2,327.1z"/>
		<path class="st2" d="M359.6,310.1c-5.4,0-10.7,0-16.1,0c-0.6,0.4-1.3,0.5-2,0.5c-5.5,0-10.9,0-16.4,0c-79.7,0.1-159.3,0-239,0
			c-3.4,0-6.8,0-10.2,0c-5.5,0.1-11,0-16.6,0c-0.7,0-1.3,0-1.9-0.5c-5.4,0-10.7,0-16.1,0c-4.5,0-9,0-13.5-0.1
			c-0.7,0-1.5,0.1-2.2-0.3c0.5-0.5,1.1-0.5,1.7-0.5c0.8,0,1.5,0,2.3,0c55.7,0,111.3,0,167,0c3.3,0,3.3,0,3.3-3.3c0-1.6,0-3.2,0-4.8
			c0-2.2-0.1-2.3-2.3-2.3c-8.4,0-16.7,0-25.1,0c-1.2,0-2.4,0-3.6,0c-0.6,0-1.4,0-1.7-0.7c0.8-0.9,1.8-0.6,2.8-0.6
			c10.9,0,21.8,0,32.8,0c9.9,0,19.8,0,29.6,0c3.6,0,4.5-0.7,5.8-4.1c0.2-0.6,0.4-1.1,0.9-1.5c0.8-0.4,1.6-0.3,2.4-0.3
			c31.6,0,63.2-0.1,94.8,0.1c6,0,12,0.2,18,0.3c0.6,0,1.3,0.4,1.9,0.2c4.8,0,9.6,0,14.3,0c4.4,0,8.8,0.1,13.2,0.1c0.5,0,1,0,1.5,0
			c1.7,0.1,2.4,0.8,2.4,2.4c0,2.3-0.2,4.7,0.1,7c0.1,1.6-0.3,2.4-1.6,3.2c-2.9,1.7-5.8,3.7-9.1,4.7c-1.1,0.3-2.1,0.5-3.2,0.5
			C369.2,310,364.4,310,359.6,310.1z"/>
		<path class="st3" d="M167.4,297.9c0.6,0.5,1.3,0.3,1.9,0.3c9.7,0,19.3,0,29,0c0.4,0,0.8,0,1.1,0c0.8,0,1.1,0.2,1.1,1
			c0,3.1,0,6.2,0,9.3c0,0.7-0.2,1.1-1,1.1c-0.4,0-0.8,0-1.1,0c-57.3,0-114.7,0-172,0c-0.2,0-0.4,0-0.7,0c-3-0.7-5.6-2.3-8.2-3.9
			c-1.1-0.6-2.1-1.4-3.1-2.1c-0.6-0.4-0.9-0.8-0.9-1.6c0-2.5,0-5,0-7.5c0-1.4,0.4-1.9,1.8-2.3c0.7-0.2,1.4-0.2,2.1-0.2
			c4.3,0,8.6,0,12.9-0.1c4.9,0.1,9.8,0.1,14.8,0c0.7-0.7,1.5-0.5,2.3-0.5c4.8,0,9.6,0,14.4,0c1.1-0.1,2.2,0,3.3,0
			c31.5,0,62.9,0,94.4,0c1,0,2.1-0.1,3.1,0.1c0.5,0.1,0.8,0.4,0.9,0.9C163.9,295,165.4,296.6,167.4,297.9z"/>
		<path class="st4" d="M346.2,327.1c-0.4-0.1-0.8,0.1-1.1-0.2c0.7-1.1,1.8-1.8,3.1-2.1C347.5,325.6,347.1,326.6,346.2,327.1z"/>
		<path class="st0" d="M54.9,87c0.4-0.4,0.9-0.3,1.4-0.3c1.5,0,3,0,4.6,0c0.7-0.5,1.6-0.4,2.4-0.4c4.8,0,9.5,0,14.3,0
			c1.4,0,2.5-0.4,3.5-1.5c7.9-8.3,16.6-15.5,26-21.9c8.1-5.5,16.5-10.2,25.4-14.2c8.8-3.9,17.9-7.1,27.2-9.5
			c7.7-2,15.5-3.3,23.4-4.1c7.1-0.7,14.2-1.1,21.2-0.9c10.8,0.3,21.6,1.5,32.1,3.9c9.7,2.2,19.1,5.1,28.2,8.9
			c15.2,6.4,29.1,14.8,41.8,25.2c4.8,3.9,9.3,8.1,13.6,12.6c1.1,1.1,2.2,1.6,3.8,1.6c4.7-0.1,9.4,0,14.1,0c0.8,0,1.7-0.1,2.4,0.4
			c1.2,0,2.5,0,3.7,0c0.4,0,0.9-0.1,1.2,0.3c-0.4,0.5-1.1,0.5-1.7,0.5c-0.7,0-1.3,0-2,0c-46.4,0-92.8,0-139.2,0c-0.6,0-1.2,0-1.8,0
			c-1.1,0.1-2.2,0-3.3,0c-46.4,0-92.7,0-139.1,0C57.1,87.6,55.9,87.9,54.9,87z"/>
		<path class="st3" d="M54.9,87c2.6,0,5.2,0,7.9,0c45.2,0,90.4,0,135.6,0c0.7,0,1.4,0,2.1,0.1c0.5,0.5,0.5,1.1,0.5,1.7
			c0,3.5,0,7.1,0,10.6c0,0.6-0.1,1.1-0.4,1.5c-1,0.7-2.2,0.4-3.4,0.4c-44,0-88,0-132,0c-0.7,0-1.4,0-2.1,0c-1,0-1.5,0.5-1.5,1.5
			c0,0.5,0,1.1,0,1.6c0,54.1,0,108.2,0,162.3c0,1-0.3,2.1,0.4,3c0.8,0.7,1.7,0.4,2.5,0.4c42.5,0,84.9,0,127.4,0c2.3,0,4.6,0,6.9,0
			c1.6,0,2.1,0.4,2.1,2c0.1,3.8,0.1,7.5,0,11.3c0,1.3-0.6,2-2,2c-0.5,0-1.1,0-1.6,0c-48.3,0-96.5,0-144.8,0c-3.7,0-3.7,0-3.7-3.7
			c0-58.7,0-117.4,0.1-176.1c0-4.5,0-9,0.4-13.6c0.2-2.4,1.9-3.6,3.8-4.6C53.7,87.4,54.3,87.2,54.9,87z"/>
		<path class="st2" d="M200.5,100.8c0-4.6,0-9.2,0-13.7c0.6,0,1.2-0.1,1.8-0.1c39.1,0,78.3,0,117.4,0c8.5,0,16.9,0,25.4,0
			c2.9,0.9,4,3,4,5.9c0,2.1,0,4.2,0,6.4c0,8.7,0,17.4,0,26.2c0,0.2,0,0.4,0,0.7c0.7,1.3,0.5,2.7,0.5,4c0,46.6,0,93.1,0,139.7
			c0,4.6-0.1,9.2-0.1,13.8c0,0.6,0.1,1.3-0.3,1.9c-1.2,0.9-2.6,0.4-4,0.5c-0.7,0.1-1.4,0.1-2.1,0c-1.2,0-2.3,0-3.4,0
			c-92.7,0-185.5,0-278.2,0c-1.2,0-2.4,0-3.6,0c-2.3,0.1-4.6,0-6.9,0c-2.1,0-2.5-0.4-2.5-2.5c0-5-0.1-10.1,0-15.1
			c0.1-1.4,0-2.8,0-4.3c0-42.4,0-84.8,0-127.2c0-1.4,0.1-2.8,0-4.3c-0.1-9.2,0-18.3,0-27.5c0-0.8,0.2-1.6,0.5-2.4
			c0-2.9,0-5.9,0.1-8.8c0-0.6-0.2-1.2,0.3-1.7c0,13.3,0,26.7,0,40c0,50.3,0,100.7,0,151c0,0.2,0,0.4,0,0.7c-0.1,0.8,0.2,1.3,1.1,1.2
			c0.3,0,0.7,0,1,0c49,0,97.9,0,146.9,0c2.4,0,2.2,0.2,2.2-2.2c0-3.6,0-7.1,0-10.7c0-1.5,0-1.5-1.6-1.5c-4.2,0-8.3,0-12.5,0
			c-41,0-82,0-123,0c-0.7,0-1.4,0.3-2-0.3c0.7-0.7,1.6-0.5,2.5-0.5c6.2,0,12.5,0,18.7,0c37.7,0,75.4-0.1,113.1,0
			c46.6,0.1,93.2,0,139.9,0c0.8,0,1.8,0.3,2.5-0.5c0.3-0.7,0.3-1.4,0.3-2.1c0-54.5,0-109,0-163.4c0-0.7,0.1-1.4-0.3-2.1
			c-0.7-0.8-1.6-0.5-2.5-0.5c-31.8,0-63.6,0-95.4,0c-12.4,0-24.8,0-37.2,0C202.2,101.3,201.3,101.5,200.5,100.8z"/>
		<path class="st5" d="M340.2,86.7c-5.8,0-11.7,0-17.5,0c-1,0-1.6-0.3-2.3-1c-1.6-1.7-3.3-3.3-5-5c-3.3-3.2-6.8-6.2-10.3-9.1
			c-4.4-3.6-8.9-6.9-13.6-9.9c-4.3-2.8-8.8-5.4-13.4-7.9c-8.5-4.6-17.3-8.2-26.5-11.2c-6.9-2.3-14-4-21.2-5.4
			c-3.6-0.7-7.2-1.2-10.8-1.6c-1.6-0.2-3.3-0.2-4.9-0.5c-2.5-0.4-5.1-0.1-7.7-0.5c-1.7-0.3-3.5-0.1-5.2-0.1c-2.2,0-4.5-0.2-6.7,0.1
			c-2.7,0.3-5.3,0.1-8,0.5c-1.6,0.2-3.2,0.3-4.9,0.5c-2.6,0.3-5.3,0.6-7.9,1c-4.8,0.8-9.6,1.7-14.4,2.9c-8,2.1-15.8,4.6-23.4,7.8
			c-3.9,1.6-7.7,3.3-11.4,5.3c-9.1,4.7-17.7,10.1-25.8,16.3c-3.4,2.7-6.8,5.5-10,8.4c-3,2.7-5.8,5.6-8.7,8.5c-0.7,0.7-1.4,1-2.4,1
			c-5.8,0-11.6,0-17.4,0c0.6-1.3,1.7-2.2,2.6-3.4c1.1-1.4,2.4-2.7,3.6-4c1.7-1.8,3.4-3.7,5.1-5.5c4.4-4.3,8.9-8.5,13.7-12.4
			c5.2-4.3,10.6-8.3,16.2-11.9c4-2.6,8.1-5,12.2-7.3c8.4-4.6,17.1-8.4,26.1-11.7c8.5-3,17.2-5.3,26-7.1c3.9-0.8,7.8-1.4,11.8-1.8
			c3.7-0.4,7.3-0.7,11-1c6.9-0.5,13.9-0.3,20.8-0.2c3.3,0.1,6.6,0.5,9.9,0.8c9.2,1,18.2,2.6,27.1,5c7.7,2,15.1,4.6,22.4,7.6
			c5.4,2.2,10.6,4.6,15.7,7.4c8.8,4.7,17.2,10,25.1,16.2c4.6,3.5,9,7.2,13.2,11.2c2.7,2.5,5.4,5.1,7.9,7.8
			C334.4,79.8,337.6,83,340.2,86.7z"/>
		<path class="st5" d="M343.2,285.5c1.9,0,3.9-0.1,5.8-0.1c0.5-0.4,0.2-0.9,0.2-1.3c0-2.9,0-5.8,0-8.7c0-1.2,0.3-2.2,0.8-3.3
			c2.9-6.2,5.6-12.4,7.6-18.9c3.6-10.5,6-21.3,7.4-32.3c0.9-7.8,1.5-15.5,1.3-23.3c-0.4-13.4-2.1-26.6-5.6-39.6
			c-0.9-3.3-1.8-6.6-3-9.9c-2-6.5-4.7-12.8-7.6-19c-0.4-0.9-1-1.8-0.7-2.9c0-8.4,0-16.7,0-25.1c0-0.6,0-1.2,0-2.1
			c1.5,1.7,2.5,3.4,3.5,5.1c4.2,6.6,8,13.5,11.3,20.7c2,4.3,3.8,8.8,5.5,13.3c2.4,6.3,4.3,12.8,6,19.3c1.2,4.6,2,9.2,2.8,13.9
			c0.6,3.7,1,7.4,1.5,11.1c0.2,1.7,0.3,3.5,0.4,5.2c0.5,6.9,0.4,13.9,0.3,20.8c0,2.6-0.3,5.2-0.5,7.8c-0.2,2.5-0.5,5-0.8,7.5
			c-0.5,3.7-1.1,7.3-1.7,10.9c-1,5.2-2.3,10.4-3.7,15.5c-1.4,4.9-3,9.7-4.8,14.4c-2.5,6.8-5.6,13.4-9,19.8c-1.4,2.6-2.7,5.2-4.4,7.7
			c-0.2,0.2-0.5,0.2-0.7,0.2c-4.9,0-9.9,0-14.8,0c-0.6,0-1.6,0-1.1-1C340.4,289.2,341.4,287,343.2,285.5z"/>
		<path class="st5" d="M49,268.4c0,5,0,9.9,0.1,14.9c0,2.4-0.3,2.1,2.1,2.1c2.2,0,4.5,0,6.7,0.1c1.7,1.9,3.3,4,3.9,6.5
			c-3.6,0-7.1,0.1-10.7,0.1c-2,0-4,0-6-0.1c-1.3-2.4-2.8-4.7-4-7.1c-3-5.8-5.9-11.7-8.3-17.8c-3.1-7.9-5.7-16-7.7-24.3
			c-1.3-5.4-2.4-10.8-3.2-16.3c-0.5-3.3-0.8-6.7-1.1-10c-0.9-8.3-0.7-16.6-0.5-24.8c0.1-3.5,0.4-6.9,0.8-10.4
			c0.5-4.2,1.1-8.4,1.8-12.6c0.6-3.3,1.3-6.5,2-9.7c1.4-6.1,3.1-12,5.2-17.9c1.6-4.6,3.4-9.2,5.4-13.7c1.8-4.1,3.8-8.1,5.9-12
			c2.3-4.3,4.7-8.6,7.5-12.6c0,0.3,0.1,0.7,0.1,1c0,9.3,0,18.6,0,27.9c0,0.3,0,0.7-0.1,1c-0.9,4-2.9,7.6-4.3,11.5
			c-4.2,11.8-7.2,23.9-8.7,36.4c-0.9,7.6-1.5,15.2-1.3,22.9c0.3,11.2,1.5,22.3,4,33.3c2.3,10,5.4,19.8,9.5,29.2
			C48.7,266.7,48.6,267.6,49,268.4z"/>
		<path class="st6" d="M61.8,292c-1.2-2.2-2.8-4.3-3.9-6.5c0.2,0,0.4,0,0.7,0c0.4,0,0.8,0,1.1,0c93.8,0,187.6,0,281.4,0
			c0.7,0,1.4,0,2.1,0.1c-1.1,2.2-2.6,4.1-3.9,6.5c5.7,0,11.2,0,16.7,0c0.2,0,0.3,0.1,0.5,0.1c-0.6,0.3-1.2,0.2-1.8,0.2
			c-4.6,0-9.2,0.1-13.8,0c-33.5-0.4-66.9-0.1-100.4-0.2c-0.4,0-0.8,0-1.1,0c-0.8,0.4-1.7,0.5-2.5,0.5c-23.8,0-47.6,0-71.3,0
			c-0.8,0-1.6,0-2.4-0.5c-15.6,0-31.2,0-46.9,0c-17.5,0-35.1,0-52.6,0C63,292.1,62.4,292,61.8,292z"/>
		<path class="st0" d="M349.4,126.1c0,0.9,0.5,1.5,0.8,2.3c2.7,5.7,5.2,11.5,7.2,17.4c0.2,0.6,0.5,1.2,0.5,1.9
			c0.4,1.7,0.5,3.4,0.5,5.2c0,31.8,0,63.5,0,95.3c0,1.8-0.1,3.5-0.5,5.2c-0.7,2.9-1.9,5.7-3,8.5c-1.5,3.9-3.2,7.7-5.1,11.5
			c-0.4,0.7-0.5,1.4-0.5,2.2c0,2.8,0,5.6,0,8.4c0,0.5,0.3,1.1-0.4,1.5c0-0.5,0.1-1,0.1-1.5c0-52.1,0-104.1,0.1-156.2
			c0-0.5,0-1.1,0-1.6C349.2,126.1,349.3,126.1,349.4,126.1z"/>
		<path class="st5" d="M325.2,310.1c3.2,0,6.3-0.1,9.5-0.1c2.9,0,5.9,0,8.8,0.1c-1.3,2.1-2.8,4-4.4,5.9c-4.3,5.1-8.8,10.1-13.7,14.7
			c-3.8,3.5-7.6,7-11.7,10.2c-4.4,3.5-9,6.9-13.7,10c-4.3,2.8-8.7,5.5-13.2,7.9c-8.4,4.6-17.1,8.4-26.1,11.7c-8.5,3-17.2,5.3-26,7.1
			c-3.9,0.8-7.8,1.4-11.8,1.8c-3.7,0.4-7.4,0.7-11,1c-6.9,0.5-13.9,0.3-20.8,0.2c-3.3-0.1-6.6-0.5-9.9-0.8c-9.3-0.9-18.4-2.7-27.4-5
			c-7.5-2-14.9-4.5-22.1-7.5c-5.4-2.2-10.6-4.7-15.7-7.4c-4.4-2.3-8.6-4.9-12.8-7.5c-4.5-2.8-8.8-5.9-12.9-9.1
			c-3-2.3-5.9-4.7-8.7-7.2c-4-3.5-7.9-7.1-11.5-11c-3-3.2-6-6.4-8.7-9.9c-1.1-1.4-2.3-2.8-3.4-4.2c-0.2-0.2-0.3-0.5-0.3-0.7
			c6.1-0.1,12.2-0.1,18.3,0c1.2,0.4,1.6,1.5,2.4,2.3c5,5,9.8,10.2,15.4,14.6c7.5,6.1,15.3,11.8,23.7,16.6
			c12.5,7.2,25.7,12.7,39.6,16.6c9.1,2.5,18.4,4.1,27.9,5.1c7,0.7,13.9,1,20.9,0.7c20.7-0.8,40.7-5.1,59.8-13.3
			c14.6-6.2,27.9-14.4,40.2-24.5c0.5-0.4,1-0.8,1.5-1.2c5.9-4.9,11.3-10.3,16.5-16C324.2,310.6,324.7,310.3,325.2,310.1z"/>
		<path class="st6" d="M325.2,310.1c-3.2,4-7,7.5-10.6,11.1c-2.1,2.1-4.3,4.1-6.7,5.9c-1.1,0.6-2.2,0.5-3.4,0.5
			c-26.1,0-52.2,0-78.3,0c-43.1,0-86.2,0-129.3,0c-1.2,0-2.4,0.1-3.5-0.5c-2.3-1.7-4.4-3.6-6.4-5.6c-2.6-2.5-5.2-5.2-7.8-7.7
			c-1.2-1.1-2.2-2.4-3.2-3.7c0.2,0,0.4,0,0.7,0c0.4,0,0.8,0,1.1,0c81.8,0,163.7,0,245.5,0C323.9,310,324.5,310.1,325.2,310.1z"/>
		<path class="st0" d="M163.1,292.1c0.5,0,1.1,0,1.6,0c24.4,0,48.8,0,73.1,0c0.5,0,1,0,1.5,0c-0.6,0.6-0.5,1.4-0.7,2.1
			c-0.6,2.2-2.6,3.8-5.2,3.8c-10.6-0.1-21.3,0-31.9,0c-11.4,0-22.7,0-34,0c-2.2-0.6-3.5-2.1-4-4.3
			C163.3,293.1,163.2,292.6,163.1,292.1z"/>
		<path class="st5" d="M200.5,100.8c0.7,0,1.4,0.1,2.1,0.1c44.8,0,89.6,0,134.4,0c0.6,0,1.3-0.3,1.8,0.3c-0.8,0.7-1.8,0.5-2.7,0.5
			c-10.7,0-21.3,0-32,0c-33.3,0-66.6,0-100,0c-3.2,0-3.2,0-3.2,3.2c0,16.5,0,33,0,49.5c0.1,0.6,0.1,39.5,0,40.1
			c0,23.8,0,47.5,0,71.3c0,0.7,0,1.3,0,2c-0.1,1.2,0.5,1.8,1.8,1.8c0.7,0,1.4,0,2.1,0c43.5,0,87.1,0,130.6,0c1.1,0,2.3-0.3,3.3,0.5
			c-0.1,0.2-0.3,0.3-0.5,0.3c-0.4,0-0.9,0-1.3,0c-45,0-90.1,0-135.1,0c-46.1,0-92.3,0-138.4,0c-0.7,0-1.4,0-2.1,0
			c-0.5-0.5-0.3-1-0.3-1.6c0-55.5,0-110.9,0-166.4c0-0.3,0-0.6,0-0.8c0-0.6,0.3-0.8,0.8-0.8c0.5,0,1,0,1.5,0c45,0,89.9,0,134.9,0
			C199.1,100.9,199.8,100.8,200.5,100.8z"/>
		<path class="st0" d="M49,268.4c-1.3-2.3-2.2-4.7-3.1-7.2c-1.4-3.5-2.7-7-3.8-10.6c-2.2-7-4-14.1-5.2-21.4c-0.7-4-1.2-7.9-1.6-11.9
			c-0.3-3.3-0.4-6.5-0.7-9.8c-0.3-3.5-0.3-7.1-0.2-10.6c0.1-3,0.2-6.1,0.5-9.1c0.2-2.7,0.5-5.3,0.8-8c0.3-2.4,0.6-4.8,1-7.3
			c0.8-4.5,1.7-9,2.9-13.4c2-7.6,4.4-15.2,7.6-22.4c0.6-1.4,1.1-2.8,1.9-4.1c0,0.5,0.1,1.1,0.1,1.6c0,44.2,0,88.4,0,132.5
			C49,267.3,49,267.9,49,268.4z"/>
		<path class="st0" d="M358,253.4c0-0.4,0-0.8,0-1.1c0-34.5,0-68.9,0-103.4c0-0.4,0-0.8,0-1.1c1.3,2.9,2,6,2.9,9
			c1.3,4.5,2.3,9.2,3.2,13.8c0.6,3.4,1.1,6.8,1.5,10.2c0.5,4.3,0.8,8.7,1,13c0.2,3.7,0.4,7.4,0.1,11.1c-0.2,2.8-0.2,5.6-0.5,8.5
			c-0.3,2.6-0.5,5.3-0.8,7.9c-0.3,2.4-0.6,4.8-1,7.3c-0.8,4.5-1.7,9-2.9,13.4c-1,3.7-2,7.4-3.3,11C358.2,253,358.1,253.2,358,253.4z
			"/>
		<path class="st0" d="M93.3,327.1c71.5,0,143,0,214.5,0c-2.1,2-4.5,3.8-6.8,5.5c-5.6,4.3-11.5,8.2-17.5,11.7
			c-5.1,2.9-10.3,5.6-15.6,7.9c-5.3,2.3-10.7,4.4-16.2,6.2c-6.9,2.2-13.9,4-21,5.3c-4.3,0.8-8.6,1.4-12.9,1.8
			c-3,0.3-6.1,0.4-9.1,0.7c-4.1,0.3-8.2,0.2-12.3,0.2c-3,0-6.1-0.3-9.1-0.5c-2.6-0.2-5.2-0.5-7.8-0.8c-4.2-0.5-8.3-1.2-12.4-2
			c-7.2-1.5-14.3-3.4-21.2-5.9c-5.6-2-11-4.2-16.3-6.7c-7.6-3.5-14.8-7.8-21.7-12.4c-4.9-3.3-9.6-7-14.2-10.7
			C93.4,327.3,93.4,327.2,93.3,327.1z"/>
	</g>
	<rect x="200" y="100.8" class="st7" width="138.9" height="169.4"/>
	<g>
		<path class="st8" d="M272.3,119c-8.5-8.5-22.4-8.5-30.9,0l-54.6,54.6l30.9,30.9l54.6-54.6C280.9,141.3,280.9,127.5,272.3,119z
			 M201.7,170.6l46.2-46.2c1-1,2.7-1,3.7,0c1,1,1,2.7,0,3.7l-46.2,46.2L201.7,170.6z M209.4,178.3l50-50c1-1,2.7-1,3.7,0
			c1,1,1,2.7,0,3.7l-50,50L209.4,178.3z M266.9,143.4l-46.2,46.2l-3.7-3.7l46.2-46.2c1-1,2.7-1,3.7,0
			C267.9,140.8,267.9,142.4,266.9,143.4z M199.8,200.7l-25.7,25.7l2.8,2.8l-3.4,6.2L141,255.6l-6-6l20.2-32.8l6.1-3.2l2.7,2.8
			l25.7-25.7L199.8,200.7z"/>
		<path class="st9" d="M158.2,180.6c-19,0-34.5-15.4-34.5-34.5c0-4.2,0.8-8.1,2.1-11.8c0.5,0.7,1.1,1.4,1.7,2.1l12.4,12.4
			c6.3,6.3,16.6,6.3,23,0c6.3-6.3,6.3-16.6,0-23l-12.4-12.4c-0.3-0.3-0.6-0.5-0.9-0.7c2.7-0.7,5.6-1.1,8.6-1.1
			c19.1,0,34.5,15.4,34.5,34.5C192.7,165.2,177.3,180.6,158.2,180.6z M263.6,220.9l-27.6-27.6L209,220.5l27.6,27.6
			c7.5,7.5,19.6,7.5,27.1,0C271.1,240.6,271.1,228.4,263.6,220.9z M256.5,240.9c-3.1,3.1-8.1,3.1-11.2,0c-3.1-3.1-3.1-8.1,0-11.2
			c3.1-3.1,8.1-3.1,11.2,0C259.6,232.8,259.6,237.8,256.5,240.9z"/>
	</g>
</g>
</svg>
