<?xml version="1.0" encoding="utf-8"?>
<!-- Generator: Adobe Illustrator 21.1.0, SVG Export Plug-In . SVG Version: 6.00 Build 0)  -->
<svg version="1.1" id="Capa_1" xmlns="http://www.w3.org/2000/svg" xmlns:xlink="http://www.w3.org/1999/xlink" x="0px" y="0px"
	 viewBox="0 0 400 400" style="enable-background:new 0 0 400 400;" xml:space="preserve">
<style type="text/css">
	.st0{fill:#C8CCDC;}
	.st1{fill:#ECEDF2;}
	.st2{fill:#70C670;}
	.st3{fill:#539355;}
	.st4{fill:#FFFFFF;}
	.st5{fill:#FDFDFD;}
	.st6{fill:#FBFBFB;}
	.st7{fill:#FAFAFA;}
	.st8{fill:#F8F8F8;}
	.st9{fill:#F9F9F9;}
	.st10{fill:#F7F7F7;}
	.st11{fill:#F6F6F6;}
	.st12{fill:#F4F4F4;}
	.st13{fill:#555555;}
	.st14{fill:#9C9C9C;}
	.st15{fill:#3C3C3C;}
	.st16{fill:#E4E4E4;}
	.st17{fill:#505050;}
	.st18{fill:#5E5E5E;}
	.st19{fill:#616161;}
	.st20{fill:#5D5D5D;}
	.st21{fill:#575757;}
	.st22{fill:#686868;}
	.st23{fill:#585858;}
	.st24{fill:#5B5B5B;}
	.st25{fill:#888A95;}
	.st26{fill:#56585F;}
	.st27{fill:#0D0D0D;}
	.st28{fill:#0B0B0B;}
	.st29{fill:#6B6B6B;}
	.st30{fill:#C6C6C6;}
	.st31{fill:#060606;}
	.st32{fill:#131313;}
	.st33{fill:#191919;}
	.st34{fill:#151515;}
	.st35{fill:#FCFCFC;}
	.st36{fill:#F5F5F5;}
	.st37{fill:#F0F0F0;}
	.st38{fill:#5C8DB4;}
	.st39{fill:#A2A2A2;}
	.st40{fill:#BE4258;}
	.st41{fill:#A73D7F;}
	.st42{fill:#EACE7B;}
	.st43{fill:#9FD8AF;}
	.st44{fill:#AD3F75;}
	.st45{fill:#B6415E;}
	.st46{fill:#B0406D;}
	.st47{fill:#9D9D9D;}
	.st48{fill:#9B3A94;}
	.st49{fill:#94399E;}
	.st50{fill:#8E8E8E;}
	.st51{fill:#C14250;}
	.st52{fill:#8F35A8;}
	.st53{fill:#8833B1;}
	.st54{fill:#8ECCB6;}
	.st55{fill:#BEBEBE;}
	.st56{fill:#B4B4B4;}
	.st57{fill:#939393;}
	.st58{fill:#C44046;}
	.st59{fill:#909090;}
	.st60{fill:#B0B0B0;}
	.st61{fill:#676767;}
	.st62{fill:#D2A67A;}
	.st63{fill:#929292;}
	.st64{fill:#C1E7AA;}
	.st65{fill:#515151;}
	.st66{fill:#999999;}
	.st67{fill:#878787;}
	.st68{fill:#3B3B3B;}
	.st69{fill:#7BC0C2;}
	.st70{fill:#9B9B9B;}
	.st71{fill:#9C3D89;}
	.st72{fill:#6A6A6A;}
	.st73{fill:#6095B6;}
	.st74{fill:#ADDEAB;}
	.st75{fill:#CDE3A8;}
	.st76{fill:#D67B63;}
	.st77{fill:#9BEFD0;}
	.st78{fill:#92D0B1;}
	.st79{fill:#090909;}
	.st80{fill:#101010;}
	.st81{fill:#ACACAC;}
	.st82{fill:#ADADAD;}
	.st83{fill:#121212;}
	.st84{fill:#71AFBD;}
	.st85{fill:#67A0BA;}
	.st86{fill:#87D5C8;}
	.st87{fill:#6CA8BC;}
	.st88{fill:#E29979;}
	.st89{fill:#B54167;}
	.st90{fill:#A13D89;}
	.st91{fill:#94E1CA;}
	.st92{fill:#EEC278;}
	.st93{fill:#A8DDAC;}
	.st94{fill:#E8A078;}
	.st95{fill:#EDB978;}
	.st96{fill:#D4F7A6;}
	.st97{fill:#BDEAA8;}
	.st98{fill:#CEF3A7;}
	.st99{fill:#A2FADB;}
	.st100{fill:#97ECCD;}
	.st101{fill:#B2E3AA;}
	.st102{fill:#76B8BF;}
	.st103{fill:#8FE0CC;}
	.st104{fill:#80C9C5;}
	.st105{fill:#EAAD77;}
	.st106{fill:#DFFCA5;}
	.st107{fill:#8FE4CD;}
	.st108{fill:#93E7CD;}
	.st109{fill:#A2FFD4;}
	.st110{fill:#111111;}
	.st111{fill:#C6EFA7;}
	.st112{fill:#83CFC6;}
</style>
<g>
	<path class="st0" d="M350.4,51.9c1.5,1.3,1.9,3,2,4.9c0.2,2.1,0.5,4.2,0.1,6.4c-0.2,1,0.2,2.2,0.1,3.3c-0.2,2.8,0,5.6-0.1,8.3
		c0,1.3-0.1,2.6-0.1,4c0,1,0.7,1.6,1.2,2.3c5.3,6.7,9.9,13.7,14.3,21c3,5,5.7,10.2,8.2,15.5c4.5,9.7,8.2,19.7,11.1,30
		c1.6,5.9,3,11.8,4.1,17.8c0.8,4.2,1.4,8.3,1.8,12.5c0.5,4.4,0.7,8.8,1,13.3c0.3,4.5,0.2,8.9,0.2,13.4c0,3.4-0.2,6.8-0.6,10.2
		c-0.2,1.6-0.2,3.3-0.4,4.9c-0.3,2.3-0.4,4.7-0.8,7c-0.6,3.7-1.2,7.4-1.9,11c-1,5.6-2.4,11.2-4,16.7c-2.2,7.4-4.7,14.7-7.7,21.8
		c-2.4,5.5-5,10.9-7.8,16.2c-3.2,5.9-6.7,11.7-10.6,17.3c-3.4,5-7,9.9-10.9,14.5c-2.4,2.9-4.9,5.6-7.4,8.4c-2.6,3-5.4,5.8-8.3,8.5
		c-3.2,3-6.5,5.9-9.9,8.7c-5.8,4.8-11.8,9.3-18.1,13.4c-5,3.3-10.2,6.2-15.5,9.1c-7.4,4-15.1,7.2-22.9,10.3
		c-8.1,3.1-16.3,5.4-24.8,7.4c-4.4,1-8.9,1.9-13.4,2.5c-3,0.4-5.9,0.9-9,1.3c-1.7,0.2-3.4,0.1-5.1,0.4c-2.7,0.5-5.5,0-8.2,0.6
		c-0.4,0.1-0.8,0-1.1,0c-2.2,0-4.5-0.1-6.8,0c-4.3,0.2-8.7-0.2-13-0.4c-3.8-0.2-7.6-0.7-11.4-1.1c-9.3-1.1-18.4-3-27.4-5.4
		c-6.9-1.8-13.7-4.2-20.3-6.9c-5.6-2.2-11.1-4.6-16.4-7.4c-5.4-2.8-10.7-5.8-15.9-9.1c-5.3-3.4-10.4-7-15.3-10.9
		c-3.1-2.4-6.2-5-9.1-7.6c-3-2.7-6.1-5.4-8.9-8.3c-3.6-3.6-6.9-7.4-10.3-11.2c-5.8-6.6-11-13.7-15.7-21.1c-2.6-3.9-4.9-8-7.2-12
		c-1.6-2.9-3.1-5.9-4.6-9c-2.6-5.2-4.8-10.6-6.8-16.1c-2.8-7.6-5.3-15.3-7.1-23.2c-1.1-5-2.1-9.9-2.9-15c-0.5-3.6-1-7.3-1.4-10.9
		c-0.1-1.4-0.3-2.7-0.3-4.1c0-0.3,0-0.6-0.3-0.9c-0.5-0.7,0.1-1.6-0.3-2.3c0-7.7,0-15.4,0-23.2c0.5-0.7-0.1-1.6,0.3-2.3
		c0.2-0.2,0.3-0.5,0.3-0.7c0-3.8,0.6-7.7,1.1-11.4c0.7-5.5,1.8-11,2.9-16.5c1.7-7.9,4-15.5,6.7-23.1c1.8-5.1,3.8-10.1,6.1-15
		c1.5-3.3,3.1-6.6,4.8-9.8c2.2-4.2,4.6-8.3,7.1-12.3c2.9-4.8,6.1-9.4,9.5-13.9c0.7-0.9,0.9-1.8,0.9-2.9c0-5,0-9.9,0-14.9
		c0-3.1,0-6.3,0-9.4c0-1.7,0.4-3.3,1-4.8c0.1-0.3,0.3-0.6,0.7-0.6c0.3,0.4,0.2,0.9,0.1,1.3c-0.7,2.1-0.6,4.3-0.6,6.6
		c0.1,14.3-0.5,28.5-0.3,42.8c0.1,5.8,0.1,11.5-0.3,17.3c-0.3,3.6,0.2,7.1,1.7,10.3c0,0.2,0,0.4,0,0.6c-1,0.7-1.1-0.3-1.4-0.7
		c-0.8-1.5-1.3-3.1-1.6-4.8c-0.3-2-0.1-3.9,0-5.9c0.1-3.1,0-6.2,0-9.3c0-0.7,0-1.4,0-2.1C15.1,157.5,9.8,210.3,30.2,265
		c18.9,50.8,62.1,92,115.9,108.3c0.2,0,0.3,0.1,0.5,0.2c16.7,5,33.6,7.8,51,7.7c13.5,0.3,26.8-1.1,40-3.9c3-0.6,5.9-1.3,8.8-2.1
		c1.4-0.4,1.9-1.1,1.9-2.6c-0.1-3.3,0-6.6,0-9.9c0-0.8-0.1-1.6,0.2-2.3c0.1-0.2,0.2-0.3,0.4-0.3c0.8,0.5,0.6,1.4,0.6,2.1
		c0,3.5,0,7.1,0,10.6c0,1.6,0,1.6,1.6,1.2c7.8-2.3,15.4-5.1,22.8-8.4c8.6-3.8,16.8-8.5,24.8-13.6c7.1-4.6,13.8-9.7,20.2-15.2
		c4-3.5,7.9-7.1,11.5-10.9c10.9-11.5,20.4-24.1,28.1-38c5.7-10.3,10.4-20.9,13.9-32.1c3.7-11.8,6.2-23.9,7.7-36.2
		c1.1-9.3,1.1-18.7,0.8-28c-0.4-10.6-1.9-21.2-4.3-31.6c-3.6-15.9-9.3-30.9-16.9-45.2c-1.8-3.4-3.7-6.6-5.7-9.9
		c-0.5-0.7-1-1.4-1.3-2.3c-0.6,7.6-0.2,15.1-0.3,22.7c0,0.9-0.1,1.8-0.4,2.6c-0.2,0.3-0.3,0.8-0.8,0.4c-0.2-0.3-0.3-0.5-0.3-0.8
		c0.5-8.5,0-17.1,0.3-25.6c0.4-14,0.3-28,0.3-42c0-2.2-0.2-4.3-1.1-6.3C350.3,53,350.1,52.5,350.4,51.9z"/>
	<path class="st1" d="M4.8,211.7c0.6,0.7,0.2,1.5,0.3,2.3c-0.1,0-0.2,0-0.3,0C4.8,213.2,4.8,212.4,4.8,211.7z"/>
	<path class="st1" d="M5.1,186.2c-0.1,0.8,0.3,1.6-0.3,2.3c0-0.8,0-1.5,0-2.3C4.9,186.2,5,186.2,5.1,186.2z"/>
	<path d="M46.4,129.6c-1.7-2.9-2-6.1-1.9-9.4c0.1-5.3,0.2-10.6,0.1-15.9c-0.1-7.6,0.2-15.2,0.3-22.8C45,76.5,45,71.3,45,66.2
		c0-3.5,0-6.9,0-10.4c0-1.7,0.6-3.2,1.1-4.8c1.1-2.1,2.8-3.8,4.6-5.3c0.7-0.6,1.6-1,2.5-1.3c2.3-0.7,4.6-0.6,7-0.6
		c3.1,0,6.1,0.2,9.2,0c2.4-0.2,4.7,0,7.1,0c5.9,0.2,11.8-0.5,17.6-0.3c13.8,0.6,27.5,0.3,41.3,0.4c3.6,0,7.3-0.2,10.9-0.1
		c13.6,0.6,27.3,0,41,0.4c14.7,0.5,29.3-0.1,44,0.3c11.9,0.3,23.7,0,35.5,0.4c15.5,0.5,31.1,0,46.6,0.3c5.5,0.1,11.1,0.5,16.6,0.6
		c3.2,0.1,6.4,0.1,9.6,0c2.7-0.1,5,0.8,7.1,2.2c1.4,1.1,2.6,2.5,3.7,3.9c0.4,1.3,1.1,2.5,1.4,3.8c0.4,2,0.3,4,0.3,5.9
		c0,9.4-0.1,18.7-0.2,28.1c-0.1,9.9-0.2,19.7-0.3,29.6c0,2.7,0.2,5.5-0.3,8.2c-0.2,4.5-4.6,9.1-9.6,10.1c-2.3,0.5-4.6,0.6-6.9,0.2
		c-0.8-0.1-1.5-0.1-2.3-0.1c-2,0-4,0-5.9,0c-26.2,0.2-52.4-0.3-78.7-0.5c-14.8-0.1-29.6,0.1-44.4-0.3c-15.3-0.4-30.6,0-45.9-0.3
		c-15.4-0.3-30.8,0.1-46.3-0.3c-15.1-0.4-30.2,0-45.3-0.3c-3.4-0.1-6.7-0.2-10.1-0.3c-3.4-0.2-6.1-1.6-8.4-4.1
		C47,131,46.7,130.3,46.4,129.6z"/>
	<path class="st0" d="M85.4,42.6c1.3-1.4,2.9-2.3,4.5-3.3c5.9-4,12-7.7,18.4-11.1c8.1-4.3,16.5-7.9,25.2-11.1
		c9.6-3.5,19.5-6.1,29.5-8.1c3.9-0.8,7.9-1.4,11.9-1.8c3.3-0.3,6.5-0.7,9.8-1c1.9-0.2,3.7-0.1,5.6-0.3c5-0.6,9.9-0.3,14.9-0.2
		c3.1,0,6.2,0.2,9.3,0.5c1.5,0.2,3,0.2,4.6,0.3c2.4,0.2,4.7,0.5,7,0.8c3,0.4,6.1,0.9,9.1,1.4c4.4,0.8,8.7,1.8,13,2.9
		c9.2,2.2,18.1,5.3,26.9,9c4.8,2,9.5,4.1,14.1,6.5c5.2,2.8,10.4,5.7,15.4,8.9c2.2,1.5,4.6,2.8,6.7,4.5c-0.1,1.4-1.3,1.5-2.3,1.8
		c-0.8,0.3-1.4,0.4-1.7,1.4c-0.3,1.1-1.3,1.3-2.3,0.7c-1.6-1-3.4-0.7-5.1-0.5c-1.2,0.1-2.4,0.3-3.6,0.3c-1.7,0-1.8-0.2-1.7-2
		c-0.7,0.7,0.5,1.8-0.5,2.4c-0.8,0.1-1.4-0.5-2.1-0.8c-11.2-6.7-22.9-12-35.3-16c-12.1-4-24.5-6.6-37.3-8
		c-9.6-1.1-19.1-1.2-28.7-0.8c-15,0.6-29.6,3.2-44,7.6c-10.7,3.3-21.1,7.5-31,12.7c-2.7,1.4-5.3,3.1-8.1,4.4c-1.3,0-2.6,0-3.9-0.3
		c-0.5-0.2-1.1-0.1-1.6,0c-1.6,0.3-3.3,0.3-4.8-0.3c-0.8-0.3-1.6-0.6-2.4-0.1c-1.3,0.8-2.6,0.6-3.9,0.1c-1.1-0.5-2.1-0.7-3.2,0.2
		C86.8,43.9,85.8,44,85.4,42.6z"/>
	<path class="st0" d="M294.2,44.6c-0.2-0.6-0.2-1.3-0.5-1.9c-0.2-0.4,0-0.8,0.3-1c0.3-0.2,0.7-0.2,1.1,0c0.3,0.2,0.2,0.4,0,0.7
		c-0.8,1.4-0.8,1.5,0.8,1.4c1.3,0,2.7,0.3,3.8-0.5c0.3-0.2,0.6-0.2,1,0c0.4,0.2,0.9,0.2,1.3,0.2c1.1-0.1,2.2-0.4,3.1,0.8
		c0.5,0.6,1.6-0.1,1.6-1c0-1.1,0-1.1,1.1-1.2c1.2-0.2,2.3-0.5,3.1-1.6l0,0c0.1,0.2,0.2,0.2,0.4,0.3c0.1,0,0.2,0,0.3,0
		c0.1,0.1,0.2,0.2,0.3,0.3l0,0c0.2,0.7-0.5,0.9-0.9,1.2c-0.3,0.2-0.8,0.3-0.5,0.8c0.2,0.4,0.6,0.5,1,0.4c1.1-0.2,2.3-0.3,3.4-0.2
		c0.1,0,0.2,0,0.3,0.1c0.1,0.1,0.2,0.2,0.3,0.3l0,0c0.1,0.1,0.2,0.2,0.3,0.3l0,0c0.1,0.2,0.2,0.2,0.4,0.3c0.1,0,0.2,0,0.3,0
		c0.1,0.1,0.2,0.2,0.3,0.3l0,0c0.1,0.1,0.2,0.2,0.4,0.3c2.7,0,5.5,0.1,8.2,0c1.9,0,3.7,0.3,5.6,0.2c3.1-0.2,6.2,0.2,9.3,0.1
		c2.2-0.1,4,0.8,5.9,1.9c0.2,0.1,0.3,0.3,0.3,0.5c-0.4,0-0.6-0.3-0.9-0.4c-2-1.1-4.2-1.6-6.5-1.6c-8.3,0-16.7,0-25-0.3
		c-2.3-0.1-4.6,0-6.9,0c-11.9-0.1-23.7-0.1-35.6-0.2c-6.9,0-13.8-0.2-20.7-0.2c-3.4,0-6.8,0.1-10.3,0c-5.7,0-11.5-0.2-17.2-0.2
		c-10.9-0.1-21.8-0.1-32.7-0.2c-6.4,0-12.9-0.1-19.3-0.1c-10.1,0-20.2-0.2-30.3-0.3c-8.2-0.1-16.4,0-24.6-0.1
		c-5.4,0-10.9-0.1-16.3-0.2c-5.8-0.1-11.7-0.1-17.5-0.1c-5.8,0-11.7-0.1-17.5-0.1c-2.6,0-5.3,0-7.9-0.1c-1.7,0-3.3,0.5-4.9,0.8
		c-0.1-0.1-0.2-0.2-0.1-0.2c0-0.1,0.1-0.1,0.1-0.1c0.1,0,0.2,0,0.3-0.1c0.1-0.1,0.3-0.2,0.4-0.2c0.3,0,0.6-0.1,0.9-0.1
		c0.2,0,0.3-0.2,0.4-0.3c1.6-0.3,3.3-0.5,5-0.3c0.1,0.1,0.2,0.2,0.4,0.2c1.8,0.2,3.5-0.5,5.2-0.2c0.1,0.1,0.2,0.2,0.4,0.2
		c1,0,2.1,0,3.1,0c0.2,0,0.3-0.1,0.4-0.2c0.8-0.1,1.6-0.1,2.4,0c0.1,0.1,0.2,0.2,0.4,0.2c1.1,0,2.3,0,3.5,0c0.2,0,0.3-0.2,0.4-0.2
		c0.6,0,1.1,0,1.7,0c0.1,0.1,0.2,0.2,0.4,0.2c1.5,0,3,0,4.5,0c0.4-0.2,1,0,1.4-0.2c0.2,0,0.4,0,0.6-0.1c0.2-0.1,0.3-0.2,0.4-0.3l0,0
		c0.1-0.1,0.2-0.2,0.3-0.3c0.1,0,0.2,0,0.3,0c1.1,0.9,1.3,0.9,2.2,0c0.7-0.6,2.2-0.6,3.3,0c1.1,0.6,2.2,1.1,3.5-0.1
		c0.7-0.6,1.8-0.4,2.6,0c1.2,0.7,2.6,1,3.8,0.6c1.4-0.4,2.6-0.3,3.9,0c0.8,0.2,1.8-0.2,2.6,0.4c0.2-0.1,0.3-0.2,0.5-0.1
		c0.3,0,0.5,0,0.8,0c9.4-0.2,18.8,0,28.2,0c1.4,0,2.8-0.2,4.2-0.8c12.6-4.7,25.6-7.9,38.9-9.4c8.5-1,17-1.4,25.6-1.1
		c19.1,0.8,37.7,4.5,55.6,11.6c1.1,0.5,2.4,0.6,3.6,0.6c7.9,0,15.9,0,23.8,0c0.8,0,1.6,0,2.5,0.1c1,0.2,2,0.5,3.1,0.3
		C294.1,44.8,294.1,44.7,294.2,44.6z"/>
	<path class="st0" d="M315,43.6c-0.3,0.4-0.8,0.3-1.2,0.4c-0.7,0-1.4,0-2.1,0.2c-0.5,0.2-1,0.2-1.4-0.3c-0.8-1-0.7-1.1,0.5-1.6
		c0.5-0.2,1-0.3,1.3-0.9C313.2,41.9,314.2,42.6,315,43.6z"/>
	<path class="st0" d="M52.7,44.3c0,0.1,0,0.2,0,0.4c-0.6,0.5-1.3,0.8-2,1C51.1,44.8,52.1,44.7,52.7,44.3z"/>
	<path class="st0" d="M83.8,43.3c-0.4,0.4-0.9,0.2-1.4,0.2C82.8,43.2,83.3,43.3,83.8,43.3z"/>
	<path class="st0" d="M311.4,41c-0.1-0.1-0.2-0.2-0.4-0.3C311.2,40.8,311.3,40.9,311.4,41z"/>
	<path class="st0" d="M317.4,45.2c-0.2,0-0.3-0.1-0.4-0.3C317.1,45.1,317.3,45.2,317.4,45.2z"/>
	<path class="st0" d="M317,44.9c-0.1-0.1-0.2-0.2-0.3-0.3C316.8,44.8,316.9,44.9,317,44.9z"/>
	<path class="st0" d="M316.4,44.6c-0.1-0.1-0.2-0.2-0.4-0.3C316.1,44.4,316.3,44.5,316.4,44.6z"/>
	<path class="st0" d="M316,44.3c-0.1-0.1-0.2-0.2-0.3-0.3C315.8,44.1,315.9,44.2,316,44.3z"/>
	<path class="st0" d="M53.4,44c-0.1,0.1-0.3,0.2-0.4,0.2C53.1,44.2,53.2,44.1,53.4,44z"/>
	<path class="st0" d="M315.7,44c-0.1-0.1-0.2-0.2-0.3-0.3C315.5,43.8,315.6,43.9,315.7,44z"/>
	<path class="st0" d="M54.7,43.6c-0.1,0.2-0.2,0.2-0.4,0.3C54.4,43.8,54.6,43.8,54.7,43.6z"/>
	<path class="st0" d="M78,43.6c-0.2,0-0.3-0.1-0.4-0.2C77.7,43.4,77.8,43.5,78,43.6z"/>
	<path class="st0" d="M75.9,43.3c-0.1,0.2-0.2,0.2-0.4,0.2C75.6,43.5,75.7,43.4,75.9,43.3z"/>
	<path class="st0" d="M69.2,43.4c-0.1,0.2-0.2,0.2-0.4,0.2C69,43.5,69.1,43.4,69.2,43.4z"/>
	<path class="st0" d="M65.7,43.6c-0.2,0-0.3-0.1-0.4-0.2C65.5,43.4,65.6,43.5,65.7,43.6z"/>
	<path class="st0" d="M60.1,43.6c-0.2,0-0.3-0.1-0.4-0.2C59.8,43.4,60,43.5,60.1,43.6z"/>
	<path class="st0" d="M84.8,43c-0.1,0.1-0.3,0.2-0.4,0.3C84.6,43.2,84.7,43.1,84.8,43z"/>
	<path class="st0" d="M85.1,42.7c-0.1,0.1-0.2,0.2-0.3,0.3C84.9,42.8,85,42.8,85.1,42.7z"/>
	<path class="st0" d="M312,41.3c-0.1-0.1-0.2-0.2-0.3-0.3C311.8,41.1,312,41.2,312,41.3z"/>
	<path class="st0" d="M72,43.6c-0.2,0-0.3-0.1-0.4-0.2C71.8,43.4,71.9,43.5,72,43.6z"/>
	<path class="st0" d="M46.4,129.6c0.8,0.7,1.3,1.6,2.1,2.4c2.4,2.3,5.3,3.4,8.5,3.4c16.7,0.1,33.3,0.2,49.9,0.4
		c13.9,0.1,27.9,0.2,41.8,0.3c13.3,0.1,26.7,0.2,40,0.3c12.8,0.1,25.6,0.2,38.3,0.3c12.2,0.1,24.5,0.2,36.7,0.2
		c12.8,0.1,25.7,0.2,38.5,0.3c10.1,0.1,20.2,0.1,30.3,0.2c2.1,0,4.2,0.1,6.3,0.1c5.5-0.1,9.3-2.9,11.8-7.7c0.3-0.7,0.5-1.4,0.7-2.2
		c0,0.3,0.1,0.5,0.1,0.8c1.7,3.3,3.1,6.7,4.5,10.1c4.4,11.2,7.7,22.8,9.6,34.7c1,6.4,1.8,12.8,1.9,19.4c0.1,2.6,0.3,5.3,0.3,7.9
		c-0.1,11.7-1.3,23.3-3.7,34.8c-3,14.1-7.8,27.6-14.3,40.4c-6.1,12.1-13.6,23.3-22.5,33.6c-10,11.6-21.3,21.7-34,30.2
		c-13.1,8.8-27.2,15.6-42.3,20.5c-0.6,0.2-1.1,0.4-1.8,0.3c-0.1,0-0.2,0-0.2,0c-0.6-0.5-0.5-1.2-0.5-1.8c0-11.9,0-23.7,0-35.6
		c0-2.2,0.3-2.4,2.6-2.4c11.6,0,23.2,0,34.9,0c0.6,0,1.2,0.2,1.9-0.2c-1.4-1.5-2.7-3-4.1-4.4c-3.5-3.4-6.7-7-10.1-10.5
		c-7.5-7.7-14.8-15.5-22.3-23.3c-4.2-4.3-8.3-8.8-12.5-13.2c-7.1-7.4-14.1-14.9-21.2-22.2c-1.1-1.1-2.1-2.4-3.2-3.5
		c-0.4-0.4-1.1-1-0.2-1.6c0.6-0.2,1.2-0.2,1.8-0.2c8.3,0,16.5-0.2,24.8,0.1c14,0.5,28-0.1,42,0.3c16.2,0.5,32.4,0.1,48.6,0.3
		c2.7,0,5.4,0.3,8.1,0.3c8-0.1,13.2-5.2,13.1-13.2c-0.2-14.4,0.5-28.8,0.4-43.3c-0.1-7.3-0.2-14.7,0.1-22c0.1-1.8-0.5-3.5-1.2-5.1
		c-0.2-1.1-0.8-1.9-1.7-2.6c-2.7-2.9-6.1-4-10.1-4.1c-16.6-0.3-33.2,0-49.7-0.3c-15.5-0.3-30.9,0.1-46.4-0.3
		c-16.1-0.4-32.3,0-48.4-0.4c-14.3-0.3-28.5,0.2-42.8-0.3c-14.7-0.5-29.5,0-44.3-0.3c-14.8-0.4-29.6-0.2-44.4-0.2
		c-1.9,0-3.8-0.1-5.8,0c-5.5,0.2-10.5,4.9-10.9,10.3c-0.2,3-0.3,5.9-0.3,8.9c-0.2,13.4,0,26.8-0.1,40.2c-0.1,5.6-0.3,11.2-0.3,16.8
		c0,4.7,1.3,8.5,4.9,11.6c1.5,1.6,3.4,2.3,5.4,2.4c2.1,0.1,4.2,0.4,6.2,0.1c1.8-0.2,3.5,0.3,5.3,0.3c12.3,0,24.7-0.3,37,0
		c14.4,0.4,28.7-0.1,43.1,0.3c10.1,0.3,20.3,0.1,30.4,0.3c0.7,0,1.4-0.1,2.1,0.3c0.6,0.9-0.2,1.4-0.6,1.9c-3.4,3.8-7,7.5-10.6,11.2
		c-6.1,6.3-12.1,12.7-18.2,19c-7,7.2-13.9,14.6-20.9,21.9c-4.4,4.6-8.9,9.2-13.2,13.9c-3.3,3.6-7,6.9-10,10.7
		c0.6,0.3,1.3,0.2,1.8,0.2c11.4,0,22.7,0,34.1,0c3.1,0,3.4,0.2,3.4,3.2c0,15.9,0,31.9,0,47.8c0,0.8,0.2,1.7-0.5,2.4
		c-0.1,0-0.2,0-0.3,0c-0.5-0.6-0.4-1.3-0.4-2.1c0-3.6,0-7.2,0-10.7c0-1.4-0.4-2.1-1.8-2.6c-6.4-2.2-12.7-4.8-18.7-7.9
		c-11.6-5.8-22.5-12.8-32.5-21.1c-15.4-12.8-28.2-27.7-38.3-44.9c-7.8-13.3-13.5-27.3-17.5-42.2c-2.2-8.2-3.6-16.5-4.5-24.8
		c-0.7-6.8-1.1-13.6-1-20.4c0.3-11.4,1.6-22.7,4.2-33.9c2.4-10.3,5.6-20.4,9.9-30.1c0.4-1,0.6-2,0.9-3
		C46.4,129.9,46.4,129.7,46.4,129.6z"/>
	<path class="st2" d="M213.8,241.8c1.3,1.4,2.6,2.9,3.9,4.3c10.8,11.3,21.5,22.6,32.3,33.8c12.7,13.3,25.3,26.6,38,39.9
		c0.3,0.3,0.6,0.5,0.6,1.1c-0.6,0-1.1,0-1.8,0c-12,0-24,0-36.1,0c-2.2,0-2-0.2-2,1.9c0,12.5,0,24.9,0,37.4c0,4.1,0,8.2-0.1,12.2
		c0,0.5,0,0.9,0,1.3c0,1.3,0,1.3-1.3,1.6c-5.8,1.6-11.7,2.9-17.7,3.9c-5.7,1-11.4,1.6-17.1,2.1c-5.1,0.4-10.1,0.5-15.2,0.3
		c-0.6-0.8-0.5-1.7-0.5-2.5c0-6.9,0-13.9,0-20.8c0-43.1,0-86.1,0-129.1c0-1.1-0.1-2.1,0.1-3.1c0.3-1.4,1.1-0.8,1.6-0.2
		c1.5,1.4,3,2.9,4.4,4.5c3.2,3.6,6.7,7,10,10.6C213.5,241,214,241.2,213.8,241.8z"/>
	<path class="st3" d="M197.6,225.2c0,42.7,0,85.3,0,128c0,9.5,0,19,0,28.4c-3,0.1-6,0.1-9-0.2c-1.6-0.2-3.3-0.2-4.9-0.3
		c-5.5-0.4-10.9-1.2-16.3-2.1c-6.9-1.2-13.7-2.9-20.5-4.9c-0.2-0.1-0.4-0.2-0.6-0.3c0-9.3,0-18.5,0-27.8c0-7.5,0-15.1,0-22.6
		c0-2.7,0.4-2.4-2.3-2.4c-11.9,0-23.8,0-35.7,0c-0.6,0-1.1,0-2.1,0c0.6-0.7,1-1.1,1.3-1.5c16.7-17.5,33.4-35,50.1-52.6
		c7.7-8,15.3-16,22.9-24c0.2-0.2,0.5-0.5,0.6-0.7c0.1-0.4,0.2-0.7,0.5-1c4.9-5.1,9.6-10.3,14.7-15.2c0.4-0.4,0.6-1,1.3-0.9
		c0,0,0.1,0.1,0.1,0.1C197.6,225.1,197.6,225.2,197.6,225.2z"/>
	<path class="st4" d="M249.2,360.2c1-0.6,2.1-0.9,3.2-1.2c6.4-2.2,12.7-4.7,18.8-7.6c6.7-3.2,13.1-6.8,19.3-10.7
		c5.6-3.6,10.9-7.6,16.1-11.8c5.9-4.8,11.3-10.1,16.4-15.5c5-5.4,9.6-11.1,13.8-17.2c3.8-5.5,7.4-11.2,10.6-17.1
		c3.8-7,6.9-14.2,9.7-21.6c2.1-5.7,3.9-11.5,5.3-17.5c1.2-5,2.2-9.9,2.9-15c0.5-3.8,1-7.7,1.3-11.6c0.4-5.4,0.8-10.7,0.6-16.2
		c-0.1-3.3-0.3-6.6-0.5-9.9c-0.2-2.7-0.5-5.5-0.8-8.2c-0.5-4.2-1.2-8.3-2-12.5c-1.5-7.2-3.4-14.2-5.8-21.1c-1.8-5-3.7-9.9-5.9-14.7
		c-0.3-0.8-0.7-1.5-0.6-2.4c0.4-1,0.6-2.1,0.6-3.2c0-6,0-12,0-18c0-1.8,0.5-3.5,0.4-5.3c6.7,10,12.2,20.7,16.7,32
		c4.4,11.3,7.7,22.9,9.8,34.8c2.1,11.9,2.9,24,2.6,36.1s-1.7,24-4.4,35.8c-16.6,71.8-72.4,119.3-127.9,134.3
		C249.2,369.9,249.2,365.1,249.2,360.2z"/>
	<path class="st4" d="M46.4,130c0.5,0.6,0.3,1.3,0,2c-2.5,5.6-4.7,11.3-6.6,17.1c-2.3,7.2-4.2,14.6-5.4,22
		c-0.6,3.9-1.2,7.9-1.6,11.9c-0.3,3.4-0.5,6.7-0.7,10c-0.3,3.5-0.3,7.1-0.2,10.6c0.2,3.1,0.2,6.2,0.5,9.4c0.2,2.7,0.5,5.5,0.8,8.2
		c0.5,4.2,1.2,8.3,2.1,12.5c1.5,7.2,3.4,14.2,5.8,21.1c1.9,5.2,3.9,10.4,6.2,15.4c3.9,8.5,8.6,16.6,13.9,24.4
		c2.9,4.2,6,8.3,9.2,12.2c4.8,5.8,10,11.1,15.4,16.3c4.7,4.5,9.8,8.5,15,12.3c6.6,4.8,13.4,9,20.5,12.8c7.5,4,15.3,7.3,23.3,10.1
		c1,0.3,1.3,0.8,1.3,1.8c0,4.6,0,9.1,0,13.7c-5.4-1.4-10.5-3.5-15.7-5.6c-5.5-2.2-10.8-4.7-16-7.5c-4.4-2.3-8.6-4.9-12.8-7.5
		c-4.6-2.9-9-6.1-13.3-9.4c-2.9-2.3-5.8-4.6-8.7-7.1c-4-3.5-7.9-7.2-11.6-11.1c-3.1-3.3-6.1-6.7-9-10.1c-4.5-5.5-8.7-11.3-12.7-17.3
		c-4.8-7.3-8.9-15-12.5-22.9c-3.1-6.6-5.7-13.5-7.9-20.5c-2.3-7.4-4.2-14.9-5.6-22.5c-0.8-4.2-1.3-8.4-1.8-12.7
		c-0.3-2.8-0.5-5.6-0.7-8.3c-0.6-6.8-0.3-13.5-0.2-20.3c0.1-3.4,0.4-6.9,0.8-10.3c0.5-4.3,1.1-8.5,1.8-12.7c0.6-3.3,1.3-6.6,2.1-9.8
		c1.4-6.1,3.2-12.1,5.3-18c1.6-4.6,3.5-9.3,5.5-13.8c1.9-4.2,3.9-8.3,6.1-12.3c1.4-2.7,2.9-5.4,4.8-8.3c0,0.7,0.1,1.1,0.1,1.5
		c0,3.6,0,7.2,0,10.7c0,0.9,0,1.8-0.2,2.6c-0.3,1.4,0.1,2.9,0.3,4.2C44.6,126.7,45.1,128.6,46.4,130z"/>
	<path class="st4" d="M104.1,89.7c-0.1,8.3-0.2,16.7-0.3,25c0,3.1-2.2,5.3-5.3,5.3c-7.2,0-14.4-0.1-21.6-0.2c-3.7,0-5.7-2.2-5.7-5.8
		c0-10.3,0.1-20.5,0.2-30.8c0-6.2,0.2-12.5,0.2-18.7c0-3.4,2.1-5.5,5.5-5.5c6.5,0,13,0.1,19.5,0.1c0.8,0,1.6,0,2.3,0
		c3.4,0.2,5.4,2.2,5.4,5.6c0,4.5-0.1,8.9-0.1,13.4C104.1,82,104.1,85.9,104.1,89.7L104.1,89.7z"/>
	<path class="st4" d="M194.9,111.1c-1.1,1.9-2.4,3.7-4.3,4.9c-2.6,1.6-8.1,1.8-10.4-1c-0.2-0.2-0.5-0.6-0.8-0.5
		c-0.5,0.2-0.3,0.6-0.3,1c0,3,0,6.1,0,9.1c0,1.4,0,1.4-1.5,1.4c-0.5,0-1.1,0-1.6,0c-1.8,0-1.8,0.2-1.8-1.8c0-4.1,0-8.2,0.1-12.2
		c0-5.8,0-11.5,0-17.3c0-1.2,0-1.3,1.3-1.3c0.4,0,0.8,0,1.1,0c1.9,0,2.1,0.2,2.1,2.1c0,0.3-0.1,0.5-0.1,0.8c0,0.4,0.3,0.6,0.7,0.3
		c0.2-0.2,0.4-0.4,0.6-0.6c2.7-3.6,9.5-4.2,13.1-0.2c0.3,0.4,0.6,0.7,1,1.1C196.8,101.5,196.7,106.2,194.9,111.1z"/>
	<path class="st5" d="M169.5,111.1c-1,1.8-2.2,3.5-4,4.5c-2.7,1.6-5.6,1.7-8.6,0.7c-0.9-0.3-1.6-1-2.2-1.7c-0.2-0.3-0.5-0.5-0.8-0.3
		c-0.3,0.2-0.2,0.5-0.2,0.7c0,3.1,0,6.3,0,9.4c0,1.4,0,1.4-1.3,1.4c-0.6,0-1.2,0-1.8,0c-1.6,0-1.7,0-1.7-1.6c0-4.4,0.1-8.8,0.1-13.2
		c0-5.6,0.2-11.1,0-16.7c0-0.8,0.3-1.1,1-1.1c0.7,0,1.4,0,2.1,0c0.9,0,1.2,0.4,1.2,1.2c0,0.5,0,1,0,1.5c0,0.5,0.5,0.7,0.9,0.4
		c0.1-0.1,0.2-0.2,0.2-0.2c4.5-4.6,10.5-4.3,14.4,1c0,0,0.1,0.1,0.1,0.1c0.4,0.6,0.7,1.3,1,2l0,0
		C171.1,103.2,171.1,107.2,169.5,111.1z"/>
	<path class="st4" d="M132.3,84.2c3.8,0.1,2.9-0.6,4,2.9c2.9,9.1,5.7,18.1,8.6,27.2c0.6,2.1,0.6,2.1-1.6,2c-0.4,0-0.8,0-1.1,0
		c-1.9,0-1.9,0-2.4-1.8c-0.6-2.1-1.3-4.2-1.9-6.3c-0.4-1.3-0.6-1.4-2-1.4c-2.4,0-4.8,0-7.3,0c-1.7,0-1.8,0-2.3,1.7
		c-0.6,2.1-1.3,4.1-1.9,6.2c-0.5,1.6-0.5,1.6-2.1,1.6c-0.8,0-1.6,0-2.5,0s-1-0.2-0.6-1c1.6-4.7,3.1-9.4,4.6-14.1
		c1.7-5.1,3.3-10.1,5-15.2c0.5-1.6,0.5-1.6,2.3-1.6C131.4,84.2,131.9,84.2,132.3,84.2z"/>
	<path class="st5" d="M219.5,110.5c1-2.4,0.6-4.1-1.2-5.8c-1.1-1-2.4-1.6-3.7-2.1c-1.7-0.7-3.3-1.4-4.8-2.6c-2.9-2.2-4.3-5-3.5-8.7
		c0.7-3.5,3.2-5.5,6.4-6.5c3.4-1,6.7-0.7,10.1,0.5c1.1,0.4,1.2,0.6,0.9,1.7c-0.3,0.8-0.5,1.7-0.8,2.5c-0.5,0.5-1,0-1.5-0.2
		c-2.2-0.8-4.4-1.3-6.8-0.6c-2.9,0.8-4.8,4-2.2,6.8c0.4,0.6,1,1,1.7,1.3c0.6,0.5,1.3,0.7,2,1c1.6,0.8,3.1,1.5,4.6,2.3
		c0.3,0.3,0.7,0.4,1,0.6c0.9,0.9,1.9,1.7,2.5,2.8c2.4,4.5,0.5,10.4-4.2,12.4c-4.5,1.9-9,1.6-13.5-0.2c-0.8-0.3-1.1-0.8-0.7-1.5
		c0.4-0.9,0.2-2.2,1-2.7c0.8-0.5,1.7,0.5,2.6,0.8c2.8,0.9,5.6,1.3,8.3,0C218.3,111.9,218.9,111.2,219.5,110.5z"/>
	<path class="st5" d="M243.6,112.7c-2.4-4.5-2.4-9.1-0.2-13.6c1.5-3,4-4.7,7.4-5.3c1.8-0.3,3.6-0.3,5.4,0.2c2.9,0.6,5,2.3,6.3,4.9
		c2.4,4.6,2.2,9.4-0.4,13.9c-2.2,3.8-6.7,5.3-10.9,4.8c-2.9-0.3-5.2-1.6-7.1-3.8C244,113.4,243.8,113.1,243.6,112.7z"/>
	<path class="st5" d="M285.9,116.1c-6.5-4.5-5.6-15.7-0.3-20c0.2-0.2,0.4-0.4,0.6-0.5c0.3-0.2,0.7-0.4,1-0.6c2.1-1,4.4-1.3,6.7-1
		c4,0.6,6.1,3.3,7.1,6.9c0.5,1.5,0.5,3,0.5,4.6c0,1.4-0.2,1.6-1.6,1.6c-4.1,0-8.1-0.1-12.2-0.1c-0.3,0-0.5,0-0.8,0
		c-0.8,0.1-1.1,0.4-1,1.2c0.3,1.9,1,3.6,2.7,4.7c3,1.8,6.2,1.3,9.4,0.6c0.8-0.2,1.4-0.2,1.7,0.7c0.4,2.7,0.3,3-2.6,3.4
		c-3.2,0.5-6.5,0.8-9.7-0.5C287,116.8,286.5,116.4,285.9,116.1z"/>
	<path class="st5" d="M229.8,104.6c0-1.9,0-3.8,0-5.8c0-1.1-0.2-1.2-1.3-1.3c-2.2-0.1-2.2-0.1-2.1-2.2c0-1.3,0.1-1.4,1.4-1.4
		c0.3,0,0.6,0,1,0c0.8,0,1.1-0.4,1.1-1.1c0-0.2,0-0.3,0-0.5c0.1-3.4-0.3-2.5,2.7-3.4c2.1-0.6,2.1-0.6,2.1,1.6c0,0.7,0,1.4,0,2.1
		c0,1.1,0.1,1.2,1.2,1.3c1.1,0,2.2,0,3.3,0c0.8,0,1.2,0.3,1.1,1c-0.2,2.9,0.8,2.7-2.5,2.7c-0.6,0-1.3,0-2,0c-1,0-1.2,0.2-1.2,1.1
		c0,3.5-0.1,7.1-0.1,10.6c0,0.4,0.1,0.9,0.2,1.3c0.4,2,1.4,2.8,3.5,2.8c1.6,0,1.6,0,1.6,1.6c0,0.2,0,0.3,0,0.5
		c0.3,1.3-0.2,1.7-1.5,1.8c-0.9,0.1-1.9,0.2-2.8,0.1c-3.2-0.2-5.1-1.9-5.6-5.1c-0.2-1.1-0.3-2.2-0.2-3.3c0-1.5,0-3,0-4.5
		C229.7,104.6,229.7,104.6,229.8,104.6z"/>
	<path class="st5" d="M267.7,117.1c-0.2-0.2-0.2-0.5-0.2-0.8c0.1-7.1,0.2-14.1,0-21.1c0-0.8,0.3-1.1,1.1-1c0.5,0,1,0,1.5,0
		c1.8,0,1.8,0,1.8,1.9c0,0.6-0.2,1.2,0,1.8c0,0.1,0.2,0.2,0.2,0.2c0.7-0.1,0.7-0.8,1-1.2c1.3-1.9,3-3.1,5.3-3c1,0,1.1,0.2,1.1,1.1
		c0,0.8-0.1,1.6,0,2.5c0.1,0.8-0.3,1.1-1.1,1c-2.1-0.2-3.7,0.7-5,2.4c-0.8,1.3-1.1,2.7-1.2,4.2c-0.1,3.6-0.2,7.1-0.1,10.7
		c0,1.1-0.4,1.6-1.6,1.5C269.8,117.1,268.7,117.4,267.7,117.1z"/>
	<path class="st6" d="M120.7,68.5c0-2.3,0-4.6,0-6.9c0-0.7,0.1-1.2,0.9-1.3c2.9-0.3,5.7-0.5,8.4,0.8c2.2,1,3.4,2.8,3.8,5.2
		c0.2,1.1,0.2,2.3,0,3.4c-0.4,3.3-2.2,5.5-5.3,6.4c-2.1,0.6-4.3,0.8-6.6,0.5c-1.3-0.2-1.4-0.2-1.3-1.5
		C120.6,72.9,120.6,70.7,120.7,68.5C120.6,68.5,120.6,68.5,120.7,68.5z"/>
	<path class="st7" d="M205.8,68.5c0-2.4,0-4.8,0-7.2c0-1.1,1-1.7,2-1.2c0.4,0.2,0.5,0.6,0.4,1c0,1.5,0,3,0,4.5c0,0.3-0.2,0.8,0.3,1
		c0.3,0.2,0.6-0.2,0.9-0.3c3.1-1.9,6.2-0.6,7.2,2.9c0.6,2.2,0.4,4.4-0.9,6.3c-1.7,2.5-4.5,2.9-6.8,1c-0.8-0.6-0.9-0.7-1.1,0.2
		c-0.2,0.8-0.6,0.8-1.2,0.7c-0.7-0.1-0.8-0.6-0.8-1.2c0-2.5,0-5.1,0-7.6C205.7,68.5,205.7,68.5,205.8,68.5z"/>
	<path class="st6" d="M165.5,74.4c-0.7,1.1-1.6,2-2.8,2.4c-1.5,0.5-2.9,0.5-4.2-0.6c-0.3-0.2-0.5-0.5-0.9-0.2
		c-0.2,0.2-0.2,0.5-0.2,0.8c0,1.3,0,2.5,0,3.8c0,1-0.3,1.2-1.4,1.1c-1,0-1.1-0.2-1.1-1.2c0-3.2,0.1-6.5,0.1-9.8c0-1.5,0-3-0.1-4.5
		c0-0.6-0.2-1.2,0.6-1.2c0.6,0,1.3-0.3,1.5,0.8c0.2,0.8,0.4,0.8,1.1,0.2c1.4-1.4,3.1-1.4,4.8-0.8c1.4,0.5,2.2,1.6,2.7,2.9
		C166.7,70.2,166.4,72.3,165.5,74.4z"/>
	<path class="st6" d="M169.2,71c0-2.7,1.3-4.8,3.5-5.7c3.9-1.5,7.5,0.8,7.9,4.9c0.1,1.9-0.1,3.7-1.4,5.1c-1.7,1.8-3.7,2.2-6,1.6
		c-2.4-0.7-3.5-2.6-3.8-4.9C169.2,71.7,169.2,71.4,169.2,71z"/>
	<path class="st8" d="M233,72c-1,0-2,0-3,0c-1,0-1.2,0.4-0.9,1.3c0.5,1.5,1.7,2.3,3.2,2.5c0.9,0.1,1.8,0,2.6-0.3
		c0.6-0.2,1-0.1,1.1,0.5c0.2,0.6,0,1.1-0.7,1.3c-1.3,0.3-2.7,0.6-4.1,0.3c-2.6-0.5-4.2-2.1-4.6-4.4c-0.5-2.9,0.6-5.8,2.7-7.1
		c2.9-1.8,6.4-0.3,7.2,2.9c0.1,0.4,0.2,0.9,0.3,1.3c0.1,1.4,0.3,2.1-1.8,1.9c-0.7-0.1-1.4,0-2.1,0C233,72.1,233,72,233,72z"/>
	<path class="st7" d="M287.2,72.4c-1,0-2,0-3,0c-0.8,0-1.1,0.4-0.8,1.2c0.5,1.5,1.9,2.5,3.7,2.6c0.8,0,1.5-0.1,2.3-0.3
		c0.5-0.2,0.9,0,1,0.5c0.2,0.6,0,1-0.6,1.2c-2.1,0.6-4.1,0.8-6.1-0.3c-0.3-0.2-0.6-0.4-1-0.6c-1.7-1.4-2.3-4.5-1.4-7.1
		c0.8-2.3,2.5-3.7,4.7-3.8c2.4-0.2,4,1,4.8,3.2c0.2,0.5,0.3,1,0.4,1.4c0.3,1.9,0.1,2.1-1.8,2.1C288.8,72.5,288.1,72.5,287.2,72.4
		C287.2,72.5,287.2,72.5,287.2,72.4z"/>
	<path class="st9" d="M249.2,77c-3.4-1.8-3.4-7.4-1-9.8c1.6-1.6,3.5-2.1,5.6-1.3c1.9,0.6,2.7,2.2,3,4.2c0,0.3,0,0.6,0.1,1
		c0,1.1-0.1,1.3-1.3,1.3c-1.8,0-3.6,0.1-5.4,0c-1.1-0.1-1.4,0.3-1,1.4c0.2,0.6,0.5,1.1,1.1,1.4c1.3,1.1,2.7,0.7,4.2,0.6
		c0.6-0.1,1.4-0.5,1.6,0.6c0.2,1-0.5,1.2-1.2,1.4C252.8,78.1,251,77.9,249.2,77z"/>
	<path class="st10" d="M267.7,68.8c-0.7-1.1-1.7-1.4-2.8-1s-1.8,1.4-1.9,2.7c0,2,0,4,0,5.9c0,1-0.3,1.3-1.3,1.3
		c-1,0-1.3-0.2-1.3-1.3c0-2,0-4,0-5.9c0-1.1,0-2.3-0.1-3.5c0-0.5-0.1-1.1,0.6-1.1c0.6-0.1,1.4-0.3,1.6,0.7c0,0.2,0.1,0.4,0.4,0.6
		c1.3-0.9,2.7-1.8,4.5-1.4c1.1,0.2,1.8,1,2.5,1.8c0.5,0.7,0.7,1.5,0.7,2.3c0,2.2,0,4.4,0,6.6c0,0.9-0.4,1.5-1.4,1.4
		c-0.9,0-1.2-0.6-1.2-1.4c0-1.4-0.1-2.9,0-4.3C268.2,70.9,268,69.9,267.7,68.8z"/>
	<path class="st9" d="M147.1,77c-0.8,0-1.6-0.1-2.4-0.4c-0.6-0.2-1-0.5-0.7-1.3c0.2-0.7,0.6-0.8,1.3-0.5c0.6,0.2,1.1,0.4,1.8,0.5
		c1.1,0.1,2-0.5,2.2-1.3c0.2-0.7-0.3-1.4-1.2-1.9c-0.7-0.4-1.4-0.6-2.1-1c-1.2-0.6-1.9-1.6-1.8-3c0.1-1.4,1.2-2.6,2.7-3
		c1.1-0.3,2.3-0.3,3.4,0.1c0.6,0.2,1,0.5,0.8,1.2c-0.2,0.6-0.6,0.9-1.3,0.5c-0.6-0.3-1.2-0.4-1.8-0.3c-0.7,0.1-1.3,0.5-1.4,1.2
		c-0.2,0.7,0.3,1.1,0.8,1.5c0.4,0.2,0.8,0.4,1.2,0.6c0,0,0.1,0,0.2,0c2.2,1,3.3,2.6,2.9,4.3C151.1,76,149.5,77,147.1,77z"/>
	<path class="st11" d="M220.6,68.7c0-2.5,0-5.1,0-7.6c0-1,0.1-1.1,1.3-1.1c1,0,1.2,0.1,1.2,1.1c0,5-0.1,10-0.1,15
		c0,1-0.2,1.1-1.2,1.1c-1.2,0-1.3-0.2-1.3-1.1c0-2.5,0-5,0-7.4C220.5,68.7,220.5,68.7,220.6,68.7z"/>
	<path class="st10" d="M297.3,69.1c0,2.5,0,5,0,7.4c0,1.1-0.1,1.2-1.3,1.2c-1,0-1.1-0.1-1.1-1.1c0-5,0-9.9,0.1-14.9
		c0-1.1,0.2-1.3,1.2-1.3c1.2,0,1.3,0.1,1.3,1.3c0,2.4,0,4.8,0,7.3C297.4,69.1,297.4,69.1,297.3,69.1z"/>
	<path class="st11" d="M186.7,76.7c-0.3,0.3-0.7,0.3-1.1,0.3c-1.2,0-1.3-0.1-1.3-1.3c0-3.2,0.2-6.4,0-9.6c0-0.5,0.2-0.9,0.7-0.9
		c0.5,0,1.1-0.2,1.4,0.5c0.1,0.3,0,0.7,0.3,0.9c0.4,0.2,0.5-0.2,0.8-0.4c2.4-2.2,5.8-1.3,6.7,1.8c0.5,1.8,0.2,3.7,0.3,5.6
		c0,0.8,0,1.5,0,2.3c0,1.1-0.2,1.2-1.3,1.1c-1,0-1.1-0.1-1.1-1.1c0-1.4,0-2.9,0-4.3c0-0.5,0-1,0-1.5c-0.1-2.7-1.6-3.7-4.2-2.6
		c0-0.1-0.1-0.1-0.2-0.2c0.6-1.1,1.6-1.4,2.6-1.1c1.4,0.4,2.2,1.4,2.4,2.8c0.2,1.4,0,2.9,0.1,4.3c0,0.6-0.1,1.3,0.3,1.9
		c0.2-2.3,0.3-4.6,0.1-6.9c-0.3-2.3-3.4-3.2-5.2-1.5c-1,0.9-1.6,1-2.7-0.4c0.2,3.3-0.3,6.2,0.3,9c0-1.8,0.2-3.7,0.4-5.4
		c0-0.5,0-1.1,0.4-1.6c0.2-0.3,0.6-0.6,0.9-0.1c-0.6,1.7-0.2,3.5-0.3,5.2C186.8,74.6,187.1,75.7,186.7,76.7z"/>
	<path class="st12" d="M140,70.7c0,1.6,0,3.2,0,4.8c0,1-0.2,1.2-1.3,1.2c-1,0-1.1-0.2-1.1-1.2c0-3.2,0-6.4,0.1-9.6
		c0-1,0.2-1.1,1.2-1.1s1.2,0.1,1.2,1.1C140.1,67.6,140.1,69.2,140,70.7C140.1,70.7,140.1,70.7,140,70.7z"/>
	<path class="st12" d="M201.2,71.2c0,1.6,0,3.2,0,4.8c0,1.1-0.2,1.2-1.3,1.2c-1,0-1.1-0.1-1.1-1.2c0-3.2,0-6.4,0.1-9.6
		c0-1,0.2-1.1,1.4-1.1c1,0,1,0.2,1,1.2C201.2,68,201.2,69.6,201.2,71.2C201.2,71.2,201.2,71.2,201.2,71.2z"/>
	<path class="st13" d="M267.7,68.8c0.7,0.7,0.6,1.6,0.6,2.4c0,1.7,0,3.4,0,5.1c0,1,0.2,1.3,1.1,1.3c0.8,0,1.1-0.2,1.1-1.3
		c0-2,0-4.1,0-6.1c0-1-0.3-1.8-0.5-2.7c0.9,0.7,1,1.8,1.1,2.8c0,2,0,4.1,0,6.1c0,1.3-0.5,1.7-1.7,1.7c-1.2,0-1.6-0.5-1.6-1.8
		c0-1.7-0.1-3.4,0.2-5.1C268,70.4,267.6,69.6,267.7,68.8z"/>
	<path class="st14" d="M267.7,117.1c1,0,2.1,0,3.1-0.1c1.2,0,1.2,0,1.2-1.2c0-1.1,0-2.2,0-3.3c0.1-2.7,0.1-5.4,0.2-8.2
		c0-1.3,0.3-2.6,1.4-3.5c-1.1,2.4-1.1,5-1,7.5c0.1,2.6,0,5.3,0,7.9c0,0.7-0.3,1.2-1.1,1.2c-1.2,0-2.4,0-3.6,0
		C267.8,117.4,267.8,117.2,267.7,117.1z"/>
	<path class="st15" d="M285.9,116.1c3.7,2,7.7,2,11.7,1.2c0.6-0.1,1.2-0.3,1.8-0.5c0.6-0.2,0.8-0.5,0.6-1.1c-0.2-0.5-0.3-1-0.2-1.4
		c-0.1-0.3-0.2-0.5,0.1-0.8c0.5,0.7,0.4,1.7,0.8,2.5c0.3,0.6-0.3,1-0.8,1.2c-1,0.6-2.2,0.8-3.3,0.9c-2.6,0.2-5.3,0.5-7.8-0.3
		C287.6,117.3,286.5,117.2,285.9,116.1z"/>
	<path class="st16" d="M200.1,60.2c0.7,0,1.5,0.8,1.4,1.5c0,0.8-0.9,1.5-1.6,1.5c-0.7,0-1.5-0.8-1.4-1.5
		C198.5,61,199.4,60.1,200.1,60.2z"/>
	<path class="st17" d="M212.1,95.6c-2.2-2-1.6-5.3,1.2-6.7c1.9-0.9,4-0.7,5.9-0.4c0.9,0.2,1.8,0.4,2.6,0.9c0.3,0.2,0.5,0.1,0.8,0.1
		c-0.1,0.8-0.6,0.5-1.1,0.3c-1.8-0.8-3.6-1.3-5.6-1.2c-1.3,0.1-2.5,0.4-3.5,1.3c-1.6,1.5-1.8,2.9-0.7,4.8
		C212,95.1,212.2,95.3,212.1,95.6z"/>
	<path class="st16" d="M139,62.8c-0.7,0-1.6-0.9-1.6-1.6c0-0.7,0.8-1.5,1.5-1.5s1.5,0.7,1.6,1.4C140.6,61.9,139.7,62.8,139,62.8z"/>
	<path class="st18" d="M249.2,77c1.7,0.4,3.4,0.8,5.2,0.4c0.4-0.1,0.8-0.2,1.1-0.3c0.4-0.2,0.4-0.5,0.3-0.8
		c-0.1-0.3-0.3-0.5-0.7-0.5c-0.8,0.1-1.5,0.3-2.3,0.3c-1,0-2,0-2.6-1c1.5,0.7,3.1,0.5,4.6,0.2c0.9-0.2,1.2,0.1,1.4,0.9
		c0.2,0.8,0.1,1.1-0.8,1.4c-1.9,0.6-3.8,0.7-5.6,0C249.5,77.4,249.3,77.3,249.2,77z"/>
	<path class="st15" d="M194.9,111.1c0.4-1.9,0.9-3.7,1-5.6c0.1-3-0.6-5.8-2-8.5c1.3,0.8,1.6,2.2,1.9,3.4c0.8,3,0.7,6.1,0,9
		C195.6,110,195.6,110.7,194.9,111.1z"/>
	<path class="st19" d="M169.5,111.1c0.8-2.6,1.2-5.3,1-8c-0.1-1.3-0.6-2.5-0.7-3.8c0.8,0.6,0.8,1.6,0.9,2.4c0.3,2.6,0.4,5.3-0.4,7.9
		C170.1,110,170.1,110.7,169.5,111.1z"/>
	<path class="st20" d="M299.8,113.4c0,0.3-0.1,0.5-0.1,0.8c-0.3-0.6-0.6-0.9-1.4-0.6c-2,0.7-4.1,0.8-6.1,0.6
		c-1.3-0.1-2.5-0.4-3.4-1.4c2.1,0.9,4.3,1.2,6.6,1c1-0.1,1.9-0.4,2.9-0.6C298.9,113,299.4,112.8,299.8,113.4z"/>
	<path class="st19" d="M186.7,76.7c-0.2-2.3,0-4.5,0-6.8c0-0.6,0.3-1.1,0.5-1.7c0,0,0-0.1,0-0.2c0-0.1,0.1-0.2,0.2-0.3
		c0,0,0.1,0,0.2-0.1c0.1,0,0.2,0,0.3,0.2c-0.7,1.4-0.7,2.8-0.6,4.3c0,1.3,0,2.5,0,3.8C187,76.2,187.1,76.5,186.7,76.7z"/>
	<path class="st21" d="M165.5,74.4c0.6-2.1,0.7-4.2,0.3-6.2c0.5,0.2,0.5,0.7,0.5,1.1C166.6,71,166.8,72.8,165.5,74.4z"/>
	<path class="st22" d="M219.5,110.5c-0.3,1-1,1.7-2,1.9C218,111.7,218.7,111,219.5,110.5z"/>
	<path class="st22" d="M215.8,97.9c-0.8,0-1.5-0.4-2-1C214.6,97,215.3,97.3,215.8,97.9z"/>
	<path class="st19" d="M169.8,99.2c-0.5-0.6-0.8-1.2-1-2C169.5,97.7,169.9,98.4,169.8,99.2z"/>
	<path class="st23" d="M287.3,94.9c-0.2,0.5-0.6,0.6-1,0.6C286.4,95.1,286.8,94.8,287.3,94.9z"/>
	<path class="st24" d="M243.6,112.7c0.5,0.2,0.6,0.6,0.6,1C243.7,113.6,243.5,113.3,243.6,112.7z"/>
	<path class="st20" d="M221.4,100.8c-0.5,0-0.8-0.2-1-0.6C220.9,100.1,221.3,100.4,221.4,100.8z"/>
	<path class="st11" d="M187.7,67.8c-0.1,0-0.2,0-0.3,0c-0.1-0.3,0-0.4,0.3-0.3l0.1,0.1C187.8,67.6,187.8,67.7,187.7,67.8z"/>
	<path class="st4" d="M291.6,45c-6.9,0-13.8,0-20.7-0.1c-2.2,0-4.5-0.1-6.8,0c-1.6,0.1-3-0.5-4.5-1.1c-5.4-2.2-10.9-3.8-16.5-5.4
		c-6.4-1.8-12.8-3.1-19.3-4c-3.5-0.5-7-0.8-10.5-1.1c-6.3-0.6-12.6-0.7-18.9-0.5c-2.8,0.1-5.6,0.2-8.4,0.5c-1.7,0.2-3.4,0.3-5.1,0.5
		c-2.6,0.2-5.2,0.6-7.8,1c-4.8,0.8-9.5,1.7-14.2,2.9c-6.3,1.6-12.6,3.5-18.7,5.8c-0.7,0.3-1.4,0.5-2.2,0.5c-7.7,0-15.4,0.1-23.1-0.1
		c-2.3-0.1-4.6,0.2-6.9,0.1c-0.2,0-0.3-0.2-0.4-0.2c-0.1,0-0.2,0-0.3,0c1-1.1,2.4-1.6,3.6-2.2c7.9-4.4,16-8.2,24.4-11.4
		c7.6-2.9,15.3-5.2,23.2-7c4.5-1.1,9.1-1.9,13.7-2.6c3.6-0.5,7.3-0.9,10.9-1.3c7.8-0.9,15.6-0.6,23.4-0.6c4.2,0,8.3,0.5,12.5,0.9
		c4.9,0.5,9.8,1.2,14.6,2.1c4.6,0.8,9.3,1.9,13.8,3.2c3.4,1,6.9,1.9,10.3,3.1c5.8,2,11.6,4.2,17.2,6.8c6.2,2.9,12.3,6,18.3,9.6
		c0.3,0.2,0.7,0.3,1.1,0.4l0,0C293.4,45.7,292.4,44.9,291.6,45z"/>
	<path class="st0" d="M309.2,43.6c0,0.4-0.3,0.6-0.6,0.6c-0.3,0-0.6-0.1-0.6-0.4c-0.1-0.5,0.3-0.5,0.6-0.5
		C308.9,43.3,309.2,43.3,309.2,43.6z"/>
	<path class="st0" d="M291.6,45c0.8-0.2,1.8,0.3,2.6-0.4c0.2,0.2,0.3,0.5,0,0.6C293.3,45.3,292.4,45.5,291.6,45z"/>
	<path class="st0" d="M107.7,43.7c0.2,0.1,0.3,0.2,0.4,0.2C107.9,43.8,107.8,43.8,107.7,43.7z"/>
	<path d="M197.6,225.2c-0.6-0.1-0.6,0.5-0.9,0.7c-4,4.2-8.1,8.3-12.1,12.5c-1,1-1.8,2.1-2.9,2.9c-0.5,0.4-1.1,0.2-1.6,0.2
		c-9.4,0.1-18.8-0.1-28.2-0.2c-8.5-0.1-17,0-25.5-0.1c-14.9-0.3-29.7-0.2-44.6-0.4c-5.8-0.1-11.7,0.2-17.5-0.2c-1.9-0.1-3.8,0-5.8,0
		c-2.8,0-5.3-0.8-7.5-2.5c-2.4-2-4.1-4.4-4.7-7.5c-0.2-0.8-0.2-1.5-0.2-2.3c0.1-10.7,0.2-21.5,0.2-32.2c0.1-8.6,0.1-17.2,0.2-25.8
		c0-2.9,0-5.8,0.1-8.8c0.2-6.8,5.5-12.1,12.3-12.1c9,0,18.1,0.1,27.1,0.2c5.1,0,10.1,0,15.2,0.1c8.2,0.1,16.4,0.2,24.6,0.2
		c6.9,0,13.8,0.1,20.7,0.1c8.7,0.1,17.4,0.2,26.1,0.2c8.3,0.1,16.5,0.2,24.8,0.2c11.1,0.1,22.3,0.2,33.4,0.2
		c10.6,0.1,21.2,0.1,31.7,0.2c7.2,0,14.3,0.1,21.5,0.2c10.4,0.1,20.8,0.1,31.2,0.2c8.9,0.1,17.8,0.1,26.6,0.3
		c3.6,0.1,6.6,1.8,8.8,4.6c0.5,0.6,0.8,1.3,1.3,2c1.2,2.1,1.5,4.4,1.4,6.9c-0.1,13.2-0.2,26.3-0.3,39.5c-0.1,8.5-0.2,17.1-0.2,25.6
		c-0.1,7.1-5.6,12.7-12.8,12.6c-21.2-0.2-42.4-0.3-63.6-0.5c-20.3-0.2-40.5-0.3-60.8-0.4c-0.6,0-1.3,0-2,0c-2.8-2.6-5.3-5.5-8-8.3
		c-2.4-2.4-4.6-4.8-7-7.3C198.5,225.9,198.2,225.3,197.6,225.2z"/>
	<path class="st25" d="M51.1,238.1c1.8,0.9,3.5,1.9,5.5,2.1c0.7,0.1,1.4,0.2,2.1,0.2c20,0.1,40,0.3,60,0.4c16,0.1,32,0.2,47.9,0.3
		c5,0,10,0.2,15.1,0.2c-0.2,0.3-0.3,0.6-0.6,0.7c-0.5-0.5-1.1-0.3-1.7-0.3c-8.8,0-17.6,0.1-26.4-0.1c-13.9-0.3-27.7,0-41.6-0.3
		C96.7,241,82,241.2,67.4,241c-3.4-0.1-6.8,0-10.2-0.2c-2-0.1-3.8-0.9-5.5-1.9C51.4,238.7,51.1,238.5,51.1,238.1z"/>
	<path class="st26" d="M352.1,158c-0.7-0.5-1.1-1.2-1.3-2C351.5,156.5,351.9,157.2,352.1,158z"/>
	<path d="M73.9,89.3c0-6.2,0-12.5,0-18.7c0-1.7,0-1.7,1.6-1.7c8.2,0.1,16.4,0.1,24.6,0.2c1.5,0,1.5,0,1.5,1.6
		c-0.1,12.2-0.2,24.5-0.3,36.7c0,2.9,0.3,2.6-2.6,2.6c-7.9,0-15.9-0.1-23.8-0.2c-1.4,0-1.4,0-1.4-1.5c0-6.3,0-12.7,0-19
		C73.7,89.3,73.8,89.3,73.9,89.3z"/>
	<path class="st27" d="M87.5,117.7c-1.7,0-3.2-1.5-3.2-3.2c0-1.8,1.5-3.3,3.2-3.3c1.7,0,3.2,1.6,3.2,3.3
		C90.6,116.2,89.1,117.7,87.5,117.7z"/>
	<path class="st28" d="M87.7,65.6c-0.8,0-1.5,0-2.3,0c-0.3,0-0.6-0.2-0.7-0.6c0-0.4,0.3-0.6,0.6-0.6c1.7-0.1,3.4-0.1,5.1,0
		c0.3,0,0.6,0.3,0.5,0.7c0,0.3-0.3,0.5-0.6,0.5C89.5,65.6,88.6,65.6,87.7,65.6L87.7,65.6z"/>
	<path d="M189.3,110.8c-1.7,2.2-3.8,2.9-6.2,2.2c-2.2-0.7-3.7-2.7-3.8-5.3c-0.1-1.5,0-3.1,0-4.6c0.1-1.4,0.5-2.7,1.4-3.8
		c2.2-2.8,6.1-2.9,8.4-0.2c0.3,0.4,0.7,0.9,0.8,1.4C191.3,104,191.3,107.5,189.3,110.8z"/>
	<path class="st29" d="M189.3,110.8c0.8-2.1,1.5-4.2,1.3-6.6c-0.1-1.3-0.6-2.4-0.6-3.7c0.5,0.3,0.6,0.9,0.7,1.4
		c0.6,2.4,0.6,4.9-0.3,7.3C190.2,109.8,190,110.5,189.3,110.8z"/>
	<path d="M153.9,105.3c0-1.4,0-2.7,0.3-4c1-3.2,4-4.9,7.1-4c1.4,0.4,2.4,1.3,3.1,2.6c1.8,3.4,1.7,6.9,0,10.3
		c-1.1,2.2-3.4,3.2-5.8,2.9c-2.1-0.3-3.8-2-4.5-4.3C153.8,107.5,154,106.3,153.9,105.3z"/>
	<path class="st30" d="M132.9,89.5c1,4.1,2.2,8.2,3.5,12.2c0.4,1.2,0.1,1.7-1.1,1.8c-2.3,0-4.6,0-6.9-0.1c-0.6,0-1.1-0.5-0.9-1.1
		c0.2-0.7,0.3-1.5,0.9-2.1c0.3,0.2,0.3,0.5,0.3,0.8c0,0.2,0,0.3-0.1,0.4c-0.1,0.3,0,0.5,0.2,0.8c1.9,0.6,3.9,0.3,5.9,0.3
		c1,0,0.6-0.8,0.5-1.4c-0.8-2.7-1.7-5.5-2.4-8.2c-0.1-0.4-0.3-0.8-0.3-1.3c0-0.5-0.1-1,0.1-1.6C132.6,89.7,132.7,89.6,132.9,89.5z"
		/>
	<path class="st24" d="M128.5,101.2c0-0.3,0-0.6,0-1c1.1-3.5,2.4-6.9,3-10.6c0.2-0.3,0.1-0.9,0.7-0.8c0.4,0.1,0.4,0.4,0.3,0.7
		c-0.8,3.4-1.7,6.8-2.9,10.1C129.4,100.2,129.4,101.1,128.5,101.2z"/>
	<path class="st30" d="M132.4,89.6c0.1-0.3,0-0.6-0.3-0.6c-0.4,0-0.4,0.4-0.6,0.6c-0.1-0.5-0.1-1.1,0.5-1.2c0.8-0.2,0.8,0.6,0.9,1.1
		c-0.1,0-0.1,0.1-0.2,0.2L132.4,89.6L132.4,89.6z"/>
	<path d="M259,105.3c0,2.4-0.5,4.4-1.8,6.2c-2.4,3.3-6.6,3.2-8.8-0.2c-2.1-3.3-2-8.5,0.3-11.7c2.2-3,6.3-3.1,8.5-0.1
		C258.5,101.3,258.9,103.4,259,105.3z"/>
	<path class="st28" d="M291.4,103.4c-1.3,0-2.6,0-4,0c-1.1,0-1.3-0.2-1-1.3c0.3-1.2,0.9-2.2,1.7-3.2c2.4-2.6,6.3-2.1,8,1
		c0.3,0.6,0.5,1.2,0.6,1.9c0.2,1.3,0.1,1.6-1.3,1.6C294.2,103.4,292.8,103.4,291.4,103.4C291.4,103.4,291.4,103.4,291.4,103.4z"/>
	<path class="st31" d="M123.2,68.4c0-1.6,0-3.2,0-4.8c0-1.4,0.2-1.5,1.5-1.5c0.6,0,1.2,0,1.8,0.1c2.6,0.3,4.2,1.9,4.6,4.4
		c0.1,0.8,0.2,1.5,0.1,2.3c-0.2,4.2-3,6-6.9,5.8c-1,0-1.2-0.2-1.2-1.3C123.1,71.7,123.1,70,123.2,68.4
		C123.1,68.4,123.2,68.4,123.2,68.4z"/>
	<path class="st28" d="M214.2,71.1c0,1-0.2,1.8-0.5,2.6c-0.6,1.3-1.9,2-3.2,1.7c-1.1-0.2-2.2-1.4-2.2-2.7c0-0.8,0-1.6,0-2.5
		c0.1-1.5,1.3-2.7,2.6-2.9c1.3-0.2,2.4,0.6,3,2.1C214.1,70,214.2,70.6,214.2,71.1z"/>
	<path class="st28" d="M157.6,71.1c0-0.8,0-1.6,0.3-2.3c0.5-1.2,1.5-1.9,2.6-2c1.3,0,2.1,0.6,2.6,1.7c0.8,1.6,0.7,3.2,0,4.8
		c-0.6,1.3-1.8,1.9-3.1,1.7c-1.1-0.2-2.1-1.2-2.4-2.5C157.6,72.1,157.6,71.6,157.6,71.1z"/>
	<path class="st28" d="M178,71c-0.1,1.1-0.3,2.2-1,3.2c-1.1,1.4-2.7,1.5-4,0.3c-1.7-1.6-1.6-5.5,0.2-7.1c1.1-0.9,2.6-0.8,3.5,0.2
		C177.6,68.6,177.9,69.7,178,71z"/>
	<path class="st32" d="M231.8,70.3c-0.6,0-1.2,0-1.8,0c-0.8,0-1-0.4-0.6-1.2c0.2-0.5,0.5-1,1-1.3c0.8-0.7,1.7-0.8,2.6-0.5
		c1,0.4,1.4,1.3,1.7,2.3c0.1,0.6-0.3,0.8-0.8,0.8C233.1,70.4,232.5,70.4,231.8,70.3C231.8,70.3,231.8,70.3,231.8,70.3z"/>
	<path class="st33" d="M286.1,70.7c-0.6,0-1.2,0-1.8,0c-0.6,0-1-0.3-0.7-1c0.3-0.7,0.7-1.4,1.4-1.8c0.8-0.5,1.6-0.6,2.5-0.2
		c0.9,0.5,1.3,1.3,1.5,2.2c0.1,0.5-0.3,0.7-0.7,0.7C287.5,70.7,286.8,70.7,286.1,70.7L286.1,70.7z"/>
	<path class="st34" d="M251.7,70.4c-0.6,0-1.3,0-2,0c-0.6,0-0.8-0.4-0.6-0.9c0.3-0.6,0.6-1.3,1.2-1.7c0.8-0.6,1.7-0.8,2.6-0.3
		c0.9,0.5,1.3,1.3,1.5,2.2c0.1,0.5-0.2,0.7-0.6,0.8C253.1,70.5,252.4,70.4,251.7,70.4L251.7,70.4z"/>
	<path class="st10" d="M187.7,67.4c-0.1,0.1-0.2,0.2-0.3,0.3l0,0c-0.2,0.1-0.3,0.2-0.3,0.4h0c-0.4,0.1-0.7,0.4-0.7,0.8
		c0,1.4-0.1,2.8-0.3,4.3c-0.1,0.8,0.4,1.6,0.3,2.4c-0.1,0.6-0.4,0.7-0.9,0.7c-0.6,0-0.8-0.3-0.8-0.9c0-1.8-0.1-3.6,0-5.4
		c0-0.7,0-1.4,0-2.1c0-0.5,0-1.1,0-1.6c0-0.3,0.3-0.5,0.6-0.5c0.3,0,0.4,0.1,0.5,0.5c0.5,1.3,0.7,1.4,1.8,0.5
		c1.3-1.1,2.7-1.5,4.4-0.8c1,0.5,1.6,1.3,1.7,2.4c0,2.3,0,4.6,0,6.9c0,0.1,0,0.2,0,0.3c0,0.4-0.2,0.6-0.6,0.6
		c-0.5,0-0.7-0.2-0.7-0.7c0-2,0-4,0-5.9c0-0.9-0.2-1.6-0.8-2.2C190.2,66.1,189.1,66.1,187.7,67.4z"/>
	<path class="st11" d="M187.1,68.2c0-0.2,0.1-0.3,0.3-0.4C187.3,68,187.3,68.1,187.1,68.2z"/>
	<path class="st4" d="M147.7,186.5c2,0.5,3.7,1.7,5.3,3c0.6,0.5,0.5,0.9,0,1.4c-0.6,0.5-1.1,1-1.6,1.6c-0.6,0.7-1,0.6-1.6,0
		c-2.1-1.8-4.6-2.6-7.4-2.4c-4.7,0.3-8,2.7-9.7,7.1c-1.7,4.4-0.9,8.5,2.3,12.1c0.4,0.5,1,0.9,1.5,1.3c4.1,2.7,8.3,3,12.6,0.3
		c0.9-0.5,1.6-1.3,2.3-2c0.7-0.9,1.1-1.9,1.4-2.9c0.3-1.1,0.1-1.8-1.2-1.7c-2.4,0.2-4.8-0.3-7.2-0.1c-1.1,0.1-1.4-0.3-1.4-1.4
		c0-2.8,0-2.8,2.7-2.8c3.2,0,6.5,0.1,9.7,0c1.5,0,2,0.6,2.1,1.9c0,2.3-0.4,4.6-1.1,6.7c-1.8,4.4-5.1,7.1-9.7,8.1
		c-9.1,1.9-17.7-3.7-19.2-12.9c-1.1-6.5,1.4-11.7,6.7-15.4C138.3,185.8,142.9,185.1,147.7,186.5z"/>
	<path class="st4" d="M221.4,222.9c-2.6,4.3-10.9,5.4-14.9,0.6c-0.3-0.4-0.6-0.9-1-1.3c-1-1.6-1-1.6,0.8-2.3c0.7-0.3,1.3-1,2.2-0.7
		c0.3,0.3,0.5,0.7,0.8,1.1c1.5,2.1,4.2,2.9,6.5,1.9c2.5-1,3.2-3.3,3.2-5.8c0-0.6-0.3-0.6-0.8-0.3c-0.7,0.5-1.4,1-2.3,1.3
		c-3.5,1-6.6-0.2-9-2.7c-2.8-2.8-3.6-6.3-2.5-10.1c1.1-3.8,3.7-6.2,7.5-7.1c1.9-0.5,3.8-0.2,5.6,0.9c0.6,0.5,1.1,1.2,1.9,0
		c0.7-1,2.1-0.5,3.1-0.4c1,0.2,0.7,1.2,0.7,1.9c0,5.3,0,10.6,0,15.9C223.2,218.3,222.8,220.8,221.4,222.9z"/>
	<path class="st4" d="M262.9,202.7c0-4.3,0-8.7,0-13c0-1.5,0-1.6,1.6-1.6c2.8,0,5.6,0,8.4,0c2.9,0,5.5,1,7.5,3.1
		c3.7,4,3,10.4-1.5,13.4c-2,1.3-4.2,1.9-6.6,1.8c-1.2,0-2.4,0-3.6,0c-1.2,0-1.3,0.2-1.3,1.3c0,2.7,0,5.5-0.1,8.3
		c0,1.4,0,1.5-1.5,1.4c-0.6,0-1.2,0-1.8,0c-1.2,0-1.3-0.1-1.3-1.3c0-2.2,0-4.4,0-6.6c0-2.3,0-4.6,0-6.9
		C262.8,202.7,262.8,202.7,262.9,202.7z"/>
	<path class="st4" d="M308.2,216c-0.5,0-0.6,0.2-0.8,0.5c-2.5,2.9-8.3,2.4-11-0.2c-3.1-3.1-2.8-7.9,0.9-10.3c3-2,6.3-2.2,9.7-1.2
		c0.4,0.1,0.8,0.6,1.2,0.2c0.5-0.5,0-0.9-0.2-1.3c-1.4-2.7-5.7-3.4-8-1.2c-0.8,0.7-1.3,1-2.2,0.4c-0.6-0.4-1.3-0.5-2-0.8
		c-0.8-0.4-0.9-0.6-0.4-1.4c1.1-1.6,2.4-2.7,4.2-3.3c3-1,6.1-0.9,9,0.6c2.7,1.4,4.2,3.7,4.3,6.6c0.2,4.1,0,8.3,0,12.4
		c0,0.7-0.3,1-1,1c-0.5,0-1.1,0-1.6,0C308.4,217.9,308.4,217.9,308.2,216z"/>
	<path class="st5" d="M233.7,208.1c0.1-3.6,1.1-6.5,3.7-8.5c4.7-3.7,11.2-2.2,13.9,3.3c1.4,2.9,1.1,2.4-1.3,3.4
		c-3.1,1.3-6.2,2.5-9.3,3.8c-0.3,0.2-0.7,0.3-1.1,0.5c-0.7,0.4-0.8,0.6-0.2,1.3c2,2.5,5.4,2.9,7.9,0.7c1.5-1.3,1.5-1.3,3.2-0.2
		c1.8,1.2,1.8,1.2,0.3,2.7c-3,2.9-7.2,3.7-11,2.2C236.1,215.6,233.7,211.9,233.7,208.1z"/>
	<path class="st4" d="M183.7,200.7c4.1-5,12.8-5,16.6,1.3c1.9,3.2,1.8,6.6,0.3,9.9l0,0c-0.5,0.6-0.8,1.4-1.3,2
		c-3.7,4.6-11.3,4.6-15.2,0.3C180.6,209.8,180.5,205.3,183.7,200.7z"/>
	<path class="st4" d="M175.4,198.8c1.4,0.9,2.4,2.2,3.3,3.7c1.8,3.7,1.6,7.2-0.6,10.6c-0.8,1-1.6,1.9-2.6,2.6
		c-1.6,1-3.2,1.6-5.1,1.8c-2.2,0.3-4.3-0.3-6.1-1.5c-1.8-1.3-3.3-2.7-4-4.9c-1.2-3.4-0.9-6.6,1-9.6c0.7-1.1,1.5-2,2.6-2.7
		C167.7,196.5,171.6,196.3,175.4,198.8z"/>
	<path class="st4" d="M327.9,217c-1.1,2.6-2.2,5.1-3.3,7.6c-0.2,0.4-0.3,0.8-0.5,1.2c-0.5,1.1-1.1,1.8-2.5,1.5c-0.6-0.2-1.2,0-1.8,0
		c-1.2,0.1-1.3-0.2-0.9-1.3c1-2.5,2.2-4.9,3.5-7.3c0.5-0.9,0.5-1.7,0.1-2.7c-1.1-2.7-2.3-5.3-3.4-8c-0.5-1.1-0.9-2.2-1.4-3.3
		c-0.7-1.8-1.5-3.7-2.3-5.4c-0.4-0.9-0.3-1.4,0.8-1.3c0.1,0,0.2,0,0.3,0c4.3,0.1,3-0.5,4.6,3.2c0.3,0.6,0.6,1.3,0.8,1.9
		c1,2.5,2,5.1,3,7.6c0.2,0.3,0.4,0.9,1,0.3l0,0c1.4-3.8,3-7.5,4.4-11.3c0.4-1.1,0.9-1.6,2.1-1.6c3.7,0,3.8,0,2.3,3.3
		c-1.5,3.5-3,7.1-4.6,10.5C329.4,213.6,328.6,215.3,327.9,217z"/>
	<path class="st5" d="M286.4,203.1c0-4.4,0-8.8,0-13.2c0-1.5,0-1.5,1.6-1.5c0.5,0,1.1,0,1.6,0c1.5,0,1.5,0,1.5,1.6
		c-0.1,8.7-0.2,17.4-0.2,26.1c0,1.7,0,1.7-1.8,1.7c-0.5,0-1.1,0-1.6,0c-1.3,0-1.4-0.1-1.3-1.4c0-1.6,0-3.2,0-4.8c0-2.8,0-5.6,0-8.4
		C286.3,203.1,286.3,203.1,286.4,203.1z"/>
	<path class="st35" d="M231.1,202.7c0,4.4,0,8.8,0,13.2c0,1.6,0,1.6-1.6,1.5c-0.4,0-0.8,0-1.1,0c-1.8,0-1.8,0-1.8-1.9
		c0.1-8.7,0.1-17.4,0.2-26.1c0-1.6,0-1.6,1.7-1.6c3.4,0,2.8-0.3,2.8,2.8c0,4,0,8,0,12.1C231.2,202.7,231.2,202.7,231.1,202.7z"/>
	<path class="st8" d="M259.8,169.3c0-1.6,0-3.3,0-5c0-0.5-0.1-1.2,0.5-1.4c0.6-0.2,1.3-0.2,1.9,0.3c0.3,0.2,0.5,0.6,0.8,0.9
		c1.5,2.2,3.3,4.2,4.6,6.4c0.1,0.1,0.1,0.2,0.2,0.3c0.2,0.2,0.3,0.5,0.6,0.4c0.3-0.1,0.3-0.4,0.3-0.7c0-1.6,0-3.3,0-5
		c0-0.5,0-1,0-1.5c0.1-0.9,0.4-1.1,1.3-1.1c0.8,0,1.1,0.4,1.1,1.1c0,3.6,0,7.2-0.1,10.7c0,0.5-0.1,0.9-0.6,1.1
		c-0.6,0.2-1.3,0.2-1.9-0.3c-0.3-0.3-0.6-0.7-0.8-1c-1.4-2.1-2.9-4.2-4.4-6.2c-0.1-0.1-0.1-0.2-0.2-0.3c-0.2-0.3-0.4-0.8-0.8-0.6
		c-0.4,0.2-0.2,0.6-0.2,0.9c0,1.9,0,3.7,0,5.6c0,0.3,0,0.5,0,0.8c0,0.8-0.3,1.1-1.1,1.1c-0.9,0-1.2-0.3-1.2-1.1
		C259.7,172.9,259.7,171.2,259.8,169.3C259.7,169.3,259.7,169.3,259.8,169.3z"/>
	<path class="st8" d="M191.2,166.9c-0.5,0.4-0.3,0.8-0.3,1.1c0,2,0,4.1,0,6.1c0,1-0.3,1.3-1.3,1.3c-0.8,0-1.1-0.2-1.1-1.3
		c0-3.4,0-6.8,0.1-10.3c0-0.5-0.2-1.2,0.5-1.4c0.7-0.2,1.4-0.3,2,0.3c0.3,0.3,0.6,0.7,0.8,1c1.4,2.1,2.9,4.1,4.4,6.2
		c0.1,0.1,0.1,0.2,0.2,0.3c0.2,0.2,0.3,0.5,0.6,0.3c0.3-0.1,0.3-0.5,0.3-0.7c0-2.1,0-4.2,0-6.3c0-1,0.3-1.3,1.3-1.2
		c0.9,0.1,1,0.3,1,1.5c0,3.4,0,6.8-0.1,10.3c0,0.5,0.1,1.1-0.5,1.3c-0.6,0.2-1.2,0.2-1.7-0.2c-0.3-0.2-0.5-0.6-0.7-0.9
		c-1.5-2.1-3-4.3-4.6-6.5C191.9,167.5,191.7,167,191.2,166.9z"/>
	<path class="st7" d="M186,168.8c0,3.8-2.7,6.7-6.4,6.7c-3.9,0-6.7-2.8-6.7-6.8c0-3.6,2.9-6.6,6.4-6.6
		C183.2,162.1,186,164.9,186,168.8z"/>
	<path class="st9" d="M139.7,173c-1.1,1.3-2.6,1.9-4.2,1.9c-1.5,0.1-3,0-4.5,0c-0.8,0-1.1-0.3-1.1-1.1c0-3.6,0.1-7.1,0.1-10.7
		c0-0.7,0.2-1.2,1-1.2c1.5,0,3.1,0,4.6,0.1c1.5,0.2,3,0.6,4,1.9C141.9,167.1,141.9,169.9,139.7,173z"/>
	<path class="st10" d="M252.6,175.8c-1,0-2.1,0-3.1,0c-1.1,0-1.3-0.2-1.3-1.3c0-3.5,0-7.1,0.1-10.6c0-1,0.2-1.2,1.1-1.2
		c2.1,0,4.3,0,6.4,0.1c1,0,1.3,0.3,1.3,1.1c0,0.8-0.3,1-1.3,1c-1.3,0-2.6,0-4,0c-1.2,0-1.3,0-1.3,1.3c0,0.2,0,0.5,0,0.6
		c0,1.2,0.1,1.3,1.4,1.3s2.5,0,3.8,0c1,0,1.3,0.3,1.2,1.1s-0.5,1-1.2,1c-1.3,0-2.6,0-4,0c-1.1,0-1.2,0.1-1.3,1.2c0,0,0,0.1,0,0.2
		c0,2.2,0,2.2,2.1,2.2c1.1,0,2.2,0,3.3,0c0.7,0,1.2,0.3,1.2,1.1c0,0.8-0.4,1.1-1.1,1.1C254.8,175.9,253.7,175.9,252.6,175.8
		C252.6,175.9,252.6,175.8,252.6,175.8z"/>
	<path class="st11" d="M231.4,169.1c0-1.7,0-3.4,0-5.1c0-1.1,0.2-1.3,1.3-1.3c2.1,0,4.3,0,6.4,0c0.7,0,1.1,0.3,1.2,1
		c0,0.8-0.3,1.1-1.3,1.1c-1.4,0-2.7-0.1-4.1,0c-1.1,0-1.2,0.2-1.2,1.3c0,0.3,0,0.5,0,0.8c-0.1,0.9,0.3,1.2,1.1,1.2c1.3,0,2.6,0,4,0
		c1,0,1.3,0.3,1.3,1.1c0,0.8-0.3,1-1.3,1c-1.3,0-2.6,0-4-0.1c-0.8,0-1.3,0.3-1.2,1.2c0.1,2.1-0.7,2.5,2.2,2.4c1,0,2.1,0,3.1,0
		c0.9,0,1.3,0.4,1.2,1.1c0,0.8-0.5,1-1.3,1c-2.1,0-4.2,0-6.3-0.1c-1.2,0-1.3-0.2-1.3-1.3C231.3,172.6,231.3,170.9,231.4,169.1
		C231.3,169.1,231.3,169.1,231.4,169.1z"/>
	<path class="st9" d="M164.8,162.2c0.9,0,1.8-0.1,2.6,0c1.6,0.2,2.8,1,3.4,2.5s0.4,2.9-0.6,4.2c-0.7,0.9-1.7,1.4-2.9,1.4
		c-1,0-1.9,0-2.8,0c-0.7,0-1,0.3-1,1c0,0.8,0,1.6,0,2.5c0,1.1-0.3,1.4-1.1,1.4c-0.9,0-1.2-0.3-1.1-1.4c0-2.9,0.1-5.7,0.1-8.6
		c0-0.6,0-1.3,0-2c0-0.8,0.3-1.1,1.1-1.1S164,162.2,164.8,162.2C164.8,162.2,164.8,162.2,164.8,162.2z"/>
	<path class="st9" d="M157,168.3c1.4,0.6,2,1.8,1.9,3.3c-0.1,1.5-0.9,2.6-2.2,3.2c-2.5,1-4.9,0.6-7.2-0.9c-0.6-0.4-0.6-0.9-0.2-1.5
		c0.4-0.5,0.8-1,1.4-0.3c0.2,0.2,0.4,0.3,0.6,0.5c1.1,0.8,2.4,1,3.7,0.7c0.8-0.2,1.6-0.8,1.6-1.6c0-0.8-0.7-1.1-1.3-1.5
		c-0.8-0.6-1.9-0.5-2.8-0.9c-0.6-0.3-1.3-0.5-1.9-0.9c-1.4-0.8-1.7-2.1-1.3-3.6c0.5-1.6,1.7-2.4,3.3-2.7c1.7-0.3,3.3-0.1,4.8,0.8
		c1.3,0.7,1.3,1,0.2,2.2c-0.5,0.3-0.8-0.1-1.1-0.3c-0.8-0.6-1.8-0.8-2.8-0.8c-1,0-1.9,0.4-2.1,1.4c-0.3,1.1,0.7,1.5,1.5,1.8
		C154.3,167.5,155.7,167.8,157,168.3z"/>
	<path class="st36" d="M221,169.1c0-1.7,0-3.4,0-5.1c0-1.1,0.3-1.4,1.1-1.4c0.9,0,1.2,0.3,1.1,1.4c0,2.7,0,5.5-0.1,8.3
		c0,1.3,0,1.3,1.3,1.4c1.1,0,2.2,0,3.3,0c0.7,0,1,0.3,1.1,1c0,0.7-0.3,1.1-1.1,1.1c-1.9,0-3.8,0-5.8,0c-0.9,0-1.1-0.5-1.1-1.3
		c0-1.8,0-3.5,0-5.3C221,169.1,221,169.1,221,169.1z"/>
	<path class="st37" d="M202.9,169c0-1.8,0-3.5,0-5.3c0-1.1,0.2-1.3,1-1.3c0.9,0,1.3,0.3,1.3,1.3c0,3.6,0,7.1-0.1,10.7
		c0,0.8-0.3,1.1-1.1,1.1c-0.9,0-1.2-0.2-1.3-1.1c0-1.8,0-3.6,0-5.4C202.8,169,202.8,169,202.9,169z"/>
	<path class="st11" d="M144.1,168.5c0-1.7,0-3.4,0-5.1c0-1.1,0.3-1.3,1.2-1.3s1.1,0.3,1.1,1.4c0,3.4,0,6.8-0.1,10.3
		c0,0.6,0.1,1.2-0.8,1.4c-1.1,0.2-1.5-0.2-1.6-1.3C144,172,144,170.2,144.1,168.5C144.1,168.5,144.1,168.5,144.1,168.5z"/>
	<path class="st38" d="M71.6,212c-0.2-3.6,0-7.3,0-10.9c0-6.2,0.2-12.5,0.2-18.7c0-0.5,0-1.1,0.2-1.6c0.3-1.2,1.2-1.6,2.6-1.3
		c-0.3,0.6,0.1,0.9,0.4,1.3c0.7,0.8,1.5,1.4,2,2.4c0,0.1,0.1,0.2,0.2,0.3c0.3,0.7,1.5,1.2,1.1,1.9c-0.6,0.9-1.3-0.3-2-0.4
		c-0.6-0.1-1.1,0.1-1.6,0.1c-1.1,0-1.8-0.3-1.9-1.5c0,1.3,0,2.7,0,4c0,0.4,0,0.8,0,1.3c0,0.3,0,0.7,0,1.1c0,0.6,0,1.3,0,1.9
		c0,0.6,0,1.1,0,1.7c0,0.3,0,0.6-0.1,0.8c-0.3,2.1-0.1,4.1-0.2,6.2c0,2.1,0,4.3,0,6.4c-0.1,1.6,0.2,3.3-0.3,4.9
		C72,212,71.8,212.1,71.6,212z"/>
	<path class="st39" d="M156.3,208.7c0-1.7,0.8-3.2,0.8-4.8c0-0.2,0.1-0.4,0.1-0.6c0.2-2.4-0.2-2.8-2.5-2.8c-3.5,0-7.1,0-10.6-0.1
		c-0.8,0-1,0.3-1,0.9c0,0,0,0.1,0,0.2c0,3.2-0.4,2.6,2.6,2.7c2,0,4,0,5.9,0c1.4,0,1.7,0.4,1.4,1.7c-0.3,1.2-0.5,2.5-1.7,3.2
		c0.3-1.1,1-2.1,1.2-3.2c0.2-1,0.1-1.1-1-1.2c-2.5,0-5,0-7.4-0.1c-1.3,0-1.4-0.1-1.4-1.4c0-0.6,0-1.3,0-2c0-1.3,0.2-1.4,1.4-1.4
		c2.8,0,5.6,0,8.4,0.1c1.2,0,2.4,0,3.6,0c0.6,0,1.1,0.2,1.2,0.9C157.7,203.5,157.6,206.2,156.3,208.7z"/>
	<path class="st40" d="M98.7,212.3c-0.3,0.4-0.8,0.6-1.3,0.7c-0.3,0.2-0.6,0.2-1,0.3c-0.7,0.3-1,0.5-1.1-0.8c0-2.4,0.1-4.8-0.2-7.2
		c-0.6,0-1.1,0.8-1.7,0.2c-0.1-0.3,0-0.6,0.2-0.9c0.6-0.6,1.1-1.3,1.9-1.7c0.3,0,0.6,0.1,0.8,0.4c0.5,0.9,1.5,1.3,1.7,2.4
		C98.8,207.9,98,210.2,98.7,212.3z"/>
	<path class="st41" d="M90.1,217c-0.5,0.5-1.1,0.8-1.8,1c-0.2,0.2-0.4,0.2-0.6,0.1c-0.8-0.6-1-1.5-0.9-2.5c0.1-0.9-0.2-1.6-0.9-2.1
		c-0.5-0.8,0.3-1.1,0.5-1.7c0-0.1,0.1-0.2,0.2-0.3c0.1-0.2,0.2-0.3,0.3-0.5c0.1-0.1,0.2-0.3,0.4-0.4c0.1-0.1,0.2-0.2,0.4-0.3
		c0.1-0.1,0.2-0.2,0.3-0.3c0.1-0.1,0.2-0.2,0.3-0.3c0.1-0.1,0.2-0.2,0.3-0.3c0.1-0.1,0.2-0.2,0.3-0.3c0.1-0.1,0.2-0.3,0.4-0.4
		c0.2-0.1,0.3-0.2,0.5-0.3c0.2,0,0.3,0.1,0.3,0.2c0,0.1,0.1,0.3,0.1,0.4c0,0.2-0.1,0.3-0.2,0.4c-0.3,0.4-0.6,0.8-1,1.1
		C90.7,212.4,90.1,214.7,90.1,217z"/>
	<path class="st42" d="M113.3,201c1.5,1.1,1.6,2.3,0.2,3.4c-0.4,0.3-0.8,0.5-1.3,0.8c-2.8,1.5-5.6,3.1-8.6,4.5
		c-0.3,0.2-0.7,0.3-1.1,0.2c-0.2-0.1-0.3-0.2-0.4-0.3c-0.2-0.3-0.4-0.7-0.3-1.1c3.5-0.9,6.4-3,9.5-4.6c1.2-0.6,1.7-1.3,0.6-2.5
		c-0.2-0.2-0.2-0.5,0-0.8C112.5,200.4,112.9,200.9,113.3,201z"/>
	<path class="st43" d="M81.2,183.2c1.8,0.8,3.6,1.8,5.3,2.9c0,0.1-0.1,0.1-0.2,0.2c-0.3,0.2-0.5,0-0.8,0c0.2,1.2-0.5,1.4-1.5,1.6
		c-0.9,0.2-1.8,0.2-2.5-0.5c-0.2-0.2-0.5-0.2-0.8-0.2c-0.9-0.2-1.4-0.9-1.9-1.5c-0.1-0.1-0.2-0.3-0.2-0.4c0-0.2-0.1-0.3-0.1-0.5
		c0.7-1.3,1.6,0.3,2.4-0.3c-0.5-0.8-1.9-0.8-1.8-2.1c0.1-0.1,0.3-0.2,0.4-0.1c0.2,0,0.4,0.2,0.6,0.3c0.1,0.1,0.3,0.1,0.4,0.2h0
		C80.7,183.1,81,183,81.2,183.2z"/>
	<path class="st39" d="M329.9,212c1.8-4,3.5-8,5.2-12.1c0.2-0.5,0.6-0.8,0.5-1.5c-1.3,0-2.6,0-3.9,0c-0.7,0-0.8,0.6-1.1,1.1
		c-1.3,3.4-2.6,6.7-4,10.1c-0.2,0.5-0.2,1.1-0.8,1.4c0-1.1,0.6-2.1,1-3.1c1.1-2.9,2.2-5.8,3.4-8.6c0.5-1.3,0.6-1.4,2.1-1.4
		c1,0,2,0,3,0c0.9,0.1,1.1,0.3,0.8,1.1c-1.9,4.3-3.9,8.7-5.8,13C330.1,212.2,330,212.2,329.9,212z"/>
	<path class="st44" d="M90.1,217c-0.4-0.3-0.3-0.8-0.3-1.2c0-0.9,0-1.9,0-2.8c0-1.7-0.1-1.8-1.8-1.8c0.2-0.5,0.6-0.9,1.1-1.1
		c0.3-0.2,0.6-0.5,0.9-0.7c0.7-0.4,1.2-0.2,1.4,0.5c0.4,2,1.2,4,0.6,6.1c-0.3,0.4-0.8,0.6-1.3,0.7c-0.1,0.1-0.2,0.2-0.3,0.2
		C90.4,216.9,90.2,216.9,90.1,217z"/>
	<path class="st45" d="M93.7,205.4c0.9-0.1,0.9-0.1,2-0.9c0.1,2.2,0.2,4.5,0,6.6c0,0.3-0.1,0.6,0.2,0.8c0.6,0.5,0.1,0.9-0.3,1.4
		c0.7,0.1,1.2-0.4,1.8-0.2c-1,0.7-1.9,1.3-3,1.6c0-0.1-0.1-0.2-0.1-0.2c0-1.6,0.1-3.3,0-4.9c-0.1-1.3-0.5-2.4-1.3-3.4
		C93,205.6,93.2,205.3,93.7,205.4z"/>
	<path class="st46" d="M92,215.9c-0.3-0.2-0.5-0.4-0.4-0.8c0.2-1.2,0.3-2.3-0.4-3.4c-0.2-0.3-0.1-1-0.1-1.4
		c-0.1-0.9-0.3-1.1-1.1-0.6c-0.3,0.2-0.5,0.3-0.9,0.3c0.2-0.5,0.5-0.8,1-1c0.2-0.2,0,0,0.1-0.1c0.6-0.7,1.3-1.6,2.3-1.3
		c1.1,0.4,0.7,1.6,0.8,2.6c0.1,1.5-0.1,3,0.4,4.5c0,0.1,0,0.2,0,0.2C93.3,215.5,92.7,215.7,92,215.9z"/>
	<path class="st18" d="M319,208c0.5,0.2,0.5,0.7,0.7,1.1c1,2.3,2,4.7,3,7c0.4,0.9,0.4,1.6-0.1,2.5c-1.2,2.5-2.4,5-3.6,7.4
		c-0.4,0.9-0.3,1,0.6,1c0.8,0,1.6-0.1,2.3,0c0.9,0.1,1.4-0.2,1.8-1.1c0.2-0.5,0.3-1.1,0.8-1.4c0.1,1-0.5,1.6-0.9,2.4
		c-0.2,0.4-0.6,0.6-1.1,0.6c-1.1,0-2.2,0-3.3,0c-1,0-1.2-0.5-0.8-1.4c1.2-2.6,2.4-5.1,3.6-7.6c0.4-0.9,0.5-1.6,0.1-2.5
		c-1-2.1-1.9-4.3-2.8-6.5C319.2,209.1,318.8,208.6,319,208z"/>
	<path class="st47" d="M221.4,222.9c0,0,0-0.1,0-0.2c1.5-2.9,1.6-6,1.6-9.1c0-4.6,0-9.3,0.1-13.9c0-1.4,0-1.5-1.4-1.5
		c-0.5,0-0.9,0-1.3,0c-0.3,0-0.5,0-0.7,0.3c-1.1,1.1-1.1,1.1-2.1-0.1c0.3-0.1,0.5,0.2,0.7,0.3c0.2,0.2,0.5,0.3,0.6-0.1
		c0.3-1,1-0.8,1.8-0.8c3.3,0,2.9-0.2,2.9,2.9c0,5.2-0.1,10.4-0.1,15.6c0,2-0.4,3.9-1.3,5.7C222,222.4,221.9,222.8,221.4,222.9z"/>
	<path class="st48" d="M83.8,220.3c-0.3,0.4-0.8,0.6-1.3,0.7c-0.6-1-0.2-2.3-1.1-3.3c-0.5-0.5,0.5-1.2,0.7-1.9
		c0.6-0.8,1-1.9,2.4-1.8c0.1,1.7,0.5,3.4,0.5,5.1C84.9,219.9,84.1,219.8,83.8,220.3z"/>
	<path class="st49" d="M82.5,216c0,0.5-0.4,0.8-0.7,1.2s-0.2,0.6,0.3,0.5c0.4,0,0.4,0.3,0.4,0.6c0,0.9,0.2,1.8,0,2.7
		c-0.9,0.8-1.9,1.3-3,1.6c0.6-1.3,0-2.5-0.2-3.8C80.1,217.5,80.9,216.3,82.5,216z"/>
	<path class="st50" d="M217.1,168.3c-0.2,0.5-0.2,0.8,0.3,1.1c0.8,0.6,1.2,1.4,1.3,2.4c0.1,1.8-1.1,3.4-2.8,3.7
		c-2.3,0.4-4.6,0.1-6.9,0.1c-0.6,0-0.9-0.4-0.9-1c0-0.3,0-0.5,0-0.8c0-3.3,0-6.6,0-9.9c0-0.5-0.2-1,0.4-1.3c0.2,0.1,0.3,0.3,0.3,0.5
		c0.1,0.3,0.1,0.6,0.1,0.8c0,1.3,0,2.6,0,3.9c0,1.8,0,3.5,0,5.3c0,1.1,0.3,1.7,1.5,1.6c1.4,0,2.9,0.1,4.3,0c2.6-0.3,3.5-2.3,2.1-4.5
		c-0.4-0.6-1-1.1-0.5-1.9C216.6,168.1,216.9,168.1,217.1,168.3z"/>
	<path class="st51" d="M98.7,212.3c-0.2-0.1-0.5-0.3-0.5-0.4c0.2-1.2-1-2.4-0.1-3.6c0.3-0.5-0.1-0.9-0.2-1.4
		c-0.1-0.5-0.5-0.9,0.1-1.3c1-0.1,1.3,0.6,1.5,1.4c0.5,1.5,1.4,2.9,0.4,4.6C99.7,212,99.2,212.3,98.7,212.3z"/>
	<path class="st52" d="M79.5,218.9c0.3,0.1,0.6,0.3,0.5,0.6c-0.3,0.9,0.3,1.4,0.6,2c-0.3,0.5-1,0.5-1.1,1.1c-0.6,0.6-1.4,1-2.3,1.3
		c0.3-1-0.3-1.8-0.3-2.7C77.5,220.1,78.1,219.1,79.5,218.9z"/>
	<path class="st53" d="M77.2,221.2c-0.2,0.7,0.5,1,0.8,1.4c-0.1,0.6-0.7,0.8-0.8,1.2c-0.8,0.7-1.8,1.1-2.7,1.5
		c-0.6,0.3-1.3,0.3-1.9,0c0-0.3,0.2-0.5,0.5-0.8c0.9-0.8,1.7-1.8,2.6-2.6C76.1,221.7,76.5,221,77.2,221.2z"/>
	<path class="st54" d="M76.6,183.2c-0.7-1-1.5-1.8-2.4-2.7c-0.7-0.6-0.6-0.7,0.5-1c1.6,0.5,3,1.3,4.3,2.3c0,0.1,0,0.2-0.1,0.2
		c-0.2,0.8-0.5,1.4-1.5,0.8c-0.5-0.3-0.2,0.3-0.4,0.4C76.8,183.4,76.7,183.3,76.6,183.2z"/>
	<path class="st55" d="M208.6,163.1c0-0.2-0.1-0.3-0.1-0.4c0.3-0.3,0.7-0.3,1.1-0.3c1.6,0,3.2,0,4.8,0c0.7,0,1.3,0.2,1.9,0.4
		c2.4,0.8,3,4.3,0.9,5.5c-0.2,0-0.4,0-0.6,0c-0.3-0.5,0.2-0.7,0.3-1c1.1-1.9,0.3-3.5-1.9-3.8c-1.5-0.2-3,0-4.4-0.1
		C209.9,163.5,209.2,163.6,208.6,163.1z"/>
	<path class="st56" d="M147.7,186.5c-1.6,0-3.2-0.4-4.9-0.4c-2.6,0-5,0.6-7.2,1.8c-0.5,0.3-0.9,0.7-1.5,0.6c2.1-1.8,4.6-2.6,7.2-2.9
		c1.8-0.2,3.6-0.1,5.4,0.4C147.1,186.1,147.5,186.1,147.7,186.5z"/>
	<path class="st57" d="M322,203.1c-1-1-1.1-2.3-1.7-3.5c-0.6-1.3-0.6-1.3-2.1-1.4c-0.9,0-1.8,0-2.9,0c0.2,1.3,0.8,2.2,1.2,3.3
		c0.4,1.1,1.1,2,1.1,3.2c-0.7-0.5-0.8-1.4-1.1-2.1c-0.5-1.1-1-2.3-1.5-3.5c-0.4-1-0.3-1.3,0.8-1.4c1.1,0,2.2,0,3.3,0
		c0.5,0,1,0.2,1.2,0.7C320.9,200,321.8,201.4,322,203.1z"/>
	<path class="st58" d="M100,211.7c0-1.4,0.3-2.9-0.8-4.1c-0.2-0.2,0-0.4,0.2-0.5c0.1,0,0.2,0,0.2,0c0.2,0,0.3,0.1,0.4,0.2
		c1,0.6,1.6,1.6,2.3,2.5l0,0c0.2,0.3,0.7,0,0.8,0.4C102.1,210.6,101.2,211.4,100,211.7z"/>
	<path class="st59" d="M183.7,200.7c0,0.2,0,0.4-0.2,0.6c-2.6,4.2-2.6,8.3,0.3,12.3c0.1,0.2,0.3,0.3,0.2,0.6c-1.4-1-2.1-2.6-2.5-4.1
		c-1-3.3-0.3-6.3,1.6-9.1C183.3,200.9,183.4,200.7,183.7,200.7z"/>
	<path class="st60" d="M150.6,168.3c1.6,0.5,3.1,0.9,4.6,1.5c1.3,0.5,1.8,1.3,1.6,2c-0.2,0.8-1.2,1.7-2.2,1.8
		c-1.2,0.1-2.5,0.2-3.4-1c0.7,0.2,1.5,0.4,2.2,0.5c0.7,0.2,1.4,0,2.1-0.4c1-0.6,1.1-1.6,0-2.2c-0.7-0.5-1.5-0.6-2.3-0.8
		C152.4,169.4,151.3,169.3,150.6,168.3z"/>
	<path class="st60" d="M157,168.3c-1.6-0.2-3.1-0.7-4.5-1.3c-0.7-0.3-1.2-0.8-1.2-1.6c0-0.8,0.6-1.3,1.3-1.6
		c1.3-0.6,2.5-0.1,3.6,0.4c0.5,0.2,0.9,0.6,1.4,0.8c-0.3,0.6-0.7,0.3-1,0c-0.7-0.5-1.4-0.7-2.2-0.9c-0.4-0.1-0.9-0.1-1.3,0
		c-0.6,0.2-1.3,0.5-1.3,1.3c0,0.7,0.5,1,1.1,1.3c1,0.3,2,0.6,3,0.9C156.2,167.8,156.7,167.8,157,168.3z"/>
	<path class="st61" d="M149,211c-0.7,1-1.9,1.3-2.9,1.6c-3.3,1-6.5,0.4-9.4-1.5c-0.1-0.1-0.2-0.3-0.3-0.4c0.5-0.1,0.9,0.3,1.3,0.5
		c3.4,1.8,6.9,1.8,10.3,0.1C148.4,211.1,148.6,210.9,149,211z"/>
	<path class="st62" d="M113.3,201c-0.5,0.1-0.9-0.3-1.4-0.3c-0.3,0-0.6-0.1-0.9-0.2c-1.6-0.8-3-1.8-4.7-2.5
		c-0.4-0.2-0.8-0.4-1.1-0.7c-0.2-0.1-0.3-0.2-0.5-0.3c-0.4-0.2-0.9-0.5-1.3-0.7c-0.3-0.2-0.7-0.3-0.9-0.6c0-0.2,0-0.5,0.2-0.6
		c2.4,1.3,4.7,2.6,7.1,3.8C111,199.6,112.3,200.1,113.3,201z"/>
	<path class="st63" d="M175.4,198.8c-1-0.1-1.7-0.8-2.6-1c-2.7-0.8-5.3-0.6-7.9,0.5c-0.4,0.2-0.7,0.6-1.2,0.5
		c2.2-1.9,4.8-2.2,7.5-1.8C172.9,197.2,174.4,197.5,175.4,198.8z"/>
	<path class="st64" d="M94.8,190.8c2.5,1.2,5,2.5,7.3,4c-0.1,0.1-0.2,0.2-0.3,0.2c-0.1,0-0.2,0-0.4,0c-0.2,0-0.3-0.1-0.5-0.2
		c-0.1,0-0.2-0.1-0.3-0.2c-0.2-0.1-0.3-0.2-0.5-0.2c-0.1,0-0.2-0.1-0.3-0.2c-0.2-0.1-0.3-0.2-0.5-0.2c-0.1,0-0.2-0.1-0.3-0.2
		c-0.2-0.1-0.4-0.2-0.5-0.2c-1.1-0.4-2-1.5-3.3-1.3c-1-0.3-1.9-0.6-1.8-1.9C94,190.2,94.4,190.7,94.8,190.8z"/>
	<path class="st65" d="M178.1,213c0.1-0.2,0.1-0.4,0.2-0.6c1.7-3,1.8-6.1,0.6-9.3c-0.1-0.2-0.1-0.4-0.1-0.6c0.9,0.6,1,1.7,1.2,2.6
		c0.5,2.6,0.2,5-1.1,7.3C178.6,212.6,178.5,212.9,178.1,213z"/>
	<path class="st55" d="M139.7,173c0-0.2,0.1-0.5,0.2-0.6c1.6-2.6,1.6-5.1,0-7.7c-0.1-0.2-0.2-0.4-0.2-0.6c1.4,1,1.8,2.5,1.8,4
		C141.6,169.9,141.4,171.7,139.7,173z"/>
	<path class="st66" d="M161.2,201.4c0.1,0.3-0.1,0.5-0.2,0.8c-1.4,2.5-1.5,5.2-0.9,7.9c0.1,0.3,0.2,0.6,0.1,1c-0.9-1.1-1-2.4-1-3.7
		C159.3,205.2,159.6,203,161.2,201.4z"/>
	<path class="st67" d="M200.6,212c0-1.1,0.6-2.1,0.7-3.2c0.3-2.1,0-4.1-0.9-6c-0.1-0.2-0.3-0.5-0.2-0.8c0.8,0.5,1,1.4,1.2,2.2
		C202.1,207,202.2,209.6,200.6,212z"/>
	<path class="st68" d="M164.2,215.9c2,0.9,4,1.5,6.2,1.4c0.6-0.2,1.1-0.3,1.7,0c-2.7,0.9-5.2,0.5-7.6-0.9
		C164.4,216.3,164.2,216.1,164.2,215.9z"/>
	<path class="st59" d="M208.5,219.3c-0.6,0.3-1.3,0.5-1.9,0.8c-1.6,0.7-1.6,0.7-1.1,2.2c-0.5-0.2-0.7-0.6-0.9-1.1
		c-0.2-0.3-0.1-0.7,0.3-0.8c1.1-0.5,2.1-1.1,3.3-1.4C208.4,218.9,208.5,219.1,208.5,219.3z"/>
	<path class="st69" d="M72.2,225c-0.7-0.4-0.7-1.1-0.7-1.7c0-1.7-0.1-3.4,0.1-5c0.2-0.1,0.3,0,0.5,0.1c0.2,0.3,0.3,0.7,0.3,1.1
		c0,1.7,0,3.4,0.1,5C72.4,224.7,72.4,224.8,72.2,225z"/>
	<path class="st70" d="M329.9,212c0.1,0,0.2,0,0.3,0c-0.6,1.7-1.2,3.5-2.3,5C328.2,215.1,329.2,213.6,329.9,212z"/>
	<path class="st71" d="M83.8,220.3c0.1-0.6,0.7-0.6,1-1c0.9-0.7,1.7-1.4,3-1.3c0.2,0,0.4,0,0.6,0C87,218.9,85.4,219.7,83.8,220.3z"
		/>
	<path class="st72" d="M172.2,217.3c-0.6,0-1.1,0-1.7,0c1.7-0.4,3.4-1,5-1.6C174.6,216.7,173.4,216.9,172.2,217.3z"/>
	<path class="st73" d="M71.9,218.3h-0.2l-0.2,0c-0.2-2.1-0.2-4.2,0-6.2c0.1,0,0.2,0,0.3,0c0.3,0.2,0.4,0.5,0.5,0.8
		C72.2,214.6,72.8,216.5,71.9,218.3z"/>
	<path class="st43" d="M86.5,186.1c1.1,0.4,2.1,0.9,3,1.7c-0.1,0.1-0.2,0.2-0.3,0.3s-0.3,0-0.4,0c-0.2-0.1-0.4-0.2-0.6-0.2
		c-0.1,0-0.3-0.1-0.4-0.2c-0.4-0.2-0.8-0.3-1.1-0.6c-0.2-0.2-0.4-0.5-0.3-0.8L86.5,186.1z"/>
	<path class="st74" d="M90.2,188.1c0.9,0.3,1.7,0.6,2.3,1.3c0,0-0.1,0.1-0.1,0.2c-0.1,0.1-0.3,0.1-0.4,0.1c-0.3,0-0.6-0.2-1-0.3
		c-0.4-0.3-0.9-0.5-1-1C90,188.2,90.1,188.2,90.2,188.1z"/>
	<path class="st74" d="M94.8,190.8c-0.5,0.1-0.9-0.3-1.4-0.3c-0.4,0-0.8-0.2-1-0.5c-0.1-0.2-0.1-0.3,0-0.5l0.1-0.1
		C93.3,189.8,94.2,190.1,94.8,190.8z"/>
	<path class="st67" d="M199.3,214c0.2-0.8,0.6-1.5,1.3-2C200.4,212.8,200,213.5,199.3,214z"/>
	<path class="st39" d="M325.9,211c0.1,0.3,0,0.6-0.3,0.6c-0.5,0-0.7-0.4-0.6-0.9C325.2,210.8,325.6,211,325.9,211z"/>
	<path class="st75" d="M101.7,194.8c0.2,0,0.3,0,0.4-0.1c0.3,0,0.5,0.1,0.6,0.3c0,0.2,0,0.5,0,0.7c-0.1,0.1-0.3,0.1-0.4,0
		C102,195.5,101.6,195.4,101.7,194.8z"/>
	<path class="st76" d="M103.2,210.1c-0.3-0.1-0.7,0-0.8-0.4c0.4,0,0.8,0,1.3,0.1C103.6,210,103.4,210,103.2,210.1z"/>
	<path class="st77" d="M72.2,225c0-0.2,0-0.3,0.1-0.4c0.3-0.2,0.6,0,0.8,0.2c0,0.1,0.1,0.1,0.1,0.2c-0.1,0.3-0.3,0.3-0.5,0.5
		C72.4,225.3,72.3,225.2,72.2,225z"/>
	<path class="st74" d="M89.1,187.8c0.2,0,0.3,0,0.4-0.1c0.3,0,0.5,0.1,0.6,0.3l-0.1,0.1C89.6,188.5,89.2,188.6,89.1,187.8z"/>
	<path class="st54" d="M79.8,182.6c-0.1,0-0.2,0-0.3,0c0-0.1-0.1-0.1-0.1-0.2c0,0,0.1-0.1,0.1-0.2c0.3,0,0.5,0.1,0.6,0.3
		c0,0-0.1,0.1-0.2,0.1C79.9,182.7,79.9,182.6,79.8,182.6z"/>
	<path class="st54" d="M78.9,181.9c0.3,0,0.5,0.1,0.6,0.3l0,0C79.1,182.4,78.9,182.4,78.9,181.9L78.9,181.9z"/>
	<path class="st78" d="M81.2,183.2c-0.3,0-0.6,0-0.7-0.4C80.8,182.8,81.1,182.9,81.2,183.2z"/>
	<path class="st45" d="M94.4,214.6c-0.2,0.3-0.4,0.3-0.6,0.3l0,0C93.7,214.4,94,214.4,94.4,214.6L94.4,214.6z"/>
	<path class="st54" d="M80.6,182.8c-0.1,0-0.3,0-0.4,0c-0.1-0.1-0.1-0.2,0-0.3l0,0C80.4,182.6,80.5,182.6,80.6,182.8z"/>
	<path class="st41" d="M90.5,216.8c0.1-0.1,0.2-0.1,0.3-0.2C90.7,216.8,90.7,216.9,90.5,216.8z"/>
	<path class="st79" d="M128.5,101.2c0.5-0.3,0.5-1,0.7-1.4c1-3.1,2.1-6.1,2.7-9.3c0.1-0.4,0.3-0.6,0.6-0.7l0,0
		c0.4,0.5-0.1,1.1,0.3,1.6c1,3.4,2,6.7,3,10.1c0.5,1.5,0.5,1.5-1.1,1.5c-1.9,0-3.7,0-5.6,0c-0.7,0-1.1-0.2-0.8-1
		C128.3,101.6,128.3,101.4,128.5,101.2L128.5,101.2z"/>
	<path class="st24" d="M132.8,91.2c-0.5-0.5-0.4-1.1-0.3-1.6c0.1,0,0.2,0,0.3,0C132.7,90.2,132.8,90.7,132.8,91.2z"/>
	<path class="st24" d="M128.5,101.2c0.1,0.3,0,0.5-0.3,0.7C128.1,101.6,128.2,101.3,128.5,101.2z"/>
	<path class="st31" d="M219.3,207.2c-0.1,1.8-0.5,3.4-1.7,4.6c-2,2.1-5,2.2-7.1,0.3c-2.8-2.5-2.7-7.1,0.1-9.5
		c3.1-2.6,7.6-0.9,8.5,3.2C219.3,206.4,219.3,206.9,219.3,207.2z"/>
	<path class="st31" d="M271,192.8c0.9,0,1.9-0.1,2.8,0c2.3,0.2,4.1,2.1,4.2,4.3c0.2,2.1-1.6,4.3-3.8,4.7c-2,0.4-4,0.1-6.1,0.1
		c-0.5,0-0.8-0.3-0.8-0.9c0-2.5,0-5.1,0.1-7.6c0-0.6,0.3-0.9,0.9-0.9c0.9,0,1.8,0,2.6,0C271,192.7,271,192.7,271,192.8z"/>
	<path class="st79" d="M302.6,214.2c-0.2,0-0.6-0.1-1.1-0.2c-1.2-0.4-2.2-1-2.4-2.4c-0.1-1.3,0.8-2.1,1.8-2.7c2.2-1.1,4.5-0.9,6.7,0
		c0.5,0.2,0.7,0.6,0.6,1.2C307.7,212.2,305.1,214.2,302.6,214.2z"/>
	<path class="st80" d="M245.6,202.1c0.2,0.2,0.3,0.3,0.5,0.4c1,1,1,1.1-0.3,1.6c-2.2,0.9-4.4,1.8-6.6,2.7c-0.3,0.1-0.6,0.3-0.9,0.1
		c-0.3-0.2-0.2-0.6-0.1-0.9c0.3-1.5,1.2-2.7,2.4-3.6C242.2,201.4,243.9,201,245.6,202.1z"/>
	<path class="st81" d="M245.6,202.1c-1.7-0.6-3.4-0.4-5,0.3C242.1,200.9,244.1,200.8,245.6,202.1z"/>
	<path class="st31" d="M191.6,213.4c-1.2,0-2.2-0.3-3.2-1c-3.1-2.3-3.4-7.1-0.6-9.7c2.1-1.9,5.1-2,7.2-0.1c3.5,3,2.5,8.9-1.8,10.5
		C192.7,213.3,192.1,213.4,191.6,213.4z"/>
	<path d="M166.5,212.3c-1.6-1.4-2.6-3.2-2.5-5.5c0-0.4,0.1-0.8,0.2-1.1c0.6-2.8,3.2-4.8,5.9-4.6c2.8,0.2,5.1,2.8,5.2,5.7
		c0.1,2.6-1,4.5-3.1,5.8C170.2,213.5,168.3,213.6,166.5,212.3z"/>
	<path class="st82" d="M166.5,212.3c1.8,0.9,3.7,1,5.6,0.3C170.3,214,168,213.9,166.5,212.3z"/>
	<path class="st79" d="M183.7,168.8c-0.1,3.4-2.6,5.3-5.5,4.4c-0.3-0.1-0.7-0.3-1-0.5c-2.6-1.8-2.4-6.3,0.2-8c2-1.3,4.7-0.5,5.8,1.6
		C183.5,167.2,183.7,168.1,183.7,168.8z"/>
	<path class="st28" d="M132.3,168.3c0-1,0-2,0-3c0-1.1,0.1-1.3,1.3-1.3c0.5,0,0.9,0,1.3,0c2.1,0.1,3.4,1.1,4,2.9
		c0.6,1.8,0,3.9-1.4,5.1c-1.4,1.2-3.1,0.9-4.7,0.8c-0.5,0-0.5-0.6-0.5-1.1C132.3,170.7,132.3,169.5,132.3,168.3
		C132.3,168.3,132.3,168.3,132.3,168.3z"/>
	<path class="st83" d="M163.6,166.2c0-0.3,0-0.5,0-0.8c0-0.8,0.3-1.1,1.1-1.1c0.8,0,1.5,0,2.3,0c1.1,0.1,1.9,0.9,1.9,1.9
		c0,1-0.5,1.8-1.6,2c-1,0.2-2,0.1-3,0.1c-0.5,0-0.7-0.3-0.7-0.8C163.6,167.1,163.6,166.7,163.6,166.2z"/>
	<path class="st84" d="M72.2,191.8c0-0.6,0-1.3,0-2c0.6-0.1,0.6,0.3,0.9,0.6c0.1,0.2,0.1,0.3,0.1,0.5c0,0.1,0,0.2,0,0.3
		c0.1,2.9,0.2,3,3,2.1c1.6-0.5,3.2-1,4.9-1.4c1.5-0.5,3-0.2,4.4,0.5c1.3,0.5,2.2,1.5,2.8,2.8c0,0.2,0,0.3-0.1,0.5
		c-0.9,0.6-1.4-0.2-1.9-0.6c-0.6-0.6-1.2-0.5-2.1-0.4c-2,0.4-3.8,1.4-5.9,1.3c-0.5,0-1.1,0.2-1.6,0.5c-1.2,0.8-2.6,0.8-3.9,0.5
		c-0.5-0.6-0.5-1.4-0.7-2.1c-0.1-0.2-0.1-0.5,0.1-0.7c0-0.2,0-0.5,0-0.7C72.5,192.9,72.5,192.4,72.2,191.8z"/>
	<path class="st85" d="M72.9,190.8c0-0.1,0-0.2,0-0.3c-0.3-0.5-0.2-1.2-0.6-1.6c0-0.5,0-0.9,0-1.3c0.5-0.8-0.2-1.8,0.4-2.7
		c0.7,0.2,0.6,0.8,0.6,1.2c0,1.3,0.7,1.4,1.8,1.3c0.8-0.1,1.5-0.2,2.3-0.3c1.4-0.3,2.6-0.1,3.3,1c-0.4-0.4-0.9-1-1.6-1.4
		c-0.5-0.3-0.8-0.8-0.6-1.4c0.1-0.1,0.3-0.2,0.4,0l0,0c0.1,0.1,0.2,0.2,0.3,0.3c0.5,0.6,1,1.2,1.6,1.6c0.1,0,0.2,0,0.2,0
		c0.1,0,0.3,0.1,0.4,0.2c0,0,0.1,0.1,0.2,0.2c0.1,0.1,0.2,0.2,0.3,0.3c0.6,0.9,1.4,1.5,1.8,2.6c0,0.2,0,0.5-0.1,0.7
		c-0.1,0.1-0.3,0.2-0.4,0.2c-1.4-1.1-3-0.5-4.5-0.3s-3,0.3-4.5,1C72.7,192.9,73.3,191.3,72.9,190.8z"/>
	<path class="st73" d="M78.5,185.2c0,0.7,0.6,1,1,1.4c0.6,0.7,1.4,1.4,1.9,2.2c-0.7-0.2-1.1-0.6-1.5-1.1c-0.4-0.4-0.8-0.5-1.4-0.4
		c-1.4,0.2-2.9,0.5-4.3,0.5c-1.1,0-1.1-0.1-1.2-1.2c0-0.4,0-0.9-0.1-1.3c0,0,0-0.1-0.1-0.1c-0.5,0.7,0.2,1.6-0.5,2.3
		c0-1.7-0.1-3.4,0.1-5.1c0.7,0.2,0.5,0.5,0.6,0.8c0.3,1.3,1,2,2.1,1.4c1.1-0.6,1.6,0,2.3,0.5c0.2,0.1,0.3,0.2,0.7,0.5
		c-0.2-1.1-1.5-1.4-1.4-2.4c0.1,0,0.2,0,0.3,0C77.7,183.6,78.5,184.1,78.5,185.2z"/>
	<path class="st69" d="M71.9,207.1c0-2.2,0-4.4,0-6.6c0.2-0.1,0.3-0.1,0.5,0.1c0.2,0.3,0.2,0.7,0.3,1.1c0,1.5,0,3,0,4.5
		c0,0.3-0.1,0.6-0.2,0.8C72.3,207.1,72.2,207.1,71.9,207.1z"/>
	<path class="st73" d="M72.2,200.4c-0.1,0-0.2,0-0.3,0c0-1.8,0-3.5,0-5.3c0-0.4,0-0.8,0.3-1.1c0,0.2,0,0.5,0,0.6
		c0.5,1.7,0.6,3.4,0.3,5.1C72.5,200.1,72.4,200.3,72.2,200.4z"/>
	<path class="st86" d="M71.9,207.1c0.1,0,0.2,0,0.3,0c0.2,0.1,0.3,0.3,0.3,0.5c0.2,1.5,0.2,3,0.1,4.6c0,0.2-0.1,0.3-0.2,0.5
		c-0.1,0.2-0.3,0.2-0.5,0.1c0-0.2,0-0.5-0.1-0.7C71.9,210.3,71.9,208.7,71.9,207.1z"/>
	<path class="st87" d="M72.2,188.8c0.8,0.3,0.6,1,0.6,1.6c-0.2-0.2-0.4-0.4-0.6-0.6C72.2,189.5,72.2,189.2,72.2,188.8z"/>
	<path class="st87" d="M72.2,191.8c0.5,0.5,0.5,1.1,0,1.6C72.2,192.9,72.2,192.4,72.2,191.8z"/>
	<path class="st88" d="M102.4,195.8c0.1,0,0.2,0,0.3,0c0.3,0,0.7,0,1,0.3c1.9,1.7,1.9,1.8-0.4,3c-2.2,1.1-4.5,2.1-6.3,3.9
		c0,0.1-0.1,0.3-0.2,0.3c-0.1,0.1-0.2,0.1-0.4,0c-0.2-0.1-0.4-0.2-0.6-0.3c-0.2,0.1-0.3,0.1-0.4,0c0-0.2,0-0.3,0-0.5
		c1.5-1.9,3.4-3.5,5.1-5.3c0.5-0.4,0.9-0.8,1.3-1.3c0.1-0.1,0.3-0.2,0.4-0.2C102.2,195.8,102.3,195.8,102.4,195.8z"/>
	<path class="st76" d="M96.4,203.4c0.1,0,0.2,0,0.3,0c0.1,0,0.2,0,0.2,0c0.1,0,0.3,0.1,0.4,0.2c0.4,0.3,0.7,0.7,1.1,1
		c0.1,0.1,0.2,0.2,0.3,0.3c0.1,0.1,0.2,0.2,0.3,0.3c0.4,0.5,0.9,0.9,1.3,1.3c0.1,0.1,0.2,0.2,0.3,0.3c0.1,0.1,0.2,0.2,0.3,0.3
		c0,0,0.1,0.1,0.2,0.2c0.1,0.1,0.2,0.2,0.3,0.3c0.3,0.3,0.5,0.6,0.7,1.1c0.2,0.3,0.4,0.6,0.4,1c-1.1-0.6-1.6-1.7-2.6-2.3
		c-0.1-0.1-0.2-0.2-0.3-0.3l0,0c-0.3-0.6-0.8-1-1.3-1.3C97.7,204.8,96.5,204.5,96.4,203.4z"/>
	<path class="st44" d="M93.7,205.4c-0.3,0.1-0.5,0.3-0.6,0.6c-0.6,1.3-1.6,2.1-3,2.7c0-0.1,0-0.2,0-0.3c-0.1-0.1-0.2-0.2-0.1-0.4
		c0-0.2,0.1-0.3,0.2-0.4c0-0.1,0.1-0.1,0.1-0.2c0.1-0.1,0.2-0.2,0.3-0.3c0,0,0.1-0.1,0.2-0.2c0.1-0.1,0.2-0.2,0.3-0.3
		c1-0.8,1.6-2.1,3-2.4c0.1,0.1,0.1,0.2,0.1,0.3c0,0.1,0,0.2-0.1,0.2C94,204.9,93.9,205.2,93.7,205.4z"/>
	<path class="st89" d="M94.1,204.7c0-0.1,0-0.2,0-0.3c-0.1-1,0.4-1.4,1.4-1.4c0.1,0,0.2,0,0.3,0.1C95.3,203.7,94.7,204.3,94.1,204.7
		z"/>
	<path class="st89" d="M90.1,208.7c1.1-0.7,1.8-1.9,3-2.7c0.5,0.3,1.3,0.3,1,1.2c1.2,2,0.3,4.3,0.8,6.4c0.1,0.4-0.3,0.6-0.5,1
		c-0.3,0-0.5,0.1-0.6,0.3c-1-0.4-0.8-1.4-0.8-2.2c-0.1-1.6,0.2-3.3-0.2-4.9c-1.2-0.2-1.6,1.1-2.6,1.1
		C90.1,208.9,90.1,208.8,90.1,208.7z"/>
	<path class="st90" d="M87.8,218c-1,0.4-1.9,1.1-3,1.3c-0.2-0.7-0.4-1.4-0.3-2.2c0-0.2,0.1-0.5,0-0.6c-0.7-0.8-0.3-1.6,0-2.4l0-0.2
		c0-0.1,0.1-0.2,0.2-0.2l0.1-0.1c0.1,0,0.2,0,0.3,0c0.1,0,0.2,0.1,0.2,0.1c0-0.1,0.1-0.1,0.2-0.2c0.1-0.1,0.1-0.1,0.2-0.2l0.1,0
		c1.1,0.3,1.8,1,1.6,1.7C86.9,216.1,87.4,217,87.8,218z"/>
	<path class="st48" d="M85.2,213.6c-0.1,0-0.2,0-0.3,0c-0.2-1,0.6-1.2,1.1-1.8c0.2-0.2,0.3-0.3,0.6-0.3c0.2,0,0.3,0,0.3,0.2
		c0,0.7-0.8,1-1,1.6l0,0c-0.1,0.1-0.2,0.2-0.3,0.3l0,0C85.4,213.8,85.2,213.8,85.2,213.6z"/>
	<path class="st91" d="M90.2,208.1c0,0.1,0,0.2,0,0.3c-0.1,0-0.2,0-0.3,0c0,0-0.1-0.1-0.1-0.2c0-0.1,0-0.1,0-0.2
		c0,0,0.1-0.1,0.2-0.1c0.1,0,0.1,0,0.2,0C90.1,208,90.1,208,90.2,208.1z"/>
	<path class="st91" d="M89.5,208.7c0,0.2-0.2,0.3-0.3,0.3c0,0-0.1-0.1-0.1-0.1c0-0.1,0-0.2,0.2-0.3c0.1,0,0.1,0,0.2,0
		C89.4,208.6,89.4,208.7,89.5,208.7z"/>
	<path class="st91" d="M89.1,209c0,0.2-0.2,0.3-0.3,0.3c0-0.1-0.1-0.2-0.1-0.2C88.8,209,88.9,209,89.1,209L89.1,209z"/>
	<path class="st91" d="M88.8,209.4c-0.1,0.1-0.2,0.2-0.3,0.3c0-0.1-0.1-0.2-0.1-0.2C88.5,209.4,88.6,209.3,88.8,209.4L88.8,209.4z"
		/>
	<path class="st91" d="M88.5,209.7c-0.1,0.1-0.2,0.2-0.3,0.3c0-0.1-0.1-0.2-0.1-0.2C88.1,209.7,88.3,209.6,88.5,209.7L88.5,209.7z"
		/>
	<path class="st91" d="M88.2,210.1c-0.1,0.1-0.2,0.2-0.3,0.3c0-0.1-0.1-0.2-0.1-0.2C87.8,210.1,87.9,210,88.2,210.1L88.2,210.1z"/>
	<path class="st91" d="M87.8,210.4c-0.1,0.1-0.2,0.2-0.3,0.3c0,0-0.1-0.1-0.2-0.1c0-0.1,0-0.2,0.1-0.3c0.1-0.1,0.2-0.1,0.3,0
		L87.8,210.4z"/>
	<path class="st91" d="M87.5,210.7c-0.1,0.1-0.2,0.2-0.3,0.3c0,0-0.1-0.1-0.2-0.1c0-0.1,0-0.2,0.1-0.3c0.1-0.1,0.2-0.1,0.3,0
		L87.5,210.7z"/>
	<path class="st91" d="M89.8,208.4c0,0.2-0.2,0.3-0.3,0.3l-0.1-0.1c0-0.1,0-0.2,0-0.2c0,0,0.1-0.1,0.2-0.2
		C89.6,208.3,89.7,208.3,89.8,208.4L89.8,208.4z"/>
	<path class="st91" d="M87.2,211.1c-0.1,0.1-0.2,0.2-0.3,0.3c0,0-0.1,0-0.2-0.1c0-0.1,0-0.2,0.1-0.3c0.1-0.1,0.2-0.1,0.3,0
		L87.2,211.1z"/>
	<path class="st91" d="M86.8,211.7c-0.1,0-0.2,0-0.3,0l-0.1-0.1c0-0.1,0-0.2,0.1-0.3c0.1-0.1,0.2-0.1,0.3,0l0.1,0.1
		C86.8,211.5,86.8,211.6,86.8,211.7z"/>
	<path class="st92" d="M102,208.7c-0.4-0.2-0.8-0.6-1-1c-0.1-0.1-0.2-0.3-0.3-0.3l0,0c-0.1-0.1-0.2-0.3-0.3-0.3l0,0
		c0-0.7,0.4-0.6,0.8-0.4c1.3,0.6,2.4,0,3.3-0.8c1.5-1.4,3.4-2.1,5-3.1c1-0.6,2-0.8,1.6-2.3c0,0,0.1,0,0.1,0c0,0,0.1,0,0.2,0
		c0.3,0,0.5,0.1,0.6,0.3c0.3,0.3,0.6,0.6,0.8,1c0.7,0.9,0.7,1.2-0.2,1.9c-0.5,0.4-1.1,0.7-1.7,1c-2.3,1.3-4.6,2.4-6.9,3.8
		C103.3,208.8,102.6,208.4,102,208.7z"/>
	<path class="st93" d="M83.5,190.5c-0.7-0.9-1.3-1.7-2-2.6c-0.1-0.2-0.2-0.3-0.3-0.3l0,0c-0.1-0.1-0.2-0.2-0.3-0.3l0,0
		c0-0.5,0.3-0.6,0.6-0.3c0.8,0.8,1.8,0.7,2.9,0.6c1.1-0.2,1.3-0.4,0.6-1.4c-0.1-0.1-0.2-0.2-0.1-0.4c0.6,0,1,0.5,1.6,0.6
		c0.1,0.2,0.2,0.4,0.3,0.6c0.3,0.2,0.6,0.5,1,0.6c0.2,0.3,0.5,0.4,0.8,0.6c0.2,0.2,0.3,0.2,0.5,0.4c0.5,0.5,0.5,1-0.3,1
		c-1.1,0.1-2.1,0.5-3.2,0.8c-0.8,0.3-1.3-0.3-1.8-0.5c0.3,0.1,0.6,0.5,1,0.8c0.3,0.3,0.6,0.6,0.8,1.1c0,0.2,0,0.3-0.1,0.5
		c-0.1,0-0.1,0.1-0.2,0.2c-0.1,0-0.2,0-0.2,0c-0.2,0-0.3-0.1-0.4-0.2c0,0-0.1-0.1-0.2-0.2c-0.1-0.1-0.2-0.2-0.3-0.3
		C83.9,191.3,83.8,190.9,83.5,190.5z"/>
	<path class="st78" d="M78.5,185.2c-0.5-0.7-1.1-1.3-1.6-2c0-0.3-0.1-0.5-0.1-0.8c0.4-0.2,0.6,0.2,0.8,0.3c0.5,0.2,0.9,0.4,0.5-0.5
		c-0.2-0.5,0.4-0.2,0.7-0.3c0.2,0.2,0.4,0.3,0.6,0.3c0,0.1,0,0.2,0,0.3c-0.3,0.3,0,0.5,0.2,0.6c0.8,0.6,1.6,1,2.5,2
		c-1.1-0.2-1.9,0.2-2.8-0.4c-0.4-0.3-0.5,0.2-0.6,0.5C78.7,185.2,78.6,185.2,78.5,185.2z"/>
	<path class="st78" d="M80.1,182.6c0,0.1,0,0.2,0,0.3c-0.1-0.1-0.2-0.2-0.3-0.3C79.9,182.6,80,182.6,80.1,182.6z"/>
	<path class="st78" d="M79.2,185.6c-0.1-0.1-0.2-0.2-0.3-0.3C79,185.3,79.1,185.4,79.2,185.6z"/>
	<path class="st77" d="M86.2,212c-0.5,0.5-0.9,1.1-1.3,1.6l0,0c-0.1,0.1-0.2,0.2-0.3,0.3l0,0c-0.8,0.5-1.4,1.2-2,2
		c-1.1,0.8-2.1,1.8-3,3c-0.9,0.6-1.7,1.4-2.3,2.3c-1,0.7-1.8,1.8-2.7,2.6c-0.4,0.3-0.7,0.9-1.2,1.1l0,0c-0.2-0.2-0.2-0.5-0.1-0.7
		c4.1-4.3,8.2-8.6,12.6-12.6c0.2,0,0.3,0,0.5,0C86.3,211.7,86.3,211.9,86.2,212z"/>
	<path class="st7" d="M208.6,163.1c2.1-0.2,4.3-0.1,6.4,0c2.1,0.1,3,1.4,2.7,3.5c-0.1,0.9-0.8,1.2-1.3,1.8c-0.3,0.6,0,0.9,0.4,1.3
		c0.6,0.5,1,1.1,1.2,1.9c0.3,2-0.8,3.5-2.8,3.7c-2,0.2-4,0-5.9,0c-0.8,0-0.8-0.5-0.8-1.1c0-2,0-4.1,0-6.1c0.2-1.4,0.2-2.9,0-4.3
		C208.6,163.5,208.6,163.3,208.6,163.1z"/>
	<path class="st55" d="M208.6,163.7c0.4,1.4,0.4,2.9,0,4.3C208.4,166.6,208.5,165.1,208.6,163.7z"/>
	<path class="st51" d="M99.4,207c0.1,0.1,0.2,0.2,0.3,0.3C99.6,207.2,99.5,207.1,99.4,207z"/>
	<path class="st94" d="M96.7,203.1c1.1-1.4,2.5-2.6,4.2-3.2c1.4-0.5,2.7-1.3,3.9-2.1c-0.2-0.7-0.7-0.9-1.1-1.1
		c-0.2-0.1-0.3-0.3-0.1-0.5c0.5,0.2,0.9,0.5,1.3,0.7c0.1,0.1,0.2,0.2,0.3,0.3c0.3,0.2,0.8,0.3,1,0.6c0.5,0.6,1.5,0.5,1.8,1.5
		c-2.6,1.6-5.2,3.1-7.7,4.8C98.7,205.2,97.7,204.2,96.7,203.1z"/>
	<path class="st95" d="M108,199.1c-0.5-0.5-1.3-0.6-1.6-1.3c1.8,0.6,3.4,1.6,5,2.6c0,0.1-0.2,0.2-0.1,0.3c0.1,0.4,0.8,0.6,0.5,1.1
		c-0.3,0.5-0.7,0.7-1.3,1c-1.9,0.9-4,1.7-5.6,3.3c-0.8,0.8-2,0.8-2.9,1.4c-0.3,0.2-0.5-0.2-0.8-0.5c-0.3-0.2-0.6-0.3-0.8,0
		c-0.6-0.4-1.2-1-1.6-1.6c-0.1-0.1-0.2-0.3-0.3-0.3l0,0c0.3-0.9,0.8-0.5,1.2-0.2c0.7,0.6,1.3,0.4,2.1,0c2.1-1,4-2.3,5.9-3.5
		C108.9,200.4,109,200.5,108,199.1z"/>
	<path class="st88" d="M105.3,197.1c-0.1-0.1-0.2-0.2-0.3-0.3C105.1,196.9,105.2,197,105.3,197.1z"/>
	<path class="st96" d="M102,196.1c-0.3,0.6-0.8,1-1.3,1.3c-1.1,1.8-3.1,1.1-4.6,1.6c-0.6,0.2-1.3,0.3-1.9,0.3c-1.1-0.1-2-0.5-2-1.8
		c0.2-0.4,0.6-0.7,1-0.8c2.3-0.6,4.6-1.1,6.7-1.6c0.4,0.2,0.3,0,0.2,0c-0.4,0-0.7-0.3-1-0.5c-0.1-0.1-0.3-0.2-0.4-0.3
		c-0.1-0.1-0.2-0.2-0.3-0.3c-0.1,0-0.1-0.1-0.2-0.1c-0.1-0.1-0.2-0.2-0.4-0.2c-0.5-0.3-1-0.6-1.5-0.8c-0.1,0-0.3-0.1-0.4-0.2
		c-0.1,0-0.1-0.1-0.2-0.1c-0.1-0.1-0.2-0.2-0.3-0.3c0-0.1,0-0.1,0-0.2c0.5-0.6,1-0.2,1.4,0.1c0.8,0.4,1.5,0.8,2.2,1.3
		c0.1,0.1,0.2,0.2,0.3,0.3c0.1,0,0.2,0,0.3,0c0.1,0.1,0.2,0.2,0.3,0.3c0.1,0,0.2,0,0.3,0c0.1,0.1,0.2,0.2,0.3,0.3c0.1,0,0.2,0,0.3,0
		c0.1,0.1,0.2,0.2,0.3,0.3c0.1,0,0.2,0,0.3,0c0.2,0.3,0.7,0.5,0.7,1h0C102.2,195.9,102.1,196,102,196.1z"/>
	<path class="st97" d="M85.5,191.8c-0.2-0.3-0.5-0.6-0.7-1c0.2-0.2,0.5-0.3,0.6-0.2c2,1.7,4,0.2,6,0.3c0.2-0.8-1-1-0.6-1.8
		c0,0,0.1,0,0.1,0s0.1,0,0.2,0c0.4,0,0.7,0.2,1,0.4c0.1,0.1,0.2,0.2,0.3,0.3c0.3,0.2,0.8,0.3,1,0.6c0.5,0.8,1.1,1.3,2,1.6l0,0
		c0.1,0.1,0.2,0.2,0.3,0.3l0,0c0.1,0.3-0.1,0.5-0.3,0.6c-1.5,0.6-3.2,0.9-4.7,1.4c-1.4,0.5-2.2-0.5-3.4-0.8
		C86.6,193.3,86,192.5,85.5,191.8z"/>
	<path class="st98" d="M99.4,193.8c-0.1-0.1-0.2-0.2-0.3-0.3C99.2,193.6,99.3,193.7,99.4,193.8z"/>
	<path class="st75" d="M101.4,194.8c-0.1-0.1-0.2-0.2-0.3-0.3C101.1,194.6,101.2,194.7,101.4,194.8z"/>
	<path class="st75" d="M100.7,194.4c-0.1-0.1-0.2-0.2-0.3-0.3C100.4,194.3,100.6,194.4,100.7,194.4z"/>
	<path class="st98" d="M100,194.1c-0.1-0.1-0.2-0.2-0.3-0.3C99.8,193.9,99.9,194,100,194.1z"/>
	<path class="st99" d="M73.2,224.2c0,0.2,0,0.4,0,0.6c-0.3,0.1-0.6-0.2-0.9-0.3c-0.5-0.9-0.3-1.9-0.3-2.9c0-0.8,0-1.6,0-2.4
		c0.3-1.6,0-3.2,0.2-4.9c0-0.6-0.2-1.2,0.2-1.8l0,0c0.5-0.1,0.6,0.3,0.7,0.7c0.1,0.4,0.1,0.7,0.1,1.1
		C73.4,217.7,73.2,221,73.2,224.2z"/>
	<path class="st100" d="M72.2,212.7c0,1.7,0,3.4,0,5.1c0,0.5,0.2,1.1-0.3,1.6c0-0.3,0-0.7-0.1-1c0-1.9,0-3.7,0.1-5.6
		C72.1,212.7,72.1,212.7,72.2,212.7z"/>
	<path class="st101" d="M91.1,189.1c-0.3,0.7,0.4,0.8,0.7,1c0.2,0.2,0.5,0.3,0.5,0.6c0,0.4-0.4,0.5-0.7,0.6
		c-0.4,0.1-0.9,0.1-1.3,0.1c-0.6,0-1.1,0.1-1.6,0.3c-1.1,0.5-2,0.3-2.9-0.5c-0.3-0.3-0.6-0.5-1-0.5c-0.7-0.5-1.3-1.1-1.8-1.8
		c0.2-0.1,0.2-0.1,0.2-0.1c1.3,1.3,2.8,1.1,4.2,0.3c0.5-0.3,0.9-0.1,1.4-0.1c0.2,0,0.5,0,0.3-0.3c-0.1-0.1-0.2-0.2-0.4-0.3
		c-0.1-0.1-0.2-0.2-0.3-0.3c-0.3-0.1-0.5-0.3-0.6-0.6c0.1-0.1,0.2-0.2,0.3,0c0.1,0,0.2,0,0.3,0c0.1,0.1,0.2,0.2,0.3,0.3
		c0.1,0,0.2,0,0.3,0c0.2,0.4,0.6,0.3,1,0.3C90.3,188.7,90.8,188.8,91.1,189.1z"/>
	<path class="st74" d="M88.1,187.5c-0.1,0-0.2,0-0.3,0c-0.5,0-0.8-0.2-1-0.7C87.3,186.9,87.8,187.1,88.1,187.5z"/>
	<path class="st74" d="M88.8,187.8c-0.1-0.1-0.2-0.2-0.3-0.3C88.6,187.6,88.7,187.7,88.8,187.8z"/>
	<path class="st101" d="M92.4,189.8c-0.1-0.1-0.2-0.2-0.3-0.3c0.1,0,0.2,0,0.3,0C92.4,189.6,92.4,189.7,92.4,189.8z"/>
	<path class="st69" d="M72.2,200.1c0-1.8,0-3.5,0-5.3c0.6,0.5,0.7,1.3,0.6,2c0.9,1.8,1,2,3,1.5c2.7-0.7,5.6-0.8,8.3-1.9
		c1.5-0.6,3-0.7,4.5-0.6c1.1-0.1,1.5,1,2.2,1.5c0.3,0.4,0.7,0.8,0.7,1.3c0,0.3-0.1,0.5-0.4,0.6c-3-0.7-6-0.1-8.9,0.7
		c-2.9,0.8-5.8,1.3-8.6,2.2c-0.8,0.3-1.2,0-1.2-0.8C72.6,200.9,72.6,200.4,72.2,200.1z"/>
	<path class="st102" d="M88.8,195.8c0,0.3,0.1,0.5,0.1,0.8c-0.4,0.2-0.6-0.2-0.8-0.3c-0.6-0.4-1.1-0.4-1.9-0.1c-2,0.7-4,1.6-6.3,1.6
		c-0.6,0-1.1,0.2-1.6,0.4c-1.3,0.6-2.8,0.5-4.1,0.9c-0.7,0.2-1.2-0.2-1.2-1c0-0.4,0-0.9,0-1.3c0.8,0.1,1.4-0.5,2.2-0.1
		c0.2,0.1,0.6-0.1,0.8-0.2c1.2-1.1,2.7-1,4.2-1c0.1,0,0.3,0.1,0.3,0c1.3-1.1,3.1-0.6,4.4-1.5c0.5-0.3,0.8-0.2,1.1,0.2
		c0.6,0.6,1.2,1.4,2.2,1.4c0,0,0.1-0.1,0.2-0.2c0.1,0,0.1,0,0.2,0c0.1,0.1,0.2,0.2,0.3,0.3C88.7,195.6,88.8,195.7,88.8,195.8z"/>
	<path class="st87" d="M83.5,190.5c0.4,0.2,0.8,0.6,1,1c0.1,0.1,0.2,0.3,0.3,0.3l0,0c0.1,0.1,0.2,0.2,0.3,0.3l0,0
		c0.1,0.1,0.2,0.2,0.3,0.2l0.1,0.2c0,0.3-0.1,0.6-0.5,0.4c-1.8-1.4-3.6-0.7-5.3,0c-0.8,0.3-1.6,0.1-2.4,0.5c-1,0.6-2.2,0.5-3.4,0.8
		c-0.8,0.2-1.1-0.1-1.1-0.9c0-0.8,0-1.6,0-2.5c0.5,0.2,0.2,0.8,0.6,1.2c1.8-1.1,3.9-1.2,5.9-1.4c0.8-0.1,1.4-0.6,2.1-0.6
		c0.7,0,1,1.2,1.9,1.2l0,0C83.5,190.9,83.5,190.7,83.5,190.5z"/>
	<path class="st101" d="M85.5,191.8c0.6,0.6,1.3,1.1,2,1.7c0.8,0.3,1.3,0.7,1.1,1.6c-0.2,0.2-0.3,0.2-0.4,0c-0.8-1-1.6-1.9-2.6-2.7
		l0,0c-0.1-0.1-0.2-0.2-0.1-0.2c0-0.1,0.1-0.1,0.1-0.1C85.5,192,85.5,191.9,85.5,191.8z"/>
	<path class="st69" d="M88.1,195.1c0.1,0,0.2,0,0.3,0c0.1,0.1,0.1,0.2,0,0.3c-0.1,0-0.2,0-0.3,0C88.1,195.4,88.1,195.2,88.1,195.1z"
		/>
	<path class="st43" d="M81.2,187.5c0.1,0.1,0.2,0.2,0.3,0.3C81.4,187.8,81.3,187.7,81.2,187.5z"/>
	<path class="st43" d="M80.8,187.2c0.1,0.1,0.2,0.2,0.3,0.3C81.1,187.4,80.9,187.3,80.8,187.2z"/>
	<path class="st86" d="M72.2,206.4c0-1.6,0-3.3,0-5c0.7,0,0.4,0.6,0.6,1c0.4,2.6,0.4,2.7,2.9,2.2c3.3-0.7,6.6-1.5,9.9-2.2
		c1.6-0.3,3.1-1,4.7-1.4c2.2-0.5,2.6-0.5,4,1.3c0.1,1.1-0.7,1.3-1.4,1.7c-3.2,1-6.7,1-9.9,2c-2.6,0.8-5.2,1.3-7.8,2
		c-0.8,0.2-1.5,1.2-2.4,0.7C72.2,208.2,72.9,207,72.2,206.4z"/>
	<path class="st103" d="M72.2,206.4c1,0.4,0.4,1.5,1,2.3c0.4-0.8,1.1-0.9,1.8-1c1.1-0.2,2.1-0.5,3.1-1c1.4-0.6,3-0.6,4.5-1
		c0.3-0.1,0.6,0,0.8-0.2c1.3-0.9,2.7-1,4.2-0.8c0.3,0,0.6,0,0.9-0.2c0.3-0.3,0.7-0.5,1.2-0.3c0.3,0.1,0.6,0.2,0.8-0.1
		c0.8-0.8,1.7-0.5,2.6-0.4c-0.3,1.7-1.8,2.3-2.8,3.4c-0.2,0.1-0.3,0.2-0.5,0.2c-1.6,0-3.2,0.3-4.7,0.8c-3.2,1.1-6.6,1.3-9.8,2.3
		c-2,0.6-2.6,0.1-2.9-1.4c-0.2-0.5,0.2-1.1-0.2-1.7c0-0.1,0-0.2,0-0.3C72.2,206.8,72.2,206.6,72.2,206.4z"/>
	<path class="st104" d="M72.6,202.4c0-0.3,0.1-0.8-0.3-1c0-0.3,0-0.7,0-1c0-0.1,0-0.2,0-0.3c0.9,0.3,0.5,1.3,0.9,1.9
		c1-0.5,2-0.6,2.9-0.9c2.2-0.7,4.6-0.9,6.7-1.8c1-0.3,1.9-0.6,2.9-0.5c1.1,0.1,2.2-0.1,3.2-0.5c0.6-0.3,1-0.3,1.4,0.2
		c0.3,0.3,0.6,0.6,1.1,0.6c0,0.1,0.1,0.2,0.1,0.2c-0.1,0.2-0.2,0.3-0.3,0.4c-0.3,0.2-0.7,0.4-1,0.5c-3.9,0.6-7.4,2.8-11.4,2.9
		c-1.2,0-2.4,0.6-3.7,0.9C73,204.4,73,204.4,72.6,202.4z"/>
	<path class="st100" d="M72.2,207.4c0.5,0.5,0.2,1.1,0.3,1.6c0.2,0.2,0.1,0.5,0.2,0.8c0.4,2.1,0.6,2.1,2.6,1.5
		c1.9-0.6,3.9-1,5.9-1.3c0.6-0.1,1.2-0.2,1.8-0.4c0.4-0.2,0.7-0.5,1.1-0.4c2.3,0.2,4.1-1.1,6-2.2l0,0c0.3-0.1,0.4,0,0.5,0.3
		c0,0.2,0,0.3-0.1,0.4l0,0c-0.1,0-0.2,0.1-0.3,0.1c-0.2,0-0.3,0.1-0.4,0.2l0,0c-0.1,0.1-0.2,0.2-0.3,0.3l0,0
		c-0.1,0.1-0.2,0.2-0.3,0.3c0,0.1,0,0.2,0,0.3c-0.1,0.1-0.2,0.2-0.3,0.3c-0.1,0.1-0.2,0.2-0.3,0.3c-0.1,0.1-0.2,0.2-0.3,0.3
		c-0.1,0.1-0.2,0.2-0.3,0.3c-0.1,0-0.2,0-0.3,0c-0.1,0-0.2,0-0.2,0c-1,0.5-1.5,1.7-2.7,1.9c-0.4,0-0.8-0.1-1.1,0.1
		c-3,1.6-6.5,1.1-9.6,2.4c-0.2,0.1-0.4,0.1-0.6,0c-0.2,0-0.3-0.1-0.3-0.3c-0.1-0.4,0.1-0.8-0.2-1.2c0-0.3-0.1-0.5-0.3-0.6
		C72.2,210.9,72.2,209.1,72.2,207.4z"/>
	<path class="st105" d="M108,199.1c0.5,0.3,1.1,0.5,1.6,1c-0.2,0.6-0.8,1-1.3,1.4c-2.4,1.4-4.8,2.9-7.1,4.3c-0.6,0.4-1,0.1-1.4-0.3
		c-0.3-0.3-0.6-1.1-1.3-0.5c-0.6-0.3-1-0.8-1.3-1.3c-0.1-0.1-0.2-0.3-0.3-0.3l0,0c0-0.1,0-0.2,0-0.3c0.3,0,0.5,0.1,0.8,0.3
		c0.4,0.3,0.7,1.1,1.3,0.9c0.8-0.2,1.6-0.4,2.2-1c0.9-0.8,1.9-1.4,3-1.9c0.2-0.1,0.4-0.2,0.5-0.3C105.4,199.9,106.7,199.7,108,199.1
		z"/>
	<path class="st106" d="M92.1,197.5c0.2,0.5,0.6,0.8,1,1.1c0.3,0.2,0.7,0.5,0.8,0.4c1.1-0.9,2.6,0.2,3.6-0.8
		c0.7-0.7,1.1-0.3,1.1,0.6c0.8-0.3,1.1-1.3,2-1.3c-1.5,1.9-3.4,3.5-5.1,5.3c-0.5,0-0.6-0.5-0.9-0.7c-0.3-0.3-0.5-0.6-0.7-0.9
		c-0.1-0.1-0.1-0.2-0.2-0.3c0,0-0.1-0.1-0.1-0.2c-0.1-0.1-0.2-0.2-0.2-0.3c0,0-0.1-0.1-0.1-0.1c-0.1-0.1-0.2-0.2-0.3-0.3
		c0,0-0.1-0.1-0.1-0.1c-0.1-0.1-0.2-0.2-0.3-0.3c-0.1-0.1-0.2-0.2-0.2-0.3c-0.3-0.4-0.6-0.8-0.9-1.3c-0.2-0.4,0.1-0.6,0.5-0.6
		C92,197.3,92,197.4,92.1,197.5z"/>
	<path class="st107" d="M94.7,201.8c0.5,0.1,0.6,0.5,0.8,0.9c-0.1,0.1-0.1,0.2-0.1,0.3c-0.5,0.4-1.1,0.8-1.4,1.4
		c-1.1,0.7-1.8,1.9-2.9,2.6c-0.2,0.1-0.3,0.2-0.4,0.3v0c-0.1,0.1-0.2,0.1-0.3,0c-0.1-0.1-0.2-0.2-0.3-0.3c0.8-1.3,2.2-2.1,3-3.3
		c0.4-0.5,1.1-0.6,1.3-1.3c0-0.1,0-0.1,0-0.2C94.5,202,94.5,201.9,94.7,201.8z"/>
	<path class="st75" d="M102,196.1c0.1-0.1,0.2-0.2,0.3-0.3C102.2,195.9,102.1,196,102,196.1z"/>
	<path class="st88" d="M96.7,203.4c0.1,0.1,0.2,0.2,0.3,0.3C96.9,203.6,96.8,203.5,96.7,203.4z"/>
	<path class="st95" d="M100.3,207c0.1,0.1,0.2,0.2,0.3,0.3C100.6,207.2,100.4,207.1,100.3,207z"/>
	<path class="st95" d="M100.7,207.4c0.1,0.1,0.2,0.2,0.3,0.3C100.9,207.6,100.8,207.5,100.7,207.4z"/>
	<path class="st105" d="M98.4,205c0.1,0.1,0.2,0.2,0.3,0.3C98.6,205.3,98.5,205.2,98.4,205z"/>
	<path class="st91" d="M90.4,207.4c0.1,0,0.2,0,0.3,0c0,0.2-0.2,0.3-0.3,0.3C90.5,207.6,90.4,207.5,90.4,207.4z"/>
	<path class="st91" d="M90.1,207.7c0.1,0,0.2,0,0.4,0c0,0.2-0.2,0.3-0.3,0.3l-0.1-0.1C90,207.9,90,207.8,90.1,207.7z"/>
	<path class="st91" d="M90.8,207.4c0.1-0.2,0.2-0.3,0.4-0.3C91.1,207.2,91,207.4,90.8,207.4z"/>
	<path class="st41" d="M85.5,213.6c0.1-0.1,0.2-0.2,0.3-0.3C85.7,213.4,85.6,213.5,85.5,213.6z"/>
	<path class="st48" d="M84.5,214c0-0.2,0.2-0.3,0.3-0.3C84.7,213.8,84.6,213.9,84.5,214z"/>
	<path class="st41" d="M85.2,213.6c0.1,0,0.2,0,0.3,0C85.4,213.8,85.3,213.8,85.2,213.6z"/>
	<path class="st91" d="M86.2,212c0-0.1,0-0.2,0-0.4c0.1-0.1,0.2-0.1,0.3,0l0.1,0.1C86.4,211.8,86.3,211.9,86.2,212z"/>
	<path class="st108" d="M90.1,207.7c0,0.1,0,0.2,0,0.3c-0.1,0-0.2,0-0.3,0C89.9,207.9,90,207.8,90.1,207.7z"/>
	<path class="st108" d="M89.4,208.4c0.1-0.1,0.2-0.2,0.3-0.3c0,0.1,0,0.2,0,0.3C89.6,208.4,89.6,208.4,89.4,208.4z"/>
	<path class="st108" d="M89.1,208.7c0.1-0.1,0.2-0.2,0.3-0.3c0,0.1,0,0.2,0,0.3C89.3,208.7,89.2,208.7,89.1,208.7z"/>
	<path class="st100" d="M87.4,210.6c-0.1,0-0.2,0-0.3,0c0-0.1,0-0.2,0-0.2c0.1-0.2,0.2-0.2,0.4-0.1l0,0
		C87.5,210.4,87.5,210.5,87.4,210.6z"/>
	<path class="st100" d="M87.1,211c-0.1,0-0.2,0-0.3,0c0-0.1,0-0.2,0-0.2c0.1-0.2,0.2-0.2,0.4-0.1l0,0
		C87.1,210.8,87.1,210.9,87.1,211z"/>
	<path class="st100" d="M86.8,211.3c-0.1,0-0.2,0-0.3,0c0-0.1,0-0.2,0-0.2c0.1-0.2,0.2-0.2,0.4-0.1l0,0
		C86.8,211.1,86.8,211.2,86.8,211.3z"/>
	<path class="st100" d="M86.4,211.6c-0.1,0-0.2,0-0.3,0l0,0c-0.1-0.3,0-0.4,0.3-0.3l0,0C86.5,211.4,86.5,211.6,86.4,211.6z"/>
	<path class="st74" d="M88.4,188.2c0.1,0.1,0.2,0.2,0.3,0.3C88.7,188.4,88.6,188.3,88.4,188.2z"/>
	<path class="st84" d="M85.5,192.1c0,0.1,0,0.2,0,0.3c-0.1-0.1-0.2-0.2-0.3-0.3C85.2,192.1,85.4,192.1,85.5,192.1z"/>
	<path class="st84" d="M85.2,192.2c-0.1-0.1-0.2-0.2-0.3-0.3C84.9,191.9,85.1,192,85.2,192.2z"/>
	<path class="st84" d="M84.8,191.8c-0.1-0.1-0.2-0.2-0.3-0.3C84.6,191.6,84.7,191.7,84.8,191.8z"/>
	<path class="st109" d="M86.5,211.3c-0.1,0.1-0.2,0.2-0.3,0.3c-0.6,0.3-0.9,0.8-1.3,1.2c-3.4,3.4-6.8,6.8-10.2,10.2
		c-0.4,0.4-0.8,0.9-1.3,1.2c-0.4-1.7-0.9-3.5-0.6-5.3c0.2-1.3,0.3-2.6,0-3.8c-0.1-0.3,0-0.5,0-0.8c0.1-0.2,0.2-0.2,0.3,0
		c0,0.1,0,0.2,0,0.3c1.2,0.5,2.2-0.2,3.4-0.4c2.9-0.5,5.8-1.1,8.6-2.2c0.7-0.4,1.2-1.1,1.8-1.6c0.3-0.2,0.5-0.4,0.8,0
		c-0.1,0.1-0.2,0.2-0.3,0.3c-0.1,0.1-0.2,0.2-0.3,0.3C86.7,211.1,86.6,211.2,86.5,211.3z"/>
	<path class="st34" d="M212.9,173.6c-2.4,0-2.7-0.4-2.3-2.8c0.1-0.5,0.3-0.8,0.8-0.8c1,0,2,0,3,0c1,0.1,1.8,0.9,1.8,1.8
		c0,0.9-0.8,1.7-1.8,1.8C213.9,173.6,213.4,173.6,212.9,173.6z"/>
	<path class="st110" d="M212.9,167.9c0,0-0.1,0-0.2,0c-2.5,0.2-2.1-0.1-2.2-2.4c0-0.5,0.3-0.8,0.8-0.8c1,0,2,0,3,0
		c0.9,0.1,1.6,0.8,1.6,1.6s-0.6,1.5-1.6,1.6C213.9,168,213.4,167.9,212.9,167.9C212.9,167.9,212.9,167.9,212.9,167.9z"/>
	<path class="st111" d="M88.5,195.4c0-0.1,0-0.2,0-0.3c0-0.8-0.8-1-1-1.6c0.4-0.5,0.7-0.2,0.9,0.1c0.6,0.8,1.3,0.8,2.1,0.6
		c1.6-0.5,3.2-0.9,4.9-1.3c0.4,0.3,0.5-0.1,0.6-0.3c0.8,0.1,1.3,0.8,2,1c0.1,0.1,0.2,0.2,0.3,0.3l0,0c0.1,0.1,0.2,0.2,0.3,0.3l0,0
		c0.1,0.2,0,0.4-0.1,0.4c-2.7,0.4-5.4,1.5-8.2,1.4c0,0-0.1-0.1-0.1-0.1c-0.1,0.1,0,0.2,0.1,0.2c0.4,0.4,0.8,0.7,0.4,1.3
		c-0.8-0.4-1.2-1.3-2-1.7l0,0C88.7,195.7,88.6,195.5,88.5,195.4L88.5,195.4z"/>
	<path class="st98" d="M90.1,196.1c-0.4-0.2-0.8-0.5-1-1.3c1.6,1.5,3.1,0.7,4.6,0.4c1.6-0.3,3-0.9,4.6-0.8c0.1,0,0.3-0.2,0.4-0.3
		c1,0.2,1.6,0.9,2.4,1.5c-1.6-0.4-3,0.3-4.4,0.7c-1.5,0.3-3.1,0.5-4.5,1.1l0,0C91.2,197.3,90.8,196.5,90.1,196.1z"/>
	<path class="st64" d="M96.1,192.5c0.1,0.2,0.4,0.5,0.2,0.7c-0.3,0.3-0.6-0.1-0.8-0.3c0.1-0.1,0.2-0.2,0.3-0.3
		C95.8,192.5,96,192.5,96.1,192.5z"/>
	<path class="st98" d="M98.4,193.8c-0.1-0.1-0.2-0.2-0.3-0.3C98.2,193.6,98.3,193.7,98.4,193.8z"/>
	<path class="st64" d="M95.7,192.5c-0.1-0.1-0.2-0.2-0.3-0.3C95.5,192.3,95.6,192.3,95.7,192.5z"/>
	<path class="st98" d="M98.7,194.1c-0.1-0.1-0.2-0.2-0.3-0.3C98.5,193.9,98.6,194,98.7,194.1z"/>
	<path class="st77" d="M72.9,214.3c-0.1,0-0.2,0-0.3,0c0-0.3,0-0.6,0-1C73,213.5,72.9,214,72.9,214.3z"/>
	<path class="st112" d="M72.6,202.4c0.7,1.6,0.7,1.6,2.4,1.1c1.3-0.3,2.6-0.8,3.9-0.9c1.3-0.1,2.5-0.3,3.7-0.5
		c0.9-0.2,2-0.3,2.7-0.8c1.7-1.2,3.8-0.9,5.5-1.7c0.2-0.1,0.4-0.1,0.6-0.2c0.3-0.1,0-0.2,0-0.3l0,0c0-0.2,0-0.5,0-0.7
		c0.8-0.1,0.9,0.6,1.3,1l0,0c0.1,0.1,0.2,0.3,0.2,0.4c0.3,1,1.8,1.3,1.4,2.6l0,0c-0.2-0.1-0.3-0.2-0.4-0.3c-1.1-1-2.2-1.6-3.7-0.6
		c-0.4,0.3-1,0.3-1.4,0.2c-0.4,0-0.8,0-1.1,0.2c-1.6,1.3-3.6,1-5.4,1.5c-1.4,0.3-2.9,0.4-4.2,1.1c-0.6,0.3-1.4,0.5-2.2,0.5
		c-0.3,0-0.6,0-1,0.1c-2,0.4-2,0.4-2.3-1.6C72.6,203.2,72.6,202.8,72.6,202.4z"/>
	<path class="st96" d="M92.8,199.4c-0.4-0.3-0.9-0.7-1.3-1c-0.2-0.3-0.5-0.6-0.6-1c0-0.6-0.5-0.9-0.6-1.3c0.9,0.1,1.3,0.9,2,1.3
		c-0.4,0-0.6,0.2-0.3,0.6C92.2,198.4,92.8,198.7,92.8,199.4z"/>
	<path class="st69" d="M88.4,195.4c0.1,0.1,0.2,0.2,0.3,0.3C88.7,195.7,88.6,195.5,88.4,195.4z"/>
	<path class="st85" d="M83.5,191.2c0,0,0.2,0.1,0.1,0.1C83.6,191.3,83.5,191.3,83.5,191.2L83.5,191.2z"/>
	<path class="st108" d="M90.1,207c-0.5,0.4-1,0.9-1.5,1.3c-0.9,0.7-1.8,1.4-3.1,1.1c-0.6-0.2-1.1,0.1-1.7,0.4
		c-1,0.5-1.9,1.1-3.1,0.6c-0.2-0.1-0.5,0-0.6,0.1c-2,0.8-4.3,0.7-6.2,1.9c-0.2,0.1-0.5,0.1-0.9,0.1c0-1.2-0.5-2.2-0.4-3.4
		c0.3,0.2,0.3,0.4,0.3,0.7c0,0.2,0.2,0.6,0.3,0.5c0.8-0.5,1.7,0.2,2.7-0.2c1.3-0.5,2.7-1,4.2-1c1.8-0.1,3.5-0.8,5.1-1.3
		C86.9,207.2,88.4,206.8,90.1,207z"/>
	<path class="st69" d="M91.4,199.1c0.1,0,0.2,0.1,0.3,0.2c0.2,0.2,0.7,0.4,0.4,0.7c-0.2,0.2-0.5-0.2-0.6-0.5
		C91.4,199.3,91.4,199.2,91.4,199.1z"/>
	<path class="st77" d="M84.8,212c-0.5,1.1-1.5,1.3-2.5,1.3c-0.8,0-1.6,0.2-2.4,0.5c-1.9,0.8-4.1,0.8-6.1,1.4c-0.5,0.2-0.9,0-1-0.6
		c2-0.6,3.9-1.4,6.1-1.4c1.4,0,2.7-0.7,3.9-1.3C83.7,211.6,84.2,211.7,84.8,212z"/>
	<path class="st86" d="M94.4,202.4c0-0.6-0.5-0.9-0.8-1.3c-0.3-0.4-0.8-0.7-0.8-1.3c0.1-0.1,0.2-0.1,0.3,0l0,0
		c0.1,0.1,0.2,0.2,0.3,0.3l0,0c0.1,0.1,0.2,0.2,0.3,0.3l0,0c0.2,0.1,0.2,0.2,0.3,0.3c0.2,0.3,0.5,0.6,0.6,1
		C94.7,202,94.7,202.3,94.4,202.4z"/>
	<path class="st96" d="M93.7,200.4c-0.1-0.1-0.2-0.2-0.3-0.3C93.5,200.2,93.6,200.3,93.7,200.4z"/>
	<path class="st96" d="M93.1,199.8h-0.2h-0.2c0-0.1,0-0.2,0-0.3C92.9,199.5,93,199.7,93.1,199.8z"/>
	<path class="st96" d="M93.4,200.1c-0.1-0.1-0.2-0.2-0.3-0.3C93.2,199.9,93.3,200,93.4,200.1z"/>
	<path class="st96" d="M94,200.8c-0.1-0.1-0.2-0.2-0.3-0.3C93.9,200.5,94,200.6,94,200.8z"/>
</g>
</svg>
