<?xml version="1.0" encoding="utf-8"?>
<!-- Generator: Adobe Illustrator 21.1.0, SVG Export Plug-In . SVG Version: 6.00 Build 0)  -->
<svg version="1.1" id="Capa_1" xmlns="http://www.w3.org/2000/svg" xmlns:xlink="http://www.w3.org/1999/xlink" x="0px" y="0px"
	 viewBox="0 0 400 400" style="enable-background:new 0 0 400 400;" xml:space="preserve">
<style type="text/css">
	.st0{fill:#C8CCDC;}
	.st1{fill:#ECEDF2;}
	.st2{fill:#594E49;}
	.st3{fill:#685E5A;}
	.st4{fill:#70C670;}
	.st5{fill:#539355;}
	.st6{fill:#F5F5F5;}
	.st7{fill:#F1CD30;}
	.st8{fill:#FFFFFF;}
	.st9{fill:#F4F0D8;}
	.st10{fill:#E1BEA7;}
	.st11{fill:#777071;}
	.st12{fill:#918E93;}
	.st13{fill:#AFAFBB;}
	.st14{fill:#A5A3AD;}
	.st15{fill:#65AA6F;}
	.st16{fill:#EAA928;}
	.st17{fill:#D5A58A;}
	.st18{fill:#333333;}
	.st19{fill:#B14754;}
	.st20{fill:#E1A52B;}
	.st21{fill:#BB6167;}
	.st22{fill:#BB6268;}
	.st23{fill:#61564F;}
	.st24{fill:#60554E;}
	.st25{fill:#EFDED2;}
	.st26{fill:#E3E5ED;}
	.st27{fill:#969696;}
	.st28{fill:#E2E4EC;}
	.st29{fill:#C6C7C7;}
	.st30{fill:#D3D5DA;}
	.st31{fill:#D8D8D8;}
	.st32{fill:#E6E6E6;}
</style>
<g>
	<path class="st0" d="M5.3,186.5c0.2-0.2,0.3-0.5,0.3-0.7c0-3.8,0.6-7.7,1.1-11.4c0.8-5.7,1.8-11.4,3.1-17
		c1.7-7.6,3.9-15.1,6.5-22.4c1.8-5.1,3.8-10.2,6.1-15.1c1.5-3.2,3.1-6.5,4.7-9.6c2.2-4.2,4.6-8.3,7.2-12.4
		c3.2-5.2,6.7-10.2,10.4-15.1c2.2-2.8,4.4-5.6,6.7-8.3c4.2-4.9,8.5-9.6,13.2-14.1c2.8-2.7,5.6-5.2,8.6-7.7c4-3.5,8.3-6.7,12.5-9.9
		c4.3-3.2,8.8-6.1,13.5-8.9c4.9-3,9.9-5.8,15.1-8.2c6.2-3,12.5-5.6,19-8c7.5-2.7,15.2-5,23.1-6.7c4.5-1,9.1-1.9,13.7-2.6
		c3.6-0.5,7.3-1,10.9-1.3c3.1-0.3,6.2-0.4,9.3-0.7c5.2-0.5,10.3-0.3,15.5-0.2c2.9,0.1,5.8,0.1,8.7,0.5c1.4,0.2,2.9,0.2,4.4,0.3
		c3.4,0.3,6.9,0.8,10.3,1.3c3.4,0.5,6.7,1.1,10,1.8c5.5,1.1,10.9,2.5,16.3,4.1c6.6,1.9,13.1,4.3,19.4,6.9c5.4,2.3,10.7,4.7,16,7.5
		c6.1,3.2,12,6.7,17.7,10.6c4.7,3.2,9.3,6.6,13.8,10.2c3.5,2.9,7,5.9,10.3,9c2.7,2.5,5.3,5.1,7.9,7.7s5,5.4,7.4,8.2
		c2.9,3.4,5.7,6.9,8.3,10.4c3.8,5.1,7.3,10.3,10.6,15.7c3.2,5.4,6.2,10.9,8.9,16.5c2.4,5.1,4.6,10.3,6.6,15.6
		c2.8,7.6,5.2,15.3,7.1,23.1c1.1,5,2.1,9.9,2.9,15c0.5,3.6,1,7.2,1.3,10.9c0.3,3.2,0.4,6.4,0.7,9.7c0.4,4.5,0.2,9,0.2,13.5
		c0,3.4-0.3,6.8-0.5,10.2c-0.2,1.9-0.3,3.7-0.4,5.6c-0.2,2.1-0.4,4.2-0.7,6.2c-0.6,3.8-1.2,7.5-1.9,11.3c-1.1,5.6-2.4,11.1-4,16.5
		c-2.2,7.4-4.7,14.6-7.7,21.7c-2.4,5.5-5,10.9-7.8,16.2c-3.3,6.1-6.9,12-10.8,17.7c-3.3,4.8-6.8,9.6-10.6,14.1c-1,1.2-2,2.3-3,3.5
		c-0.7-0.3-1.1-0.9-1.5-1.5c-1.9-2.6-3.9-5.1-5.9-7.7c-0.3-0.5-0.8-0.9-0.6-1.6c2.4-3.2,5-6.3,7.3-9.6c10.1-13.7,18.1-28.5,24-44.5
		c5-13.5,8.2-27.4,9.9-41.7c1.2-9.9,1.4-19.8,1-29.7c-0.9-20.1-5.2-39.6-12.7-58.3C361,115,351,98.5,338.4,83.7
		c-4.1-4.8-8.3-9.5-13-13.9c-10.9-10.3-22.8-19.4-35.9-26.8c-9.9-5.7-20.3-10.3-31.1-14.1c-1.1-0.4-2.2-0.9-3.5-0.9
		c-3.2-1.4-6.1-3.4-9.4-4.8c-9.5-4.3-19.4-6.9-29.6-8.4c-8.9-1.3-17.9-1.7-26.8-1.3c-13.7,0.6-26.9,3.5-39.3,9.8
		c-3.1,1.6-6.2,3.4-9.1,5.4c-0.5,0.3-0.9,0.6-1.4,0.8c-0.4,0.1-0.9,0.2-1.3,0.3c-7.2,2.7-14.3,5.7-21.2,9.2
		c-12.2,6.3-23.6,13.8-34,22.6c-4.9,4.2-9.7,8.5-14.1,13.1c-10.1,10.7-19,22.3-26.4,35C36,121,30.7,132.7,26.8,145
		c-3.7,11.7-6.2,23.6-7.6,35.8c-1.1,9.4-1.2,18.8-0.8,28.2c0.6,14.6,3.1,29,7.3,43c3.4,11.5,8,22.6,13.6,33.3
		c1.7,3.3,3.7,6.4,5.5,9.6c-0.3,1.9-1.5,3.5-2.2,5.3c-1,2.6-2.2,5-3.1,7.6c-0.2,0.6-0.2,1.3-1.1,1.4c-2.2-2.7-3.8-5.8-5.7-8.7
		c-3.4-5.5-6.4-11.2-9.2-17.1c-2.4-5-4.5-10-6.4-15.1c-2.8-7.6-5.2-15.3-7.1-23.1c-1.1-5-2.1-9.9-2.9-15c-0.5-3.6-1.1-7.2-1.4-10.9
		c-0.1-1.4-0.3-2.7-0.3-4.1c0-0.3,0-0.6-0.3-0.9c-0.5-0.7,0.1-1.6-0.3-2.3c0-7.7,0-15.4,0-23.1C5.4,188.1,4.8,187.2,5.3,186.5z"/>
	<path class="st1" d="M5.3,186.5c-0.1,0.8,0.3,1.6-0.3,2.3c0-0.8,0-1.6,0-2.3C5,186.5,5.1,186.5,5.3,186.5z"/>
	<path class="st1" d="M4.9,212c0.6,0.7,0.2,1.5,0.3,2.3c-0.1,0-0.2,0-0.3,0C4.9,213.5,4.9,212.7,4.9,212z"/>
	<path class="st2" d="M38.3,309.1c0.1-0.2,0.3-0.3,0.3-0.5c1.5-4.5,3.4-8.8,5.6-12.9c0.1-0.2,0.2-0.5,0.3-0.8
		c-0.2-0.7,0.2-1.1,0.5-1.6c2.4-3.9,4.8-7.7,7.9-11.1c0.6-0.4,0.9-1.5,2-1c0.2,2.3-0.5,4.5-0.8,6.7c-0.7,4.7-1.1,9.5-1.1,14.3
		c-0.1,5.8,0.5,11.6,4.2,16.5c2.7,3.6,6.1,6.4,10.3,8.3c6.4,2.9,13.1,3.2,19.9,1.9c1.2-0.2,2.3-0.6,3.4-1.2c2.9-1.5,3.8-3.9,2.4-6.9
		c-0.2-0.3-0.3-0.7-0.5-1c-0.4-0.8-0.3-1.3,0.6-1.4c0.3-0.1,0.6-0.2,1-0.2c3-0.5,5-2.1,5.9-5.1c1-3.2,0.4-6.1-2-8.5
		c-1.2-1.3-1.1-1.7,0.6-2.1c5.4-1.4,7.6-4.5,7.1-10c-0.2-2.5-1.6-4.3-3.5-5.8c-1.6-1.3-1.6-1.7,0.2-2.7c1.3-0.7,1.9-2.3,3.4-2.7
		c0.6,0,1,0.4,1.4,0.8c4,4.2,7.6,8.5,9.6,14c1.3,3.7,1.6,7.4,1.4,11.3c-0.4,8.7-3.3,16.7-6.1,24.7c-0.3,0.9-0.8,1.7-1.2,2.5
		c-0.1,0.3-0.3,0.6-0.4,0.9c-0.1,0.3-0.2,0.7-0.4,1c-0.2,0.2-0.2,0.4-0.3,0.6s0,0-0.1,0.2c-0.1,0.2-0.3,0.4-0.4,0.6
		c0.2-0.2,0.3-0.4,0.4-0.6c0.1-0.2,0.2-0.4,0.3-0.6c0.2-0.3,0.3-0.6,0.5-1c0.1-0.4,0.3-0.6,0.4-1c4.6-8.7,10-16.7,17.1-23.5
		c1.6-1.5,3.4-2.7,5.5-3.6c2.7-1.1,5.3-2.2,7.9-3.5c0.8-0.4,1.6-0.8,2.5-0.8c0.8,0.1,1.1,0.6,1.3,1.3c4,11.8,9.9,22.8,14.8,34.2
		c1.9,4.4,1.9,4.3-2.2,6.9c-7.5,4.8-14.3,10.5-20.8,16.5c-0.6,0.6-0.6,1.2-0.5,1.9c0.6,6,1.7,12,2.9,17.9c0.2,1.1,0.9,2.2,0,3.3
		c-3.4-0.9-6.6-2.1-9.8-3.4c-6.6-2.5-13-5.3-19.3-8.5C97,366.4,84.6,358.1,73,348.3c-5.2-4.4-10.1-9.1-14.9-14.1
		c-6.4-6.7-12.4-14-17.8-21.6C39.8,311.5,38.9,310.4,38.3,309.1z"/>
	<path class="st2" d="M338.7,317.1c2.2,3,4.6,5.8,6.7,8.8c0.4,0.6,0.8,1.1,1.2,1.8c-1.1,1.5-2.3,2.8-3.5,4.1
		c-8.5,9.2-17.8,17.6-28,25.1c-12.3,9-25.6,16.6-39.7,22.6c-0.3,0.1-0.5,0.2-0.8,0.2c-0.5-0.5-0.5-0.6-0.1-1.1
		c0.9-1.3,1.9-2.4,2.9-3.6c3.7-4,3.2-3.1,0.7-7.1c-4-6.4-8-12.9-11.7-19.5c-1.1-1.9-1-2.1,0.4-3.8c7.4-8.7,14.6-17.5,21.4-26.6
		c3.2-4.3,6.2-8.7,9-13.2c0.7-1.1,0.7-2.1,0-3.2c-3.5-5.8-8-10.6-13.6-14.3c-1.1-0.7-2.2-1.4-3.3-2.2c-0.3-0.2-0.8-0.4-0.7-0.8
		c0.1-0.6,0.6-0.5,1-0.6c4.5,0.9,8.7,2.5,12.9,4c7.4,2.7,14.7,5.9,21.8,9.5c2.9,1.5,5.8,3.1,8.7,4.8c2,1.2,3.7,2.8,5.3,4.5
		c3,2.9,5.9,5.9,8.7,9C338.3,316,338.8,316.4,338.7,317.1z"/>
	<path class="st3" d="M280.6,284c-0.2,0-0.4,0-0.9,0.1c0.7,0.5,1.2,0.9,1.8,1.2c3.9,2.3,7.5,5,10.5,8.4c2.4,2.6,4.5,5.4,6.2,8.5
		c0.4,0.8,0.3,1.5-0.2,2.2c-2.4,3.8-4.9,7.5-7.5,11.2c-2.5,3.5-5.1,6.9-7.7,10.3c-2.5,3.2-5.1,6.3-7.7,9.5c-1.9,2.3-3.8,4.7-5.7,7
		c-0.8,1-1.6,1.9-2.5,2.9c-1,1.1-1.1,1.1-0.3,2.6c1,1.8,2,3.7,3.1,5.4c1.1,1.9,2.2,3.8,3.4,5.7c1.4,2.2,2.8,4.5,4.2,6.7
		c1.1,1.7,2.1,3.5,3.2,5.1c0.5,0.8,0.4,1.2-0.2,1.8c-1.5,1.7-3,3.4-4.4,5.1c-0.5,0.5-0.9,1.1-1.3,1.7c-0.1,0.2,0,0.3,0.2,0.4
		c-3.4,1.6-6.9,2.9-10.4,4.1c-8.3,2.9-16.7,5.3-25.3,7c-0.5-1.6,0-3,0.3-4.5c3-19.6,7.5-38.9,13.2-57.9c1.9-6.4,4-12.8,6.4-19.1
		c1-1.9,2.5-3.6,3.8-5.4c2-2.8,3.8-5.6,5.2-8.8c1.1-2.6,1.7-5.3-0.4-7.8c-0.4-2.6-1.1-5.3-0.5-8c0.8-0.4,1.5-0.2,2.2,0
		c2.1,0.6,4,1.4,5.9,2.3c1.3,0.6,2.7,1.2,4.1,1.5C279.9,283.2,280.5,283.3,280.6,284z"/>
	<path class="st3" d="M139.7,385.2c0.1-1.7-0.5-3.4-0.8-5c-0.7-3.5-1.3-7.1-1.8-10.7c-0.3-2.1-0.5-4.2-0.9-6.3
		c-0.1-0.7,0.2-1.1,0.6-1.4c1.8-1.2,3.1-2.9,4.8-4.3c3.7-3,7.3-6.1,11.2-8.9c2.4-1.8,5-3.4,7.5-5c0.8-0.5,0.9-1,0.6-1.9
		c-0.9-2.7-2.1-5.3-3.2-7.9c-3-6.6-6.3-13.2-9.1-19.9c-1.3-3-2.3-6.1-3.5-9.2c-0.2-0.6-0.3-1.2-1.1-1.2c-0.3-1.4,0.5-2.4,1.6-3.2
		c7.4-5.4,15.2-10.3,23.4-14.6c2.7-1.4,5.4-2.7,8.1-4.1c0.7-0.3,1.3-0.8,2.2-0.4c0.4,1.3,0.3,2.6-0.1,4c-3,1.5-3.2,4.2-2.9,7
		c0.3,2.9,1.4,5.6,1.9,8.5c0,1.8-0.5,3.5-0.9,5.2c-2.9,14.6-4.9,29.3-6.4,44.1c-0.9,9-1.7,18.1-2.3,27.1c-0.3,4.4-0.5,8.8-0.9,13.1
		c-0.1,0.6,0,1.2-0.5,1.7c-8.9-1.4-17.6-3.6-26.2-6.2C140.5,385.6,140.1,385.6,139.7,385.2z"/>
	<path class="st4" d="M177.9,300.6c-1-3.4-2.1-6.7-2.1-10.3c0-1.4,0.3-2.7,1.1-3.9c0.5-0.7,1-1.4,2.1-1.2c0.5,0.4,0.6,0.9,0.7,1.4
		c0.4,2.7,2.1,4.1,4.4,5.1c5.2,2.2,10.6,3.5,16.2,4.5c9.5,1.8,19,2.4,28.6,2c12.3-0.5,24.4-2.7,36-6.9c1.5-0.5,2.6-1.2,2.4-3
		c0-0.5,0-1,0.7-1.1c1.9,1.6,1.6,3.7,1.1,5.8c-0.6,2.8-2.2,5.3-3.7,7.7c-1.5,2.5-3.4,4.8-5.1,7.1c-0.3,0.4-0.6,0.9-1,1.3
		c-2.2,3.3-5,6.1-7.7,9c-3.5,3.8-7,7.6-10.7,11.2c-0.3,0.3-0.6,0.5-1,0.6c-0.2,0-0.5,0-0.7,0c-2.5-1.1-4.4-3.1-6.5-4.6
		c-2.4-1.8-4.7-3.8-6.8-5.6c0.3,0.5,0.3,1.1-0.2,1.7c0-0.2-0.2-0.3-0.2-0.5c0.2-1.7-0.7-2.7-1.9-3.7c-3.9-3.5-7.6-7.2-10.6-11.5
		c-0.6-0.9-1.3-1.9-1.9-2.9c-2.9,4.2-6.6,7.2-10.4,10.2c-0.6,0.5-1.1,1-1.4,1.8c-1.9,1-3.7,2.4-5.5,3.6c-2.5,1.7-5.2,3.1-7.9,4.3
		c-1.4,0.7-1.9,0.5-2.1-1.1c-0.8-5.8-2.9-11.2-4.8-16.7C178.5,303.5,178,302.1,177.9,300.6z"/>
	<path class="st5" d="M177.9,300.6c2.5,7.3,5.6,14.4,6.6,22.4c2.2-1.1,4.3-2.1,6.3-3.2c2.7-1.6,5.4-3.4,8-5.3
		c0.4-0.3,0.5-0.1,0.6,0.3c-1,3.7-1.9,7.4-2.8,11c-1.4,5.3-2.7,10.5-4.2,15.8c-2.9,10.7-5.5,21.5-8.1,32.2
		c-1.4,5.9-2.8,11.9-4.2,17.8c0,0.2-0.1,0.4-0.2,0.6c-0.4,1.6-0.4,1.5-2.1,1.3c-3.4-0.3-6.9-0.8-10.3-1.4c-0.2,0-0.3-0.1-0.5-0.2
		c0.2-4.3,0.4-8.7,0.8-13c0.2-2.9,0.4-5.8,0.7-8.7c0.3-3,0.5-6.1,0.8-9.2c0.3-3,0.5-6,0.8-9c0.2-2.5,0.6-5,0.8-7.5
		c0.3-2.2,0.5-4.5,0.8-6.7c0.3-2.9,0.7-5.8,1.1-8.7c0.5-3.4,1-6.7,1.6-10.1c0.7-4.6,1.6-9.2,2.5-13.8
		C177.3,303.8,177.6,302.2,177.9,300.6z"/>
	<path class="st5" d="M225.6,321.4c0-0.6,0.1-1.3,0.1-2.1c0.9,0.3,1.5,1,2.1,1.5c3.3,2.9,6.8,5.5,10.3,8.2c0.3,0.3,0.8,0.5,1.1,0.7
		c0.2,0.2,0.5,0.2,0.7,0c1.8-1.6,3.7-3.3,5.2-5.3c0.3-0.4,0.8-0.8,1.1-1.2c3.7-3.5,7-7.4,10.4-11.2c0.9-1,1.6-2.1,2.6-2.9
		c-1.4,4.1-2.8,8.2-4.2,12.3c-3.5,10.8-6.5,21.8-9.2,32.8c-1.6,6.8-3,13.7-4.3,20.6c-0.9,5-1.8,10-2.5,15.1c0,0.2-0.1,0.4-0.2,0.6
		c-3,0.8-6.1,1.2-9.2,1.7c-1.2,0.2-2.4,0.4-3.6,0.6c-0.6,0.1-0.8-0.1-0.8-0.7c0-0.6,0-1.3,0-2c0.6-13.8,0.6-27.5,0.6-41.3
		c0-6.4,0-12.8-0.2-19.1C225.9,327.1,225.7,324.2,225.6,321.4z"/>
	<path class="st6" d="M210.1,394.2c1.2-1.5,2.5-2.8,4-4.2C213.7,391.1,211.9,393,210.1,394.2z"/>
	<path class="st6" d="M224.9,380.5c-1.1,1.1-2.1,2.1-3.2,3.2c-0.2,0.2-0.4,0.4-1,0.4c0.8-0.8,1.4-1.4,2.1-2.1
		c0.6-0.6,1.2-1.2,1.8-1.8C224.7,380.3,224.8,380.4,224.9,380.5z"/>
	<path class="st6" d="M219.5,385.3c-1.3,1.2-2.6,2.4-3.5,3.3C216.3,387.9,218.3,386,219.5,385.3z"/>
	<path class="st7" d="M139.2,29.2c3.2-2.1,6.4-4.2,9.9-6c8.2-4.2,16.8-7,25.9-8.6c9.3-1.7,18.6-2,28-1.6c9.9,0.5,19.7,1.9,29.3,4.7
		c7.9,2.3,15.5,5.4,22.5,9.8c0.2,0.1,0.3,0.2,0.5,0.2c3,1.1,5.4,3.2,7.7,5.2c6.5,5.4,12.1,11.7,16,19.3c0.2,0.5,0.6,0.8,0.8,1.3
		c4.3,8.6,6.5,17.8,7,27.3c0.1,6.6,0,13.2-1.2,19.7c-0.3,1.7-1.1,2.8-2.5,3.7c-3.9,2.4-8.2,4-12.5,5.5c-12.9,4.5-26.2,7.7-39.7,9.6
		c-0.3,0-0.5,0.2-0.8,0.2c-4.6,0.6-9.1,1.1-13.8,1.4c-0.9-0.2-2.2,0.3-2.5-0.6c-0.3-1,1.1-1.3,1.8-1.8c2.1-1.8,4.3-3.6,5.6-6.2
		c3.5-6.6,1.9-14.2-3.8-18.9c-3.7-3-7.9-4.5-12.5-4.9c-8.6-0.7-16.6,1.5-24.4,4.7c-6.2,2.6-11.9,5.9-17.1,10.2
		c-3.1,2.5-5.8,5.4-8.5,8.3c-5.3,5.8-11.3,10.9-18.2,14.7c-0.4,0.2-0.8,0.4-1.1,0.7c-8.3,4.6-17,7.3-26.5,8
		c-11.1,0.9-21.5-1.2-31.2-6.4c-5.7-3-10.6-7.1-14.5-12.3c-0.3-0.4-0.9-0.9-0.5-1.4c0.5-0.7,1.1-0.2,1.6,0
		c11.2,4.5,25,0.4,31.9-11.5c2.2-3.8,3.7-7.9,4.7-12.1c2.6-10.9,6.3-21.4,11.5-31.4c0.6-1.2,1.4-2.4,2-3.6
		c4.7-7.9,10.3-15.1,17-21.3c1.9-1.7,3.8-3.4,5.8-4.8c0.2-0.2,0.5-0.3,0.8-0.4c0.1-0.1,0.2-0.2,0.3-0.2
		C138.7,29.4,139,29.3,139.2,29.2z"/>
	<path class="st8" d="M279.1,53.3c-0.6-1.1-1.3-2.3-2-3.4c-5.2-8.7-12.2-15.6-20.5-21.2c-0.5-0.3-1-0.7-1.5-1c0.3-0.3,0.7-0.2,1.1,0
		c4.9,1.6,9.7,3.4,14.5,5.4c4.6,1.9,9,4.1,13.4,6.4c4.1,2.2,8.2,4.6,12.1,7c5.1,3.1,9.9,6.6,14.6,10.2c3,2.3,5.9,4.7,8.8,7.2
		c4,3.5,7.9,7.1,11.5,10.9c3.1,3.3,6.1,6.7,9,10.3c4.6,5.6,8.8,11.4,12.7,17.4c4.7,7.2,8.8,14.9,12.4,22.7
		c3.1,6.6,5.7,13.5,7.9,20.4c2.3,7.4,4.2,14.9,5.6,22.5c0.8,4.2,1.3,8.4,1.8,12.7c0.3,2.8,0.5,5.6,0.7,8.3
		c0.6,6.7,0.3,13.5,0.2,20.3c-0.1,3.3-0.4,6.7-0.8,10c-0.5,3.4-0.9,6.8-1.4,10.3c-0.8,5.6-2.1,11.2-3.5,16.7
		c-1.9,7.5-4.3,14.7-7.2,21.9c-2.6,6.6-5.8,13-9.2,19.2c-2.9,5.4-6.1,10.6-9.6,15.6c-3.2,4.6-6.6,9.1-10.2,13.5
		c-0.2,0.2-0.4,0.3-0.6,0.5c-3.1-3.5-6.3-6.9-9.6-10.3c-0.5-1.1,0.5-1.7,1-2.4c4.6-5.8,8.9-11.9,12.7-18.3
		c8.3-13.8,14.5-28.5,18.5-44.2c2.4-9.3,4-18.7,4.7-28.3c0.4-5.4,0.8-10.7,0.6-16.2c-0.4-13.6-2.1-27.1-5.7-40.2
		c-3-11.1-7-21.7-12.2-31.9c-6.1-12.1-13.6-23.2-22.5-33.5c-10.1-11.7-21.6-21.9-34.5-30.5c-3.2-2.2-6.6-4.2-10-6.1
		C280.8,54.7,279.9,54.1,279.1,53.3z"/>
	<path class="st8" d="M137.8,30.2c-3.8,3-7.5,6.2-10.8,9.8c-4.2,4.5-7.9,9.5-11.1,14.7c-0.3,0.5-0.6,1-1,1.5
		c-0.7,0.7-1.5,1.3-2.3,1.8c-8.8,5.3-17,11.5-24.6,18.3C76.9,86.3,67.3,97.5,59.2,110c-8.6,13.2-15.1,27.4-19.6,42.4
		c-3.2,10.6-5.3,21.5-6.4,32.5c-0.6,6.6-1,13.2-0.7,19.8c0.8,19.7,4.4,38.9,11.9,57.3c2.4,5.9,4.9,11.7,8,17.2
		c0.5,1,1.4,1.9,0.8,3.2c-1.3,1.9-2.8,3.6-4.2,5.5c-1.6,2.3-3,4.7-4.5,7.1c-1.1-0.8-1.6-2.1-2.2-3.2c-3.3-5.6-6.2-11.4-8.9-17.3
		c-2.8-6.1-5.1-12.4-7.2-18.7c-2.2-7.1-4.1-14.3-5.4-21.5c-0.9-4.7-1.6-9.4-2.1-14.1c-0.3-2.7-0.5-5.4-0.7-8.2
		c-0.6-6.7-0.3-13.4-0.2-20.1c0-2.3,0.1-4.6,0.5-6.9c0.2-1.4,0.3-2.8,0.4-4.3c0.4-3.7,1-7.3,1.5-10.9c0.7-4.1,1.6-8.2,2.5-12.2
		c0.6-2.8,1.4-5.5,2.2-8.3c1.6-5.5,3.5-10.9,5.6-16.2c2.7-6.9,6-13.6,9.6-20.1c2.8-5.1,5.8-10,9.1-14.7c3-4.4,6.2-8.8,9.7-12.9
		c2.3-2.7,4.6-5.4,7.1-8.1c2.7-3,5.4-5.8,8.3-8.5c3.1-2.9,6.2-5.7,9.5-8.4c5.3-4.3,10.7-8.4,16.5-12.1c4-2.6,8-5,12.2-7.3
		c4.4-2.4,8.9-4.6,13.5-6.7c4-1.8,8-3.4,12.1-4.8c0.3-0.1,0.4,0,0.3,0.3h0C138.2,30,137.9,30,137.8,30.2z"/>
	<path class="st9" d="M138.4,29.8c-0.1-0.1-0.2-0.2-0.3-0.3c0.3-0.4,0.7-0.3,1.1-0.3C139,29.5,138.8,29.7,138.4,29.8z"/>
	<path class="st0" d="M53.2,282.4c0-1.2-0.7-2.1-1.2-3c-2.2-4-4.1-8.1-6-12.3c-2.3-5.2-4.3-10.6-6.1-16c-2.3-7.1-4.1-14.3-5.3-21.7
		c-0.6-4-1.3-8-1.6-12c-0.3-3.3-0.4-6.6-0.7-9.8c-0.3-3.5-0.3-6.9-0.2-10.4c0.1-3.2,0.3-6.4,0.5-9.5c0.2-2.7,0.5-5.3,0.8-8
		c0.2-2.4,0.6-4.8,1-7.2c0.8-4.6,1.8-9.1,2.9-13.6c2-7.7,4.5-15.3,7.6-22.6c1.7-4,3.5-8.1,5.5-12c3.9-7.5,8.3-14.7,13.3-21.6
		c3-4.2,6.2-8.2,9.6-12.1c4-4.6,8.3-9,12.8-13.1c5.7-5.3,11.9-10.1,18.3-14.6c3.3-2.2,6.6-4.3,10-6.4c0.2-0.1,0.3-0.1,0.5-0.2
		c-1.3,2.6-2.7,5-4,7.6c-4.3,8.7-7.3,17.9-9.6,27.4c-1.4,5.8-3.5,11.2-7.3,15.9c-6.6,8.3-18,12-28,8.9c-1.1-0.3-2.1-0.9-3.3-1.4
		c0,0.6,0.4,1,0.6,1.3c7,9.1,16.3,14.7,27.4,17.3c14.7,3.5,28.8,1.3,42.3-5.4c0.8-0.4,1.6-0.8,2.4-1.2c0.5-0.3,0.7,0,0.9,0.3
		c0.2,0.3,0.3,0.7,0.3,1.1c0.3,4.5,0.8,9.1,0.5,13.6c-0.3,1-1,1.4-1.8,1.8c-10.9,6.1-17.5,15.3-18.8,27.8c-1.1,10.8,2,20.4,9.8,28.4
		c2.2,2.2,4.5,4.3,7.3,5.9c0.7,0.4,1.4,0.9,1.6,1.8c0,3.6-0.3,7.1-0.6,10.7c-0.3,4-0.5,8-0.8,12c-0.6,7.4-0.9,14.7-0.7,22.1
		c0,0.6,0,1.3,0.1,2c0.2,2.1,1.3,3.4,3.3,4.1c3.5,1.2,7.1,1.6,10.7,2.1c10.4,1.3,20.8,1,31.2,1c3.3,0,3.5,0.2,3.4,3.5
		c-0.3,5-0.8,9.9-1.6,14.8c-0.1,0.6-0.1,1.3-0.9,1.7c-8.7,4-17.1,8.6-25.1,13.8c-2.8,1.8-5.6,3.7-8.3,5.8c-0.7,0.6-1.6,1-1.3,2.2
		c0,0.1-0.3,0.3-0.4,0.5c-2.7,1.2-5.3,2.6-8,3.5c-4.5,1.5-7.8,4.4-10.8,7.8c-3,3.3-5.6,6.9-8,10.6c-1.8,2.9-3.7,5.7-5.3,8.7
		c-0.2,0.3-0.4,0.5-0.6,0.8c-0.1,0.1-0.2,0.2-0.3,0c0.6-2.2,1.5-4.2,2.2-6.3c1.3-3.8,2.5-7.7,3.5-11.6c1-3.6,1.4-7.3,1.5-11
		c0.1-4.7-0.8-9.2-3.1-13.4c-2.4-4.3-5.5-7.9-9-11.2c-0.2-0.2-0.2-0.5-0.2-0.8c1.2-4.3-0.7-7.5-3.4-10.4c-4.2-4.7-9.6-7.3-15.5-9.1
		c-1.4-0.4-2.1-1.1-1.9-2.6c0.3-2.6,1-5.1,1.8-7.5c1.7-5.4,2.5-10.9,1.4-16.4c-1.4-7.1-5.6-11.9-12.2-14.7c-0.6-0.3-1.3-0.4-1.9-0.5
		c-4.9-0.8-7.5,2-6,6.7c1,3.3,1.3,6.7,1.2,10.1c-0.1,3-0.1,6.1-0.5,9.2c-0.6,4.8-1.3,9.6-2.8,14.2c-0.3,0.6-0.7,1.1-1.3,1.4
		c-2.7,1.3-4.1,3.7-5.3,6.2c-1.8,3.8-2.9,8-3.8,12.1c-0.2,0.7-0.2,1.4-0.8,1.9C54.1,281.3,53.8,282,53.2,282.4z"/>
	<path class="st10" d="M54.8,281c1-5.1,2.2-10.1,4.5-14.7c1.2-2.4,2.6-4.7,5.3-5.8c0.5-0.2,0.8-0.6,1.1-0.9c1.9-1,4.1-1.3,6.2-1.4
		c3.5-0.2,6.9-0.1,10.3,0.7c1.1,0.3,2.2,0.3,3.3-0.3c0.1,1.4,0.1,1.4,1.4,1.9c4.4,1.4,8.6,3.2,12.3,6c2.5,1.9,4.7,4.1,6.2,6.9
		c1.4,2.6,1.7,5.2,0.5,7.9c-1.3,1.5-2.7,3-4.8,3.9c1.2,1,2.4,1.6,3.3,2.7c0.9,1.1,1.4,2.4,1.8,3.7c0.3,1.4,0.3,2.9,0.1,4.3
		c-0.2,1.4-0.8,2.6-1.6,3.7c-0.8,1.1-2,1.8-3.2,2.5c-1.2,0.7-2.6,0.6-4,1.2c3.4,2.7,4.4,6.1,3.1,10.1c-1,3-2.4,4.8-7.8,5.5
		c0.4,0.8,0.9,1.6,1.1,2.5c1,2.9,0.1,4.9-2.4,6.4c-1.6,1-3.3,1.5-5.1,1.8c-7.7,1.2-15,0.5-21.8-3.6c-6.4-3.8-10.6-9.2-11.6-16.7
		c-0.4-2.9-0.6-5.8-0.3-8.7c0.2-2,0.2-4,0.3-6.1C53.3,289.9,54.1,285.5,54.8,281z"/>
	<path class="st11" d="M110.3,337.2c-0.3,0.4-0.5,0.8-0.9,1.3c-0.1-0.8,0.2-1.3,0.5-1.6C110.2,336.9,110.2,337.1,110.3,337.2z"/>
	<path class="st12" d="M111,335.9c-0.1,0.3-0.2,0.6-0.6,0.7l0,0c-0.1-0.4,0-0.8,0.3-1.1C110.8,335.5,110.8,335.7,111,335.9z"/>
	<path class="st13" d="M111,335.9c-0.1-0.1-0.2-0.2-0.3-0.3c0-0.2,0-0.5,0.3-0.6c0.1,0,0.2,0,0.3,0C111.2,335.2,111,335.5,111,335.9
		z"/>
	<path class="st14" d="M110.3,337.2c-0.1-0.1-0.2-0.2-0.3-0.3c0.1-0.2,0.2-0.3,0.4-0.3l0,0C110.3,336.8,110.3,337,110.3,337.2z"/>
	<path class="st0" d="M279.1,53.3c2.6,1.1,4.9,2.7,7.3,4.1c6,3.5,11.7,7.6,17.2,11.9c2.7,2.1,5.3,4.3,7.8,6.6c3.4,3,6.6,6.3,9.8,9.6
		c3.8,3.9,7.3,8,10.7,12.3c3.1,4,6,8,8.7,12.2c2.3,3.6,4.5,7.3,6.6,11.1c3.1,5.6,5.7,11.4,8.1,17.3c2.4,5.9,4.4,12,6.1,18.1
		c1.2,4.5,2.2,9,3.1,13.6c0.6,3.3,1,6.7,1.5,10.1c0.4,2.8,0.4,5.6,0.9,8.3c0,0.2,0,0.3,0,0.5c0.1,5.3,0.6,10.6,0.3,15.8
		c-0.3,4.1-0.3,8.2-0.9,12.3c-0.5,3.4-0.8,6.7-1.3,10.1c-0.5,3.5-1.3,7-2,10.5c-1.2,5.4-2.8,10.9-4.6,16.2c-1.9,5.6-4.1,11-6.6,16.4
		c-3.9,8.5-8.6,16.6-13.9,24.4c-2.4,3.5-5,7-7.7,10.3c-0.5,0.5-1,1.1-1,1.8c-3.7-3.9-8.4-6.4-13.2-8.8c-10.7-5.4-21.6-10-33.1-13.4
		c-0.7-0.2-1.4-0.5-2.2-0.5c-4.6-1.3-8.7-3.7-13.3-4.8c-0.8-0.3-0.7-1.1-0.8-1.7c-0.5-3-0.7-6-0.9-9c-0.5-7-1-14.1-0.7-21.1
		c0.2-5.6,0.5-11.1,1-16.6c0.1-0.8,0.3-1.6,0.8-2.3c0.9-0.8,2-0.9,3-1.2c4-1.1,8.1-2.1,12.3-1.6c0.8,0.1,1.9,1.1,2.5,0.2
		c0.5-0.6-0.1-1.7-0.1-2.6c-0.5-8.1,0-16.2,1.8-24.1c0.5-1.9,0.7-3.8,1.4-5.6c0.5-1,1.3-1.8,2.1-2.5c3.6-3.2,7-6.6,9.3-10.8
		c3.9-7.1,4.2-14.4,1.4-22c-0.3-0.8-0.7-1.5-0.6-2.4c3.3-14.5,6.3-29,8.7-43.7c0.6-3.4,0.9-6.9,1.1-10.3c0.3-4.5-1.2-6.9-5.3-8.9
		c-0.6-0.3-1.4-0.4-1.4-1.2c0-0.7,0.8-0.9,1.3-1.2c2.2-1.3,4.1-2.8,5.3-5c0.6-1,0.3-1.4-0.8-1.4c-6.3,0-12.5-1.3-18.6-2.4
		c-1.4-0.3-2.9,0-4.1-1.1c-0.6-7.8-2-15.4-5-22.7C280.5,56.4,279.8,54.9,279.1,53.3z"/>
	<path class="st10" d="M267,228.5c-0.5,0.6-0.6,1.5-0.6,2.2c0,1.9-0.2,3.7-0.5,5.6c-0.4,3.1-0.3,6.2-0.5,9.3
		c-0.3,4-0.4,8.1,0.2,12.2c0.2,1.4,0,3,0.1,4.5c0.1,2.6,0.3,5.1,0.6,7.7c0.2,1.8,0.3,3.5,0.4,5.2c0.1,1.4,0.3,2.7,0.6,4
		c-0.3,0.8,0,1.6,0.1,2.4c0.1,1.9,0.4,3.8,0.6,5.7c-0.3,0.6-0.2,1.2-0.2,1.8c0.1,1.3-0.5,2-1.7,2.4c-4.1,1.4-8.2,2.8-12.4,3.8
		c-6.7,1.6-13.5,2.7-20.3,3.2c-5.4,0.4-10.8,0.5-16.2,0.2c-10.2-0.5-20.2-1.9-30-5.2c-1.4-0.5-2.9-1.1-4.3-1.8
		c-2.1-1-3.4-2.6-3.7-4.9c-0.1-0.5-0.2-1.1-0.3-1.6c0-1.3,0-2.7,0.1-4c0.5-0.9,0.5-1.9,0.6-2.9c0.3-3.6,1-7.2,1.1-10.8
		c0-1.4,0.3-2.8,0.3-4.3c0-1.4,0-1.4-1.5-1.4c-5.2,0-10.4-0.1-15.5,0c-3.5,0.1-6.9-0.2-10.4-0.4c-5-0.3-9.9-0.7-14.8-1.9
		c-0.9-0.2-1.8-0.5-2.7-0.8c-3-0.9-3.6-2.4-3.7-4.8c-0.2-4.6-0.2-9.1,0-13.7c0.2-3.4,0.3-6.9,0.6-10.3c0.3-3.4,0.5-6.9,0.7-10.3
		c0.2-3.1,0.6-6.2,0.6-9.3c0-1.1,0.5-2.1,0.3-3.3c0.7-0.5,1.3,0,1.9,0.3c10.3,4.6,20.6,4.8,30.7-0.1c11.4-5.6,18.3-14.9,19.9-27.7
		c0.3-2.4,0.8-2.9,3.2-3c0.9,0,1.8,0,2.6,0c1.7,0.1,2.4,0.7,2.6,2.4c0.6,6.3,2.8,12,6.6,17c6.9,9.1,16,14.1,27.6,14.6
		c7.4,0.3,14.3-1.4,20.4-5.4c10-6.6,15.6-15.9,16.3-27.9c0.2-2.5,0-5-0.3-7.4c-0.1-1,0.2-1.9,0.5-2.7c1.6-3.9,3.2-7.9,5.4-11.5
		c0.3-0.4,0.6-0.8,0.8-1.2c1.1-2.2,2.5-4.2,4-6.2c0.5-0.7,1.1-1.6,2.1-1.7c0.3-0.2,0.1,0.6,0.5,0.3c0.5-0.5,1-0.9,1.6-1.2
		c1.3-0.8,2.8-1.4,4.3-1.7c4.1-0.9,7.4,0.4,10,3.7c1.6,2.1,2.9,4.4,4.2,6.6c0.3,0.6,0.5,1.3,0.7,2c0.1,1.2,0.8,2.3,1.1,3.4
		c0.6,2.2,1.1,4.4,1.3,6.7c0.6,7.2-1.9,13.3-6.3,18.7c-2,2.5-4.2,4.7-6.7,6.7c-0.6,0.5-1.1,1-1.5,1.7c-4,3.1-8.4,5.3-13.4,5.9
		c-1.4,0.2-2.1,0.8-2.4,2.1c-2.2,8.3-4.2,16.7-5,25.2C267.3,227.4,267.2,228,267,228.5z"/>
	<path class="st15" d="M239.9,329.6c-0.2,0.3-0.5,0.3-0.7,0C239.5,329.6,239.7,329.6,239.9,329.6z"/>
	<path class="st10" d="M136.8,142.2c0.2-4.1-0.5-8.2-0.3-12.3c0-0.9-0.4-1.7-0.3-2.6c0-0.4-0.3-0.5-0.6-0.6c3-1.8,6.1-3.7,8.9-5.9
		c4-3.1,7.5-6.5,10.9-10.3c2.3-2.6,4.7-5.2,7.6-7.3c3.4-1.8,7.1-2.2,10.8-2.7c6.9-1,13.7-0.3,20.4,1.7c6.1,1.9,11.5,4.9,15.4,10.2
		c1.4,1.9,2.4,4,3.1,6.2c0.7,2.2,0.8,2.2,3.1,1.9c4.8-0.5,9.5-1,14.3-1.4c9.5-1.2,18.8-0.4,28,2.2c2.9,0.8,5.6,2.1,8.1,3.6
		c2,1.2,3.8,2.7,5.1,4.6c2.6,3.7,4.8,7.6,6.3,11.9c0,0.6-0.3,1-0.8,1.4c-4.2,3.9-6.9,8.8-9.5,13.8c-0.7,1.3-1.3,2.6-1.9,3.8
		c-0.5,1.1-1.1,1.1-1.8,0.1c-0.4-0.5-0.6-1.1-0.9-1.8c-0.2-0.5-0.4-0.9-0.7-1.3c-3.9-6.5-9.2-11.5-16.1-14.6
		c-4-1.8-8.2-2.9-12.6-3.1c-5.7-0.3-11.2,0.5-16.4,2.8c-9.3,4.2-15.8,11-19.4,20.6c-1,2.6-1.7,5.3-1.9,8c-0.1,1.2-0.6,1.7-1.8,1.7
		c-1.5,0-3.1,0-4.6,0c-1.4,0-1.9-0.6-2.1-2c-2-14.1-9.8-23.7-22.8-28.9c-8.3-3.3-16.9-3.1-25.3,0.1
		C138.4,142.1,137.6,142.8,136.8,142.2z"/>
	<path class="st16" d="M277.3,141.6c-1.6-4-3.7-7.9-6.1-11.5c-2.6-3.8-6.4-5.9-10.4-7.5c-4.8-1.9-9.8-2.8-14.9-3.3
		c-3.5-0.3-7.1-0.5-10.7-0.5c-1.7,0-3.4,0.3-5.1,0.2c1.6-0.3,3.3-0.6,5-0.9c3.7-0.6,7.3-1.3,11-2.1c4.8-1,9.6-2.2,14.3-3.6
		c6.2-1.8,12.4-3.8,18.3-6.5c1.8-0.8,3.4-1.7,5.1-2.7c0.8-0.5,1.1-1.1,1.3-2c0.3-2.1,0.8-4.2,0.9-6.3c0.1-1.7,0.4-3.4,0.4-5.1
		c0-3,0-6.1,0-9.1c3.4,0.4,6.7,1.1,10.1,1.7c4.8,0.8,9.5,1.6,14.6,1.4c-0.5,2.1-1.6,3.5-3,4.9c-1.4,1.3-3,2.3-4.7,3.2
		c0.3,0.5,0.7,0.5,1,0.6c1,0.4,2,0.9,2.9,1.6c2.1,1.5,3.2,3.5,3.2,6.2c0,3.1-0.3,6.2-0.7,9.2c-2.1,14.4-5.1,28.7-8.2,42.9
		c-0.3,1.3-0.6,2.6-1,3.8c-0.9-0.9-1.2-2.2-1.9-3.2c-0.9-1.4-1.8-2.9-2.7-4.3c-2.4-3.7-5.9-5.2-10.3-4.4c-0.4-0.3-0.6-0.6-0.8-1
		c-1.6-2.5-3.3-3-6-1.8C278.3,141.5,277.9,141.9,277.3,141.6z"/>
	<path class="st17" d="M215.8,120.5c-0.7,0.5-1.5,0.2-2.2,0.3c-0.7,0-0.9-0.6-1-1.1c-0.5-1.6-1.1-3.1-1.9-4.6
		c-1.3-2.5-3.1-4.6-5.3-6.4c-3.1-2.6-6.6-4.3-10.3-5.7c-2.2-0.8-4.5-1.3-6.9-1.7c-2.9-0.5-5.8-0.8-8.7-0.7c-5,0.2-9.8,0.8-14.6,2.1
		c-0.7,0.2-1.4,0.3-2.1,0.5c2.5-2.3,5.3-4.1,8.2-5.8c6.2-3.7,12.8-6.5,19.9-8.2c2.9-0.7,5.8-1.1,8.8-1.3c3.5-0.3,7,0,10.4,1.1
		c5.2,1.6,9.4,4.6,11.8,9.6c2.8,5.9,1.6,12.1-2.5,16.7c-1.5,1.8-3.2,3.3-5.3,4.5c-0.2,0.1-0.4,0.2-0.4,0.6
		C214.4,120.4,215.1,120.4,215.8,120.5z"/>
	<path class="st9" d="M137.8,30.2c0.1-0.3,0.3-0.4,0.6-0.4C138.3,30.1,138.1,30.2,137.8,30.2z"/>
	<path class="st18" d="M277.3,141.6c0.6-0.3,1.1-0.6,1.8-0.9c2.3-1,4.5-0.3,5.8,1.9c0.3,0.5,0.5,1,0.6,1.5c-1.5,0.4-2.9,1-4.3,1.7
		c-0.9-0.5-1.3,0.8-2.1,0.7c-1.9,1.7-3.1,3.8-4.5,5.9c-0.5,0.7-0.9,1.4-1.3,2.1c-0.2,0.3-0.5,0.6-0.6,1.1c-1.9,3.6-3.7,7.3-5.2,11.1
		c-0.6,1.4-0.8,2.7-0.6,4.3c1.1,10.6-1.6,20-8.7,28c-8.3,9.3-18.8,13.3-31.2,12.1c-16.2-1.7-29.5-14.7-31.6-30.8c0-0.2,0-0.3,0-0.5
		c-0.3-2.6,0.3-2.5-2.9-2.6c-1.1,0-2.2,0-3.3,0.1c-0.8,0-1.1,0.4-1.2,1.2c-0.2,2.4-0.6,4.8-1.3,7.1c-4.8,14.1-14.4,22.8-29.2,25.3
		c-7.4,1.3-14.5,0.2-21.2-3.1c-0.5-0.2-0.8-0.5-1.4-0.5c-0.5-0.4-1.1-0.8-1.6-1.1c-9.9-6.3-15.8-15.3-17.1-27
		c-1.7-14.5,6-28.7,18.9-35.6c0.6-0.3,1.3-0.6,1.8-1.1c0.5,0.1,1-0.2,1.4-0.4c13.7-5.7,30-2.4,40.5,9.1c5.1,5.6,8.2,12.2,9.1,19.8
		c0,0.3,0.1,0.6,0.1,1c0.1,0.5,0.3,0.6,0.8,0.6c1.9-0.1,3.8-0.2,5.8,0c0.8,0,0.8-0.6,0.8-1.1c0.3-3.2,1-6.4,2.4-9.4
		c6.1-13.8,16.5-21.7,31.6-22.6c14.2-0.8,25.1,5.4,32.8,17.2c0.2,0.3,0.3,0.6,0.5,0.9c0.1,0.4,0.4,0.7,0.6,1.1
		c0.2,0.4,0.5,0.9,0.7,1.3s0.3,0.9,0.8,1.3c0.5-0.2,0.5-0.7,0.6-1c1.9-4,4-8,6.4-11.7C273.2,145.8,275.1,143.6,277.3,141.6z"/>
	<path class="st17" d="M85.5,258.6c-0.2,0.2-0.3,0.5-0.3,0.7c-0.1,0.5-0.4,0.6-0.8,0.5c-2.1-0.6-4.3-0.9-6.4-1.1
		c-2.4-0.2-4.9-0.2-7.4,0c-1.7,0.2-3.2,1-4.9,0.8c0.5-2.1,1-4.3,1.4-6.4c0.6-2.9,0.9-5.8,1.3-8.8c0.4-2.7,0.4-5.4,0.5-8
		c0.1-3.4,0.1-6.8-1.1-10.1c-0.5-1.3-0.5-2.6-0.4-3.9c0.2-1.8,1.8-3.5,3.9-3.7c1.6-0.2,3.2-0.2,4.7,0.5c7,3,11.4,8,12.8,15.5
		c1,5.5,0.3,10.9-1.4,16.2C86.6,253.4,85.8,255.9,85.5,258.6z"/>
	<path class="st16" d="M267,228.5c-0.3-0.2-0.3-0.5-0.3-0.9c0.9-7.5,2.2-14.9,4.2-22.1c0.5-1.8,1-3.6,1.4-5.4c0.2-0.6,0.4-1,1.1-1
		c5-0.3,9.4-2.4,13.5-5.2c0.3-0.2,0.6-0.9,1.3-0.5c-3.1,11-4.3,22.2-2.9,33.8c-4.3-2.1-8.4-1.1-12.5-0.3
		C270.9,227.4,269,228,267,228.5z"/>
	<path class="st19" d="M217.4,224.9c-1-0.9-2.1-1.5-3.2-2c-0.5-0.2-0.8-0.3-1.1,0.3c-1.8,4-5.3,6.1-9,7.8c-4.2,1.9-8.7,2.9-13.2,3.5
		c-4.9,0.7-9.9,0.8-14.8,0.5c-4.5-0.2-8.8-0.8-13.2-1.9c0.1-0.8,0.6-0.4,1-0.4c5.3,0.3,10.6,0.5,15.8,0.3c7.2-0.3,14.3-1.2,21.1-3.8
		c3.3-1.3,6.4-2.8,9-5.4c0.4-0.4,0.9-0.7,0.9-1.4c-1.2-0.4-2.4,0-4-0.2c2.1-2.2,4.3-3.4,7.1-3.2c1.1,0.1,1.8,0.8,2.4,1.6
		c0.8,1.1,1.4,2.2,1.6,3.6C218,224.5,218,224.9,217.4,224.9z"/>
	<path class="st20" d="M279.1,146.5c0.3-0.5,0.7-0.8,1.1-1.1c0.6-0.4,0.8,0.1,1,0.5c-0.5,0.3-1,0.7-1.4,1.1
		C279.3,147.2,279.2,146.8,279.1,146.5z"/>
	<path class="st21" d="M163.9,232.7c-0.3,0.1-0.8,0-1,0.4c-0.7,0.1-1.3-0.3-2-0.5C162,232.5,162.9,232.3,163.9,232.7z"/>
	<path class="st22" d="M217.4,224.9c0.3-0.2,0.3-0.4,0.4-0.7c0.1,0.2,0.2,0.3,0.3,0.6c0,0.2,0,0.5-0.1,0.6
		C217.7,225.4,217.6,225.1,217.4,224.9z"/>
	<path class="st23" d="M272.7,155.5c-0.1-0.5,0.2-0.9,0.6-1.1C273.3,154.9,273,155.3,272.7,155.5z"/>
	<path class="st24" d="M263,158.4c-0.5-0.2-0.7-0.6-0.6-1.1C262.8,157.6,263.1,158,263,158.4z"/>
	<path class="st25" d="M199.8,175.6c0-3.8,0.6-6.7,1.3-9.8c0.5-2,1.8-3.7,2.2-5.8c0.1-0.4,0.7-0.8,1-1.2c1-1.4,1.8-2.9,2.9-4.3
		c0.8-1,1.8-1.7,2.7-2.6c2-2.2,4.7-3.2,6.9-5.1c2.6-0.5,4.7-2,7.4-2.5c3.2-0.6,6.4-0.5,9.5-0.6c1.9-0.1,3.9,0.7,5.9,1.2
		c2.4,0.6,4.5,1.8,6.7,2.7c1.8,0.8,3,2.4,4.9,3.2c0.8,1.3,2.1,2.1,3.1,3.2c2.7,2.9,4.3,6.5,6.2,9.9c0.2,2,1.2,3.8,1.4,5.8
		c0.3,2.3,0.5,4.6,0.3,6.9c-0.2,2.4-0.5,4.8-1.2,7.2c-0.6,2-1.3,3.9-2.2,5.6c-1.3,2.4-2.9,4.6-4.8,6.6c-2.1,2.2-4.5,4.1-7,5.8
		c-1.3,0.9-2.9,1.4-4.2,2.2c-0.9,0.6-2.1,0.6-3.2,1c-0.8,0.3-1.7,0.4-2.5,0.8c-0.4,0.2-0.9,0.4-1.4,0.2c-0.3-0.2-0.8,0-1.1,0
		c-4.6,0.5-9.1,0-13.5-1.3c-1.6-0.5-3-1.3-4.6-2c-3.5-1.7-6.5-4.1-9-7.1c-1.3-1.5-2.4-3-3.5-4.7c-1.2-1.9-2.5-3.9-3-6.1
		C200.4,181.7,199.5,178.4,199.8,175.6z"/>
	<path class="st25" d="M136.1,148.2c0,0,2.2-1.5,2.3-1.5c2-0.6,4-1.3,6-2c0.6-0.2,4.6-0.8,5.2-0.8c1,0,2,0,3,0
		c2.7-0.2,5.3,0.4,7.9,1.1c2.2,0.6,4.3,1.3,6.2,2.3c1.8,0.9,3.4,2.4,5.1,3.6c2.7,2.1,4.8,4.8,6.8,7.5c0.8,1,1.6,2.2,1.9,3.4
		c1,3.2,2.2,6.4,2.6,9.8c0.3,3.9,0,7.7-0.8,11.5c-0.4,2.2-1.6,4.1-2.4,6.1c-2,4.7-5.6,8.1-9.5,11.2c-1.1,0.9-2.2,1.8-3.4,2.4
		c-0.6,0.3-1.3,0.4-2,0.7c-1.7,0.8-3.3,1.6-5.1,2.1c-1.8,0.4-3.6,0.6-5.4,0.7c-5.5,0.4-10.8-0.5-15.9-2.8c-1.4-0.6-2.6-1.6-4-2.1
		c0.5-5.2,0.6-10.4,1-15.7c0.2-3,0.3-5.9,0.4-8.9c0.1-6.6,0.6-13.1,0.4-19.6c0-1.8,0-3.5,0-5.3C136.3,150.6,136.5,149.4,136.1,148.2
		z"/>
	<path class="st26" d="M136.8,157c0,3.7,0.2,7.4,0,11.1c-0.2,3.4,0,6.8-0.3,10.2c-0.2,2.4-0.1,4.7-0.3,7.1
		c-0.3,4.2-0.5,8.4-0.7,12.6c0,1-0.3,1.9-0.3,2.9c0,0.3-0.3,0.5-0.5,0.5c-1.3-1-2.6-1.9-3.7-3c-1.3-1.4-2.9-2.4-3.9-4
		c-1-1.5-2.4-2.6-2.8-4.5c-1.8-1.8-1.6-4.3-2.7-6.4c-0.7-1.4-0.6-3.2-0.9-4.8c-0.3-1.6-0.3-3.2-0.2-4.8c0.1-1.6,0.2-3.3,0.5-4.9
		c3.8-3.5,7.6-6.9,11.9-9.9C134,158.3,135.1,157,136.8,157z"/>
	<path class="st27" d="M136.8,157c-3,1.6-5.6,3.7-8.2,5.8c-2.3,1.8-4.5,3.7-6.5,5.8c-0.3,0.3-0.6,0.6-1.1,0.3c0-0.4-0.2-0.8,0.2-1.1
		c0.5-0.2,0.2-0.7,0.3-1c0-0.1,0-0.2,0-0.3c0.2-0.2,0.2-0.4,0.1-0.6c0.4-0.5,0.6-1.1,0.9-1.6c0.5-1.8,1.3-3.5,2.4-5.1
		c0.4-0.4,0.7-0.8,1.1-1.2c2.7-2.2,5.6-4.3,8.7-6.1c0.6-0.3,1.1-0.9,1.9-0.6C136.8,153.3,136.8,155.2,136.8,157z"/>
	<path class="st28" d="M136.8,151.5c-3.2,1.6-6.2,3.8-9.1,5.9c-0.5,0.3-1,0.7-1.4,1.1c-0.4,0-0.5-0.1-0.4-0.5
		c0.6-1.7,1.8-2.9,3.1-4.1c1.7-1.6,3.2-3.4,5.2-4.8c0.6-0.4,1.3-0.8,2-0.9c0.3-0.1,0.6-0.2,0.6,0.3
		C136.8,149.5,136.8,150.5,136.8,151.5z"/>
	<path class="st29" d="M125.2,159.4c-1.1,1.5-1.7,3.4-2.7,5l0,0c-0.2-0.3-0.1-0.5,0-0.8c0.6-1.6,1.2-3.3,2.4-4.6
		C125.1,159,125.2,159.2,125.2,159.4z"/>
	<path class="st30" d="M125.2,159.4c-0.1-0.2-0.3-0.3-0.4-0.4c0.2-0.5,0.4-0.9,1-1c0.2,0.2,0.3,0.3,0.4,0.5
		C126,158.9,125.6,159.2,125.2,159.4z"/>
	<path class="st31" d="M121.5,167c0.5,0.4,0,0.9,0,1.3c0,0.1-0.2,0.2-0.2,0.1c-0.1-0.1-0.1-0.3-0.2-0.4
		C121.2,167.6,121.2,167.2,121.5,167z"/>
	<path class="st32" d="M121.6,166.1c0.3,0.2,0.3,0.5-0.1,0.6C121.6,166.5,121.6,166.3,121.6,166.1z"/>
	<path class="st27" d="M122.5,163.6c0,0.3,0,0.5,0,0.8C122.1,164.2,122.2,163.9,122.5,163.6z"/>
</g>
</svg>
