<?xml version="1.0" encoding="utf-8"?>
<!-- Generator: Adobe Illustrator 21.1.0, SVG Export Plug-In . SVG Version: 6.00 Build 0)  -->
<svg version="1.1" id="Capa_1" xmlns="http://www.w3.org/2000/svg" xmlns:xlink="http://www.w3.org/1999/xlink" x="0px" y="0px"
	 viewBox="0 0 400 400" style="enable-background:new 0 0 400 400;" xml:space="preserve">
<style type="text/css">
	.st0{fill-rule:evenodd;clip-rule:evenodd;fill:#C9CEDF;}
	.st1{fill-rule:evenodd;clip-rule:evenodd;fill:#EDEFF4;}
	.st2{fill-rule:evenodd;clip-rule:evenodd;fill:#58595B;}
	.st3{fill-rule:evenodd;clip-rule:evenodd;fill:#454547;}
	.st4{fill-rule:evenodd;clip-rule:evenodd;fill:#B9BED5;}
	.st5{fill-rule:evenodd;clip-rule:evenodd;fill:#FFFFFF;}
	.st6{fill-rule:evenodd;clip-rule:evenodd;fill:#B4BAD2;}
	.st7{fill:#ECEDED;}
	.st8{fill:#C9CEDF;}
	.st9{fill:#686E85;}
	.st10{font-family:'Lato-Heavy';}
	.st11{font-size:17.5711px;}
	.st12{fill:none;stroke:#C9CEDF;stroke-width:7.4339;stroke-miterlimit:10;}
	.st13{fill:#FFFFFF;stroke:#C9CEDF;stroke-width:7.4339;stroke-miterlimit:10;}
</style>
<g>
	<g>
		<path class="st0" d="M29.5,291.6c-1.4-2.7-2.8-5.5-4.1-8.2c-2.5-5.2-4.8-10.5-6.8-16c-2.8-7.5-5.2-15.2-7-23
			c-1.1-4.9-2.1-9.9-2.9-14.9c-0.5-3.6-1-7.2-1.4-10.8c-0.1-1.4-0.3-2.7-0.3-4.1c0-0.3,0-0.7-0.3-0.9c-0.5-0.7,0.1-1.6-0.3-2.3
			c0-7.7,0-15.3,0-23c0.5-0.7-0.1-1.6,0.3-2.3c0.2-0.2,0.3-0.4,0.3-0.7c0-3.8,0.6-7.6,1.1-11.4c0.7-5.7,1.8-11.3,3-16.9
			c1.6-7.3,3.8-14.5,6.2-21.5c1.9-5.4,4-10.6,6.4-15.8c1.5-3.2,3-6.4,4.7-9.6c2.2-4.2,4.6-8.3,7.1-12.3c3.2-5.1,6.6-10,10.2-14.8
			c2.2-2.9,4.5-5.6,6.8-8.4c3.9-4.6,8-9,12.3-13.2c3-2.9,6.1-5.7,9.3-8.5c4-3.5,8.2-6.6,12.5-9.8c4.3-3.2,8.8-6.1,13.4-8.9
			c4.9-2.9,9.8-5.7,15-8.2c6.2-2.9,12.4-5.6,18.9-8c7.5-2.7,15.1-4.9,22.9-6.7c4.5-1,9-1.9,13.6-2.6c3.6-0.5,7.1-1,10.7-1.3
			c3.2-0.3,6.3-0.4,9.4-0.7c5-0.4,9.9-0.3,14.9-0.2c3,0,6.1,0.1,9.1,0.5c1.5,0.2,3,0.2,4.6,0.3c2.3,0.2,4.7,0.5,7,0.8
			c3,0.4,6,0.9,9,1.4c4.3,0.8,8.6,1.8,12.9,2.8c9.1,2.2,18,5.3,26.7,8.9c4.7,2,9.3,4,13.8,6.4C293.8,31,299,33.9,304,37
			c6.5,4.1,12.6,8.6,18.6,13.4c3.2,2.6,6.2,5.3,9.2,8.1c2.3,2.1,4.5,4.3,6.7,6.5c3,3,5.8,6.3,8.7,9.6c2.9,3.3,5.6,6.7,8.2,10.2
			c3.8,5,7.3,10.2,10.5,15.6c3.1,5,5.9,10.2,8.4,15.6c2.6,5.4,5,10.9,7,16.6c2.8,7.5,5.2,15.1,6.9,22.8c1.1,5,2.2,10,2.9,15.1
			c0.5,3.6,1,7.1,1.3,10.7c0.3,3.3,0.4,6.5,0.7,9.8c0.4,4.9,0.3,9.8,0.2,14.7c-0.1,2.9-0.1,5.8-0.5,8.6c-0.2,1.5-0.2,3.1-0.4,4.7
			c-0.4,4.1-1,8.1-1.6,12.1c-1,6.3-2.3,12.5-4,18.7c-1.9,7.1-4.2,14-6.9,20.8c-2.5,6.4-5.4,12.7-8.5,18.8c-0.4,0.7-1,1.3-1.1,2.2
			c-0.4,0.4-0.9,0.4-1.4,0.4c-4.2,0-8.5,0.1-12.7-0.1c-0.2,0-0.4-0.1-0.5-0.2c-0.5-0.9,0.2-1.6,0.6-2.2c2.3-3.9,4.3-8,6.3-12.1
			c8-16.6,13.2-34.1,15.9-52.4c1.6-11.2,2-22.5,1.5-33.7c-0.6-14.6-3.1-28.9-7.3-42.9c-5.2-17.2-12.8-33.3-22.7-48.2
			c-0.2-0.3-0.4-0.5-0.5-0.9c0,8,0,15.8,0,23.7c0,0.8,0.2,1.8-0.5,2.5c-0.2,0-0.4,0-0.5-0.2c-0.4-0.8-0.3-1.7-0.3-2.6
			c0-10,0-20.1,0-30.1c0-2.6-0.8-4.7-3.5-5.7c-1.5-0.8-3.2-0.1-4.7-0.5c-1.9-1.4-3.2-3.4-4.8-5.2c-4.1-4.5-8.2-8.9-12.7-13
			c-5.3-4.9-10.8-9.4-16.6-13.7c-9.8-7.2-20.3-13.3-31.4-18.4c-12.8-5.9-26.1-10.1-39.9-12.8c-7.7-1.5-15.4-2.5-23.3-3
			c-6.9-0.4-13.8-0.5-20.7-0.2c-13.9,0.6-27.6,2.9-41,6.8c-11.6,3.4-22.8,7.8-33.5,13.4C103.7,47.1,92,55.1,81.3,64.6
			c-3.7,3.3-7.3,6.6-10.7,10.1c-3.2,3.4-6.4,6.8-9.3,10.4c-0.4,0.5-0.7,1-1.3,1.2c-1.8,0.4-3.6-0.1-5.3,0.3
			c-1.4,0.5-2.8,0.8-3.9,1.9c-1,1-1.8,2-1.9,3.5c-0.2,2.7,0,5.4-0.1,8.1c0,0.6,0,1.2-0.1,1.8c-1.6,3.3-3.7,6.2-5.5,9.3
			c-7.7,13.5-13.6,27.8-17.5,42.9c-2.4,9.2-4.1,18.5-5.1,27.9c-1,8.9-1.1,17.9-0.6,26.9c0.7,16.6,3.9,32.8,9.2,48.5
			c3.7,11,8.5,21.6,14.3,31.7c0.3,0.6,0.7,1.1,0.9,1.8c0.2,0.4,0.3,0.8-0.2,1.1c-1.8,0.5-3.7,0.2-5.6,0.2c-2.2,0-4.5,0-6.7,0
			C30.9,292.1,30.1,292.2,29.5,291.6z"/>
		<path class="st1" d="M6.9,186.2c-0.1,0.8,0.3,1.6-0.3,2.3c0-0.8,0-1.5,0-2.3C6.6,186.2,6.8,186.2,6.9,186.2z"/>
		<path class="st1" d="M6.5,211.5c0.6,0.7,0.2,1.5,0.3,2.3c-0.1,0-0.2,0-0.3,0C6.5,213,6.5,212.2,6.5,211.5z"/>
		<path class="st0" d="M345.8,326.8c-0.9,1.1-1.8,2.2-2.7,3.2c-2.4,2.7-4.9,5.3-7.5,7.8c-3.8,3.7-7.7,7.2-11.8,10.6
			c-3.9,3.2-7.9,6.2-11.9,9.2c-4.3,3.2-8.8,6-13.5,8.7c-7.1,4.2-14.4,8-22.1,11.1c-5.7,2.4-11.4,4.6-17.3,6.5
			c-7.1,2.3-14.4,4.1-21.7,5.6c-3.7,0.8-7.5,1.4-11.3,1.9c-2.4,0.3-4.7,0.6-7.1,0.8c-3.3,0.3-6.5,0.4-9.8,0.7
			c-5.4,0.4-10.7,0.3-16.1,0.2c-3.9-0.1-7.8-0.4-11.7-0.8c-3.2-0.4-6.4-0.7-9.6-1.1c-4.2-0.6-8.4-1.3-12.5-2.2
			c-7.6-1.7-15.2-3.7-22.5-6.3c-5.1-1.8-10-3.7-14.9-5.9c-3.4-1.5-6.8-3-10.1-4.7c-5.3-2.8-10.5-5.8-15.6-9
			c-5.3-3.3-10.3-7-15.2-10.8c-3.1-2.4-6.1-4.9-9-7.5c-3.3-3-6.6-6-9.8-9.2c-3.2-3.3-6.2-6.7-9.3-10.2c-3-3.4-5.7-6.9-8.4-10.5
			c-1.3-1.7-2.5-3.4-3.7-5.2c0.4-0.4,0.9-0.5,1.3-0.5c4.8,0,9.5-0.1,14.3,0.1c0.6,0.1,1,0.7,1.3,1.1c5.3,6.8,11.1,13.3,17.3,19.3
			c10.7,10.2,22.5,19.1,35.4,26.5c9.9,5.7,20.3,10.5,31.2,14.2c11.7,4,23.7,6.7,35.9,8.3c10.5,1.4,21.1,1.6,31.6,1.2
			c13.9-0.6,27.5-2.9,40.9-6.8c17.8-5.1,34.3-12.8,49.7-23c7.9-5.3,15.4-11.2,22.4-17.6c6.4-5.8,12.2-12.2,17.8-18.8
			c0.8-1,1.5-2.1,2.4-3.1c0.4-0.5,0.8-0.9,1.4-1.1c4.8-0.3,9.5-0.1,14.3-0.1c0.5,0,1,0.1,1.4,0.5c-2.5,3.4-4.9,6.9-7.6,10.2
			c-1.3,1.6-2.4,3.2-3.9,4.6c-0.8,0.5-1.5,1.1-2.3,1.6C344.5,326.8,346.1,326.4,345.8,326.8z"/>
		<path class="st2" d="M359.3,309.7c-5.4,0-10.7,0-16.1,0c-0.6,0.4-1.3,0.5-2,0.5c-5.5,0-10.9,0-16.4,0c-79.8,0.1-159.6,0-239.4,0
			c-3.4,0-6.8,0-10.2,0c-5.5,0.1-11.1,0-16.6,0c-0.7,0-1.3,0-1.9-0.5c-5.4,0-10.7,0-16.1,0c-4.5,0-9,0-13.6-0.1
			c-0.7,0-1.5,0.1-2.2-0.3c0.5-0.5,1.1-0.5,1.7-0.5c0.8,0,1.5,0,2.3,0c55.8,0,111.5,0,167.3,0c3.3,0,3.3,0,3.3-3.3
			c0-1.6,0-3.2,0-4.8c0-2.2-0.1-2.3-2.3-2.3c-8.4,0-16.7,0-25.1,0c-1.2,0-2.4,0-3.6,0c-0.6,0-1.4,0-1.7-0.7c0.8-0.9,1.8-0.6,2.8-0.6
			c10.9,0,21.9,0,32.8,0c9.9,0,19.8,0,29.7,0c3.6,0,4.5-0.7,5.8-4.1c0.2-0.6,0.4-1.2,0.9-1.5c0.8-0.4,1.6-0.3,2.4-0.3
			c31.7,0,63.3-0.1,95,0.1c6,0,12,0.2,18,0.3c0.7,0,1.3,0.4,1.9,0.2c4.8,0,9.6,0,14.4,0c4.4,0,8.8,0.1,13.3,0.1c0.5,0,1,0,1.5,0
			c1.7,0.1,2.4,0.8,2.4,2.4c0,2.3-0.2,4.7,0.1,7c0.1,1.6-0.3,2.4-1.6,3.2c-2.9,1.8-5.8,3.7-9.1,4.7c-1.1,0.3-2.1,0.5-3.2,0.5
			C368.9,309.6,364.1,309.7,359.3,309.7z"/>
		<path class="st3" d="M166.8,297.6c0.6,0.5,1.3,0.3,1.9,0.3c9.7,0,19.4,0,29.1,0c0.4,0,0.8,0,1.1,0c0.8,0,1.1,0.2,1.1,1
			c0,3.1,0,6.2,0,9.4c0,0.7-0.2,1.1-1,1.1c-0.4,0-0.8,0-1.1,0c-57.4,0-114.8,0-172.2,0c-0.2,0-0.4,0-0.7,0c-3-0.7-5.6-2.3-8.2-3.9
			c-1.1-0.6-2.1-1.4-3.1-2.1c-0.6-0.4-0.9-0.8-0.9-1.6c0-2.5,0-5,0-7.5c0-1.4,0.4-1.9,1.8-2.3c0.7-0.2,1.4-0.2,2.1-0.2
			c4.3,0,8.6,0,12.9-0.1c4.9,0.1,9.8,0.1,14.8,0c0.7-0.7,1.5-0.5,2.3-0.5c4.8,0,9.6,0,14.4,0c1.1-0.1,2.2,0,3.3,0
			c31.5,0,63,0,94.5,0c1,0,2.1-0.1,3.1,0.1c0.5,0.1,0.8,0.4,0.9,0.9C163.3,294.6,164.8,296.2,166.8,297.6z"/>
		<path class="st4" d="M345.8,326.8c-0.4-0.1-0.8,0.1-1.1-0.2c0.7-1.1,1.8-1.8,3.1-2.1C347.1,325.2,346.7,326.2,345.8,326.8z"/>
		<path class="st0" d="M54.2,86.3c0.4-0.4,0.9-0.3,1.4-0.3c1.5,0,3,0,4.6,0c0.7-0.5,1.6-0.4,2.4-0.4c4.8,0,9.5,0,14.3,0
			c1.4,0,2.5-0.4,3.5-1.5c7.9-8.3,16.6-15.6,26-22c8.1-5.5,16.6-10.2,25.5-14.2c8.8-4,17.9-7.1,27.3-9.5c7.7-2,15.5-3.3,23.4-4.1
			c7.1-0.7,14.2-1.1,21.3-0.9c10.8,0.3,21.6,1.5,32.2,3.9c9.7,2.2,19.1,5.1,28.3,8.9c15.2,6.4,29.1,14.8,41.9,25.3
			c4.8,3.9,9.3,8.1,13.6,12.6c1.1,1.1,2.2,1.6,3.8,1.6c4.7-0.1,9.4,0,14.1,0c0.8,0,1.7-0.1,2.4,0.4c1.2,0,2.5,0,3.7,0
			c0.4,0,0.9-0.1,1.2,0.3c-0.5,0.5-1.1,0.5-1.7,0.5c-0.7,0-1.3,0-2,0c-46.5,0-92.9,0-139.4,0c-0.6,0-1.2,0-1.8,0
			c-1.1,0.1-2.2,0-3.3,0c-46.4,0-92.8,0-139.3,0C56.3,86.9,55.1,87.2,54.2,86.3z"/>
		<path class="st3" d="M54.2,86.3c2.6,0,5.2,0,7.9,0c45.3,0,90.6,0,135.8,0c0.7,0,1.4,0,2.1,0.1c0.5,0.5,0.5,1.1,0.5,1.7
			c0,3.5,0,7.1,0,10.6c0,0.6-0.1,1.1-0.4,1.5c-1,0.7-2.2,0.4-3.4,0.4c-44.1,0-88.1,0-132.2,0c-0.7,0-1.4,0-2.1,0
			c-1,0-1.5,0.5-1.5,1.5c0,0.5,0,1.1,0,1.6c0,54.2,0,108.3,0,162.5c0,1-0.3,2.1,0.4,3c0.8,0.7,1.7,0.4,2.5,0.4
			c42.5,0,85.1,0,127.6,0c2.3,0,4.6,0,6.9,0c1.6,0,2.1,0.4,2.1,2c0.1,3.8,0.1,7.6,0,11.3c0,1.3-0.6,2-2,2c-0.5,0-1.1,0-1.6,0
			c-48.3,0-96.7,0-145,0c-3.7,0-3.7,0-3.7-3.7c0-58.8,0-117.6,0.1-176.4c0-4.5,0-9.1,0.4-13.6c0.2-2.4,1.9-3.6,3.8-4.6
			C52.9,86.7,53.5,86.5,54.2,86.3z"/>
		<path class="st2" d="M200,100.1c0-4.6,0-9.2,0-13.8c0.6,0,1.2-0.1,1.8-0.1c39.2,0,78.4,0,117.6,0c8.5,0,16.9,0,25.4,0
			c2.9,0.9,4,3,4,5.9c0,2.1,0,4.2,0,6.4c0,8.7,0,17.5,0,26.2c0,0.2,0,0.4,0,0.7c0.7,1.3,0.5,2.7,0.5,4c0,46.6,0,93.3,0,139.9
			c0,4.6-0.1,9.2-0.1,13.8c0,0.6,0.1,1.3-0.3,1.9c-1.2,0.9-2.6,0.4-4,0.5c-0.7,0.1-1.4,0.1-2.1,0c-1.2,0-2.3,0-3.4,0
			c-92.9,0-185.7,0-278.6,0c-1.2,0-2.4,0-3.6,0c-2.3,0.1-4.6,0-6.9,0c-2.1,0-2.5-0.4-2.5-2.5c0-5-0.1-10.1,0-15.1
			c0.1-1.4,0-2.8,0-4.3c0-42.5,0-84.9,0-127.4c0-1.4,0.1-2.8,0-4.3c-0.1-9.2,0-18.3,0-27.5c0-0.8,0.2-1.6,0.5-2.4
			c0-2.9,0-5.9,0.1-8.8c0-0.6-0.2-1.2,0.3-1.7c0,13.4,0,26.7,0,40.1c0,50.4,0,100.8,0,151.2c0,0.2,0,0.4,0,0.7
			c-0.1,0.8,0.2,1.3,1.1,1.2c0.3,0,0.7,0,1,0c49,0,98.1,0,147.1,0c2.4,0,2.2,0.2,2.2-2.2c0-3.6,0-7.1,0-10.7c0-1.5,0-1.5-1.6-1.5
			c-4.2,0-8.3,0-12.5,0c-41.1,0-82.1,0-123.2,0c-0.7,0-1.4,0.3-2-0.3c0.7-0.7,1.6-0.5,2.5-0.5c6.2,0,12.5,0,18.7,0
			c37.8,0,75.5-0.1,113.3,0c46.7,0.1,93.4,0,140.1,0c0.8,0,1.8,0.3,2.5-0.5c0.3-0.7,0.3-1.4,0.3-2.1c0-54.6,0-109.1,0-163.7
			c0-0.7,0.1-1.4-0.3-2.1c-0.7-0.8-1.6-0.5-2.5-0.5c-31.8,0-63.7,0-95.5,0c-12.4,0-24.8,0-37.3,0C201.6,100.6,200.7,100.8,200,100.1
			z"/>
		<path class="st5" d="M339.9,86c-5.9,0-11.7,0-17.6,0c-1,0-1.6-0.3-2.3-1c-1.6-1.7-3.3-3.4-5-5c-3.3-3.2-6.8-6.2-10.3-9.1
			c-4.4-3.6-8.9-6.9-13.6-10c-4.3-2.8-8.8-5.4-13.4-7.9c-8.5-4.6-17.4-8.2-26.5-11.2c-6.9-2.3-14-4.1-21.2-5.4
			c-3.6-0.7-7.2-1.2-10.8-1.6c-1.6-0.2-3.3-0.2-4.9-0.5c-2.6-0.4-5.1-0.1-7.7-0.5c-1.7-0.3-3.5-0.1-5.2-0.1c-2.2,0-4.5-0.2-6.7,0.1
			c-2.7,0.3-5.3,0.1-8,0.5c-1.6,0.2-3.2,0.3-4.9,0.5c-2.6,0.3-5.3,0.6-7.9,1c-4.8,0.8-9.7,1.7-14.4,2.9c-8,2.1-15.8,4.6-23.4,7.8
			c-3.9,1.6-7.7,3.3-11.5,5.3c-9.1,4.7-17.8,10.1-25.8,16.4c-3.4,2.7-6.8,5.5-10.1,8.4c-3,2.7-5.8,5.6-8.7,8.5c-0.7,0.7-1.4,1-2.5,1
			c-5.8,0-11.6,0-17.4,0c0.6-1.3,1.7-2.2,2.6-3.4c1.1-1.4,2.4-2.7,3.6-4c1.7-1.8,3.4-3.7,5.2-5.5c4.4-4.4,8.9-8.5,13.7-12.4
			c5.2-4.3,10.6-8.3,16.2-11.9c4-2.6,8.1-5,12.2-7.3c8.4-4.6,17.1-8.5,26.2-11.7c8.5-3,17.2-5.3,26-7.1c3.9-0.8,7.8-1.4,11.8-1.8
			c3.7-0.4,7.4-0.7,11.1-1c6.9-0.5,13.9-0.3,20.8-0.2c3.3,0.1,6.6,0.5,9.9,0.8c9.2,1,18.2,2.6,27.1,5c7.7,2,15.1,4.6,22.5,7.6
			c5.4,2.2,10.6,4.7,15.7,7.4c8.8,4.7,17.3,10.1,25.2,16.2c4.6,3.5,9,7.3,13.2,11.2c2.7,2.5,5.4,5.1,8,7.8
			C334.1,79.1,337.3,82.3,339.9,86z"/>
		<path class="st5" d="M342.9,285.1c1.9,0,3.9-0.1,5.8-0.1c0.5-0.4,0.2-0.9,0.2-1.3c0-2.9,0-5.8,0-8.7c0-1.2,0.3-2.2,0.8-3.3
			c2.9-6.2,5.6-12.4,7.7-18.9c3.6-10.5,6-21.3,7.4-32.4c0.9-7.8,1.5-15.6,1.3-23.4c-0.4-13.4-2.1-26.7-5.6-39.7
			c-0.9-3.3-1.9-6.6-3-9.9c-2-6.6-4.8-12.8-7.6-19c-0.4-0.9-1-1.8-0.7-2.9c0-8.4,0-16.7,0-25.1c0-0.6,0-1.2,0-2.1
			c1.5,1.7,2.5,3.4,3.5,5.1c4.2,6.6,8,13.6,11.3,20.7c2,4.3,3.8,8.8,5.5,13.3c2.4,6.3,4.3,12.8,6,19.4c1.2,4.6,2,9.2,2.8,13.9
			c0.6,3.7,1,7.4,1.5,11.2c0.2,1.7,0.3,3.5,0.4,5.2c0.5,6.9,0.4,13.9,0.3,20.8c0,2.6-0.3,5.2-0.5,7.8c-0.2,2.5-0.5,5-0.8,7.5
			c-0.5,3.7-1.1,7.3-1.7,11c-1,5.3-2.3,10.4-3.7,15.6c-1.4,4.9-3,9.7-4.8,14.4c-2.5,6.8-5.6,13.4-9,19.8c-1.4,2.6-2.7,5.2-4.4,7.7
			c-0.2,0.2-0.5,0.2-0.7,0.2c-5,0-9.9,0-14.8,0c-0.7,0-1.6,0-1.1-1C340.1,288.8,341,286.6,342.9,285.1z"/>
		<path class="st5" d="M48.2,268c0,5,0,10,0.1,14.9c0,2.4-0.3,2.1,2.1,2.1c2.2,0,4.5,0,6.7,0.1c1.7,1.9,3.3,4,4,6.5
			c-3.6,0-7.2,0.1-10.7,0.1c-2,0-4,0-6-0.1c-1.3-2.4-2.8-4.7-4-7.1c-3-5.8-5.9-11.7-8.3-17.8c-3.1-7.9-5.7-16-7.7-24.3
			c-1.3-5.4-2.4-10.8-3.2-16.3c-0.5-3.3-0.8-6.7-1.1-10c-0.9-8.3-0.7-16.6-0.5-24.9c0.1-3.5,0.4-6.9,0.8-10.4
			c0.5-4.2,1.1-8.4,1.8-12.6c0.6-3.3,1.3-6.5,2.1-9.7c1.4-6.1,3.1-12,5.2-17.9c1.6-4.6,3.4-9.2,5.4-13.7c1.8-4.1,3.8-8.1,5.9-12.1
			c2.3-4.3,4.7-8.6,7.6-12.6c0,0.3,0.1,0.7,0.1,1c0,9.3,0,18.6,0,27.9c0,0.3,0,0.7-0.1,1c-0.9,4-2.9,7.6-4.3,11.5
			c-4.3,11.8-7.2,24-8.7,36.5c-0.9,7.6-1.5,15.2-1.3,22.9c0.3,11.2,1.5,22.3,4,33.3c2.3,10.1,5.4,19.8,9.5,29.3
			C47.9,266.3,47.9,267.2,48.2,268z"/>
		<path class="st6" d="M61.1,291.6c-1.2-2.2-2.8-4.3-4-6.5c0.2,0,0.4,0,0.7,0c0.4,0,0.8,0,1.1,0c93.9,0,187.9,0,281.8,0
			c0.7,0,1.4,0,2.1,0.1c-1.1,2.2-2.6,4.1-3.9,6.5c5.7,0,11.2,0,16.7,0c0.2,0,0.3,0.1,0.5,0.1c-0.6,0.3-1.2,0.2-1.8,0.2
			c-4.6,0-9.2,0.1-13.8,0c-33.5-0.4-67-0.1-100.6-0.2c-0.4,0-0.8,0-1.1,0c-0.8,0.4-1.7,0.5-2.5,0.5c-23.8,0-47.6,0-71.5,0
			c-0.8,0-1.6,0-2.4-0.5c-15.6,0-31.3,0-46.9,0c-17.6,0-35.1,0-52.7,0C62.3,291.7,61.7,291.6,61.1,291.6z"/>
		<path class="st0" d="M349.1,125.4c0,0.9,0.5,1.5,0.8,2.3c2.7,5.7,5.2,11.5,7.3,17.5c0.2,0.6,0.5,1.2,0.5,1.9
			c0.4,1.7,0.5,3.4,0.5,5.2c0,31.8,0,63.6,0,95.4c0,1.8-0.1,3.5-0.5,5.2c-0.7,2.9-1.9,5.7-3,8.5c-1.5,3.9-3.2,7.8-5.1,11.5
			c-0.4,0.7-0.5,1.4-0.5,2.2c0,2.8,0,5.6,0,8.4c0,0.5,0.3,1.1-0.4,1.5c0-0.5,0.1-1,0.1-1.5c0-52.1,0-104.3,0.1-156.4
			c0-0.5,0-1.1,0-1.6C348.9,125.4,349,125.4,349.1,125.4z"/>
		<path class="st5" d="M324.8,309.7c3.2,0,6.3-0.1,9.5-0.1c2.9,0,5.9,0,8.9,0.1c-1.3,2.1-2.8,4-4.4,5.9c-4.3,5.1-8.8,10.1-13.8,14.7
			c-3.8,3.5-7.7,7-11.7,10.2c-4.4,3.5-9,6.9-13.7,10.1c-4.3,2.8-8.7,5.5-13.2,7.9c-8.4,4.6-17.1,8.5-26.2,11.7
			c-8.5,3-17.2,5.3-26,7.1c-3.9,0.8-7.8,1.4-11.8,1.8c-3.7,0.4-7.4,0.7-11.1,1c-6.9,0.5-13.9,0.3-20.8,0.2c-3.3-0.1-6.6-0.5-9.9-0.8
			c-9.3-0.9-18.4-2.7-27.4-5.1c-7.6-2-14.9-4.5-22.2-7.5c-5.4-2.2-10.6-4.7-15.7-7.4c-4.4-2.3-8.7-4.9-12.9-7.6
			c-4.5-2.8-8.8-5.9-13-9.2c-3-2.3-5.9-4.7-8.7-7.2c-4-3.5-7.9-7.1-11.5-11c-3-3.2-6-6.5-8.8-10c-1.1-1.4-2.3-2.8-3.4-4.2
			c-0.2-0.2-0.3-0.5-0.3-0.7c6.1-0.1,12.2-0.1,18.4,0c1.2,0.4,1.6,1.5,2.4,2.3c5,5,9.8,10.2,15.4,14.6c7.5,6.1,15.4,11.8,23.8,16.7
			c12.5,7.3,25.8,12.8,39.7,16.6c9.2,2.5,18.5,4.1,27.9,5.1c7,0.7,14,1,21,0.7c20.8-0.8,40.8-5.1,59.9-13.3
			c14.6-6.3,28-14.4,40.2-24.5c0.5-0.4,1-0.8,1.5-1.2c5.9-4.9,11.3-10.4,16.5-16C323.9,310.2,324.3,310,324.8,309.7z"/>
		<path class="st6" d="M324.8,309.7c-3.2,4-7,7.5-10.7,11.1c-2.1,2.1-4.3,4.1-6.8,5.9c-1.1,0.6-2.2,0.5-3.4,0.5
			c-26.1,0-52.3,0-78.4,0c-43.2,0-86.3,0-129.5,0c-1.2,0-2.4,0.1-3.5-0.5c-2.3-1.7-4.4-3.6-6.4-5.6c-2.6-2.6-5.2-5.2-7.8-7.8
			c-1.2-1.2-2.2-2.4-3.2-3.7c0.2,0,0.4,0,0.7,0c0.4,0,0.8,0,1.1,0c82,0,163.9,0,245.9,0C323.5,309.7,324.2,309.7,324.8,309.7z"/>
		<path class="st0" d="M162.5,291.7c0.5,0,1.1,0,1.6,0c24.4,0,48.8,0,73.3,0c0.5,0,1,0,1.5,0c-0.6,0.6-0.5,1.4-0.7,2.1
			c-0.6,2.2-2.6,3.9-5.2,3.8c-10.7-0.1-21.3,0-32,0c-11.4,0-22.7,0-34.1,0c-2.2-0.6-3.5-2.1-4-4.3
			C162.7,292.7,162.6,292.2,162.5,291.7z"/>
		<path class="st5" d="M200,100.1c0.7,0,1.4,0.1,2.1,0.1c44.9,0,89.7,0,134.6,0c0.6,0,1.3-0.3,1.8,0.3c-0.8,0.7-1.8,0.5-2.7,0.5
			c-10.7,0-21.3,0-32,0c-33.4,0-66.7,0-100.1,0c-3.2,0-3.2,0-3.3,3.2c0,16.5,0,33,0,49.6c0.1,0.6,0.1,39.6,0,40.2
			c0,23.8,0,47.6,0,71.4c0,0.7,0,1.3,0,2c-0.1,1.2,0.5,1.8,1.8,1.8c0.7,0,1.4,0,2.1,0c43.6,0,87.2,0,130.8,0c1.1,0,2.3-0.3,3.3,0.5
			c-0.1,0.2-0.3,0.3-0.5,0.3c-0.4,0-0.9,0-1.3,0c-45.1,0-90.2,0-135.3,0c-46.2,0-92.4,0-138.6,0c-0.7,0-1.4,0-2.1,0
			c-0.5-0.5-0.3-1-0.3-1.6c0-55.5,0-111.1,0-166.6c0-0.3,0-0.6,0-0.8c0-0.6,0.3-0.8,0.8-0.8c0.5,0,1,0,1.5,0c45,0,90.1,0,135.1,0
			C198.6,100.2,199.3,100.1,200,100.1z"/>
		<path class="st0" d="M48.2,268c-1.3-2.3-2.2-4.7-3.2-7.2c-1.4-3.5-2.7-7-3.8-10.6c-2.2-7-4-14.1-5.2-21.4c-0.7-4-1.2-8-1.7-12
			c-0.3-3.3-0.4-6.5-0.7-9.8c-0.3-3.6-0.3-7.1-0.2-10.6c0.1-3,0.2-6.1,0.5-9.1c0.2-2.7,0.5-5.3,0.8-8c0.3-2.4,0.6-4.9,1-7.3
			c0.8-4.5,1.7-9,2.9-13.4c2-7.7,4.4-15.2,7.6-22.5c0.6-1.4,1.1-2.9,1.9-4.2c0,0.5,0.1,1.1,0.1,1.6c0,44.2,0,88.5,0,132.7
			C48.3,266.9,48.2,267.4,48.2,268z"/>
		<path class="st0" d="M357.7,252.9c0-0.4,0-0.8,0-1.1c0-34.5,0-69,0-103.5c0-0.4,0-0.8,0-1.1c1.3,2.9,2,6,2.9,9
			c1.3,4.6,2.3,9.2,3.2,13.8c0.6,3.4,1.1,6.8,1.5,10.2c0.5,4.3,0.8,8.7,1,13c0.2,3.7,0.4,7.4,0.1,11.1c-0.2,2.8-0.2,5.7-0.5,8.5
			c-0.3,2.6-0.5,5.3-0.8,8c-0.3,2.4-0.6,4.9-1,7.3c-0.8,4.5-1.7,9-2.9,13.4c-1,3.7-2,7.4-3.3,11
			C357.9,252.5,357.8,252.7,357.7,252.9z"/>
		<path class="st0" d="M92.6,326.8c71.6,0,143.2,0,214.8,0c-2.1,2-4.5,3.8-6.8,5.6c-5.6,4.3-11.5,8.2-17.6,11.7
			c-5.1,2.9-10.3,5.6-15.6,7.9c-5.3,2.3-10.7,4.5-16.2,6.2c-6.9,2.2-13.9,4-21.1,5.3c-4.3,0.8-8.6,1.4-12.9,1.8
			c-3,0.3-6.1,0.4-9.1,0.7c-4.1,0.3-8.2,0.2-12.3,0.2c-3,0-6.1-0.3-9.1-0.5c-2.6-0.2-5.2-0.5-7.8-0.8c-4.2-0.5-8.3-1.2-12.4-2
			c-7.2-1.5-14.3-3.4-21.3-5.9c-5.6-2-11-4.2-16.3-6.8c-7.6-3.5-14.8-7.8-21.8-12.4c-5-3.3-9.6-7-14.2-10.7
			C92.7,327,92.6,326.9,92.6,326.8z"/>
	</g>
	<rect x="200" y="100.1" class="st7" width="138.6" height="169.8"/>
	<g>
		<rect x="68.8" y="106.4" class="st8" width="260.4" height="25.8"/>
		<g>
			<rect x="74.3" y="111.8" class="st9" width="14.8" height="3.4"/>
			<rect x="74.3" y="117.5" class="st9" width="14.8" height="3.4"/>
			<rect x="74.3" y="123.1" class="st9" width="14.8" height="3.4"/>
		</g>
		<path class="st9" d="M304.9,117.4v3l2.9,0.3c0.2,0.6,0.4,1.1,0.7,1.7l-1.8,2.2l2.1,2.1l2.2-1.8c0.5,0.3,1.1,0.5,1.7,0.7l0.3,2.9h3
			l0.3-2.9c0.6-0.2,1.1-0.4,1.7-0.7l2.2,1.8l2.1-2.1l-1.8-2.2c0.3-0.5,0.5-1.1,0.7-1.7l2.9-0.3v-3l-2.9-0.3
			c-0.2-0.6-0.4-1.2-0.7-1.7l1.8-2.2l-2.1-2.1L318,113c-0.5-0.3-1.1-0.6-1.7-0.7l-0.3-2.9h-3l-0.3,2.9c-0.6,0.2-1.2,0.4-1.7,0.7
			l-2.2-1.8l-2.1,2.1l1.8,2.2c-0.3,0.5-0.5,1.1-0.7,1.7L304.9,117.4z M311.7,118.9c0-0.8,0.3-1.4,0.8-2c0.5-0.5,1.2-0.8,2-0.8
			s1.4,0.3,2,0.8c0.5,0.5,0.8,1.2,0.8,2c0,0.8-0.3,1.4-0.8,2c-0.5,0.5-1.2,0.8-2,0.8c-0.8,0-1.4-0.3-2-0.8
			C312,120.4,311.7,119.7,311.7,118.9z"/>
		<text transform="matrix(1 0 0 1 98.8923 125.6753)" class="st9 st10 st11">App</text>
		<rect x="70.2" y="140.1" class="st12" width="256.4" height="37.9"/>
		<circle class="st13" cx="280.6" cy="178" r="20"/>
		<rect x="67.8" y="214.3" class="st8" width="106.1" height="19.6"/>
		<rect x="67.8" y="242.1" class="st8" width="106.1" height="19.6"/>
		<rect x="187.7" y="214.3" class="st8" width="61.7" height="47.8"/>
		<rect x="264.8" y="214.3" class="st8" width="61.7" height="47.8"/>
		<rect x="67.8" y="187.5" class="st8" width="34.5" height="19.6"/>
	</g>
</g>
</svg>
