<?xml version="1.0" encoding="utf-8"?>
<!-- Generator: Adobe Illustrator 16.0.0, SVG Export Plug-In . SVG Version: 6.00 Build 0)  -->
<!DOCTYPE svg PUBLIC "-//W3C//DTD SVG 1.1//EN" "http://www.w3.org/Graphics/SVG/1.1/DTD/svg11.dtd">
<svg version="1.1" id="Capa_1" xmlns="http://www.w3.org/2000/svg" xmlns:xlink="http://www.w3.org/1999/xlink" x="0px" y="0px"
	 width="232px" height="64px" viewBox="0 0 232 64" enable-background="new 0 0 232 64" xml:space="preserve">
<g>
	<g>
		<path fill="#00C86B" d="M91.816,31.646h-0.107c-2.554,0-4.563,0.76-6.265,2.384c0.001-0.295,0.001-0.518-0.002-0.74
			c-0.024-1.308-0.269-1.353-1.741-1.4l-0.278-0.007c-0.392,0-0.672,0.091-0.859,0.278c-0.266,0.267-0.286,0.666-0.285,1.12
			c0.01,4.352,0.01,8.699,0.01,13.053c0,3.063,0,6.125,0.003,9.188c0,0.245-0.004,0.452-0.007,0.63
			c-0.013,0.562-0.02,0.868,0.186,1.081c0.21,0.219,0.525,0.223,1.151,0.232c0.171,0.004,0.368,0.007,0.596,0.015l0.103,0.001
			c0.405,0,0.681-0.089,0.872-0.284c0.26-0.264,0.29-0.661,0.284-1.016c-0.029-1.798-0.024-3.626-0.018-5.396l0.004-1.707
			c0-0.117,0.006-0.234,0.015-0.373c1.493,1.323,3.197,2.027,5.189,2.153c0.295,0.021,0.587,0.028,0.875,0.029l0,0
			c2.899,0,5.153-0.979,6.89-2.984c2.119-2.442,2.299-5.351,2.219-7.604C100.477,35.409,96.68,31.689,91.816,31.646z M96.791,44.28
			c-0.922,2.231-3,3.619-5.421,3.619l-0.111-0.002c-2.432-0.04-4.718-1.629-5.434-3.773c-0.225-0.674-0.3-1.394-0.38-2.15
			c-0.037-0.35-0.073-0.696-0.123-1.021c-0.217-2.434,0.797-4.231,3.1-5.509c0.986-0.545,1.983-0.817,2.963-0.817
			c1.146,0,2.276,0.375,3.362,1.117C97.227,37.427,98.104,41.1,96.791,44.28z"/>
		<path fill="#00C86B" d="M231.961,39.176c-0.103-4.703-2.983-7.514-7.729-7.521c-2.188,0-3.961,0.664-5.525,2.079
			c-0.004-0.247-0.005-0.436,0.011-0.614c0.038-0.418-0.032-0.726-0.229-0.938c-0.205-0.228-0.524-0.321-0.969-0.281
			c-0.188,0.018-0.39,0.031-0.574,0.001c-0.512-0.081-0.846-0.001-1.073,0.229c-0.281,0.281-0.313,0.738-0.313,1.147
			c0.031,5.441,0.03,10.846-0.004,16.057c-0.003,0.504,0.094,0.842,0.31,1.057c0.229,0.232,0.562,0.313,1.069,0.236
			c0.094-0.012,0.192-0.016,0.287-0.002c0.146,0.021,0.28,0.033,0.401,0.033c0.351,0,0.61-0.095,0.803-0.287
			c0.231-0.234,0.336-0.609,0.326-1.18c-0.024-1.393-0.021-2.813-0.013-4.186c0.009-1.715,0.018-3.486-0.041-5.231
			c-0.049-1.534,0.525-2.726,1.81-3.741c1.029-0.813,2.36-1.283,3.649-1.283c2.148,0,3.762,1.257,4.31,3.359
			c0.163,0.626,0.25,1.309,0.259,2.028c0.021,1.825,0.021,3.653,0.02,5.479c-0.002,0.973-0.005,1.943,0,2.918
			c0,0.239-0.005,0.449-0.01,0.635c-0.014,0.629-0.021,0.976,0.211,1.211c0.246,0.252,0.636,0.252,1.4,0.252h0.608
			c0.002,0,0.002,0,0.002,0c0.351,0,0.604-0.083,0.774-0.256c0.232-0.236,0.265-0.584,0.262-0.859
			c-0.008-1.303-0.002-2.605,0.004-3.908C232.001,43.499,232.009,41.319,231.961,39.176z"/>
		<path fill="#00C86B" d="M189.067,29.461c0.545,0.062,0.896,0.099,1.187,0.099l0,0c1.124,0,1.127-0.662,1.136-2.112v-0.283
			c-0.002-0.342,0-0.632,0.004-0.879c0.006-0.817,0.01-1.191-0.235-1.439c-0.214-0.214-0.535-0.23-0.972-0.23l-0.6,0.003
			c-0.121,0-0.251-0.001-0.436-0.004c-0.323,0-0.563,0.083-0.729,0.252s-0.247,0.409-0.245,0.731c0.004,0.318,0,0.637-0.002,0.955
			c-0.009,0.658-0.015,1.339,0.032,2.01C188.233,28.932,188.701,29.417,189.067,29.461z"/>
		<path fill="#00C86B" d="M79.072,32.118c-0.213-0.214-0.508-0.298-0.96-0.25c-0.223,0.024-0.454,0.028-0.678,0.001
			c-0.476-0.055-0.792,0.027-1.013,0.25c-0.274,0.278-0.3,0.717-0.296,1.024c0.016,1.291,0.009,2.582,0.002,3.873
			c-0.011,1.849-0.021,3.761,0.039,5.642c0.067,2.125-0.922,3.58-3.109,4.579c-0.802,0.366-1.607,0.552-2.393,0.552
			c-1.932,0-3.477-1.117-4.133-2.988c-0.241-0.688-0.375-1.436-0.387-2.172c-0.038-2.203-0.035-4.447-0.033-6.619l0.001-2.15
			c-0.001-1.504-0.002-2.011-1.411-2.011c-0.187,0-0.403,0.006-0.656,0.013l-0.066,0.001c-0.743,0.021-1.086,0.372-1.081,1.104
			c0.009,1.263,0.008,2.528,0.006,3.792c-0.001,2.39-0.003,4.861,0.064,7.291c0.09,3.232,2.2,5.865,5.25,6.549
			c0.875,0.197,1.714,0.298,2.494,0.298c2.093,0,3.89-0.688,5.472-2.103v0.334c0.008,1.354,0.134,1.479,1.5,1.479L77.97,50.6
			c0.048,0,0.097,0.003,0.143,0.008c0.084,0.011,0.162,0.015,0.234,0.015c0.308,0,0.55-0.086,0.721-0.258
			c0.209-0.209,0.3-0.521,0.298-1.007c-0.02-5.751-0.02-11.063,0-16.242C79.372,32.815,79.342,32.389,79.072,32.118z"/>
		<path fill="#00C86B" d="M112.76,31.646h-0.109c-2.553,0-4.563,0.76-6.262,2.384c0-0.294,0-0.518-0.002-0.742
			c-0.027-1.292-0.222-1.349-1.742-1.398l-0.277-0.007c-0.391,0-0.671,0.091-0.858,0.278c-0.266,0.267-0.286,0.666-0.284,1.12
			c0.008,4.189,0.008,8.381,0.008,12.567c0,3.226,0,6.442,0.004,9.67c0.002,0.243-0.004,0.452-0.008,0.629
			c-0.013,0.562-0.021,0.868,0.188,1.082c0.209,0.222,0.523,0.226,1.15,0.231c0.17,0.002,0.367,0.008,0.597,0.016l0.103,0.001
			c0.405,0,0.682-0.089,0.873-0.284c0.258-0.264,0.287-0.658,0.282-1.016c-0.03-1.801-0.024-3.626-0.019-5.396l0.006-1.707
			c0-0.119,0.006-0.236,0.015-0.373c1.492,1.324,3.196,2.028,5.188,2.154c0.297,0.02,0.59,0.028,0.875,0.029l0,0
			c2.9,0,5.153-0.977,6.891-2.984c2.12-2.445,2.3-5.351,2.22-7.605C121.42,35.409,117.62,31.689,112.76,31.646z M117.733,44.28
			c-0.922,2.231-3.001,3.619-5.423,3.619l-0.109-0.002c-2.434-0.04-4.717-1.629-5.434-3.773c-0.225-0.674-0.301-1.394-0.381-2.15
			c-0.037-0.35-0.072-0.696-0.123-1.023c-0.217-2.431,0.799-4.229,3.102-5.507c0.986-0.545,1.98-0.817,2.963-0.817
			c1.145,0,2.275,0.375,3.361,1.117C118.168,37.427,119.046,41.099,117.733,44.28z"/>
		<path fill="#00C86B" d="M131.286,29.239c0.251,0.254,0.643,0.254,1.354,0.254h0.072c0.166,0,0.35,0,0.557,0.002h0.027
			c0.33,0,0.573-0.082,0.739-0.251c0.166-0.167,0.245-0.407,0.241-0.731l-0.006-0.446c-0.008-0.696-0.021-1.415,0.021-2.115
			c0.024-0.472-0.062-0.797-0.272-1.022c-0.213-0.226-0.535-0.332-1.014-0.332l-0.177,0.003c-1.683,0.032-1.798,0.157-1.78,1.897
			c0.002,0.158,0,0.313,0,0.348v0.134h0.002c0.004,0.325,0,0.602-0.004,0.839C131.038,28.596,131.034,28.983,131.286,29.239z
			 M132.712,29.218L132.712,29.218L132.712,29.218L132.712,29.218z M133.296,29.218L133.296,29.218v0.002V29.218z"/>
		<path fill="#00C86B" d="M203.615,31.655c-5.759,0.014-9.62,3.903-9.607,9.678c0.015,5.721,3.896,9.564,9.661,9.564h0.076
			c5.6-0.031,9.503-3.99,9.495-9.633C213.228,35.607,209.285,31.655,203.615,31.655z M203.621,34.394v0.275
			c3.515,0,6.377,2.998,6.378,6.683c0.003,3.604-2.879,6.535-6.43,6.538c-1.604,0-3.145-0.662-4.346-1.866
			c-1.27-1.271-1.992-3.007-1.992-4.771c0.004-3.625,2.865-6.578,6.381-6.584L203.621,34.394L203.621,34.394z"/>
		<path fill="#00C86B" d="M168.006,32.003c-1.85-0.603-3.884-0.64-6.067-0.109c-2.041,0.495-3.603,1.558-4.638,3.155
			c-0.183,0.283-0.741,1.146,0.214,1.814c0.637,0.444,1.049,0.629,1.422,0.629c0.476,0,0.771-0.315,0.951-0.553
			c1.387-1.804,3.305-2.529,5.899-2.244c1.095,0.119,2.058,0.651,2.709,1.502c0.617,0.801,0.894,1.799,0.793,2.826
			c-0.457,0.034-0.914,0.065-1.372,0.098c-1.216,0.084-2.475,0.17-3.71,0.297c-2.272,0.229-3.935,0.714-5.381,1.562
			c-1.798,1.058-2.611,2.724-2.415,4.949c0.175,1.981,1.206,3.387,3.066,4.171c1.058,0.443,2.198,0.66,3.492,0.66
			c0.741,0,1.549-0.07,2.465-0.221c1.479-0.238,2.789-0.898,3.979-2.01c0.016,0.096,0.027,0.182,0.036,0.271
			c0.108,1.337,0.143,1.737,1.438,1.737c0.137,0,0.285-0.002,0.459-0.006c0.02,0,0.039,0.004,0.063,0.008
			c0.045,0.008,0.089,0.012,0.129,0.012c0.109,0,0.202-0.034,0.27-0.104c0.063-0.059,0.133-0.121,0.207-0.183
			c0.266-0.224,0.539-0.455,0.539-0.769c0.024-3.414,0.043-7.443-0.027-11.451C172.478,35.173,170.786,32.912,168.006,32.003z
			 M167.595,42.005c0.318,0,0.637,0.008,0.965,0.015c0.258,0.006,0.521,0.011,0.785,0.013c0.156,2.031-0.601,3.604-2.253,4.68
			c-2.014,1.313-4.008,1.544-5.94,0.69c-0.902-0.401-1.381-1.057-1.418-1.952c-0.036-0.933,0.416-1.643,1.395-2.168
			c1.706-0.923,3.707-1.096,5.313-1.231C166.778,42.02,167.147,42.005,167.595,42.005z"/>
		<path fill="#00C86B" d="M191.39,43.56c0.004-0.781,0.004-1.564,0.004-2.348v-7.477c0-1.671-0.108-1.792-1.666-1.848l-0.271-0.008
			c-0.289,0-0.703,0.033-0.978,0.309c-0.289,0.291-0.321,0.749-0.319,1.116c0.028,3.834,0.024,7.729,0.021,11.502l-0.004,3.905
			c0,1.795,0.127,1.923,1.903,1.936l0.126,0.003c0.297,0,0.672-0.03,0.922-0.284c0.198-0.199,0.285-0.492,0.279-0.945
			C191.381,47.469,191.388,45.48,191.39,43.56z M190.206,50.376L190.206,50.376L190.206,50.376L190.206,50.376z"/>
		<path fill="#00C86B" d="M183.474,47.111c-0.48,0.404-1.104,0.636-1.709,0.636c-1.084,0-1.812-0.717-1.996-1.967l-0.019-0.125
			c-0.041-0.26-0.079-0.504-0.08-0.746c-0.011-3.168-0.017-6.341-0.017-9.511c0-0.165,0.021-0.33,0.045-0.51
			c0.003-0.019,0.005-0.034,0.007-0.052c0.405-0.002,0.808-0.006,1.207-0.01c0.465-0.006,0.925-0.014,1.382-0.014
			c0.717,0,1.301,0.016,1.842,0.041c0.569,0.033,0.928-0.068,1.168-0.32c0.293-0.313,0.311-0.775,0.286-1.19l-0.006-0.104
			c-0.069-1.246-0.161-1.425-1.435-1.425l-1.588,0.001l-2.855-0.001c-0.016-0.035-0.029-0.062-0.035-0.078
			c-0.012-0.736-0.023-1.472-0.02-2.209l0.004-0.346c0.015-1.349-0.063-1.522-1.37-1.547c-0.157-0.003-0.341-0.005-0.552-0.014
			l-0.114-0.002c-0.415,0-0.7,0.093-0.894,0.294c-0.256,0.271-0.271,0.681-0.254,1.006c0.032,0.706,0.024,1.411,0.02,2.157
			c-0.002,0.243-0.006,0.489-0.006,0.738c-0.149,0.001-0.293,0.002-0.43,0.004c-0.477,0.005-0.91,0.011-1.339-0.012
			c-0.485-0.025-0.825,0.074-1.04,0.315c-0.195,0.218-0.27,0.527-0.222,0.944c0.021,0.218,0.021,0.446,0.002,0.681
			c-0.03,0.359,0.034,0.627,0.206,0.816c0.174,0.189,0.436,0.281,0.797,0.281l0.104-0.002c0.478-0.02,0.953-0.014,1.467-0.012
			c0.146,0.002,0.298,0.004,0.453,0.004l-0.002,4.014c-0.002,2.229-0.004,4.457,0.007,6.688c0.016,3.135,1.573,4.862,4.635,5.138
			c0.333,0.03,0.63,0.046,0.912,0.046c1.528,0,2.635-0.444,3.479-1.396l0.039-0.045c0.396-0.441,0.989-1.111,0.33-1.912
			C185.267,46.612,184.205,46.501,183.474,47.111z"/>
		<path fill="#00C86B" d="M134.289,43.465l0.007-9.847c0-0.771,0-1.158-0.22-1.419c-0.25-0.298-0.69-0.298-1.304-0.298l-0.297,0.003
			c-0.523-0.073-0.888,0.018-1.127,0.265c-0.229,0.232-0.326,0.58-0.315,1.099c0.032,1.562,0.026,3.151,0.019,4.688
			c-0.002,0.646-0.005,1.295-0.005,1.941l0.003,2.563c0.002,2.277,0.006,4.56-0.014,6.84c-0.002,0.313,0.025,0.762,0.307,1.046
			c0.221,0.22,0.536,0.31,1,0.255c0.188-0.021,0.385-0.021,0.577,0.004c0.106,0.016,0.205,0.021,0.296,0.021
			c0.342,0,0.596-0.092,0.781-0.277c0.218-0.223,0.316-0.557,0.309-1.055C134.278,47.354,134.284,45.374,134.289,43.465z"/>
		<path fill="#00C86B" d="M125.965,24.616h-0.094c-1.315,0.004-1.481,0.167-1.479,1.458l0.002,14.574
			c0.004,2.813,0.008,5.723-0.017,8.582c-0.004,0.389,0.03,0.822,0.313,1.105c0.205,0.207,0.506,0.306,0.939,0.306l0.305-0.009
			c1.513-0.055,1.705-0.111,1.705-1.405c0.002-3.019,0.002-6.036,0.002-9.056V26.251c0.002-0.756,0.002-1.136-0.256-1.388
			C127.127,24.616,126.739,24.616,125.965,24.616z"/>
		<path fill="#00C86B" d="M154.158,44.743c-0.58-0.359-1.019-0.586-1.423-0.586c-0.498,0-0.829,0.334-1.176,0.836
			c-1.215,1.771-2.855,2.707-4.879,2.781c-2.188,0.08-4.179-0.861-5.441-2.566c-1.264-1.693-1.623-3.885-0.987-6.002
			c0.772-2.58,2.47-4.102,5.037-4.521c2.688-0.438,4.817,0.498,6.294,2.772c0.262,0.401,0.572,0.773,1.066,0.773
			c0.395,0,0.834-0.229,1.464-0.615c0.375-0.233,0.589-0.498,0.653-0.809c0.088-0.438-0.147-0.854-0.394-1.205
			c-1.842-2.657-4.476-4.017-8.048-4.158l-0.029-0.002l-0.025,0.005c-0.322,0.055-0.647,0.1-0.977,0.143
			c-0.706,0.096-1.438,0.194-2.129,0.405c-4.889,1.482-7.382,6.166-6.209,11.65c0.909,4.264,4.238,6.932,8.906,7.141
			c0.199,0.01,0.4,0.015,0.601,0.015c0.001,0,0,0,0.001,0c3.354,0,6-1.328,7.873-3.947c0.286-0.399,0.559-0.829,0.464-1.3
			C154.74,45.245,154.522,44.973,154.158,44.743z"/>
	</g>
	<path fill="#00C86B" d="M9.743,44.14c1.388-0.805,2.768-1.625,4.153-2.438c1.113-0.65,2.222-1.305,3.343-1.941
		c0.186-0.104,0.227-0.217,0.227-0.408c0.019-12.256,0.042-24.512,0.063-36.767c0-0.115,0-0.229,0-0.386
		c-0.126,0.066-0.206,0.103-0.279,0.147C11.966,5.424,6.683,8.504,1.395,11.578c-0.214,0.124-0.274,0.263-0.274,0.498
		C1.113,17.92,1.092,23.765,1.086,29.609C1.08,35.964,1.085,42.317,1.085,48.673c0,0.133,0,0.266,0,0.467
		c0.162-0.092,0.283-0.16,0.403-0.23c1.482-0.861,2.962-1.729,4.445-2.582C7.2,45.589,8.476,44.876,9.743,44.14z"/>
	<path fill="#00C86B" d="M33.701,48.513c0-2.457,0-4.854,0-7.313c-2.119,1.234-4.186,2.436-6.29,3.658
		C29.521,46.083,31.592,47.288,33.701,48.513z"/>
	<path fill="#00C86B" d="M33.447,50.511c-2.791-1.611-5.577-3.229-8.362-4.85c-2.289-1.33-4.579-2.662-6.86-4.004
		c-0.249-0.146-0.428-0.16-0.686-0.008c-2.962,1.73-5.932,3.453-8.9,5.18c-2.09,1.215-4.178,2.432-6.307,3.67
		c0.076,0.053,0.119,0.084,0.166,0.111c1.428,0.832,2.851,1.676,4.284,2.496c3.129,1.795,6.265,3.576,9.393,5.369
		c3.15,1.807,6.297,3.615,9.442,5.436c0.194,0.113,0.336,0.121,0.535,0.006c2.425-1.406,4.855-2.805,7.289-4.199
		c0.192-0.109,0.279-0.223,0.278-0.459c-0.01-2.762-0.009-5.523-0.001-8.287C33.719,50.743,33.644,50.622,33.447,50.511z"/>
	<g>
		<g id="XMLID_2_">
			<path id="XMLID_63_" fill="#FF202B" d="M27.083,15.814C28.128,13.555,37.14,3.493,37.577,3.242
				c0.438-0.25,2.846-1.65,4.707-1.506c1.859,0.143,20.41,2.678,20.41,2.678s-4.078,22.537-4.547,22.932
				C57.681,27.741,27.083,15.814,27.083,15.814z"/>
			<path id="XMLID_61_" fill="#9B141A" d="M54.624,8.843c-1.645-3.845-6.377-6.009-10.354-6.35c-1.04-0.088-2.82-0.191-3.148,1.107
				c-0.199,0.791,0.523,1.773,0.785,2.457c0.478,1.241,0.777,2.549,0.883,3.875c0.029,0.39,0.01,0.852-0.314,1.067
				c-0.348,0.229-0.805,0.03-1.182-0.146c-1.648-0.768-3.533-1.021-5.327-0.717c-1.46,0.248-3.142,0.798-4.321-0.007
				c-1.846,2.18-3.557,4.317-4.217,5.435c0.072,0.176,0.15,0.349,0.24,0.518c1.749,0.682,8.627,3.354,15.428,5.938
				c1.536,0.003,3.056-0.177,4.521-0.652c1.604-0.523,3.095-1.396,4.336-2.539C54.655,16.339,56.069,12.221,54.624,8.843z"/>
			<path id="XMLID_60_" fill="#FCFCFA" stroke="#DFE3EB" stroke-width="0.25" stroke-miterlimit="10" d="M22.436,12.39
				c0.464,1.463,0.587,1.456,0.568-0.102c0.351,1.547,0.558,1.544,0.981-0.003c0.021,0.515,0.066,0.858,0.15,1.042
				c0.082,0.183,0.202,0.206,0.373,0.078c0.17-0.126,0.392-0.402,0.676-0.816c-0.076,0.416-0.09,0.695-0.215,0.715
				c0.229,0.302,0.344,0.346,0.154-0.017c0.551,0.257,0.797,0.108,0.725-0.625c0.287,0.853,0.338,1.026-0.229,0.318
				c0.285,0.286,0.504,0.474,0.643,0.546c0.154,0.082,0.23,0.049,0.192-0.135c0.044-0.128-0.025-0.408-0.171-0.822
				c0.285,0.418,0.494,0.701,0.443,0.691c0.325,0.279,0.389,0.266,0.139-0.115c0.24,0.031,0.166-0.305,0.025-0.814
				c0.273,0.525,0.482,0.875,0.229,0.646c0.567,0.562,0.674,0.545,0.266-0.204c0.551,0.331,0.588-0.07,0.57-0.735
				c0.176,0.52,0.309,0.863-0.025,0.363c0.604,0.971,0.743,1.098,0.244-0.051c0.815,1.195,0.99,1.114,0.811-0.347
				c0.598,1.101,0.84,0.823,1.116-0.285c-0.097,1.243-0.124,1.582-0.157,0.162c0.152,1.825,0.297,1.89,0.772,0.059
				c-0.013,1.745,0.308,1.595,1.244,0.271c-0.714,1.456-0.7,1.64,0.345,0.278c-0.503,1.016-0.549,1.346-0.15,1.164
				c0.199-0.091,0.509-0.309,0.92-0.641c-0.266,0.339-0.431,0.564-0.514,0.676c-0.033,0.147,0.014,0.182,0.07,0.067
				c0.244,0.015,0.498-0.121,0.622-0.564c-0.11,0.575-0.226,0.747-0.466,0.571c0.379,0.27,0.634,0.19,0.529-0.483
				c0.434,0.69,0.507,0.787-0.078,0.157c0.877,0.738,1.095,0.75,0.421-0.311c1.38,1.1,1.864,1.129,2.06-0.811
				c0.754,1.998,1.221,2.029,2.596,0.483c-0.156,0.537-0.213,0.899-0.396,0.917c0.272,0.422,0.418,0.5,0.162,0.008
				c0.743,0.434,1.086,0.296,1.062-0.751c0.226,1.187,0.206,1.372-0.485,0.415c0.941,1.127,1.209,1.111,0.875-0.447
				c0.716,1.595,0.828,1.646,0.385-0.094c0.729,1.813,0.901,1.831,0.9-0.146c0.25,1.018,0.451,1.536,0.721,1.578
				c0.137,0.021,0.29-0.076,0.475-0.291c0.187-0.214,0.404-0.545,0.67-0.988c-0.129,0.464-0.211,0.814-0.311,0.992
				c0.045,0.313,0.07,0.454-0.061,0.318c0.301,0.222,0.444,0.168,0.363-0.271c0.499,0.154,0.773-0.076,0.945-0.719
				c-0.148,0.773-0.345,1.074-0.86,0.787c0.378,0.631,0.437,0.673,0.071,0.023c0.738,0.506,1.055,0.318,1.162-0.746
				c-0.021,1.094-0.244,1.311-0.987,0.694c0.567,0.876,0.612,0.92,0.042,0.036c0.92,0.819,1.225,0.712,1.219-0.654
				c0.129,1.418-0.054,1.578-0.965,0.588c0.777,1.205,0.827,1.261,0.047,0.059c1.088,1.23,1.348,1.205,1.223-0.496
				c0.182,1.84,0.098,1.968-0.809,0.49c1.047,1.657,1.27,1.709,1.236-0.205c0.311,2.055,0.364,2.143,0.265,0.258
				c0.307,2.052,0.459,2.131,1.505,0.539c-0.623,1.814-0.346,1.961,1.903,1.824c-1.673,0.445-1.375,0.606,0.458,1.005
				c-1.223-0.064-0.908,0.108,0.21,0.507c-0.479-0.043-0.155,0.139,0.301,0.367c0.202,0.143,0.535,0.332,0.87,0.521
				c2.675,1.529,5.462,3.2,7.313,4.405c0.294,0.191,0.563,0.37,0.817,0.501c0.229,0.199,0.443,0.351,0.662,0.426
				c0.147,0.193,0.299,0.313,0.465,0.348c0.064,0.163,0.143,0.244,0.244,0.236c-0.011,0.143,0.025,0.271,0.16,0.34
				c-0.094,0.279-0.088,0.499,0.171,0.576c-0.271,0.438-0.29,0.735,0.183,0.865c-0.516,0.361-0.534,0.532,0.084,0.553
				c-0.58,0.291-0.522,0.431,0.153,0.485c-0.726,0.327-0.836,0.57-0.154,0.876c-0.603,0.092-0.416,0.247,0.288,0.435
				c-0.616,0.13-0.834,0.319-0.512,0.736c-0.549-0.053-0.555,0.122-0.156,0.521c-0.183-0.031,0.041,0.16,0.414,0.391
				c-0.416-0.006-0.68,0.027-0.686,0.231c-0.283-0.083-0.306,0.008-0.119,0.238c0.002,0.019,0.214,0.181,0.539,0.383
				c-0.503-0.089-0.752-0.082-0.756,0.057c-0.057,0.061,0.131,0.255,0.498,0.539c-0.834-0.109-0.943,0.147-0.523,0.759
				c-0.396-0.137-0.264,0.082,0.063,0.297c-0.407,0.128-0.619,0.253-0.6,0.427c-0.045,0.086,0.143,0.219,0.543,0.373
				c-0.82,0.094-0.786,0.266-0.064,0.543c-0.756,0.057-0.874,0.246-0.288,0.717c-0.694-0.139-0.683,0.004-0.147,0.381
				c-0.334-0.143-0.143-0.051,0.222,0.049c-0.442,0.174-0.712,0.354-0.669,0.697c-0.328,0.002-0.346,0.168-0.186,0.385
				c0.081,0.131,0.34,0.316,0.746,0.527c-1.457,0.09-1.576,0.426-0.598,1.455c-1.212-0.424-1.326-0.156-0.742,0.893
				c-0.808-0.594-0.916-0.408-0.599,0.469c-0.513-0.621-0.669-0.521-0.606,0.301c-0.387-0.693-0.513-0.656-0.43,0.139
				c-0.295-0.68-0.383-0.6-0.314,0.107c-0.398-0.652-0.643-0.68-0.803,0.051c-0.139-0.559-0.191-0.363-0.113,0.168
				c-0.337-0.391-0.617-0.545-0.939-0.24c-0.133-0.4-0.307-0.344-0.482-0.035c-0.081,0.066-0.164,0.385-0.209,0.861
				c-0.193-0.477-0.346-0.795-0.467-0.947c-0.123-0.156-0.215-0.146-0.291,0.031c-0.074,0.176-0.133,0.521-0.184,1.039
				c-0.223-1.516-0.388-1.477-0.713-0.021c-0.127-1.471-0.411-1.527-1.135-0.324c0.341-1.059,0.243-0.859,0.021,0.133
				c-0.09-0.875-0.378-1.074-1.047-0.67c0.178-0.57-0.025-0.535-0.377-0.188c0.002,0.004-0.146,0.322-0.287,0.803
				c-0.32-1.504-0.549-1.525-1.082-0.082c0.111-1.441-0.079-1.422-0.748-0.188c0.199-1.279-0.081-1.348-0.934-0.492
				c0.446-0.738,0.32-0.553,0.012,0.23c-0.016-0.688-0.275-0.895-0.813-0.748c0.082-0.332-0.111-0.313-0.354-0.117
				c-0.112,0.109-0.273,0.395-0.433,0.834c-0.484-1.441-0.967-1.506-2.08-0.551c0.392-1.059,0.152-1.094-0.707-0.449
				c0.403-0.68,0.188-0.678-0.43-0.293c0.145-0.459-0.113-0.535-0.508-0.428c-0.068-0.084-0.275,0.014-0.457,0.25
				c-0.325-0.59-0.553-0.629-0.799-0.01c-0.201-0.697-0.422-0.736-0.799-0.119c-0.061-0.699-0.28-0.744-0.719-0.201
				c0.063-0.521-0.094-0.457-0.358,0.012c-0.149-0.555-0.407-0.707-0.795-0.5c-0.034-0.174-0.198,0.008-0.323,0.418
				c-0.172-0.332-0.326-0.563-0.486-0.682c-0.146-0.131-0.296-0.152-0.459-0.061c-0.164,0.09-0.34,0.289-0.541,0.605
				c-0.087-1.123-0.413-1.215-1.256-0.516c0.234-0.879-0.047-0.969-0.83-0.604c0.393-0.5,0.266-0.547-0.296-0.27
				c0.331-0.35,0.228-0.377-0.2-0.172c0.096-0.381-0.082-0.473-0.273-0.168c0.025-0.289-0.086-0.416-0.268-0.395
				c0.012-0.053-0.045,0.045-0.081,0.299c-0.161-0.377-0.302-0.596-0.421-0.617c-0.121-0.021-0.223,0.156-0.316,0.576
				c-0.279-1.125-0.529-1.279-1.099-0.221c0.173-1.301,0.038-1.383-0.649-0.26c0.416-1.271,0.279-1.338-0.592-0.332
				c0.582-1.184,0.427-1.297-0.615-0.506c0.749-0.869,0.61-0.836-0.23-0.088c0.529-0.939,0.355-1.164-0.585-0.879
				c0.563-0.387,0.361-0.262-0.168,0.221c0.283-0.635,0.241-0.908-0.253-0.861c0.276-0.137,0.1,0.053-0.207,0.488
				c0.105-0.363,0.133-0.611-0.031-0.73c0.119-0.166,0.048-0.205-0.137-0.139c-0.07,0.053-0.256,0.213-0.504,0.471
				c0.406-0.985,0.236-1.091-0.615-0.463c0.518-0.751,0.355-0.767-0.352-0.236c0.36-0.747,0.176-0.949-0.545-0.753
				c0.324-0.313,0.111-0.229-0.266,0.109c0.061-0.392-0.021-0.639-0.271-0.762c0.027-0.197-0.117-0.271-0.313-0.257
				c-0.179,0.012-0.411,0.11-0.702,0.296c0.355-0.889,0.184-1-0.604-0.478c0.454-0.7,0.292-0.769-0.419-0.384
				c0.374-0.604,0.199-0.756-0.438-0.578c0.285-0.275,0.11-0.221-0.221,0.068c0.054-0.359-0.043-0.576-0.283-0.676
				c0.014-0.172-0.115-0.225-0.283-0.187c-0.148,0.035-0.334,0.163-0.561,0.389c0.192-1.011,0.016-1.134-0.701-0.39
				c0.377-0.865,0.216-0.865-0.391-0.203c0.277-0.895,0.109-1.13-0.674-0.757c0.412-0.478,0.209-0.348-0.195,0.138
				c0.129-0.506,0.081-0.791-0.34-0.816c0.254-0.32,0.133-0.382-0.215-0.266c0.006-0.008-0.217,0.162-0.506,0.452
				c0.129-0.419,0.19-0.72,0.156-0.904c0.002-0.191-0.091-0.269-0.272-0.24c-0.182,0.026-0.45,0.157-0.82,0.384
				c0.737-1.02,0.581-1.174-0.552-0.729c0.894-0.723,0.807-0.847-0.273-0.543c0.998-0.483,0.975-0.572-0.12-0.357
				c1.068-0.42,1.065-0.535-0.098-0.461c1.175-0.328,1.191-0.468-0.047-0.57c1.269-0.184,1.284-0.332,0.029-0.627
				c1.337-0.042,1.404-0.232,0.177-0.789c1.201,0.238,1.105,0.11,0.037-0.295c1.08,0.115,1.271-0.078,0.52-0.873
				c0.945,0.445,0.949,0.287,0.254-0.387c0.463,0.382,0.227,0.246-0.277,0.012c0.592,0.029,0.913-0.039,0.755-0.531
				c0.495,0.343,0.511,0.262,0.14-0.155c0.082,0.222-0.221,0.108-0.688-0.034c0.515,0.025,0.866,0.021,0.94-0.211
				c0.301,0.15,0.326,0.068,0.139-0.158c-0.084-0.033-0.381-0.214-0.838-0.456c0.514,0.12,0.869,0.179,1.068,0.161
				c0.202-0.009,0.249-0.094,0.146-0.262c-0.102-0.167-0.354-0.416-0.749-0.758c1.233,0.677,1.171,0.521,0.134-0.277
				c1.092,0.511,1.295,0.361,0.742-0.681c0.787,0.751,0.818,0.606,0.311-0.263c0.362,0.566,0.186,0.406-0.269-0.006
				c0.562,0.223,0.843,0.193,0.804-0.34c0.355,0.415,0.389,0.327,0.181-0.123c0.022,0.195-0.196,0.029-0.546-0.186
				c0.394,0.09,0.658,0.131,0.765,0c0.177,0.109,0.196,0.048,0.089-0.109c-0.084-0.072-0.295-0.24-0.615-0.465
				c1.088,0.365,1.26,0.216,0.569-0.689c0.887,0.621,0.913,0.486,0.271-0.326c0.494,0.546,0.318,0.416-0.248-0.011
				c0.726,0.196,1.058,0.097,0.98-0.567c0.467,0.413,0.525,0.263,0.31-0.254c0.035,0.121-0.202-0.124-0.599-0.438
				c0.547,0.121,0.936,0.175,1.16,0.063c0.259,0.041,0.354-0.084,0.312-0.317c-0.042-0.232-0.219-0.574-0.522-1.044
				c1.324,0.98,1.52,0.808,1.017-0.711C22.515,13.956,22.678,13.88,22.436,12.39z"/>
			<g id="XMLID_13_">
				<g>
					<path id="XMLID_245_" fill="#C6D3D3" d="M46.313,40.308c0.026-0.027,0.053-0.049,0.077-0.072
						c-0.101,0.012-0.201,0.023-0.303,0.033c0.038,0.117,0.06,0.262,0.063,0.438C46.212,40.546,46.268,40.413,46.313,40.308z"/>
					<path id="XMLID_242_" fill="#C6D3D3" d="M60.013,24.833c-0.102,0.008-0.18-0.073-0.244-0.236
						c-0.166-0.035-0.317-0.154-0.465-0.348c-0.219-0.075-0.433-0.227-0.662-0.426c-0.254-0.131-0.523-0.31-0.817-0.501
						c-1.852-1.205-4.639-2.876-7.313-4.405c-0.335-0.189-0.668-0.379-0.87-0.521c-0.456-0.229-0.78-0.41-0.301-0.367
						c-1.118-0.398-1.433-0.571-0.21-0.507c-1.833-0.398-2.131-0.56-0.458-1.005c-2.249,0.137-2.526-0.01-1.903-1.824
						c-1.046,1.592-1.198,1.513-1.505-0.539c0.1,1.885,0.046,1.797-0.265-0.258c0.025,1.484-0.105,1.782-0.652,1.069
						c-0.119-0.009-0.286-0.125-0.506-0.338c-0.061-0.009-0.127-0.034-0.202-0.071c0.368,0.569,0.354,0.557-0.012-0.006
						c-0.073-0.039-0.155-0.094-0.242-0.158c-0.06-0.01-0.125-0.029-0.196-0.059c0.367,0.573,0.344,0.553-0.025-0.012
						c-0.084-0.037-0.176-0.088-0.275-0.154c0.076,0.03,0.145,0.047,0.205,0.047c-0.027-0.043-0.055-0.086-0.086-0.133
						c-0.098,0.01-0.207-0.004-0.332-0.043c0.074,0.4-0.041,0.479-0.289,0.322c0.041-0.006,0.02-0.141-0.014-0.369
						c0.1-0.178,0.182-0.528,0.311-0.992c-0.145,0.239-0.271,0.443-0.391,0.616c0.088,1.302,0.342,2.6,0.714,3.849
						c0.812,2.719,2.146,5.247,3.472,7.756c-4.826,0.331-9.576,1.961-14.352,2.321c3.535,0.143,7.055,0.532,10.447,1.507
						c4.742,1.362,9.264,3.963,12.154,7.962c0.148,0.205,0.299,0.439,0.262,0.689c-0.052,0.352-0.434,0.537-0.766,0.66
						c-2.297,0.844-4.684,1.439-7.105,1.779c0.029,0.174,0.012,0.445-0.047,0.828c0.669-1.234,0.859-1.254,0.748,0.188
						c0.533-1.443,0.762-1.422,1.082,0.082c0.141-0.48,0.289-0.799,0.287-0.805c0.352-0.346,0.555-0.381,0.377,0.189
						c0.63-0.381,0.924-0.227,1.029,0.525c-0.002,0.006-0.002,0.008-0.004,0.012c0.002-0.002,0.002-0.004,0.004-0.006
						c0.006,0.045,0.013,0.09,0.018,0.139c0.021-0.096,0.042-0.182,0.061-0.264c0.662-1.061,0.932-0.959,1.053,0.455
						c0.325-1.455,0.49-1.494,0.713,0.021c0.051-0.518,0.109-0.863,0.184-1.039c0.076-0.178,0.168-0.188,0.291-0.031
						c0.121,0.152,0.273,0.471,0.467,0.947c0.045-0.477,0.128-0.795,0.209-0.861c0.176-0.309,0.35-0.365,0.482,0.035
						c0.322-0.305,0.603-0.15,0.939,0.24c-0.078-0.531-0.025-0.727,0.113-0.168c0.16-0.73,0.404-0.705,0.803-0.051
						c-0.068-0.707,0.02-0.787,0.314-0.107c-0.083-0.795,0.043-0.832,0.43-0.139c-0.063-0.822,0.094-0.922,0.606-0.301
						c-0.317-0.877-0.209-1.063,0.599-0.469c-0.584-1.049-0.47-1.316,0.742-0.893c-0.979-1.029-0.859-1.365,0.598-1.455
						c-0.406-0.211-0.665-0.396-0.746-0.527c-0.16-0.217-0.143-0.383,0.186-0.385c-0.043-0.344,0.227-0.523,0.669-0.697
						c-0.105-0.029-0.194-0.057-0.263-0.08c-0.493-0.354-0.486-0.484,0.188-0.35c-0.586-0.471-0.468-0.66,0.288-0.717
						c-0.722-0.277-0.756-0.449,0.064-0.543c-0.4-0.154-0.588-0.287-0.543-0.373c-0.02-0.174,0.192-0.299,0.6-0.427
						c-0.326-0.215-0.459-0.434-0.063-0.297c-0.42-0.612-0.311-0.869,0.523-0.759c-0.367-0.284-0.555-0.479-0.498-0.539
						c0.004-0.139,0.253-0.146,0.756-0.057c-0.325-0.202-0.537-0.364-0.539-0.383c-0.187-0.23-0.164-0.321,0.119-0.238
						c0.005-0.206,0.27-0.237,0.686-0.231c-0.373-0.23-0.597-0.422-0.414-0.391c-0.398-0.398-0.393-0.573,0.156-0.521
						c-0.322-0.417-0.104-0.606,0.512-0.736c-0.704-0.188-0.891-0.343-0.288-0.435c-0.682-0.306-0.571-0.549,0.154-0.876
						c-0.676-0.055-0.733-0.194-0.153-0.485c-0.618-0.021-0.6-0.191-0.084-0.553c-0.473-0.13-0.453-0.427-0.183-0.865
						c-0.259-0.077-0.265-0.297-0.171-0.576C60.038,25.105,60.002,24.976,60.013,24.833z M42.76,14.107
						c0.028,0.016,0.055,0.029,0.081,0.041C43.193,14.778,43.134,14.731,42.76,14.107z"/>
					<g id="XMLID_239_">
						<g>
							<path id="XMLID_241_" fill="#A7B9C1" d="M60.013,24.833c-0.102,0.008-0.18-0.073-0.244-0.236
								c-0.166-0.035-0.317-0.154-0.465-0.348c-0.219-0.075-0.433-0.227-0.662-0.426c-0.254-0.131-0.523-0.31-0.817-0.501
								c-1.852-1.205-4.639-2.876-7.313-4.405c-0.335-0.189-0.668-0.379-0.87-0.521c-0.456-0.229-0.78-0.41-0.301-0.367
								c-1.118-0.398-1.433-0.571-0.21-0.507c-1.833-0.398-2.131-0.56-0.458-1.005c-0.685,0.042-1.184,0.056-1.533,0.006
								c0.63,5.363,3.071,10.498,6.845,14.36c1.027,1.052,2.175,2.046,2.821,3.366c0.217,0.447,0.375,0.938,0.345,1.432
								c-0.047,0.77-0.533,1.439-1.082,1.98c-1.548,1.525-3.558,2.287-5.664,2.916c0.092,0.119,0.154,0.307,0.191,0.57
								c-0.002,0.006-0.002,0.008-0.004,0.012c0.002-0.002,0.002-0.004,0.004-0.006c0.006,0.045,0.013,0.09,0.018,0.139
								c0.021-0.096,0.042-0.182,0.061-0.264c0.662-1.061,0.932-0.959,1.053,0.455c0.325-1.455,0.49-1.494,0.713,0.021
								c0.051-0.518,0.109-0.863,0.184-1.039c0.076-0.178,0.168-0.188,0.291-0.031c0.121,0.152,0.273,0.471,0.467,0.947
								c0.045-0.477,0.128-0.795,0.209-0.861c0.176-0.309,0.35-0.365,0.482,0.035c0.322-0.305,0.603-0.15,0.939,0.24
								c-0.078-0.531-0.025-0.727,0.113-0.168c0.16-0.73,0.404-0.705,0.803-0.051c-0.068-0.707,0.02-0.787,0.314-0.107
								c-0.083-0.795,0.043-0.832,0.43-0.139c-0.063-0.822,0.094-0.922,0.606-0.301c-0.317-0.877-0.209-1.063,0.599-0.469
								c-0.584-1.049-0.47-1.316,0.742-0.893c-0.979-1.029-0.859-1.365,0.598-1.455c-0.406-0.211-0.665-0.396-0.746-0.527
								c-0.16-0.217-0.143-0.383,0.186-0.385c-0.043-0.344,0.227-0.523,0.669-0.697c-0.105-0.029-0.194-0.057-0.263-0.08
								c-0.493-0.354-0.486-0.484,0.188-0.35c-0.586-0.471-0.468-0.66,0.288-0.717c-0.722-0.277-0.756-0.449,0.064-0.543
								c-0.4-0.154-0.588-0.287-0.543-0.373c-0.02-0.174,0.192-0.299,0.6-0.427c-0.326-0.215-0.459-0.434-0.063-0.297
								c-0.42-0.612-0.311-0.869,0.523-0.759c-0.367-0.284-0.555-0.479-0.498-0.539c0.004-0.139,0.253-0.146,0.756-0.057
								c-0.325-0.202-0.537-0.364-0.539-0.383c-0.187-0.23-0.164-0.321,0.119-0.238c0.005-0.206,0.27-0.237,0.686-0.231
								c-0.373-0.23-0.597-0.422-0.414-0.391c-0.398-0.398-0.393-0.573,0.156-0.521c-0.322-0.417-0.104-0.606,0.512-0.736
								c-0.704-0.188-0.891-0.343-0.288-0.435c-0.682-0.306-0.571-0.549,0.154-0.876c-0.676-0.055-0.733-0.194-0.153-0.485
								c-0.618-0.021-0.6-0.191-0.084-0.553c-0.473-0.13-0.453-0.427-0.183-0.865c-0.259-0.077-0.265-0.297-0.171-0.576
								C60.038,25.105,60.002,24.976,60.013,24.833z"/>
							<path id="XMLID_240_" fill="#A7B9C1" d="M48.853,41.021c0.016,0.07,0.032,0.141,0.049,0.217
								c0.026-0.09,0.053-0.174,0.079-0.252C48.938,40.997,48.896,41.009,48.853,41.021z"/>
						</g>
					</g>
					<path id="XMLID_238_" fill="#C6D3D3" d="M44.659,40.397c-0.068,0.004-0.137,0.01-0.205,0.016
						c0.031,0.08,0.063,0.168,0.096,0.262C44.585,40.573,44.622,40.483,44.659,40.397z"/>
					<path id="XMLID_237_" fill="#C6D3D3" d="M43.093,14.214c0.025,0.038,0.048,0.073,0.07,0.107
						c0.01,0.004,0.018,0.009,0.025,0.012c-0.024-0.037-0.05-0.078-0.078-0.121C43.104,14.212,43.099,14.213,43.093,14.214z"/>
					<polygon id="XMLID_236_" fill="#C6D3D3" points="44.347,14.965 44.34,14.957 44.347,14.965 					"/>
					<path id="XMLID_235_" fill="#C6D3D3" d="M32.126,27.542c-1.407-0.056-2.816-0.074-4.221-0.074
						C29.316,27.647,30.722,27.648,32.126,27.542z"/>
					<path id="XMLID_234_" fill="#C6D3D3" d="M43.663,14.414c-0.01,0.002-0.02,0.004-0.029,0.004
						c0.072,0.078,0.142,0.148,0.207,0.21c0.035,0.006,0.068,0.005,0.098-0.001C43.862,14.583,43.771,14.511,43.663,14.414z"/>
					<path id="XMLID_233_" fill="#C6D3D3" d="M44.571,13.611c0.07,0.945,0.02,1.371-0.225,1.354
						C44.694,15.363,44.702,14.927,44.571,13.611z"/>
					<polygon id="XMLID_232_" fill="#C6D3D3" points="43.006,14.079 43.007,14.082 43.009,14.082 					"/>
					<path id="XMLID_231_" fill="#C6D3D3" d="M43.86,14.259c0.07,0.112,0.137,0.219,0.197,0.309
						c-0.033,0.031-0.073,0.051-0.119,0.059c0.077,0.043,0.141,0.059,0.19,0.047c0.081,0.118,0.15,0.213,0.211,0.283
						c-0.063-0.083-0.13-0.176-0.205-0.285c0.179-0.048,0.202-0.443,0.132-1.211c0.003,0.607-0.057,0.965-0.204,1.104
						c-0.063-0.094-0.13-0.197-0.2-0.309c0.084-0.164,0.122-0.453,0.131-0.871c-0.037,0.359-0.097,0.616-0.189,0.782
						c-0.014-0.022-0.027-0.043-0.041-0.065c0.015,0.023,0.027,0.043,0.041,0.066c-0.053,0.097-0.117,0.162-0.193,0.197
						c0.019,0.019,0.035,0.033,0.053,0.049C43.747,14.402,43.812,14.351,43.86,14.259z"/>
					<path id="XMLID_230_" fill="#C6D3D3" d="M43.524,14.392c0.002-0.001,0.006-0.002,0.008-0.002
						c-0.055-0.086-0.115-0.178-0.184-0.283c0.087,0.098,0.166,0.186,0.242,0.267c0.006-0.001,0.013-0.006,0.02-0.009
						c-0.08-0.076-0.17-0.169-0.267-0.273c-0.003,0.004-0.005,0.006-0.007,0.01C43.405,14.208,43.468,14.304,43.524,14.392z"/>
					<path id="XMLID_229_" fill="#C6D3D3" d="M43.167,14.205c-0.004,0.001-0.008,0.002-0.012,0.003
						c0.08,0.069,0.158,0.132,0.229,0.185c0.043,0.006,0.084,0.008,0.122,0.003C43.413,14.365,43.3,14.301,43.167,14.205z"/>
					<path id="XMLID_228_" fill="#C6D3D3" d="M43.53,14.402c0.035,0.054,0.066,0.103,0.097,0.148
						c0.005,0.002,0.009,0.003,0.012,0.006c-0.03-0.047-0.062-0.098-0.097-0.15C43.538,14.404,43.534,14.404,43.53,14.402z"/>
					<path id="XMLID_227_" fill="#C6D3D3" d="M43.634,14.417c-0.016-0.014-0.029-0.029-0.043-0.044
						c-0.018,0.009-0.039,0.013-0.059,0.017c0.004,0.005,0.007,0.01,0.01,0.016C43.573,14.414,43.604,14.418,43.634,14.417z"/>
					<path id="XMLID_226_" fill="#C6D3D3" d="M43.53,14.402c-0.002-0.002-0.004-0.007-0.006-0.01
						c-0.006,0.001-0.011,0.002-0.018,0.003C43.515,14.398,43.524,14.4,43.53,14.402z"/>
					<path id="XMLID_225_" fill="#C6D3D3" d="M43.048,14.115c0.023,0.035,0.043,0.065,0.063,0.098
						c0.016-0.002,0.031-0.002,0.045-0.005C43.12,14.177,43.085,14.148,43.048,14.115z"/>
					<path id="XMLID_224_" fill="#C6D3D3" d="M43.337,14.101c-0.012-0.02-0.022-0.035-0.035-0.053
						c0.016,0.016,0.027,0.028,0.042,0.043c0.122-0.141,0.205-0.401,0.276-0.771c-0.129,0.48-0.314,0.732-0.611,0.762
						c0.057,0.047,0.108,0.086,0.158,0.123C43.23,14.19,43.288,14.155,43.337,14.101z"/>
				</g>
			</g>
			<path id="XMLID_12_" fill="#FF202B" d="M40.853,1.993c3.42-1.005,21.35,1.262,21.999,2.524c0.648,1.264,2.119,9.996,1.743,16.129
				c-0.373,6.133,3.582,9.758,2.906,16.21c0,0-1.279-4.848-6.879-6.358c-5.598-1.509-12.047-4.659-14.014-14.902
				C44.188,2.988,40.853,1.993,40.853,1.993z"/>
			<path id="XMLID_10_" fill="#A7B9C1" d="M19.308,25.115c6.99,4.064,14.65,2.873,21.706,5.145
				c7.056,2.27,11.487,6.544,11.487,6.544s-9.441,0.822-15.607-0.551S19.308,25.115,19.308,25.115z"/>
			<path id="XMLID_8_" fill="#C6D3D3" d="M36.894,36.253c4.402,0.98,10.472,0.844,13.584,0.684
				c-0.334-0.514-0.793-0.965-1.278-1.338c-3.614-2.772-8.603-2.489-13.112-3.125c-3.275-0.461-6.473-1.475-9.415-2.984
				c-0.599-0.307-1.298-0.64-1.911-0.363c-0.076,0.035-0.143,0.084-0.199,0.145C28.378,32.109,33.453,35.487,36.894,36.253z"/>
			<path id="XMLID_6_" fill="#9B141A" d="M63.709,8.091c-0.052-0.074-0.104-0.148-0.156-0.224c0.034,3.668-0.319,7.339-1.054,10.933
				c-0.078,0.385-0.184,0.803-0.5,1.035c-0.357,0.26-0.851,0.188-1.278,0.077c-3.739-0.964-6.619-3.866-9.298-6.648
				c2.002,5.766,6.254,10.716,11.652,13.564c-4.989-0.06-9.943-1.656-14.053-4.483c2.916,5.045,7.486,7.044,11.6,8.153
				c5.6,1.51,6.879,6.358,6.879,6.358c0.676-6.453-3.279-10.078-2.906-16.21C64.841,16.633,64.296,11.509,63.709,8.091z"/>
			<path id="XMLID_4_" fill="#FCFCFA" stroke="#DFE3EB" stroke-width="0.25" stroke-miterlimit="10" d="M72.798,32.723
				c-0.568,0.408-0.864,0.677-0.271,0.603c-0.734,0.459-0.581,0.572,0.357,0.453c-1.025,0.473-1.266,0.713-0.209,0.707
				c-0.902,0.357-0.508,0.469,0.541,0.525c-1.025,0.232-1.398,0.408-0.447,0.602c-1.044,0.162-0.762,0.34,0.334,0.602
				c-0.94,0.033-1.064,0.148-0.253,0.426c-0.579,0.01-0.22,0.184,0.425,0.424c-1.08-0.107-1.569-0.076-0.465,0.537
				c-1.009-0.252-1.32-0.248-0.496,0.256c-0.885-0.254-0.633-0.006,0.205,0.553c-1.076-0.443-1.567-0.58-0.746,0.133
				c-1.166-0.559-1.02-0.268-0.027,0.688c-1.162-0.738-1.479-0.813-0.662,0.189c-0.875-0.639-0.618-0.199,0.076,0.727
				c-0.738-0.674-1.039-0.857-0.58-0.068c-0.676-0.678-0.591-0.381-0.09,0.521c-0.844-0.91-0.717-0.434-0.305,0.545
				c-0.685-0.891-1.08-1.281-0.791,0.016c-0.537-0.982-0.775-1.238-0.604-0.205c-0.444-0.9-0.479-0.514-0.35,0.568
				c-0.409-1.213-0.656-1.729-0.704-0.521c-0.37-1.393-0.544-1.061-0.721,0.455c-0.161-1.518-0.329-1.848-0.714-0.463
				c-0.026-1.201-0.271-0.684-0.679,0.521c0.135-1.074,0.105-1.459-0.336-0.566c0.184-1.02-0.047-0.76-0.569,0.221
				c0.296-1.277-0.078-0.869-0.719,0.033c0.404-1.023,0.542-1.553-0.344-0.6c0.525-0.971,0.615-1.301-0.121-0.584
				c0.494-0.854,0.165-0.662-0.643,0.047c0.768-1.004,1.057-1.49,0.059-0.84c0.924-1.086,0.561-1.035-0.771-0.314
				c1.145-0.996,1.318-1.32-0.026-0.84c0.96-0.717,0.397-0.627-0.823-0.275c0.957-0.508,1.254-0.756,0.268-0.611
				c0.939-0.443,0.595-0.494-0.512-0.379c1.223-0.5,0.678-0.605-0.436-0.668c1.027-0.211,1.484-0.373,0.273-0.543
				c1.014-0.098,1.301-0.197,0.373-0.359c0.895-0.072,0.574-0.209-0.387-0.424c1.143,0.037,1.641-0.002,0.633-0.346
				c1.268,0.094,1.026-0.117-0.229-0.631c1.332,0.256,1.649,0.209,0.535-0.406c1.041,0.254,0.648-0.063-0.324-0.669
				c0.927,0.352,1.271,0.41,0.561-0.15c0.878,0.369,0.701,0.119-0.084-0.543c1.131,0.532,0.873,0.122,0.162-0.684
				c0.566,0.377,0.914,0.563,0.59,0.092c0.693,0.488,0.715,0.32,0.199-0.453c0.844,0.727,1.15,0.848,0.676-0.08
				c0.706,0.648,0.631,0.246,0.225-0.711c0.65,0.807,0.971,1.059,0.73,0.131c0.61,0.848,0.661,0.516,0.439-0.578
				c0.451,0.819,0.631,0.877,0.565,0.023c0.286,0.517,0.328,0.123,0.317-0.569c0.398,1.079,0.678,1.491,0.908,0.18
				c0.18,1.019,0.336,1.28,0.556,0.343c0.122,0.873,0.31,0.548,0.584-0.375c-0.005,0.961,0.079,1.325,0.442,0.523
				c-0.057,0.961,0.164,0.754,0.626-0.17c-0.157,1.322,0.223,1.009,0.909,0.086c-0.333,1.104-0.357,1.602,0.621,0.69
				c-0.474,0.923-0.508,1.227,0.236,0.609c-0.434,0.771-0.088,0.624,0.688,0.052c-0.585,0.769-0.739,1.113,0.04,0.69
				c-0.631,0.736-0.326,0.705,0.605,0.243C71.194,33.074,71.692,33.051,72.798,32.723z"/>
		</g>
		<path fill="#00C86B" d="M41.347,30.592c-1.892-0.609-3.828-0.964-5.782-1.243c0.003,9.569,0.005,19.14,0.005,28.708
			c0,0.119,0,0.238,0,0.42c0.144-0.078,0.241-0.125,0.334-0.18c4.873-2.797,9.745-5.596,14.622-8.385
			c0.239-0.135,0.3-0.289,0.3-0.547c-0.005-4.626-0.002-9.252-0.004-13.878C48.873,34.041,45.591,31.958,41.347,30.592z"/>
	</g>
</g>
</svg>
