<?xml version="1.0" encoding="utf-8"?>
<!-- Generator: Adobe Illustrator 16.0.0, SVG Export Plug-In . SVG Version: 6.00 Build 0)  -->
<!DOCTYPE svg PUBLIC "-//W3C//DTD SVG 1.1//EN" "http://www.w3.org/Graphics/SVG/1.1/DTD/svg11.dtd">
<svg version="1.1" id="Capa_1" xmlns="http://www.w3.org/2000/svg" xmlns:xlink="http://www.w3.org/1999/xlink" x="0px" y="0px"
	 width="232px" height="64px" viewBox="0 0 232 64" enable-background="new 0 0 232 64" xml:space="preserve">
<g>
	<g>
		<path fill="#00C86B" d="M91.818,30.921H91.71c-2.554,0-4.563,0.76-6.265,2.383c0.001-0.294,0.001-0.517-0.002-0.74
			c-0.024-1.307-0.269-1.352-1.741-1.402l-0.278-0.007c-0.392,0-0.672,0.091-0.859,0.278c-0.266,0.267-0.286,0.665-0.285,1.119
			c0.01,4.351,0.01,8.7,0.01,13.051c0,3.063,0,6.125,0.003,9.188c0,0.245-0.004,0.452-0.007,0.63
			c-0.013,0.561-0.02,0.868,0.186,1.081c0.21,0.219,0.525,0.223,1.151,0.233c0.171,0.003,0.368,0.006,0.596,0.014l0.103,0.001
			c0.405,0,0.681-0.089,0.872-0.284c0.26-0.264,0.29-0.661,0.284-1.016c-0.029-1.798-0.024-3.626-0.018-5.395l0.004-1.707
			c0-0.118,0.006-0.235,0.015-0.373c1.493,1.325,3.197,2.029,5.189,2.155c0.295,0.02,0.587,0.028,0.875,0.029c0,0,0,0,0,0
			c2.899,0,5.154-0.977,6.89-2.984c2.119-2.445,2.299-5.351,2.219-7.605C100.478,34.683,96.68,30.964,91.818,30.921z M96.792,43.555
			c-0.922,2.231-3,3.619-5.421,3.619l-0.111-0.002c-2.432-0.04-4.718-1.629-5.434-3.773c-0.225-0.675-0.3-1.394-0.38-2.153
			c-0.037-0.348-0.073-0.696-0.123-1.024c-0.217-2.431,0.797-4.231,3.1-5.506c0.986-0.545,1.983-0.82,2.963-0.82
			c1.145,0,2.276,0.375,3.362,1.117C97.227,36.701,98.105,40.374,96.792,43.555z"/>
		<path fill="#00C86B" d="M231.962,38.45c-0.102-4.703-2.983-7.514-7.729-7.521c-2.189,0-3.962,0.664-5.528,2.079
			c-0.004-0.247-0.005-0.436,0.011-0.615c0.038-0.417-0.035-0.725-0.231-0.938c-0.206-0.228-0.525-0.321-0.969-0.281
			c-0.189,0.018-0.388,0.031-0.575,0.001c-0.512-0.081-0.846-0.001-1.073,0.229c-0.281,0.281-0.313,0.738-0.313,1.147
			c0.031,5.441,0.03,10.845-0.004,16.057c-0.003,0.504,0.094,0.839,0.308,1.054c0.231,0.234,0.561,0.312,1.071,0.239
			c0.094-0.013,0.192-0.016,0.286-0.002c0.148,0.021,0.281,0.032,0.402,0.032c0.35,0,0.611-0.094,0.803-0.286
			c0.231-0.237,0.336-0.612,0.326-1.18c-0.025-1.393-0.02-2.812-0.012-4.185c0.008-1.715,0.017-3.487-0.041-5.232
			c-0.05-1.535,0.525-2.726,1.809-3.742c1.029-0.815,2.36-1.283,3.65-1.283c2.149,0,3.761,1.256,4.309,3.36
			c0.163,0.626,0.25,1.309,0.258,2.028c0.021,1.826,0.021,3.654,0.018,5.479c-0.002,0.973-0.003,1.946,0,2.918
			c0,0.242-0.003,0.452-0.008,0.636c-0.013,0.628-0.021,0.975,0.211,1.211c0.246,0.251,0.634,0.251,1.401,0.251h0.608
			c0.002,0,0.002,0,0.002,0c0.35,0,0.604-0.083,0.774-0.256c0.235-0.236,0.265-0.584,0.262-0.859
			c-0.007-1.302-0.002-2.606,0.004-3.908C232.002,42.773,232.01,40.594,231.962,38.45z"/>
		<path fill="#00C86B" d="M189.069,28.736c0.545,0.062,0.897,0.099,1.186,0.099l0,0c1.124,0,1.127-0.662,1.135-2.112l0.001-0.283
			c-0.003-0.342,0-0.632,0.003-0.879c0.006-0.817,0.01-1.191-0.237-1.439c-0.211-0.214-0.535-0.23-0.97-0.23l-0.599,0.003
			c-0.121,0-0.251-0.001-0.436-0.004c-0.323,0-0.562,0.083-0.729,0.252c-0.167,0.169-0.247,0.409-0.245,0.731
			c0.003,0.318,0,0.637-0.002,0.955c-0.009,0.658-0.015,1.339,0.032,2.01C188.235,28.206,188.702,28.692,189.069,28.736z"/>
		<path fill="#00C86B" d="M79.073,31.392c-0.213-0.214-0.508-0.298-0.96-0.25c-0.223,0.024-0.454,0.028-0.678,0.001
			c-0.476-0.055-0.792,0.027-1.013,0.25c-0.274,0.278-0.3,0.718-0.296,1.024c0.016,1.291,0.009,2.582,0.002,3.873
			c-0.011,1.849-0.021,3.761,0.039,5.641c0.067,2.125-0.922,3.581-3.109,4.58c-0.802,0.366-1.607,0.551-2.393,0.551
			c-1.932,0-3.477-1.117-4.133-2.99c-0.241-0.685-0.375-1.434-0.387-2.169c-0.038-2.206-0.035-4.45-0.033-6.622l0.001-2.15
			c-0.001-1.504-0.002-2.011-1.411-2.011c-0.187,0-0.403,0.006-0.656,0.013l-0.066,0.001c-0.743,0.021-1.086,0.372-1.081,1.103
			c0.009,1.263,0.008,2.527,0.006,3.791c-0.001,2.389-0.003,4.86,0.064,7.291c0.09,3.233,2.2,5.865,5.25,6.548
			c0.875,0.197,1.714,0.298,2.494,0.298c2.093,0,3.89-0.689,5.472-2.103v0.338c0.008,1.354,0.134,1.479,1.5,1.48l0.286-0.005
			c0.048,0,0.097,0.003,0.143,0.008c0.084,0.009,0.162,0.014,0.234,0.014c0.308,0,0.55-0.087,0.721-0.259
			c0.209-0.209,0.3-0.521,0.298-1.005c-0.02-5.751-0.02-11.065,0-16.243C79.373,32.09,79.343,31.663,79.073,31.392z"/>
		<path fill="#00C86B" d="M112.761,30.921h-0.109c-2.554,0-4.563,0.76-6.263,2.383c0-0.293,0-0.517-0.002-0.741
			c-0.026-1.294-0.221-1.349-1.742-1.401l-0.277-0.007c-0.391,0-0.671,0.091-0.858,0.278c-0.266,0.267-0.287,0.665-0.285,1.119
			c0.008,4.19,0.009,8.379,0.009,12.568c0,3.224,0,6.445,0.004,9.67c0.001,0.243-0.004,0.452-0.008,0.629
			c-0.013,0.559-0.021,0.868,0.187,1.082c0.209,0.219,0.524,0.223,1.151,0.233c0.169,0.003,0.367,0.006,0.596,0.014l0.103,0.001
			c0.405,0,0.681-0.089,0.872-0.284c0.259-0.264,0.288-0.661,0.283-1.016c-0.03-1.798-0.024-3.626-0.018-5.395l0.005-1.707
			c0-0.118,0.006-0.235,0.015-0.373c1.492,1.325,3.196,2.029,5.189,2.155c0.296,0.02,0.589,0.028,0.875,0.029l0,0
			c2.899,0,5.153-0.977,6.89-2.984c2.12-2.445,2.3-5.351,2.219-7.605C121.421,34.683,117.621,30.964,112.761,30.921z
			 M117.735,43.555c-0.923,2.231-3,3.619-5.423,3.619l-0.11-0.002c-2.433-0.04-4.717-1.629-5.433-3.773
			c-0.225-0.675-0.301-1.394-0.381-2.153c-0.037-0.348-0.073-0.696-0.123-1.025c-0.217-2.429,0.798-4.23,3.101-5.505
			c0.986-0.545,1.981-0.82,2.963-0.82c1.145,0,2.275,0.375,3.361,1.117C118.169,36.701,119.047,40.373,117.735,43.555z"/>
		<path fill="#00C86B" d="M131.287,28.513c0.251,0.254,0.643,0.254,1.353,0.254h0.073c0.166,0,0.35,0,0.557,0.002h0.027
			c0.33,0,0.573-0.082,0.739-0.251c0.166-0.167,0.245-0.407,0.242-0.731l-0.006-0.446c-0.009-0.696-0.019-1.415,0.021-2.115
			c0.025-0.472-0.061-0.797-0.274-1.022c-0.213-0.226-0.534-0.332-1.012-0.332l-0.177,0.003c-1.682,0.032-1.798,0.157-1.78,1.897
			c0.002,0.158,0,0.313,0,0.348v0.134l0.002,0c0.003,0.325,0,0.602-0.004,0.839C131.039,27.87,131.035,28.258,131.287,28.513z
			 M132.713,28.492L132.713,28.492L132.713,28.492L132.713,28.492z M133.297,28.492L133.297,28.492v0.002V28.492z"/>
		<path fill="#00C86B" d="M203.616,30.929c-5.759,0.014-9.62,3.903-9.607,9.678c0.014,5.721,3.896,9.567,9.661,9.567h0.076
			c5.599-0.033,9.503-3.992,9.495-9.633C213.229,34.882,209.286,30.929,203.616,30.929z M203.622,33.668v0.275
			c3.515,0,6.377,2.998,6.378,6.683c0.003,3.604-2.879,6.535-6.43,6.538c-1.601,0-3.142-0.662-4.345-1.866
			c-1.268-1.27-1.993-3.007-1.992-4.77c0.004-3.626,2.864-6.579,6.38-6.585L203.622,33.668L203.622,33.668z"/>
		<path fill="#00C86B" d="M168.007,31.278c-1.85-0.603-3.884-0.64-6.067-0.109c-2.042,0.495-3.603,1.558-4.638,3.155
			c-0.183,0.284-0.741,1.146,0.214,1.814c0.637,0.447,1.048,0.629,1.421,0.629c0.474,0,0.771-0.315,0.951-0.55
			c1.388-1.804,3.305-2.532,5.9-2.247c1.095,0.122,2.057,0.654,2.709,1.503c0.617,0.801,0.894,1.798,0.793,2.828
			c-0.457,0.034-0.914,0.065-1.372,0.096c-1.216,0.083-2.474,0.169-3.71,0.296c-2.273,0.232-3.934,0.714-5.381,1.562
			c-1.798,1.057-2.611,2.723-2.415,4.949c0.175,1.982,1.206,3.387,3.066,4.171c1.058,0.443,2.199,0.66,3.492,0.66
			c0.744,0,1.55-0.07,2.465-0.22c1.481-0.239,2.789-0.899,3.979-2.01c0.016,0.096,0.027,0.182,0.036,0.272
			c0.108,1.337,0.143,1.74,1.439,1.74c0.137,0,0.287-0.003,0.458-0.006c0.02,0,0.04,0.004,0.063,0.007
			c0.045,0.006,0.089,0.01,0.129,0.01c0.109,0,0.202-0.034,0.27-0.102c0.062-0.058,0.133-0.121,0.206-0.182
			c0.265-0.223,0.539-0.455,0.54-0.769c0.024-3.414,0.043-7.443-0.027-11.451C172.478,34.447,170.787,32.186,168.007,31.278z
			 M167.595,41.28c0.319,0,0.638,0.007,0.965,0.014c0.259,0.006,0.521,0.011,0.785,0.013c0.157,2.031-0.6,3.604-2.252,4.68
			c-2.014,1.311-4.008,1.543-5.94,0.69c-0.905-0.401-1.382-1.057-1.419-1.953c-0.037-0.932,0.417-1.642,1.393-2.168
			c1.706-0.922,3.707-1.095,5.314-1.233C166.779,41.294,167.148,41.28,167.595,41.28z"/>
		<path fill="#00C86B" d="M191.391,42.834c0.003-0.781,0.003-1.565,0.003-2.348v-7.474c0-1.671-0.11-1.792-1.666-1.848l-0.271-0.008
			c-0.289,0-0.703,0.033-0.977,0.309c-0.289,0.291-0.322,0.749-0.32,1.116c0.03,3.834,0.025,7.731,0.021,11.502l-0.003,3.906
			c0,1.794,0.127,1.922,1.903,1.935l0.126,0.003c0.297,0,0.672-0.032,0.922-0.286c0.198-0.2,0.285-0.492,0.279-0.946
			C191.382,46.743,191.388,44.755,191.391,42.834z M190.207,49.65L190.207,49.65L190.207,49.65L190.207,49.65z"/>
		<path fill="#00C86B" d="M183.475,46.386c-0.483,0.404-1.105,0.636-1.71,0.636c-1.083,0-1.811-0.718-1.996-1.968l-0.018-0.125
			c-0.041-0.259-0.079-0.503-0.08-0.746c-0.011-3.168-0.017-6.34-0.017-9.51c0-0.165,0.022-0.33,0.045-0.51
			c0.003-0.018,0.005-0.034,0.007-0.052c0.405-0.001,0.808-0.006,1.207-0.01c0.465-0.006,0.925-0.011,1.382-0.011
			c0.716,0,1.3,0.014,1.842,0.041c0.569,0.033,0.928-0.071,1.167-0.323c0.294-0.31,0.31-0.775,0.287-1.19l-0.006-0.104
			c-0.069-1.246-0.161-1.425-1.435-1.425l-1.588,0.001l-2.855-0.001c-0.016-0.035-0.03-0.062-0.035-0.078
			c-0.012-0.736-0.024-1.472-0.019-2.209l0.003-0.346c0.015-1.349-0.062-1.522-1.37-1.547c-0.157-0.003-0.341-0.005-0.551-0.014
			l-0.115-0.002c-0.415,0-0.7,0.093-0.893,0.294c-0.256,0.271-0.271,0.681-0.255,1.006c0.035,0.706,0.027,1.411,0.02,2.157
			c-0.002,0.243-0.006,0.489-0.006,0.738c-0.149,0.001-0.292,0.002-0.43,0.004c-0.474,0.005-0.909,0.011-1.338-0.012
			c-0.486-0.025-0.825,0.074-1.041,0.315c-0.194,0.218-0.267,0.527-0.219,0.944c0.023,0.217,0.023,0.446,0.002,0.681
			c-0.033,0.359,0.034,0.627,0.206,0.816c0.174,0.189,0.433,0.281,0.797,0.281l0.104-0.002c0.476-0.02,0.952-0.014,1.465-0.011
			c0.148,0.002,0.298,0.003,0.454,0.004l-0.001,4.013c-0.002,2.228-0.005,4.457,0.005,6.687c0.016,3.135,1.575,4.863,4.635,5.138
			c0.333,0.03,0.63,0.044,0.912,0.044c1.53,0,2.635-0.444,3.481-1.396l0.038-0.044c0.396-0.442,0.991-1.112,0.331-1.913
			C185.268,45.887,184.206,45.776,183.475,46.386z"/>
		<path fill="#00C86B" d="M134.29,42.739l0.007-9.846c0-0.77,0-1.156-0.22-1.42c-0.25-0.298-0.691-0.298-1.303-0.298l-0.297,0.003
			c-0.524-0.073-0.886,0.018-1.127,0.265c-0.227,0.232-0.327,0.58-0.316,1.099c0.033,1.562,0.026,3.151,0.019,4.689
			c-0.002,0.647-0.005,1.295-0.005,1.943l0.003,2.565c0.002,2.277,0.006,4.557-0.014,6.837c-0.002,0.313,0.025,0.762,0.307,1.046
			c0.22,0.22,0.536,0.308,1,0.255c0.188-0.023,0.385-0.021,0.577,0.004c0.107,0.014,0.205,0.019,0.296,0.019
			c0.341,0,0.596-0.091,0.781-0.277c0.218-0.223,0.316-0.557,0.309-1.054C134.28,46.628,134.285,44.649,134.29,42.739z"/>
		<path fill="#00C86B" d="M125.966,23.89h-0.094c-1.315,0.004-1.481,0.167-1.48,1.458l0.003,14.574
			c0.004,2.813,0.008,5.723-0.017,8.582c-0.004,0.388,0.03,0.822,0.313,1.106c0.205,0.207,0.506,0.305,0.942,0.305l0.303-0.009
			c1.512-0.054,1.704-0.111,1.704-1.405c0.002-3.018,0.002-6.036,0.002-9.055l0.001-13.92c0.001-0.756,0.001-1.136-0.257-1.388
			C127.128,23.89,126.74,23.89,125.966,23.89z"/>
		<path fill="#00C86B" d="M154.159,44.018c-0.58-0.362-1.019-0.586-1.422-0.586c-0.499,0-0.83,0.334-1.176,0.835
			c-1.216,1.771-2.856,2.708-4.879,2.782c-2.187,0.08-4.177-0.862-5.442-2.566c-1.263-1.696-1.623-3.885-0.987-6.002
			c0.773-2.58,2.469-4.102,5.037-4.521c2.688-0.438,4.818,0.498,6.294,2.773c0.262,0.403,0.572,0.775,1.067,0.775
			c0.394,0,0.834-0.227,1.463-0.618c0.375-0.233,0.589-0.497,0.653-0.806c0.089-0.435-0.147-0.853-0.391-1.205
			c-1.842-2.657-4.474-4.017-8.048-4.158l-0.029-0.002l-0.028,0.005c-0.322,0.055-0.647,0.1-0.974,0.143
			c-0.706,0.096-1.435,0.194-2.129,0.405c-4.887,1.482-7.382,6.164-6.209,11.65c0.909,4.261,4.239,6.93,8.906,7.139
			c0.202,0.01,0.403,0.014,0.601,0.014c0.001,0,0,0,0.001,0c3.353,0,6-1.328,7.873-3.947c0.286-0.399,0.557-0.829,0.462-1.3
			C154.741,44.52,154.524,44.247,154.159,44.018z"/>
	</g>
	<path fill-rule="evenodd" clip-rule="evenodd" fill="#00C86B" d="M0.615,48.682c0-0.202,0-0.335,0-0.467
		c0-6.355-0.005-12.708,0.001-19.063c0.006-5.845,0.027-11.689,0.035-17.534c0-0.235,0.06-0.374,0.274-0.498
		c5.288-3.073,10.571-6.153,15.855-9.231c0.073-0.044,0.153-0.081,0.279-0.147c0,0.157,0,0.271,0,0.386
		c-0.021,12.255-0.044,24.511-0.063,36.766c0,0.193-0.041,0.304-0.227,0.409c-1.121,0.636-2.23,1.291-3.343,1.942
		c-1.385,0.811-2.765,1.632-4.153,2.437c-1.267,0.736-2.543,1.449-3.81,2.185C3.98,46.722,2.5,47.59,1.018,48.452
		C0.898,48.522,0.777,48.591,0.615,48.682z M35.434,57.84c4.873-2.796,9.745-5.596,14.622-8.385c0.239-0.135,0.3-0.289,0.3-0.546
		c-0.006-5.403-0.001-10.806-0.005-16.209c-0.005-7.06-0.017-14.119-0.025-21.18c0-0.115,0-0.231,0-0.393
		c-0.175,0.096-0.291,0.156-0.403,0.222c-4.824,2.794-9.645,5.59-14.473,8.376c-0.263,0.153-0.357,0.31-0.357,0.614
		c0.008,12.42,0.007,24.84,0.007,37.26c0,0.12,0,0.24,0,0.42C35.244,57.941,35.341,57.895,35.434,57.84z M2.028,50.153
		c1.428,0.832,2.851,1.675,4.284,2.495c3.129,1.795,6.265,3.576,9.393,5.369c3.15,1.807,6.297,3.619,9.442,5.436
		c0.194,0.113,0.336,0.121,0.535,0.006c2.425-1.406,4.855-2.804,7.289-4.198c0.192-0.11,0.279-0.223,0.278-0.459
		c-0.01-2.762-0.009-5.525-0.001-8.288c0.001-0.23-0.074-0.349-0.271-0.461c-2.791-1.611-5.577-3.228-8.362-4.849
		c-2.289-1.33-4.579-2.662-6.86-4.005c-0.249-0.146-0.428-0.16-0.686-0.008c-2.962,1.733-5.932,3.454-8.9,5.181
		c-2.09,1.215-4.178,2.431-6.307,3.67C1.938,50.094,1.981,50.126,2.028,50.153z M26.941,44.4c2.11,1.226,4.181,2.43,6.29,3.654
		c0-2.457,0-4.85,0-7.31C31.112,41.977,29.045,43.178,26.941,44.4z"/>
</g>
</svg>
