<?xml version="1.0" encoding="utf-8"?>
<!-- Generator: Adobe Illustrator 22.0.1, SVG Export Plug-In . SVG Version: 6.00 Build 0)  -->
<svg version="1.1" id="Capa_1" xmlns="http://www.w3.org/2000/svg" xmlns:xlink="http://www.w3.org/1999/xlink" x="0px" y="0px"
	 viewBox="0 0 232 73" style="enable-background:new 0 0 232 73;" xml:space="preserve">
<style type="text/css">
	.st0{fill:#A8ADB1;}
	.st1{fill:#00C86B;}
	.st2{fill:#FF202B;}
	.st3{fill:#9B141A;}
	.st4{fill:#FCFCFA;stroke:#DFE3EB;stroke-width:0.25;stroke-miterlimit:10;}
	.st5{fill:#C6D3D3;}
	.st6{fill:#A7B9C1;}
</style>
<g>
	<g>
		<path class="st0" d="M157.6,68.7V57.8h1.6v4.9c0.4-0.8,1.4-1.1,2.4-1.1c1.9,0,3.5,1.4,3.5,3.7c0,2.2-1.6,3.7-3.5,3.7
			c-1,0-1.9-0.4-2.3-1.2v1H157.6L157.6,68.7z M161.3,67.3c1.2,0,2.1-0.9,2.1-2.2c0-1.3-1-2.2-2.1-2.2c-1.1,0-2.2,0.8-2.2,2.2
			C159.2,66.5,160.1,67.3,161.3,67.3z"/>
		<path class="st0" d="M168.5,72.1h-1.6l1.5-3.8l-2.8-6.8h1.7l2,4.8l2-4.8h1.7L168.5,72.1z"/>
		<path class="st0" d="M182.6,59.3h-0.8c-1,0-1.3,0.8-1.3,1.7v0.7h1.6V63h-1.5v5.7H179v-5.8h-1.4v-1.3h1.4v-0.7c0-2,0.9-3.2,2.8-3.2
			h0.8V59.3L182.6,59.3z"/>
		<path class="st0" d="M184.8,57.8c0.6,0,1,0.4,1,1s-0.4,1-1,1c-0.5,0-1-0.4-1-1C183.7,58.2,184.2,57.8,184.8,57.8z M185.5,61.7H184
			v7.1h1.5V61.7z"/>
		<path class="st0" d="M187.6,68.7V57.8h1.6v4.9c0.4-0.8,1.4-1.1,2.4-1.1c1.9,0,3.5,1.4,3.5,3.7c0,2.2-1.6,3.7-3.5,3.7
			c-1,0-1.9-0.4-2.3-1.2v1H187.6L187.6,68.7z M191.4,67.3c1.2,0,2.1-0.9,2.1-2.2c0-1.3-1-2.2-2.1-2.2c-1.1,0-2.2,0.8-2.2,2.2
			C189.2,66.5,190.2,67.3,191.4,67.3z"/>
		<path class="st0" d="M196.5,65.1c0-2.2,1.7-3.7,3.7-3.7c2,0,3.7,1.4,3.7,3.7c0,2.2-1.7,3.7-3.7,3.7
			C198.2,68.8,196.5,67.3,196.5,65.1z M202.3,65.1c0-1.3-1-2.1-2.2-2.1c-1.1,0-2.1,0.8-2.1,2.1c0,1.4,1,2.2,2.1,2.2
			C201.4,67.3,202.3,66.4,202.3,65.1z"/>
		<path class="st0" d="M207.1,68.7h-1.6v-7.1h1.6v1.1c0.4-0.8,1.4-1.2,2.2-1.2c1.7,0,2.7,1.1,2.7,3.1v4.1h-1.6v-3.9
			c0-1.1-0.6-1.7-1.5-1.7c-0.9,0-1.8,0.5-1.8,1.9L207.1,68.7C207.2,68.7,207.1,68.7,207.1,68.7z"/>
		<path class="st0" d="M219.7,67.6c-0.5,0.8-1.5,1.1-2.4,1.1c-1.9,0-3.6-1.4-3.6-3.7c0-2.3,1.7-3.7,3.6-3.7c0.9,0,1.9,0.3,2.4,1.1
			v-1h1.5v7.2h-1.5V67.6z M217.5,67.3c1.1,0,2.2-0.8,2.2-2.2c0-1.4-1.1-2.2-2.2-2.2c-1.2,0-2.2,0.9-2.2,2.2
			C215.3,66.4,216.4,67.3,217.5,67.3z"/>
		<path class="st0" d="M228.9,67.6c-0.4,0.8-1.4,1.2-2.4,1.2c-1.9,0-3.5-1.5-3.5-3.7c0-2.3,1.6-3.7,3.5-3.7c1,0,2,0.4,2.4,1.1v-4.8
			h1.5v10.9h-1.5V67.6z M226.8,63c-1.2,0-2.1,0.9-2.1,2.2c0,1.3,0.9,2.2,2.1,2.2c1.1,0,2.2-0.8,2.2-2.2
			C228.9,63.8,227.9,63,226.8,63z"/>
	</g>
	<g>
		<g>
			<path class="st1" d="M91.3,30.7h-0.1c-2.5,0-4.6,0.8-6.3,2.4c0-0.3,0-0.5,0-0.7c0-1.3-0.3-1.4-1.7-1.4l-0.3,0
				c-0.4,0-0.7,0.1-0.9,0.3c-0.3,0.3-0.3,0.7-0.3,1.1c0,4.3,0,8.7,0,13c0,3.1,0,6.1,0,9.2c0,0.2,0,0.5,0,0.6c0,0.6,0,0.9,0.2,1.1
				c0.2,0.2,0.5,0.2,1.1,0.2c0.2,0,0.4,0,0.6,0l0.1,0c0.4,0,0.7-0.1,0.9-0.3c0.3-0.3,0.3-0.7,0.3-1c0-1.8,0-3.6,0-5.4l0-1.7
				c0-0.1,0-0.2,0-0.4c1.5,1.3,3.2,2,5.2,2.1c0.3,0,0.6,0,0.9,0l0,0c2.9,0,5.1-1,6.9-3c2.1-2.4,2.3-5.3,2.2-7.6
				C100,34.5,96.2,30.8,91.3,30.7z M96.3,43.4c-0.9,2.2-3,3.6-5.4,3.6l-0.1,0c-2.4,0-4.7-1.6-5.4-3.8c-0.2-0.7-0.3-1.4-0.4-2.1
				c0-0.3-0.1-0.7-0.1-1c-0.2-2.4,0.8-4.2,3.1-5.5c1-0.5,2-0.8,3-0.8c1.1,0,2.3,0.4,3.4,1.1C96.7,36.5,97.6,40.2,96.3,43.4z"/>
			<path class="st1" d="M231.2,38.3c-0.1-4.7-3-7.5-7.7-7.5c-2.2,0-4,0.7-5.5,2.1c0-0.2,0-0.4,0-0.6c0-0.4,0-0.7-0.2-0.9
				c-0.2-0.2-0.5-0.3-1-0.3c-0.2,0-0.4,0-0.6,0c-0.5-0.1-0.8,0-1.1,0.2c-0.3,0.3-0.3,0.7-0.3,1.1c0,5.4,0,10.8,0,16
				c0,0.5,0.1,0.8,0.3,1.1c0.2,0.2,0.6,0.3,1.1,0.2c0.1,0,0.2,0,0.3,0c0.1,0,0.3,0,0.4,0c0.4,0,0.6-0.1,0.8-0.3
				c0.2-0.2,0.3-0.6,0.3-1.2c0-1.4,0-2.8,0-4.2c0-1.7,0-3.5,0-5.2c0-1.5,0.5-2.7,1.8-3.7c1-0.8,2.4-1.3,3.6-1.3
				c2.1,0,3.8,1.3,4.3,3.4c0.2,0.6,0.2,1.3,0.3,2c0,1.8,0,3.6,0,5.5c0,1,0,1.9,0,2.9c0,0.2,0,0.4,0,0.6c0,0.6,0,1,0.2,1.2
				c0.2,0.3,0.6,0.3,1.4,0.3h0.6c0,0,0,0,0,0c0.4,0,0.6-0.1,0.8-0.3c0.2-0.2,0.3-0.6,0.3-0.9c0-1.3,0-2.6,0-3.9
				C231.2,42.6,231.2,40.4,231.2,38.3z"/>
			<path class="st1" d="M188.4,28.6c0.5,0.1,0.9,0.1,1.2,0.1l0,0c1.1,0,1.1-0.7,1.1-2.1v-0.3c0-0.3,0-0.6,0-0.9c0-0.8,0-1.2-0.2-1.4
				c-0.2-0.2-0.5-0.2-1-0.2l-0.6,0c-0.1,0-0.3,0-0.4,0c-0.3,0-0.6,0.1-0.7,0.3s-0.2,0.4-0.2,0.7c0,0.3,0,0.6,0,1c0,0.7,0,1.3,0,2
				C187.6,28,188,28.5,188.4,28.6z"/>
			<path class="st1" d="M78.6,31.2c-0.2-0.2-0.5-0.3-1-0.2c-0.2,0-0.5,0-0.7,0c-0.5-0.1-0.8,0-1,0.2c-0.3,0.3-0.3,0.7-0.3,1
				c0,1.3,0,2.6,0,3.9c0,1.8,0,3.8,0,5.6c0.1,2.1-0.9,3.6-3.1,4.6c-0.8,0.4-1.6,0.6-2.4,0.6c-1.9,0-3.5-1.1-4.1-3
				c-0.2-0.7-0.4-1.4-0.4-2.2c0-2.2,0-4.4,0-6.6l0-2.1c0-1.5,0-2-1.4-2c-0.2,0-0.4,0-0.7,0l-0.1,0c-0.7,0-1.1,0.4-1.1,1.1
				c0,1.3,0,2.5,0,3.8c0,2.4,0,4.9,0.1,7.3c0.1,3.2,2.2,5.9,5.2,6.5c0.9,0.2,1.7,0.3,2.5,0.3c2.1,0,3.9-0.7,5.5-2.1v0.3
				c0,1.4,0.1,1.5,1.5,1.5l0.3,0c0,0,0.1,0,0.1,0c0.1,0,0.2,0,0.2,0c0.3,0,0.5-0.1,0.7-0.3c0.2-0.2,0.3-0.5,0.3-1c0-5.7,0-11,0-16.2
				C78.9,31.9,78.9,31.5,78.6,31.2z"/>
			<path class="st1" d="M112.2,30.7h-0.1c-2.5,0-4.6,0.8-6.2,2.4c0-0.3,0-0.5,0-0.7c0-1.3-0.2-1.3-1.7-1.4l-0.3,0
				c-0.4,0-0.7,0.1-0.9,0.3c-0.3,0.3-0.3,0.7-0.3,1.1c0,4.2,0,8.4,0,12.5c0,3.2,0,6.4,0,9.7c0,0.2,0,0.5,0,0.6c0,0.6,0,0.9,0.2,1.1
				c0.2,0.2,0.5,0.2,1.1,0.2c0.2,0,0.4,0,0.6,0l0.1,0c0.4,0,0.7-0.1,0.9-0.3c0.3-0.3,0.3-0.7,0.3-1c0-1.8,0-3.6,0-5.4l0-1.7
				c0-0.1,0-0.2,0-0.4c1.5,1.3,3.2,2,5.2,2.1c0.3,0,0.6,0,0.9,0l0,0c2.9,0,5.1-1,6.9-3c2.1-2.4,2.3-5.3,2.2-7.6
				C120.9,34.5,117.1,30.8,112.2,30.7z M117.2,43.4c-0.9,2.2-3,3.6-5.4,3.6l-0.1,0c-2.4,0-4.7-1.6-5.4-3.8c-0.2-0.7-0.3-1.4-0.4-2.1
				c0-0.3-0.1-0.7-0.1-1c-0.2-2.4,0.8-4.2,3.1-5.5c1-0.5,2-0.8,3-0.8c1.1,0,2.3,0.4,3.4,1.1C117.6,36.5,118.5,40.2,117.2,43.4z"/>
			<path class="st1" d="M130.7,28.3c0.3,0.3,0.6,0.3,1.4,0.3h0.1c0.2,0,0.3,0,0.6,0h0c0.3,0,0.6-0.1,0.7-0.3
				c0.2-0.2,0.2-0.4,0.2-0.7l0-0.4c0-0.7,0-1.4,0-2.1c0-0.5-0.1-0.8-0.3-1c-0.2-0.2-0.5-0.3-1-0.3l-0.2,0c-1.7,0-1.8,0.2-1.8,1.9
				c0,0.2,0,0.3,0,0.3v0.1h0c0,0.3,0,0.6,0,0.8C130.5,27.7,130.5,28.1,130.7,28.3z M132.1,28.3L132.1,28.3L132.1,28.3L132.1,28.3z
				 M132.7,28.3L132.7,28.3L132.7,28.3L132.7,28.3z"/>
			<path class="st1" d="M202.9,30.8c-5.7,0-9.6,3.9-9.6,9.7c0,5.7,3.9,9.5,9.6,9.5h0.1c5.6,0,9.5-4,9.5-9.6
				C212.5,34.7,208.6,30.8,202.9,30.8z M202.9,33.5v0.3c3.5,0,6.4,3,6.4,6.7c0,3.6-2.9,6.5-6.4,6.5c-1.6,0-3.1-0.7-4.3-1.9
				c-1.3-1.3-2-3-2-4.8c0-3.6,2.9-6.6,6.4-6.6L202.9,33.5L202.9,33.5z"/>
			<path class="st1" d="M167.4,31.1c-1.8-0.6-3.9-0.6-6.1-0.1c-2,0.5-3.6,1.6-4.6,3.1c-0.2,0.3-0.7,1.1,0.2,1.8
				c0.6,0.4,1,0.6,1.4,0.6c0.5,0,0.8-0.3,0.9-0.6c1.4-1.8,3.3-2.5,5.9-2.2c1.1,0.1,2.1,0.6,2.7,1.5c0.6,0.8,0.9,1.8,0.8,2.8
				c-0.5,0-0.9,0.1-1.4,0.1c-1.2,0.1-2.5,0.2-3.7,0.3c-2.3,0.2-3.9,0.7-5.4,1.6c-1.8,1.1-2.6,2.7-2.4,4.9c0.2,2,1.2,3.4,3.1,4.2
				c1.1,0.4,2.2,0.7,3.5,0.7c0.7,0,1.5-0.1,2.5-0.2c1.5-0.2,2.8-0.9,4-2c0,0.1,0,0.2,0,0.3c0.1,1.3,0.1,1.7,1.4,1.7
				c0.1,0,0.3,0,0.5,0c0,0,0,0,0.1,0c0,0,0.1,0,0.1,0c0.1,0,0.2,0,0.3-0.1c0.1-0.1,0.1-0.1,0.2-0.2c0.3-0.2,0.5-0.5,0.5-0.8
				c0-3.4,0-7.4,0-11.4C171.8,34.3,170.1,32,167.4,31.1z M167,41.1c0.3,0,0.6,0,1,0c0.3,0,0.5,0,0.8,0c0.2,2-0.6,3.6-2.2,4.7
				c-2,1.3-4,1.5-5.9,0.7c-0.9-0.4-1.4-1.1-1.4-1.9c0-0.9,0.4-1.6,1.4-2.2c1.7-0.9,3.7-1.1,5.3-1.2C166.1,41.1,166.5,41.1,167,41.1z
				"/>
			<path class="st1" d="M190.7,42.6c0-0.8,0-1.6,0-2.3v-7.5c0-1.7-0.1-1.8-1.7-1.8l-0.3,0c-0.3,0-0.7,0-1,0.3
				c-0.3,0.3-0.3,0.7-0.3,1.1c0,3.8,0,7.7,0,11.5l0,3.9c0,1.8,0.1,1.9,1.9,1.9l0.1,0c0.3,0,0.7,0,0.9-0.3c0.2-0.2,0.3-0.5,0.3-0.9
				C190.7,46.5,190.7,44.6,190.7,42.6z M189.5,49.4L189.5,49.4L189.5,49.4L189.5,49.4z"/>
			<path class="st1" d="M182.8,46.2c-0.5,0.4-1.1,0.6-1.7,0.6c-1.1,0-1.8-0.7-2-2l0-0.1c0-0.3-0.1-0.5-0.1-0.7c0-3.2,0-6.3,0-9.5
				c0-0.2,0-0.3,0-0.5c0,0,0,0,0-0.1c0.4,0,0.8,0,1.2,0c0.5,0,0.9,0,1.4,0c0.7,0,1.3,0,1.8,0c0.6,0,0.9-0.1,1.2-0.3
				c0.3-0.3,0.3-0.8,0.3-1.2l0-0.1c-0.1-1.2-0.2-1.4-1.4-1.4l-1.6,0l-2.8,0c0,0,0-0.1,0-0.1c0-0.7,0-1.5,0-2.2l0-0.3
				c0-1.3-0.1-1.5-1.4-1.5c-0.2,0-0.3,0-0.6,0l-0.1,0c-0.4,0-0.7,0.1-0.9,0.3c-0.3,0.3-0.3,0.7-0.3,1c0,0.7,0,1.4,0,2.2
				c0,0.2,0,0.5,0,0.7c-0.1,0-0.3,0-0.4,0c-0.5,0-0.9,0-1.3,0c-0.5,0-0.8,0.1-1,0.3c-0.2,0.2-0.3,0.5-0.2,0.9c0,0.2,0,0.4,0,0.7
				c0,0.4,0,0.6,0.2,0.8c0.2,0.2,0.4,0.3,0.8,0.3l0.1,0c0.5,0,1,0,1.5,0c0.1,0,0.3,0,0.5,0l0,4c0,2.2,0,4.4,0,6.7
				c0,3.1,1.6,4.9,4.6,5.1c0.3,0,0.6,0,0.9,0c1.5,0,2.6-0.4,3.5-1.4l0,0c0.4-0.4,1-1.1,0.3-1.9C184.6,45.7,183.5,45.6,182.8,46.2z"
				/>
			<path class="st1" d="M133.7,42.5l0-9.8c0-0.8,0-1.2-0.2-1.4c-0.2-0.3-0.7-0.3-1.3-0.3l-0.3,0c-0.5-0.1-0.9,0-1.1,0.3
				c-0.2,0.2-0.3,0.6-0.3,1.1c0,1.6,0,3.1,0,4.7c0,0.6,0,1.3,0,1.9l0,2.6c0,2.3,0,4.6,0,6.8c0,0.3,0,0.8,0.3,1
				c0.2,0.2,0.5,0.3,1,0.3c0.2,0,0.4,0,0.6,0c0.1,0,0.2,0,0.3,0c0.3,0,0.6-0.1,0.8-0.3c0.2-0.2,0.3-0.6,0.3-1.1
				C133.7,46.4,133.7,44.4,133.7,42.5z"/>
			<path class="st1" d="M125.4,23.7L125.4,23.7c-1.4,0-1.6,0.2-1.6,1.5l0,14.5c0,2.8,0,5.7,0,8.6c0,0.4,0,0.8,0.3,1.1
				c0.2,0.2,0.5,0.3,0.9,0.3l0.3,0c1.5-0.1,1.7-0.1,1.7-1.4c0-3,0-6,0-9V25.4c0-0.8,0-1.1-0.3-1.4C126.6,23.7,126.2,23.7,125.4,23.7
				z"/>
			<path class="st1" d="M153.5,43.8c-0.6-0.4-1-0.6-1.4-0.6c-0.5,0-0.8,0.3-1.2,0.8c-1.2,1.8-2.8,2.7-4.9,2.8
				c-2.2,0.1-4.2-0.9-5.4-2.6c-1.3-1.7-1.6-3.9-1-6c0.8-2.6,2.5-4.1,5-4.5c2.7-0.4,4.8,0.5,6.3,2.8c0.3,0.4,0.6,0.8,1.1,0.8
				c0.4,0,0.8-0.2,1.5-0.6c0.4-0.2,0.6-0.5,0.7-0.8c0.1-0.4-0.1-0.9-0.4-1.2c-1.8-2.7-4.5-4-8-4.1l0,0l0,0c-0.3,0.1-0.6,0.1-1,0.1
				c-0.7,0.1-1.4,0.2-2.1,0.4c-4.9,1.5-7.4,6.2-6.2,11.6c0.9,4.3,4.2,6.9,8.9,7.1c0.2,0,0.4,0,0.6,0c0,0,0,0,0,0
				c3.3,0,6-1.3,7.9-3.9c0.3-0.4,0.6-0.8,0.5-1.3C154.1,44.3,153.9,44,153.5,43.8z"/>
		</g>
		<path class="st1" d="M9.4,43.2c1.4-0.8,2.8-1.6,4.1-2.4c1.1-0.6,2.2-1.3,3.3-1.9c0.2-0.1,0.2-0.2,0.2-0.4c0-12.2,0-24.5,0.1-36.7
			c0-0.1,0-0.2,0-0.4c-0.1,0.1-0.2,0.1-0.3,0.1C11.6,4.6,6.4,7.6,1.1,10.7c-0.2,0.1-0.3,0.3-0.3,0.5c0,5.8,0,11.7,0,17.5
			c0,6.3,0,12.7,0,19c0,0.1,0,0.3,0,0.5C0.9,48.1,1,48,1.2,48c1.5-0.9,3-1.7,4.4-2.6C6.9,44.7,8.1,44,9.4,43.2z"/>
		<path class="st1" d="M33.3,47.6c0-2.5,0-4.8,0-7.3c-2.1,1.2-4.2,2.4-6.3,3.7C29.1,45.2,31.2,46.4,33.3,47.6z"/>
		<path class="st1" d="M33.1,49.6c-2.8-1.6-5.6-3.2-8.3-4.8c-2.3-1.3-4.6-2.7-6.8-4c-0.2-0.1-0.4-0.2-0.7,0c-3,1.7-5.9,3.4-8.9,5.2
			c-2.1,1.2-4.2,2.4-6.3,3.7c0.1,0.1,0.1,0.1,0.2,0.1c1.4,0.8,2.8,1.7,4.3,2.5c3.1,1.8,6.3,3.6,9.4,5.4c3.1,1.8,6.3,3.6,9.4,5.4
			c0.2,0.1,0.3,0.1,0.5,0c2.4-1.4,4.8-2.8,7.3-4.2c0.2-0.1,0.3-0.2,0.3-0.5c0-2.8,0-5.5,0-8.3C33.3,49.8,33.3,49.7,33.1,49.6z"/>
		<g>
			<g id="XMLID_1_">
				<path id="XMLID_37_" class="st2" d="M26.7,14.9c1-2.3,10-12.3,10.5-12.5c0.4-0.2,2.8-1.6,4.7-1.5C43.7,1,62.3,3.6,62.3,3.6
					s-4.1,22.5-4.5,22.9C57.3,26.8,26.7,14.9,26.7,14.9z"/>
				<path id="XMLID_36_" class="st3" d="M54.2,8c-1.6-3.8-6.4-6-10.3-6.3c-1-0.1-2.8-0.2-3.1,1.1c-0.2,0.8,0.5,1.8,0.8,2.5
					c0.5,1.2,0.8,2.5,0.9,3.9c0,0.4,0,0.9-0.3,1.1c-0.3,0.2-0.8,0-1.2-0.1c-1.6-0.8-3.5-1-5.3-0.7c-1.5,0.2-3.1,0.8-4.3,0
					c-1.8,2.2-3.6,4.3-4.2,5.4c0.1,0.2,0.1,0.3,0.2,0.5c1.7,0.7,8.6,3.3,15.4,5.9c1.5,0,3.1-0.2,4.5-0.7c1.6-0.5,3.1-1.4,4.3-2.5
					C54.2,15.5,55.6,11.4,54.2,8z"/>
				<path id="XMLID_35_" class="st4" d="M22.1,11.5c0.5,1.5,0.6,1.5,0.6-0.1c0.4,1.5,0.6,1.5,1,0c0,0.5,0.1,0.9,0.1,1
					c0.1,0.2,0.2,0.2,0.4,0.1c0.2-0.1,0.4-0.4,0.7-0.8c-0.1,0.4-0.1,0.7-0.2,0.7c0.2,0.3,0.3,0.3,0.2,0c0.5,0.3,0.8,0.1,0.7-0.6
					c0.3,0.9,0.3,1-0.2,0.3c0.3,0.3,0.5,0.5,0.6,0.5c0.2,0.1,0.2,0,0.2-0.1c0-0.1,0-0.4-0.2-0.8c0.3,0.4,0.5,0.7,0.4,0.7
					c0.3,0.3,0.4,0.3,0.1-0.1c0.2,0,0.2-0.3,0-0.8c0.3,0.5,0.5,0.9,0.2,0.6c0.6,0.6,0.7,0.5,0.3-0.2c0.5,0.3,0.6-0.1,0.6-0.7
					c0.2,0.5,0.3,0.9,0,0.4c0.6,1,0.7,1.1,0.2-0.1c0.8,1.2,1,1.1,0.8-0.3c0.6,1.1,0.8,0.8,1.1-0.3c-0.1,1.2-0.1,1.6-0.2,0.2
					c0.2,1.8,0.3,1.9,0.8,0.1c0,1.7,0.3,1.6,1.2,0.3c-0.7,1.5-0.7,1.6,0.3,0.3c-0.5,1-0.5,1.3-0.1,1.2c0.2-0.1,0.5-0.3,0.9-0.6
					c-0.3,0.3-0.4,0.6-0.5,0.7c0,0.1,0,0.2,0.1,0.1c0.2,0,0.5-0.1,0.6-0.6c-0.1,0.6-0.2,0.7-0.5,0.6c0.4,0.3,0.6,0.2,0.5-0.5
					c0.4,0.7,0.5,0.8-0.1,0.2c0.9,0.7,1.1,0.7,0.4-0.3c1.4,1.1,1.9,1.1,2.1-0.8c0.8,2,1.2,2,2.6,0.5c-0.2,0.5-0.2,0.9-0.4,0.9
					c0.3,0.4,0.4,0.5,0.2,0c0.7,0.4,1.1,0.3,1.1-0.7c0.2,1.2,0.2,1.4-0.5,0.4c0.9,1.1,1.2,1.1,0.9-0.4c0.7,1.6,0.8,1.6,0.4-0.1
					c0.7,1.8,0.9,1.8,0.9-0.1c0.2,1,0.5,1.5,0.7,1.6c0.1,0,0.3-0.1,0.5-0.3c0.2-0.2,0.4-0.5,0.7-1c-0.1,0.5-0.2,0.8-0.3,1
					c0,0.3,0.1,0.5-0.1,0.3c0.3,0.2,0.4,0.2,0.4-0.3c0.5,0.2,0.8-0.1,0.9-0.7c-0.1,0.8-0.3,1.1-0.9,0.8c0.4,0.6,0.4,0.7,0.1,0
					c0.7,0.5,1.1,0.3,1.2-0.7c0,1.1-0.2,1.3-1,0.7c0.6,0.9,0.6,0.9,0,0c0.9,0.8,1.2,0.7,1.2-0.7c0.1,1.4-0.1,1.6-1,0.6
					c0.8,1.2,0.8,1.3,0,0.1c1.1,1.2,1.3,1.2,1.2-0.5c0.2,1.8,0.1,2-0.8,0.5c1,1.7,1.3,1.7,1.2-0.2c0.3,2.1,0.4,2.1,0.3,0.3
					c0.3,2,0.5,2.1,1.5,0.5c-0.6,1.8-0.3,2,1.9,1.8c-1.7,0.4-1.4,0.6,0.5,1c-1.2-0.1-0.9,0.1,0.2,0.5c-0.5,0-0.2,0.1,0.3,0.4
					c0.2,0.1,0.5,0.3,0.9,0.5c2.7,1.5,5.5,3.2,7.3,4.4c0.3,0.2,0.6,0.4,0.8,0.5c0.2,0.2,0.4,0.4,0.7,0.4c0.1,0.2,0.3,0.3,0.5,0.3
					c0.1,0.2,0.1,0.2,0.2,0.2c0,0.1,0,0.3,0.2,0.3c-0.1,0.3-0.1,0.5,0.2,0.6c-0.3,0.4-0.3,0.7,0.2,0.9c-0.5,0.4-0.5,0.5,0.1,0.6
					c-0.6,0.3-0.5,0.4,0.2,0.5c-0.7,0.3-0.8,0.6-0.2,0.9c-0.6,0.1-0.4,0.2,0.3,0.4c-0.6,0.1-0.8,0.3-0.5,0.7
					c-0.5-0.1-0.6,0.1-0.2,0.5c-0.2,0,0,0.2,0.4,0.4c-0.4,0-0.7,0-0.7,0.2c-0.3-0.1-0.3,0-0.1,0.2c0,0,0.2,0.2,0.5,0.4
					c-0.5-0.1-0.8-0.1-0.8,0.1c-0.1,0.1,0.1,0.3,0.5,0.5c-0.8-0.1-0.9,0.1-0.5,0.8c-0.4-0.1-0.3,0.1,0.1,0.3
					c-0.4,0.1-0.6,0.3-0.6,0.4c0,0.1,0.1,0.2,0.5,0.4c-0.8,0.1-0.8,0.3-0.1,0.5c-0.8,0.1-0.9,0.2-0.3,0.7c-0.7-0.1-0.7,0-0.1,0.4
					c-0.3-0.1-0.1-0.1,0.2,0c-0.4,0.2-0.7,0.4-0.7,0.7c-0.3,0-0.3,0.2-0.2,0.4c0.1,0.1,0.3,0.3,0.7,0.5c-1.5,0.1-1.6,0.4-0.6,1.5
					c-1.2-0.4-1.3-0.2-0.7,0.9c-0.8-0.6-0.9-0.4-0.6,0.5c-0.5-0.6-0.7-0.5-0.6,0.3c-0.4-0.7-0.5-0.7-0.4,0.1
					c-0.3-0.7-0.4-0.6-0.3,0.1c-0.4-0.7-0.6-0.7-0.8,0.1c-0.1-0.6-0.2-0.4-0.1,0.2c-0.3-0.4-0.6-0.5-0.9-0.2c-0.1-0.4-0.3-0.3-0.5,0
					C53.1,39.7,53,40,53,40.5c-0.2-0.5-0.3-0.8-0.5-0.9c-0.1-0.2-0.2-0.1-0.3,0c-0.1,0.2-0.1,0.5-0.2,1c-0.2-1.5-0.4-1.5-0.7,0
					c-0.1-1.5-0.4-1.5-1.1-0.3c0.3-1.1,0.2-0.9,0,0.1c-0.1-0.9-0.4-1.1-1-0.7c0.2-0.6,0-0.5-0.4-0.2c0,0-0.1,0.3-0.3,0.8
					c-0.3-1.5-0.5-1.5-1.1-0.1c0.1-1.4-0.1-1.4-0.7-0.2c0.2-1.3-0.1-1.3-0.9-0.5c0.4-0.7,0.3-0.6,0,0.2c0-0.7-0.3-0.9-0.8-0.7
					c0.1-0.3-0.1-0.3-0.4-0.1c-0.1,0.1-0.3,0.4-0.4,0.8c-0.5-1.4-1-1.5-2.1-0.5c0.4-1.1,0.2-1.1-0.7-0.4c0.4-0.7,0.2-0.7-0.4-0.3
					c0.1-0.5-0.1-0.5-0.5-0.4c-0.1-0.1-0.3,0-0.5,0.2c-0.3-0.6-0.6-0.6-0.8,0c-0.2-0.7-0.4-0.7-0.8-0.1c-0.1-0.7-0.3-0.7-0.7-0.2
					c0.1-0.5-0.1-0.5-0.4,0c-0.1-0.6-0.4-0.7-0.8-0.5c0-0.2-0.2,0-0.3,0.4c-0.2-0.3-0.3-0.6-0.5-0.7c-0.1-0.1-0.3-0.2-0.5-0.1
					c-0.2,0.1-0.3,0.3-0.5,0.6c-0.1-1.1-0.4-1.2-1.3-0.5c0.2-0.9,0-1-0.8-0.6c0.4-0.5,0.3-0.5-0.3-0.3c0.3-0.3,0.2-0.4-0.2-0.2
					c0.1-0.4-0.1-0.5-0.3-0.2c0-0.3-0.1-0.4-0.3-0.4c0-0.1,0,0-0.1,0.3c-0.2-0.4-0.3-0.6-0.4-0.6c-0.1,0-0.2,0.2-0.3,0.6
					c-0.3-1.1-0.5-1.3-1.1-0.2c0.2-1.3,0-1.4-0.6-0.3c0.4-1.3,0.3-1.3-0.6-0.3c0.6-1.2,0.4-1.3-0.6-0.5c0.7-0.9,0.6-0.8-0.2-0.1
					c0.5-0.9,0.4-1.2-0.6-0.9c0.6-0.4,0.4-0.3-0.2,0.2c0.3-0.6,0.2-0.9-0.3-0.9c0.3-0.1,0.1,0.1-0.2,0.5c0.1-0.4,0.1-0.6,0-0.7
					c0.1-0.2,0-0.2-0.1-0.1c-0.1,0.1-0.3,0.2-0.5,0.5c0.4-1,0.2-1.1-0.6-0.5c0.5-0.7,0.4-0.8-0.4-0.2c0.4-0.7,0.2-0.9-0.5-0.8
					c0.3-0.3,0.1-0.2-0.3,0.1c0.1-0.4,0-0.6-0.3-0.8c0-0.2-0.1-0.3-0.3-0.3c-0.2,0-0.4,0.1-0.7,0.3c0.4-0.9,0.2-1-0.6-0.5
					c0.5-0.7,0.3-0.8-0.4-0.4c0.4-0.6,0.2-0.8-0.4-0.6c0.3-0.3,0.1-0.2-0.2,0.1c0.1-0.4,0-0.6-0.3-0.7c0-0.2-0.1-0.2-0.3-0.2
					c-0.1,0-0.3,0.2-0.6,0.4c0.2-1,0-1.1-0.7-0.4c0.4-0.9,0.2-0.9-0.4-0.2c0.3-0.9,0.1-1.1-0.7-0.8c0.4-0.5,0.2-0.3-0.2,0.1
					c0.1-0.5,0.1-0.8-0.3-0.8c0.3-0.3,0.1-0.4-0.2-0.3c0,0-0.2,0.2-0.5,0.5c0.1-0.4,0.2-0.7,0.2-0.9c0-0.2-0.1-0.3-0.3-0.2
					c-0.2,0-0.4,0.2-0.8,0.4c0.7-1,0.6-1.2-0.6-0.7c0.9-0.7,0.8-0.8-0.3-0.5c1-0.5,1-0.6-0.1-0.4c1.1-0.4,1.1-0.5-0.1-0.5
					c1.2-0.3,1.2-0.5,0-0.6c1.3-0.2,1.3-0.3,0-0.6c1.3,0,1.4-0.2,0.2-0.8c1.2,0.2,1.1,0.1,0-0.3c1.1,0.1,1.3-0.1,0.5-0.9
					c0.9,0.4,0.9,0.3,0.3-0.4c0.5,0.4,0.2,0.2-0.3,0c0.6,0,0.9,0,0.8-0.5c0.5,0.3,0.5,0.3,0.1-0.2c0.1,0.2-0.2,0.1-0.7,0
					c0.5,0,0.9,0,0.9-0.2c0.3,0.1,0.3,0.1,0.1-0.2c-0.1,0-0.4-0.2-0.8-0.5c0.5,0.1,0.9,0.2,1.1,0.2c0.2,0,0.2-0.1,0.1-0.3
					c-0.1-0.2-0.4-0.4-0.7-0.8c1.2,0.7,1.2,0.5,0.1-0.3c1.1,0.5,1.3,0.4,0.7-0.7c0.8,0.7,0.8,0.6,0.3-0.3c0.4,0.6,0.2,0.4-0.3,0
					c0.6,0.2,0.8,0.2,0.8-0.3c0.4,0.4,0.4,0.3,0.2-0.1c0,0.2-0.2,0-0.5-0.2c0.4,0.1,0.7,0.1,0.8,0c0.2,0.1,0.2,0,0.1-0.1
					c-0.1-0.1-0.3-0.2-0.6-0.5c1.1,0.4,1.3,0.2,0.6-0.7c0.9,0.6,0.9,0.5,0.3-0.3c0.5,0.5,0.3,0.4-0.2,0c0.7,0.2,1.1,0.1,1-0.6
					c0.5,0.4,0.5,0.3,0.3-0.3c0,0.1-0.2-0.1-0.6-0.4c0.5,0.1,0.9,0.2,1.2,0.1c0.3,0,0.4-0.1,0.3-0.3c0-0.2-0.2-0.6-0.5-1
					c1.3,1,1.5,0.8,1-0.7C22.2,13.1,22.3,13,22.1,11.5z"/>
				<g id="XMLID_14_">
					<g>
						<path id="XMLID_34_" class="st5" d="M45.9,39.4C45.9,39.4,46,39.3,45.9,39.4c0-0.1-0.1,0-0.2,0c0,0.1,0.1,0.3,0.1,0.4
							C45.8,39.6,45.9,39.5,45.9,39.4z"/>
						<path id="XMLID_33_" class="st5" d="M59.6,23.9c-0.1,0-0.2-0.1-0.2-0.2c-0.2,0-0.3-0.2-0.5-0.3c-0.2-0.1-0.4-0.2-0.7-0.4
							c-0.3-0.1-0.5-0.3-0.8-0.5c-1.8-1.2-4.6-2.9-7.3-4.4c-0.3-0.2-0.7-0.4-0.9-0.5c-0.5-0.2-0.8-0.4-0.3-0.4
							c-1.1-0.4-1.4-0.6-0.2-0.5c-1.8-0.4-2.1-0.6-0.5-1c-2.2,0.1-2.5,0-1.9-1.8c-1,1.6-1.2,1.5-1.5-0.5c0.1,1.9,0,1.8-0.3-0.3
							c0,1.5-0.1,1.8-0.7,1.1c-0.1,0-0.3-0.1-0.5-0.3c-0.1,0-0.1,0-0.2-0.1c0.4,0.6,0.4,0.6,0,0c-0.1,0-0.2-0.1-0.2-0.2
							c-0.1,0-0.1,0-0.2-0.1c0.4,0.6,0.3,0.6,0,0c-0.1,0-0.2-0.1-0.3-0.2c0.1,0,0.1,0,0.2,0c0,0-0.1-0.1-0.1-0.1c-0.1,0-0.2,0-0.3,0
							c0.1,0.4,0,0.5-0.3,0.3c0,0,0-0.1,0-0.4c0.1-0.2,0.2-0.5,0.3-1c-0.1,0.2-0.3,0.4-0.4,0.6c0.1,1.3,0.3,2.6,0.7,3.8
							c0.8,2.7,2.1,5.2,3.5,7.7c-4.8,0.3-9.6,2-14.3,2.3c3.5,0.1,7,0.5,10.4,1.5c4.7,1.4,9.2,4,12.1,7.9c0.1,0.2,0.3,0.4,0.3,0.7
							c-0.1,0.4-0.4,0.5-0.8,0.7c-2.3,0.8-4.7,1.4-7.1,1.8c0,0.2,0,0.4,0,0.8c0.7-1.2,0.9-1.3,0.7,0.2c0.5-1.4,0.8-1.4,1.1,0.1
							c0.1-0.5,0.3-0.8,0.3-0.8c0.4-0.3,0.6-0.4,0.4,0.2c0.6-0.4,0.9-0.2,1,0.5c0,0,0,0,0,0c0,0,0,0,0,0c0,0,0,0.1,0,0.1
							c0-0.1,0-0.2,0.1-0.3c0.7-1.1,0.9-1,1.1,0.5c0.3-1.5,0.5-1.5,0.7,0c0.1-0.5,0.1-0.9,0.2-1c0.1-0.2,0.2-0.2,0.3,0
							c0.1,0.2,0.3,0.5,0.5,0.9c0-0.5,0.1-0.8,0.2-0.9c0.2-0.3,0.3-0.4,0.5,0c0.3-0.3,0.6-0.1,0.9,0.2c-0.1-0.5,0-0.7,0.1-0.2
							c0.2-0.7,0.4-0.7,0.8-0.1c-0.1-0.7,0-0.8,0.3-0.1c-0.1-0.8,0-0.8,0.4-0.1c-0.1-0.8,0.1-0.9,0.6-0.3c-0.3-0.9-0.2-1.1,0.6-0.5
							c-0.6-1-0.5-1.3,0.7-0.9c-1-1-0.9-1.4,0.6-1.5c-0.4-0.2-0.7-0.4-0.7-0.5c-0.2-0.2-0.1-0.4,0.2-0.4c0-0.3,0.2-0.5,0.7-0.7
							c-0.1,0-0.2-0.1-0.3-0.1c-0.5-0.4-0.5-0.5,0.2-0.3c-0.6-0.5-0.5-0.7,0.3-0.7c-0.7-0.3-0.8-0.4,0.1-0.5
							c-0.4-0.2-0.6-0.3-0.5-0.4c0-0.2,0.2-0.3,0.6-0.4c-0.3-0.2-0.5-0.4-0.1-0.3c-0.4-0.6-0.3-0.9,0.5-0.8
							c-0.4-0.3-0.6-0.5-0.5-0.5c0-0.1,0.3-0.1,0.8-0.1c-0.3-0.2-0.5-0.4-0.5-0.4c-0.2-0.2-0.2-0.3,0.1-0.2c0-0.2,0.3-0.2,0.7-0.2
							c-0.4-0.2-0.6-0.4-0.4-0.4c-0.4-0.4-0.4-0.6,0.2-0.5c-0.3-0.4-0.1-0.6,0.5-0.7c-0.7-0.2-0.9-0.3-0.3-0.4
							c-0.7-0.3-0.6-0.5,0.2-0.9c-0.7-0.1-0.7-0.2-0.2-0.5c-0.6,0-0.6-0.2-0.1-0.6c-0.5-0.1-0.5-0.4-0.2-0.9
							c-0.3-0.1-0.3-0.3-0.2-0.6C59.6,24.2,59.6,24.1,59.6,23.9z M42.4,13.2C42.4,13.3,42.4,13.3,42.4,13.2
							C42.8,13.9,42.7,13.9,42.4,13.2z"/>
						<g id="XMLID_30_">
							<g>
								<path id="XMLID_32_" class="st6" d="M59.6,23.9c-0.1,0-0.2-0.1-0.2-0.2c-0.2,0-0.3-0.2-0.5-0.3c-0.2-0.1-0.4-0.2-0.7-0.4
									c-0.3-0.1-0.5-0.3-0.8-0.5c-1.8-1.2-4.6-2.9-7.3-4.4c-0.3-0.2-0.7-0.4-0.9-0.5c-0.5-0.2-0.8-0.4-0.3-0.4
									c-1.1-0.4-1.4-0.6-0.2-0.5c-1.8-0.4-2.1-0.6-0.5-1c-0.7,0-1.2,0.1-1.5,0c0.6,5.4,3.1,10.5,6.8,14.3c1,1,2.2,2,2.8,3.4
									c0.2,0.4,0.4,0.9,0.3,1.4c0,0.8-0.5,1.4-1.1,2c-1.5,1.5-3.6,2.3-5.7,2.9c0.1,0.1,0.2,0.3,0.2,0.6c0,0,0,0,0,0c0,0,0,0,0,0
									c0,0,0,0.1,0,0.1c0-0.1,0-0.2,0.1-0.3c0.7-1.1,0.9-1,1.1,0.5c0.3-1.5,0.5-1.5,0.7,0c0.1-0.5,0.1-0.9,0.2-1
									c0.1-0.2,0.2-0.2,0.3,0c0.1,0.2,0.3,0.5,0.5,0.9c0-0.5,0.1-0.8,0.2-0.9c0.2-0.3,0.3-0.4,0.5,0c0.3-0.3,0.6-0.1,0.9,0.2
									c-0.1-0.5,0-0.7,0.1-0.2c0.2-0.7,0.4-0.7,0.8-0.1c-0.1-0.7,0-0.8,0.3-0.1c-0.1-0.8,0-0.8,0.4-0.1c-0.1-0.8,0.1-0.9,0.6-0.3
									c-0.3-0.9-0.2-1.1,0.6-0.5c-0.6-1-0.5-1.3,0.7-0.9c-1-1-0.9-1.4,0.6-1.5c-0.4-0.2-0.7-0.4-0.7-0.5c-0.2-0.2-0.1-0.4,0.2-0.4
									c0-0.3,0.2-0.5,0.7-0.7c-0.1,0-0.2-0.1-0.3-0.1c-0.5-0.4-0.5-0.5,0.2-0.3c-0.6-0.5-0.5-0.7,0.3-0.7
									c-0.7-0.3-0.8-0.4,0.1-0.5c-0.4-0.2-0.6-0.3-0.5-0.4c0-0.2,0.2-0.3,0.6-0.4c-0.3-0.2-0.5-0.4-0.1-0.3
									c-0.4-0.6-0.3-0.9,0.5-0.8c-0.4-0.3-0.6-0.5-0.5-0.5c0-0.1,0.3-0.1,0.8-0.1c-0.3-0.2-0.5-0.4-0.5-0.4
									c-0.2-0.2-0.2-0.3,0.1-0.2c0-0.2,0.3-0.2,0.7-0.2c-0.4-0.2-0.6-0.4-0.4-0.4c-0.4-0.4-0.4-0.6,0.2-0.5
									c-0.3-0.4-0.1-0.6,0.5-0.7c-0.7-0.2-0.9-0.3-0.3-0.4c-0.7-0.3-0.6-0.5,0.2-0.9c-0.7-0.1-0.7-0.2-0.2-0.5
									c-0.6,0-0.6-0.2-0.1-0.6c-0.5-0.1-0.5-0.4-0.2-0.9c-0.3-0.1-0.3-0.3-0.2-0.6C59.6,24.2,59.6,24.1,59.6,23.9z"/>
								<path id="XMLID_31_" class="st6" d="M48.4,40.1c0,0.1,0,0.1,0,0.2c0-0.1,0.1-0.2,0.1-0.3C48.5,40.1,48.5,40.1,48.4,40.1z"/>
							</g>
						</g>
						<path id="XMLID_29_" class="st5" d="M44.3,39.5c-0.1,0-0.1,0-0.2,0c0,0.1,0.1,0.2,0.1,0.3C44.2,39.7,44.2,39.6,44.3,39.5z"/>
						<path id="XMLID_28_" class="st5" d="M42.7,13.3c0,0,0,0.1,0.1,0.1c0,0,0,0,0,0C42.8,13.4,42.7,13.4,42.7,13.3
							C42.7,13.3,42.7,13.3,42.7,13.3z"/>
						<path id="XMLID_27_" class="st5" d="M43.9,14.1L43.9,14.1L43.9,14.1z"/>
						<path id="XMLID_26_" class="st5" d="M31.7,26.7c-1.4-0.1-2.8-0.1-4.2-0.1C28.9,26.8,30.3,26.8,31.7,26.7z"/>
						<path id="XMLID_25_" class="st5" d="M43.3,13.5C43.3,13.5,43.2,13.6,43.3,13.5c0,0.1,0.1,0.2,0.2,0.2c0,0,0.1,0,0.1,0
							C43.5,13.7,43.4,13.6,43.3,13.5z"/>
						<path id="XMLID_24_" class="st5" d="M44.2,12.7c0.1,0.9,0,1.4-0.2,1.4C44.3,14.5,44.3,14.1,44.2,12.7z"/>
						<polygon id="XMLID_23_" class="st5" points="42.6,13.2 42.6,13.2 42.6,13.2 						"/>
						<path id="XMLID_22_" class="st5" d="M43.5,13.4c0.1,0.1,0.1,0.2,0.2,0.3c0,0-0.1,0.1-0.1,0.1c0.1,0,0.1,0.1,0.2,0
							c0.1,0.1,0.1,0.2,0.2,0.3c-0.1-0.1-0.1-0.2-0.2-0.3c0.2,0,0.2-0.4,0.1-1.2c0,0.6-0.1,1-0.2,1.1C43.6,13.6,43.5,13.5,43.5,13.4
							c0.1-0.2,0.1-0.5,0.1-0.9C43.6,12.9,43.5,13.1,43.5,13.4c-0.1-0.1-0.1-0.1-0.1-0.2C43.4,13.3,43.4,13.3,43.5,13.4
							c-0.1,0-0.2,0.1-0.2,0.1c0,0,0,0,0.1,0C43.3,13.5,43.4,13.5,43.5,13.4z"/>
						<path id="XMLID_21_" class="st5" d="M43.1,13.5C43.1,13.5,43.1,13.5,43.1,13.5c0-0.1-0.1-0.2-0.2-0.3
							C43,13.3,43.1,13.4,43.1,13.5C43.2,13.5,43.2,13.5,43.1,13.5c0-0.1-0.1-0.2-0.2-0.3c0,0,0,0,0,0C43,13.3,43.1,13.4,43.1,13.5z
							"/>
						<path id="XMLID_20_" class="st5" d="M42.8,13.3C42.8,13.3,42.8,13.3,42.8,13.3c0.1,0.1,0.1,0.1,0.2,0.2c0,0,0.1,0,0.1,0
							C43,13.5,42.9,13.4,42.8,13.3z"/>
						<path id="XMLID_19_" class="st5" d="M43.1,13.5c0,0.1,0.1,0.1,0.1,0.1c0,0,0,0,0,0C43.2,13.6,43.2,13.6,43.1,13.5
							C43.1,13.5,43.1,13.5,43.1,13.5z"/>
						<path id="XMLID_18_" class="st5" d="M43.2,13.6C43.2,13.5,43.2,13.5,43.2,13.6c-0.1,0-0.1,0-0.1,0
							C43.1,13.5,43.1,13.5,43.2,13.6C43.2,13.5,43.2,13.6,43.2,13.6z"/>
						<path id="XMLID_17_" class="st5" d="M43.1,13.5C43.1,13.5,43.1,13.5,43.1,13.5C43.1,13.5,43.1,13.5,43.1,13.5
							C43.1,13.5,43.1,13.5,43.1,13.5z"/>
						<path id="XMLID_16_" class="st5" d="M42.6,13.2C42.7,13.3,42.7,13.3,42.6,13.2c0.1,0.1,0.1,0.1,0.1,0.1
							C42.7,13.3,42.7,13.3,42.6,13.2z"/>
						<path id="XMLID_15_" class="st5" d="M42.9,13.2C42.9,13.2,42.9,13.2,42.9,13.2C42.9,13.2,42.9,13.2,42.9,13.2
							c0.1-0.2,0.2-0.4,0.3-0.8c-0.1,0.5-0.3,0.7-0.6,0.8c0.1,0,0.1,0.1,0.2,0.1C42.8,13.3,42.9,13.3,42.9,13.2z"/>
					</g>
				</g>
				<path id="XMLID_11_" class="st2" d="M40.5,1.2c3.4-1,21.3,1.3,22,2.5c0.6,1.3,2.1,10,1.7,16.1c-0.4,6.1,3.6,9.7,2.9,16.2
					c0,0-1.3-4.8-6.9-6.3c-5.6-1.5-12-4.6-14-14.9C43.8,2.1,40.5,1.2,40.5,1.2z"/>
				<path id="XMLID_9_" class="st6" d="M19,24.2c7,4.1,14.6,2.9,21.7,5.1c7,2.3,11.5,6.5,11.5,6.5s-9.4,0.8-15.6-0.5
					S19,24.2,19,24.2z"/>
				<path id="XMLID_7_" class="st5" d="M36.5,35.3c4.4,1,10.5,0.8,13.6,0.7c-0.3-0.5-0.8-1-1.3-1.3c-3.6-2.8-8.6-2.5-13.1-3.1
					c-3.3-0.5-6.5-1.5-9.4-3c-0.6-0.3-1.3-0.6-1.9-0.4c-0.1,0-0.1,0.1-0.2,0.1C28,31.2,33.1,34.6,36.5,35.3z"/>
				<path id="XMLID_5_" class="st3" d="M63.3,7.2c-0.1-0.1-0.1-0.1-0.2-0.2c0,3.7-0.3,7.3-1.1,10.9c-0.1,0.4-0.2,0.8-0.5,1
					c-0.4,0.3-0.8,0.2-1.3,0.1c-3.7-1-6.6-3.9-9.3-6.6c2,5.8,6.2,10.7,11.6,13.5c-5-0.1-9.9-1.7-14-4.5c2.9,5,7.5,7,11.6,8.1
					c5.6,1.5,6.9,6.3,6.9,6.3c0.7-6.4-3.3-10.1-2.9-16.2C64.4,15.8,63.9,10.6,63.3,7.2z"/>
				<path id="XMLID_3_" class="st4" d="M72.3,31.8c-0.6,0.4-0.9,0.7-0.3,0.6c-0.7,0.5-0.6,0.6,0.4,0.5c-1,0.5-1.3,0.7-0.2,0.7
					c-0.9,0.4-0.5,0.5,0.5,0.5c-1,0.2-1.4,0.4-0.4,0.6c-1,0.2-0.8,0.3,0.3,0.6c-0.9,0-1.1,0.1-0.3,0.4c-0.6,0-0.2,0.2,0.4,0.4
					c-1.1-0.1-1.6-0.1-0.5,0.5c-1-0.3-1.3-0.2-0.5,0.3c-0.9-0.3-0.6,0,0.2,0.6c-1.1-0.4-1.6-0.6-0.7,0.1c-1.2-0.6-1-0.3,0,0.7
					c-1.2-0.7-1.5-0.8-0.7,0.2c-0.9-0.6-0.6-0.2,0.1,0.7c-0.7-0.7-1-0.9-0.6-0.1c-0.7-0.7-0.6-0.4-0.1,0.5c-0.8-0.9-0.7-0.4-0.3,0.5
					c-0.7-0.9-1.1-1.3-0.8,0c-0.5-1-0.8-1.2-0.6-0.2c-0.4-0.9-0.5-0.5-0.3,0.6c-0.4-1.2-0.7-1.7-0.7-0.5c-0.4-1.4-0.5-1.1-0.7,0.5
					c-0.2-1.5-0.3-1.8-0.7-0.5c0-1.2-0.3-0.7-0.7,0.5c0.1-1.1,0.1-1.5-0.3-0.6c0.2-1,0-0.8-0.6,0.2c0.3-1.3-0.1-0.9-0.7,0
					c0.4-1,0.5-1.5-0.3-0.6c0.5-1,0.6-1.3-0.1-0.6c0.5-0.9,0.2-0.7-0.6,0c0.8-1,1.1-1.5,0.1-0.8c0.9-1.1,0.6-1-0.8-0.3
					c1.1-1,1.3-1.3,0-0.8c1-0.7,0.4-0.6-0.8-0.3c1-0.5,1.3-0.8,0.3-0.6c0.9-0.4,0.6-0.5-0.5-0.4c1.2-0.5,0.7-0.6-0.4-0.7
					c1-0.2,1.5-0.4,0.3-0.5c1-0.1,1.3-0.2,0.4-0.4c0.9-0.1,0.6-0.2-0.4-0.4c1.1,0,1.6,0,0.6-0.3c1.3,0.1,1-0.1-0.2-0.6
					c1.3,0.3,1.6,0.2,0.5-0.4c1,0.3,0.6-0.1-0.3-0.7c0.9,0.4,1.3,0.4,0.6-0.1c0.9,0.4,0.7,0.1-0.1-0.5c1.1,0.5,0.9,0.1,0.2-0.7
					c0.6,0.4,0.9,0.6,0.6,0.1c0.7,0.5,0.7,0.3,0.2-0.5c0.8,0.7,1.1,0.8,0.7-0.1c0.7,0.6,0.6,0.2,0.2-0.7c0.6,0.8,1,1.1,0.7,0.1
					c0.6,0.8,0.7,0.5,0.4-0.6c0.5,0.8,0.6,0.9,0.6,0c0.3,0.5,0.3,0.1,0.3-0.6c0.4,1.1,0.7,1.5,0.9,0.2c0.2,1,0.3,1.3,0.6,0.3
					c0.1,0.9,0.3,0.5,0.6-0.4c0,1,0.1,1.3,0.4,0.5c-0.1,1,0.2,0.8,0.6-0.2c-0.2,1.3,0.2,1,0.9,0.1c-0.3,1.1-0.4,1.6,0.6,0.7
					c-0.5,0.9-0.5,1.2,0.2,0.6c-0.4,0.8-0.1,0.6,0.7,0.1c-0.6,0.8-0.7,1.1,0,0.7c-0.6,0.7-0.3,0.7,0.6,0.2
					C70.7,32.2,71.2,32.1,72.3,31.8z"/>
			</g>
			<path class="st1" d="M41,29.7c-1.9-0.6-3.8-1-5.8-1.2c0,9.6,0,19.1,0,28.7c0,0.1,0,0.2,0,0.4c0.1-0.1,0.2-0.1,0.3-0.2
				c4.9-2.8,9.7-5.6,14.6-8.4c0.2-0.1,0.3-0.3,0.3-0.5c0-4.6,0-9.2,0-13.9C48.5,33.1,45.2,31.1,41,29.7z"/>
		</g>
	</g>
</g>
</svg>
