<?xml version="1.0" encoding="utf-8"?>
<!-- Generator: Adobe Illustrator 16.0.0, SVG Export Plug-In . SVG Version: 6.00 Build 0)  -->
<!DOCTYPE svg PUBLIC "-//W3C//DTD SVG 1.1//EN" "http://www.w3.org/Graphics/SVG/1.1/DTD/svg11.dtd">
<svg version="1.1" id="Capa_1" xmlns="http://www.w3.org/2000/svg" xmlns:xlink="http://www.w3.org/1999/xlink" x="0px" y="0px"
	 width="232px" height="64px" viewBox="0 0 232 64" enable-background="new 0 0 232 64" xml:space="preserve">
<g>
	<g>
		<path fill="#00C86B" d="M89.504,33.078c1.943-2.113,4.156-2.816,6.676-2.794c4.734,0.042,8.425,3.646,8.597,8.416
			c0.098,2.727-0.292,5.292-2.16,7.446c-2.012,2.326-4.61,3.06-7.571,2.871c-2.07-0.129-3.864-0.896-5.465-2.49
			c-0.027,0.457-0.055,0.718-0.055,0.979c-0.003,2.378-0.027,4.757,0.014,7.136c0.011,0.742-0.177,1.051-0.98,1.022
			c-1.954-0.065-1.66,0.192-1.663-1.688c-0.01-7.445,0.003-14.89-0.015-22.334c-0.001-0.713,0.046-1.157,0.966-1.123
			c1.614,0.056,1.635,0.012,1.657,1.143C89.508,32.027,89.504,32.394,89.504,33.078z M89.384,39.369
			c0.164,1.089,0.175,2.229,0.52,3.256c0.769,2.313,3.221,3.938,5.715,3.979c2.605,0.047,4.825-1.408,5.813-3.805
			c1.361-3.293,0.458-7.135-2.15-8.914c-2.13-1.454-4.408-1.546-6.643-0.311C90.41,34.809,89.143,36.658,89.384,39.369z"/>
		<path fill="#00C86B" d="M171.459,37.678c0.367-2.436-1.287-4.613-3.729-4.884c-2.447-0.271-4.598,0.308-6.18,2.362
			c-0.492,0.643-0.979,0.58-2.002-0.137c-0.622-0.436-0.47-0.938-0.141-1.445c1.066-1.647,2.642-2.602,4.488-3.051
			c1.973-0.479,3.981-0.535,5.944,0.104c2.671,0.874,4.3,3,4.347,5.816c0.066,3.83,0.057,7.662,0.027,11.492
			c0,0.258-0.423,0.521-0.667,0.762c-0.047,0.047-0.178,0.005-0.271,0.005c-1.508,0.026-1.506,0.026-1.629-1.495
			c-0.018-0.214-0.065-0.422-0.129-0.813c-1.229,1.275-2.615,2.055-4.223,2.313c-1.966,0.317-3.939,0.372-5.83-0.425
			c-1.749-0.737-2.744-2.063-2.912-3.958c-0.178-2.011,0.493-3.65,2.291-4.706c1.631-0.954,3.442-1.342,5.291-1.531
			C167.911,37.906,169.691,37.811,171.459,37.678z M171.521,40.16c-1.117,0-2.16-0.072-3.191,0.017
			c-1.872,0.161-3.751,0.355-5.443,1.271c-0.955,0.517-1.592,1.281-1.547,2.434c0.045,1.068,0.663,1.791,1.59,2.2
			c2.2,0.974,4.299,0.545,6.229-0.712C171,44.169,171.771,42.404,171.521,40.16z"/>
		<path fill="#00C86B" d="M204.025,30.291c5.521-0.015,9.377,3.837,9.389,9.377c0.008,5.523-3.775,9.363-9.26,9.396
			c-5.656,0.031-9.487-3.731-9.5-9.332C194.641,34.08,198.389,30.304,204.025,30.291z M203.984,46.598
			c3.69-0.005,6.73-3.095,6.729-6.846c-0.002-3.826-3.036-6.993-6.694-6.988c-3.658,0.006-6.679,3.119-6.684,6.891
			C197.334,43.402,200.396,46.6,203.984,46.598z"/>
		<path fill="#00C86B" d="M81.316,46.57c-2.437,2.467-5.236,2.854-8.215,2.188c-2.951-0.66-4.97-3.181-5.057-6.313
			c-0.103-3.705-0.045-7.414-0.072-11.124c-0.003-0.583,0.211-0.813,0.818-0.829c1.858-0.05,1.854-0.071,1.856,1.738
			c0.002,2.935-0.018,5.871,0.031,8.805c0.014,0.76,0.154,1.549,0.405,2.265c0.999,2.85,3.934,3.979,6.93,2.612
			c2.034-0.929,3.364-2.375,3.286-4.861c-0.103-3.178-0.002-6.366-0.041-9.549c-0.011-0.776,0.239-1.087,1.004-0.999
			c0.244,0.027,0.496,0.024,0.739,0c0.738-0.075,0.963,0.256,0.961,0.973c-0.021,5.438-0.02,10.878,0,16.315
			c0.002,0.705-0.206,1.063-0.952,0.979c-0.151-0.02-0.308-0.004-0.463-0.004c-1.22-0.002-1.222-0.002-1.23-1.213
			C81.316,47.313,81.316,47.068,81.316,46.57z"/>
		<path fill="#00C86B" d="M218.355,32.744c1.729-1.773,3.646-2.458,5.843-2.454c4.534,0.007,7.362,2.709,7.462,7.283
			c0.076,3.458,0.009,6.921,0.025,10.381c0.006,0.584-0.168,0.848-0.787,0.843c-2.229-0.021-1.92,0.18-1.922-1.832
			c-0.01-2.813,0.012-5.626-0.021-8.436c-0.004-0.705-0.089-1.424-0.267-2.104c-1.084-4.162-5.697-4.4-8.434-2.233
			c-1.268,1.009-1.979,2.25-1.922,3.986c0.104,3.146-0.006,6.303,0.055,9.452c0.018,0.968-0.307,1.302-1.22,1.16
			c-0.12-0.019-0.25-0.015-0.371,0.003c-0.793,0.111-1.071-0.186-1.067-1.021c0.037-5.379,0.037-10.754,0.004-16.129
			c-0.004-0.824,0.177-1.249,1.074-1.106c0.209,0.033,0.432,0.021,0.646,0.001c0.688-0.063,0.967,0.243,0.903,0.923
			C218.33,31.79,218.355,32.127,218.355,32.744z"/>
		<path fill="#00C86B" d="M148.698,30.081c3.288,0.13,5.967,1.318,7.864,4.06c0.408,0.588,0.619,1.127-0.182,1.627
			c-1.249,0.774-1.604,0.789-2.163-0.074c-1.563-2.414-3.809-3.361-6.599-2.908c-2.727,0.445-4.494,2.122-5.276,4.734
			c-1.397,4.658,1.954,9.135,6.73,8.961c2.149-0.078,3.885-1.117,5.118-2.914c0.634-0.918,1.011-0.936,2.232-0.174
			c0.875,0.545,0.503,1.164,0.105,1.724c-2.029,2.835-4.877,3.989-8.273,3.836c-4.525-0.202-7.787-2.738-8.688-6.951
			c-1.131-5.301,1.179-9.901,6.045-11.377C146.605,30.322,147.668,30.257,148.698,30.081z"/>
		<path fill="#00C86B" d="M180.938,30.453c1.513,0,3.049,0.002,4.588,0c1.192-0.002,1.16,0.02,1.229,1.273
			c0.051,0.906-0.186,1.281-1.17,1.228c-1.537-0.082-3.082-0.021-4.711-0.021c-0.031,0.313-0.079,0.577-0.079,0.838
			c-0.001,3.186,0.004,6.371,0.017,9.554c0.002,0.306,0.055,0.61,0.102,0.916c0.383,2.59,2.827,2.635,4.173,1.507
			c0.625-0.521,1.485-0.445,2.032,0.216c0.529,0.644,0.054,1.14-0.363,1.608c-1.136,1.275-2.658,1.402-4.184,1.264
			c-2.948-0.263-4.387-1.902-4.4-4.884c-0.016-3.31-0.004-6.615-0.005-9.921c0-0.332,0-0.664,0-1.098
			c-0.812,0-1.513-0.023-2.214,0.006c-0.585,0.024-0.885-0.176-0.824-0.796c0.023-0.246,0.025-0.496-0.002-0.741
			c-0.085-0.748,0.268-0.998,0.977-0.959c0.64,0.036,1.285,0.008,2.063,0.008c0-1.12,0.04-2.16-0.015-3.197
			c-0.037-0.75,0.18-1.042,0.981-1.013c1.802,0.066,1.669-0.179,1.66,1.638c-0.006,0.74,0.006,1.481,0.021,2.224
			C180.811,30.187,180.866,30.27,180.938,30.453z"/>
		<path fill="#00C86B" d="M128.063,35.991c0-3.861,0-7.721,0-11.583c-0.002-1.135,0.047-1.183,1.211-1.187c0.029,0,0.063,0,0.093,0
			c1.409,0,1.409,0,1.407,1.366c0,2.842,0,5.683,0,8.524c-0.002,4.851,0,9.697-0.002,14.547c0,1.127-0.01,1.082-1.627,1.14
			c-0.886,0.033-1.104-0.306-1.097-1.133C128.081,43.773,128.063,39.883,128.063,35.991z"/>
		<path fill="#00C86B" d="M136.9,39.675c-0.002,2.687-0.024,5.372,0.013,8.058c0.013,0.817-0.28,1.142-1.08,1.039
			c-0.213-0.026-0.437-0.027-0.647-0.004c-0.787,0.09-1.009-0.285-1.002-1.027c0.024-3.147,0.012-6.297,0.012-9.445
			c0-2.222,0.033-4.445-0.016-6.666c-0.018-0.869,0.301-1.202,1.137-1.088c0.06,0.007,0.123,0,0.185,0
			c1.403-0.003,1.403-0.003,1.403,1.449C136.9,34.551,136.902,37.113,136.9,39.675z"/>
		<path fill="#00C86B" d="M192.027,39.611c0,2.752-0.021,5.498,0.015,8.248c0.009,0.736-0.237,0.964-0.96,0.957
			c-1.729-0.019-1.73,0.016-1.73-1.67c0-5.156,0.021-10.315-0.018-15.475c-0.009-0.901,0.266-1.184,1.157-1.151
			c1.532,0.057,1.534,0.009,1.534,1.584C192.025,34.607,192.025,37.109,192.027,39.611z"/>
		<path fill="#00C86B" d="M134.198,25.187c0,0.019,0-0.167-0.001-0.353c-0.02-1.632-0.02-1.597,1.621-1.628
			c0.805-0.017,1.127,0.253,1.08,1.065c-0.047,0.861-0.023,1.728-0.016,2.591c0.006,0.51-0.223,0.713-0.732,0.706
			C133.84,27.539,134.232,27.823,134.198,25.187z"/>
		<path fill="#00C86B" d="M192.023,25.508c-0.002,0.092,0,0.186-0.002,0.278c-0.008,1.957-0.011,1.979-2.021,1.75
			c-0.239-0.027-0.604-0.407-0.62-0.644c-0.07-0.983-0.023-1.974-0.029-2.961c-0.006-0.514,0.237-0.719,0.738-0.708
			C192.333,23.264,191.998,22.873,192.023,25.508z"/>
		<path fill="#00C86B" d="M109.982,33.078c1.942-2.113,4.154-2.816,6.675-2.794c4.735,0.042,8.427,3.646,8.6,8.416
			c0.095,2.727-0.294,5.292-2.163,7.446c-2.012,2.326-4.609,3.06-7.571,2.871c-2.069-0.129-3.865-0.896-5.466-2.49
			c-0.026,0.457-0.053,0.718-0.053,0.979c-0.004,2.378-0.027,4.757,0.013,7.136c0.012,0.742-0.178,1.051-0.977,1.022
			c-1.955-0.065-1.663,0.192-1.667-1.688c-0.01-7.445,0.003-14.89-0.012-22.334c-0.002-0.713,0.043-1.157,0.965-1.123
			c1.613,0.056,1.633,0.012,1.656,1.143C109.985,32.027,109.982,32.394,109.982,33.078z M109.861,39.369
			c0.164,1.089,0.175,2.229,0.519,3.256c0.771,2.313,3.222,3.938,5.716,3.979c2.606,0.047,4.827-1.408,5.816-3.805
			c1.357-3.293,0.457-7.135-2.154-8.914c-2.13-1.454-4.405-1.546-6.64-0.311C110.886,34.809,109.62,36.658,109.861,39.369z"/>
	</g>
	<g>
		
			<linearGradient id="SVGID_1_" gradientUnits="userSpaceOnUse" x1="228.498" y1="-327.4595" x2="228.498" y2="-280.9514" gradientTransform="matrix(1 0 0 -1 -220.04 -279.3398)">
			<stop  offset="0" style="stop-color:#00AAAA"/>
			<stop  offset="0.2172" style="stop-color:#00BA8A"/>
			<stop  offset="0.6911" style="stop-color:#00E338"/>
			<stop  offset="1" style="stop-color:#00FF00"/>
		</linearGradient>
		<polygon opacity="0.3" fill="url(#SVGID_1_)" enable-background="new    " points="0,9.765 16.916,0 16.916,38.936 0,48.673 		"/>
		
			<linearGradient id="SVGID_2_" gradientUnits="userSpaceOnUse" x1="258.7988" y1="-339.7451" x2="215.521" y2="-316.2646" gradientTransform="matrix(1 0 0 -1 -220.04 -279.3398)">
			<stop  offset="0" style="stop-color:#00AAAA"/>
			<stop  offset="0.2172" style="stop-color:#00BA8A"/>
			<stop  offset="0.6911" style="stop-color:#00E338"/>
			<stop  offset="1" style="stop-color:#00FF00"/>
		</linearGradient>
		<polygon opacity="0.45" fill="url(#SVGID_2_)" enable-background="new    " points="25.263,63.256 42.182,53.488 0,29.203 
			0,48.667 		"/>
		
			<linearGradient id="SVGID_3_" gradientUnits="userSpaceOnUse" x1="274.6309" y1="-316.0576" x2="232.731" y2="-340.0004" gradientTransform="matrix(1 0 0 -1 -220.04 -279.3398)">
			<stop  offset="0" style="stop-color:#00AAAA"/>
			<stop  offset="0.2172" style="stop-color:#00BA8A"/>
			<stop  offset="0.6911" style="stop-color:#00E338"/>
			<stop  offset="1" style="stop-color:#00FF00"/>
		</linearGradient>
		<polygon opacity="0.6" fill="url(#SVGID_3_)" enable-background="new    " points="50.649,48.663 50.649,29.128 8.49,53.572 
			25.385,63.248 		"/>
		
			<linearGradient id="SVGID_4_" gradientUnits="userSpaceOnUse" x1="262.2207" y1="-289.709" x2="262.2207" y2="-338.5159" gradientTransform="matrix(1 0 0 -1 -220.04 -279.3398)">
			<stop  offset="0" style="stop-color:#00AAAA"/>
			<stop  offset="0.2172" style="stop-color:#00BA8A"/>
			<stop  offset="0.6911" style="stop-color:#00E338"/>
			<stop  offset="1" style="stop-color:#00FF00"/>
		</linearGradient>
		<polygon opacity="0.7" fill="url(#SVGID_4_)" enable-background="new    " points="33.723,19.427 33.723,58.374 50.638,48.6 
			50.638,9.661 		"/>
	</g>
</g>
</svg>
