<?xml version="1.0" encoding="utf-8"?>
<!-- Generator: Adobe Illustrator 21.1.0, SVG Export Plug-In . SVG Version: 6.00 Build 0)  -->
<svg version="1.1" id="Capa_1" xmlns="http://www.w3.org/2000/svg" xmlns:xlink="http://www.w3.org/1999/xlink" x="0px" y="0px"
	 viewBox="0 0 232 73" style="enable-background:new 0 0 232 73;" xml:space="preserve">
<style type="text/css">
	.st0{fill:#00C86B;}
	.st1{fill:#A8ADB1;}
</style>
<g>
	<g>
		<g>
			<path class="st0" d="M93.1,30H93c-2.5,0-4.5,0.8-6.2,2.3c0-0.3,0-0.5,0-0.7c0-1.3-0.3-1.4-1.7-1.4h-0.3c-0.4,0-0.7,0.1-0.9,0.3
				c-0.3,0.3-0.3,0.7-0.3,1.1c0,4.3,0,8.6,0,12.9c0,3.1,0,6,0,9.1c0,0.2,0,0.4,0,0.6c0,0.5,0,0.9,0.2,1.1c0.2,0.2,0.5,0.2,1.1,0.2
				c0.2,0,0.4,0,0.6,0h0.1c0.4,0,0.7-0.1,0.9-0.3c0.3-0.3,0.3-0.7,0.3-1c-0.1-1.8,0-3.6,0-5.3v-1.7c0-0.1,0-0.2,0-0.4
				c1.5,1.3,3.2,2,5.1,2.1c0.3,0,0.6,0.1,0.9,0.1l0,0c2.9,0,5.1-1,6.8-2.9c2.1-2.4,2.3-5.3,2.2-7.5C101.6,33.7,97.9,30,93.1,30z
				 M98,42.5c-0.9,2.2-2.9,3.6-5.3,3.6h-0.1c-2.4-0.1-4.7-1.6-5.4-3.7c-0.2-0.7-0.3-1.4-0.4-2.1c-0.1-0.3-0.1-0.7-0.1-1
				c-0.2-2.4,0.8-4.2,3.1-5.4c1-0.5,2-0.8,2.9-0.8c1.1,0,2.2,0.4,3.3,1.1C98.4,35.7,99.3,39.3,98,42.5z"/>
			<path class="st0" d="M231.6,37.4c-0.1-4.6-2.9-7.4-7.6-7.4c-2.2,0-3.9,0.7-5.4,2.1c0-0.2,0-0.4,0-0.6c0.1-0.4-0.1-0.7-0.2-0.9
				c-0.2-0.2-0.5-0.3-1-0.3c-0.2,0-0.4,0.1-0.5,0c-0.5-0.1-0.8,0-1,0.2c-0.3,0.3-0.3,0.7-0.3,1.1c0.1,5.4,0.1,10.7,0,15.9
				c0,0.5,0.1,0.8,0.3,1c0.2,0.2,0.5,0.3,1,0.2c0.1,0,0.2,0,0.3,0c0.2,0,0.3,0.1,0.4,0.1c0.3,0,0.6-0.1,0.8-0.3
				c0.2-0.2,0.3-0.6,0.3-1.1c0-1.4,0-2.8,0-4.1c0-1.7,0-3.4-0.1-5.2c-0.1-1.5,0.5-2.7,1.8-3.7c1-0.8,2.3-1.3,3.6-1.3
				c2.1,0,3.7,1.3,4.3,3.3c0.2,0.6,0.3,1.3,0.3,2c0,1.8,0,3.6,0,5.4c0,1,0,1.9,0,2.9c0,0.2,0,0.4,0,0.7c0,0.6,0,1,0.2,1.2
				c0.2,0.3,0.6,0.3,1.4,0.3h0.6l0,0c0.3,0,0.6-0.1,0.8-0.3c0.2-0.2,0.3-0.6,0.3-0.9c0-1.3,0-2.6,0-3.9
				C231.6,41.7,231.6,39.6,231.6,37.4z"/>
			<path class="st0" d="M189.2,27.9c0.5,0.1,0.9,0.1,1.1,0.1l0,0c1.1,0,1.1-0.7,1.1-2.1v-0.3c0-0.3,0-0.6,0-0.9c0-0.8,0-1.2-0.2-1.4
				c-0.2-0.2-0.5-0.2-1-0.2h-0.6c-0.1,0-0.3,0-0.4,0c-0.3,0-0.5,0.1-0.7,0.3c-0.2,0.2-0.2,0.4-0.2,0.7c0,0.3,0,0.7,0,0.9
				c0,0.7,0,1.3,0.1,2C188.3,27.3,188.8,27.8,189.2,27.9z"/>
			<path class="st0" d="M80.5,30.5c-0.2-0.2-0.5-0.3-0.9-0.3c-0.2,0-0.4,0-0.7,0c-0.5-0.1-0.8,0-1,0.3c-0.3,0.3-0.3,0.7-0.3,1
				c0,1.3,0,2.6,0,3.8c0,1.9,0,3.7,0.1,5.6c0.1,2.1-0.9,3.5-3.1,4.5c-0.8,0.4-1.6,0.5-2.3,0.5c-1.9,0-3.4-1.1-4.1-2.9
				c-0.2-0.7-0.4-1.4-0.4-2.1c-0.1-2.2-0.1-4.4-0.1-6.5v-2.1c0-1.5,0-2-1.4-2c-0.2,0-0.4,0-0.7,0h-0.1c-0.7,0-1.1,0.4-1.1,1.1
				c0,1.3,0,2.5,0,3.8c0,2.3,0,4.8,0.1,7.2c0.1,3.2,2.2,5.8,5.2,6.5c0.9,0.2,1.7,0.3,2.5,0.3c2.1,0,3.9-0.7,5.4-2.1v0.3
				c0,1.4,0.1,1.5,1.5,1.5h0.3c0.1,0,0.1,0,0.2,0c0.1,0,0.2,0,0.2,0c0.3,0,0.5-0.1,0.7-0.3c0.2-0.2,0.3-0.5,0.3-1c0-5.7,0-11,0-16.1
				C80.8,31.1,80.8,30.7,80.5,30.5z"/>
			<path class="st0" d="M113.8,30h-0.1c-2.5,0-4.5,0.8-6.2,2.3c0-0.3,0-0.5,0-0.7c0-1.3-0.2-1.3-1.7-1.4h-0.3
				c-0.4,0-0.7,0.1-0.9,0.3c-0.3,0.3-0.3,0.7-0.3,1.1c0,4.1,0,8.3,0,12.4c0,3.2,0,6.4,0,9.5c0,0.2,0,0.4,0,0.6c0,0.5,0,0.9,0.2,1.1
				c0.2,0.2,0.5,0.2,1.1,0.2c0.2,0,0.4,0,0.6,0h0.1c0.4,0,0.7-0.1,0.9-0.3c0.3-0.3,0.3-0.7,0.3-1c-0.1-1.8,0-3.6,0-5.3v-1.7
				c0-0.1,0-0.2,0-0.4c1.5,1.3,3.2,2,5.1,2.1c0.3,0,0.6,0.1,0.9,0.1l0,0c2.9,0,5.1-1,6.8-2.9c2.1-2.4,2.3-5.3,2.2-7.5
				C122.4,33.7,118.6,30,113.8,30z M118.7,42.5c-0.9,2.2-2.9,3.6-5.3,3.6h-0.1c-2.4-0.1-4.7-1.6-5.4-3.7c-0.2-0.7-0.3-1.4-0.4-2.1
				c-0.1-0.3-0.1-0.7-0.1-1c-0.2-2.4,0.8-4.2,3.1-5.4c1-0.5,2-0.8,2.9-0.8c1.1,0,2.2,0.4,3.3,1.1C119.1,35.7,120,39.3,118.7,42.5z"
				/>
			<path class="st0" d="M132.1,27.6c0.3,0.3,0.7,0.3,1.4,0.3h0.1c0.2,0,0.3,0,0.5,0l0,0c0.3,0,0.5-0.1,0.7-0.3
				c0.2-0.2,0.2-0.4,0.2-0.7v-0.4c0-0.7,0-1.4,0-2.1c0-0.5-0.1-0.8-0.3-1c-0.2-0.2-0.5-0.3-1-0.3h-0.2c-1.7,0.1-1.8,0.2-1.7,1.9
				c0,0.2,0,0.3,0,0.3v0.1l0,0c0,0.3,0,0.6,0,0.8C131.8,27,131.8,27.4,132.1,27.6z M133.5,27.6L133.5,27.6L133.5,27.6L133.5,27.6z
				 M134.1,27.6L134.1,27.6L134.1,27.6L134.1,27.6z"/>
			<path class="st0" d="M203.5,30c-5.7,0-9.5,3.9-9.5,9.5s3.9,9.4,9.5,9.4h0.1c5.6-0.1,9.4-3.9,9.4-9.5
				C213.1,33.9,209.2,30,203.5,30z M203.5,32.7V33c3.5,0,6.3,2.9,6.3,6.6c0,3.5-2.8,6.5-6.4,6.5c-1.6,0-3.1-0.7-4.3-1.9
				c-1.3-1.3-2-3-2-4.7c0-3.6,2.8-6.5,6.3-6.5V32.7L203.5,32.7z"/>
			<path class="st0" d="M168.4,30.4c-1.9-0.6-3.8-0.7-6-0.1c-2,0.5-3.5,1.5-4.6,3.1c-0.2,0.3-0.7,1.1,0.2,1.8c0.7,0.4,1,0.6,1.4,0.6
				c0.5,0,0.8-0.3,0.9-0.5c1.4-1.8,3.3-2.5,5.8-2.2c1.1,0.1,2,0.7,2.7,1.5c0.6,0.8,0.9,1.8,0.8,2.8c-0.4,0.1-0.9,0.1-1.4,0.1
				c-1.2,0.1-2.5,0.2-3.7,0.3c-2.2,0.2-3.9,0.7-5.3,1.5c-1.8,1-2.6,2.7-2.4,4.9c0.2,2,1.2,3.3,3.1,4.1c1,0.4,2.2,0.7,3.4,0.7
				c0.7,0,1.5-0.1,2.5-0.2c1.5-0.2,2.8-0.9,3.9-2c0,0.1,0.1,0.2,0.1,0.3c0.1,1.3,0.2,1.7,1.4,1.7c0.1,0,0.3,0,0.4,0h0.1
				c0.1,0,0.1,0,0.1,0c0.1,0,0.2-0.1,0.3-0.1c0.1-0.1,0.1-0.1,0.2-0.2c0.3-0.2,0.5-0.4,0.5-0.8c0-3.4,0.1-7.4,0-11.3
				C172.8,33.5,171.1,31.2,168.4,30.4z M168,40.2c0.3,0,0.7,0,0.9,0s0.5,0,0.8,0c0.2,2-0.6,3.5-2.2,4.6c-2,1.3-4,1.5-5.9,0.7
				c-0.9-0.4-1.4-1-1.4-1.9c-0.1-0.9,0.4-1.6,1.4-2.1c1.7-0.9,3.7-1.1,5.2-1.2C167.1,40.2,167.5,40.2,168,40.2z"/>
			<path class="st0" d="M191.5,41.7c0-0.8,0-1.5,0-2.3V32c0-1.6-0.1-1.7-1.6-1.9h-0.3c-0.3,0-0.7,0.1-1,0.3
				c-0.3,0.3-0.3,0.8-0.3,1.1c0.1,3.8,0,7.6,0,11.4v3.9c0,1.8,0.1,1.9,1.9,1.9h0.1c0.3,0,0.7-0.1,0.9-0.3c0.2-0.2,0.3-0.5,0.3-0.9
				C191.5,45.6,191.5,43.7,191.5,41.7z M190.3,48.5L190.3,48.5L190.3,48.5L190.3,48.5z"/>
			<path class="st0" d="M183.7,45.3c-0.5,0.4-1.1,0.7-1.7,0.7c-1.1,0-1.8-0.7-2-2v-0.1c-0.1-0.3-0.1-0.5-0.1-0.8c0-3.1,0-6.3,0-9.4
				c0-0.2,0-0.3,0.1-0.5v-0.1c0.4,0,0.8,0,1.2,0c0.4,0,0.9,0,1.4,0c0.7,0,1.3,0,1.8,0.1c0.5,0.1,0.9-0.1,1.1-0.3
				c0.3-0.3,0.3-0.8,0.3-1.2v-0.1c-0.1-1.3-0.2-1.4-1.4-1.4h-1.6H180c0-0.1-0.1-0.1-0.1-0.1c0-0.7,0-1.5,0-2.2v-0.3
				c0-1.3-0.1-1.5-1.4-1.5c-0.2,0-0.3,0-0.5,0h-0.1c-0.4,0-0.7,0.1-0.9,0.3c-0.3,0.3-0.3,0.7-0.3,1c0.1,0.7,0.1,1.4,0,2.1
				c0,0.2,0,0.5,0,0.7c-0.2,0-0.3,0-0.4,0c-0.5,0-0.9,0-1.3,0c-0.5,0-0.8,0.1-1,0.3c-0.2,0.2-0.3,0.5-0.2,0.9c0,0.2,0,0.4,0,0.7
				c-0.1,0.4,0.1,0.6,0.2,0.8c0.2,0.2,0.4,0.3,0.8,0.3h0.1c0.5,0,0.9,0,1.5,0c0.2,0,0.3,0,0.4,0v4c0,2.2,0,4.4,0,6.6
				c0,3.1,1.6,4.8,4.6,5.1c0.3,0.1,0.6,0.1,0.9,0.1c1.5,0,2.6-0.4,3.4-1.4l0.1-0.1c0.4-0.4,1-1.1,0.3-1.9
				C185.5,44.8,184.4,44.7,183.7,45.3z"/>
			<path class="st0" d="M135.1,41.7v-9.8c0-0.8,0-1.1-0.2-1.4c-0.3-0.3-0.7-0.3-1.3-0.3h-0.3c-0.5-0.1-0.9,0-1.1,0.3
				c-0.2,0.2-0.3,0.6-0.3,1.1c0.1,1.5,0,3.1,0,4.6c0,0.7,0,1.3,0,1.9v2.6c0,2.2,0,4.5,0,6.8c0,0.3,0,0.8,0.3,1
				c0.2,0.2,0.5,0.3,1,0.3c0.2,0,0.4,0,0.5,0c0.1,0,0.2,0,0.3,0c0.3,0,0.6-0.1,0.8-0.3c0.2-0.2,0.3-0.5,0.3-1
				C135.1,45.5,135.1,43.5,135.1,41.7z"/>
			<path class="st0" d="M126.8,23.1h-0.1c-1.3,0-1.5,0.2-1.5,1.4v14.4c0,2.8,0,5.7,0,8.5c0,0.4,0.1,0.8,0.3,1.1
				c0.2,0.2,0.5,0.3,0.9,0.3h0.3c1.5-0.1,1.7-0.1,1.7-1.4c0-3,0-5.9,0-8.9V24.7c0-0.8,0-1.1-0.3-1.4C128,23.1,127.6,23.1,126.8,23.1
				z"/>
			<path class="st0" d="M154.7,42.9c-0.6-0.4-1-0.6-1.4-0.6c-0.5,0-0.8,0.3-1.1,0.8c-1.2,1.7-2.8,2.7-4.8,2.7
				c-2.2,0.1-4.1-0.9-5.4-2.6c-1.3-1.7-1.6-3.8-1-5.9c0.8-2.6,2.5-4,5-4.5c2.7-0.4,4.7,0.5,6.2,2.7c0.3,0.4,0.5,0.8,1,0.8
				c0.4,0,0.8-0.2,1.5-0.6c0.4-0.2,0.6-0.5,0.7-0.8c0.1-0.4-0.2-0.8-0.4-1.2c-1.8-2.6-4.4-4-8-4.1h-0.1h-0.1c-0.3,0.1-0.7,0.1-1,0.2
				c-0.7,0.1-1.4,0.2-2.1,0.4c-4.8,1.5-7.3,6.1-6.2,11.5c0.9,4.2,4.2,6.9,8.8,7c0.2,0,0.4,0,0.6,0l0,0c3.3,0,5.9-1.3,7.8-3.9
				c0.3-0.4,0.5-0.8,0.4-1.3C155.3,43.4,155,43.2,154.7,42.9z"/>
		</g>
		<path class="st0" d="M0.6,47.5c0-0.2,0-0.3,0-0.4c0-6.3,0-12.5,0-18.9c0-5.8,0-11.6,0.1-17.3c0-0.2,0.1-0.4,0.3-0.5
			c5.2-3.1,10.5-6.1,15.7-9.1c0.1-0.1,0.2-0.1,0.3-0.2c0,0.2,0,0.3,0,0.4c0,12.1-0.1,24.2-0.1,36.3c0,0.2-0.1,0.3-0.2,0.4
			c-1.1,0.7-2.2,1.3-3.3,1.9c-1.4,0.8-2.7,1.6-4.1,2.4c-1.3,0.7-2.5,1.4-3.8,2.2c-1.5,0.9-2.9,1.7-4.4,2.6
			C0.8,47.4,0.7,47.5,0.6,47.5z M34.9,56.6c4.8-2.8,9.6-5.5,14.4-8.3c0.2-0.1,0.3-0.3,0.3-0.5c0-5.3,0-10.7,0-16c0-7,0-14,0-20.9
			c0-0.1,0-0.2,0-0.4c-0.2,0.1-0.3,0.2-0.4,0.2c-4.7,2.8-9.5,5.5-14.3,8.3c-0.3,0.2-0.3,0.3-0.3,0.6c0,12.3,0,24.5,0,36.8
			c0,0.1,0,0.2,0,0.4C34.8,56.7,34.9,56.6,34.9,56.6z M2,49c1.4,0.8,2.8,1.6,4.3,2.5c3.1,1.8,6.2,3.5,9.3,5.3
			c3.1,1.8,6.2,3.6,9.3,5.4c0.2,0.1,0.3,0.1,0.5,0c2.4-1.4,4.8-2.8,7.2-4.1c0.2-0.1,0.3-0.2,0.3-0.4c0-2.7,0-5.4,0-8.2
			c0-0.2-0.1-0.3-0.3-0.4c-2.8-1.6-5.5-3.2-8.3-4.8c-2.3-1.3-4.5-2.6-6.8-4c-0.3-0.2-0.4-0.2-0.7,0c-2.9,1.7-5.9,3.4-8.8,5.1
			c-2.1,1.2-4.1,2.4-6.2,3.7C1.9,48.9,1.9,49,2,49z M26.6,43.3c2.1,1.2,4.1,2.4,6.2,3.6c0-2.5,0-4.8,0-7.2
			C30.7,40.9,28.7,42.1,26.6,43.3z"/>
	</g>
	<g>
		<path class="st1" d="M157.9,68.1v-11h1.6V62c0.4-0.8,1.4-1.1,2.4-1.1c1.9,0,3.5,1.4,3.5,3.7c0,2.2-1.6,3.7-3.5,3.7
			c-1,0-1.9-0.4-2.3-1.2v1L157.9,68.1L157.9,68.1z M161.6,66.7c1.2,0,2.1-0.9,2.1-2.2s-1-2.2-2.1-2.2c-1.1,0-2.2,0.8-2.2,2.2
			C159.5,65.9,160.4,66.7,161.6,66.7z"/>
		<path class="st1" d="M168.9,71.5h-1.6l1.5-3.8l-2.8-6.8h1.7l2,4.8l2-4.8h1.7L168.9,71.5z"/>
		<path class="st1" d="M183,58.6h-0.8c-1,0-1.3,0.8-1.3,1.7v0.7h1.6v1.3H181V68h-1.6v-5.8H178v-1.3h1.4v-0.7c0-2,0.9-3.2,2.8-3.2
			h0.8L183,58.6L183,58.6z"/>
		<path class="st1" d="M185.2,57.1c0.6,0,1,0.4,1,1s-0.4,1-1,1c-0.5,0-1-0.4-1-1C184.1,57.5,184.6,57.1,185.2,57.1z M185.9,61h-1.5
			v7.1h1.5V61z"/>
		<path class="st1" d="M188.1,68.1v-11h1.6V62c0.4-0.8,1.4-1.1,2.4-1.1c1.9,0,3.5,1.4,3.5,3.7c0,2.2-1.6,3.7-3.5,3.7
			c-1,0-1.9-0.4-2.3-1.2v1L188.1,68.1L188.1,68.1z M191.9,66.7c1.2,0,2.1-0.9,2.1-2.2s-1-2.2-2.1-2.2c-1.1,0-2.2,0.8-2.2,2.2
			C189.7,65.9,190.7,66.7,191.9,66.7z"/>
		<path class="st1" d="M197,64.5c0-2.2,1.7-3.7,3.7-3.7c2,0,3.7,1.4,3.7,3.7c0,2.2-1.7,3.7-3.7,3.7C198.7,68.2,197,66.7,197,64.5z
			 M202.8,64.5c0-1.3-1-2.1-2.2-2.1c-1.1,0-2.1,0.8-2.1,2.1c0,1.4,1,2.2,2.1,2.2C201.9,66.7,202.8,65.8,202.8,64.5z"/>
		<path class="st1" d="M207.7,68.1h-1.6V61h1.6v1.1c0.4-0.8,1.4-1.2,2.2-1.2c1.7,0,2.7,1.1,2.7,3.1v4.1h-1.6v-3.9
			c0-1.1-0.6-1.7-1.5-1.7c-0.9,0-1.8,0.5-1.8,1.9L207.7,68.1C207.8,68.1,207.7,68.1,207.7,68.1z"/>
		<path class="st1" d="M220.3,67c-0.5,0.8-1.5,1.1-2.4,1.1c-1.9,0-3.6-1.4-3.6-3.7c0-2.3,1.7-3.7,3.6-3.7c0.9,0,1.9,0.3,2.4,1.1v-1
			h1.5V68h-1.5V67z M218.1,66.7c1.1,0,2.2-0.8,2.2-2.2c0-1.4-1.1-2.2-2.2-2.2c-1.2,0-2.2,0.9-2.2,2.2
			C215.9,65.8,217,66.7,218.1,66.7z"/>
		<path class="st1" d="M229.6,67c-0.4,0.8-1.4,1.2-2.4,1.2c-1.9,0-3.5-1.5-3.5-3.7c0-2.3,1.6-3.7,3.5-3.7c1,0,2,0.4,2.4,1.1v-4.8
			h1.5v11h-1.5V67z M227.4,62.3c-1.2,0-2.1,0.9-2.1,2.2s0.9,2.2,2.1,2.2c1.1,0,2.2-0.8,2.2-2.2C229.6,63.1,228.5,62.3,227.4,62.3z"
			/>
	</g>
</g>
</svg>
