<?xml version="1.0" encoding="utf-8"?>
<!-- Generator: Adobe Illustrator 16.0.0, SVG Export Plug-In . SVG Version: 6.00 Build 0)  -->
<!DOCTYPE svg PUBLIC "-//W3C//DTD SVG 1.1//EN" "http://www.w3.org/Graphics/SVG/1.1/DTD/svg11.dtd">
<svg version="1.1" id="Capa_1" xmlns="http://www.w3.org/2000/svg" xmlns:xlink="http://www.w3.org/1999/xlink" x="0px" y="0px"
	 width="232px" height="64px" viewBox="0 0 232 64" enable-background="new 0 0 232 64" xml:space="preserve">
<g>
	<g>
		<path fill-rule="evenodd" clip-rule="evenodd" fill="#00C86B" d="M89.504,33.078c1.943-2.113,4.156-2.816,6.676-2.794
			c4.734,0.042,8.425,3.646,8.597,8.416c0.098,2.727-0.292,5.292-2.16,7.446c-2.012,2.326-4.61,3.06-7.571,2.872
			c-2.07-0.13-3.864-0.897-5.465-2.49c-0.027,0.456-0.055,0.717-0.055,0.979c-0.003,2.378-0.027,4.756,0.014,7.136
			c0.011,0.742-0.177,1.05-0.98,1.022c-1.954-0.065-1.66,0.192-1.663-1.689c-0.01-7.445,0.003-14.889-0.015-22.334
			c-0.001-0.713,0.046-1.157,0.966-1.123c1.614,0.056,1.635,0.012,1.657,1.143C89.508,32.027,89.504,32.394,89.504,33.078z
			 M89.384,39.369c0.164,1.089,0.175,2.228,0.52,3.256c0.769,2.313,3.221,3.937,5.715,3.979c2.605,0.046,4.825-1.408,5.813-3.805
			c1.361-3.293,0.458-7.135-2.15-8.914c-2.13-1.454-4.408-1.546-6.643-0.311C90.41,34.809,89.143,36.658,89.384,39.369z"/>
		<path fill-rule="evenodd" clip-rule="evenodd" fill="#00C86B" d="M171.459,37.678c0.367-2.436-1.287-4.614-3.729-4.884
			c-2.447-0.27-4.597,0.307-6.179,2.362c-0.492,0.643-0.979,0.58-2.002-0.137c-0.622-0.435-0.47-0.938-0.141-1.445
			c1.066-1.647,2.642-2.602,4.488-3.051c1.973-0.479,3.982-0.535,5.945,0.104c2.671,0.874,4.3,3,4.347,5.816
			c0.066,3.83,0.056,7.663,0.027,11.493c0,0.257-0.423,0.521-0.667,0.761c-0.047,0.047-0.178,0.005-0.271,0.005
			c-1.507,0.026-1.505,0.026-1.629-1.495c-0.017-0.214-0.065-0.422-0.129-0.813c-1.229,1.276-2.614,2.055-4.222,2.314
			c-1.966,0.317-3.94,0.372-5.83-0.425c-1.749-0.737-2.745-2.063-2.912-3.958c-0.178-2.011,0.493-3.65,2.291-4.706
			c1.63-0.954,3.442-1.342,5.291-1.531C167.911,37.906,169.692,37.81,171.459,37.678z M171.521,40.16
			c-1.117,0-2.16-0.072-3.191,0.017c-1.872,0.161-3.751,0.355-5.444,1.27c-0.954,0.517-1.591,1.282-1.546,2.434
			c0.045,1.068,0.663,1.791,1.59,2.2c2.2,0.973,4.298,0.545,6.229-0.712C171,44.169,171.771,42.405,171.521,40.16z"/>
		<path fill-rule="evenodd" clip-rule="evenodd" fill="#00C86B" d="M204.025,30.291c5.522-0.015,9.377,3.837,9.389,9.377
			c0.008,5.524-3.775,9.363-9.26,9.396c-5.656,0.032-9.487-3.731-9.5-9.332C194.641,34.08,198.388,30.304,204.025,30.291z
			 M203.985,46.598c3.69-0.005,6.73-3.095,6.729-6.846c-0.002-3.826-3.036-6.993-6.694-6.988c-3.659,0.006-6.679,3.119-6.684,6.891
			C197.334,43.402,200.396,46.6,203.985,46.598z"/>
		<path fill-rule="evenodd" clip-rule="evenodd" fill="#00C86B" d="M81.316,46.57c-2.437,2.467-5.236,2.855-8.215,2.188
			c-2.951-0.661-4.97-3.181-5.057-6.313c-0.103-3.705-0.045-7.414-0.072-11.123c-0.003-0.583,0.211-0.813,0.818-0.829
			c1.858-0.05,1.854-0.071,1.856,1.738c0.002,2.935-0.018,5.871,0.031,8.805c0.014,0.76,0.154,1.549,0.405,2.265
			c0.999,2.849,3.934,3.979,6.93,2.612c2.034-0.929,3.364-2.375,3.286-4.861c-0.103-3.178-0.002-6.366-0.041-9.549
			c-0.011-0.776,0.239-1.087,1.004-0.999c0.244,0.027,0.496,0.024,0.739,0c0.738-0.075,0.963,0.256,0.961,0.973
			c-0.021,5.438-0.02,10.878,0,16.315c0.002,0.705-0.206,1.064-0.952,0.979c-0.151-0.019-0.308-0.004-0.463-0.004
			c-1.22-0.002-1.222-0.002-1.23-1.213C81.316,47.313,81.316,47.068,81.316,46.57z"/>
		<path fill-rule="evenodd" clip-rule="evenodd" fill="#00C86B" d="M218.355,32.744c1.73-1.773,3.647-2.458,5.843-2.454
			c4.535,0.007,7.362,2.709,7.462,7.283c0.077,3.458,0.009,6.921,0.026,10.381c0.005,0.584-0.169,0.848-0.787,0.843
			c-2.229-0.021-1.921,0.179-1.923-1.832c-0.009-2.812,0.013-5.626-0.02-8.436c-0.004-0.705-0.089-1.424-0.267-2.104
			c-1.084-4.162-5.697-4.4-8.433-2.233c-1.268,1.008-1.978,2.249-1.922,3.986c0.103,3.146-0.006,6.302,0.054,9.452
			c0.018,0.968-0.306,1.301-1.219,1.16c-0.12-0.019-0.25-0.015-0.371,0.003c-0.793,0.112-1.072-0.186-1.068-1.022
			c0.037-5.378,0.037-10.754,0.005-16.129c-0.005-0.824,0.176-1.249,1.073-1.106c0.209,0.033,0.432,0.021,0.646,0.001
			c0.688-0.063,0.967,0.243,0.904,0.923C218.33,31.79,218.355,32.127,218.355,32.744z"/>
		<path fill-rule="evenodd" clip-rule="evenodd" fill="#00C86B" d="M148.698,30.081c3.288,0.13,5.967,1.318,7.864,4.059
			c0.409,0.589,0.62,1.128-0.181,1.627c-1.249,0.775-1.603,0.789-2.163-0.074c-1.563-2.413-3.809-3.361-6.599-2.908
			c-2.727,0.446-4.494,2.122-5.276,4.734c-1.398,4.659,1.954,9.136,6.73,8.962c2.15-0.079,3.885-1.117,5.119-2.915
			c0.633-0.918,1.01-0.935,2.232-0.173c0.875,0.545,0.503,1.164,0.105,1.723c-2.029,2.835-4.877,3.99-8.273,3.836
			c-4.525-0.202-7.787-2.738-8.687-6.951c-1.131-5.301,1.178-9.901,6.045-11.377C146.605,30.322,147.668,30.257,148.698,30.081z"/>
		<path fill-rule="evenodd" clip-rule="evenodd" fill="#00C86B" d="M180.938,30.453c1.512,0,3.049,0.002,4.588,0
			c1.192-0.002,1.159,0.02,1.228,1.273c0.05,0.906-0.186,1.281-1.17,1.228c-1.537-0.082-3.082-0.021-4.711-0.021
			c-0.031,0.314-0.079,0.578-0.079,0.839c-0.001,3.185,0.004,6.37,0.016,9.553c0.002,0.306,0.055,0.61,0.102,0.916
			c0.383,2.59,2.827,2.635,4.173,1.507c0.625-0.522,1.486-0.445,2.032,0.216c0.53,0.643,0.054,1.139-0.363,1.608
			c-1.136,1.275-2.658,1.402-4.183,1.264c-2.949-0.263-4.388-1.902-4.401-4.884c-0.015-3.31-0.004-6.615-0.005-9.921
			c0-0.332,0-0.664,0-1.098c-0.811,0-1.513-0.023-2.214,0.007c-0.585,0.024-0.884-0.177-0.824-0.797
			c0.023-0.246,0.025-0.496-0.002-0.741c-0.085-0.748,0.268-0.998,0.976-0.959c0.64,0.036,1.285,0.008,2.064,0.008
			c0-1.12,0.04-2.16-0.014-3.197c-0.037-0.75,0.179-1.042,0.981-1.013c1.801,0.066,1.669-0.179,1.66,1.638
			c-0.006,0.74,0.006,1.481,0.02,2.224C180.811,30.187,180.866,30.27,180.938,30.453z"/>
		<path fill-rule="evenodd" clip-rule="evenodd" fill="#00C86B" d="M128.063,35.991c0-3.861,0-7.721-0.001-11.583
			c-0.001-1.135,0.047-1.183,1.212-1.187c0.029,0,0.062,0,0.092,0c1.409,0,1.409,0,1.407,1.366c0,2.842,0,5.683,0,8.524
			c-0.001,4.851,0,9.698-0.001,14.547c0,1.127-0.01,1.082-1.628,1.14c-0.885,0.033-1.103-0.306-1.096-1.133
			C128.081,43.773,128.063,39.883,128.063,35.991z"/>
		<path fill-rule="evenodd" clip-rule="evenodd" fill="#00C86B" d="M136.9,39.675c-0.001,2.687-0.024,5.372,0.013,8.058
			c0.013,0.817-0.28,1.141-1.08,1.039c-0.213-0.027-0.437-0.028-0.647-0.004c-0.787,0.09-1.009-0.285-1.002-1.028
			c0.024-3.147,0.011-6.296,0.011-9.445c0-2.222,0.034-4.446-0.016-6.666c-0.017-0.869,0.302-1.202,1.137-1.088
			c0.06,0.007,0.123,0,0.185,0c1.404-0.003,1.403-0.003,1.403,1.449C136.9,34.551,136.902,37.113,136.9,39.675z"/>
		<path fill-rule="evenodd" clip-rule="evenodd" fill="#00C86B" d="M192.027,39.612c0.001,2.751-0.021,5.498,0.015,8.248
			c0.009,0.736-0.237,0.963-0.96,0.957c-1.729-0.019-1.73,0.015-1.73-1.67c0-5.157,0.021-10.316-0.018-15.475
			c-0.009-0.901,0.266-1.184,1.157-1.151c1.532,0.057,1.534,0.009,1.534,1.584C192.025,34.607,192.025,37.11,192.027,39.612z"/>
		<path fill-rule="evenodd" clip-rule="evenodd" fill="#00C86B" d="M134.198,25.187c0,0.019,0-0.167-0.001-0.353
			c-0.019-1.632-0.019-1.597,1.622-1.628c0.804-0.017,1.127,0.253,1.08,1.065c-0.048,0.861-0.024,1.728-0.016,2.591
			c0.006,0.51-0.223,0.713-0.732,0.706C133.84,27.539,134.233,27.823,134.198,25.187z"/>
		<path fill-rule="evenodd" clip-rule="evenodd" fill="#00C86B" d="M192.023,25.508c-0.001,0.092,0,0.186-0.001,0.278
			c-0.008,1.957-0.011,1.979-2.021,1.75c-0.239-0.027-0.604-0.407-0.62-0.644c-0.07-0.983-0.023-1.974-0.03-2.961
			c-0.006-0.514,0.238-0.719,0.739-0.708C192.333,23.264,191.998,22.873,192.023,25.508z"/>
		<path fill-rule="evenodd" clip-rule="evenodd" fill="#FFFFFF" d="M95.619,46.604c-2.494-0.042-4.946-1.666-5.715-3.979"/>
		<path fill-rule="evenodd" clip-rule="evenodd" fill="#FFFFFF" d="M197.337,39.654c0.005-3.771,3.024-6.885,6.684-6.891"/>
		<path fill-rule="evenodd" clip-rule="evenodd" fill="#00C86B" d="M109.982,33.078c1.942-2.113,4.154-2.816,6.675-2.794
			c4.735,0.042,8.427,3.646,8.6,8.416c0.095,2.727-0.294,5.292-2.163,7.446c-2.012,2.326-4.609,3.06-7.571,2.872
			c-2.069-0.13-3.865-0.897-5.466-2.49c-0.026,0.456-0.053,0.717-0.053,0.979c-0.004,2.378-0.027,4.756,0.013,7.136
			c0.012,0.742-0.178,1.05-0.977,1.022c-1.955-0.065-1.663,0.192-1.667-1.689c-0.01-7.445,0.003-14.889-0.012-22.334
			c-0.002-0.713,0.043-1.157,0.965-1.123c1.613,0.056,1.633,0.012,1.656,1.143C109.985,32.027,109.982,32.394,109.982,33.078z
			 M109.861,39.369c0.164,1.089,0.175,2.228,0.519,3.256c0.771,2.313,3.222,3.937,5.716,3.979c2.606,0.046,4.827-1.408,5.816-3.805
			c1.358-3.293,0.457-7.135-2.154-8.914c-2.13-1.454-4.405-1.546-6.64-0.311C110.886,34.809,109.62,36.658,109.861,39.369z"/>
	</g>
	<g>
		<linearGradient id="SVGID_1_" gradientUnits="userSpaceOnUse" x1="8.458" y1="48.1211" x2="8.458" y2="1.6116">
			<stop  offset="0" style="stop-color:#00AAAA"/>
			<stop  offset="0.2172" style="stop-color:#00BA8A"/>
			<stop  offset="0.6911" style="stop-color:#00E338"/>
			<stop  offset="1" style="stop-color:#00FF00"/>
		</linearGradient>
		<polygon opacity="0.3" fill="url(#SVGID_1_)" points="0,9.765 16.916,0 16.916,38.935 0,48.673 		"/>
		<linearGradient id="SVGID_2_" gradientUnits="userSpaceOnUse" x1="38.7593" y1="60.4053" x2="-4.5194" y2="36.9243">
			<stop  offset="0" style="stop-color:#00AAAA"/>
			<stop  offset="0.2172" style="stop-color:#00BA8A"/>
			<stop  offset="0.6911" style="stop-color:#00E338"/>
			<stop  offset="1" style="stop-color:#00FF00"/>
		</linearGradient>
		<polygon opacity="0.45" fill="url(#SVGID_2_)" points="25.263,63.256 42.182,53.488 0,29.203 0,48.667 		"/>
		<linearGradient id="SVGID_3_" gradientUnits="userSpaceOnUse" x1="54.5903" y1="36.7178" x2="12.6913" y2="60.6601">
			<stop  offset="0" style="stop-color:#00AAAA"/>
			<stop  offset="0.2172" style="stop-color:#00BA8A"/>
			<stop  offset="0.6911" style="stop-color:#00E338"/>
			<stop  offset="1" style="stop-color:#00FF00"/>
		</linearGradient>
		<polygon opacity="0.6" fill="url(#SVGID_3_)" points="50.649,48.663 50.649,29.128 8.49,53.572 25.385,63.248 		"/>
		<linearGradient id="SVGID_4_" gradientUnits="userSpaceOnUse" x1="42.1802" y1="10.3682" x2="42.1802" y2="59.1746">
			<stop  offset="0" style="stop-color:#00AAAA"/>
			<stop  offset="0.2172" style="stop-color:#00BA8A"/>
			<stop  offset="0.6911" style="stop-color:#00E338"/>
			<stop  offset="1" style="stop-color:#00FF00"/>
		</linearGradient>
		<polygon opacity="0.7" fill="url(#SVGID_4_)" points="33.723,19.427 33.723,58.374 50.638,48.599 50.638,9.661 		"/>
	</g>
</g>
</svg>
