<?xml version="1.0" encoding="utf-8"?>
<!-- Generator: Adobe Illustrator 16.0.0, SVG Export Plug-In . SVG Version: 6.00 Build 0)  -->
<!DOCTYPE svg PUBLIC "-//W3C//DTD SVG 1.1//EN" "http://www.w3.org/Graphics/SVG/1.1/DTD/svg11.dtd">
<svg version="1.1" id="Capa_1" xmlns="http://www.w3.org/2000/svg" xmlns:xlink="http://www.w3.org/1999/xlink" x="0px" y="0px"
	 width="155px" height="155px" viewBox="0 0 155 155" enable-background="new 0 0 155 155" xml:space="preserve">
<circle fill="#EBECF0" cx="77.5" cy="77.499" r="71.5"/>
<g>
	<g>
		<defs>
			<path id="SVGID_1_" d="M152.007,119.266v-6.529c0-1.49-0.582-1.742-1.376-1.742h-14.06V30.353c0-1.701-0.875-2.853-2.462-2.853
				H20.615c-1.587,0-3.31,1.151-3.31,2.853v80.642H4.812c-0.794,0-1.538,0.252-1.538,1.742v6.529h0.101c0,0,3.592,5.267,5.746,5.267
				H146.32c2.155,0,5.748-5.267,5.748-5.267H152.007z"/>
		</defs>
		<clipPath id="SVGID_2_">
			<use xlink:href="#SVGID_1_"  overflow="visible"/>
		</clipPath>
		<rect x="77.289" y="13.095" clip-path="url(#SVGID_2_)" fill="#333533" width="91.555" height="134.644"/>
		<rect x="-14.266" y="13.095" clip-path="url(#SVGID_2_)" fill="#3F403F" width="91.555" height="134.644"/>
	</g>
	<rect x="26" y="36" fill="#FFFFFF" width="103" height="67"/>
	<path fill="#FFFFFF" d="M90.651,117h-25.86c-2.155,0-2.155-4-2.155-4h30.169C92.806,113,92.806,117,90.651,117z"/>
</g>
<g>
	<path fill="#01A558" d="M107.354,41.462c-3.748-3.742-9.811-3.742-13.552,0L69.852,65.411l13.546,13.551l23.956-23.953
		C111.091,51.267,111.091,45.205,107.354,41.462z M76.368,64.093l20.249-20.257c0.446-0.441,1.17-0.441,1.619,0
		c0.441,0.445,0.441,1.169,0,1.614L77.979,65.704L76.368,64.093z M79.736,67.464l21.936-21.94c0.448-0.445,1.169-0.445,1.613,0
		c0.445,0.444,0.445,1.165,0,1.61l-21.94,21.94L79.736,67.464z M104.971,52.19L84.718,72.444l-1.614-1.614l20.253-20.253
		c0.447-0.445,1.169-0.445,1.614,0.003C105.414,51.021,105.417,51.745,104.971,52.19z M75.546,77.315L64.252,88.607l1.229,1.228
		l-1.503,2.736l-14.261,8.799l-2.643-2.643l8.874-14.377l2.662-1.388l1.205,1.208l11.291-11.295L75.546,77.315z"/>
	<path fill="#40B66A" d="M57.286,68.493c-8.353,0-15.129-6.773-15.129-15.127c0-1.827,0.339-3.566,0.933-5.187
		c0.228,0.319,0.463,0.634,0.749,0.92l5.457,5.455c2.778,2.779,7.286,2.779,10.07,0c2.777-2.782,2.777-7.291,0-10.071l-5.453-5.452
		c-0.12-0.119-0.253-0.199-0.377-0.305c1.201-0.309,2.457-0.488,3.751-0.488c8.357,0,15.131,6.773,15.131,15.127
		C72.417,61.719,65.644,68.493,57.286,68.493z M103.529,86.187L91.442,74.097l-11.894,11.9l12.089,12.086
		c3.28,3.287,8.608,3.287,11.892,0C106.819,94.8,106.819,89.471,103.529,86.187z M100.383,94.938c-1.354,1.358-3.563,1.358-4.92,0
		c-1.363-1.36-1.363-3.563,0-4.923c1.356-1.357,3.565-1.357,4.92,0C101.744,91.374,101.744,93.578,100.383,94.938z"/>
</g>
</svg>
