<?xml version="1.0" encoding="utf-8"?>
<!-- Generator: Adobe Illustrator 16.0.0, SVG Export Plug-In . SVG Version: 6.00 Build 0)  -->
<!DOCTYPE svg PUBLIC "-//W3C//DTD SVG 1.1//EN" "http://www.w3.org/Graphics/SVG/1.1/DTD/svg11.dtd">
<svg version="1.1" id="Capa_1" xmlns="http://www.w3.org/2000/svg" xmlns:xlink="http://www.w3.org/1999/xlink" x="0px" y="0px"
	 width="155px" height="155px" viewBox="0 0 155 155" enable-background="new 0 0 155 155" xml:space="preserve">
<circle fill="#EBECF0" cx="77.5" cy="77.499" r="71.5"/>
<g>
	<g>
		<g>
			<path fill-rule="evenodd" clip-rule="evenodd" fill="#9F400F" d="M77.423,131.434c-39.171,0.785-43.55-45.428-42.133-68.253
				c2.645-42.551,41.263-59.617,57.029-45.005c16.761,0,24.614,20.815,26.507,44.596C121.348,94.421,109.683,130.787,77.423,131.434
				z"/>
			<path fill-rule="evenodd" clip-rule="evenodd" fill="#FDDCCB" d="M88.759,102.652c-0.251,0.396-25.057,0.792-25.33,1.183
				c-7.79,11.114-24.624,15.983-38.008,18.977c-13.32,2.978-13.835,19.896-13.856,31.166h129.849
				c-0.021-11.27-0.268-28.127-13.856-31.166C113.968,119.771,96.148,114.272,88.759,102.652z"/>
			<path fill-rule="evenodd" clip-rule="evenodd" fill="#FDDCCB" d="M89.499,78.918v31.873c-7.155,9.404-18.863,9.079-26.019,0
				V78.918C63.48,61.708,89.499,61.708,89.499,78.918z"/>
			<path fill-rule="evenodd" clip-rule="evenodd" fill="#F6C3A8" d="M89.499,78.918v21.339c-4.923,3.852-9.668,6.009-13.01,6.009
				c-3.341,0-8.087-2.157-13.009-6.008v-21.34C63.48,61.708,89.499,61.708,89.499,78.918z"/>
			<path fill-rule="evenodd" clip-rule="evenodd" fill="#FDDCCB" d="M76.489,100.965c-8.47,0-26.363-13.316-31.896-32.389
				c-5.584-19.258,4.934-46.881,31.896-46.881c26.961,0,37.48,27.622,31.896,46.881C102.852,87.648,84.96,100.965,76.489,100.965z"
				/>
			<path fill-rule="evenodd" clip-rule="evenodd" fill="#FD386A" d="M66.286,81.764c4.317-4.178,7.683-1.044,10.203-1.044
				s5.887-3.134,10.203,1.044C84.374,92.784,69.362,93.123,66.286,81.764z"/>
			<path fill-rule="evenodd" clip-rule="evenodd" fill="#FFFFFF" d="M67.611,82.334c2.359-0.604,14.377-0.727,17.756-0.131
				C82.576,87.341,69.973,87.043,67.611,82.334z"/>
			<path fill-rule="evenodd" clip-rule="evenodd" fill="#FD386A" d="M66.286,81.764c4.316-4.178,7.683-1.044,10.203-1.044
				s5.887-3.134,10.203,1.044C80.092,85.016,70.729,83.496,66.286,81.764z"/>
			
				<ellipse transform="matrix(-0.3946 -0.9189 0.9189 -0.3946 -0.2943 130.7793)" fill-rule="evenodd" clip-rule="evenodd" fill="#FDDCCB" cx="42.937" cy="65.487" rx="9.285" ry="5.368"/>
			
				<ellipse transform="matrix(0.3946 -0.9188 0.9188 0.3946 6.8971 141.4414)" fill-rule="evenodd" clip-rule="evenodd" fill="#FDDCCB" cx="110.792" cy="65.486" rx="9.284" ry="5.369"/>
			<path fill-rule="evenodd" clip-rule="evenodd" fill="#9F400F" d="M110.959,68.232c10.238-43.887-20.663-51.351-38.692-51.351
				c-20.305,0-35.611,24.099-32.187,52.166c10.832-6.53,20.375-19.428,44.054-40.469c-3.443,6.175-10.158,17.41-32.98,37.771
				c12.281,2.029,35.161-13.454,47.355-29.652C101.42,48.213,105.609,60.82,110.959,68.232z"/>
			<path fill-rule="evenodd" clip-rule="evenodd" fill="#40B66A" d="M56.429,110.814c-7.325,5.734-23.593,10.339-31.008,11.997
				c-13.32,2.978-13.835,19.896-13.856,31.166h129.849c-0.021-11.27-0.268-28.127-13.856-31.166
				c-7.28-1.627-16.358-4.137-23.226-7.566l-8.137-4.844c-11.172,18.584-13.272,33.583-19.705,37.16
				C70.068,143.99,67.581,129.341,56.429,110.814z"/>
			<g>
				<path fill-rule="evenodd" clip-rule="evenodd" fill="#3C8864" d="M34.798,153.978c0.079-2.554,0.313-5.628,0.928-9.374
					c-1.148,3.653-1.964,6.712-2.538,9.374H34.798z"/>
				<path fill-rule="evenodd" clip-rule="evenodd" fill="#3C8864" d="M118.18,153.978c-0.079-2.554-0.313-5.628-0.928-9.374
					c1.15,3.653,1.965,6.712,2.539,9.374H118.18z"/>
			</g>
		</g>
		<g>
			<path fill-rule="evenodd" clip-rule="evenodd" fill="#FFFFFF" d="M57.935,119.184c5.869,4.363,22.121,7.222,36.72,1.053
				c-10.089,13.331-6.622,34.535-6.622,34.535H67.415C67.415,154.771,65.309,136.188,57.935,119.184z"/>
			<g>
				<path fill-rule="evenodd" clip-rule="evenodd" fill="#01A558" d="M63.401,103.647v13.184l4.919,37.428h-8.457l-9.304-13.908
					l8.881-5.921l-10.854-5.074C48.587,129.355,50.864,111.556,63.401,103.647z"/>
				<path fill-rule="evenodd" clip-rule="evenodd" fill="#01A558" d="M89.517,103.647l0.001,13.184l-4.968,37.428h8.457
					l9.303-13.908l-8.88-5.921l10.854-5.074C104.283,129.355,100.235,110.646,89.517,103.647z"/>
			</g>
		</g>
	</g>
	<path fill="#424242" d="M108.672,43.215c-4.893-12.892-17.447-21.553-31.239-21.553c-17.738,0-32.285,13.9-33.335,31.378
		c-0.579-0.322-1.285-0.612-2.142-0.811c0,0-1.837-0.319-4.42,0.53c-3.264,1.212-5.945,4.454-6.351,12.117
		c-0.535,10.1,4.789,14.369,10.273,15.115c0.979,0.135,3.646,0.337,4.76,0.129c1.667,1.977,6.915,7.516,15.549,10.563
		c0.615,1.644,3.045,2.872,5.954,2.872c3.374,0,6.109-1.651,6.109-3.688c0-2.037-2.735-3.688-6.109-3.688
		c-2.4,0-4.471,0.837-5.47,2.053c-7.592-2.782-12.386-7.694-14.006-9.556c-2.639-5.488-3.037-13.538-2.412-18.125
		c0.222-1.63,0.363-3.02,0.614-4.593c0.016-0.096-0.011-0.322-0.018-0.494c0.044-0.126,0.072-0.26,0.072-0.401
		c0-17.054,13.875-30.929,30.93-30.929c12.771,0,24.396,8.021,28.927,19.958c0.243,0.639,0.957,0.96,1.595,0.717
		C108.593,44.568,108.914,43.854,108.672,43.215z"/>
</g>
</svg>
