<?xml version="1.0" encoding="utf-8"?>
<!-- Generator: Adobe Illustrator 16.0.0, SVG Export Plug-In . SVG Version: 6.00 Build 0)  -->
<!DOCTYPE svg PUBLIC "-//W3C//DTD SVG 1.1//EN" "http://www.w3.org/Graphics/SVG/1.1/DTD/svg11.dtd">
<svg version="1.1" id="Capa_1" xmlns="http://www.w3.org/2000/svg" xmlns:xlink="http://www.w3.org/1999/xlink" x="0px" y="0px"
	 width="155px" height="155px" viewBox="0 0 155 155" enable-background="new 0 0 155 155" xml:space="preserve">
<circle fill="#EBECF0" cx="77.5" cy="77.499" r="71.5"/>
<g>
	<g>
		<defs>
			<path id="SVGID_1_" d="M136.193,128.785H19.831c-5.211,0-9.476-4.264-9.476-9.475V44.077c0-5.211,4.265-9.475,9.476-9.475
				h116.362c5.213,0,9.477,4.264,9.477,9.475v75.233C145.67,124.521,141.406,128.785,136.193,128.785z"/>
		</defs>
		<clipPath id="SVGID_2_">
			<use xlink:href="#SVGID_1_"  overflow="visible"/>
		</clipPath>
		<rect x="76.878" y="-4.791" clip-path="url(#SVGID_2_)" fill="#333533" width="89.213" height="207"/>
	</g>
	<g>
		<defs>
			<path id="SVGID_3_" d="M136.193,128.785H19.831c-5.211,0-9.476-4.264-9.476-9.475V44.077c0-5.211,4.265-9.475,9.476-9.475
				h116.362c5.213,0,9.477,4.264,9.477,9.475v75.233C145.67,124.521,141.406,128.785,136.193,128.785z"/>
		</defs>
		<clipPath id="SVGID_4_">
			<use xlink:href="#SVGID_3_"  overflow="visible"/>
		</clipPath>
		<rect x="-11.696" y="-4.791" clip-path="url(#SVGID_4_)" fill="#3F403F" width="89.213" height="207"/>
	</g>
</g>
<g>
	<path fill="#787878" d="M27.976,57.664h-7.3c-1.504,0-2.734-1.23-2.734-2.733v-5.753c0-1.504,1.23-2.734,2.734-2.734h7.3
		c1.503,0,2.733,1.23,2.733,2.734v5.753C30.709,56.434,29.479,57.664,27.976,57.664z"/>
	<path fill="#787878" d="M41.854,57.664h-7.301c-1.503,0-2.734-1.23-2.734-2.733v-5.753c0-1.504,1.23-2.734,2.734-2.734h7.301
		c1.503,0,2.733,1.23,2.733,2.734v5.753C44.588,56.434,43.357,57.664,41.854,57.664z"/>
	<path fill="#787878" d="M55.733,57.664h-7.301c-1.503,0-2.734-1.23-2.734-2.733v-5.753c0-1.504,1.23-2.734,2.734-2.734h7.301
		c1.503,0,2.733,1.23,2.733,2.734v5.753C58.467,56.434,57.236,57.664,55.733,57.664z"/>
	<path fill="#787878" d="M69.612,57.664h-7.301c-1.504,0-2.734-1.23-2.734-2.733v-5.753c0-1.504,1.229-2.734,2.734-2.734h7.301
		c1.503,0,2.733,1.23,2.733,2.734v5.753C72.346,56.434,71.115,57.664,69.612,57.664z"/>
	<path fill="#787878" d="M83.491,57.664h-7.302c-1.504,0-2.734-1.23-2.734-2.733v-5.753c0-1.504,1.23-2.734,2.734-2.734h7.302
		c1.503,0,2.733,1.23,2.733,2.734v5.753C86.225,56.434,84.994,57.664,83.491,57.664z"/>
	<path fill="#787878" d="M97.37,57.664h-7.302c-1.504,0-2.734-1.23-2.734-2.733v-5.753c0-1.504,1.23-2.734,2.734-2.734h7.302
		c1.503,0,2.733,1.23,2.733,2.734v5.753C100.104,56.434,98.873,57.664,97.37,57.664z"/>
	<path fill="#787878" d="M111.248,57.664h-7.301c-1.504,0-2.734-1.23-2.734-2.733v-5.753c0-1.504,1.23-2.734,2.734-2.734h7.301
		c1.504,0,2.732,1.23,2.732,2.734v5.753C113.98,56.434,112.752,57.664,111.248,57.664z"/>
	<path fill="#787878" d="M125.126,57.664h-7.3c-1.504,0-2.734-1.23-2.734-2.733v-5.753c0-1.504,1.23-2.734,2.734-2.734h7.3
		c1.504,0,2.733,1.23,2.733,2.734v5.753C127.859,56.434,126.63,57.664,125.126,57.664z"/>
	<path fill="#787878" d="M139.005,57.664h-7.301c-1.503,0-2.733-1.23-2.733-2.733v-5.753c0-1.504,1.23-2.734,2.733-2.734h7.301
		c1.504,0,2.734,1.23,2.734,2.734v5.753C141.739,56.434,140.509,57.664,139.005,57.664z"/>
</g>
<g>
	<path fill="#787878" d="M27.976,70.433h-7.3c-1.504,0-2.734-1.23-2.734-2.734v-5.753c0-1.504,1.23-2.734,2.734-2.734h7.3
		c1.503,0,2.733,1.23,2.733,2.734v5.753C30.709,69.202,29.479,70.433,27.976,70.433z"/>
	<path fill="#787878" d="M41.854,70.433h-7.301c-1.503,0-2.734-1.23-2.734-2.734v-5.753c0-1.504,1.23-2.734,2.734-2.734h7.301
		c1.503,0,2.733,1.23,2.733,2.734v5.753C44.588,69.202,43.357,70.433,41.854,70.433z"/>
	<path fill="#787878" d="M55.733,70.433h-7.301c-1.503,0-2.734-1.23-2.734-2.734v-5.753c0-1.504,1.23-2.734,2.734-2.734h7.301
		c1.503,0,2.733,1.23,2.733,2.734v5.753C58.467,69.202,57.236,70.433,55.733,70.433z"/>
	<path fill="#787878" d="M69.612,70.433h-7.301c-1.504,0-2.734-1.23-2.734-2.734v-5.753c0-1.504,1.229-2.734,2.734-2.734h7.301
		c1.503,0,2.733,1.23,2.733,2.734v5.753C72.346,69.202,71.115,70.433,69.612,70.433z"/>
	<path fill="#787878" d="M83.491,70.433h-7.302c-1.504,0-2.734-1.23-2.734-2.734v-5.753c0-1.504,1.23-2.734,2.734-2.734h7.302
		c1.503,0,2.733,1.23,2.733,2.734v5.753C86.225,69.202,84.994,70.433,83.491,70.433z"/>
	<path fill="#787878" d="M97.37,70.433h-7.302c-1.504,0-2.734-1.23-2.734-2.734v-5.753c0-1.504,1.23-2.734,2.734-2.734h7.302
		c1.503,0,2.733,1.23,2.733,2.734v5.753C100.104,69.202,98.873,70.433,97.37,70.433z"/>
	<path fill="#787878" d="M111.248,70.433h-7.301c-1.504,0-2.734-1.23-2.734-2.734v-5.753c0-1.504,1.23-2.734,2.734-2.734h7.301
		c1.504,0,2.732,1.23,2.732,2.734v5.753C113.98,69.202,112.752,70.433,111.248,70.433z"/>
	<path fill="#787878" d="M125.126,70.433h-7.3c-1.504,0-2.734-1.23-2.734-2.734v-5.753c0-1.504,1.23-2.734,2.734-2.734h7.3
		c1.504,0,2.733,1.23,2.733,2.734v5.753C127.859,69.202,126.63,70.433,125.126,70.433z"/>
	<path fill="#787878" d="M139.005,70.433h-7.301c-1.503,0-2.733-1.23-2.733-2.734v-5.753c0-1.504,1.23-2.734,2.733-2.734h7.301
		c1.504,0,2.734,1.23,2.734,2.734v5.753C141.739,69.202,140.509,70.433,139.005,70.433z"/>
</g>
<g>
	<path fill="#787878" d="M27.976,83.201h-7.3c-1.504,0-2.734-1.23-2.734-2.734v-5.753c0-1.503,1.23-2.734,2.734-2.734h7.3
		c1.503,0,2.733,1.23,2.733,2.734v5.753C30.709,81.971,29.479,83.201,27.976,83.201z"/>
	<path fill="#787878" d="M41.854,83.201h-7.301c-1.503,0-2.734-1.23-2.734-2.734v-5.753c0-1.503,1.23-2.734,2.734-2.734h7.301
		c1.503,0,2.733,1.23,2.733,2.734v5.753C44.588,81.971,43.357,83.201,41.854,83.201z"/>
	<path fill="#787878" d="M55.733,83.201h-7.301c-1.503,0-2.734-1.23-2.734-2.734v-5.753c0-1.503,1.23-2.734,2.734-2.734h7.301
		c1.503,0,2.733,1.23,2.733,2.734v5.753C58.467,81.971,57.236,83.201,55.733,83.201z"/>
	<path fill="#787878" d="M69.612,83.201h-7.301c-1.504,0-2.734-1.23-2.734-2.734v-5.753c0-1.503,1.229-2.734,2.734-2.734h7.301
		c1.503,0,2.733,1.23,2.733,2.734v5.753C72.346,81.971,71.115,83.201,69.612,83.201z"/>
	<path fill="#787878" d="M83.491,83.201h-7.302c-1.504,0-2.734-1.23-2.734-2.734v-5.753c0-1.503,1.23-2.734,2.734-2.734h7.302
		c1.503,0,2.733,1.23,2.733,2.734v5.753C86.225,81.971,84.994,83.201,83.491,83.201z"/>
	<path fill="#787878" d="M97.37,83.201h-7.302c-1.504,0-2.734-1.23-2.734-2.734v-5.753c0-1.503,1.23-2.734,2.734-2.734h7.302
		c1.503,0,2.733,1.23,2.733,2.734v5.753C100.104,81.971,98.873,83.201,97.37,83.201z"/>
	<path fill="#787878" d="M111.248,83.201h-7.301c-1.504,0-2.734-1.23-2.734-2.734v-5.753c0-1.503,1.23-2.734,2.734-2.734h7.301
		c1.504,0,2.732,1.23,2.732,2.734v5.753C113.98,81.971,112.752,83.201,111.248,83.201z"/>
	<path fill="#787878" d="M125.126,83.201h-7.3c-1.504,0-2.734-1.23-2.734-2.734v-5.753c0-1.503,1.23-2.734,2.734-2.734h7.3
		c1.504,0,2.733,1.23,2.733,2.734v5.753C127.859,81.971,126.63,83.201,125.126,83.201z"/>
	<path fill="#787878" d="M139.005,83.201h-7.301c-1.503,0-2.733-1.23-2.733-2.734v-5.753c0-1.503,1.23-2.734,2.733-2.734h7.301
		c1.504,0,2.734,1.23,2.734,2.734v5.753C141.739,81.971,140.509,83.201,139.005,83.201z"/>
</g>
<g>
	<path fill="#787878" d="M27.976,95.969h-7.3c-1.504,0-2.734-1.229-2.734-2.732v-5.754c0-1.504,1.23-2.733,2.734-2.733h7.3
		c1.503,0,2.733,1.229,2.733,2.733v5.754C30.709,94.738,29.479,95.969,27.976,95.969z"/>
	<path fill="#787878" d="M41.854,95.969h-7.301c-1.503,0-2.734-1.229-2.734-2.732v-5.754c0-1.504,1.23-2.733,2.734-2.733h7.301
		c1.503,0,2.733,1.229,2.733,2.733v5.754C44.588,94.738,43.357,95.969,41.854,95.969z"/>
	<path fill="#787878" d="M97.925,95.969H47.044c-0.74,0-1.346-0.604-1.346-1.346v-8.527c0-0.74,0.605-1.348,1.346-1.348h50.881
		c0.74,0,1.347,0.605,1.347,1.348v8.527C99.271,95.363,98.665,95.969,97.925,95.969z"/>
	<path fill="#787878" d="M111.248,95.969h-7.301c-1.504,0-2.734-1.229-2.734-2.732v-5.754c0-1.504,1.23-2.733,2.734-2.733h7.301
		c1.504,0,2.732,1.229,2.732,2.733v5.754C113.98,94.738,112.752,95.969,111.248,95.969z"/>
	<path fill="#787878" d="M125.126,95.969h-7.3c-1.504,0-2.734-1.229-2.734-2.732v-5.754c0-1.504,1.23-2.733,2.734-2.733h7.3
		c1.504,0,2.733,1.229,2.733,2.733v5.754C127.859,94.738,126.63,95.969,125.126,95.969z"/>
	<path fill="#787878" d="M139.005,95.969h-7.301c-1.503,0-2.733-1.229-2.733-2.732v-5.754c0-1.504,1.23-2.733,2.733-2.733h7.301
		c1.504,0,2.734,1.229,2.734,2.733v5.754C141.739,94.738,140.509,95.969,139.005,95.969z"/>
</g>
<path fill="#787878" d="M96.577,124.365H50.334c-2.244,0-4.081-1.836-4.081-4.081v-17.651c0-2.244,1.836-4.081,4.081-4.081h46.243
	c2.245,0,4.081,1.837,4.081,4.081v17.651C100.658,122.529,98.822,124.365,96.577,124.365z"/>
<g>
	<g>
		<defs>
			<path id="SVGID_5_" d="M148.682,29.041H7.345c-2.658,0-4.832-2.175-4.832-4.833v-5.834c0-2.657,2.174-4.832,4.832-4.832h141.336
				c2.657,0,4.832,2.175,4.832,4.832v5.834C153.514,26.866,151.339,29.041,148.682,29.041z"/>
		</defs>
		<clipPath id="SVGID_6_">
			<use xlink:href="#SVGID_5_"  overflow="visible"/>
		</clipPath>
		<rect x="75.787" y="-34.333" clip-path="url(#SVGID_6_)" fill="#333533" width="89.213" height="207"/>
	</g>
	<g>
		<defs>
			<path id="SVGID_7_" d="M148.682,29.041H7.345c-2.658,0-4.832-2.175-4.832-4.833v-5.834c0-2.657,2.174-4.832,4.832-4.832h141.336
				c2.657,0,4.832,2.175,4.832,4.832v5.834C153.514,26.866,151.339,29.041,148.682,29.041z"/>
		</defs>
		<clipPath id="SVGID_8_">
			<use xlink:href="#SVGID_7_"  overflow="visible"/>
		</clipPath>
		<rect x="-12.787" y="-34.333" clip-path="url(#SVGID_8_)" fill="#3F403F" width="89.213" height="207"/>
	</g>
</g>
<path fill="#EDC197" d="M80.398,104.082h-1.396c-2.236,0-4.066-1.831-4.066-4.068v-34.61c0-2.238,1.83-4.068,4.066-4.068h1.396
	c2.237,0,4.068,1.831,4.068,4.068v34.61C84.468,102.251,82.637,104.082,80.398,104.082z"/>
<path fill="#EDC197" d="M89.885,104.082h-1.304c-2.263,0-4.113-1.854-4.113-4.114v-17.69c0-2.262,1.851-4.113,4.113-4.113h1.304
	c2.264,0,4.114,1.852,4.114,4.113v17.689C93.999,102.229,92.146,104.082,89.885,104.082z"/>
<path fill="#EDC197" d="M99.294,104.082h-1.619c-2.176,0-3.957-1.78-3.957-3.957V84.064c0-2.179,1.781-3.957,3.957-3.957h1.619
	c2.175,0,3.956,1.778,3.956,3.957v16.061C103.25,102.302,101.469,104.082,99.294,104.082z"/>
<path fill="#EDC197" d="M109.094,104.082h-2.156c-2.027,0-3.688-1.66-3.688-3.688V86.939c0-2.027,1.659-3.687,3.688-3.687h2.156
	c2.027,0,3.688,1.658,3.688,3.687v13.453C112.782,102.422,111.121,104.082,109.094,104.082z"/>
<path fill="#EDC197" d="M69.959,105.009l-2.495-2.311c-1.442-1.335-1.529-3.607-0.194-5.052l7.591-8.195
	c1.336-1.442,3.608-1.529,5.051-0.193l2.494,2.311c1.441,1.334,1.529,3.607,0.193,5.051l-7.592,8.195
	C73.675,106.257,71.402,106.344,69.959,105.009z"/>
<path fill="#EDC197" d="M82.654,111.007l-2.041,2.203c-1.409,1.522-3.809,1.614-5.332,0.204l-9.363-8.67
	c-1.521-1.41-1.614-3.811-0.204-5.332l2.04-2.202c1.41-1.522,3.809-1.614,5.332-0.205l9.363,8.672
	C83.971,107.086,84.063,109.484,82.654,111.007z"/>
<path fill="#EDC197" d="M104.448,124.807H84.195c-4.635,0-8.425-3.789-8.425-8.425v-14.608c0-4.633,3.791-8.424,8.425-8.424h20.253
	c4.633,0,8.424,3.791,8.424,8.424v14.608C112.872,121.018,109.081,124.807,104.448,124.807z"/>
<path fill="#E1B186" d="M74.937,88.676l0.752,15.406c0,0-1.309-2.984-3.205-3.539c0,0,0.937-0.557,1.603,0.068
	S74.937,88.676,74.937,88.676z"/>
<path fill="#FFEAD7" d="M75.725,68.413h7.953V64.99c0,0-3.371-6.616-7.953,0V68.413z"/>
<rect x="77.197" y="127.12" fill="#FFFFFF" width="34.434" height="4.886"/>
<rect x="77.436" y="120.365" fill="#EDC197" width="33.957" height="6.755"/>
<rect x="77.436" y="126.426" fill="#F2C9A0" width="33.957" height="0.694"/>
<polygon fill="#E1B186" points="84.468,81.936 84.468,100.532 84.9,80.454 "/>
<polygon fill="#E1B186" points="93.999,82.277 93.999,100.764 94.518,81.693 "/>
<polygon fill="#E1B186" points="103.712,85.161 103.277,86.497 103.277,101.087 "/>
<path fill="#EDC197" d="M64.854,100.958c0,0-2.332,7.899,12.581,20.438v-16.699L64.854,100.958z"/>
<g>
	<g>
		<defs>
			<path id="SVGID_9_" d="M75.787,149.033c0.741,0.023,1.479,0.057,2.227,0.057c12.814,0,24.832-3.388,35.232-9.292v-7.792H75.787
				V149.033z"/>
		</defs>
		<clipPath id="SVGID_10_">
			<use xlink:href="#SVGID_9_"  overflow="visible"/>
		</clipPath>
		<rect x="94.518" y="125.041" clip-path="url(#SVGID_10_)" fill="#01A558" width="44.666" height="31.014"/>
	</g>
	<g>
		<defs>
			<path id="SVGID_11_" d="M75.787,149.033c0.741,0.023,1.479,0.057,2.227,0.057c12.814,0,24.832-3.388,35.232-9.292v-7.792H75.787
				V149.033z"/>
		</defs>
		<clipPath id="SVGID_12_">
			<use xlink:href="#SVGID_11_"  overflow="visible"/>
		</clipPath>
		<rect x="50.151" y="125.041" clip-path="url(#SVGID_12_)" fill="#40B66A" width="44.667" height="31.014"/>
	</g>
</g>
</svg>
