<?xml version="1.0" encoding="utf-8"?>
<!-- Generator: Adobe Illustrator 22.1.0, SVG Export Plug-In . SVG Version: 6.00 Build 0)  -->
<svg version="1.1" id="Capa_1" xmlns="http://www.w3.org/2000/svg" xmlns:xlink="http://www.w3.org/1999/xlink" x="0px" y="0px"
	 viewBox="0 0 479.4 89.6" style="enable-background:new 0 0 479.4 89.6;" xml:space="preserve">
<style type="text/css">
	.st0{fill:#EC0000;}
	.st1{fill:#FFFFFF;}
	.st2{fill:#80725D;}
</style>
<g>
	<rect y="0.5" class="st0" width="280.5" height="89.1"/>
	<rect x="280.5" y="0.4" class="st1" width="198" height="87.6"/>
	<path class="st2" d="M327.1,40.9h-4.2c-0.5,0-0.9-0.1-1.2-0.3s-0.5-0.5-0.7-0.8l-1.8-4.9h-10.5l-1.8,4.9c-0.1,0.3-0.3,0.6-0.6,0.8
		c-0.3,0.2-0.7,0.4-1.1,0.4h-4.3l10.3-25.8h5.6L327.1,40.9z M317.9,31.1l-2.9-7.9c-0.2-0.4-0.3-0.9-0.5-1.5s-0.4-1.2-0.5-1.8
		c-0.2,0.7-0.3,1.3-0.5,1.8c-0.2,0.6-0.4,1.1-0.5,1.5l-2.8,7.9H317.9z"/>
	<path class="st2" d="M345.1,14.4v26.5H342c-0.6,0-1.1-0.3-1.2-0.9l-0.4-1.6c-0.4,0.4-0.8,0.8-1.2,1.1c-0.4,0.3-0.9,0.6-1.4,0.9
		c-0.5,0.2-1,0.4-1.6,0.6c-0.6,0.1-1.2,0.2-1.8,0.2c-1,0-1.9-0.2-2.8-0.6c-0.8-0.4-1.6-1-2.2-1.8s-1.1-1.8-1.4-2.9
		c-0.3-1.2-0.5-2.5-0.5-4c0-1.4,0.2-2.6,0.6-3.8s0.9-2.2,1.6-3c0.7-0.9,1.6-1.5,2.6-2s2.1-0.7,3.3-0.7c1,0,1.9,0.1,2.6,0.4
		s1.3,0.7,1.9,1.2v-9.6H345.1z M340.1,27.4c-0.5-0.5-1-0.9-1.5-1.1c-0.6-0.2-1.1-0.3-1.8-0.3c-0.6,0-1.2,0.1-1.7,0.3
		c-0.5,0.2-0.9,0.6-1.3,1.1s-0.6,1.1-0.8,1.8c-0.2,0.7-0.3,1.6-0.3,2.7c0,1,0.1,1.9,0.2,2.6s0.4,1.3,0.7,1.7c0.3,0.4,0.7,0.8,1.1,1
		s0.9,0.3,1.4,0.3c0.9,0,1.6-0.2,2.2-0.5s1.2-0.8,1.7-1.5L340.1,27.4L340.1,27.4z"/>
	<path class="st2" d="M366.6,22.6L359.2,41h-4.6l-7.4-18.4h4.2c0.4,0,0.7,0.1,0.9,0.2s0.4,0.4,0.5,0.6l3.2,9.1
		c0.2,0.6,0.4,1.2,0.5,1.8c0.2,0.6,0.3,1.2,0.4,1.8c0.1-0.6,0.3-1.2,0.4-1.8c0.2-0.6,0.4-1.2,0.6-1.8l3.3-9.1
		c0.1-0.3,0.2-0.5,0.5-0.6c0.2-0.2,0.5-0.2,0.9-0.2C362.6,22.6,366.6,22.6,366.6,22.6z"/>
	<path class="st2" d="M367.9,25.1c1.1-1,2.3-1.7,3.7-2.2c1.3-0.5,2.8-0.7,4.3-0.7c1.1,0,2.1,0.2,3,0.5c0.9,0.4,1.6,0.9,2.2,1.5
		s1.1,1.4,1.4,2.3s0.5,1.8,0.5,2.9v11.5h-2.3c-0.5,0-0.8-0.1-1.1-0.2c-0.2-0.1-0.5-0.4-0.6-0.8l-0.4-1.2c-0.5,0.4-0.9,0.8-1.4,1.1
		c-0.4,0.3-0.9,0.6-1.4,0.8s-1,0.4-1.5,0.5s-1.1,0.2-1.8,0.2c-0.8,0-1.6-0.1-2.3-0.3c-0.7-0.2-1.3-0.5-1.8-1s-0.9-0.9-1.1-1.6
		c-0.3-0.6-0.4-1.4-0.4-2.2c0-0.7,0.2-1.4,0.5-2c0.4-0.7,1-1.3,1.8-1.8c0.9-0.6,2-1,3.4-1.4s3.2-0.6,5.4-0.6v-1c0-1.2-0.2-2-0.7-2.5
		s-1.2-0.8-2.2-0.8c-0.7,0-1.3,0.1-1.7,0.2s-0.9,0.3-1.2,0.5c-0.3,0.2-0.7,0.4-1,0.5s-0.7,0.2-1.1,0.2s-0.6-0.1-0.9-0.3
		c-0.2-0.2-0.4-0.4-0.6-0.6L367.9,25.1z M378.1,33.3c-1.2,0.1-2.2,0.2-3.1,0.3s-1.5,0.3-1.9,0.6c-0.5,0.2-0.8,0.5-1,0.8
		s-0.3,0.6-0.3,1c0,0.7,0.2,1.2,0.6,1.5s1,0.4,1.7,0.4c0.8,0,1.6-0.1,2.2-0.4c0.6-0.3,1.2-0.7,1.8-1.4L378.1,33.3L378.1,33.3z"/>
	<path class="st2" d="M391.6,24.7c0.4-0.4,0.8-0.7,1.2-1c0.4-0.3,0.8-0.6,1.3-0.8c0.5-0.2,0.9-0.4,1.5-0.5c0.5-0.1,1.1-0.2,1.7-0.2
		c1,0,1.9,0.2,2.7,0.5c0.8,0.3,1.5,0.8,2,1.4s0.9,1.4,1.2,2.2c0.3,0.9,0.4,1.8,0.4,2.8v11.7h-5V29.3c0-1-0.2-1.8-0.7-2.4
		s-1.2-0.8-2.2-0.8c-0.7,0-1.4,0.1-2,0.4s-1.2,0.7-1.8,1.2v13.2h-5V22.6h3.1c0.6,0,1.1,0.3,1.3,0.9L391.6,24.7z"/>
	<path class="st2" d="M421.3,26.7c-0.1,0.2-0.3,0.3-0.4,0.4s-0.4,0.2-0.6,0.2s-0.5-0.1-0.7-0.2s-0.5-0.3-0.8-0.4
		c-0.3-0.2-0.6-0.3-1-0.4s-0.9-0.2-1.5-0.2c-0.8,0-1.4,0.1-2,0.4s-1,0.6-1.4,1.1s-0.6,1.1-0.8,1.8c-0.2,0.7-0.3,1.5-0.3,2.4
		c0,1.9,0.4,3.3,1.2,4.3c0.8,1,1.8,1.5,3.2,1.5c0.5,0,0.9,0,1.2-0.1c0.3-0.1,0.6-0.2,0.9-0.3c0.2-0.1,0.5-0.2,0.6-0.4
		c0.2-0.1,0.4-0.3,0.5-0.4c0.2-0.1,0.3-0.2,0.5-0.3s0.3-0.1,0.6-0.1c0.4,0,0.7,0.1,0.9,0.4l1.4,1.8c-0.5,0.6-1.1,1.1-1.7,1.5
		s-1.2,0.7-1.9,0.9s-1.3,0.4-2,0.5s-1.3,0.1-2,0.1c-1.2,0-2.2-0.2-3.3-0.6c-1-0.4-1.9-1-2.7-1.8c-0.8-0.8-1.4-1.8-1.9-3
		s-0.7-2.5-0.7-4c0-1.3,0.2-2.6,0.6-3.7c0.4-1.2,1-2.1,1.8-3c0.8-0.8,1.7-1.5,2.9-2c1.1-0.5,2.5-0.7,4-0.7c1.4,0,2.7,0.2,3.8,0.7
		c1.1,0.5,2.1,1.1,2.9,2L421.3,26.7z"/>
	<path class="st2" d="M428.9,32.5c0.2,1.7,0.7,3,1.5,3.8s1.9,1.2,3.3,1.2c0.7,0,1.3-0.1,1.8-0.2c0.5-0.2,0.9-0.3,1.3-0.5
		s0.7-0.4,1-0.5c0.3-0.2,0.6-0.2,0.9-0.2c0.4,0,0.7,0.1,0.9,0.4l1.5,1.8c-0.5,0.6-1.1,1.1-1.8,1.5c-0.6,0.4-1.3,0.7-2,0.9
		s-1.4,0.4-2.1,0.5s-1.4,0.1-2,0.1c-1.3,0-2.5-0.2-3.7-0.6c-1.1-0.4-2.1-1-3-1.9c-0.8-0.8-1.5-1.8-2-3.1c-0.5-1.2-0.7-2.6-0.7-4.3
		c0-1.2,0.2-2.4,0.6-3.5s1-2.1,1.8-2.9s1.8-1.5,2.9-1.9c1.1-0.5,2.4-0.7,3.8-0.7c1.2,0,2.3,0.2,3.3,0.6s1.9,0.9,2.6,1.6
		s1.3,1.6,1.7,2.6c0.4,1,0.6,2.2,0.6,3.6c0,0.4,0,0.7-0.1,0.9c0,0.2-0.1,0.4-0.2,0.6s-0.2,0.2-0.3,0.3c-0.1,0.1-0.3,0.1-0.6,0.1h-11
		V32.5z M436.9,29.6c0-0.5-0.1-1-0.2-1.5s-0.4-0.9-0.7-1.2s-0.7-0.6-1.1-0.8c-0.5-0.2-1-0.3-1.7-0.3c-1.2,0-2.1,0.3-2.8,1
		s-1.1,1.6-1.3,2.8H436.9z"/>
	<path class="st2" d="M316.2,70.1v3h-15.4V48.2h15.4v3h-11.7v7.9h9.4V62h-9.4v8.1C304.5,70.1,316.2,70.1,316.2,70.1z"/>
	<path class="st2" d="M319.7,73.1V55.5h2c0.5,0,0.8,0.2,0.9,0.7l0.2,1.7c0.6-0.8,1.4-1.4,2.2-1.9c0.8-0.5,1.7-0.7,2.8-0.7
		c1.2,0,2.1,0.3,2.8,1c0.7,0.6,1.3,1.5,1.6,2.6c0.3-0.6,0.6-1.2,1-1.6s0.9-0.8,1.4-1.1s1-0.5,1.6-0.6s1.1-0.2,1.7-0.2
		c0.9,0,1.8,0.1,2.5,0.4s1.4,0.7,1.9,1.3s0.9,1.3,1.2,2.1c0.3,0.8,0.4,1.8,0.4,2.8v11.2h-3.4V61.9c0-1.3-0.3-2.3-0.9-3s-1.4-1-2.5-1
		c-0.5,0-0.9,0.1-1.4,0.3s-0.8,0.4-1.2,0.8c-0.3,0.3-0.6,0.8-0.8,1.2c-0.2,0.5-0.3,1.1-0.3,1.7v11.2H330V61.9c0-1.4-0.3-2.4-0.8-3
		s-1.3-1-2.4-1c-0.7,0-1.4,0.2-2,0.6s-1.2,0.9-1.7,1.6v13.1L319.7,73.1L319.7,73.1z"/>
	<path class="st2" d="M351.6,58.1c0.4-0.4,0.8-0.8,1.2-1.2c0.4-0.4,0.9-0.7,1.4-0.9c0.5-0.3,1-0.5,1.6-0.6c0.5-0.1,1.1-0.2,1.8-0.2
		c1,0,1.9,0.2,2.7,0.6s1.5,1,2.1,1.7c0.6,0.8,1,1.7,1.3,2.8s0.5,2.4,0.5,3.9c0,1.3-0.2,2.5-0.5,3.6c-0.4,1.1-0.9,2.1-1.5,2.9
		s-1.5,1.5-2.4,1.9c-0.9,0.5-2,0.7-3.2,0.7c-1.1,0-2-0.2-2.7-0.5c-0.8-0.3-1.4-0.8-2-1.5V79h-3.4V55.5h2c0.5,0,0.8,0.2,0.9,0.7
		L351.6,58.1z M351.7,68.7c0.6,0.7,1.2,1.2,1.8,1.5c0.6,0.3,1.4,0.4,2.2,0.4c1.6,0,2.8-0.6,3.6-1.7c0.8-1.1,1.3-2.7,1.3-4.9
		c0-1.1-0.1-2.1-0.3-2.9c-0.2-0.8-0.5-1.4-0.8-1.9c-0.4-0.5-0.8-0.9-1.3-1.1s-1.1-0.4-1.8-0.4c-1,0-1.8,0.2-2.6,0.7s-1.4,1.1-2,1.9
		v8.4H351.7z"/>
	<path class="st2" d="M371.1,58.8c0.6-1.2,1.2-2.1,2-2.7c0.8-0.7,1.8-1,2.9-1c0.4,0,0.7,0,1.1,0.1c0.3,0.1,0.6,0.2,0.9,0.4l-0.2,2.6
		c-0.1,0.3-0.3,0.5-0.6,0.5c-0.2,0-0.4,0-0.7-0.1c-0.3-0.1-0.7-0.1-1-0.1c-0.5,0-1,0.1-1.4,0.2c-0.4,0.2-0.8,0.4-1.1,0.7
		c-0.3,0.3-0.6,0.7-0.9,1.1c-0.3,0.4-0.5,1-0.7,1.5v11H368V55.5h1.9c0.4,0,0.6,0.1,0.8,0.2c0.1,0.1,0.2,0.4,0.3,0.7L371.1,58.8z"/>
	<path class="st2" d="M394.4,70.6c-0.4,0.5-0.9,0.9-1.4,1.3s-1.1,0.6-1.7,0.9s-1.2,0.4-1.9,0.5c-0.7,0.1-1.3,0.2-1.9,0.2
		c-1.2,0-2.3-0.2-3.4-0.6s-1.9-1-2.7-1.8s-1.3-1.8-1.8-3c-0.4-1.2-0.6-2.5-0.6-4.1c0-1.2,0.2-2.4,0.6-3.4s0.9-2,1.6-2.8
		s1.6-1.4,2.6-1.9s2.2-0.7,3.5-0.7c1.1,0,2.1,0.2,3,0.5c0.9,0.4,1.7,0.9,2.4,1.5c0.7,0.7,1.2,1.5,1.6,2.5s0.6,2.1,0.6,3.4
		c0,0.5-0.1,0.9-0.2,1.1s-0.3,0.3-0.6,0.3h-11.6c0,1.1,0.2,2,0.5,2.8s0.6,1.4,1.1,2c0.5,0.5,1,0.9,1.7,1.2c0.6,0.3,1.4,0.4,2.2,0.4
		c0.8,0,1.4-0.1,2-0.3c0.5-0.2,1-0.4,1.4-0.6s0.7-0.4,1-0.6s0.5-0.3,0.7-0.3c0.3,0,0.5,0.1,0.6,0.3L394.4,70.6z M391.6,62.3
		c0-0.7-0.1-1.3-0.3-1.9c-0.2-0.6-0.5-1.1-0.8-1.5c-0.4-0.4-0.8-0.7-1.4-1c-0.5-0.2-1.1-0.3-1.8-0.3c-1.4,0-2.5,0.4-3.4,1.2
		c-0.8,0.8-1.3,2-1.6,3.4L391.6,62.3L391.6,62.3z"/>
	<path class="st2" d="M408.7,58.5c-0.1,0.2-0.2,0.3-0.3,0.3c-0.1,0.1-0.2,0.1-0.4,0.1c-0.2,0-0.4-0.1-0.6-0.2
		c-0.2-0.1-0.5-0.3-0.8-0.4s-0.7-0.3-1.1-0.4c-0.4-0.1-0.9-0.2-1.5-0.2c-0.5,0-0.9,0.1-1.3,0.2c-0.4,0.1-0.7,0.3-1,0.5
		s-0.5,0.5-0.6,0.8c-0.2,0.3-0.2,0.6-0.2,0.9c0,0.4,0.1,0.8,0.4,1.1s0.6,0.5,1,0.7s0.9,0.4,1.4,0.6c0.5,0.2,1.1,0.3,1.6,0.5
		c0.6,0.2,1.1,0.4,1.6,0.6s1,0.5,1.4,0.9s0.8,0.8,1,1.3c0.3,0.5,0.4,1.1,0.4,1.8c0,0.8-0.1,1.6-0.4,2.3s-0.7,1.3-1.3,1.8
		c-0.6,0.5-1.3,0.9-2.1,1.2c-0.8,0.3-1.8,0.4-2.9,0.4c-1.2,0-2.3-0.2-3.4-0.6c-1-0.4-1.9-0.9-2.6-1.5l0.8-1.3
		c0.1-0.2,0.2-0.3,0.3-0.4c0.1-0.1,0.3-0.1,0.6-0.1c0.2,0,0.4,0.1,0.7,0.2s0.5,0.3,0.8,0.5s0.7,0.4,1.2,0.5c0.5,0.2,1,0.2,1.7,0.2
		c0.6,0,1.1-0.1,1.5-0.2s0.8-0.3,1.1-0.6c0.3-0.2,0.5-0.5,0.6-0.9c0.1-0.3,0.2-0.7,0.2-1c0-0.5-0.1-0.8-0.4-1.2
		c-0.3-0.3-0.6-0.6-1-0.8c-0.4-0.2-0.9-0.4-1.4-0.6s-1.1-0.3-1.7-0.5s-1.1-0.4-1.7-0.6s-1-0.5-1.4-0.9s-0.8-0.8-1-1.4
		c-0.3-0.5-0.4-1.2-0.4-1.9s0.1-1.3,0.4-2c0.3-0.6,0.7-1.2,1.2-1.6c0.5-0.5,1.2-0.9,2-1.1c0.8-0.3,1.7-0.4,2.7-0.4
		c1.2,0,2.2,0.2,3.2,0.6c0.9,0.4,1.8,0.9,2.4,1.5L408.7,58.5z"/>
	<path class="st2" d="M412.9,57.9c1-0.9,2.1-1.6,3.2-2.1c1.2-0.5,2.4-0.7,3.8-0.7c1,0,1.9,0.2,2.7,0.5c0.8,0.3,1.4,0.8,2,1.4
		s0.9,1.3,1.2,2.1c0.3,0.8,0.4,1.7,0.4,2.7V73h-1.5c-0.3,0-0.6-0.1-0.8-0.2c-0.2-0.1-0.3-0.3-0.4-0.6l-0.4-1.5
		c-0.5,0.4-0.9,0.8-1.3,1.1c-0.4,0.3-0.9,0.6-1.4,0.8c-0.5,0.2-1,0.4-1.5,0.5s-1.1,0.2-1.8,0.2c-0.7,0-1.3-0.1-2-0.3
		c-0.6-0.2-1.1-0.5-1.6-0.9s-0.8-0.9-1.1-1.5c-0.3-0.6-0.4-1.3-0.4-2.1c0-0.7,0.2-1.4,0.6-2s1-1.2,1.8-1.7c0.9-0.5,2-0.9,3.3-1.2
		c1.4-0.3,3.1-0.5,5.1-0.6v-1.3c0-1.3-0.3-2.3-0.9-3s-1.4-1-2.5-1c-0.7,0-1.4,0.1-1.9,0.3s-0.9,0.4-1.3,0.6s-0.7,0.4-1,0.6
		c-0.3,0.2-0.6,0.3-0.8,0.3c-0.2,0-0.4-0.1-0.6-0.2c-0.2-0.1-0.3-0.3-0.4-0.5L412.9,57.9z M422.9,65.3c-1.4,0-2.5,0.2-3.5,0.3
		c-1,0.2-1.7,0.4-2.3,0.7c-0.6,0.3-1,0.6-1.3,1s-0.4,0.8-0.4,1.3c0,0.4,0.1,0.8,0.2,1.1s0.3,0.6,0.6,0.8c0.2,0.2,0.5,0.3,0.9,0.4
		c0.3,0.1,0.7,0.1,1.1,0.1c0.5,0,1-0.1,1.4-0.2s0.8-0.3,1.2-0.4c0.4-0.2,0.7-0.4,1.1-0.7c0.3-0.3,0.7-0.6,1-1L422.9,65.3L422.9,65.3
		z"/>
	<path class="st2" d="M441.1,58.5c-0.1,0.2-0.2,0.3-0.3,0.3c-0.1,0.1-0.2,0.1-0.4,0.1c-0.2,0-0.4-0.1-0.6-0.2
		c-0.2-0.1-0.5-0.3-0.8-0.4s-0.7-0.3-1.1-0.4c-0.4-0.1-0.9-0.2-1.5-0.2c-0.5,0-0.9,0.1-1.3,0.2c-0.4,0.1-0.7,0.3-1,0.5
		s-0.5,0.5-0.6,0.8c-0.2,0.3-0.2,0.6-0.2,0.9c0,0.4,0.1,0.8,0.4,1.1s0.6,0.5,1,0.7s0.9,0.4,1.4,0.6c0.5,0.2,1.1,0.3,1.6,0.5
		c0.6,0.2,1.1,0.4,1.6,0.6s1,0.5,1.4,0.9s0.8,0.8,1,1.3c0.3,0.5,0.4,1.1,0.4,1.8c0,0.8-0.1,1.6-0.4,2.3s-0.7,1.3-1.3,1.8
		c-0.6,0.5-1.3,0.9-2.1,1.2c-0.8,0.3-1.8,0.4-2.9,0.4c-1.2,0-2.3-0.2-3.4-0.6c-1-0.4-1.9-0.9-2.6-1.5l0.8-1.3
		c0.1-0.2,0.2-0.3,0.3-0.4c0.1-0.1,0.3-0.1,0.6-0.1c0.2,0,0.4,0.1,0.7,0.2s0.5,0.3,0.8,0.5s0.7,0.4,1.2,0.5c0.5,0.2,1,0.2,1.7,0.2
		c0.6,0,1.1-0.1,1.5-0.2s0.8-0.3,1.1-0.6c0.3-0.2,0.5-0.5,0.6-0.9c0.1-0.3,0.2-0.7,0.2-1c0-0.5-0.1-0.8-0.4-1.2
		c-0.3-0.3-0.6-0.6-1-0.8c-0.4-0.2-0.9-0.4-1.4-0.6s-1.1-0.3-1.7-0.5s-1.1-0.4-1.7-0.6s-1-0.5-1.4-0.9s-0.8-0.8-1-1.4
		c-0.3-0.5-0.4-1.2-0.4-1.9s0.1-1.3,0.4-2c0.3-0.6,0.7-1.2,1.2-1.6c0.5-0.5,1.2-0.9,2-1.1c0.8-0.3,1.7-0.4,2.7-0.4
		c1.2,0,2.2,0.2,3.2,0.6c0.9,0.4,1.8,0.9,2.4,1.5L441.1,58.5z"/>
	<polygon class="st0" points="442,4.7 442,11.5 467.4,11.5 467.4,34.7 474.2,34.7 474.2,11.5 474.2,5.1 474.2,4.7 	"/>
	<g>
		<path class="st1" d="M44.1,38.8c-0.9-0.3-2.2-0.1-2.2-1.7c0-3.9-2.6-6.6-4.8-9.5c-2.2-3-5-5.9-4.4-10.9c-3.9,4-3.8,8.6-0.4,13.4
			c1.7,2.4,3.7,4.8,5.2,7.3c1.7,2.8,1.8,5.7-0.7,8.9c0-3.8-2-6.1-3.9-8.4c-2.8-3.5-6.3-6.6-6-11.9c-3.5,3.5-3.7,7.5-0.8,11.8
			c1.8,2.8,4.2,5.1,5.8,8.1c1.3,2.6,1.7,5.3-0.1,8.6c-0.8-2.5-1.8-4.3-3-5.9c-1.3-1.6-2.2-3.5-3.8-4.8c-1.7-1.5-1.4-5.1-4.5-4.9
			c-2.4,0.1-4.7,1.4-6.8,2.6c-3.2,1.9-6.6,3.9-6.7,8.3c-0.1,4.6,3.5,6.6,6.8,8.5c0.4,0.2,0.8,0.3,1.2,0.5c11,4.4,22.1,4.3,33.1,0
			c2.2-0.8,4.2-2.1,5.8-3.9c3.5-3.5,3.5-7.5-0.1-11C51.2,41.3,47.8,39.9,44.1,38.8z"/>
		<path class="st1" d="M81.4,42.2C79.3,41,77,40,74.9,38.7c-2-1.3-2.8-3.3-2.1-5.6c0.7-2.2,2.6-3,4.8-3c3.1,0,5.1,1.7,6.5,4.4
			c0.4,0.8-0.1,2.6,1.5,2.2c1.1-0.3,0.4-1.9,0.5-2.9s-0.1-1.9,0.1-2.9c0.1-1.2-0.4-1.7-1.5-2.1c-3.5-1-6.9-1.5-10.4-0.4
			c-4.4,1.3-6.8,5.2-5.9,9.6c0.6,3.1,3,4.9,5.5,6.3c2.3,1.3,4.8,2.4,7,3.9c1.7,1.1,2.6,2.8,2.2,4.9c-0.4,2.1-1.8,3.3-3.8,4
			c-3.5,1.2-7.2-0.5-9.1-4.2c-0.5-1-0.4-2.3-1.7-3.3c-2.3,7.4-1.1,9.3,6,10c2.5,0.3,4.9,0,7.3-0.9c4.4-1.7,6.7-6.7,5.1-11
			C85.8,45.2,83.7,43.5,81.4,42.2z"/>
		<path class="st1" d="M190.6,52.7c0-2.2,0.1-4.5,0-6.7c-0.3-4.1-2.7-6.6-6.3-6.7c-2.2-0.1-4.1,1-6.1,2.4c0.1-3.1-1.3-2.7-3.1-1.7
			c-0.4,0.3-1,0.4-1.5,0.6c-2.8,1.2-2.8,1.2-0.8,2.8c0.1,0.1,0.3,0.3,0.4,0.5c0.3,4.2,0.4,8.5-0.1,12.7c-0.1,0.8-1.1,0.8-1.8,1.1
			c-0.4,0.1-0.7,0.5-0.5,1c0.1,0.3,0.4,0.5,0.7,0.5c3.1,0.1,6.2,0,9.4,0c0.2-0.3,0.3-0.5,0.5-0.8c-4.4-1.2-3.3-4.4-3.4-7.1
			c0-1.7,0.1-3.4,0-5.1c-0.2-3.1,2-3.8,4.3-3.9c2.6-0.2,3.6,1.5,3.6,3.9c0,1.9,0,3.9,0,5.8c-0.1,2.6,0.9,5.6-2.8,7.1
			c3.4,0,6.8,0,10.9,0C190.6,56.7,190.6,56.7,190.6,52.7z"/>
		<path class="st1" d="M131.9,57.5c-1.2-0.6-1.1-1.7-1.1-2.8c0-3,0.1-6,0-9c-0.2-5.3-4.7-7.9-9.5-5.8c-1.1,0.5-2.8,2.8-3.4-0.5
			c0-0.1-0.6-0.2-0.8-0.1c-2.1,1-4.6,1.4-7,4c4.5-1,3.8,1.6,3.8,3.7c0,2.4,0,4.9,0,7.4c0,1.5,0.1,3.1-2,3.3c-0.5,0.1-1,0.3-0.8,1
			c0.1,0.5,0.6,0.5,1.1,0.5c2.7,0,5.3,0,8,0c0.4,0,0.9-0.1,1-0.6c0.2-0.7-0.4-1-0.9-1c-1.7-0.3-1.9-1.4-1.9-2.8c0-3,0.1-6,0-9
			c-0.1-1.9,1-2.6,2.5-3.2c1.6-0.6,3.1-0.8,4.4,0.6c1.2,1.2,1.7,12.5,0.6,13.7c-0.3,0.4-0.9,0.6-1.3,0.7c-0.6,0.2-1,0.4-0.9,1.1
			c0.1,0.7,0.8,0.5,1.3,0.5c2.2,0,4.5,0.1,6.7,0c0.7,0,1.7,0.4,2-0.4C133.9,57.5,132.5,57.8,131.9,57.5z"/>
		<path class="st1" d="M254.2,39.5c-2.4-1.2-4.4,0.6-6.2,2.4c-0.9-0.9,0.2-3.1-2-2.4c-1.7,0.6-3.3,1.3-5,2.2
			c-0.6,0.3-1.3,1.5-0.1,1.5c2.8-0.1,2.1,1.7,2.2,3.2c0.1,2.6,0,5.1,0,7.7c0,1.6,0.3,3.3-2,3.7c-0.4,0.1-0.8,0.4-0.7,0.9
			s0.5,0.6,1,0.6c3,0,6,0,9,0c0.4,0,0.9-0.1,1-0.6c0.1-0.4-0.3-0.8-0.7-0.8c-3.4,0-2.9-2.4-2.9-4.6c0-1.7,0.1-3.4,0-5.1
			c-0.1-2.1,0.1-3.9,2.1-4.9s3.6-0.2,5.4,2.1C254.7,42.7,256.1,40.5,254.2,39.5z"/>
		<path class="st1" d="M145.5,42.1c1.3,0.1,3.4,0.9,3.7-1.8c-0.4-0.1-0.9-0.2-1.3-0.1c-3.1,0.3-6.2,0.6-5.2-4.2
			c0.1-0.4-0.1-0.9-0.6-1c-0.6-0.1-1,0.4-1.2,0.8c-1.2,2-2.8,3.4-4.8,4.6c-0.4,0.3-1,0.7-1,1.1c0,0.9,0.8,0.8,1.5,0.8
			c1.7-0.1,1.5,1,1.5,2.1c0,3,0,6,0.1,9c0.1,2.4,0.7,4.6,3.3,5.8c2.5,1.1,4.6,0.1,6.5-1.3c0.5-0.4,1.3-0.6,1-1.3
			c-0.4-0.8-1.1-0.3-1.7-0.2c-3.5,0.5-4.4-0.3-4.5-3.8c-0.1-2.4,0.1-4.9-0.1-7.4C142.4,42.5,143.3,41.9,145.5,42.1z"/>
		<path class="st1" d="M214.7,52.7c0-7.2,0-14.3,0-21.5c0-6.8,0-6.8-6.2-3.8c-0.4,0.2-0.8,0.3-1.2,0.6c-0.4,0.3-0.6,0.6-0.4,1.1
			c0.2,0.6,0.6,0.4,1,0.3c2.2-0.6,2.2,0.8,2.2,2.3c-0.1,2.1-0.1,4,0,6.1c0.1,1.9-0.6,2.1-2.2,1.7c-2.4-0.6-4.7-0.2-6.9,0.8
			c-5.1,2.4-7.3,9.1-4.8,14.3c2.2,4.7,8.7,6.7,12.8,3.5c0.4-0.3,0.9-0.9,1.3-0.4c3.3,4,5.3-0.4,8.1-1.2
			C214.4,57.5,214.7,54.9,214.7,52.7z M210.1,46.2c0,1.1,0,2.1,0,3.2c0,1,0,1.9,0,2.9c0,3.9-3.2,5.7-6.7,3.8
			c-4.1-2.2-4.5-11-0.6-13.6c1.7-1.1,3.5-1.4,5.5-0.6C210.5,42.7,210.1,44.5,210.1,46.2z"/>
		<path class="st1" d="M167.6,56.3c-1.2,0-1.4-0.7-1.4-1.7c0-1.6,0-3.2,0-4.8h-0.1c0-1.6,0.1-3.2,0-4.8c-0.3-3.4-2.4-5.5-5.8-5.7
			c-3.1-0.3-7.8,2.3-8.5,4.8c-0.3,1.1-0.1,2.2,0.6,3c0.5,0.6,1.2,0.1,1.7-0.1c1.1-0.4,1.3-0.9,1-2.1c-0.3-1.9,1.2-2.9,2.9-3.1
			c2-0.3,2.9,1.1,3.3,2.8c0.3,1.5,0.8,3.1-1.5,3.8c-2.1,0.6-4.2,1.5-6.2,2.5c-2.6,1.3-3.3,3.5-2.2,6.2c0.9,2.3,3.5,3.3,6.2,2.4
			c1-0.3,1.9-0.9,2.8-1.4c0.4-0.3,1-0.8,1.3-0.2c1.8,3.7,3.9,0.4,5.9,0.3c0.7-0.1,1.7-0.3,1.6-1.2C169.2,55.4,168.2,56.3,167.6,56.3
			z M161.5,52.3c0.6,2.9-0.6,4.2-3.1,4.4c-1.2,0.1-2.3-0.3-2.9-1.5c-0.5-1.2-0.4-2.3,0.5-3.3c1.2-1.2,3-2.1,4.5-2.2
			C162.7,49.7,160.9,51.8,161.5,52.3z"/>
		<path class="st1" d="M106.3,52.4c0.1-2.6,0.1-5.1-0.1-7.7c-0.2-3.3-2.6-5.3-6-5.5c-3.2-0.2-7.8,2.6-8.2,5c-0.2,1.1-0.4,2.7,1,2.9
			c0.8,0.1,2.8-0.1,2.4-2.1c-0.4-2.2,1-3.2,2.8-3.5c2-0.3,2.9,1.1,3.3,2.8c0.4,1.9,0.3,3.5-2.2,4c-1.7,0.4-3.2,1.1-4.8,1.8
			c-3.2,1.5-4.3,4-3.1,6.7c1.2,2.6,4,3.4,7.1,2.1c0.7-0.3,1.3-0.7,2-1.1c0.5-0.3,0.9-0.6,1.6-0.1c2.1,1.9,5.3,1.2,7.6-1.8
			C106.1,57.1,106.1,54.9,106.3,52.4z M101.6,52.4c0.6,2.8-0.5,4.1-3,4.4c-1.2,0.1-2.3-0.2-2.9-1.4c-0.5-1.2-0.4-2.2,0.4-3.2
			c1.2-1.3,2.9-2.1,4.4-2.2C103,49.6,101,51.8,101.6,52.4z"/>
		<path class="st1" d="M232.4,39.6c-4.4-1.3-9.2,0.8-11.4,4.9c-2.4,4.6-1.2,10.5,2.6,13.3c3.5,2.5,9.8,2.2,12.9-0.6
			c0.6-0.6,1-1.2,0.4-2.2c-6.8,3-11.2,1.2-12.4-4.9c-0.3-1.7-0.1-2.4,1.8-2.2c2.4,0.1,4.9,0.1,7.4,0c1.3-0.1,3.3,0.7,3.9-0.5
			c0.8-1.7-0.3-3.5-1.3-5C235.3,41,234,40.2,232.4,39.6z M232.9,44.8c-0.2,2.9-2.8,0.4-4,1.5c-1.2-1-3.7,1.2-3.8-1.3
			c-0.1-2.1,1.9-3.6,4.2-3.5C231.4,41.4,233,42.8,232.9,44.8z"/>
	</g>
</g>
</svg>
