<?xml version="1.0" encoding="utf-8"?>
<!-- Generator: Adobe Illustrator 21.1.0, SVG Export Plug-In . SVG Version: 6.00 Build 0)  -->
<svg version="1.1" id="Capa_1" xmlns="http://www.w3.org/2000/svg" xmlns:xlink="http://www.w3.org/1999/xlink" x="0px" y="0px"
	 viewBox="0 0 554 70.6" style="enable-background:new 0 0 554 70.6;" xml:space="preserve">
<style type="text/css">
	.st0{fill:#FFFFFF;}
</style>
<g>
	<path class="st0" d="M58.5,34.4c-1.4-0.4-3.4-0.1-3.5-2.7c0-6-4-10.3-7.4-14.8c-3.5-4.7-7.8-9.2-6.9-16.9c-6,6.3-5.9,13.4-0.6,20.9
		c2.7,3.8,5.8,7.4,8.1,11.3c2.6,4.3,2.8,8.9-1.1,13.9c0-5.9-3.1-9.5-6-13.1c-4.4-5.4-9.8-10.3-9.3-18.6c-5.4,5.4-5.7,11.6-1.3,18.4
		c2.8,4.3,6.6,7.9,9,12.6c2.1,4.1,2.6,8.2-0.1,13.4c-1.3-3.9-2.8-6.7-4.7-9.2c-2-2.5-3.5-5.4-5.9-7.4c-2.7-2.4-2.2-8-7-7.7
		c-3.7,0.2-7.3,2.2-10.6,4.1c-5,3-10.3,6-10.4,12.9c-0.1,7.1,5.4,10.2,10.6,13.3c0.6,0.3,1.2,0.5,1.8,0.8c17.2,6.8,34.4,6.7,51.6,0
		c3.4-1.3,6.5-3.3,9.1-6c5.4-5.5,5.4-11.7-0.1-17.1C69.5,38.3,64.2,36.1,58.5,34.4z"/>
	<path class="st0" d="M116.5,39.7c-3.3-1.9-6.9-3.4-10.1-5.4c-3.1-2-4.4-5.1-3.2-8.7c1.1-3.5,4.1-4.7,7.5-4.7c4.9,0,8,2.6,10.1,6.9
		c0.6,1.3-0.1,4.1,2.3,3.5c1.7-0.5,0.6-2.9,0.8-4.5c0.2-1.5-0.1-3,0.1-4.5c0.1-1.8-0.7-2.7-2.4-3.2c-5.4-1.5-10.8-2.3-16.2-0.7
		c-6.9,2-10.6,8.1-9.2,15c1,4.8,4.6,7.6,8.6,9.8c3.6,2,7.4,3.8,10.9,6c2.7,1.7,4,4.4,3.4,7.7s-2.8,5.2-5.9,6.2
		C107.7,65,102,62.3,99,56.6c-0.8-1.6-0.6-3.6-2.7-5.1C92.7,63,94.6,66,105.6,67c3.9,0.4,7.7,0,11.3-1.4c6.9-2.7,10.5-10.4,8-17.1
		C123.4,44.3,120.2,41.7,116.5,39.7z"/>
	<path class="st0" d="M443.1,31.6c1.8,0,1.6-1.3,1.6-2.5c0-2.5-0.1-5,0.1-7.5s-0.9-3.1-3.2-3.1c-6.2,0.1-12.3,0-18.5,0
		s-12.3,0.1-18.5-0.1c-2.6-0.1-3.6,0.8-3.4,3.4c0.2,2.5,0,5,0,7.5c0,1,0,2,1.4,2.1c1.2,0.1,1.6-0.6,2-1.7c2.7-7.5,4.1-8.3,11.3-8.2
		c2.8,0,3.3,1.1,3.3,3.5c-0.1,11.2-0.1,22.3,0,33.5c0,2.4-0.4,4.3-3.2,4.7c-1,0.2-2.1,0.4-1.9,1.7c0.2,1.4,1.4,1.1,2.4,1.1
		c4.3,0,8.7,0,13,0c0.9,0,2.2,0.3,2.5-1c0.3-1.3-0.8-1.6-1.8-1.8c-3.3-0.6-3.4-3-3.4-5.6c0.1-9.7,0-19.3,0-29c0-7.7,0.5-8.1,8.1-6.8
		c4.2,0.7,5.8,3.4,6.3,7.2C441.4,30.4,441.5,31.7,443.1,31.6z"/>
	<path class="st0" d="M286.6,56.1c0-3.5,0.2-7,0-10.5c-0.4-6.4-4.2-10.3-9.8-10.5c-3.5-0.1-6.4,1.5-9.5,3.8c0.1-4.8-2.1-4.2-4.9-2.6
		c-0.7,0.4-1.5,0.6-2.3,0.9c-4.3,1.8-4.3,1.8-1.2,4.3c0.2,0.2,0.5,0.5,0.6,0.8c0.4,6.6,0.6,13.2-0.1,19.8c-0.1,1.3-1.7,1.3-2.8,1.7
		c-0.6,0.2-1.1,0.8-0.8,1.5c0.2,0.4,0.7,0.8,1.1,0.8c4.9,0.1,9.7,0,14.6,0c0.3-0.4,0.5-0.8,0.8-1.2c-6.8-1.8-5.2-6.8-5.3-11.1
		c0-2.7,0.1-5.3,0-8c-0.3-4.9,3.1-5.9,6.7-6.1c4-0.3,5.6,2.3,5.6,6c0,3,0,6,0,9c-0.1,4,1.4,8.7-4.3,11c5.3,0,10.6,0,17,0
		C286.6,62.2,286.6,62.2,286.6,56.1z"/>
	<path class="st0" d="M195.2,63.5c-1.9-0.9-1.7-2.7-1.7-4.3c0-4.7,0.2-9.3,0-14c-0.3-8.2-7.3-12.3-14.8-9c-1.7,0.8-4.3,4.3-5.3-0.8
		c0-0.2-1-0.3-1.3-0.2c-3.3,1.6-7.2,2.2-10.9,6.2c7-1.6,5.9,2.5,5.9,5.7c0,3.8,0,7.7,0,11.5c0,2.4,0.2,4.8-3.1,5.2
		c-0.8,0.1-1.6,0.5-1.3,1.6c0.2,0.8,1,0.8,1.7,0.8c4.2,0,8.3,0,12.5,0c0.7,0,1.4-0.1,1.6-0.9c0.3-1.1-0.6-1.5-1.4-1.6
		c-2.7-0.4-3-2.2-3-4.4c0-4.7,0.2-9.3,0-14c-0.1-3,1.6-4.1,3.9-5c2.5-1,4.9-1.2,6.9,0.9c1.8,1.8,2.6,19.5,0.9,21.3
		c-0.5,0.6-1.4,0.9-2.1,1.1c-0.9,0.3-1.6,0.6-1.4,1.7c0.2,1.1,1.3,0.8,2,0.8c3.5,0,7,0.1,10.5,0c1.1,0,2.7,0.7,3.1-0.6
		C198.3,63.5,196.2,64,195.2,63.5z"/>
	<path class="st0" d="M385.6,35.5c-3.8-1.9-6.8,1-9.7,3.7c-1.4-1.4,0.3-4.8-3.1-3.7c-2.7,0.9-5.2,2.1-7.8,3.4c-1,0.5-2,2.4-0.2,2.3
		c4.4-0.2,3.3,2.7,3.4,5c0.1,4,0,8,0,12c0,2.5,0.5,5.2-3.1,5.8c-0.7,0.1-1.2,0.7-1.1,1.4c0.1,0.8,0.8,1,1.5,1c4.7,0,9.3,0,14,0
		c0.7,0,1.4-0.2,1.5-1c0.1-0.7-0.4-1.3-1.1-1.3c-5.3,0-4.5-3.8-4.5-7.1c0-2.7,0.1-5.3,0-8c-0.2-3.2,0.2-6,3.3-7.7
		c3.1-1.6,5.6-0.3,8.4,3.2C386.4,40.4,388.6,37,385.6,35.5z"/>
	<path class="st0" d="M492.6,39.5c1.9,0.2,4.5,1.1,5.4-3.1c-3.2,0-6.5,0.8-9.1-0.2c-3.3-1.3,0.1-5.7-2.5-8.4
		c-2.6,3.9-5.5,7.2-9.6,9.3c-1.2,0.6-1.7,2.4,0.1,2.3c5-0.3,3.6,3.1,3.7,5.6c0.1,3.8,0,7.6,0,11.5s1,7.3,4.8,9.1
		c3.8,1.8,7.1,0.5,10.1-1.8c0.8-0.6,2.5-0.9,1.7-2.4c-0.6-1.2-1.7-0.2-2.6-0.1c-4.9,0.8-6.8-0.6-7-5.6c-0.2-3.6,0.2-7.3-0.1-11
		C487.1,40.6,488.4,39,492.6,39.5z"/>
	<path class="st0" d="M216.3,39.5c2.1,0.1,5.3,1.4,5.7-2.8c-0.7-0.1-1.4-0.3-2-0.2c-4.8,0.4-9.7,0.9-8.1-6.6
		c0.1-0.7-0.1-1.4-0.9-1.5c-1-0.2-1.5,0.6-1.9,1.3c-1.9,3.1-4.4,5.3-7.5,7.1c-0.7,0.4-1.6,1.1-1.6,1.7c0,1.4,1.3,1.2,2.3,1.2
		c2.7-0.2,2.4,1.6,2.4,3.3c0,4.7,0,9.3,0.2,14c0.1,3.8,1.1,7.2,5.1,9c3.9,1.7,7.1,0.2,10.1-2.1c0.8-0.6,2.1-0.9,1.5-2.1
		c-0.6-1.3-1.7-0.4-2.6-0.3c-5.4,0.8-6.9-0.4-7-5.9c-0.1-3.8,0.2-7.7-0.1-11.5C211.6,40.2,212.9,39.3,216.3,39.5z"/>
	<path class="st0" d="M518.6,39.6c1.6-0.1,3.4,0,3.3-2c-0.1-2-2-1.1-3.1-1.1c-6.6-0.3-6.6-0.2-7-7.2c0-0.3-0.3-0.5-1.1-1.8
		c-2.2,3.7-4.6,6.6-7.9,8.6c-1,0.6-3,0.8-2.5,2.5c0.4,1.5,1.9,0.7,3,0.9c2.1,0.2,1.6,1.8,1.6,3c0,4.5,0.1,9,0,13.5
		c0,4.1,0.9,7.7,4.9,9.6c4,1.9,7.4,0.1,10.6-2.2c0.6-0.5,1.6-0.9,1.3-1.9c-0.5-1.3-1.5-0.7-2.5-0.5c-5.5,1-7.2-0.4-7.4-6.1
		c-0.1-2.7,0-5.3,0-8C511.9,40,511.9,40,518.6,39.6z"/>
	<path class="st0" d="M324.1,56c0-11.2,0-22.3,0-33.5c0-10.6,0-10.6-9.6-5.9c-0.6,0.3-1.2,0.5-1.8,0.9c-0.6,0.4-0.9,0.9-0.7,1.7
		c0.3,0.9,1,0.6,1.6,0.5c3.4-0.9,3.5,1.2,3.5,3.6c-0.1,3.2-0.2,6.3,0,9.5c0.2,2.9-1,3.3-3.4,2.7c-3.7-0.9-7.3-0.3-10.7,1.3
		c-7.9,3.7-11.3,14.1-7.5,22.2c3.5,7.3,13.5,10.5,19.9,5.4c0.6-0.5,1.4-1.4,2.1-0.6c5.1,6.3,8.2-0.6,12.6-1.9
		C323.7,63.5,324.1,59.5,324.1,56z M317,45.9c0,1.7,0,3.3,0,5c0,1.5,0,3,0,4.5c0,6-5,8.8-10.4,5.9c-6.4-3.5-7-17.2-0.9-21.2
		c2.6-1.7,5.4-2.2,8.5-0.9C317.5,40.5,317,43.2,317,45.9z"/>
	<path class="st0" d="M456.2,35.1c-9-0.1-16,6.6-16,15.5c-0.1,9.3,7.1,16.3,16.4,16.3c8.7,0,15.7-6.7,15.9-15.3
		C472.6,42.4,465.6,35.2,456.2,35.1z M463.9,57.8c-0.9,3.1-2.7,5.3-6.1,5.8s-5.8-1.3-7.4-4c-1.9-3-2.5-6.5-2.4-11.4
		c0,0,0-1.3,0.2-2.6c0.8-3.6,2.2-6.8,6.4-7.2c4-0.4,6.6,1.8,8.1,5.3C464.7,48.3,465.3,53,463.9,57.8z"/>
	<path class="st0" d="M250.8,61.6c-1.8,0-2.2-1.1-2.2-2.6c0-2.5,0-5,0-7.5h-0.1c0-2.5,0.2-5,0-7.5c-0.5-5.3-3.8-8.5-9-8.9
		c-4.9-0.4-12.1,3.6-13.2,7.4c-0.5,1.7-0.2,3.4,0.9,4.7c0.8,0.9,1.8,0.1,2.7-0.2c1.7-0.6,2-1.4,1.6-3.3c-0.5-3,1.9-4.5,4.5-4.8
		c3.1-0.4,4.5,1.7,5.1,4.4c0.5,2.4,1.3,4.9-2.4,5.9c-3.3,1-6.6,2.3-9.7,3.9c-4,2-5.1,5.5-3.5,9.7c1.4,3.6,5.5,5.1,9.7,3.8
		c1.6-0.5,3-1.4,4.4-2.2c0.7-0.4,1.6-1.3,2.1-0.3c2.8,5.8,6.1,0.7,9.2,0.5c1.1-0.1,2.6-0.5,2.5-1.9
		C253.3,60.3,251.7,61.6,250.8,61.6z M241.2,55.4c0.9,4.5-1,6.5-4.8,6.9c-1.9,0.2-3.6-0.4-4.5-2.3c-0.8-1.8-0.6-3.6,0.8-5.1
		c1.9-1.9,4.6-3.2,7-3.4C243.2,51.3,240.3,54.6,241.2,55.4z"/>
	<path class="st0" d="M548.3,55.6c0.2-4,0.2-8,0-12c-0.3-5.1-3.9-8.2-9.3-8.4c-5.2-0.2-12.2,4.1-12.7,7.9c-0.2,1.7-0.5,4.2,1.7,4.4
		c1.4,0.1,4.2-0.2,3.6-3.4c-0.7-3.5,1.6-4.9,4.5-5.2c3.1-0.3,4.5,1.8,5,4.5c0.5,2.8,0.4,5.1-3.2,6.1c-3.3,0.9-6.7,2-9.6,3.9
		c-3.3,2.2-4.2,5.1-3,8.6c1.4,3.9,4.4,5.3,8.3,4.8c2.2-0.3,4.1-1.2,5.9-2.5c0.8-0.5,1.4-1.2,2.5-0.3c3.6,2.9,7.7,2.1,12-2.5
		C548.3,62.7,548.1,59.4,548.3,55.6z M536.5,62.3c-2,0.3-3.6-0.6-4.5-2.4c-1-2-0.6-3.9,1.2-5.3c1-0.8,2.3-1.3,3.4-1.9
		c3.7-2.1,5.7-1.7,4.5,3C542.1,59.9,540.2,61.8,536.5,62.3z"/>
	<path class="st0" d="M155.3,55.6c0.1-4,0.2-8-0.1-12c-0.3-5.1-4-8.3-9.3-8.5c-5-0.3-12.1,4-12.8,7.8c-0.3,1.7-0.6,4.2,1.6,4.5
		c1.3,0.2,4.3-0.1,3.7-3.3c-0.6-3.4,1.5-5,4.4-5.4c3.1-0.5,4.5,1.7,5.1,4.3c0.7,3,0.4,5.5-3.4,6.3c-2.6,0.6-5,1.7-7.4,2.8
		c-5,2.3-6.7,6.2-4.8,10.4c1.9,4,6.3,5.3,11.1,3.3c1.1-0.5,2-1.1,3.1-1.7c0.8-0.5,1.4-1,2.5-0.1c3.3,2.9,8.2,1.8,11.8-2.8
		C155,62.9,155.1,59.4,155.3,55.6z M148,55.5c1,4.3-0.8,6.4-4.6,6.9c-1.9,0.2-3.6-0.3-4.5-2.2c-0.8-1.8-0.7-3.5,0.7-5
		c1.9-2,4.5-3.2,6.9-3.5C150.2,51.2,147.1,54.6,148,55.5z"/>
	<path class="st0" d="M351.7,35.7c-6.9-2.1-14.4,1.2-17.8,7.7c-3.7,7.2-1.9,16.3,4.1,20.7c5.4,3.9,15.3,3.5,20.1-1
		c0.9-0.9,1.5-1.8,0.7-3.5c-10.6,4.6-17.5,1.8-19.3-7.7c-0.5-2.6-0.1-3.7,2.8-3.5c3.8,0.2,7.7,0.1,11.5,0c2.1-0.1,5.1,1.1,6-0.8
		c1.2-2.6-0.4-5.5-2.1-7.8C356.2,37.9,354.1,36.5,351.7,35.7z M352.4,43.7c-0.3,4.5-4.3,0.7-6.2,2.3c-1.9-1.5-5.8,1.8-5.9-2.1
		c-0.1-3.3,2.9-5.6,6.5-5.5C350.1,38.5,352.6,40.7,352.4,43.7z"/>
</g>
</svg>
