<?xml version="1.0" encoding="utf-8"?>
<!-- Generator: Adobe Illustrator 22.0.1, SVG Export Plug-In . SVG Version: 6.00 Build 0)  -->
<svg version="1.1" id="Capa_1" xmlns="http://www.w3.org/2000/svg" xmlns:xlink="http://www.w3.org/1999/xlink" x="0px" y="0px"
	 viewBox="0 0 479.4 89.6" style="enable-background:new 0 0 479.4 89.6;" xml:space="preserve">
<style type="text/css">
	.st0{fill:#FFFFFF;}
	.st1{fill:#80725D;}
	.st2{fill:#EC0000;}
</style>
<g>
	<rect x="280.9" y="1" class="st0" width="198" height="87.6"/>
	<path class="st1" d="M327.5,41.5h-4.2c-0.5,0-0.9-0.1-1.2-0.3s-0.5-0.5-0.7-0.8l-1.8-4.9h-10.5l-1.8,4.9c-0.1,0.3-0.3,0.6-0.6,0.8
		c-0.3,0.2-0.7,0.4-1.1,0.4h-4.3l10.3-25.8h5.6L327.5,41.5z M318.3,31.7l-2.9-7.9c-0.2-0.4-0.3-0.9-0.5-1.5
		c-0.2-0.6-0.4-1.2-0.5-1.8c-0.2,0.7-0.3,1.3-0.5,1.8c-0.2,0.6-0.4,1.1-0.5,1.5l-2.8,7.9H318.3z"/>
	<path class="st1" d="M345.5,15v26.5h-3.1c-0.6,0-1.1-0.3-1.2-0.9l-0.4-1.6c-0.4,0.4-0.8,0.8-1.2,1.1c-0.4,0.3-0.9,0.6-1.4,0.9
		c-0.5,0.2-1,0.4-1.6,0.6c-0.6,0.1-1.2,0.2-1.8,0.2c-1,0-1.9-0.2-2.8-0.6c-0.8-0.4-1.6-1-2.2-1.8c-0.6-0.8-1.1-1.8-1.4-2.9
		c-0.3-1.2-0.5-2.5-0.5-4c0-1.4,0.2-2.6,0.6-3.8s0.9-2.2,1.6-3c0.7-0.9,1.6-1.5,2.6-2c1-0.5,2.1-0.7,3.3-0.7c1,0,1.9,0.1,2.6,0.4
		c0.7,0.3,1.3,0.7,1.9,1.2V15H345.5z M340.5,28c-0.5-0.5-1-0.9-1.5-1.1c-0.6-0.2-1.1-0.3-1.8-0.3c-0.6,0-1.2,0.1-1.7,0.3
		c-0.5,0.2-0.9,0.6-1.3,1.1c-0.4,0.5-0.6,1.1-0.8,1.8c-0.2,0.7-0.3,1.6-0.3,2.7c0,1,0.1,1.9,0.2,2.6s0.4,1.3,0.7,1.7
		c0.3,0.4,0.7,0.8,1.1,1s0.9,0.3,1.4,0.3c0.9,0,1.6-0.2,2.2-0.5c0.6-0.3,1.2-0.8,1.7-1.5V28z"/>
	<path class="st1" d="M367,23.2l-7.4,18.4h-4.6l-7.4-18.4h4.2c0.4,0,0.7,0.1,0.9,0.2s0.4,0.4,0.5,0.6l3.2,9.1
		c0.2,0.6,0.4,1.2,0.5,1.8c0.2,0.6,0.3,1.2,0.4,1.8c0.1-0.6,0.3-1.2,0.4-1.8c0.2-0.6,0.4-1.2,0.6-1.8l3.3-9.1
		c0.1-0.3,0.2-0.5,0.5-0.6c0.2-0.2,0.5-0.2,0.9-0.2H367z"/>
	<path class="st1" d="M368.3,25.7c1.1-1,2.3-1.7,3.7-2.2c1.3-0.5,2.8-0.7,4.3-0.7c1.1,0,2.1,0.2,3,0.5c0.9,0.4,1.6,0.9,2.2,1.5
		c0.6,0.6,1.1,1.4,1.4,2.3c0.3,0.9,0.5,1.8,0.5,2.9v11.5h-2.3c-0.5,0-0.8-0.1-1.1-0.2c-0.2-0.1-0.5-0.4-0.6-0.8l-0.4-1.2
		c-0.5,0.4-0.9,0.8-1.4,1.1c-0.4,0.3-0.9,0.6-1.4,0.8c-0.5,0.2-1,0.4-1.5,0.5s-1.1,0.2-1.8,0.2c-0.8,0-1.6-0.1-2.3-0.3
		c-0.7-0.2-1.3-0.5-1.8-1s-0.9-0.9-1.1-1.6c-0.3-0.6-0.4-1.4-0.4-2.2c0-0.7,0.2-1.4,0.5-2c0.4-0.7,1-1.3,1.8-1.8
		c0.9-0.6,2-1,3.4-1.4s3.2-0.6,5.4-0.6V30c0-1.2-0.2-2-0.7-2.5c-0.5-0.5-1.2-0.8-2.2-0.8c-0.7,0-1.3,0.1-1.7,0.2s-0.9,0.3-1.2,0.5
		c-0.3,0.2-0.7,0.4-1,0.5s-0.7,0.2-1.1,0.2c-0.4,0-0.6-0.1-0.9-0.3c-0.2-0.2-0.4-0.4-0.6-0.6L368.3,25.7z M378.5,33.9
		c-1.2,0.1-2.2,0.2-3.1,0.3s-1.5,0.3-1.9,0.6c-0.5,0.2-0.8,0.5-1,0.8s-0.3,0.6-0.3,1c0,0.7,0.2,1.2,0.6,1.5c0.4,0.3,1,0.4,1.7,0.4
		c0.8,0,1.6-0.1,2.2-0.4c0.6-0.3,1.2-0.7,1.8-1.4V33.9z"/>
	<path class="st1" d="M392,25.3c0.4-0.4,0.8-0.7,1.2-1c0.4-0.3,0.8-0.6,1.3-0.8c0.5-0.2,0.9-0.4,1.5-0.5c0.5-0.1,1.1-0.2,1.7-0.2
		c1,0,1.9,0.2,2.7,0.5c0.8,0.3,1.5,0.8,2,1.4c0.5,0.6,0.9,1.4,1.2,2.2c0.3,0.9,0.4,1.8,0.4,2.8v11.7h-5V29.9c0-1-0.2-1.8-0.7-2.4
		s-1.2-0.8-2.2-0.8c-0.7,0-1.4,0.1-2,0.4c-0.6,0.3-1.2,0.7-1.8,1.2v13.2h-5V23.2h3.1c0.6,0,1.1,0.3,1.3,0.9L392,25.3z"/>
	<path class="st1" d="M421.7,27.3c-0.1,0.2-0.3,0.3-0.4,0.4c-0.1,0.1-0.4,0.2-0.6,0.2c-0.2,0-0.5-0.1-0.7-0.2
		c-0.2-0.1-0.5-0.3-0.8-0.4c-0.3-0.2-0.6-0.3-1-0.4c-0.4-0.1-0.9-0.2-1.5-0.2c-0.8,0-1.4,0.1-2,0.4s-1,0.6-1.4,1.1
		c-0.4,0.5-0.6,1.1-0.8,1.8c-0.2,0.7-0.3,1.5-0.3,2.4c0,1.9,0.4,3.3,1.2,4.3c0.8,1,1.8,1.5,3.2,1.5c0.5,0,0.9,0,1.2-0.1
		c0.3-0.1,0.6-0.2,0.9-0.3c0.2-0.1,0.5-0.2,0.6-0.4c0.2-0.1,0.4-0.3,0.5-0.4c0.2-0.1,0.3-0.2,0.5-0.3s0.3-0.1,0.6-0.1
		c0.4,0,0.7,0.1,0.9,0.4l1.4,1.8c-0.5,0.6-1.1,1.1-1.7,1.5c-0.6,0.4-1.2,0.7-1.9,0.9s-1.3,0.4-2,0.5c-0.7,0.1-1.3,0.1-2,0.1
		c-1.2,0-2.2-0.2-3.3-0.6c-1-0.4-1.9-1-2.7-1.8c-0.8-0.8-1.4-1.8-1.9-3c-0.5-1.2-0.7-2.5-0.7-4c0-1.3,0.2-2.6,0.6-3.7
		c0.4-1.2,1-2.1,1.8-3c0.8-0.8,1.7-1.5,2.9-2c1.1-0.5,2.5-0.7,4-0.7c1.4,0,2.7,0.2,3.8,0.7c1.1,0.5,2.1,1.1,2.9,2L421.7,27.3z"/>
	<path class="st1" d="M429.3,33.1c0.2,1.7,0.7,3,1.5,3.8c0.8,0.8,1.9,1.2,3.3,1.2c0.7,0,1.3-0.1,1.8-0.2c0.5-0.2,0.9-0.3,1.3-0.5
		c0.4-0.2,0.7-0.4,1-0.5c0.3-0.2,0.6-0.2,0.9-0.2c0.4,0,0.7,0.1,0.9,0.4l1.5,1.8c-0.5,0.6-1.1,1.1-1.8,1.5c-0.6,0.4-1.3,0.7-2,0.9
		c-0.7,0.2-1.4,0.4-2.1,0.5c-0.7,0.1-1.4,0.1-2,0.1c-1.3,0-2.5-0.2-3.7-0.6c-1.1-0.4-2.1-1-3-1.9c-0.8-0.8-1.5-1.8-2-3.1
		c-0.5-1.2-0.7-2.6-0.7-4.3c0-1.2,0.2-2.4,0.6-3.5c0.4-1.1,1-2.1,1.8-2.9s1.8-1.5,2.9-1.9c1.1-0.5,2.4-0.7,3.8-0.7
		c1.2,0,2.3,0.2,3.3,0.6c1,0.4,1.9,0.9,2.6,1.6c0.7,0.7,1.3,1.6,1.7,2.6c0.4,1,0.6,2.2,0.6,3.6c0,0.4,0,0.7-0.1,0.9
		c0,0.2-0.1,0.4-0.2,0.6s-0.2,0.2-0.3,0.3c-0.1,0.1-0.3,0.1-0.6,0.1H429.3z M437.3,30.2c0-0.5-0.1-1-0.2-1.5
		c-0.1-0.5-0.4-0.9-0.7-1.2s-0.7-0.6-1.1-0.8c-0.5-0.2-1-0.3-1.7-0.3c-1.2,0-2.1,0.3-2.8,1s-1.1,1.6-1.3,2.8H437.3z"/>
	<path class="st1" d="M316.6,70.7l0,3h-15.4V48.8h15.4v3h-11.7v7.9h9.4v2.9h-9.4v8.1H316.6z"/>
	<path class="st1" d="M320.1,73.7V56.1h2c0.5,0,0.8,0.2,0.9,0.7l0.2,1.7c0.6-0.8,1.4-1.4,2.2-1.9c0.8-0.5,1.7-0.7,2.8-0.7
		c1.2,0,2.1,0.3,2.8,1c0.7,0.6,1.3,1.5,1.6,2.6c0.3-0.6,0.6-1.2,1-1.6s0.9-0.8,1.4-1.1s1-0.5,1.6-0.6s1.1-0.2,1.7-0.2
		c0.9,0,1.8,0.1,2.5,0.4s1.4,0.7,1.9,1.3c0.5,0.6,0.9,1.3,1.2,2.1c0.3,0.8,0.4,1.8,0.4,2.8v11.2h-3.4V62.5c0-1.3-0.3-2.3-0.9-3
		c-0.6-0.7-1.4-1-2.5-1c-0.5,0-0.9,0.1-1.4,0.3s-0.8,0.4-1.2,0.8c-0.3,0.3-0.6,0.8-0.8,1.2c-0.2,0.5-0.3,1.1-0.3,1.7v11.2h-3.4V62.5
		c0-1.4-0.3-2.4-0.8-3s-1.3-1-2.4-1c-0.7,0-1.4,0.2-2,0.6s-1.2,0.9-1.7,1.6v13.1H320.1z"/>
	<path class="st1" d="M352,58.7c0.4-0.4,0.8-0.8,1.2-1.2c0.4-0.4,0.9-0.7,1.4-0.9c0.5-0.3,1-0.5,1.6-0.6c0.5-0.1,1.1-0.2,1.8-0.2
		c1,0,1.9,0.2,2.7,0.6s1.5,1,2.1,1.7c0.6,0.8,1,1.7,1.3,2.8c0.3,1.1,0.5,2.4,0.5,3.9c0,1.3-0.2,2.5-0.5,3.6
		c-0.4,1.1-0.9,2.1-1.5,2.9s-1.5,1.5-2.4,1.9c-0.9,0.5-2,0.7-3.2,0.7c-1.1,0-2-0.2-2.7-0.5c-0.8-0.3-1.4-0.8-2-1.5v7.7h-3.4V56.1h2
		c0.5,0,0.8,0.2,0.9,0.7L352,58.7z M352.1,69.3c0.6,0.7,1.2,1.2,1.8,1.5c0.6,0.3,1.4,0.4,2.2,0.4c1.6,0,2.8-0.6,3.6-1.7
		c0.8-1.1,1.3-2.7,1.3-4.9c0-1.1-0.1-2.1-0.3-2.9c-0.2-0.8-0.5-1.4-0.8-1.9c-0.4-0.5-0.8-0.9-1.3-1.1s-1.1-0.4-1.8-0.4
		c-1,0-1.8,0.2-2.6,0.7s-1.4,1.1-2,1.9V69.3z"/>
	<path class="st1" d="M371.5,59.4c0.6-1.2,1.2-2.1,2-2.7c0.8-0.7,1.8-1,2.9-1c0.4,0,0.7,0,1.1,0.1c0.3,0.1,0.6,0.2,0.9,0.4l-0.2,2.6
		c-0.1,0.3-0.3,0.5-0.6,0.5c-0.2,0-0.4,0-0.7-0.1c-0.3-0.1-0.7-0.1-1-0.1c-0.5,0-1,0.1-1.4,0.2c-0.4,0.2-0.8,0.4-1.1,0.7
		c-0.3,0.3-0.6,0.7-0.9,1.1c-0.3,0.4-0.5,1-0.7,1.5v11h-3.4V56.1h1.9c0.4,0,0.6,0.1,0.8,0.2c0.1,0.1,0.2,0.4,0.3,0.7L371.5,59.4z"/>
	<path class="st1" d="M394.8,71.2c-0.4,0.5-0.9,0.9-1.4,1.3c-0.5,0.4-1.1,0.6-1.7,0.9s-1.2,0.4-1.9,0.5c-0.7,0.1-1.3,0.2-1.9,0.2
		c-1.2,0-2.3-0.2-3.4-0.6s-1.9-1-2.7-1.8s-1.3-1.8-1.8-3c-0.4-1.2-0.6-2.5-0.6-4.1c0-1.2,0.2-2.4,0.6-3.4s0.9-2,1.6-2.8
		c0.7-0.8,1.6-1.4,2.6-1.9c1-0.5,2.2-0.7,3.5-0.7c1.1,0,2.1,0.2,3,0.5c0.9,0.4,1.7,0.9,2.4,1.5c0.7,0.7,1.2,1.5,1.6,2.5
		s0.6,2.1,0.6,3.4c0,0.5-0.1,0.9-0.2,1.1c-0.1,0.2-0.3,0.3-0.6,0.3h-11.6c0,1.1,0.2,2,0.5,2.8c0.3,0.8,0.6,1.4,1.1,2
		c0.5,0.5,1,0.9,1.7,1.2c0.6,0.3,1.4,0.4,2.2,0.4c0.8,0,1.4-0.1,2-0.3c0.5-0.2,1-0.4,1.4-0.6c0.4-0.2,0.7-0.4,1-0.6
		c0.3-0.2,0.5-0.3,0.7-0.3c0.3,0,0.5,0.1,0.6,0.3L394.8,71.2z M392,62.9c0-0.7-0.1-1.3-0.3-1.9c-0.2-0.6-0.5-1.1-0.8-1.5
		c-0.4-0.4-0.8-0.7-1.4-1c-0.5-0.2-1.1-0.3-1.8-0.3c-1.4,0-2.5,0.4-3.4,1.2c-0.8,0.8-1.3,2-1.6,3.4H392z"/>
	<path class="st1" d="M409.1,59.1c-0.1,0.2-0.2,0.3-0.3,0.3c-0.1,0.1-0.2,0.1-0.4,0.1c-0.2,0-0.4-0.1-0.6-0.2
		c-0.2-0.1-0.5-0.3-0.8-0.4s-0.7-0.3-1.1-0.4c-0.4-0.1-0.9-0.2-1.5-0.2c-0.5,0-0.9,0.1-1.3,0.2c-0.4,0.1-0.7,0.3-1,0.5
		s-0.5,0.5-0.6,0.8c-0.2,0.3-0.2,0.6-0.2,0.9c0,0.4,0.1,0.8,0.4,1.1c0.3,0.3,0.6,0.5,1,0.7c0.4,0.2,0.9,0.4,1.4,0.6
		c0.5,0.2,1.1,0.3,1.6,0.5c0.6,0.2,1.1,0.4,1.6,0.6s1,0.5,1.4,0.9c0.4,0.4,0.8,0.8,1,1.3c0.3,0.5,0.4,1.1,0.4,1.8
		c0,0.8-0.1,1.6-0.4,2.3s-0.7,1.3-1.3,1.8c-0.6,0.5-1.3,0.9-2.1,1.2c-0.8,0.3-1.8,0.4-2.9,0.4c-1.2,0-2.3-0.2-3.4-0.6
		c-1-0.4-1.9-0.9-2.6-1.5l0.8-1.3c0.1-0.2,0.2-0.3,0.3-0.4c0.1-0.1,0.3-0.1,0.6-0.1c0.2,0,0.4,0.1,0.7,0.2s0.5,0.3,0.8,0.5
		c0.3,0.2,0.7,0.4,1.2,0.5c0.5,0.2,1,0.2,1.7,0.2c0.6,0,1.1-0.1,1.5-0.2c0.4-0.1,0.8-0.3,1.1-0.6c0.3-0.2,0.5-0.5,0.6-0.9
		c0.1-0.3,0.2-0.7,0.2-1c0-0.5-0.1-0.8-0.4-1.2c-0.3-0.3-0.6-0.6-1-0.8c-0.4-0.2-0.9-0.4-1.4-0.6c-0.5-0.2-1.1-0.3-1.7-0.5
		c-0.6-0.2-1.1-0.4-1.7-0.6s-1-0.5-1.4-0.9c-0.4-0.4-0.8-0.8-1-1.4c-0.3-0.5-0.4-1.2-0.4-1.9c0-0.7,0.1-1.3,0.4-2
		c0.3-0.6,0.7-1.2,1.2-1.6c0.5-0.5,1.2-0.9,2-1.1c0.8-0.3,1.7-0.4,2.7-0.4c1.2,0,2.2,0.2,3.2,0.6c0.9,0.4,1.8,0.9,2.4,1.5
		L409.1,59.1z"/>
	<path class="st1" d="M413.3,58.5c1-0.9,2.1-1.6,3.2-2.1c1.2-0.5,2.4-0.7,3.8-0.7c1,0,1.9,0.2,2.7,0.5c0.8,0.3,1.4,0.8,2,1.4
		s0.9,1.3,1.2,2.1c0.3,0.8,0.4,1.7,0.4,2.7v11.2h-1.5c-0.3,0-0.6-0.1-0.8-0.2c-0.2-0.1-0.3-0.3-0.4-0.6l-0.4-1.5
		c-0.5,0.4-0.9,0.8-1.3,1.1c-0.4,0.3-0.9,0.6-1.4,0.8c-0.5,0.2-1,0.4-1.5,0.5c-0.5,0.1-1.1,0.2-1.8,0.2c-0.7,0-1.3-0.1-2-0.3
		c-0.6-0.2-1.1-0.5-1.6-0.9s-0.8-0.9-1.1-1.5c-0.3-0.6-0.4-1.3-0.4-2.1c0-0.7,0.2-1.4,0.6-2c0.4-0.6,1-1.2,1.8-1.7
		c0.9-0.5,2-0.9,3.3-1.2c1.4-0.3,3.1-0.5,5.1-0.6v-1.3c0-1.3-0.3-2.3-0.9-3c-0.6-0.7-1.4-1-2.5-1c-0.7,0-1.4,0.1-1.9,0.3
		c-0.5,0.2-0.9,0.4-1.3,0.6s-0.7,0.4-1,0.6c-0.3,0.2-0.6,0.3-0.8,0.3c-0.2,0-0.4-0.1-0.6-0.2c-0.2-0.1-0.3-0.3-0.4-0.5L413.3,58.5z
		 M423.3,65.9c-1.4,0-2.5,0.2-3.5,0.3c-1,0.2-1.7,0.4-2.3,0.7c-0.6,0.3-1,0.6-1.3,1c-0.3,0.4-0.4,0.8-0.4,1.3c0,0.4,0.1,0.8,0.2,1.1
		s0.3,0.6,0.6,0.8c0.2,0.2,0.5,0.3,0.9,0.4c0.3,0.1,0.7,0.1,1.1,0.1c0.5,0,1-0.1,1.4-0.2s0.8-0.3,1.2-0.4c0.4-0.2,0.7-0.4,1.1-0.7
		c0.3-0.3,0.7-0.6,1-1V65.9z"/>
	<path class="st1" d="M441.5,59.1c-0.1,0.2-0.2,0.3-0.3,0.3c-0.1,0.1-0.2,0.1-0.4,0.1c-0.2,0-0.4-0.1-0.6-0.2
		c-0.2-0.1-0.5-0.3-0.8-0.4s-0.7-0.3-1.1-0.4c-0.4-0.1-0.9-0.2-1.5-0.2c-0.5,0-0.9,0.1-1.3,0.2c-0.4,0.1-0.7,0.3-1,0.5
		s-0.5,0.5-0.6,0.8c-0.2,0.3-0.2,0.6-0.2,0.9c0,0.4,0.1,0.8,0.4,1.1c0.3,0.3,0.6,0.5,1,0.7c0.4,0.2,0.9,0.4,1.4,0.6
		c0.5,0.2,1.1,0.3,1.6,0.5c0.6,0.2,1.1,0.4,1.6,0.6s1,0.5,1.4,0.9c0.4,0.4,0.8,0.8,1,1.3c0.3,0.5,0.4,1.1,0.4,1.8
		c0,0.8-0.1,1.6-0.4,2.3s-0.7,1.3-1.3,1.8c-0.6,0.5-1.3,0.9-2.1,1.2c-0.8,0.3-1.8,0.4-2.9,0.4c-1.2,0-2.3-0.2-3.4-0.6
		c-1-0.4-1.9-0.9-2.6-1.5l0.8-1.3c0.1-0.2,0.2-0.3,0.3-0.4c0.1-0.1,0.3-0.1,0.6-0.1c0.2,0,0.4,0.1,0.7,0.2s0.5,0.3,0.8,0.5
		c0.3,0.2,0.7,0.4,1.2,0.5c0.5,0.2,1,0.2,1.7,0.2c0.6,0,1.1-0.1,1.5-0.2c0.4-0.1,0.8-0.3,1.1-0.6c0.3-0.2,0.5-0.5,0.6-0.9
		c0.1-0.3,0.2-0.7,0.2-1c0-0.5-0.1-0.8-0.4-1.2c-0.3-0.3-0.6-0.6-1-0.8c-0.4-0.2-0.9-0.4-1.4-0.6c-0.5-0.2-1.1-0.3-1.7-0.5
		c-0.6-0.2-1.1-0.4-1.7-0.6s-1-0.5-1.4-0.9c-0.4-0.4-0.8-0.8-1-1.4c-0.3-0.5-0.4-1.2-0.4-1.9c0-0.7,0.1-1.3,0.4-2
		c0.3-0.6,0.7-1.2,1.2-1.6c0.5-0.5,1.2-0.9,2-1.1c0.8-0.3,1.7-0.4,2.7-0.4c1.2,0,2.2,0.2,3.2,0.6c0.9,0.4,1.8,0.9,2.4,1.5
		L441.5,59.1z"/>
	<polygon class="st2" points="442.4,5.3 442.4,12.1 467.8,12.1 467.8,35.3 474.6,35.3 474.6,12.1 474.6,5.7 474.6,5.3 	"/>
	<g>
		<path class="st0" d="M44.5,39.4c-0.9-0.3-2.2-0.1-2.2-1.7c0-3.9-2.6-6.6-4.8-9.5c-2.2-3-5-5.9-4.4-10.9c-3.9,4-3.8,8.6-0.4,13.4
			c1.7,2.4,3.7,4.8,5.2,7.3c1.7,2.8,1.8,5.7-0.7,8.9c0-3.8-2-6.1-3.9-8.4c-2.8-3.5-6.3-6.6-6-11.9c-3.5,3.5-3.7,7.5-0.8,11.8
			c1.8,2.8,4.2,5.1,5.8,8.1c1.3,2.6,1.7,5.3-0.1,8.6c-0.8-2.5-1.8-4.3-3-5.9c-1.3-1.6-2.2-3.5-3.8-4.8c-1.7-1.5-1.4-5.1-4.5-4.9
			c-2.4,0.1-4.7,1.4-6.8,2.6C10.9,44,7.5,46,7.4,50.4c-0.1,4.6,3.5,6.6,6.8,8.5c0.4,0.2,0.8,0.3,1.2,0.5c11,4.4,22.1,4.3,33.1,0
			c2.2-0.8,4.2-2.1,5.8-3.9c3.5-3.5,3.5-7.5-0.1-11C51.6,41.9,48.2,40.5,44.5,39.4z"/>
		<path class="st0" d="M81.8,42.8c-2.1-1.2-4.4-2.2-6.5-3.5c-2-1.3-2.8-3.3-2.1-5.6c0.7-2.2,2.6-3,4.8-3c3.1,0,5.1,1.7,6.5,4.4
			c0.4,0.8-0.1,2.6,1.5,2.2c1.1-0.3,0.4-1.9,0.5-2.9c0.1-1-0.1-1.9,0.1-2.9c0.1-1.2-0.4-1.7-1.5-2.1c-3.5-1-6.9-1.5-10.4-0.4
			c-4.4,1.3-6.8,5.2-5.9,9.6c0.6,3.1,3,4.9,5.5,6.3c2.3,1.3,4.8,2.4,7,3.9c1.7,1.1,2.6,2.8,2.2,4.9c-0.4,2.1-1.8,3.3-3.8,4
			c-3.5,1.2-7.2-0.5-9.1-4.2c-0.5-1-0.4-2.3-1.7-3.3c-2.3,7.4-1.1,9.3,6,10c2.5,0.3,4.9,0,7.3-0.9c4.4-1.7,6.7-6.7,5.1-11
			C86.2,45.8,84.1,44.1,81.8,42.8z"/>
		<path class="st0" d="M191,53.3c0-2.2,0.1-4.5,0-6.7c-0.3-4.1-2.7-6.6-6.3-6.7c-2.2-0.1-4.1,1-6.1,2.4c0.1-3.1-1.3-2.7-3.1-1.7
			c-0.4,0.3-1,0.4-1.5,0.6c-2.8,1.2-2.8,1.2-0.8,2.8c0.1,0.1,0.3,0.3,0.4,0.5c0.3,4.2,0.4,8.5-0.1,12.7c-0.1,0.8-1.1,0.8-1.8,1.1
			c-0.4,0.1-0.7,0.5-0.5,1c0.1,0.3,0.4,0.5,0.7,0.5c3.1,0.1,6.2,0,9.4,0c0.2-0.3,0.3-0.5,0.5-0.8c-4.4-1.2-3.3-4.4-3.4-7.1
			c0-1.7,0.1-3.4,0-5.1c-0.2-3.1,2-3.8,4.3-3.9c2.6-0.2,3.6,1.5,3.6,3.9c0,1.9,0,3.9,0,5.8c-0.1,2.6,0.9,5.6-2.8,7.1
			c3.4,0,6.8,0,10.9,0C191,57.3,191,57.3,191,53.3z"/>
		<path class="st0" d="M132.3,58.1c-1.2-0.6-1.1-1.7-1.1-2.8c0-3,0.1-6,0-9c-0.2-5.3-4.7-7.9-9.5-5.8c-1.1,0.5-2.8,2.8-3.4-0.5
			c0-0.1-0.6-0.2-0.8-0.1c-2.1,1-4.6,1.4-7,4c4.5-1,3.8,1.6,3.8,3.7c0,2.4,0,4.9,0,7.4c0,1.5,0.1,3.1-2,3.3c-0.5,0.1-1,0.3-0.8,1
			c0.1,0.5,0.6,0.5,1.1,0.5c2.7,0,5.3,0,8,0c0.4,0,0.9-0.1,1-0.6c0.2-0.7-0.4-1-0.9-1c-1.7-0.3-1.9-1.4-1.9-2.8c0-3,0.1-6,0-9
			c-0.1-1.9,1-2.6,2.5-3.2c1.6-0.6,3.1-0.8,4.4,0.6c1.2,1.2,1.7,12.5,0.6,13.7c-0.3,0.4-0.9,0.6-1.3,0.7c-0.6,0.2-1,0.4-0.9,1.1
			c0.1,0.7,0.8,0.5,1.3,0.5c2.2,0,4.5,0.1,6.7,0c0.7,0,1.7,0.4,2-0.4C134.3,58.1,132.9,58.4,132.3,58.1z"/>
		<path class="st0" d="M254.6,40.1c-2.4-1.2-4.4,0.6-6.2,2.4c-0.9-0.9,0.2-3.1-2-2.4c-1.7,0.6-3.3,1.3-5,2.2
			c-0.6,0.3-1.3,1.5-0.1,1.5c2.8-0.1,2.1,1.7,2.2,3.2c0.1,2.6,0,5.1,0,7.7c0,1.6,0.3,3.3-2,3.7c-0.4,0.1-0.8,0.4-0.7,0.9
			c0.1,0.5,0.5,0.6,1,0.6c3,0,6,0,9,0c0.4,0,0.9-0.1,1-0.6c0.1-0.4-0.3-0.8-0.7-0.8c-3.4,0-2.9-2.4-2.9-4.6c0-1.7,0.1-3.4,0-5.1
			c-0.1-2.1,0.1-3.9,2.1-4.9c2-1,3.6-0.2,5.4,2.1C255.1,43.3,256.5,41.1,254.6,40.1z"/>
		<path class="st0" d="M145.9,42.7c1.3,0.1,3.4,0.9,3.7-1.8c-0.4-0.1-0.9-0.2-1.3-0.1c-3.1,0.3-6.2,0.6-5.2-4.2
			c0.1-0.4-0.1-0.9-0.6-1c-0.6-0.1-1,0.4-1.2,0.8c-1.2,2-2.8,3.4-4.8,4.6c-0.4,0.3-1,0.7-1,1.1c0,0.9,0.8,0.8,1.5,0.8
			c1.7-0.1,1.5,1,1.5,2.1c0,3,0,6,0.1,9c0.1,2.4,0.7,4.6,3.3,5.8c2.5,1.1,4.6,0.1,6.5-1.3c0.5-0.4,1.3-0.6,1-1.3
			c-0.4-0.8-1.1-0.3-1.7-0.2c-3.5,0.5-4.4-0.3-4.5-3.8c-0.1-2.4,0.1-4.9-0.1-7.4C142.8,43.1,143.7,42.5,145.9,42.7z"/>
		<path class="st0" d="M215.1,53.3c0-7.2,0-14.3,0-21.5c0-6.8,0-6.8-6.2-3.8c-0.4,0.2-0.8,0.3-1.2,0.6c-0.4,0.3-0.6,0.6-0.4,1.1
			c0.2,0.6,0.6,0.4,1,0.3c2.2-0.6,2.2,0.8,2.2,2.3c-0.1,2.1-0.1,4,0,6.1c0.1,1.9-0.6,2.1-2.2,1.7c-2.4-0.6-4.7-0.2-6.9,0.8
			c-5.1,2.4-7.3,9.1-4.8,14.3c2.2,4.7,8.7,6.7,12.8,3.5c0.4-0.3,0.9-0.9,1.3-0.4c3.3,4,5.3-0.4,8.1-1.2
			C214.8,58.1,215.1,55.5,215.1,53.3z M210.5,46.8c0,1.1,0,2.1,0,3.2c0,1,0,1.9,0,2.9c0,3.9-3.2,5.7-6.7,3.8
			c-4.1-2.2-4.5-11-0.6-13.6c1.7-1.1,3.5-1.4,5.5-0.6C210.9,43.3,210.5,45.1,210.5,46.8z"/>
		<path class="st0" d="M168,56.9c-1.2,0-1.4-0.7-1.4-1.7c0-1.6,0-3.2,0-4.8h-0.1c0-1.6,0.1-3.2,0-4.8c-0.3-3.4-2.4-5.5-5.8-5.7
			c-3.1-0.3-7.8,2.3-8.5,4.8c-0.3,1.1-0.1,2.2,0.6,3c0.5,0.6,1.2,0.1,1.7-0.1c1.1-0.4,1.3-0.9,1-2.1c-0.3-1.9,1.2-2.9,2.9-3.1
			c2-0.3,2.9,1.1,3.3,2.8c0.3,1.5,0.8,3.1-1.5,3.8c-2.1,0.6-4.2,1.5-6.2,2.5c-2.6,1.3-3.3,3.5-2.2,6.2c0.9,2.3,3.5,3.3,6.2,2.4
			c1-0.3,1.9-0.9,2.8-1.4c0.4-0.3,1-0.8,1.3-0.2c1.8,3.7,3.9,0.4,5.9,0.3c0.7-0.1,1.7-0.3,1.6-1.2C169.6,56,168.6,56.9,168,56.9z
			 M161.9,52.9c0.6,2.9-0.6,4.2-3.1,4.4c-1.2,0.1-2.3-0.3-2.9-1.5c-0.5-1.2-0.4-2.3,0.5-3.3c1.2-1.2,3-2.1,4.5-2.2
			C163.1,50.3,161.3,52.4,161.9,52.9z"/>
		<path class="st0" d="M106.7,53c0.1-2.6,0.1-5.1-0.1-7.7c-0.2-3.3-2.6-5.3-6-5.5c-3.2-0.2-7.8,2.6-8.2,5c-0.2,1.1-0.4,2.7,1,2.9
			c0.8,0.1,2.8-0.1,2.4-2.1c-0.4-2.2,1-3.2,2.8-3.5c2-0.3,2.9,1.1,3.3,2.8c0.4,1.9,0.3,3.5-2.2,4c-1.7,0.4-3.2,1.1-4.8,1.8
			c-3.2,1.5-4.3,4-3.1,6.7c1.2,2.6,4,3.4,7.1,2.1c0.7-0.3,1.3-0.7,2-1.1c0.5-0.3,0.9-0.6,1.6-0.1c2.1,1.9,5.3,1.2,7.6-1.8
			C106.5,57.7,106.5,55.5,106.7,53z M102,53c0.6,2.8-0.5,4.1-3,4.4c-1.2,0.1-2.3-0.2-2.9-1.4c-0.5-1.2-0.4-2.2,0.4-3.2
			c1.2-1.3,2.9-2.1,4.4-2.2C103.4,50.2,101.4,52.4,102,53z"/>
		<path class="st0" d="M232.8,40.2c-4.4-1.3-9.2,0.8-11.4,4.9c-2.4,4.6-1.2,10.5,2.6,13.3c3.5,2.5,9.8,2.2,12.9-0.6
			c0.6-0.6,1-1.2,0.4-2.2c-6.8,3-11.2,1.2-12.4-4.9c-0.3-1.7-0.1-2.4,1.8-2.2c2.4,0.1,4.9,0.1,7.4,0c1.3-0.1,3.3,0.7,3.9-0.5
			c0.8-1.7-0.3-3.5-1.3-5C235.7,41.6,234.4,40.8,232.8,40.2z M233.3,45.4c-0.2,2.9-2.8,0.4-4,1.5c-1.2-1-3.7,1.2-3.8-1.3
			c-0.1-2.1,1.9-3.6,4.2-3.5C231.8,42,233.4,43.4,233.3,45.4z"/>
	</g>
</g>
</svg>
