<?xml version="1.0" encoding="utf-8"?>
<!-- Generator: Adobe Illustrator 21.1.0, SVG Export Plug-In . SVG Version: 6.00 Build 0)  -->
<svg version="1.1" id="Capa_1" xmlns="http://www.w3.org/2000/svg" xmlns:xlink="http://www.w3.org/1999/xlink" x="0px" y="0px"
	 viewBox="0 0 73.5 73.5" style="enable-background:new 0 0 73.5 73.5;" xml:space="preserve">
<style type="text/css">
	.st0{fill:#E4E4E4;}
	.st1{fill:#66554B;}
	.st2{fill:#DA0100;}
	.st3{fill:#66564B;}
	.st4{fill:#DA0201;}
	.st5{fill:#B9B4B1;}
	.st6{fill:#BDB8B5;}
	.st7{fill:#DCDBDB;}
	.st8{fill:#DCDBDA;}
</style>
<g>
	<path class="st0" d="M36.8,73.5c-6.9,0-13.8,0-20.6,0c-7.8,0-14.7-6.2-15.9-14.1C0.1,58.2,0,57,0,55.8c0-12.8,0-25.7,0-38.5
		c0-8.4,5.7-15.6,14.2-17c1-0.2,2.1-0.3,3.1-0.3C30.2,0,43.1,0,56,0c5.8,0,10.7,2.2,14.2,7c2,2.8,3.2,5.9,3.2,9.4
		c0,13.7,0.1,27.4,0,41c0,5-2.2,9.1-6.1,12.3c-3.2,2.6-6.9,3.8-11.1,3.8C49.7,73.4,43.3,73.5,36.8,73.5z"/>
	<path class="st1" d="M23.6,27.6c-0.1,1.2-0.1,2.3-0.2,3.5c0,0.5-0.2,0.6-0.7,0.6c-0.7,0-1.4,0-2.2,0c-0.5,0-0.7-0.2-0.7-0.7
		c0.2-3.1,0.4-6.1,0.5-9.2c0-0.4,0.2-0.7,0.6-0.7c0.1,0,0.2,0,0.2,0c3.5-0.2,3.5-0.2,4.4,3.3c0.2,0.7,0.3,1.3,0.6,2.3
		c0.4-1.8,0.8-3.2,1.1-4.6c0.1-0.7,0.4-1,1.2-1c1.1,0.1,2.5-0.4,3.3,0.2c0.7,0.6,0.3,2,0.4,3.1c0.2,2.2,0.3,4.5,0.6,6.7
		c0.7-2.8,1.5-5.7,2.2-8.5c0.3-1.1,0.6-1.6,1.9-1.5c0.9,0.1,1.9,0,2.9,0c0.6,0,0.9,0.1,1.1,0.8c0.7,3,1.5,6,2.3,8.9
		c0.2,0.7,0.1,1-0.7,0.9c-0.5-0.1-1,0-1.6,0c-0.8,0.1-1.3-0.1-1.4-1c0-0.6-0.4-0.7-0.9-0.7c-1.1,0-2.3-0.4-2.4,1.4
		c0,0.4-0.4,0.3-0.7,0.3c-1.9,0-3.8,0-5.6,0c-0.6,0-0.8-0.1-0.8-0.7c0-1.1-0.1-2.2-0.2-3.3c-0.1-0.1-0.1-0.3-0.2-0.3
		c-0.1,0-0.2,0.2-0.3,0.3c-0.2,0.9-0.5,1.9-0.7,2.8c-0.3,1.1-1.6,1.7-2.7,1.3c-0.3-0.1-0.3-0.4-0.4-0.7c-0.3-1.1-0.6-2.2-0.9-3.4
		c-0.1-0.1-0.1-0.3-0.2-0.3C23.7,27.3,23.7,27.5,23.6,27.6z"/>
	<path class="st2" d="M20.7,43.9c2.2,1,2.8,2.8,2.6,5c-0.2,2.7-1.9,4.3-4.6,4.3c-2.5,0-5,0-7.4,0c-0.7,0-0.9-0.2-0.9-0.9
		c0-5.5,0-11,0-16.5c0-0.7,0.2-1,0.9-0.9c2.1,0,4.2,0,6.2,0c1.9,0,3.7,0.3,4.6,2.3c0.7,1.5,0.6,5.1-1.1,6.4
		C20.9,43.7,20.8,43.8,20.7,43.9z"/>
	<path class="st2" d="M43.3,37.4c-2.4,0-4.8,0-7.2,0c-1.1,0-1.9-1.2-1.5-2.2c0.1-0.4,0.4-0.3,0.7-0.3c3.8,0,7.5,0,11.3,0
		c0.8,0,1.2,1.2,0.7,2.2c-0.1,0.3-0.4,0.5-0.5,0.8c-2.8,3.9-5.7,7.7-8.5,11.6c-0.3,0.4-0.5,0.8-0.9,1.3c3,0,5.7,0.1,8.5,0
		c1.1,0,1.2,0.4,1.2,1.3c0,0.9-0.2,1.2-1.2,1.2c-3.6-0.1-7.3,0-10.9,0c-1.4,0-2-1-1.2-2.3c0.2-0.3,0.4-0.6,0.6-0.9
		c2.8-3.9,5.7-7.8,8.5-11.7C43,38.2,43.3,37.9,43.3,37.4z"/>
	<path class="st2" d="M58.9,37.4c-2.4,0-4.8,0-7.2,0c-1.1,0-1.9-1.2-1.5-2.2c0.2-0.5,0.6-0.3,0.9-0.3c3.5,0,7,0,10.4,0
		c1.4,0,2,0.9,1.3,2.2c-0.1,0.3-0.4,0.5-0.5,0.8c-2.9,4-5.8,7.9-8.7,11.9c-0.2,0.3-0.4,0.6-0.7,1c2.9,0,5.7,0.1,8.4,0
		c1.1,0,1.2,0.4,1.2,1.3c0,0.9-0.2,1.2-1.2,1.2c-3.6-0.1-7.3,0-10.9,0c-1.4,0-2-0.9-1.3-2.3c0.2-0.3,0.4-0.6,0.6-0.9
		c2.8-3.9,5.7-7.8,8.5-11.7C58.6,38.2,58.9,37.9,58.9,37.4z"/>
	<path class="st1" d="M43.9,26.4c0-1.5,0-3,0-4.4c0-0.6,0.2-0.8,0.8-0.8c1.5,0,3,0,4.5,0c1.4,0,2.7,0.4,3.2,1.8
		c0.6,1.6,0.6,3.3-0.6,4.6c-0.6,0.6-0.5,1-0.1,1.6c0.4,0.6,0.6,1.2,0.9,1.8c0.3,0.5,0.1,0.7-0.4,0.7c0,0-0.1,0-0.1,0
		c-2.7,0.1-2.7,0.1-3.8-2.3c-0.2-0.3-0.2-0.9-0.7-0.8c-0.7,0.1-0.4,0.7-0.4,1.1c0,2,0,2-2.1,2c-0.9,0-1.3-0.2-1.2-1.2
		C43.9,29.2,43.9,27.8,43.9,26.4z"/>
	<path class="st3" d="M14.2,32c-0.6-0.1-1.3-0.1-2-0.2c-1.8-0.2-1.8-0.3-1.5-2.1c0.1-0.8,0.3-1.1,1.1-0.8c1,0.3,2.1,0.2,3.1,0.1
		c0.3,0,0.8,0.1,0.8-0.5c0-0.5-0.5-0.4-0.8-0.5c-0.2,0-0.5,0-0.7-0.1c-3.1-0.4-3.9-1.4-3.4-5c0.2-1,0.9-1.7,1.9-1.9
		c1.8-0.5,3.6-0.2,5.5,0c0.5,0.1,0.6,0.3,0.5,0.8c-0.1,0.4-0.2,0.9-0.2,1.3c0,0.6-0.2,0.8-0.9,0.7c-0.8-0.1-1.7-0.1-2.5-0.1
		c-0.3,0-0.8-0.1-0.8,0.4c0,0.5,0.4,0.5,0.8,0.5c0.5,0.1,0.9,0.1,1.4,0.2c2,0.4,2.9,1.4,2.9,3.3c0,2.1-0.9,3.2-2.9,3.6
		C15.6,31.9,14.9,31.9,14.2,32z"/>
	<path class="st4" d="M30.1,44.1c0,2.7,0,5.4,0,8.2c0,0.7-0.1,1.1-1,1c-2.1,0-2.1,0-2.1-2.1c0-5,0-10.1,0-15.1c0-1,0.3-1.4,1.2-1.2
		c0.2,0,0.5,0,0.7,0c0.8-0.1,1.1,0.2,1.1,1.1C30.1,38.7,30.1,41.4,30.1,44.1z"/>
	<path class="st3" d="M57.6,21.1c1,0,2.1,0,3.1,0c0.7,0,1.1,0.1,1,0.9c0,0.2,0,0.5,0,0.7c0.1,0.8-0.2,1.2-1.1,1.1
		c-1.3-0.2-1.5,0.3-1.5,1.5c0.1,1.8,0,3.6,0,5.4c0,0.7-0.1,1-0.9,1c-2.4,0-2.4,0.1-2.4-2.4c0-1.4,0-2.9,0-4.3c0-0.9-0.1-1.4-1.2-1.2
		c-0.4,0-1.1,0.3-1.3-0.3c-0.2-0.7-0.1-1.4,0-2.1c0-0.3,0.4-0.2,0.7-0.2C55.3,21.1,56.4,21.1,57.6,21.1z"/>
	<path class="st5" d="M23.6,27.6c0-0.3,0-0.5,0-0.9c0.4,0.2,0.4,0.5,0.4,0.9C23.8,27.6,23.7,27.6,23.6,27.6z"/>
	<path class="st6" d="M28.6,27.6c0-0.3,0.1-0.6,0.3-0.8c0.2,0.3,0.1,0.6,0.1,0.8C28.9,27.6,28.7,27.6,28.6,27.6z"/>
	<path class="st7" d="M38.1,24.5c0.2,0.7,0.3,1.3,0.5,2c0.1,0.3,0.2,0.6-0.1,0.8c-0.3,0.2-0.7,0.2-1,0c-0.4-0.2-0.1-0.5,0-0.7
		c0.1-0.7,0.3-1.3,0.5-1.9C38,24.6,38.1,24.6,38.1,24.5z"/>
	<path class="st0" d="M13.3,48.1c0-3,0-3,2.9-3c0.4,0,0.8,0,1.2,0c1,0,2.1,0,2.6,1.1c0.6,1.4,0.5,2.9-0.3,4.2
		c-0.3,0.5-1,0.7-1.6,0.7c-1.4,0-2.7,0-4.1,0c-0.5,0-0.7-0.1-0.7-0.7C13.4,49.7,13.3,48.9,13.3,48.1z"/>
	<path class="st0" d="M13.3,40.2c0-3.1,0-3.1,2.9-3.1c0.5,0,1,0,1.6,0.1c0.8,0.1,1.3,0.5,1.5,1.3c0.1,0.5,0.2,1.1,0.2,1.7
		c0,2.2-0.6,2.8-2.8,2.8c-0.1,0-0.2,0-0.4,0c-0.9-0.1-2.2,0.4-2.8-0.2C12.9,42.2,13.4,41,13.3,40.2z"/>
	<path class="st8" d="M47.8,23.8c0.8,0,1.4,0.2,1.4,1.1c0,0.8-0.4,1.1-1.2,1.1c-0.9,0.1-0.9-0.5-0.9-1.1
		C47.2,24.3,47,23.7,47.8,23.8z"/>
</g>
</svg>
