<?xml version="1.0" standalone="no"?>
<!DOCTYPE svg PUBLIC "-//W3C//DTD SVG 20010904//EN"
 "http://www.w3.org/TR/2001/REC-SVG-20010904/DTD/svg10.dtd">
<svg version="1.0" xmlns="http://www.w3.org/2000/svg"
 width="639.000000pt" height="639.000000pt" viewBox="0 0 639.000000 639.000000"
 preserveAspectRatio="xMidYMid meet">
<metadata>
Created by potrace 1.11, written by Peter Selinger 2001-2013
</metadata>
<g transform="translate(0.000000,639.000000) scale(0.100000,-0.100000)"
fill="#000000" stroke="none">
<path d="M3250 6043 c-185 -126 -285 -329 -309 -631 -18 -224 26 -421 153
-681 86 -177 219 -371 461 -676 115 -144 228 -302 299 -417 36 -59 66 -110 66
-114 0 -3 12 -31 26 -62 29 -64 57 -152 80 -257 12 -53 15 -108 11 -225 -4
-140 -7 -164 -35 -247 -40 -119 -72 -174 -147 -248 l-60 -60 -6 140 c-7 157
-30 247 -93 373 -77 153 -226 357 -451 618 -38 45 -77 90 -85 100 -8 11 -60
75 -115 144 -191 239 -255 331 -353 505 -72 129 -102 276 -102 496 l0 160 -47
-33 c-117 -80 -204 -208 -252 -368 -41 -138 -46 -174 -45 -330 1 -140 4 -167
32 -273 31 -120 87 -263 129 -329 12 -21 23 -40 23 -44 0 -26 272 -395 434
-590 222 -266 396 -575 453 -801 24 -95 28 -127 28 -268 0 -151 -2 -165 -29
-240 -16 -44 -43 -102 -61 -130 -36 -57 -113 -145 -126 -145 -5 0 -9 38 -9 84
0 100 -10 131 -85 261 -117 204 -227 363 -495 714 -349 458 -442 593 -527 763
-30 59 -57 124 -60 143 -3 21 -11 35 -20 35 -18 0 -257 -74 -338 -105 -33 -13
-71 -26 -85 -30 -59 -18 -356 -142 -475 -200 -322 -154 -654 -414 -785 -613
-52 -79 -110 -208 -130 -287 -55 -225 10 -472 189 -713 201 -272 617 -528
1141 -702 515 -171 1198 -272 1725 -255 355 11 684 33 815 55 68 11 156 25
195 31 216 30 635 145 901 247 216 82 503 238 662 360 262 199 437 438 483
661 64 313 -29 580 -295 847 -207 207 -440 351 -801 495 -193 77 -508 174
-649 201 l-62 12 0 175 -1 176 -42 120 c-63 176 -139 314 -283 520 -48 69
-304 408 -358 475 -81 100 -320 447 -320 465 0 6 -11 26 -23 45 -22 33 -33 58
-77 185 -27 77 -43 228 -39 363 2 67 2 122 -1 122 -3 0 -17 -8 -30 -17z"/>
</g>
</svg>
