<?xml version="1.0" standalone="no"?>
<!DOCTYPE svg PUBLIC "-//W3C//DTD SVG 20010904//EN"
 "http://www.w3.org/TR/2001/REC-SVG-20010904/DTD/svg10.dtd">
<svg version="1.0" xmlns="http://www.w3.org/2000/svg"
 width="340.000000pt" height="340.000000pt" viewBox="0 0 340.000000 340.000000"
 preserveAspectRatio="xMidYMid meet">
<metadata>
Created by potrace 1.11, written by Peter Selinger 2001-2013
</metadata>
<g transform="translate(0.000000,340.000000) scale(0.100000,-0.100000)"
fill="#000000" stroke="none">
<path d="M665 2345 c-22 -8 -41 -15 -42 -15 -1 0 -9 -13 -18 -30 -9 -17 -15
-55 -15 -94 0 -54 4 -69 25 -94 26 -31 89 -52 155 -52 24 0 30 -4 30 -21 0
-21 -4 -21 -100 -17 -112 4 -110 6 -113 -74 -2 -32 -1 -32 53 -41 70 -11 207
-4 241 12 76 37 88 192 19 243 -14 10 -57 24 -95 31 -48 9 -70 18 -70 28 0 11
18 14 87 14 l86 0 7 49 c3 27 2 53 -2 57 -5 5 -53 11 -108 14 -76 4 -110 2
-140 -10z"/>
<path d="M1005 2338 c-2 -7 -6 -69 -9 -138 -4 -69 -9 -162 -13 -207 l-6 -83
70 0 70 0 7 38 c3 20 6 69 6 107 1 84 9 73 40 -52 l22 -93 53 0 53 0 22 93
c31 127 39 136 40 46 0 -42 3 -91 6 -108 l7 -31 143 0 143 0 7 35 6 36 61 -3
c59 -3 61 -4 69 -35 l9 -33 69 0 c50 0 70 4 70 13 0 6 -24 104 -54 217 l-53
205 -109 0 -109 0 -55 -214 c-30 -117 -56 -206 -58 -198 -2 9 -9 105 -15 214
l-12 198 -92 3 -91 3 -17 -73 c-29 -132 -36 -153 -45 -138 -4 8 -18 59 -30
113 l-22 97 -90 0 c-62 0 -90 -4 -93 -12z m750 -200 l7 -48 -32 0 c-24 0 -31
4 -27 14 3 8 9 32 13 53 13 71 27 65 39 -19z"/>
<path d="M1980 2130 l0 -220 65 0 65 0 0 65 c0 57 2 65 19 65 14 0 26 -18 46
-65 l28 -65 74 0 c40 0 73 2 73 5 0 3 -16 37 -35 75 -30 60 -33 71 -20 76 48
19 68 169 29 222 -38 51 -76 62 -216 62 l-128 0 0 -220z m209 96 c7 -8 11 -27
9 -43 -3 -25 -7 -28 -45 -31 l-43 -3 0 39 c0 21 3 42 7 45 12 12 60 7 72 -7z"/>
<path d="M2370 2296 l0 -55 53 -3 52 -3 3 -162 2 -163 65 0 65 0 2 163 3 162
53 3 52 3 0 55 0 54 -175 0 -175 0 0 -54z"/>
<path d="M580 1395 l0 -385 198 0 c170 0 203 3 237 19 72 33 105 93 105 191 0
76 -27 133 -77 162 -29 18 -32 23 -19 30 9 5 24 26 35 46 43 86 32 213 -23
268 -43 43 -103 54 -296 54 l-160 0 0 -385z m349 268 c27 -22 39 -113 22 -165
-16 -47 -44 -58 -151 -58 l-90 0 0 120 0 120 99 0 c79 0 103 -3 120 -17z m28
-328 c29 -20 46 -84 38 -138 -13 -82 -40 -97 -179 -97 l-106 0 0 125 0 125
113 0 c85 0 118 -4 134 -15z"/>
<path d="M1280 1395 l0 -385 65 0 65 0 -2 383 -3 382 -62 3 -63 3 0 -386z"/>
<path d="M1590 1763 c0 -10 3 -35 6 -55 l7 -38 177 -2 178 -3 -209 -285 c-193
-264 -208 -288 -209 -327 l0 -43 285 0 285 0 0 50 0 50 -200 0 c-110 0 -200 2
-200 5 0 3 95 135 210 293 198 271 210 289 208 327 l-3 40 -267 3 c-251 2
-268 1 -268 -15z"/>
<path d="M2240 1763 c0 -10 3 -35 6 -55 l7 -38 177 -2 178 -3 -209 -285 c-193
-264 -208 -288 -209 -327 l0 -43 285 0 285 0 0 50 0 50 -200 0 c-110 0 -200 2
-200 5 0 3 95 135 210 293 198 271 210 289 208 327 l-3 40 -267 3 c-251 2
-268 1 -268 -15z"/>
</g>
</svg>
