<?xml version="1.0" standalone="no"?>
<!DOCTYPE svg PUBLIC "-//W3C//DTD SVG 20010904//EN"
 "http://www.w3.org/TR/2001/REC-SVG-20010904/DTD/svg10.dtd">
<svg version="1.0" xmlns="http://www.w3.org/2000/svg"
 width="645.000000pt" height="645.000000pt" viewBox="0 0 645.000000 645.000000"
 preserveAspectRatio="xMidYMid meet">
<metadata>
Created by potrace 1.11, written by Peter Selinger 2001-2013
</metadata>
<g transform="translate(0.000000,645.000000) scale(0.100000,-0.100000)"
fill="#000000" stroke="none">
<path d="M2131 6434 c-123 -39 -203 -128 -234 -263 -14 -61 -17 -358 -4 -406
18 -62 27 -86 52 -125 15 -24 35 -51 44 -60 111 -112 363 -135 515 -46 76 44
132 130 156 237 19 85 9 390 -15 449 -45 110 -125 186 -225 214 -69 20 -227
20 -289 0z m204 -229 c54 -26 66 -68 67 -240 1 -146 -9 -191 -50 -228 -49 -44
-146 -26 -179 35 -15 28 -18 57 -18 188 0 174 9 210 59 241 38 23 77 24 121 4z"/>
<path d="M3984 6439 c-102 -23 -203 -117 -239 -223 -23 -66 -33 -349 -15 -439
30 -154 116 -247 263 -287 90 -24 304 -4 327 31 4 6 5 101 1 181 -1 16 -14 17
-130 15 -116 -2 -131 0 -151 18 -42 37 -50 75 -50 230 0 161 9 197 56 234 27
22 37 23 154 19 l124 -3 0 98 c-1 56 -5 102 -12 109 -26 26 -238 37 -328 17z"/>
<path d="M1132 6423 c-14 -31 -8 -183 9 -194 8 -5 57 -9 110 -9 l97 0 -1 -354
c0 -194 3 -358 7 -365 10 -16 242 -15 253 2 4 6 8 170 8 362 l0 350 85 3 c140
4 131 -4 128 115 l-3 102 -342 3 c-318 2 -343 1 -351 -15z"/>
<path d="M2815 6430 c-12 -20 -7 -665 5 -711 28 -102 81 -167 170 -208 46 -21
74 -26 169 -29 69 -3 136 0 170 8 78 16 156 65 192 120 56 85 61 118 61 481 1
203 -3 334 -9 340 -5 5 -60 8 -129 7 l-119 -3 -5 -332 c-5 -317 -6 -333 -26
-360 -41 -54 -157 -54 -198 0 -20 27 -21 43 -26 360 l-5 332 -122 3 c-79 2
-124 -1 -128 -8z"/>
<path d="M4455 6428 c-3 -7 -4 -220 -3 -473 l3 -460 119 -3 c66 -1 123 2 130
7 8 7 11 60 10 173 0 90 1 169 4 176 3 9 38 12 128 12 122 0 124 0 125 -22 0
-13 1 -91 1 -175 0 -107 3 -155 12 -162 17 -14 235 -16 248 -3 13 13 16 911 4
930 -5 8 -48 12 -131 12 l-123 0 -6 -27 c-3 -16 -5 -93 -4 -173 l2 -145 -109
-3 c-166 -4 -151 -21 -150 170 0 98 -4 166 -10 170 -18 14 -245 9 -250 -4z"/>
<path d="M1457 5014 c-4 -4 -70 -15 -99 -17 -10 -1 -18 -4 -18 -8 0 -4 -14 -9
-31 -13 -48 -9 -189 -80 -245 -121 -69 -53 -139 -122 -182 -180 -20 -27 -39
-52 -43 -55 -16 -12 -90 -183 -111 -255 l-23 -80 0 -1740 c0 -957 2 -1758 4
-1780 3 -22 8 -47 12 -55 4 -8 9 -28 12 -45 7 -43 36 -125 54 -152 9 -13 11
-23 7 -23 -5 0 -4 -4 1 -8 6 -4 16 -17 22 -29 30 -54 39 -68 48 -80 31 -38 83
-98 100 -114 68 -65 95 -88 95 -81 0 4 4 2 8 -3 11 -17 72 -57 72 -48 0 4 4 3
8 -4 7 -11 113 -63 141 -68 9 -2 18 -4 21 -5 3 -1 8 -2 13 -1 4 0 7 -3 7 -8 0
-6 8 -10 18 -10 16 0 31 -2 100 -17 41 -9 3511 -8 3552 1 19 4 42 7 50 7 8 1
21 5 28 11 6 5 12 7 12 3 0 -3 22 3 49 14 27 10 52 16 55 13 3 -4 6 -1 6 5 0
7 7 12 15 12 9 0 33 11 54 24 21 14 42 22 45 19 3 -4 6 -2 6 4 0 6 20 23 45
37 25 15 45 32 45 38 0 6 3 8 6 5 4 -3 27 15 53 42 65 68 110 121 103 121 -4
0 -2 4 3 8 26 19 105 163 105 191 0 6 5 11 11 11 5 0 8 4 5 9 -4 5 -1 22 5 38
39 100 40 155 36 1923 -3 1498 -6 1764 -17 1778 -2 1 -3 5 -4 10 -14 58 -19
88 -18 95 1 4 -3 7 -8 7 -6 0 -10 6 -10 13 0 6 -13 38 -29 69 -16 31 -26 59
-23 62 3 3 0 6 -5 6 -6 0 -25 21 -41 48 -17 26 -42 61 -57 77 -15 17 -32 38
-39 47 -7 9 -18 18 -25 20 -7 2 -29 19 -49 39 -38 36 -162 114 -162 101 0 -4
-4 -2 -8 3 -11 16 -82 46 -93 40 -5 -4 -9 -2 -9 4 0 8 -25 15 -140 39 -27 6
-3537 11 -3543 6z"/>
</g>
</svg>
