<svg xmlns="http://www.w3.org/2000/svg" xmlns:xlink="http://www.w3.org/1999/xlink" width="155" height="155" viewBox="0 0 155 155"><path fill="#C9CEDF" d="M154.871 83.025c-.287.586-.178 1.238-.23 1.85a73.297 73.297 0 0 1-3.097 15.48 77.343 77.343 0 0 1-4.093 10.422 78.507 78.507 0 0 1-6.188 10.643 78.459 78.459 0 0 1-6.098 7.686 84.55 84.55 0 0 1-5.211 5.279c-2.489 2.324-5.159 4.441-7.953 6.398a76.597 76.597 0 0 1-11.386 6.613c-5.616 2.631-11.455 4.608-17.548 5.824-3.187.633-6.395 1.055-9.633 1.327-2.904.244-5.811.32-8.711.203a79.674 79.674 0 0 1-9.672-.985 76.784 76.784 0 0 1-12.551-3.127 77.193 77.193 0 0 1-15.559-7.343 79.88 79.88 0 0 1-10.027-7.346 73.732 73.732 0 0 1-7.488-7.427 82.369 82.369 0 0 1-6.572-8.565 70.759 70.759 0 0 1-4.511-7.76 79.074 79.074 0 0 1-5.815-15.562A81.278 81.278 0 0 1 .594 86.309c-.532-4.328-.536-8.685-.376-13.03.114-3.127.567-6.233 1.095-9.33.99-5.798 2.73-11.366 4.985-16.775 1.669-4.003 3.72-7.81 6.085-11.45a79.017 79.017 0 0 1 7.689-10.013 78.16 78.16 0 0 1 15.852-13.438c7.658-4.9 15.951-8.297 24.813-10.293 2.846-.64 5.734-1.047 8.637-1.388C73.45.113 77.537.151 81.617.262c3.35.091 6.68.55 9.979 1.159a76.257 76.257 0 0 1 11.189 2.937 78.16 78.16 0 0 1 13.799 6.343 79.724 79.724 0 0 1 9.906 6.849 72.392 72.392 0 0 1 7.354 6.816c3.307 3.526 6.299 7.308 8.911 11.382a77.404 77.404 0 0 1 7.515 15.115c1.531 4.167 2.713 8.43 3.489 12.797.366 2.055.679 4.122.871 6.206.065.702-.041 1.435.237 2.115.004 3.685.004 7.365.004 11.044zm-77.378 66.641c39.838.168 72.362-32.438 72.379-71.845.009-19.91-7.036-37.046-21.004-51.143C114.979 12.659 97.943 5.451 78.206 5.266 37.651 4.886 5.204 37.698 5.196 77.44c-.007 39.902 32.547 72.296 72.297 72.226z"/><path fill="#FEFEFE" d="M77.493 149.666c-39.75.07-72.304-32.324-72.297-72.226.008-39.742 32.455-72.554 73.01-72.174 19.737.186 36.772 7.394 50.662 21.412 13.968 14.097 21.013 31.233 21.004 51.143-.017 39.408-32.541 72.013-72.379 71.845zm66.611-72.238c.176-36.464-29.765-66.183-65.957-66.444-37.25-.269-67.167 29.861-67.19 66.374-.022 36.787 29.695 66.474 66.373 66.615 37.059.142 66.983-30.037 66.774-66.545z"/><path fill="#C9CEDF" d="M144.104 77.428c.207 36.507-29.715 66.687-66.774 66.544-36.678-.142-66.396-29.828-66.373-66.616.023-36.513 29.941-66.643 67.19-66.374 36.193.264 66.132 29.982 65.957 66.446z"/><defs><path id="a" d="M151.835 120.714v-6.529c0-1.489-.582-1.741-1.376-1.741h-14.061V31.802c0-1.701-.875-2.854-2.461-2.854H20.443c-1.588 0-3.311 1.15-3.311 2.854v80.642H4.641c-.795 0-1.539.252-1.539 1.741v6.529h.102s3.592 5.268 5.746 5.268h137.199c2.154 0 5.748-5.268 5.748-5.268h-.062z"/></defs><clipPath id="b"><use xlink:href="#a" overflow="visible"/></clipPath><path clip-path="url(#b)" fill="#333533" d="M77.117 14.543h91.555v134.645H77.117z"/><defs><path id="c" d="M151.835 120.714v-6.529c0-1.489-.582-1.741-1.376-1.741h-14.061V31.802c0-1.701-.875-2.854-2.461-2.854H20.443c-1.588 0-3.311 1.15-3.311 2.854v80.642H4.641c-.795 0-1.539.252-1.539 1.741v6.529h.102s3.592 5.268 5.746 5.268h137.199c2.154 0 5.748-5.268 5.748-5.268h-.062z"/></defs><clipPath id="d"><use xlink:href="#c" overflow="visible"/></clipPath><path clip-path="url(#d)" fill="#3F403F" d="M-14.438 14.543h91.555v134.645h-91.555z"/><path fill="#FFF" d="M90.479 118.448h-25.86c-2.155 0-2.155-4-2.155-4h30.169c.002 0 .002 4-2.154 4zm-64.651-81h103v67h-103z"/><path fill="#34AD96" d="M70.709 103.381c.042.047.086.093.131.138l.002.03a3.67 3.67 0 0 1-.133-.168z"/><defs><path id="e" d="M61.994 43.207h30.897v56.217H61.994z"/></defs><use xlink:href="#e" overflow="visible" fill="#FFF"/><clipPath id="f"><use xlink:href="#e" overflow="visible"/></clipPath><path clip-path="url(#f)" fill="#F4F3F2" d="M77.549 21.31h26.764v88.202H77.549z"/><defs><path id="g" d="M77.585 98.434c1.956 0 3.406-1.666 3.406-3.479 0-1.957-1.45-3.406-3.406-3.406-1.958 0-3.479 1.449-3.479 3.406-.001 1.813 1.45 3.479 3.479 3.479zm-11.162-57.55h22.251c3.624 0 6.089 2.464 6.089 5.871v48.562a5.43 5.43 0 0 1-5.437 5.437H65.771a5.429 5.429 0 0 1-5.437-5.437V46.755c0-3.407 2.464-5.871 6.089-5.871zm6.596 3.914c-.652 0-1.087.507-1.087 1.16s.435 1.16 1.087 1.16h9.06c.652 0 1.088-.507 1.088-1.16s-.436-1.16-1.088-1.16h-9.06zm18.482 43.996V52.843H63.596v35.951h27.905z"/></defs><use xlink:href="#g" overflow="visible" fill="#48AC59"/><clipPath id="h"><use xlink:href="#g" overflow="visible"/></clipPath><path clip-path="url(#h)" fill="#009A45" d="M77.549 26.685h29.624v79.012H77.549z"/><path opacity=".3" fill="#C9CEDF" d="M107.175 70.827l6.782-6.606c.997-.939 1.32-2.084.968-3.435-.41-1.351-1.262-2.202-2.553-2.554l-9.248-2.379 2.642-9.072c.353-1.35.028-2.496-.968-3.435-.94-1.057-2.086-1.379-3.437-.969l-9.159 2.643-1.948-7.573h-9.507l-3.43 3.521-3.476-3.521h-9.549l-1.948 7.573-9.16-2.643c-1.351-.41-2.496-.088-3.435.969-.998.939-1.292 2.084-.88 3.435l2.554 9.072-9.248 2.379c-1.292.352-2.143 1.203-2.554 2.554-.352 1.35-.029 2.496.969 3.435l6.782 6.606-6.782 6.604c-.998.94-1.321 2.086-.969 3.436.411 1.351 1.263 2.201 2.554 2.554l9.248 2.379-2.554 9.071c-.412 1.351-.118 2.495.88 3.436.939 1.057 2.084 1.379 3.435.969l9.16-2.555 1.963 7.561h9.458l3.551-3.598 3.504 3.598h9.417l1.964-7.561 9.159 2.555c1.351.41 2.496.088 3.437-.969.996-.94 1.32-2.085.968-3.436l-2.642-9.071 9.248-2.379c1.291-.353 2.143-1.203 2.553-2.554.353-1.35.029-2.495-.968-3.436l-6.781-6.604z"/></svg>