<svg xmlns="http://www.w3.org/2000/svg" width="155" height="155" viewBox="0 0 155 155"><path fill="#C9CEDF" d="M154.871 83.025c-.287.586-.178 1.238-.23 1.85a73.297 73.297 0 0 1-3.097 15.48 77.343 77.343 0 0 1-4.093 10.422 78.507 78.507 0 0 1-6.188 10.643 78.32 78.32 0 0 1-6.099 7.686 84.007 84.007 0 0 1-5.211 5.279c-2.489 2.324-5.159 4.441-7.953 6.398a76.495 76.495 0 0 1-11.386 6.613c-5.616 2.631-11.455 4.607-17.549 5.824-3.187.633-6.395 1.055-9.633 1.326-2.904.244-5.811.32-8.71.203a79.872 79.872 0 0 1-9.672-.984 76.886 76.886 0 0 1-12.551-3.127 77.197 77.197 0 0 1-15.559-7.344 79.98 79.98 0 0 1-10.027-7.346 73.639 73.639 0 0 1-7.488-7.428 82.357 82.357 0 0 1-6.572-8.564 70.759 70.759 0 0 1-4.511-7.76 79.059 79.059 0 0 1-5.815-15.563A81.278 81.278 0 0 1 .593 86.307c-.532-4.328-.536-8.685-.376-13.03.114-3.127.567-6.233 1.095-9.33.99-5.798 2.73-11.366 4.985-16.775 1.669-4.003 3.72-7.81 6.085-11.45a79.017 79.017 0 0 1 7.689-10.013 78.16 78.16 0 0 1 15.852-13.438c7.658-4.9 15.951-8.297 24.813-10.293C63.582 1.338 66.47.931 69.373.59 73.449.111 77.536.149 81.616.26c3.35.091 6.68.55 9.979 1.159a76.257 76.257 0 0 1 11.189 2.937 78.16 78.16 0 0 1 13.799 6.343 79.724 79.724 0 0 1 9.906 6.849 72.392 72.392 0 0 1 7.354 6.816c3.307 3.526 6.299 7.308 8.911 11.382a77.404 77.404 0 0 1 7.515 15.115c1.531 4.167 2.713 8.43 3.489 12.797.366 2.055.679 4.122.871 6.206.065.702-.041 1.435.237 2.115.005 3.687.005 7.367.005 11.046zm-77.378 66.641c39.838.168 72.362-32.438 72.379-71.845.009-19.91-7.036-37.046-21.004-51.143C114.979 12.659 97.943 5.451 78.206 5.266 37.651 4.886 5.204 37.698 5.196 77.44c-.007 39.902 32.547 72.296 72.297 72.226z"/><path fill="#FEFEFE" d="M77.493 149.666c-39.75.07-72.304-32.324-72.297-72.226.008-39.742 32.455-72.554 73.01-72.174 19.737.186 36.772 7.394 50.662 21.412 13.968 14.097 21.013 31.233 21.004 51.143-.017 39.408-32.541 72.013-72.379 71.845zm66.611-72.238c.176-36.464-29.765-66.183-65.957-66.444-37.25-.269-67.167 29.861-67.189 66.374-.022 36.787 29.695 66.474 66.373 66.615 37.058.142 66.982-30.037 66.773-66.545z"/><path fill="#C9CEDF" d="M144.104 77.428c.207 36.507-29.715 66.687-66.773 66.544-36.678-.143-66.396-29.828-66.373-66.617.023-36.513 29.941-66.643 67.189-66.374 36.193.265 66.132 29.983 65.957 66.447z"/><path fill="#121212" d="M111.75 46.021c3.802 5.883 11.66 7.562 17.529 3.768 5.886-3.801 7.57-11.647 3.77-17.53-3.802-5.884-11.646-7.569-17.529-3.769-5.874 3.794-7.572 11.647-3.77 17.531z"/><path fill="#48AC59" d="M148.16 73.981c1.63 2.523.896 5.885-1.624 7.514a5.423 5.423 0 0 1-7.505-1.612L92.834 8.387c-1.629-2.522-.915-5.888 1.605-7.517a5.446 5.446 0 0 1 7.524 1.618l46.197 71.493z"/><path fill="#FFF" d="M139.373 78.943s-24.626-4.946-36.795 2.918l-43.737 28.261c-8.404 5.431-19.775 2.758-25.415-5.968l-6.122-9.475c-5.64-8.729-3.402-20.195 5.002-25.625l43.737-28.261c16.484-11.189 17.4-32.932 17.4-32.932l45.93 71.082z"/><path fill="#34AD96" d="M60.198 157.404c.1.111.204.22.31.326l.006.072a6.352 6.352 0 0 1-.316-.398z"/><path fill="none" d="M77.851 3.5c-40.41 0-73.167 32.757-73.167 73.167 0 30.112 18.195 55.966 44.187 67.192.015-.135.016-.267.04-.401l-.436-16.817c.877-4.998 5.686-8.369 10.685-7.492l27.148 4.769c4.998.876 8.369 5.687 7.491 10.685l-2.452 13.972c33.957-6.337 59.67-36.107 59.67-71.904C151.02 36.257 118.26 3.5 77.851 3.5z"/><path fill="#EDC197" d="M86.309 123.915l-27.147-4.769c-4.999-.877-9.808 2.494-10.685 7.492l.436 16.817c-.024.136-.025.269-.04.401a72.92 72.92 0 0 0 28.98 5.976c4.614 0 9.121-.447 13.498-1.265l2.452-13.971c.877-4.994-2.494-9.805-7.494-10.681z"/><path fill="#E1B186" d="M58.871 125.771s-5.382 11.328-4.01 10.15c.914-.788 3.907-8.102 11.488 7.869 3.231 6.805 15.456 11.277 18.678.611 3.225-10.663-26.156-18.63-26.156-18.63z"/><path fill="#F4F3F2" d="M86.152 143.675c-4.965 3.683-12.038 2.636-15.723-2.329l-22.027-29.684c-3.684-4.964-2.637-12.039 2.328-15.723 4.963-3.685 12.039-2.637 15.723 2.328l22.025 29.685c3.686 4.964 2.636 12.037-2.326 15.723z"/><path fill="#48AC59" d="M32.306 69.055c-8.404 5.431-10.642 16.896-5.002 25.625l6.122 9.477c5.64 8.725 17.011 11.396 25.415 5.967l26.619-17.2-26.537-41.068-26.617 17.199z"/><path fill="#EDC197" d="M80.777 111.143L66.979 120.5a3.963 3.963 0 0 1-5.493-1.053l-.111-.163a3.965 3.965 0 0 1 1.053-5.493l13.799-9.359a3.968 3.968 0 0 1 5.494 1.053l.109.164a3.967 3.967 0 0 1-1.053 5.494z"/><path fill="#EDC197" d="M84.973 117.997l-14.69 9.964a4.063 4.063 0 0 1-5.629-1.078 4.064 4.064 0 0 1 1.079-5.631l14.689-9.965a4.066 4.066 0 0 1 5.631 1.081 4.068 4.068 0 0 1-1.08 5.629zm4.912 6.523l-13.321 9.035a3.915 3.915 0 0 1-5.419-1.039l-.17-.25a3.916 3.916 0 0 1 1.038-5.421l13.321-9.036a3.917 3.917 0 0 1 5.42 1.039l.171.252a3.917 3.917 0 0 1-1.04 5.42z"/><path fill="#EDC197" d="M94.128 131.178l-10.752 7.293a3.642 3.642 0 0 1-5.044-.968l-.474-.698a3.642 3.642 0 0 1 .967-5.045l10.752-7.293a3.643 3.643 0 0 1 5.043.967l.474.699a3.644 3.644 0 0 1-.966 5.045z"/><path fill="#E1B186" d="M61.486 119.447s1.264-2.575 2.177-6.438l1.364-.926s-1.327 9.126-3.541 7.364z"/><path fill="#FFEAD7" d="M63.874 113.755l3.35 4.64s-1.97 3.06-4.649.467c-.001-.003-2.814-2.743 1.299-5.107z"/><path fill="#EDC197" d="M51.592 142.523l-2.056-1.977c-2.489-1.542-4.763-12.229-3.222-14.717l8.759-14.141c1.541-2.488 4.838-3.265 7.326-1.723l.565.621c2.488 1.541-2.595 11.46-4.135 13.948l-4.63 6.598c-1.54 2.492-.118 12.932-2.607 11.391z"/><path fill="#E1B186" d="M77.938 132.622c.25-.181 12.535-8.593 12.535-8.593s1.238-.256 1.745-.131l-14.806 9.76s.236-.827.526-1.036zm7.505-15.001l-13.111 8.872s-2.202 1.812-2.018 3.313l16.334-12.566-1.205.381z"/><path fill="#FFEAD7" d="M73.1 126.816l3.546 4.91s-2.084 3.24-4.923.496c0 .003-2.98-2.904 1.377-5.406zm7.11 5.366l3.351 4.639s-1.97 3.061-4.648.467c-.002-.002-2.815-2.742 1.297-5.106zm-13.353-10.389l3.35 4.639s-1.968 3.062-4.648.469c0-.003-2.815-2.743 1.298-5.108z"/><path fill="#E1B186" d="M81.039 110.945l-14.755 9.932s-1.806 1.139-2.15 2.549l18.411-12.828s-.889.006-1.506.347z"/><path fill="#FFEAD7" d="M59.65 109.173s.835 1.433-.495 3.132c-1.329 1.699-1.744 2.434-1.744 2.434l-3.369-1.383c0-.001 1.984-4.46 5.608-4.183z"/></svg>