<svg xmlns="http://www.w3.org/2000/svg" xmlns:xlink="http://www.w3.org/1999/xlink" width="155" height="155" viewBox="0 0 155 155"><path fill="#C9CEDF" d="M154.871 83.025c-.287.586-.178 1.238-.23 1.85a73.297 73.297 0 0 1-3.097 15.48 77.343 77.343 0 0 1-4.093 10.422 78.507 78.507 0 0 1-6.188 10.643 78.459 78.459 0 0 1-6.098 7.686 84.55 84.55 0 0 1-5.211 5.279c-2.489 2.324-5.159 4.441-7.953 6.398a76.597 76.597 0 0 1-11.386 6.613c-5.616 2.631-11.455 4.608-17.548 5.824-3.187.633-6.395 1.055-9.633 1.327-2.904.244-5.811.32-8.711.203a79.674 79.674 0 0 1-9.672-.985 76.784 76.784 0 0 1-12.551-3.127 77.193 77.193 0 0 1-15.559-7.343 79.88 79.88 0 0 1-10.027-7.346 73.732 73.732 0 0 1-7.488-7.427 82.369 82.369 0 0 1-6.572-8.565 70.759 70.759 0 0 1-4.511-7.76 79.074 79.074 0 0 1-5.815-15.562A81.278 81.278 0 0 1 .594 86.309c-.532-4.328-.536-8.685-.376-13.03.114-3.127.567-6.233 1.095-9.33.99-5.798 2.73-11.366 4.985-16.775 1.669-4.003 3.72-7.81 6.085-11.45a79.017 79.017 0 0 1 7.689-10.013 78.16 78.16 0 0 1 15.852-13.438c7.658-4.9 15.951-8.297 24.813-10.293 2.846-.64 5.734-1.047 8.637-1.388C73.45.113 77.537.151 81.617.262c3.35.091 6.68.55 9.979 1.159a76.257 76.257 0 0 1 11.189 2.937 78.16 78.16 0 0 1 13.799 6.343 79.724 79.724 0 0 1 9.906 6.849 72.392 72.392 0 0 1 7.354 6.816c3.307 3.526 6.299 7.308 8.911 11.382a77.404 77.404 0 0 1 7.515 15.115c1.531 4.167 2.713 8.43 3.489 12.797.366 2.055.679 4.122.871 6.206.065.702-.041 1.435.237 2.115.004 3.685.004 7.365.004 11.044zm-77.378 66.641c39.838.168 72.362-32.438 72.379-71.845.009-19.91-7.036-37.046-21.004-51.143C114.979 12.659 97.943 5.451 78.206 5.266 37.651 4.886 5.204 37.698 5.196 77.44c-.007 39.902 32.547 72.296 72.297 72.226z"/><path fill="#FEFEFE" d="M77.493 149.666c-39.75.07-72.304-32.324-72.297-72.226.008-39.742 32.455-72.554 73.01-72.174 19.737.186 36.772 7.394 50.662 21.412 13.968 14.097 21.013 31.233 21.004 51.143-.017 39.408-32.541 72.013-72.379 71.845zm66.611-72.238c.176-36.464-29.765-66.183-65.957-66.444-37.25-.269-67.167 29.861-67.19 66.374-.022 36.787 29.695 66.474 66.373 66.615 37.059.142 66.983-30.037 66.774-66.545z"/><path fill="#C9CEDF" d="M144.104 77.428c.207 36.507-29.715 66.687-66.774 66.544-36.678-.142-66.396-29.828-66.373-66.616.023-36.513 29.941-66.643 67.19-66.374 36.193.264 66.132 29.982 65.957 66.446z"/><path fill="#34AD96" d="M60.198 157.404c.1.111.204.22.31.326l.006.073c-.211-.25-.316-.399-.316-.399z"/><defs><path id="a" d="M39.5 14.5h73.377v133.506H39.5z"/></defs><use xlink:href="#a" overflow="visible" fill="#FFF"/><clipPath id="b"><use xlink:href="#a" overflow="visible"/></clipPath><path clip-path="url(#b)" fill="#F4F3F2" d="M76.44-37.5H140v209.462H76.44z"/><defs><path id="c" d="M76.525 145.653c4.647 0 8.091-3.957 8.091-8.261 0-4.647-3.443-8.09-8.091-8.09s-8.262 3.442-8.262 8.09c.001 4.304 3.444 8.261 8.262 8.261zM50.018 8.984h52.844c8.606 0 14.459 5.852 14.459 13.942v115.325c0 7.229-5.853 12.91-12.91 12.91H48.469c-7.058 0-12.909-5.681-12.909-12.91V22.927c0-8.09 5.851-13.943 14.458-13.943zm15.664 9.295c-1.549 0-2.582 1.205-2.582 2.754s1.033 2.753 2.582 2.753h21.517c1.549 0 2.581-1.205 2.581-2.753 0-1.55-1.032-2.754-2.581-2.754H65.682zm43.892 104.483V37.386h-66.27v85.376h66.27z"/></defs><use xlink:href="#c" overflow="visible" fill="#48AC59"/><clipPath id="d"><use xlink:href="#c" overflow="visible"/></clipPath><path clip-path="url(#d)" fill="#009A45" d="M76.44-24.736h70.351v187.638H76.44z"/><path fill="#686E85" d="M76.99 45.027l74.95.204-.129 47.818-44.18-.117-30.77 20.853 10.516-20.91-10.516-.027z"/><path fill="#C9CEDF" d="M96.854 74.122c1.604 0 2.963-.559 4.08-1.674 1.113-1.115 1.672-2.475 1.672-4.078 0-1.532-.559-2.875-1.672-4.024-1.117-1.151-2.477-1.726-4.08-1.726-1.602 0-2.963.575-4.076 1.726-1.117 1.149-1.674 2.491-1.674 4.024 0 1.604.557 2.963 1.674 4.078 1.113 1.115 2.474 1.674 4.076 1.674zm18.298 0c1.604 0 2.963-.559 4.078-1.674s1.672-2.475 1.672-4.078c0-1.532-.574-2.875-1.725-4.024-1.148-1.151-2.492-1.726-4.025-1.726s-2.875.575-4.026 1.726c-1.149 1.149-1.724 2.491-1.724 4.024 0 1.604.557 2.963 1.673 4.078 1.114 1.115 2.475 1.674 4.077 1.674zm18.299 0c1.604 0 2.963-.559 4.078-1.674s1.672-2.475 1.672-4.078c0-1.533-.557-2.875-1.672-4.024-1.115-1.151-2.475-1.726-4.078-1.726s-2.963.575-4.078 1.726c-1.115 1.149-1.672 2.491-1.672 4.024 0 1.604.557 2.963 1.672 4.078s2.475 1.674 4.078 1.674z"/></svg>