<svg xmlns="http://www.w3.org/2000/svg" xmlns:xlink="http://www.w3.org/1999/xlink" width="155" height="155" viewBox="0 0 155 155"><path fill="#C9CEDF" d="M154.871 83.025c-.287.586-.178 1.238-.23 1.85a73.297 73.297 0 0 1-3.097 15.48 77.343 77.343 0 0 1-4.093 10.422 78.507 78.507 0 0 1-6.188 10.643 78.32 78.32 0 0 1-6.099 7.686 84.007 84.007 0 0 1-5.211 5.279c-2.489 2.324-5.159 4.441-7.953 6.398a76.495 76.495 0 0 1-11.386 6.613c-5.616 2.631-11.455 4.607-17.549 5.824-3.187.633-6.395 1.055-9.633 1.326-2.904.244-5.811.32-8.71.203a79.872 79.872 0 0 1-9.672-.984 76.886 76.886 0 0 1-12.551-3.127 77.197 77.197 0 0 1-15.559-7.344 79.98 79.98 0 0 1-10.027-7.346 73.639 73.639 0 0 1-7.488-7.428 82.357 82.357 0 0 1-6.572-8.564 70.759 70.759 0 0 1-4.511-7.76 79.059 79.059 0 0 1-5.815-15.563A81.278 81.278 0 0 1 .593 86.307c-.532-4.328-.536-8.685-.376-13.03.114-3.127.567-6.233 1.095-9.33.99-5.798 2.73-11.366 4.985-16.775 1.669-4.003 3.72-7.81 6.085-11.45a79.017 79.017 0 0 1 7.689-10.013 78.16 78.16 0 0 1 15.852-13.438c7.658-4.9 15.951-8.297 24.813-10.293C63.582 1.338 66.47.931 69.373.59 73.449.111 77.536.149 81.616.26c3.35.091 6.68.55 9.979 1.159a76.257 76.257 0 0 1 11.189 2.937 78.16 78.16 0 0 1 13.799 6.343 79.724 79.724 0 0 1 9.906 6.849 72.392 72.392 0 0 1 7.354 6.816c3.307 3.526 6.299 7.308 8.911 11.382a77.404 77.404 0 0 1 7.515 15.115c1.531 4.167 2.713 8.43 3.489 12.797.366 2.055.679 4.122.871 6.206.065.702-.041 1.435.237 2.115.005 3.687.005 7.367.005 11.046zm-77.378 66.641c39.838.168 72.362-32.438 72.379-71.845.009-19.91-7.036-37.046-21.004-51.143C114.979 12.659 97.943 5.451 78.206 5.266 37.651 4.886 5.204 37.698 5.196 77.44c-.007 39.902 32.547 72.296 72.297 72.226z"/><path fill="#FEFEFE" d="M77.493 149.666c-39.75.07-72.304-32.324-72.297-72.226.008-39.742 32.455-72.554 73.01-72.174 19.737.186 36.772 7.394 50.662 21.412 13.968 14.097 21.013 31.233 21.004 51.143-.017 39.408-32.541 72.013-72.379 71.845zm66.611-72.238c.176-36.464-29.765-66.183-65.957-66.444-37.25-.269-67.167 29.861-67.189 66.374-.022 36.787 29.695 66.474 66.373 66.615 37.058.142 66.982-30.037 66.773-66.545z"/><path fill="#C9CEDF" d="M144.104 77.428c.207 36.507-29.715 66.687-66.773 66.544-36.678-.143-66.396-29.828-66.373-66.617.023-36.513 29.941-66.643 67.189-66.374 36.193.265 66.132 29.983 65.957 66.447z"/><path fill="#34AD96" d="M60.198 157.404c.1.111.204.22.31.326l.006.072a6.352 6.352 0 0 1-.316-.398z"/><path fill="#FFF" d="M39.5 14.5h73.377v133.506H39.5z"/><defs><path id="a" d="M39.5 14.5h73.377v133.506H39.5z"/></defs><clipPath id="b"><use xlink:href="#a" overflow="visible"/></clipPath><path clip-path="url(#b)" fill="#F4F3F2" d="M76.44-37.5H140v209.462H76.44z"/><path fill="#48AC59" d="M76.525 145.652c4.647 0 8.091-3.957 8.091-8.26 0-4.647-3.443-8.091-8.091-8.091s-8.262 3.442-8.262 8.091c.001 4.303 3.444 8.26 8.262 8.26zM50.018 8.984h52.843c8.606 0 14.459 5.852 14.459 13.942v115.325c0 7.229-5.853 12.91-12.909 12.91H48.469c-7.058 0-12.909-5.681-12.909-12.91V22.927c0-8.09 5.851-13.943 14.458-13.943zm15.664 9.295c-1.549 0-2.582 1.205-2.582 2.754s1.033 2.753 2.582 2.753h21.517c1.549 0 2.58-1.205 2.58-2.753 0-1.55-1.031-2.754-2.58-2.754H65.682zm43.892 104.483V37.386h-66.27v85.376h66.27z"/><defs><path id="c" d="M76.525 145.652c4.647 0 8.091-3.957 8.091-8.26 0-4.647-3.443-8.091-8.091-8.091s-8.262 3.442-8.262 8.091c.001 4.303 3.444 8.26 8.262 8.26zM50.018 8.984h52.843c8.606 0 14.459 5.852 14.459 13.942v115.325c0 7.229-5.853 12.91-12.909 12.91H48.469c-7.058 0-12.909-5.681-12.909-12.91V22.927c0-8.09 5.851-13.943 14.458-13.943zm15.664 9.295c-1.549 0-2.582 1.205-2.582 2.754s1.033 2.753 2.582 2.753h21.517c1.549 0 2.58-1.205 2.58-2.753 0-1.55-1.031-2.754-2.58-2.754H65.682zm43.892 104.483V37.386h-66.27v85.376h66.27z"/></defs><clipPath id="d"><use xlink:href="#c" overflow="visible"/></clipPath><path clip-path="url(#d)" fill="#009A45" d="M76.44-24.736h70.351v187.638H76.44z"/><path fill="#686E85" d="M76.188 55.521c-13.537 0-24.551 11.014-24.551 24.551 0 13.537 11.014 24.552 24.551 24.552s24.551-11.015 24.551-24.552c-.001-13.536-11.013-24.551-24.551-24.551zm-4.53 40.253L57.189 81.507l6.23-5.828 8.439 8.039 16.881-16.681 5.827 6.029-22.908 22.708zm32.385-11.694l3.289-4.008-3.289-4.007 2.034-4.768-4.288-2.916.602-5.149-4.936-1.586-.872-5.111-5.183-.136-2.271-4.661-5.011 1.331-3.499-3.826-4.432 2.693-4.431-2.693-3.499 3.826-5.011-1.331-2.272 4.661-5.183.138-.87 5.111-4.937 1.586.6 5.149-4.288 2.915 2.035 4.769-3.289 4.007 3.289 4.008-2.035 4.768 4.288 2.916-.6 5.148L54.92 98.5l.871 5.111 5.182.137 2.272 4.661 5.011-1.33 3.499 3.825 4.432-2.692 4.431 2.692 3.5-3.825 5.01 1.33 2.271-4.659 5.183-.139.87-5.111 4.938-1.586-.602-5.148 4.288-2.915-2.033-4.771zm-27.855 22.665c-14.707 0-26.671-11.965-26.671-26.673 0-14.707 11.965-26.671 26.671-26.671 14.708 0 26.673 11.965 26.673 26.671 0 14.708-11.965 26.673-26.673 26.673z"/></svg>