<svg xmlns="http://www.w3.org/2000/svg" xmlns:xlink="http://www.w3.org/1999/xlink" width="155" height="155" viewBox="0 0 155 155"><path fill="#C9CEDF" d="M154.871 83.025c-.287.586-.178 1.238-.23 1.85a73.297 73.297 0 0 1-3.097 15.48 77.343 77.343 0 0 1-4.093 10.422 78.507 78.507 0 0 1-6.188 10.643 78.32 78.32 0 0 1-6.099 7.686 84.007 84.007 0 0 1-5.211 5.279c-2.489 2.324-5.159 4.441-7.953 6.398a76.495 76.495 0 0 1-11.386 6.613c-5.616 2.631-11.455 4.607-17.549 5.824-3.187.633-6.395 1.055-9.633 1.326-2.904.244-5.811.32-8.71.203a79.872 79.872 0 0 1-9.672-.984 76.886 76.886 0 0 1-12.551-3.127 77.197 77.197 0 0 1-15.559-7.344 79.98 79.98 0 0 1-10.027-7.346 73.639 73.639 0 0 1-7.488-7.428 82.357 82.357 0 0 1-6.572-8.564 70.759 70.759 0 0 1-4.511-7.76 79.059 79.059 0 0 1-5.815-15.563A81.278 81.278 0 0 1 .593 86.307c-.532-4.328-.536-8.685-.376-13.03.114-3.127.567-6.233 1.095-9.33.99-5.798 2.73-11.366 4.985-16.775 1.669-4.003 3.72-7.81 6.085-11.45a79.017 79.017 0 0 1 7.689-10.013 78.16 78.16 0 0 1 15.852-13.438c7.658-4.9 15.951-8.297 24.813-10.293C63.582 1.338 66.47.931 69.373.59 73.449.111 77.536.149 81.616.26c3.35.091 6.68.55 9.979 1.159a76.257 76.257 0 0 1 11.189 2.937 78.16 78.16 0 0 1 13.799 6.343 79.724 79.724 0 0 1 9.906 6.849 72.392 72.392 0 0 1 7.354 6.816c3.307 3.526 6.299 7.308 8.911 11.382a77.404 77.404 0 0 1 7.515 15.115c1.531 4.167 2.713 8.43 3.489 12.797.366 2.055.679 4.122.871 6.206.065.702-.041 1.435.237 2.115.005 3.687.005 7.367.005 11.046zm-77.378 66.641c39.838.168 72.362-32.438 72.379-71.845.009-19.91-7.036-37.046-21.004-51.143C114.979 12.659 97.943 5.451 78.206 5.266 37.651 4.886 5.204 37.698 5.196 77.44c-.007 39.902 32.547 72.296 72.297 72.226z"/><path fill="#FEFEFE" d="M77.493 149.666c-39.75.07-72.304-32.324-72.297-72.226.008-39.742 32.455-72.554 73.01-72.174 19.737.186 36.772 7.394 50.662 21.412 13.968 14.097 21.013 31.233 21.004 51.143-.017 39.408-32.541 72.013-72.379 71.845zm66.611-72.238c.176-36.464-29.765-66.183-65.957-66.444-37.25-.269-67.167 29.861-67.189 66.374-.022 36.787 29.695 66.474 66.373 66.615 37.058.142 66.982-30.037 66.773-66.545z"/><path fill="#C9CEDF" d="M144.104 77.428c.207 36.507-29.715 66.687-66.773 66.544-36.678-.143-66.396-29.828-66.373-66.617.023-36.513 29.941-66.643 67.189-66.374 36.193.265 66.132 29.983 65.957 66.447z"/><defs><path id="a" d="M151.835 120.714v-6.528c0-1.49-.582-1.742-1.376-1.742h-14.061V31.802c0-1.701-.875-2.854-2.461-2.854H20.443c-1.588 0-3.311 1.15-3.311 2.854v80.642H4.641c-.795 0-1.539.252-1.539 1.742v6.528h.102s3.592 5.269 5.746 5.269h137.198c2.154 0 5.748-5.269 5.748-5.269h-.061z"/></defs><clipPath id="b"><use xlink:href="#a" overflow="visible"/></clipPath><path clip-path="url(#b)" fill="#333533" d="M77.117 14.543h91.555v134.645H77.117z"/><defs><path id="c" d="M151.835 120.714v-6.528c0-1.49-.582-1.742-1.376-1.742h-14.061V31.802c0-1.701-.875-2.854-2.461-2.854H20.443c-1.588 0-3.311 1.15-3.311 2.854v80.642H4.641c-.795 0-1.539.252-1.539 1.742v6.528h.102s3.592 5.269 5.746 5.269h137.198c2.154 0 5.748-5.269 5.748-5.269h-.061z"/></defs><clipPath id="d"><use xlink:href="#c" overflow="visible"/></clipPath><path clip-path="url(#d)" fill="#3F403F" d="M-14.438 14.543h91.555v134.645h-91.555z"/><path fill="#FFF" d="M90.479 118.448h-25.86c-2.155 0-2.155-4-2.155-4h30.169c.002 0 .002 4-2.154 4zm-64.651-81h103v67h-103z"/><path fill="#34AD96" d="M70.709 103.381c.042.047.086.094.131.139l.002.029a3.67 3.67 0 0 1-.133-.168z"/><path fill="#FFF" d="M61.994 43.207H92.89v56.217H61.994z"/><path fill="#00C86B" d="M104.739 45.472c2.205 0 4.06.752 5.563 2.255 1.504 1.501 2.256 3.356 2.256 5.562v35.177c0 2.153-.752 4.009-2.256 5.562-1.503 1.557-3.357 2.308-5.563 2.254h-54.87c-2.206 0-4.059-.748-5.563-2.254-1.503-1.502-2.255-3.356-2.255-5.562V53.289c0-2.206.752-4.061 2.255-5.564 1.503-1.501 3.357-2.253 5.563-2.253h54.87zM73.095 79.597l-6.164-5.413L52.65 88.466h49.235L87.603 74.184l-6.089 5.413c-1.202 1.001-2.605 1.503-4.209 1.503s-3.007-.502-4.21-1.503zm-23.226 6.164l14.056-14.206-14.056-12.254v26.46zm40.74-14.206l14.13 14.13V59.301l-14.13 12.254zm14.13-18.266h-54.87v.827l25.706 22.549c.452.351 1.027.527 1.729.527.701 0 1.252-.176 1.653-.527l25.781-22.549v-.827z"/></svg>