<svg xmlns="http://www.w3.org/2000/svg" xmlns:xlink="http://www.w3.org/1999/xlink" width="155" height="155" viewBox="0 0 155 155"><path fill="#C9CEDF" d="M154.871 83.025c-.287.586-.178 1.238-.23 1.85a73.297 73.297 0 0 1-3.097 15.48 77.343 77.343 0 0 1-4.093 10.422 78.507 78.507 0 0 1-6.188 10.643 78.32 78.32 0 0 1-6.099 7.686 84.007 84.007 0 0 1-5.211 5.279c-2.489 2.324-5.159 4.441-7.953 6.398a76.495 76.495 0 0 1-11.386 6.613c-5.616 2.631-11.455 4.607-17.549 5.824-3.187.633-6.395 1.055-9.633 1.326-2.904.244-5.811.32-8.71.203a79.872 79.872 0 0 1-9.672-.984 76.886 76.886 0 0 1-12.551-3.127 77.197 77.197 0 0 1-15.559-7.344 79.98 79.98 0 0 1-10.027-7.346 73.639 73.639 0 0 1-7.488-7.428 82.357 82.357 0 0 1-6.572-8.564 70.759 70.759 0 0 1-4.511-7.76 79.059 79.059 0 0 1-5.815-15.563A81.278 81.278 0 0 1 .593 86.307c-.532-4.328-.536-8.685-.376-13.03.114-3.127.567-6.233 1.095-9.33.99-5.798 2.73-11.366 4.985-16.775 1.669-4.003 3.72-7.81 6.085-11.45a79.017 79.017 0 0 1 7.689-10.013 78.16 78.16 0 0 1 15.852-13.438c7.658-4.9 15.951-8.297 24.813-10.293C63.582 1.338 66.47.931 69.373.59 73.449.111 77.536.149 81.616.26c3.35.091 6.68.55 9.979 1.159a76.257 76.257 0 0 1 11.189 2.937 78.16 78.16 0 0 1 13.799 6.343 79.724 79.724 0 0 1 9.906 6.849 72.392 72.392 0 0 1 7.354 6.816c3.307 3.526 6.299 7.308 8.911 11.382a77.404 77.404 0 0 1 7.515 15.115c1.531 4.167 2.713 8.43 3.489 12.797.366 2.055.679 4.122.871 6.206.065.702-.041 1.435.237 2.115.005 3.687.005 7.367.005 11.046zm-77.378 66.641c39.838.168 72.362-32.438 72.379-71.845.009-19.91-7.036-37.046-21.004-51.143C114.979 12.659 97.943 5.451 78.206 5.266 37.651 4.886 5.204 37.698 5.196 77.44c-.007 39.902 32.547 72.296 72.297 72.226z"/><path fill="#FEFEFE" d="M77.493 149.666c-39.75.07-72.304-32.324-72.297-72.226.008-39.742 32.455-72.554 73.01-72.174 19.737.186 36.772 7.394 50.662 21.412 13.968 14.097 21.013 31.233 21.004 51.143-.017 39.408-32.541 72.013-72.379 71.845zm66.611-72.238c.176-36.464-29.765-66.183-65.957-66.444-37.25-.269-67.167 29.861-67.189 66.374-.022 36.787 29.695 66.474 66.373 66.615 37.058.142 66.982-30.037 66.773-66.545z"/><path fill="#C9CEDF" d="M144.104 77.428c.207 36.507-29.715 66.687-66.773 66.544-36.678-.143-66.396-29.828-66.373-66.617.023-36.513 29.941-66.643 67.189-66.374 36.193.265 66.132 29.983 65.957 66.447z"/><path fill="#686E85" d="M15.97 30.06l123.269.367-.212 86.059-72.662-.212-50.607 37.531 17.295-37.632-17.295-.049z"/><path fill="#34AD96" d="M66.726 131.108c.072.081.147.159.225.236l.004.053c-.153-.181-.229-.289-.229-.289z"/><path fill="#FFF" d="M51.724 27.531h53.184v96.766H51.724z"/><defs><path id="a" d="M51.724 27.531h53.184v96.766H51.724z"/></defs><clipPath id="b"><use xlink:href="#a" overflow="visible"/></clipPath><path clip-path="url(#b)" fill="#F4F3F2" d="M78.497-10.159h46.069V141.66H78.497z"/><path fill="#48AC59" d="M78.56 122.591c3.368 0 5.864-2.868 5.864-5.986 0-3.369-2.496-5.864-5.864-5.864-3.369 0-5.988 2.495-5.988 5.864-.001 3.118 2.495 5.986 5.988 5.986zM59.347 23.533h38.301c6.238 0 10.48 4.242 10.48 10.105v83.589c0 5.239-4.242 9.357-9.356 9.357H58.224c-5.115 0-9.355-4.118-9.355-9.357V33.639c-.001-5.864 4.239-10.106 10.478-10.106zM70.7 30.27c-1.123 0-1.872.873-1.872 1.996s.749 1.996 1.872 1.996h15.596c1.123 0 1.87-.874 1.87-1.996 0-1.124-.747-1.996-1.87-1.996H70.7zM102.514 106V44.119H54.481V106h48.033z"/><defs><path id="c" d="M78.56 122.591c3.368 0 5.864-2.868 5.864-5.986 0-3.369-2.496-5.864-5.864-5.864-3.369 0-5.988 2.495-5.988 5.864-.001 3.118 2.495 5.986 5.988 5.986zM59.347 23.533h38.301c6.238 0 10.48 4.242 10.48 10.105v83.589c0 5.239-4.242 9.357-9.356 9.357H58.224c-5.115 0-9.355-4.118-9.355-9.357V33.639c-.001-5.864 4.239-10.106 10.478-10.106zM70.7 30.27c-1.123 0-1.872.873-1.872 1.996s.749 1.996 1.872 1.996h15.596c1.123 0 1.87-.874 1.87-1.996 0-1.124-.747-1.996-1.87-1.996H70.7zM102.514 106V44.119H54.481V106h48.033z"/></defs><clipPath id="d"><use xlink:href="#c" overflow="visible"/></clipPath><path clip-path="url(#d)" fill="#009A45" d="M78.497-.907h50.991v136.001H78.497z"/></svg>