<?xml version="1.0" encoding="utf-8"?>
<!-- Generator: Adobe Illustrator 16.0.0, SVG Export Plug-In . SVG Version: 6.00 Build 0)  -->
<!DOCTYPE svg PUBLIC "-//W3C//DTD SVG 1.1//EN" "http://www.w3.org/Graphics/SVG/1.1/DTD/svg11.dtd">
<svg version="1.1" id="Capa_1" xmlns="http://www.w3.org/2000/svg" xmlns:xlink="http://www.w3.org/1999/xlink" x="0px" y="0px"
	 width="270.333px" height="80px" viewBox="0 0 270.333 80" enable-background="new 0 0 270.333 80" xml:space="preserve">
<path fill-rule="evenodd" clip-rule="evenodd" fill="#FFFFFF" d="M167.803,28.347c0.463-0.337,0.81-0.532,1.085-0.801
	c1.734-1.681,3.426-3.407,5.183-5.063c1.563-1.473,3.286-2.73,5.308-3.521c1.444-0.565,2.929-0.696,4.436-0.3
	c2.35,0.618,3.104,1.841,2.635,4.235c-0.563,2.886-1.692,5.582-2.827,8.27c-1.549,3.671-3.191,7.305-4.709,10.989
	c-1.01,2.444-1.818,4.964-2.079,7.619c-0.104,1.038-0.135,2.083-0.218,3.123c-0.02,0.25-0.087,0.504-0.176,0.74
	c-0.268,0.722-0.763,0.992-1.413,0.603c-3.06-1.835-5.018-4.312-4.604-7.906c0.446-3.882,1.998-7.406,3.495-10.949
	c1.433-3.394,2.879-6.782,4.301-10.18c0.177-0.421,0.312-0.883,0.344-1.334c0.052-0.713-0.38-1.022-1.013-0.697
	c-0.612,0.314-1.201,0.714-1.71,1.175c-2.53,2.289-4.564,5.006-6.566,7.747c-3.215,4.398-5.749,9.206-8.398,13.944
	c-0.508,0.908-1.1,1.772-1.684,2.636c-0.77,1.138-1.832,1.846-3.218,1.952c-0.854,0.064-1.72,0.084-2.572,0.027
	c-0.807-0.054-0.919-0.269-0.647-1.037c0.76-2.139,1.524-4.276,2.316-6.404c1.899-5.101,3.85-10.183,5.698-15.301
	c0.474-1.314,0.74-2.725,0.927-4.115c0.15-1.119-0.473-1.596-1.589-1.351c-1.151,0.254-2.291,0.574-3.417,0.924
	c-0.75,0.233-1.255,0.804-1.245,1.596c0.029,2.157-0.768,4.089-1.573,6.01c-1.745,4.157-3.701,8.219-6.402,11.847
	c-2.904,3.9-6.646,6.64-11.501,7.646c-1.404,0.293-2.81,0.289-4.209-0.069c-2.441-0.626-3.852-2.195-4.218-4.69
	c-0.466-3.186,0.155-6.242,1.169-9.229c1.554-4.575,3.959-8.625,7.498-11.974c0.987-0.935,1.85-2,2.711-2.942
	c-0.531,0.032-1.237,0.077-1.941,0.116c-2.645,0.147-5.288,0.305-7.932,0.43c-0.459,0.021-0.561,0.285-0.685,0.629
	c-1.895,5.25-3.758,10.513-5.711,15.741c-1.996,5.342-4.109,10.639-6.84,15.662c-0.222,0.407-0.48,0.795-0.69,1.208
	c-1.849,3.639-5.183,4.899-8.892,5.543c-0.311,0.055-0.658-0.099-0.988-0.155c0.073-0.303,0.091-0.634,0.229-0.906
	c0.313-0.619,0.645-1.237,1.041-1.806c1.483-2.124,2.646-4.396,3.536-6.835c0.952-2.61,2.036-5.174,3.061-7.758
	c0.082-0.207,0.147-0.42,0.289-0.825c-1.324,1.009-2.487,1.884-3.638,2.772c-2.91,2.246-6.037,4.069-9.646,4.949
	c-2.033,0.495-4.079,0.633-6.126,0.08c-2.972-0.801-4.978-3.2-5.354-6.267c-0.41-3.339,0.377-6.463,1.68-9.472
	c2.544-5.879,6.184-10.887,11.747-14.292c2.193-1.342,4.507-2.42,7.108-2.624c0.927-0.073,1.919-0.007,2.807,0.251
	c1.979,0.577,2.947,2.708,2.361,4.931c-0.511,1.936-1.657,3.514-2.915,5.013c-2.378,2.838-5.208,5.159-8.312,7.157
	c-1.837,1.182-3.698,2.331-5.169,3.984c-1.099,1.236-1.934,2.621-1.624,4.338c0.16,0.885,0.514,1.793,1.001,2.549
	c0.755,1.172,2.02,1.151,3.206,0.858c4.087-1.012,7.563-3.114,10.543-6.067c3.697-3.664,6.257-8.027,7.968-12.917
	c0.632-1.809,1.298-3.605,1.997-5.541c-1.217-0.319-2.341-0.613-3.466-0.908c-0.021-0.067-0.042-0.133-0.063-0.199
	c0.315-0.188,0.613-0.42,0.95-0.556c1.541-0.626,3.012-1.379,4.138-2.626c0.741-0.82,1.433-1.709,2.005-2.653
	c2.477-4.087,5.555-7.543,9.872-9.765c3.031-1.56,6.268-2.417,9.64-2.725c2.449-0.223,4.912-0.3,7.369-0.425
	c2.093-0.106,3.891,0.537,5.249,2.195c0.704,0.859,1.393,1.731,2.064,2.617c0.393,0.518,0.38,1.075,0.02,1.62
	c-1.46,2.198-3.299,4.008-5.541,5.405c-0.116,0.073-0.251,0.163-0.378,0.165c-0.351,0.006-0.702-0.03-1.054-0.049
	c0.132-0.273,0.21-0.59,0.402-0.81c2.386-2.748,1.448-6.96-1.919-8.373c-2.715-1.14-5.454-0.85-8.157,0.088
	c-2.189,0.759-4.057,2.01-5.608,3.751c-2.091,2.347-4.024,4.807-5.569,7.553c-0.299,0.532-0.506,1.117-0.814,1.814
	c0.635,0.078,1.107,0.192,1.577,0.184c3.204-0.056,6.408-0.182,9.612-0.195c2.199-0.009,4.398,0.125,6.599,0.204
	c0.156,0.006,0.315,0.07,0.463,0.132c0.64,0.266,0.742,0.618,0.254,1.091c-0.379,0.368-0.803,0.731-1.275,0.954
	c-3.237,1.524-5.374,4.148-7.146,7.119c-2.382,3.995-4.109,8.252-4.847,12.869c-0.223,1.403-0.315,2.816,0.073,4.215
	c0.49,1.755,1.847,2.377,3.497,1.572c1.436-0.701,2.506-1.843,3.453-3.082c3.625-4.741,6.019-10.045,7.103-15.917
	c0.204-1.112,0.215-2.263,0.262-3.399c0.042-0.979,0.504-1.656,1.396-1.962c1.355-0.466,2.721-0.925,4.115-1.248
	c3.089-0.712,6.196-1.366,9.308-1.981c0.808-0.16,1.667-0.164,2.493-0.105c1.494,0.107,2.187,0.802,2.075,2.302
	c-0.121,1.61-0.454,3.207-0.742,4.8C168.308,26.703,168.061,27.404,167.803,28.347z M97.526,35.941
	c0.109,0.066,0.217,0.132,0.325,0.198c2.037-1.678,4.115-3.308,6.096-5.05c1.874-1.647,3.506-3.53,4.542-5.833
	c0.352-0.783,0.575-1.667,0.646-2.522c0.09-1.078-0.725-1.639-1.787-1.384c-1.179,0.283-2.057,1.047-2.877,1.87
	c-2.07,2.078-3.631,4.518-4.813,7.183C98.857,32.209,98.231,34.092,97.526,35.941z M202.752,18.781
	c-0.502,1.28-0.928,2.45-1.416,3.592c-2.25,5.262-4.576,10.494-6.752,15.786c-0.796,1.937-1.338,3.99-1.836,6.029
	c-0.383,1.565,0.551,2.343,2.086,1.801c2.393-0.842,4.273-2.391,5.713-4.473c0.154-0.223,0.3-0.498,0.322-0.761
	c0.245-2.894,1.508-5.432,2.797-7.949c1.791-3.51,3.846-6.845,6.902-9.438c3.012-2.557,6.402-4.343,10.342-4.959
	c1.949-0.305,3.893-0.259,5.75,0.516c1.068,0.447,2.016,1.122,2.121,2.362c0.059,0.694-0.09,1.51-0.428,2.112
	c-1.074,1.911-2.832,3.088-4.783,3.981c-0.25,0.113-0.719,0.106-0.877-0.052c-0.164-0.164-0.148-0.599-0.08-0.885
	c0.229-0.989,0.619-1.951,0.752-2.949c0.244-1.856-0.898-2.722-2.66-2.087c-1.691,0.608-2.982,1.79-4.141,3.101
	c-3.709,4.2-5.98,9.125-7.17,14.566c-0.363,1.656-0.609,3.338-0.289,5.041c0.076,0.406,0.168,0.82,0.324,1.201
	c0.51,1.248,1.553,1.671,2.988,1.232c2.92-0.89,5.309-2.613,7.412-4.771c1.83-1.877,3.271-4.029,4.512-6.332
	c1.979-3.67,4.213-7.163,7.174-10.142c3.934-3.957,8.684-6.075,14.252-6.426c2.676-0.169,5.338-0.126,7.986,0.295
	c0.793,0.125,0.961,0.336,0.734,1.078c-0.514,1.679-0.992,3.383-1.682,4.992c-2.777,6.46-5.266,13.021-6.77,19.902
	c-0.518,2.366-0.639,4.818-0.961,7.228c-0.096,0.723-0.252,1.439-0.369,2.098c-0.189,0.044-0.244,0.077-0.275,0.062
	c-1.76-0.883-3.367-1.989-4.613-3.52c-0.852-1.045-0.734-2.338-0.674-3.606c0.059-1.13,0.025-2.267-0.014-3.4
	c-0.008-0.194-0.246-0.38-0.377-0.569c-0.189,0.181-0.52,0.346-0.545,0.548c-0.158,1.213-1.018,1.904-1.875,2.569
	c-2.455,1.906-5.09,3.495-8.16,4.197c-2.754,0.632-6.063-1.448-6.695-4.16c-0.084-0.356-0.063-0.736-0.105-1.104
	c-0.035-0.31-0.094-0.618-0.174-1.127c-0.549,0.433-0.982,0.729-1.361,1.082c-2.064,1.909-4.316,3.519-6.99,4.474
	c-2.217,0.791-4.473,1.188-6.824,0.646c-1.463-0.338-2.74-0.993-3.801-2.058c-0.736-0.739-1.466-1.485-2.221-2.251
	c-1.105,0.751-2.158,1.469-3.214,2.183c-1.896,1.282-3.951,2.2-6.256,2.281c-1.111,0.039-2.288-0.091-3.339-0.44
	c-2.199-0.726-3.119-2.634-2.702-5.153c0.44-2.674,1.373-5.198,2.448-7.66c1.957-4.48,3.975-8.936,6.007-13.383
	c0.422-0.922,0.99-1.783,1.546-2.635c0.595-0.912,1.46-1.497,2.529-1.715c1.655-0.337,3.319-0.638,4.981-0.944
	C202.18,18.753,202.367,18.781,202.752,18.781z M229.521,44.231c0.014,0.175,0.033,0.406,0.059,0.637
	c0.137,1.292,0.822,1.708,2.018,1.21c0.299-0.123,0.619-0.25,0.85-0.462c1.318-1.199,2.846-2.253,3.873-3.668
	c4.006-5.519,7.109-11.564,9.887-17.779c0.311-0.695,0.553-1.425,0.775-2.155c0.201-0.658,0.021-0.962-0.662-0.96
	c-0.611,0.001-1.25,0.113-1.83,0.316c-2.389,0.835-4.453,2.198-6.125,4.095c-3.148,3.57-5.451,7.659-7.234,12.052
	C230.266,39.656,229.629,41.852,229.521,44.231z M83.553,2.099c-0.294,0-0.588-0.003-0.882,0c-2.3,0.025-4.6,0.025-6.899,0.08
	c-9.035,0.214-18.068,0.43-27.102,0.676C43.331,3,38.006,3.302,32.715,4.111c-5.693,0.871-10.185,3.681-13.665,8.193
	c-1.104,1.432-1.938,3.022-2.067,4.865c-0.209,2.96,2.185,6.473,5.011,7.443c0.843,0.29,1.257,0.001,1.238-0.88
	c-0.005-0.229-0.047-0.46-0.098-0.685c-0.289-1.269-0.25-2.533,0.041-3.793c1.063-4.604,3.825-7.797,8.103-9.715
	c4.413-1.978,9.127-2.545,13.876-2.909c2.708-0.208,5.421-0.356,8.134-0.515c0.608-0.036,1.22-0.005,1.96-0.005
	c-0.65,0.555-1.189,1.059-1.773,1.504c-3.698,2.818-6.491,6.364-8.392,10.588c-1.845,4.098-3.646,8.217-5.382,12.361
	c-3.188,7.604-6.296,15.244-9.481,22.849c-0.84,2.009-1.752,3.998-3.269,5.628c-0.219,0.233-0.382,0.526-0.542,0.808
	c-0.415,0.729-0.307,0.958,0.544,0.951c0.691-0.005,1.384-0.116,2.071-0.218c3.755-0.551,6.738-2.229,8.748-5.598
	c2.138-3.583,3.759-7.388,5.27-11.253c3.018-7.723,5.993-15.463,9.084-23.157c1.425-3.547,3.066-7.011,5.134-10.247
	c1.371-2.145,3.244-3.576,5.838-3.825c2.102-0.202,4.216-0.266,6.321-0.444c2.979-0.251,5.964-0.469,8.927-0.856
	c2.087-0.272,3.745-1.5,5.258-2.891C83.588,2.239,83.57,2.169,83.553,2.099z M74.47,43.275c-1.935,1.405-3.703,2.763-5.547,4.007
	c-2.401,1.619-4.991,2.858-7.882,3.327c-3.713,0.603-6.71-0.59-8.938-3.656c-0.883-1.218-0.777-2.6-0.658-3.96
	c0.423-4.817,1.898-9.299,4.49-13.386c3.095-4.881,7.102-8.744,12.559-10.907c1.554-0.616,3.152-1.115,4.857-1.063
	c2.707,0.083,4.792,2.99,4.029,5.555c-0.519,1.746-1.598,3.139-2.764,4.46c-3.405,3.861-7.22,7.255-11.88,9.525
	c-2.282,1.111-3.364,2.728-3.102,5.24c0.109,1.036,0.166,2.083,0.363,3.103c0.208,1.076,0.648,1.368,1.745,1.414
	c1.436,0.06,2.746-0.404,3.994-1.038c4.027-2.043,7.177-5.096,9.778-8.73c2.536-3.546,4.306-7.518,6.148-11.442
	c2.157-4.594,4.264-9.211,6.445-13.794c0.535-1.124,1.239-2.175,1.933-3.214c0.584-0.875,1.433-1.44,2.462-1.714
	c1.409-0.373,2.817-0.744,4.449-0.651c-0.162,0.621-0.249,1.186-0.455,1.704c-1.844,4.625-3.688,9.251-5.572,13.86
	c-2.718,6.646-5.551,13.247-8.165,19.933c-0.885,2.265-1.341,4.713-1.829,7.111c-0.261,1.283-0.171,2.636-0.242,3.957
	c-0.009,0.162-0.013,0.327-0.046,0.485c-0.206,0.996-0.689,1.299-1.512,0.735c-1.218-0.834-2.392-1.756-3.47-2.766
	c-0.782-0.73-1.046-1.798-1.091-2.863c-0.063-1.462-0.068-2.926-0.096-4.389C74.466,43.871,74.47,43.624,74.47,43.275z
	 M72.359,23.177c-0.13-1.712-1.408-2.514-2.863-1.714c-0.54,0.297-1.075,0.678-1.476,1.141c-0.925,1.065-1.839,2.155-2.63,3.322
	c-1.704,2.517-3.247,5.133-4.12,8.075c-0.118,0.4,0.016,0.876,0.034,1.316c0.396-0.146,0.87-0.198,1.174-0.454
	c1.702-1.435,3.397-2.882,5.028-4.397c1.55-1.44,2.955-3.028,3.939-4.923C71.832,24.797,72.059,23.968,72.359,23.177z M3.027,76.133
	c0.428,0.067,0.854,0.171,1.284,0.196c3.409,0.191,6.816,0.45,10.228,0.536c7.293,0.183,14.589,0.341,21.884,0.391
	c13.292,0.091,26.585,0.11,39.877,0.131c10.876,0.015,21.752-0.008,32.628-0.018c4.648-0.003,9.296-0.016,13.944-0.028
	c18.265-0.04,36.532-0.077,54.797-0.128c10.503-0.027,21.006-0.062,31.509-0.125c15.963-0.096,31.926-0.214,47.891-0.334
	c2.881-0.021,5.762-0.099,8.643-0.151c0.162-0.002,0.326-0.017,0.488-0.021c0.463-0.013,0.779-0.219,0.754-0.71
	c-0.027-0.481-0.424-0.477-0.781-0.486c-3.252-0.08-6.504-0.188-9.756-0.235c-10.34-0.152-20.678-0.31-31.02-0.416
	c-15.893-0.163-31.786-0.313-47.68-0.416c-13.083-0.087-26.165-0.127-39.25-0.141c-11.363-0.011-22.727,0.025-34.091,0.075
	c-13.942,0.06-27.885,0.124-41.828,0.243c-18.309,0.155-36.619,0.315-54.918,1.034C6.084,75.589,4.543,75.753,3,75.868
	C3.009,75.957,3.019,76.044,3.027,76.133z M201.037,11.441c0.227,1.301,1.039,1.854,2.346,1.602c1.721-0.332,3.43-2.218,3.604-3.976
	c0.18-1.809-1.324-3.15-3.074-2.747c-1.875,0.43-2.994,2.019-2.974,4.319C200.961,10.845,200.985,11.146,201.037,11.441z"/>
</svg>
