<?xml version="1.0" encoding="utf-8"?>
<!-- Generator: Adobe Illustrator 16.0.0, SVG Export Plug-In . SVG Version: 6.00 Build 0)  -->
<!DOCTYPE svg PUBLIC "-//W3C//DTD SVG 1.1//EN" "http://www.w3.org/Graphics/SVG/1.1/DTD/svg11.dtd">
<svg version="1.1" id="Capa_1" xmlns="http://www.w3.org/2000/svg" xmlns:xlink="http://www.w3.org/1999/xlink" x="0px" y="0px"
	 width="270.333px" height="80px" viewBox="0 0 270.333 80" enable-background="new 0 0 270.333 80" xml:space="preserve">
<g>
	<path fill="#5BC500" d="M17.396,17.767c-3.636,0.058-10.347,1.851-13.413,14.37c-1.335,5.456-1.851,11.142-0.708,17.91
		c1.054,6.242,2.92,11.631,4.181,14.6c0.434,1.023,1.105,2.091,1.625,2.746c1.494,1.891,3.981,1.769,5.024,1.254
		c1.14-0.561,2.451-1.914,1.974-5.005c-0.228-1.494-0.887-3.68-1.261-4.894c-1.14-3.729-2.658-8.224-2.791-11.427
		c-0.178-4.284,1.511-4.846,2.634-5.093c1.884-0.415,3.468,1.656,4.969,4.254c1.793,3.098,4.868,8.588,7.375,12.783
		c2.263,3.785,6.441,7.838,13.148,7.56c6.839-0.282,11.878-2.892,14.476-11.105c1.942-6.146,3.268-10.736,5.398-15.439
		c2.451-5.408,5.721-8.303,8.474-7.42c2.556,0.821,3.193,3.319,3.225,6.992c0.027,3.248-0.349,6.83-0.641,9.459
		c-0.106,0.956-0.299,2.876-0.219,3.943c0.154,2.096,1.062,4.188,3.421,4.524c2.514,0.356,4.533-1.653,5.338-4.081
		c0.318-0.958,0.589-2.425,0.735-3.463c0.739-5.249,0.93-8.776,0.597-14.147c-0.39-6.281-1.619-12.009-3.764-16.964
		c-2.051-4.74-5.346-7.777-9.571-8.047c-4.678-0.297-10.044,2.808-12.861,8.828c-2.595,5.55-4.671,11.249-5.93,14.157
		c-1.278,2.949-3.155,4.765-6.042,5.07c-3.53,0.372-6.569-2.191-8.798-5.843c-1.943-3.185-5.792-9.248-7.85-11.285
		C24.205,20.089,21.995,17.694,17.396,17.767"/>
	<path fill="#FFFFFF" d="M246.661,30.566c-1.363-0.586-3.43-0.976-6.105-0.976h-0.324c-1.631,0-3.85,0.198-5.992,0.585
		c-0.359,0.063-0.502,0.249-0.502,0.665v3.05c0,0.381,0.196,0.514,0.63,0.448c1.875-0.279,3.81-0.476,5.298-0.476h0.213
		c2.105,0,3.805,0.194,4.831,0.881c1.017,0.689,1.526,1.71,1.526,3.935v0.654c-1.545-0.325-3.41-0.539-5.114-0.542h-0.453
		c-2.844,0-5.514,0.689-7.22,2.278c-1.305,1.222-2.168,3.063-2.168,5.41v0.203c0,4.729,3.268,7.642,9.897,7.642h1.181
		c2.607,0,5.088-0.774,6.576-2.008c1.715-1.417,2.381-3.517,2.381-6.87v-6.833C251.315,33.943,249.489,31.786,246.661,30.566
		 M246.235,45.329c0,1.789-0.06,2.843-0.709,3.589c-0.689,0.787-1.908,1.163-3.562,1.163h-0.806c-3.052,0-4.829-1.224-4.829-3.574
		c0-1.076,0.425-2.033,1.084-2.6c0.773-0.667,1.906-0.992,3.851-0.992h0.428c1.473,0,3.152,0.148,4.543,0.513V45.329z
		 M267.466,29.587h-2.736c-3.926,0-6.996,1.359-8.31,4.209c-0.568,1.228-0.744,2.875-0.744,4.651v14.98
		c0,0.331,0.16,0.466,0.502,0.466h4.084c0.339,0,0.491-0.135,0.491-0.466V40.898c0-1.771,0.037-3.06,0.13-3.857
		c0.229-2.074,1.49-3.053,4.426-3.053h2.177c0.353,0,0.507-0.179,0.507-0.52v-3.366C267.993,29.757,267.822,29.587,267.466,29.587
		 M169.516,53.894h4.424c0.381,0,0.553-0.124,0.707-0.416c2.862-5.392,7.247-14.606,7.546-22.96
		c0.011-0.333-0.128-0.476-0.558-0.476l-4.126,0.001c-0.48,0-0.611,0.153-0.639,0.582c-0.188,3.046-0.835,6.579-1.773,9.737
		c-0.968,3.266-2.198,6.373-3.382,8.682c-1.178-2.31-2.415-5.416-3.38-8.682c-0.941-3.179-1.595-6.738-1.777-9.795
		c-0.029-0.437-0.264-0.523-0.685-0.523h-4.146c-0.439,0-0.562,0.204-0.531,0.649c0.583,8.187,3.125,14.545,7.546,22.804
		C168.896,53.783,169.127,53.894,169.516,53.894 M202.366,43.197c1.1,0.409,2.016,0.745,3.107,1.133
		c2.335,0.83,3.338,1.49,3.338,2.916c0,1.85-1.561,2.83-5.085,2.83h-0.127c-1.987,0-4.265-0.391-6.266-1.033
		c-0.415-0.132-0.644,0.026-0.644,0.442v3.046c0,0.382,0.064,0.615,0.496,0.763c1.911,0.66,4.551,1.029,6.699,1.029h0.164
		c6.258,0,9.65-2.783,9.65-7.288v-0.064c0-1.736-0.57-3.309-1.638-4.355c-1.04-1.025-2.628-1.822-5.076-2.733
		c-1.305-0.485-2.318-0.86-3.222-1.191c-2.038-0.743-2.609-1.44-2.609-2.487c0-1.73,1.7-2.404,4.426-2.404l0.205,0.001
		c1.577,0,3.483,0.226,5.797,0.644c0.426,0.078,0.669-0.014,0.669-0.456V30.86c0-0.411-0.111-0.528-0.536-0.619
		c-1.505-0.318-4.23-0.651-5.765-0.651h-0.367c-3.193,0-5.562,0.592-7.142,1.968c-1.283,1.119-2.138,2.81-2.138,4.829l-0.003,0.144
		c0,1.873,0.647,3.382,1.761,4.409C199.102,41.901,200.501,42.506,202.366,43.197 M227.5,53.894c0.35,0,0.542-0.19,0.542-0.496
		v-3.402c0-0.306-0.192-0.497-0.542-0.497h-0.541c-1.619,0-2.616-0.389-3.226-1.031c-0.804-0.85-0.976-2.228-0.976-3.861V34.27
		h4.494c0.34,0,0.51-0.13,0.51-0.461v-3.303c0-0.332-0.17-0.462-0.51-0.462h-4.494v-4.281c0-0.332-0.165-0.465-0.507-0.465h-4.083
		c-0.342,0-0.497,0.133-0.497,0.465v19.119c0,3.326,0.662,5.45,2.123,6.903c1.372,1.364,3.521,2.108,6.627,2.108H227.5z
		 M122.982,29.59h-1.235c-3.548,0-5.903,0.942-7.042,2.34h-0.029c-1.142-1.397-3.644-2.34-7.191-2.34h-1.267
		c-3.999,0-7.276,1.39-8.592,4.24c-0.568,1.229-0.755,2.873-0.755,4.652v14.866c0,0.326,0.191,0.546,0.525,0.546h4.031
		c0.331,0,0.518-0.22,0.518-0.546l0.007-12.382c0-1.771,0.045-3.062,0.133-3.855c0.233-2.076,1.776-3.084,4.716-3.084h0.336
		c2.935,0,4.553,1.008,4.783,3.084c0.088,0.794,0.131,2.084,0.131,3.855v12.389c0,0.327,0.2,0.539,0.534,0.539h4.036
		c0.333,0,0.525-0.257,0.525-0.585l0.002-12.343c0-1.771,0.043-3.062,0.131-3.855c0.233-2.076,1.844-3.084,4.783-3.084h0.339
		c2.939,0,4.479,1.008,4.711,3.084c0.088,0.794,0.125,2.084,0.125,3.855v12.389c0,0.337,0.2,0.539,0.534,0.539h4.036
		c0.331,0,0.52-0.257,0.52-0.585V38.481c0-1.779-0.189-3.423-0.755-4.652C130.258,30.979,126.975,29.59,122.982,29.59
		 M157.693,48.535c0.494-1.621,0.766-3.488,0.766-6.577c0-3.087-0.271-4.959-0.766-6.58c-1.238-4.141-4.51-5.789-9.815-5.789h-0.634
		c-5.306,0-8.576,1.647-9.821,5.789c-0.488,1.62-0.761,3.493-0.761,6.58c0,3.089,0.272,4.956,0.761,6.577
		c1.245,4.145,4.516,5.795,9.821,5.795h0.634C153.183,54.33,156.455,52.68,157.693,48.535 M153.105,45.435
		c-0.393,3.867-2.346,4.474-5.479,4.474h-0.135c-3.133,0-5.083-0.606-5.476-4.474c-0.124-1.165-0.219-2.131-0.219-3.477
		s0.095-2.312,0.219-3.48c0.393-3.868,2.343-4.47,5.476-4.47h0.135c3.133,0,5.086,0.603,5.479,4.47
		c0.122,1.168,0.221,2.135,0.221,3.48S153.227,44.27,153.105,45.435 M190.974,30.047h-4.085c-0.337,0-0.501,0.131-0.501,0.466
		l0.005,22.915c0,0.331,0.162,0.466,0.502,0.466h4.084c0.34,0,0.504-0.135,0.504-0.466l-0.005-22.915
		C191.478,30.178,191.319,30.047,190.974,30.047"/>
</g>
</svg>
