<?xml version="1.0" encoding="utf-8"?>
<!-- Generator: Adobe Illustrator 16.0.0, SVG Export Plug-In . SVG Version: 6.00 Build 0)  -->
<!DOCTYPE svg PUBLIC "-//W3C//DTD SVG 1.1//EN" "http://www.w3.org/Graphics/SVG/1.1/DTD/svg11.dtd">
<svg version="1.1" id="Capa_1" xmlns="http://www.w3.org/2000/svg" xmlns:xlink="http://www.w3.org/1999/xlink" x="0px" y="0px"
	 width="270.333px" height="80px" viewBox="0 0 270.333 80" enable-background="new 0 0 270.333 80" xml:space="preserve">
<g>
	<g>
		<path fill-rule="evenodd" clip-rule="evenodd" fill="#FFFFFF" d="M132.466,37.826c-0.049-2.884-1.069-5.401-3.916-6.606
			c-3.918-1.66-7.995-1.751-11.857-0.004c-1.414,0.641-2.206,0.75-3.578-0.017c-2.527-1.411-5.437-1.362-8.227-1.003
			c-5.68,0.729-7.665,3.112-7.673,8.845c-0.002,2.038,0,4.076,0,6.115c0,1.765,0,3.532,0,5.297c0,3.96-0.001,3.933,3.924,3.809
			c0.87-0.027,1.065-0.364,1.059-1.141c-0.028-3.576-0.015-7.156-0.027-10.732c-0.006-1.586-0.043-3.169,0.174-4.747
			c0.225-1.638,1.001-2.556,2.567-2.934c1.569-0.377,3.147-0.357,4.71,0.021c1.541,0.37,2.42,1.37,2.54,2.957
			c0.112,1.488,0.174,2.982,0.186,4.477c0.025,3.622,0.036,7.247-0.011,10.869c-0.012,0.944,0.27,1.306,1.229,1.224
			c0.854-0.072,1.725-0.072,2.578,0c0.994,0.084,1.218-0.347,1.21-1.263c-0.035-4.392-0.02-8.785,0.004-13.18
			c0.005-0.854,0.104-1.714,0.202-2.565c0.1-0.858,0.531-1.586,1.285-1.977c2.227-1.153,4.57-1.172,6.813-0.182
			c1.938,0.854,1.74,2.777,1.751,4.495c0.021,3.486,0.014,6.973,0.017,10.462c0.002,0.951,0.064,1.907-0.016,2.852
			c-0.093,1.09,0.318,1.476,1.394,1.374c0.853-0.079,1.722-0.054,2.58-0.004c0.818,0.048,1.131-0.263,1.126-1.089
			C132.486,48.062,132.552,42.942,132.466,37.826z"/>
		<path fill-rule="evenodd" clip-rule="evenodd" fill="#FFFFFF" d="M180.895,30.536c-0.764,0.064-1.545,0.084-2.306-0.003
			c-1.286-0.149-1.675,0.351-1.778,1.638c-0.484,6.016-2.297,11.669-4.994,17.306c-0.269-0.488-0.436-0.75-0.566-1.03
			c-2.165-4.66-3.625-9.532-4.386-14.615c-0.158-1.056,0.246-2.436-0.582-3.083c-0.794-0.62-2.099-0.173-3.177-0.19
			c-1.941-0.03-1.952,0.003-1.697,1.985c0.012,0.089,0.031,0.179,0.042,0.268c0.659,6.246,2.781,12.026,5.58,17.597
			c1.99,3.962,1.979,3.949,6.451,3.867c0.74-0.013,1.165-0.252,1.472-0.908c1.014-2.169,2.125-4.294,3.084-6.486
			c2.095-4.78,3.651-9.714,4.138-14.957C182.283,30.779,181.969,30.447,180.895,30.536z"/>
		<path fill-rule="evenodd" clip-rule="evenodd" fill="#FFFFFF" d="M209.245,41.328c-1.866-0.797-3.783-1.479-5.672-2.223
			c-1.96-0.771-2.637-1.563-2.43-2.793c0.199-1.174,1.214-1.837,3.181-1.988c1.626-0.128,3.259-0.079,4.869,0.191
			c3.048,0.516,3.015,0.534,3-2.532c-0.004-0.831-0.236-1.267-1.08-1.363c-1.841-0.207-3.666-0.569-4.911-0.55
			c-2.437,0.019-4.238,0.171-5.933,0.887c-2.323,0.983-3.671,2.741-3.893,5.27c-0.241,2.727,0.682,4.872,3.212,6.188
			c1.852,0.964,3.845,1.565,5.783,2.309c0.843,0.323,1.717,0.59,2.444,1.146c1.354,1.032,1.261,2.977-0.183,3.877
			c-0.665,0.414-1.415,0.617-2.187,0.666c-2.037,0.132-4.067,0.102-6.071-0.367c-2.713-0.636-2.679-0.626-2.706,2.181
			c-0.011,0.904,0.214,1.449,1.135,1.683c3.062,0.764,6.158,1.089,9.276,0.541c5.03-0.882,7.61-4.777,6.207-9.191
			C212.637,43.211,211.076,42.109,209.245,41.328z"/>
		<path fill-rule="evenodd" clip-rule="evenodd" fill="#FFFFFF" d="M226.486,49.886c-2.545,0.007-3.652-1.083-3.728-3.621
			c-0.097-3.207-0.082-6.42-0.079-9.63c0.002-2.25-0.283-1.918,1.944-1.93c3.224-0.018,3.202-0.003,3.045-3.195
			c-0.034-0.688-0.236-0.99-0.943-0.967c-0.949,0.032-1.904-0.051-2.849,0.023c-0.945,0.073-1.341-0.254-1.21-1.209
			c0.043-0.31,0.006-0.633,0.006-0.949c0-2.505,0-2.505-2.507-2.505c-0.362,0-0.732,0.047-1.084-0.008
			c-1.231-0.197-1.581,0.335-1.481,1.514c0.102,1.212,0.021,2.439,0.024,3.66c0.008,5.112-0.075,10.223,0.054,15.331
			c0.124,4.986,2.555,7.469,7.331,7.836c2.943,0.225,2.898,0.225,2.953-2.751C227.983,50.36,227.749,49.883,226.486,49.886z"/>
		<path fill-rule="evenodd" clip-rule="evenodd" fill="#FFFFFF" d="M267.645,31.048c-0.005-0.09-0.007-0.18-0.002-0.27
			c0.025-0.536-0.263-0.701-0.754-0.697c-1.983,0.02-3.971-0.091-5.921,0.464c-3.389,0.966-5.251,3.282-5.309,6.793
			c-0.042,2.531-0.008,5.063-0.008,7.596c-0.013,0-0.022,0-0.033,0c0,1.944,0,3.887,0,5.832c0,3.488,0,3.442,3.51,3.5
			c1.122,0.018,1.451-0.284,1.438-1.423c-0.046-4.837-0.034-9.676,0.043-14.511c0.047-2.716,1.238-3.811,3.957-3.909
			C267.815,34.304,267.815,34.304,267.645,31.048z"/>
		<path fill-rule="evenodd" clip-rule="evenodd" fill="#FFFFFF" d="M191.478,42.542c-0.001-3.577-0.025-7.153,0.015-10.729
			c0.009-0.904-0.208-1.354-1.207-1.278c-0.899,0.069-1.813,0.054-2.713,0.003c-0.867-0.049-1.2,0.248-1.196,1.157
			c0.03,7.152,0.028,14.304,0.009,21.458c-0.003,0.796,0.213,1.175,1.075,1.115c0.856-0.057,1.726-0.078,2.578,0.006
			c1.107,0.109,1.494-0.247,1.467-1.411C191.433,49.423,191.48,45.981,191.478,42.542z"/>
		<path fill-rule="evenodd" clip-rule="evenodd" fill="#FFFFFF" d="M151.634,30.445c-2.694-0.512-5.382-0.515-8.073,0.047
			c-3.311,0.692-5.314,2.704-6.116,5.958c-0.469,1.901-0.604,3.834-0.58,6.066c-0.063,1.353,0.063,2.974,0.307,4.586
			c0.621,4.099,2.597,6.371,6.457,7.231c2.675,0.598,5.391,0.554,8.079,0.025c3.672-0.721,5.717-3.058,6.385-6.662
			c0.658-3.547,0.665-7.106-0.013-10.652C157.389,33.444,155.32,31.144,151.634,30.445z M153.163,46.523
			c-0.378,2.476-1.656,3.609-4.182,3.784c-0.495,0.034-0.993,0.044-1.49,0.038c-3.838-0.044-5.116-1.234-5.41-5.036
			c-0.073-0.945-0.121-1.895-0.205-3.234c0.12-1.14,0.197-2.682,0.463-4.188c0.363-2.063,1.326-2.902,3.404-3.289
			c1.26-0.233,2.514-0.247,3.771-0.024c2.261,0.394,3.31,1.437,3.651,3.71C153.576,41.028,153.584,43.781,153.163,46.523z"/>
		<path fill-rule="evenodd" clip-rule="evenodd" fill="#FFFFFF" d="M251.044,38.042c-0.116-4.011-2.281-6.591-6.186-7.487
			c-2.777-0.636-5.581-0.635-8.366-0.206c-3.29,0.508-2.758-0.308-2.857,3.172c-0.031,1.059,0.299,1.346,1.33,1.175
			c2.329-0.384,4.684-0.482,7.038-0.281c2.787,0.241,4.05,1.589,4.108,4.229c0.019,0.853-0.066,1.182-1.096,0.998
			c-2.82-0.5-5.664-0.624-8.473,0.17c-3.34,0.948-5.275,3.479-5.336,6.987c-0.064,3.692,1.676,6.174,5.128,7.244
			c2.872,0.891,5.821,0.955,8.725,0.342c4.089-0.859,5.892-3.188,5.989-7.377c0.034-1.448,0.005-2.899,0.004-4.349
			C251.053,41.121,251.09,39.58,251.044,38.042z M246.07,47.488c-0.175,1.8-1.155,2.743-2.974,2.931
			c-0.58,0.061-1.173,0.009-1.761,0.009c-1.128,0.035-2.256,0.072-3.307-0.484c-1.254-0.665-1.98-1.83-1.854-3.19
			c0.134-1.466,0.777-2.65,2.264-3.06c2.362-0.647,4.751-0.393,7.124,0.03c0.42,0.075,0.568,0.35,0.555,0.783
			C246.083,45.5,246.165,46.501,246.07,47.488z"/>
	</g>
	<g>
		<path fill-rule="evenodd" clip-rule="evenodd" fill="#71BE45" d="M24.644,20.007c0.358,0.285,0.716,0.567,1.073,0.85
			c-0.574,1.282-1.721,0.67-2.644,0.813c-0.408,0.064-0.927-0.552-1.219,0.194c0.756,1.559,1.216,3.109,1.101,4.927
			c-0.103,1.631,0.509,3.283,0.83,4.919c0.381,1.947,0.495,3.929,0.91,5.866c0.115,0.535,0.249,1.053,0.484,1.544
			c1.218,4.729,3.651,8.798,6.81,12.463c0.711,0.825,1.617,1.515,2.564,1.977c1.647,0.809,3.057,2.115,4.961,2.408
			c0.982,0.15,1.567,0.788,1.925,1.711c0.671,1.727,1.016,3.514,1.095,5.36c-2.192,0.589-4.905-0.479-5.975-2.384
			c-0.272-0.485-0.532-0.979-1.077-1.162c-1.469-0.498-2.492-1.609-3.625-2.567c-0.519-0.44-0.996-0.963-1.606-1.239
			c-2.622-1.188-3.552-3.739-4.906-5.951c-0.14-0.229-0.304-0.526-0.229-0.769c0.454-1.461-0.302-2.646-0.855-3.867
			c-0.934-2.062-1.452-4.273-2.169-6.405c-0.558-1.657-0.823-3.506-1-5.299c-0.312-3.145-0.446-6.303-0.606-9.46
			c-0.038-0.726-0.075-1.438-0.305-2.137c-0.25-0.759,0.024-1.323,0.849-1.305C22.271,20.522,23.433,20.114,24.644,20.007z"/>
		<path fill-rule="evenodd" clip-rule="evenodd" fill="#88C541" d="M69.213,32.213c-0.354,0.186-0.71,0.37-1.064,0.554
			c-1.208,0.024-1.595-0.36-1.251-1.478c0.49-1.594,1.036-3.185,2.194-4.461c0.74-0.815,1.333-1.724,1.596-2.796
			c0.313-1.278-0.11-1.756-1.384-2.098c-1.634-0.438-3.034,0.084-4.392,0.851c-1.143,0.645-2.358,1.128-3.521,1.706
			c-2.006,0.997-3.218,2.816-4.174,4.805c-0.179,0.371-0.078,1.057-0.831,0.952c-0.345-0.445-0.29-0.953-0.243-1.461
			c0.159-0.615,0.264-1.246,0.567-1.815c0.544-0.992,0.785-2.103,1.242-3.137c0.622-1.397,1.604-2.31,2.979-2.889
			c1.83-0.771,3.445-1.949,5.248-2.781c1.106-0.512,2.231-0.958,3.388-1.331c0.517-0.165,1.011-0.323,1.436-0.704
			c1.069-0.958,2.04-1.057,3.117-0.168c0.726,0.598,1.708,1.084,1.72,2.258c-0.662,0.431-0.936-0.206-1.313-0.5
			c-0.477-0.37-0.808-0.953-1.794-1.131c0.822,1.783,2.059,3.122,2.424,4.854c-0.069,0.563,0.14,1.066,0.318,1.578
			c1.729,4.986,2.517,10.128,2.875,15.387c0.23,3.392,0.12,6.773,0.228,10.16c0.023,0.724,0.016,1.447-0.097,2.173
			c0.403-0.944,0.535-1.954,0.742-2.954c0.142-0.688-0.082-1.59,0.837-1.967c0.684,0.838,0.421,1.789,0.261,2.69
			c-0.256,1.449-0.6,2.883-1.072,4.279c-0.07,0.137-0.162,0.26-0.268,0.371c-0.414,0.37-0.714,1.088-1.422,0.742
			c-0.623-0.303-0.601-1.005-0.528-1.574c0.423-3.288,0.173-6.59,0.255-9.886c0.122-4.909-0.532-9.725-1.692-14.482
			c-0.193-0.792-0.462-1.564-0.95-2.236c-0.695-0.957-1.363-1.099-2.109-0.244c-1.312,1.5-2.35,3.204-3.234,4.994
			C69.024,31.029,69.235,31.632,69.213,32.213z"/>
		<path fill-rule="evenodd" clip-rule="evenodd" fill="#5EBB49" d="M11.562,47.439c0.22,1.96,1.014,3.785,1.38,5.709
			c-0.825,0.284-0.868-0.439-1.046-0.874c-0.773-1.882-1.196-3.872-1.68-5.844c-0.115-1.671-0.118-3.341-0.006-5.014
			c0.545-1.333,0.458-2.735,0.408-4.13c-0.013-0.354,0-0.786-0.4-0.937c-0.5-0.185-0.869,0.129-1.15,0.508
			c-0.998,1.345-1.06,2.952-1.151,4.513c-0.194,3.307,0.141,6.579,0.938,9.796c1.127,4.782,2.966,9.329,4.587,13.947
			c0.351,1.002,1.214,1.185,2.063,1.427c-0.417,0.985-1.011,1.246-1.943,0.839c-0.857-0.373-1.258-1.109-1.536-1.953
			c-1.312-3.962-2.802-7.863-3.779-11.937c-0.492-2.051-1.324-4.023-1.35-6.177c-0.013-0.628,0.084-1.262-0.107-1.881
			c-0.044-0.134-0.074-0.272-0.097-0.415c-0.256-2.674,0.005-5.328,0.595-7.922c0.434-1.906,1.509-3.488,3.44-4.243
			c0.99-0.384,1.697-1,2.107-1.966c0.765-1.799,1.637-3.549,1.279-5.635c-0.233-1.359,1.086-3.455,2.418-3.985
			c0.864-0.341,1.572-1.355,2.704-0.732c0.087,0.167,0.169,0.392,0.019,0.5c-1.078,0.774-1.117,2.017-1.411,3.128
			c-0.499,1.884-0.59,3.838-0.928,5.755c-0.237,1.345,0.015,2.683,0.581,3.973c0.926,2.109,1.628,4.315,2.838,6.299
			c0.3,0.493,0.605,1.028,0.4,1.661c-0.802,0.448-0.841-0.356-1.164-0.7c-0.199-0.535-0.523-1.007-0.801-1.498
			c-0.278-0.623-0.892-1.012-1.145-1.652c-0.049-0.116-0.087-0.233-0.122-0.353c-0.57-1.515-1.858-2.369-3.045-3.315
			c-0.506-0.403-0.928-0.199-1.285,0.213c-0.789,0.911-1.236,1.962-1.19,3.19c0.123,1.371-0.134,2.688-0.515,3.991
			C11.189,43.634,10.862,45.545,11.562,47.439z"/>
		<path fill-rule="evenodd" clip-rule="evenodd" fill="#6BBD46" d="M24.644,20.007c-0.972,0.838-2.149,0.838-3.327,0.792
			c-0.883-0.034-1.196,0.241-0.747,1.109c0.159,0.309,0.246,0.682,0.267,1.032c0.197,3.323,0.184,6.674,0.617,9.963
			c0.321,2.438,0.646,4.886,1.591,7.276c0.927,2.344,1.543,4.832,2.618,7.145c0.348,0.748-0.586,1.4,0,2.292
			c1.438,2.19,2.401,4.69,5.016,5.948c1.103,0.532,2.015,1.504,2.932,2.361c0.577,0.541,1.16,1,1.933,1.164
			c0.483,0.101,0.92,0.372,1.067,0.765c1.07,2.861,3.55,2.902,5.979,3.074c0.162-0.085,0.276-0.044,0.343,0.128
			c-0.024,0.158-0.109,0.272-0.252,0.344c-2.354,0.553-4.542-0.093-6.701-0.93c-1.604-0.455-2.717-1.666-4.019-2.591
			c-0.733-0.625-1.417-1.302-2.039-2.041c-0.922-1.2-1.939-2.329-2.781-3.594c-1.399-2.287-3.098-4.399-3.994-6.976
			c-0.709-1.757-1.692-3.432-1.986-5.315c-0.609-3.907-2.122-7.687-1.971-11.684c0.109-2.887,0.117-5.774,0.213-8.66
			c0.015-0.411,0.124-0.805,0.438-1.106c0.675-0.567,1.783-0.042,2.335-0.928c0.479-0.199,0.982-0.195,1.487-0.173
			C24.06,19.494,24.379,19.708,24.644,20.007z"/>
		<path fill-rule="evenodd" clip-rule="evenodd" fill="#87C541" d="M39.708,38.161c0.27,0.022,0.519,0.088,0.694,0.315
			c-0.712,2.038-1.442,4.069-2.402,6.01c-0.792,1.602-1.834,1.993-3.406,1.165c-1.229-0.648-2.199-1.573-2.757-2.872
			c-0.501-1.168-1.097-2.266-2.014-3.183c-0.894-0.892-1.3-2.105-1.555-3.268c-0.563-2.563-1.56-4.978-2.519-7.379
			c-0.625-1.569-1.199-3.199-2.058-4.68c-0.367-0.835-1.093-1.364-1.704-1.99c-0.151-0.152-0.21-0.33-0.15-0.541
			c0.228-0.413,0.618-0.35,0.938-0.232c1.391,0.519,2.882,0.409,4.301,0.732c0.883,0.596,1.402,1.499,1.987,2.345
			c-1.613,0.505-3.246,0.076-4.688-1.264c0.531,0.917,1.3,1.609,1.646,2.569c0.265,0.968,0.738,1.845,1.224,2.712
			c1.667,2.969,2.757,6.298,5.426,8.646c0.377,0.33,0.493,0.855,0.7,1.306c0.507,1.108,1.332,1.892,2.562,1.95
			c1.145,0.056,1.892-0.737,2.48-1.637c0.197-0.301,0.319-0.656,0.701-0.787C39.318,38.06,39.516,38.096,39.708,38.161z"/>
		<path fill-rule="evenodd" clip-rule="evenodd" fill="#80C243" d="M23.836,24.064c1.367,2.351,2.19,4.933,3.263,7.411
			c0.876,2.024,1.039,4.288,2.073,6.213c1.191,2.219,2.621,4.31,3.998,6.424c0.445,0.684,1.195,1.041,1.918,1.43
			c1.113,0.6,1.958,0.144,2.375-0.746c0.81-1.721,1.74-3.41,2.137-5.302c0.104-0.495,0.395-0.789,0.803-1.018
			c0.311-0.009,0.625-0.038,0.855,0.238c-0.029,0.065-0.057,0.132-0.083,0.199c-1.076,1.266-0.93,2.88-1.178,4.363
			c-0.196,1.175-0.412,2.373-0.969,3.374c-1.454,2.609-2.848,2.855-5.607,1.142c-2.557-1.589-3.892-4.264-5.08-6.899
			c-1.209-2.684-2.02-5.532-2.504-8.441c-0.347-2.084-1.56-3.86-1.919-5.919C23.776,25.723,23.239,24.906,23.836,24.064z"/>
		<path fill-rule="evenodd" clip-rule="evenodd" fill="#94C93E" d="M66.469,33.833c-0.894,0.73-1.789,1.459-2.683,2.188
			c-1.095-0.483-0.412-1.215-0.151-1.748c0.767-1.566,1.211-3.188,1.263-4.93c0.014-0.497-0.013-0.99-0.003-1.483
			c0.019-0.965-0.521-1.226-1.312-0.939c-2.394,0.862-4.913,1.555-6.111,4.196c-0.186,0.407-0.421,0.938-1.071,0.848
			c-0.195-0.238-0.211-0.512-0.153-0.799c0.661-1.11,0.974-2.382,1.727-3.467c1.403-2.017,3.315-3.288,5.593-4.021
			c1.168-0.376,2.172-1.107,3.38-1.385c0.853-0.194,1.596-0.109,2.316,0.396c0.588,0.413,0.842,0.909,0.639,1.624
			c-0.297,1.044-0.57,2.097-1.224,2.996c-0.725,0.993-1.187,2.131-1.685,3.239C66.532,31.577,66.259,32.676,66.469,33.833z"/>
		<path fill-rule="evenodd" clip-rule="evenodd" fill="#58BA49" d="M23.664,19.403c-0.453,0.257-0.938,0.362-1.457,0.314
			c-0.769,0.822-1.852,0.592-2.792,0.838c-0.067-0.007-0.133-0.015-0.199-0.023c-2.595,0.45-4.383,2.065-4.85,4.384
			c-0.018,0.09-0.03,0.181-0.025,0.27c0.13,2.692-0.145,3.756-1.255,6.023c-0.495,1.011-1.172,1.593-2.234,1.971
			c-1.916,0.68-2.874,2.31-3.282,4.163c-0.573,2.598-0.697,5.259-0.583,7.922c-0.169,0.077-0.308,0.04-0.417-0.111
			c-0.46-1.63-0.257-3.294-0.146-4.931c0.061-0.884,0.165-1.777,0.224-2.668c0.012-0.147,0.042-0.296,0.083-0.439
			c1.042-3.6,2.444-7.042,4.507-10.192c0.328-0.5,0.584-1.054,0.531-1.647c-0.172-1.929,1.007-2.973,2.446-3.857
			c0.306-0.188,0.603-0.396,0.924-0.559c1.953-0.751,4.059-1.037,5.949-1.983c0.446-0.224,0.949-0.217,1.42,0.012
			C22.894,19.061,23.279,19.232,23.664,19.403z"/>
		<path fill-rule="evenodd" clip-rule="evenodd" fill="#70BE46" d="M78.738,52.874c0.089,0,0.179,0,0.269,0
			c0.896-2.479,1.176-5.023,1.351-7.66c0.206-3.088-0.326-6.127-0.104-9.188c0.041-0.581,0.069-1.18-0.128-1.748
			c-0.598-3.776-0.989-7.594-2.315-11.225c-0.526-1.439-1.228-2.807-1.697-4.265c-0.004-0.142,0.029-0.276,0.097-0.4
			c0.849-0.204,0.925,0.542,1.15,1.006c1.219,2.507,1.955,5.179,2.583,7.883c0.042,0.175,0.1,0.279,0.049,0.106
			c-0.003-0.012,0.071-0.045,0.109-0.069c0.748,2.234,0.925,4.578,1.029,6.886c0.167,3.688,0.22,7.4-0.013,11.08
			c-0.191,3.014-0.381,6.083-1.567,8.948c-0.573,0.194-0.643,0.843-1.075,1.178c-0.669,0.518-1.361,0.967-2.23,0.656
			c-0.923-0.33-0.852-1.181-0.866-1.948c-0.107-6.014,0.007-12.028-0.001-18.04c-0.001-1.66-0.343-3.23-0.955-4.75
			c-0.569-1.415-1.063-1.514-2.356-0.672c-0.518,0.337-0.751,1.063-1.493,1.078c-0.397-0.458-0.296-0.94-0.004-1.376
			c0.501-0.752,1.031-1.494,1.755-2.059c1.211-0.942,2.317-0.687,2.947,0.724c0.707,1.581,1.131,3.268,1.292,4.971
			c0.157,1.659,0.429,3.316,0.371,4.999c-0.121,3.432,0.231,6.86,0.026,10.298c-0.078,1.309-0.418,2.596-0.3,3.912
			c0.047,0.521-0.255,1.26,0.269,1.507c0.608,0.288,1.018-0.37,1.411-0.791C78.564,53.604,78.66,53.242,78.738,52.874z"/>
		<path fill-rule="evenodd" clip-rule="evenodd" fill="#017A32" d="M54.538,21.603c2.071-4.397,4.916-7.999,9.766-9.568
			c0.438-0.144,0.869-0.204,1.314-0.242c0.292,0.42,0.322,0.513-0.241,0.698c-1.573,0.516-2.606,1.749-3.38,2.999
			c-1.071,1.726-2.36,3.309-3.307,5.108c-0.056,0.111-0.124,0.218-0.193,0.32c-0.23,0.291-0.372,0.635-0.537,0.965
			c-0.07,0.107-0.152,0.205-0.244,0.296c-0.576,0.482-0.843,1.167-1.116,1.818c-0.809,1.929-2.22,3.458-3.341,5.179
			c-0.317,0.486-0.73,0.721-1.114,0.018c-0.204-0.693,0.012-1.318,0.291-1.944C53.25,25.41,53.973,23.536,54.538,21.603z"/>
		<path fill-rule="evenodd" clip-rule="evenodd" fill="#2B953E" d="M12.419,68.325c-1.317-0.346-2.115-1.28-2.736-2.415
			c-2.455-4.486-3.875-9.327-4.874-14.309c-0.113-0.569-0.153-1.151-0.227-1.729c0.093-1.839-0.141-3.669-0.193-5.506
			c-0.134-4.723,0.563-9.317,1.933-13.821c0.314-1.033,0.607-2.077,1.082-3.054c0.036-0.138,0.088-0.271,0.148-0.401
			c0.271-0.542,0.675-1.02,0.796-1.638c0.282-0.453,0.398-1.192,1.224-0.719c0.276,1.044-0.465,1.798-0.791,2.66
			c-1.646,4.37-2.965,8.799-3.074,13.525c-0.131,5.741,0.569,11.41,2.197,16.86c0.978,3.276,2.072,6.661,4.281,9.457
			C12.436,67.552,12.722,67.882,12.419,68.325z"/>
		<path fill-rule="evenodd" clip-rule="evenodd" fill="#57BA49" d="M77.896,56.607c-1.152,0.55-2.317,0.966-3.592,0.396
			c-1.493-3.527-1.338-7.203-1.012-10.903c0.318-3.598,0.172-7.205,0.084-10.808c-0.031-1.279-0.596-2.254-1.978-2.534
			c-0.097-0.168-0.193-0.336-0.29-0.506c-0.139-0.881,0.347-1.396,1.101-1.598c0.788-0.212,1.421,0.224,1.855,0.844
			c0.882,1.254,1.298,2.675,1.261,4.208c-0.097,4.013,0.205,8.028-0.234,12.041c-0.261,2.384,0.159,4.774,0.255,7.162
			c0.033,0.818,0.5,1.188,1.309,1.237C77.097,56.173,77.695,55.895,77.896,56.607z"/>
		<path fill-rule="evenodd" clip-rule="evenodd" fill="#9BCA3D" d="M56.45,31.947c0.485-0.483,0.764-1.101,1.125-1.668
			c0.667-1.051,1.282-2.069,2.779-2.302c0.713-0.109,1.372-0.805,2.211-1.079c2.531-0.83,3.089-0.402,2.774,2.25
			c-0.234,1.983-0.576,3.904-1.605,5.651c-0.233,0.398-0.393,0.835,0.052,1.224c-1.173,1.231-2.051,2.676-2.987,4.081
			c-1.691,0.224-2.19,1.653-2.934,2.86c-0.33,0.536-0.234,1.482-1.246,1.435c-0.46-1.721,0.722-2.923,1.481-4.168
			c0.761-1.249,1.759-2.413,2.938-3.334c2.327-1.823,2.458-4.357,2.361-6.979c-0.02-0.525-0.334-0.876-0.866-0.839
			c-1.388,0.096-2.823,0.087-3.804,1.361c-0.605,0.782-1.333,1.468-1.845,2.331c-0.163,0.275-0.29,0.72-0.795,0.503
			C55.809,32.722,55.844,32.257,56.45,31.947z"/>
		<path fill-rule="evenodd" clip-rule="evenodd" fill="#65BC47" d="M77.896,56.607c-0.119-0.062-0.232-0.164-0.356-0.178
			c-2.536-0.279-2.382-0.294-2.641-2.816c-0.619-6.049,0.383-12.078,0.06-18.12c-0.072-1.361-0.466-2.571-1.099-3.697
			c-0.788-1.403-1.863-1.194-2.751,0.456c-0.262-0.116-0.524-0.23-0.787-0.345c-0.038-0.215,0.027-0.317,0.259-0.234
			c0.523-0.75,1.236-1.295,1.966-1.82c0.805-0.579,1.462-0.347,1.857,0.468c0.812,1.674,1.375,3.438,1.334,5.326
			c-0.086,4.016,0.085,8.031-0.113,12.056c-0.11,2.215,0.153,4.468,0.126,6.711c-0.006,0.478-0.153,1.053,0.411,1.332
			c0.589,0.291,1.167,0.087,1.659-0.265c0.512-0.367,0.949-0.822,1.273-1.388c0.21-0.365,0.405-0.271,0.454,0.135
			C79.196,55.157,78.901,56.131,77.896,56.607z"/>
		<path fill-rule="evenodd" clip-rule="evenodd" fill="#098236" d="M24.592,55.163c-1.397-2.12-2.583-4.363-3.763-6.608
			c0.5-0.498,0.59-0.532,1.093,0.036c0.592,0.67,1.212,1.333,1.724,2.06c1.11,1.577,2.518,2.92,3.557,4.551
			c-0.031,0.498,0.112,0.771,0.664,0.5c0.964,0.343,1.368,1.263,2.005,1.944c0.687,0.777,1.432,1.501,2.195,2.205
			c0.698,0.68,1.565,1.155,2.229,1.872c0.166,0.271,0.353,0.526-0.044,0.788c-0.129,0.085,0.114,0.091,0.134,0.176
			c0.301,0.52,0.919,0.925,0.622,1.67c-0.406,0.265-0.807,0.17-1.125-0.118c-1.563-1.407-3.408-2.46-4.696-4.237
			c-0.82-1.132-2.25-1.772-3.112-2.976C25.614,56.386,25.385,55.544,24.592,55.163z"/>
		<path fill-rule="evenodd" clip-rule="evenodd" fill="#47B348" d="M14.319,68.073c-0.169,0.01-0.338,0.021-0.507,0.031
			c-0.739,0.277-1.178-0.189-1.607-0.657c-0.83-0.913-1.365-2.005-1.838-3.125c-2.294-5.416-3.739-11.058-4.445-16.895
			c-0.033-0.268-0.018-0.541-0.021-0.811c-0.095-0.791-0.045-1.595-0.225-2.38c-0.126-1.332-0.296-2.663-0.044-4
			c0.264-1.355,0.382-2.731,0.549-4.098c0.006-0.132,0.023-0.263,0.047-0.395c0.288-0.907,0.444-1.854,0.743-2.76
			c0.037-0.118,0.086-0.233,0.139-0.345c0.246-0.428,0.37-0.893,0.378-1.388c0.062-0.367,0.044-0.759,0.31-1.067
			c0.377-0.441,0.505-0.967,0.496-1.536c0.033-0.517,0.201-0.981,0.535-1.38c0.267-0.313,0.499-0.646,0.596-1.055
			C9.456,26.1,9.5,25.992,9.549,25.886c0.234-0.474,0.557-0.899,0.719-1.407c0.042-0.115,0.092-0.225,0.148-0.33
			c0.528-1.002,1.483-1.64,2.145-2.529c0.319-0.225,0.617-0.571,1.045-0.192c0.083,0.239,0.028,0.451-0.147,0.618
			c-2.275,2.181-3.09,5.11-4.088,7.945c-0.315,0.896-0.705,1.761-1.078,2.63c-0.623,1.447-1.104,2.926-1.307,4.489l0,0
			c-0.426,2.751-0.616,5.511-0.255,8.285c0.471,1.506,0.236,3.111,0.67,4.632c1.008,3.53,1.717,7.142,3.018,10.598
			c0.534,1.421,1.058,2.859,1.505,4.316c0.354,1.155,0.781,2.213,2.075,2.612C14.22,67.622,14.367,67.808,14.319,68.073z"/>
		<path fill-rule="evenodd" clip-rule="evenodd" fill="#99CA3E" d="M32.307,29.4c1.329,2.032,2.656,4.062,3.983,6.093
			c-0.083,0.328,0.153,0.603,0.145,0.921c-0.019,0.723-0.403,0.99-1.061,0.779c-0.65-0.212-1.193-0.624-1.645-1.142
			c-2.149-2.472-4.39-4.864-6.26-7.566c-0.227-0.672-1.153-1.379-0.488-2.012c0.703-0.668,1.313,0.301,1.958,0.625
			C30.173,27.711,31.059,28.819,32.307,29.4z"/>
		<path fill-rule="evenodd" clip-rule="evenodd" fill="#3CA745" d="M9.16,27.327c-0.431,0.354-0.559,0.827-0.543,1.359
			c-0.3,0.503-0.267,1.118-0.543,1.629c-0.397,0.286-0.232,0.713-0.273,1.09c-0.344,0.387-0.297,0.93-0.542,1.356l0,0
			c-0.497,0.936-0.587,1.981-0.815,2.99l0,0c-0.283,1.528-0.349,3.081-0.544,4.619c-0.541,1.27-0.021,2.536,0,3.806
			c0.354,0.786-0.101,1.661,0.271,2.446c0.583,4.809,1.472,9.567,3.184,14.097c0.779,2.061,1.273,4.28,2.661,6.108
			c0.491,0.646,0.976,1.158,1.796,1.276c-0.401,0.478-0.919,0.212-1.393,0.221c-1.767-2.317-2.667-5.055-3.861-7.664
			c-1.277-2.79-1.81-5.717-2.32-8.657c-0.561-3.233-0.886-6.494-0.911-9.797c-0.043-5.708,1.438-11.03,3.68-16.196
			c0.198-0.455,0.485-0.876,0.421-1.406c-0.127-0.3,0.043-0.494,0.239-0.678c0.288-0.171,0.577-0.337,0.918-0.135
			c0.076,0.192,0.083,0.378-0.066,0.545l0,0c-0.202,0.579-0.633,1.044-0.814,1.632c0,0.089-0.001,0.18-0.001,0.271
			C9.398,26.539,9.346,26.967,9.16,27.327z"/>
		<path fill-rule="evenodd" clip-rule="evenodd" fill="#8EC640" d="M66.469,33.833c-1.263-1.492,0.063-2.741,0.483-3.996
			c0.606-1.813,2.033-3.259,2.511-5.177c0.34-1.365-0.592-2.36-2.023-2.153c-1.378,0.199-2.438,1.106-3.739,1.492
			c-2.67,0.793-4.669,2.509-6.211,4.832c-0.488,0.732-0.305,1.717-1.038,2.303c-0.222-0.194-0.229-0.428-0.135-0.682
			c0.042-0.047,0.084-0.094,0.126-0.14c0.746-2.113,1.92-3.923,3.622-5.406c0.524-0.458,1.031-0.79,1.723-0.963
			c1.543-0.384,2.788-1.42,4.199-2.106c1.448-0.704,2.824-0.372,4.214-0.089c0.904,0.182,1.331,1.468,0.832,2.623
			c-0.386,0.896-0.776,1.83-1.521,2.528c-1.349,1.266-1.749,3.024-2.372,4.657c-0.333,0.868,0.332,1.086,1.007,1.21
			C67.589,33.122,67.029,33.478,66.469,33.833z"/>
		<path fill-rule="evenodd" clip-rule="evenodd" fill="#81C343" d="M78.738,52.874c0.167,0.273,0.167,0.544-0.002,0.815
			c-0.146,0.229-0.316,0.438-0.512,0.629c-0.345,0.339-0.725,0.556-1.213,0.322c-0.452-0.216-0.461-0.648-0.438-1.053
			c0.122-2.071,0.349-4.135,0.299-6.213c-0.144-6.01,0.507-12.081-1.403-17.953c-0.238-0.734-0.474-1.472-0.931-2.095
			c-0.641-0.875-1.3-0.931-1.988-0.096c-1.143,1.391-2.266,2.813-2.509,4.696c-0.237,0.205-0.511,0.31-0.827,0.286
			c-0.632-0.306-0.684-0.909-0.461-1.397c1.004-2.197,2.198-4.281,3.933-6.012c0.749-0.744,1.352-0.5,1.941,0.187
			c0.758,0.884,1.078,1.963,1.377,3.053c1.99,7.241,1.651,14.655,1.645,22.043c0,0.77-0.397,1.488-0.273,2.273
			c0.075,0.473-0.228,1.15,0.306,1.363C78.273,53.958,78.32,53.099,78.738,52.874z"/>
		<path fill-rule="evenodd" clip-rule="evenodd" fill="#7AC144" d="M70.041,31.927c-0.287-0.973-0.118-1.815,0.555-2.616
			c0.544-0.65,0.954-1.416,1.426-2.128c1.221-1.835,2.389-1.296,3.131,0.394c0.922,2.101,1.395,4.375,1.662,6.65
			c0.658,5.63,0.15,11.288,0.276,16.934c0.016,0.709-0.201,1.422-0.242,2.136c-0.021,0.376-0.191,0.866,0.265,1.107
			c0.498,0.266,0.845-0.085,1.183-0.401c0.13-0.121,0.292-0.211,0.439-0.313c-0.01,0.573-0.434,0.879-0.819,1.178
			c-0.354,0.274-0.774,0.553-1.243,0.396c-0.591-0.197-0.387-0.759-0.373-1.17c0.112-3.032,0.453-6.069,0.345-9.091
			c-0.168-4.738,0.301-9.543-1.139-14.183c-0.092-0.296-0.225-0.584-0.279-0.886c-0.175-0.942-0.565-1.914-1.563-1.919
			c-0.873-0.003-1.552,0.778-2.053,1.576c-0.417,0.664-1.245,1.109-1.031,2.083c-0.085,0.079-0.172,0.157-0.259,0.234
			C70.227,31.913,70.134,31.92,70.041,31.927z"/>
		<path fill-rule="evenodd" clip-rule="evenodd" fill="#94C93F" d="M27.642,28.415c1.487,1.379,2.463,3.18,3.83,4.659
			c1.055,1.141,2.126,2.266,3.228,3.36c0.334,0.332,0.765,0.781,1.289,0.516c0.477-0.241-0.06-0.747,0.101-1.113
			c0.053-0.121,0.134-0.229,0.201-0.343c1.125,0.906,2.141,1.955,3.418,2.668c-0.217,0.012-0.435,0.025-0.652,0.037
			c-2.076,2.49-4.253,2.268-6.025-0.614c-0.07-0.116-0.125-0.25-0.228-0.333c-2.501-2.088-3.564-5.149-5.266-7.779
			c-0.195-0.299-0.365-0.626-0.252-1.013C27.39,28.334,27.508,28.319,27.642,28.415z"/>
		<path fill-rule="evenodd" clip-rule="evenodd" fill="#46B74A" d="M71.398,32.758c1.135-0.294,1.888,0.064,2.163,1.257
			c0.172,0.748,0.3,1.489,0.294,2.27c-0.036,4.242,0.115,8.49-0.3,12.72c-0.227,2.315-0.01,4.544,0.736,6.744
			c0.125,0.366,0.416,0.837,0.013,1.255c-0.279-0.024-0.546-0.076-0.723-0.327c-1.781-2.953-1.706-6.229-1.367-9.441
			c0.469-4.451,0.761-8.866-0.249-13.248c-0.163,0.116-0.126,0.359-0.312,0.436C71.322,33.905,71.443,33.318,71.398,32.758z"/>
		<path fill-rule="evenodd" clip-rule="evenodd" fill="#198A3A" d="M27.098,55.32c-1.002-1.163-2.023-2.309-3.003-3.49
			c-0.866-1.047-1.684-2.133-2.526-3.198c-0.215-0.273-0.449-0.476-0.739-0.077c-0.994-1.452-1.989-2.903-2.983-4.354
			c0.367-0.785,0.741-0.115,0.916,0.081c0.884,0.996,1.82,1.765,3.227,2.021c0.771,0.138,1.07,1.139,1.486,1.816
			c1.269,2.059,2.413,4.199,3.917,6.107c0.952,1.144,1.971,2.234,2.732,3.525c-0.097,0.126-0.201,0.126-0.312,0.02
			c-0.825-0.444-1.053-1.485-1.899-1.906C27.666,55.646,27.305,55.598,27.098,55.32z"/>
		<path fill-rule="evenodd" clip-rule="evenodd" fill="#47B248" d="M35.792,62.113c2.292,0.783,4.616,1.355,7.069,1.088
			c0.425-0.379,0.904-0.336,1.394-0.17c2.219,0.755,4.24,0.308,6.14-0.977c0.458-0.311,0.89-0.82,1.561-0.459
			c-1.729,2.156-4.026,3.373-6.661,4.03c-1.229-0.124-2.473,0.308-3.7-0.229c-1.767-0.773-3.411-1.798-5.217-2.487
			C36.066,62.787,35.711,62.579,35.792,62.113z"/>
		<path fill-rule="evenodd" clip-rule="evenodd" fill="#94C93F" d="M27.642,28.415c-0.091,0-0.181,0-0.272,0
			c-0.575,0.098-0.54-0.363-0.721-0.702c-0.31-0.578-0.481-1.231-0.909-1.746c-0.503-1.129-1.529-1.939-1.901-3.265
			c1.463,1.487,3.305,1.804,5.224,1.882c1.352,1.423,2.227,3.167,3.244,4.815c-0.505,0.7-0.784,0.035-1.028-0.226
			c-1.004-1.073-2.474-1.493-3.49-2.548c-0.178-0.181-0.505-0.178-0.783,0.041C27.215,27.245,27.429,27.829,27.642,28.415z"/>
		<path fill-rule="evenodd" clip-rule="evenodd" fill="#067D33" d="M24.592,55.163c0.353-0.494,0.57-0.047,0.692,0.16
			c1.025,1.723,2.502,2.979,3.994,4.285c0.819,0.716,1.432,1.802,2.34,2.444c1.093,0.774,1.96,1.918,3.359,2.236
			c1.268,0.198,2.555,1.08,2.716,1.858c-5.026-0.801-8.379-3.983-11.198-7.902C25.793,57.265,25.063,56.292,24.592,55.163z"/>
		<path fill-rule="evenodd" clip-rule="evenodd" fill="#228D3B" d="M7.801,27.055c-0.529,1.71-1.12,3.404-1.573,5.133
			c-0.764,2.91-1.26,5.859-1.452,8.878c-0.161,2.517,0.212,5.014,0.034,7.519c-0.03,0.437,0.14,0.913-0.228,1.289
			C3.321,42.426,4.133,35.178,6.692,28.1C7.162,27.856,6.943,26.886,7.801,27.055z"/>
		<path fill-rule="evenodd" clip-rule="evenodd" fill="#72BF46" d="M58.117,47.243c-0.606,2.212-1.131,4.448-1.95,6.597
			c-0.552,1.449-0.989,2.95-1.862,4.261c-1.218,1.476-2.414,3-4.31,3.653c-1.191,0.407-2.422,1.024-3.661,0.075
			c0.429-0.941,1.352-1.197,2.196-1.309c2.358-0.314,3.722-1.898,4.892-3.683c1.445-2.202,2.179-4.717,2.822-7.25
			c0.354-0.769,0.541-1.613,1.052-2.303C57.62,46.849,57.671,46.863,58.117,47.243z"/>
		<path fill-rule="evenodd" clip-rule="evenodd" fill="#55B848" d="M14.319,68.073c-2.692-0.902-2.818-3.535-3.56-5.612
			c-0.901-2.525-1.944-5.023-2.461-7.688c-0.596-3.067-1.704-6.046-1.584-9.236c-0.075-0.061-0.099-0.121-0.074-0.182
			c0.025-0.062,0.051-0.091,0.076-0.091c0.09,0,0.181,0,0.271,0l0,0c0.352,0.598-0.095,1.307,0.271,1.901
			c-0.058,2.301,0.902,4.382,1.411,6.557c0.947,4.051,2.495,7.908,3.776,11.851c0.437,1.342,1.447,1.961,2.401,1.569
			c0.306-0.126,0.558-0.303,0.566-0.679c-0.143-0.271-0.017-0.518,0.063-0.768c0.221-0.854,0.181-1.704-0.048-2.552
			c-0.054-0.213-0.081-0.429-0.086-0.647c0.014-0.387,0.028-0.774,0.396-1.021c0.322,0.803,0.502,1.635,0.528,2.5
			c0.143,0.559,0.156,1.116-0.009,1.674C16.133,66.875,15.566,67.747,14.319,68.073z"/>
		<path fill-rule="evenodd" clip-rule="evenodd" fill="#2F9C44" d="M71.653,34.422c0.175-0.351-0.284-0.865,0.289-1.113
			c0.987,3.753,0.915,7.538,0.6,11.382c-0.291,3.561-0.936,7.192,0.544,10.687c0.122,0.288,0.024,0.531-0.367,0.507
			c-1.546-2.297-1.563-4.942-1.424-7.512C71.544,43.722,71.844,39.079,71.653,34.422z"/>
		<path fill-rule="evenodd" clip-rule="evenodd" fill="#20943E" d="M58.355,20.805c0.102-0.292,0.141-0.635,0.315-0.875
			c1.646-2.283,2.921-4.83,4.917-6.859c0.585-0.594,1.435-0.667,2.128-1.05c0.016-0.01,0.006-0.087-0.011-0.126
			c-0.016-0.039-0.058-0.069-0.088-0.101c1.27-0.433,2.563-0.362,3.86-0.167c-0.089,0.705-0.716,0.746-1.195,0.896
			c-1.156,0.36-2.109,0.99-2.93,1.871c-1.326,1.423-3.106,2.332-4.373,3.831c-0.347,0.412-0.792,0.746-0.976,1.279
			c-0.216,0.473-0.434,0.942-0.909,1.223C58.859,20.84,58.621,20.947,58.355,20.805z"/>
		<path fill-rule="evenodd" clip-rule="evenodd" fill="#128135" d="M7.801,27.055c-0.634,0.067-0.387,1.071-1.109,1.045
			c1.023-5.146,6.416-9.972,11.15-9.982c-0.795,1.682-2.502,2.131-3.951,2.933c-0.892,0.037-1.436,0.67-2.027,1.204
			c-0.697,0.632-1.401,1.254-2.156,1.817c-0.093,0.178-0.187,0.357-0.28,0.534c-0.431,0.244-0.79,0.541-0.814,1.089
			C8.291,26.115,7.953,26.529,7.801,27.055L7.801,27.055z"/>
		<path fill-rule="evenodd" clip-rule="evenodd" fill="#1F8E3D" d="M35.792,62.113c0.026,0.037,0.044,0.092,0.08,0.108
			c2.119,0.936,4.119,2.12,6.282,2.97c1.032,0.407,2.161-0.168,3.14,0.435c-0.725,0.173-1.45,0.345-2.174,0.518
			c-0.255-0.127-0.528-0.114-0.792-0.066c-3.424,0.619-5.942-0.638-7.618-3.657c-0.116-0.253-0.311-0.434-0.547-0.576
			c-0.723-0.636-1.672-1.013-2.178-1.9c-0.082-0.072-0.104-0.144-0.072-0.21c0.031-0.064,0.062-0.097,0.091-0.097
			C33.375,60.295,34.327,61.597,35.792,62.113z"/>
		<path fill-rule="evenodd" clip-rule="evenodd" fill="#63BC47" d="M46.393,61.841c3.211,0.516,5.386-1.172,7.288-3.435
			c0.163-0.193,0.173-0.697,0.624-0.306c-0.604,1.286-1.263,2.534-2.351,3.495c-0.503,0.104-0.876,0.424-1.289,0.707
			c-2.028,1.4-4.184,2.027-6.604,1.012c-0.354-0.15-0.799-0.081-1.202-0.113c0-0.091,0-0.18,0-0.271
			c0.523-0.611,1.31-0.504,1.974-0.732c0.419-0.121,0.801-0.344,1.221-0.466C46.187,61.711,46.298,61.752,46.393,61.841z"/>
		<path fill-rule="evenodd" clip-rule="evenodd" fill="#66BE49" d="M80.101,27.313c-0.009,0.135,0.035,0.327-0.037,0.391
			c-0.428,0.391-0.226-0.151-0.24-0.207c-0.639-2.321-1.234-4.658-2.194-6.874c-0.35-0.805-0.546-1.715-1.338-2.266
			c-0.176-0.067-0.278-0.206-0.374-0.364c-1.389-2.291-3.287-3.283-6.013-2.576c-1.182,0.306-2.454,0.663-3.677-0.003
			c-0.107-0.414,0.209-0.49,0.481-0.603c0.958-0.061,1.826-0.362,2.677-0.825c1.344-0.73,2.737-0.879,4.097,0.02
			c0.815,0.604,1.425,1.411,2.104,2.148c0.253,0.007,0.403,0.157,0.528,0.36C78.162,19.849,79.514,23.44,80.101,27.313z"/>
		<path fill-rule="evenodd" clip-rule="evenodd" fill="#48B84A" d="M44.774,38.789c0.538-0.202,1.076-0.401,1.614-0.601
			c0.114,0.077,0.203,0.178,0.266,0.301c0.436,1.228,1.453,1.459,2.584,1.536c1.088,0.073,1.993-0.232,2.431-1.285
			c0.826-1.984,2.282-3.662,2.787-5.803c0.078-0.332,0.084-0.89,0.729-0.685c0.593,1.809-0.429,3.204-1.184,4.669
			c-0.499,0.599-0.797,1.308-1.102,2.012c-0.325,0.753-0.712,1.469-1.219,2.111c-0.946,1.2-1.909,1.424-3.341,0.831
			C46.807,41.239,45.111,40.803,44.774,38.789z"/>
		<path fill-rule="evenodd" clip-rule="evenodd" fill="#37A946" d="M58.355,20.805c0.193-0.083,0.385-0.167,0.577-0.251
			c0.342,0.43,0.181,0.877-0.041,1.258c-0.771,1.328-1.128,2.816-1.697,4.221c-0.973,2.601-1.898,5.219-2.91,7.805
			c-0.654,1.672-1.688,3.134-2.632,4.645c-1.12,1.237-2.469,0.73-3.748,0.434c-0.556-0.13-0.86-0.625-0.697-1.265
			c0.093-0.085,0.187-0.167,0.28-0.25c0.457-0.045,0.71,0.338,1.066,0.503c0.824,0.379,1.572,0.301,2.163-0.45
			c1.766-2.244,2.957-4.781,3.786-7.5c0.56-1.626,1.36-3.151,1.958-4.761c0.206-0.554,0.409-1.104,0.473-1.694
			c0.189-0.59,0.295-1.229,0.87-1.611l0.013,0.006c0.191-0.355,0.246-0.779,0.538-1.087L58.355,20.805z"/>
		<path fill-rule="evenodd" clip-rule="evenodd" fill="#1F903D" d="M27.392,54.226c-1.525-1.331-2.366-3.151-3.358-4.843
			c-0.544-0.926-1.426-1.619-1.756-2.673c-1.981,0.053-2.908-1.756-4.432-2.51c-0.459-0.532-0.919-1.064-1.379-1.594
			c-0.104-0.483,0.243-0.391,0.474-0.332c0.664,0.172,1.232,0.554,1.818,0.894c0.694,0.402,1.316,0.914,2.208,0.932
			c0.712,0.013,0.94,0.774,1.371,1.217c0.597,0.606,0.693,1.497,1.215,2.146c0.708,1.916,1.959,3.521,2.982,5.256
			C26.828,53.216,27.289,53.619,27.392,54.226z"/>
		<path fill-rule="evenodd" clip-rule="evenodd" fill="#239840" d="M57.261,23.519c-0.276,1.801-1.181,3.374-1.837,5.036
			c-0.197,0.498-0.403,0.993-0.605,1.49c-1.073,2.055-1.704,4.379-3.657,5.899c-0.539,0.42-1.061,0.869-1.733,1.016
			c-0.421,0.093-0.977,0.312-1.141-0.412c0.231-0.367,0.462-0.734,0.693-1.102c1.713-0.367,2.198-1.962,3.116-3.123
			c1.333-1.84,2.425-3.814,3.277-5.921c0.253-0.829,0.72-1.558,1.095-2.327C56.622,23.76,56.774,23.383,57.261,23.519z"/>
		<path fill-rule="evenodd" clip-rule="evenodd" fill="#35A645" d="M72.719,55.884c0.31-0.188,0.218-0.418,0.112-0.692
			c-0.948-2.443-0.89-4.938-0.715-7.53c0.297-4.414,0.915-8.86-0.121-13.276c-0.081-0.343-0.039-0.717-0.054-1.076
			c0.85,1.345,0.918,2.928,1.02,4.398c0.217,3.135-0.031,6.274-0.365,9.416c-0.326,3.067-0.453,6.212,1.13,9.093
			c0.1,0.181,0.019,0.344-0.146,0.46C73.178,56.537,72.949,56.211,72.719,55.884z"/>
		<path fill-rule="evenodd" clip-rule="evenodd" fill="#2CA345" d="M48.288,36.547c1.05,0.542,1.784-0.123,2.491-0.711
			c1.294-1.077,2.269-2.401,2.95-3.957c0.284-0.646,0.722-1.225,1.09-1.834c-0.84,2.952-2.212,5.64-4.13,8.025
			c-0.691,0.859-2.028,0.521-3.2-0.668C47.754,37.117,48.021,36.833,48.288,36.547z"/>
		<path fill-rule="evenodd" clip-rule="evenodd" fill="#4FB94A" d="M44.774,38.789c0.868,1.411,2.113,2.256,3.69,2.79
			c1.357,0.459,2.167,0.351,3.028-0.805c0.735-0.985,1.138-2.14,1.673-3.227c0.145-0.294,0.253-0.57,0.567-0.709
			c0.34,2.202-1.344,5.526-3.231,6.382c-0.296,0.134-0.604,0.171-0.925,0.158c-2.054-0.085-4.934-2.365-5.306-4.204
			c0.039-0.144,0.113-0.265,0.217-0.369C44.583,38.8,44.678,38.795,44.774,38.789z"/>
		<path fill-rule="evenodd" clip-rule="evenodd" fill="#89C541" d="M59.743,42.368c-0.173,0.821-0.417,1.618-0.849,2.348
			c-0.727-0.225-0.779,0.398-0.987,0.802c-0.698,1.346-0.924,2.875-1.611,4.229c-0.445,1.781-0.973,3.54-1.815,5.176
			c-0.327,0.632-0.654,1.4-1.576,1.45c-0.28-0.323-0.218-0.675-0.038-1c1.225-2.2,1.942-4.604,2.797-6.953
			c0.604-1.828,1.08-3.703,2.09-5.372c0.278-0.46,0.53-0.94,0.907-1.331c0.257-0.265,0.58-0.518,0.947-0.313
			C60.009,41.626,59.841,42.023,59.743,42.368z"/>
		<path fill-rule="evenodd" clip-rule="evenodd" fill="#45B74A" d="M17.857,37.654c0,0.092,0,0.182,0,0.272
			c-1.69,0.311-2.993,1.549-4.647,1.943c-0.176,0.05-0.357,0.091-0.505,0.209c-0.186,0.101-0.371,0.199-0.556,0.299
			c-0.965-1.199-0.126-3.35,1.503-3.838c1.119-0.337,2.212-0.246,3.274,0.235C17.33,36.968,17.616,37.287,17.857,37.654z"/>
		<path fill-rule="evenodd" clip-rule="evenodd" fill="#2F9B40" d="M19.759,40.917c0.272,0.362,0.543,0.726,0.815,1.088
			c0.61,0.475,1.076,1.017,0.898,1.869c-0.219,0.178-0.452,0.107-0.596-0.064c-0.688-0.814-1.604-1.043-2.613-1.191
			c-1.109-0.165-1.916-1.199-3.114-1.187c-0.543-0.366-1.086-0.731-1.629-1.099c0.081-0.607,0.569-0.54,0.929-0.462
			c0.823,0.185,1.626,0.121,2.41-0.098C18.134,39.419,19.057,39.865,19.759,40.917z"/>
		<path fill-rule="evenodd" clip-rule="evenodd" fill="#0C8538" d="M57.261,23.519c-0.963,0.768-1.129,1.97-1.627,2.993
			c-1.035,1.802-2.141,3.563-3.174,5.367c-0.429,0.378-0.697,0.905-1.118,1.271c-0.394,0.346-0.929,0.774-1.175-0.184
			c0.02-0.589,0.257-1.099,0.569-1.583c0.563-0.232,0.629-0.804,0.873-1.261c0.186-0.348,0.115-0.938,0.765-0.894
			c0.177,0.232,0.378,0.246,0.527-0.003c1.26-2.102,2.952-3.935,3.843-6.267c0.184-0.481,0.363-1.059,1.062-1.072
			C57.624,22.431,57.442,22.975,57.261,23.519z"/>
		<path fill-rule="evenodd" clip-rule="evenodd" fill="#2FA244" d="M59.716,19.458c0.575-1.445,1.861-2.256,2.943-3.233
			c0.761-0.686,1.754-1.138,2.361-1.979c1.115-1.544,2.96-1.773,4.458-2.62c0.563,0.111,1.148,0.151,1.634,0.513
			c0.046,0.287-0.141,0.443-0.364,0.463c-2.631,0.254-4.372,2.142-6.412,3.478c-1.294,0.909-2.609,1.795-3.679,2.987
			C60.424,19.327,60.141,19.598,59.716,19.458z"/>
		<path fill-rule="evenodd" clip-rule="evenodd" fill="#6EBE47" d="M10.519,46.622c0.563,1.838,1.104,3.683,1.703,5.508
			c0.125,0.38,0.084,0.965,0.72,1.019c0.057,0.046,0.071,0.104,0.043,0.17c0.161,0.582,0.167,1.216,0.558,1.725l-0.011-0.021
			c0.191,0.842,0.598,1.619,0.76,2.47c0.236,0.312,0.415,0.642,0.316,1.053c0.559,1.212,0.886,2.474,0.882,3.816
			c-0.179,0.18-0.389,0.196-0.618,0.119c-0.396-0.291-0.522-0.72-0.607-1.173c-0.51-2.901-1.576-5.63-2.613-8.369
			c-0.622-1.641-1.43-3.226-1.497-5.034C10.173,47.445,10.128,46.972,10.519,46.622z"/>
		<path fill-rule="evenodd" clip-rule="evenodd" fill="#137B33" d="M52.373,29.23c-0.455,0.475-0.407,1.168-0.728,1.697
			c-0.195,0.321-0.257,1.005-0.909,0.458c0.95-3.384,2.033-6.717,3.803-9.781c0.274,1.415-0.583,2.552-0.947,3.807
			C53.221,26.694,52.243,27.782,52.373,29.23z"/>
		<path fill-rule="evenodd" clip-rule="evenodd" fill="#26963F" d="M15.149,41.432c0.686-0.566,1.369-0.112,1.843,0.224
			c0.693,0.49,1.381,0.777,2.205,0.787c1.054,0.011,1.559,0.83,2.193,1.461c0.848,0.253,0.938,0.89,0.826,1.631
			c-1.736-1.332-3.706-2.201-5.749-2.928C16.028,42.214,15.588,41.823,15.149,41.432z"/>
		<path fill-rule="evenodd" clip-rule="evenodd" fill="#94C940" d="M59.743,42.368c-0.063-0.252-0.047-0.629-0.208-0.734
			c-0.339-0.217-0.547,0.152-0.745,0.376c-1.282,1.448-1.806,3.251-2.321,5.051c-0.146,0.509-0.181,1.051-0.563,1.465
			c-0.331-0.288-0.339-0.682-0.354-1.075c0.317-1.027,0.084-2.273,1.169-3.001c0.862-1.391,1.359-2.993,2.593-4.173
			c0.524-0.499,0.928-0.62,1.484-0.173C60.447,40.858,60.095,41.612,59.743,42.368z"/>
		<path fill-rule="evenodd" clip-rule="evenodd" fill="#48B54A" d="M22.508,18.889c-2.096,0.406-3.953,1.576-6.076,1.901
			c-0.435,0.067-0.862,0.19-1.292,0.286c-0.246,0.182-0.504,0.239-0.784,0.08c-0.224-0.593,0.337-0.529,0.592-0.646
			c1.698-0.776,3.495-1.339,5.07-2.377C20.936,18.098,21.776,18.313,22.508,18.889z"/>
		<path fill-rule="evenodd" clip-rule="evenodd" fill="#188637" d="M34.708,62.115c0.327,0.305,0.769,0.551,0.96,0.925
			c1.073,2.082,2.825,2.872,5.07,2.896c0.792,0.009,1.623-0.253,2.381,0.208c-0.237,0.026-0.472,0.053-0.708,0.08
			c-1.225,0.16-2.451,0.175-3.676-0.013c-0.347-0.021-0.694-0.043-1.041-0.063c-0.906-0.619-1.812-1.239-2.716-1.858
			c-0.271-0.544-0.542-1.088-0.813-1.632C34.386,62.519,34.546,62.315,34.708,62.115z"/>
		<path fill-rule="evenodd" clip-rule="evenodd" fill="#42B249" d="M64.063,15.923c2.137-1.657,4.201-3.452,7.048-3.784
			c0.422,0.056,0.791,0.222,1.096,0.522c-0.001,0.615-0.51,0.588-0.862,0.573c-1.592-0.074-2.835,0.692-4.042,1.574
			c-0.177,0.094-0.372,0.153-0.528,0.286c-0.223,0.007-0.427,0.054-0.545,0.273C65.623,15.998,64.948,16.367,64.063,15.923z"/>
		<path fill-rule="evenodd" clip-rule="evenodd" fill="#4FB94B" d="M17.042,37.11c-0.993-0.187-1.922-0.598-3.016-0.308
			c-1.591,0.417-2.468,1.937-1.877,3.575c-0.284,0.41-0.494,0.851-0.578,1.348c-0.076,0.128-0.155,0.128-0.237,0.005
			c0.306-1.437,0.29-2.891,0.274-4.348c0.848-1.29,2.58-2.103,4.015-1.766C16.355,35.789,17.047,36.159,17.042,37.11z"/>
		<path fill-rule="evenodd" clip-rule="evenodd" fill="#30A243" d="M20.019,18.132c-1.404,1.939-3.86,1.843-5.698,2.942
			c-0.163,0.152-0.345,0.162-0.539,0.071c-0.091-0.114-0.091-0.229-0.003-0.344c1.478-0.707,2.854-1.569,4.063-2.683
			C18.568,17.889,19.293,17.986,20.019,18.132z"/>
		<path fill-rule="evenodd" clip-rule="evenodd" fill="#35A042" d="M19.759,40.917c-1.025-0.801-2.142-1.189-3.399-0.621
			c-0.957,0.432-1.903-0.527-2.84,0.037c-0.272-0.084-0.544-0.168-0.815-0.254c0.086-0.085,0.174-0.169,0.262-0.253
			c1.13-0.395,2.378-0.396,3.441-1.012c1.112-0.646,1.937-0.34,2.54,0.742C19.296,39.963,19.699,40.337,19.759,40.917z"/>
		<path fill-rule="evenodd" clip-rule="evenodd" fill="#80C344" d="M56.178,49.613c0.658-1.568,0.826-3.302,1.641-4.82
			c0.194-0.363,0.348-0.8,0.82-0.753c0.336,0.032,0.222,0.424,0.255,0.676c-0.116,0.885-0.402,1.72-0.777,2.525
			c-0.43-0.411-0.463,0.068-0.618,0.276c-0.472,0.636-0.423,1.535-1.048,2.096C56.36,49.739,56.269,49.746,56.178,49.613z"/>
		<path fill-rule="evenodd" clip-rule="evenodd" fill="#15903E" d="M50.167,32.967c0.483,0.6,0.815,0.27,1.106-0.191
			c0.286-0.451,0.627-0.842,1.101-1.101c0.215,0.272,0.174,0.544-0.001,0.813c-0.382,0.907-1.173,1.534-1.575,2.451
			c-0.328,0.748-1.149,0.537-1.817,0.506C49.376,34.619,49.771,33.792,50.167,32.967z"/>
		<path fill-rule="evenodd" clip-rule="evenodd" fill="#7EC245" d="M27.076,22.239c-1.209,0.224-2.404,0.298-3.568-0.235
			c-0.5-0.229-1.006-0.695-1.573-0.111c-0.314,0.172-0.391-0.125-0.544-0.273c-0.105-1.091,0.656-0.469,0.979-0.428
			c1.151,0.147,2.298,0.472,3.347-0.335C26.412,21.081,26.522,21.877,27.076,22.239z"/>
		<path fill-rule="evenodd" clip-rule="evenodd" fill="#4DB84C" d="M67.05,14.825c0.971-1.201,2.223-1.837,3.773-1.908
			c0.468-0.022,0.988,0.177,1.385-0.256c1.462,0.84,2.727,1.871,3.377,3.494c-0.898-0.379-1.429-1.155-2.015-1.871
			c-1.629-1.21-3.228-0.97-4.849,0.046C68.23,14.638,67.773,15.237,67.05,14.825z"/>
		<path fill-rule="evenodd" clip-rule="evenodd" fill="#3BB049" d="M47.208,37.651c0.822,1.461,2.608,1.688,4.351,0.547
			c0.373,0.595-0.098,0.942-0.436,1.247c-1.206,1.095-3.988,0.503-4.727-0.976c-0.002-0.095-0.006-0.188-0.007-0.281
			C46.661,38.008,46.935,37.829,47.208,37.651z"/>
		<path fill-rule="evenodd" clip-rule="evenodd" fill="#47C05D" d="M11.333,41.73c0.079,0,0.159-0.002,0.237-0.005
			c-0.268,1.902-0.37,3.809-0.008,5.714c-0.289-0.17-0.497-0.412-0.485-0.756C11.128,45.032,10.838,43.359,11.333,41.73z"/>
		<path fill-rule="evenodd" clip-rule="evenodd" fill="#60BD4B" d="M15.41,62.388c-0.267-1.28-0.534-2.561-0.801-3.843
			c1.057,0.716,0.708,1.969,1.128,2.931c-0.02,0.396-0.041,0.793-0.061,1.188c-0.096,0.093-0.199,0.096-0.308,0.027
			C15.302,62.58,15.311,62.478,15.41,62.388z"/>
		<path fill-rule="evenodd" clip-rule="evenodd" fill="#75BF44" d="M44.487,38.806c0.003,0.067,0.003,0.135-0.001,0.204
			c-0.331,0.323-0.751,0.349-1.177,0.355c-0.197,0.005-0.396,0-0.592-0.007c-0.183,0.002-0.368-0.003-0.55,0.007
			c-0.508-0.07-0.721,0.61-1.246,0.495c-0.133-0.148-0.176-0.324-0.167-0.516c0.04-0.275,0.222-0.44,0.446-0.574l0.059-0.056
			C42.334,38.745,43.411,38.773,44.487,38.806z"/>
		<path fill-rule="evenodd" clip-rule="evenodd" fill="#1F8E3D" d="M38.735,66.211c1.225,0.005,2.451,0.008,3.675,0.013
			C41.185,66.582,39.958,66.585,38.735,66.211z"/>
		<path fill-rule="evenodd" clip-rule="evenodd" fill="#50C15B" d="M14.292,57.492c-0.377-0.786-0.893-1.526-0.76-2.47
			C14.008,55.776,14.369,56.568,14.292,57.492z"/>
		<path fill-rule="evenodd" clip-rule="evenodd" fill="#4DBF58" d="M13.543,55.043c-0.616-0.435-0.599-1.076-0.558-1.725
			C13.313,53.847,13.578,54.396,13.543,55.043z"/>
		<path fill-rule="evenodd" clip-rule="evenodd" fill="#60BD4B" d="M16.255,65.649c0.002-0.558,0.006-1.116,0.009-1.674
			C16.513,64.534,16.549,65.094,16.255,65.649z"/>
		<path fill-rule="evenodd" clip-rule="evenodd" fill="#75BF44" d="M45.036,62.387c-0.668,0.407-1.441,0.396-2.175,0.544
			c-0.091,0-0.181,0-0.271-0.002c-0.907-0.784-0.464-1.944-0.784-2.899c-0.137-0.411-0.241-0.858-0.337-1.291
			c-0.368-1.663-1.518-2.146-3.015-2.77c-2.701-1.129-5.494-2.34-7.262-4.96c-0.679-1.005-1.484-1.923-2.252-2.865
			c-2.12-2.6-3.026-5.748-4.016-8.857c0.854-0.085,1.029,0.594,1.258,1.163c0.794,1.966,1.443,3.977,2.624,5.79
			c1.725,2.648,3.722,5.025,6.348,6.779c1.365,0.913,2.86,0.79,4.379,0.027c1.774-0.889,2.451-2.184,2.18-4.128
			c-0.117-0.846-0.157-1.691-0.365-2.536c-0.212-0.869-0.621-1.86,0.381-2.589c0.545,0.057,0.633,0.494,0.628,0.889
			c-0.023,1.761,0.947,3.267,1.233,4.96c0.224,1.323,3.083,2.177,4.389,1.44c1.035-0.582,1.857-1.413,2.619-2.312
			c0.313-0.368,0.563-0.84,1.158-0.813c0.6,0.599,0.087,1.085-0.189,1.563c-1.102,1.906-2.798,3.312-4.245,4.919
			c-1.679,1.867-2.575,3.998-2.777,6.472C44.497,61.494,44.611,61.98,45.036,62.387z"/>
		<path fill-rule="evenodd" clip-rule="evenodd" fill="#76BF44" d="M41.773,43.905c-0.506,0.748-0.428,1.632-0.132,2.325
			c0.735,1.725,0.246,3.487,0.392,5.221c0.015,0.169-0.023,0.437-0.132,0.504c-1.094,0.684-2.137,1.596-3.336,1.919
			c-1.26,0.34-2.742,0.334-3.872-0.653c-1.75-1.529-3.494-3.033-4.919-4.934c-1.808-2.413-2.995-5.075-3.974-7.868
			c-0.175-0.502-0.401-0.897-0.877-1.133c-0.87-1.192-0.854-2.664-1.007-3.996c-0.294-2.571-0.792-5.097-1.275-7.629
			c-0.076-0.396-0.245-0.849-0.128-1.192c0.524-1.549-0.291-2.797-0.812-4.115c-0.098-0.25-0.208-0.49-0.311-0.734
			c0.181,0.091,0.362,0.18,0.544,0.273c0.09,0.089,0.181,0.18,0.271,0.27c1.672,1.865,1.38,4.327,1.983,6.516
			c1.209,4.394,1.248,9.091,3.304,13.262c1.725,3.5,3.625,6.882,6.964,9.19c2.19,1.516,4.456,0.831,5.488-1.6
			c1.027-2.42,0.76-4.877,0.514-7.347c-0.077-0.774-0.039-1.534-0.018-2.299c0.007-0.303,0.037-0.668,0.519-0.599
			c0,0.18,0,0.361,0,0.543c0.152,0.146,0.25,0.322,0.297,0.525c0.046,0.674,0.254,1.311,0.472,1.943
			C41.812,42.83,42.026,43.361,41.773,43.905z"/>
		<path fill-rule="evenodd" clip-rule="evenodd" fill="#7FC243" d="M64.063,15.923c0.722-0.186,1.444-0.371,2.167-0.556
			c1.531,0.091,3.026-0.136,4.517-0.458c2.33-0.505,3.972,0.53,5.544,3.448c-0.001,0.091-0.001,0.182-0.002,0.273
			c-0.191,0.111-0.336,0.027-0.473-0.104c-0.023-0.057-0.046-0.111-0.07-0.167c-0.336-1.118-1.233-1.801-2.129-2.344
			c-0.783-0.475-1.652-0.697-2.45,0.419c-0.749,1.049-2.273,0.874-3.408,1.391c-1.458,0.667-2.924,1.335-4.279,2.162
			c-0.692,0.421-1.395,0.879-2.124,1.135c-2.12,0.741-3.043,2.393-3.705,4.332c-0.186,0.544-0.225,1.158-0.663,1.601
			c-0.211-0.364-0.188-0.728,0.01-1.088c0.645-1.805,1.289-3.609,1.934-5.413c0.43-0.247,0.569-0.698,0.784-1.095
			C61.104,18.204,62.386,16.82,64.063,15.923z"/>
		<path fill-rule="evenodd" clip-rule="evenodd" fill="#56BA49" d="M43.151,39.045c0.445-0.012,0.891-0.023,1.336-0.035
			c0.144,1.827,3.952,4.255,5.469,4.072c0.858-0.104,3.101-2.603,3.191-3.763c0.069-0.877,0.451-1.642,0.585-2.48
			c0.721-1.46,1.476-2.911,1.359-4.619c0.189-1.281,0.383-2.559,1.365-3.532c-0.004,0.542-0.008,1.083-0.012,1.625h0.002
			c-0.333,0.517-0.197,1.136-0.363,1.688c-0.411,1.061-0.482,2.196-0.725,3.294c-0.029,0.138-0.073,0.269-0.126,0.396
			c-0.495,0.938-0.771,1.978-0.806,2.996c-0.083,2.396-1.427,4.17-2.757,5.926c-1.202,1.588-2.922,1.696-4.541,0.483
			c-1.829-1.367-2.786-3.395-3.94-5.27C43.049,39.601,43.006,39.313,43.151,39.045z"/>
		<path fill-rule="evenodd" clip-rule="evenodd" fill="#92C83F" d="M80.096,45.809c-0.726,1.748-0.51,3.725-1.317,5.456
			c-0.135,0.291,0.003,0.858-0.568,0.682c-0.446-0.14-0.276-0.604-0.244-0.946c0.365-3.961,0.204-7.91,0.028-11.881
			c-0.184-4.116-0.801-8.134-1.694-12.132c-0.306-1.367-0.667-2.717-1.257-3.98c-0.315-0.676-0.359-1.269-0.114-1.931
			c0.079-0.01,0.155-0.02,0.234-0.032c0.593,0.208,0.767,0.724,0.924,1.249c1.557,5.22,2.413,10.555,2.802,15.984
			c0.174,2.414,0.282,4.824,0.272,7.241c0.381-3.414,0.369-6.84,0.111-10.261c-0.113-1.487-0.129-2.98-0.347-4.459
			c-0.071-0.479-0.058-1.007,0.424-1.35c0.642,0.386,0.371,1.067,0.444,1.589c0.681,4.837,0.848,9.697,0.464,14.571
			C80.205,45.675,80.15,45.743,80.096,45.809z"/>
		<path fill-rule="evenodd" clip-rule="evenodd" fill="#42B249" d="M56.456,28.688c-0.708,1.079-0.798,2.397-1.365,3.532
			c-0.544,2.283-1.9,4.192-2.887,6.27c-0.971,2.042-3.141,2.542-5.065,1.307c-0.493-0.316-0.81-0.707-0.743-1.326
			c1.425,1.738,4.323,1.586,5.163-0.271c2.358-3.305,3.423-7.187,4.865-10.899c0.175-0.452,0.19-0.972,0.575-1.332
			c-0.003,0.364-0.007,0.724-0.01,1.088C56.811,27.599,56.634,28.142,56.456,28.688z"/>
		<path fill-rule="evenodd" clip-rule="evenodd" fill="#7AC144" d="M80.367,34.122c0.444,0.399,0.236,0.93,0.267,1.403
			c0.126,1.93,0.114,3.87,0.172,5.797c0.112,3.71-0.16,7.445-1.412,11.015c-0.07,0.201-0.255,0.359-0.388,0.537
			c0.316-2.363,1.366-4.611,1.089-7.065h-0.001c0.316-1.513,0.076-3.041,0.136-4.562C80.324,38.873,80.075,36.493,80.367,34.122z"/>
		<path fill-rule="evenodd" clip-rule="evenodd" fill="#92C83F" d="M74.93,21.076c-0.896-1.17-1.27-2.656-2.292-3.756
			c-0.228-0.244-0.572-0.552-0.173-0.911c0.393-0.352,0.838-0.293,1.214,0.042c0.702,0.623,1.379,1.27,2.067,1.908
			c0.324,0.597,1.044,1.012,0.857,1.847c-0.88,0.246-0.919-0.796-1.538-0.997c0.055,0.633,0.42,1.29-0.135,1.865L74.93,21.076z"/>
		<path fill-rule="evenodd" clip-rule="evenodd" fill="#64BC47" d="M22.216,45.534c-0.127-0.618-0.386-1.169-0.826-1.631
			c0-0.748-0.743-1.178-0.816-1.898c0.07-0.68-0.283-1.241-0.619-1.755c-1.333-2.042-1.913-4.41-2.948-6.575
			c-0.667-1.393-0.637-2.835-0.456-4.236c0.32-2.48,0.917-4.923,1.3-7.398c0.138-0.889,1.245-0.714,1.364-1.508l0,0
			c0.271-0.185,0.543-0.184,0.815,0c-0.305,0.49-0.256,1.037-0.277,1.58c-0.096,2.431-0.111,4.872-0.169,7.3
			c-0.072,3.016,0.133,6.142,1.401,8.983c0.472,1.062,0.193,2.103,0.414,3.137c0.445,2.085,1.532,3.921,2.153,5.932
			C22.814,47.022,22.833,46.059,22.216,45.534z"/>
		<path fill-rule="evenodd" clip-rule="evenodd" fill="#73BF45" d="M15.412,62.657c0.087,0.002,0.176,0.004,0.264,0.007
			c0.002,0.18,0.005,0.359,0.009,0.537c0.211,0.905,0.215,1.812-0.003,2.718c-0.09,0.181-0.181,0.363-0.271,0.545
			c-1.424,0.809-2.002-0.356-2.313-1.248c-1.53-4.368-3.238-8.682-4.43-13.163c-0.068-0.257-0.036-0.539-0.051-0.809
			c-0.199-0.264-0.147-0.546-0.053-0.828c0.744-0.03,0.587,0.681,0.859,1.039c0.877,2.911,1.634,5.863,2.909,8.642
			c0.43,1.478,1.015,2.902,1.648,4.304c0.159,0.352,0.266,0.922,0.751,0.814c0.494-0.111,0.287-0.681,0.33-1.061
			c0.02-0.179-0.003-0.361,0.001-0.546C15.083,63.255,15.114,62.909,15.412,62.657z"/>
		<path fill-rule="evenodd" clip-rule="evenodd" fill="#70BE45" d="M8.618,50.426c-0.001,0.272-0.001,0.546-0.001,0.818
			c-1.287-4.421-1.515-8.888-0.515-13.391c0.111-0.498,0.478-0.954,0.782-1.392c0.388-0.557,0.93-0.864,1.633-0.663
			c0.775,0.219,0.504,0.964,0.467,1.37c-0.121,1.341,0.44,2.775-0.465,4.02c-0.046-0.043-0.092-0.087-0.14-0.128
			c-0.376-0.899-0.091-1.851-0.227-2.766c-0.065-0.435-0.002-1.152-0.82-0.6c-0.847,0.971-0.845,2.2-1.038,3.37
			c-0.191,1.381-0.213,2.76,0.027,4.137c0.093,0.361,0.108,0.732,0.115,1.106c0.004,0.582-0.031,1.168,0.173,1.73
			C8.599,48.834,9.111,49.63,8.618,50.426z"/>
		<path fill-rule="evenodd" clip-rule="evenodd" fill="#57BA49" d="M17.042,37.11c-1.078-1.347-2.618-1.601-4.133-0.66
			c-0.452,0.281-0.869,0.621-1.301,0.933c0.2-1.52,0.657-3.186,2.118-3.619c1.073-0.319,1.957,1.126,2.825,1.916
			c0.594,0.542,1.11,1.159,1.307,1.975C17.585,37.473,17.313,37.292,17.042,37.11z"/>
		<path fill-rule="evenodd" clip-rule="evenodd" fill="#3CA946" d="M18.947,39.557c-0.81-1.104-1.853-0.771-2.737-0.266
			c-1.054,0.603-2.136,0.53-3.244,0.535c1.079-0.875,2.541-1.037,3.61-1.933c0.435-0.363,0.854,0.027,1.28,0.033
			C18.11,38.543,18.923,38.786,18.947,39.557z"/>
		<path fill-rule="evenodd" clip-rule="evenodd" fill="#70BE45" d="M10.519,46.622c0,0.454,0,0.908,0,1.361
			C9.938,47.972,9.952,47.5,9.9,47.13c-0.153-1.093-0.453-2.179-0.224-3.3c0.228-0.637,0.204-1.307,0.236-1.971
			c0.023-0.226,0.089-0.435,0.217-0.62c0.115-0.126,0.245-0.144,0.389-0.053l0.001,0.002C10.52,43,10.52,44.81,10.519,46.622z"/>
		<path fill-rule="evenodd" clip-rule="evenodd" fill="#58BA49" d="M7.257,47.166c-0.521-0.571-0.166-1.271-0.271-1.901
			C7.507,45.837,7.152,46.535,7.257,47.166z"/>
		<path fill-rule="evenodd" clip-rule="evenodd" fill="#5EBB49" d="M20.032,20.532c-0.272,0-0.544,0-0.815,0
			c0.998-0.271,1.994-0.542,2.991-0.815C21.892,21.081,20.783,20.333,20.032,20.532z"/>
		<path fill-rule="evenodd" clip-rule="evenodd" fill="#138A39" d="M32.004,59.637c-0.006,0.103-0.012,0.204-0.02,0.307
			c-0.829-0.621-1.554-1.345-2.173-2.173c0.104-0.008,0.208-0.013,0.312-0.02C30.833,58.299,31.458,58.929,32.004,59.637z"/>
		<path fill-rule="evenodd" clip-rule="evenodd" fill="#7BC144" d="M40.959,39.286c-0.539,0.735-0.31,1.58-0.215,2.348
			c0.243,1.956,0.52,3.903,0.2,5.864c-0.203,1.244-0.679,2.425-1.296,3.522c-0.779,1.386-3.897,1.719-5.455,0.433
			c-5.151-4.256-7.956-9.739-9.029-16.253c-0.443-2.694-1.238-5.333-1.64-8.031c-0.26-1.737-0.728-3.377-1.319-5.007
			c0.659,0.537,1.43,0.977,1.631,1.902c0.282,1.801,0.588,3.566,1.46,5.236c0.918,1.765,0.981,3.822,1.474,5.738
			c0.986,3.835,2.374,7.464,4.771,10.64c1.116,1.479,2.638,2.432,4.455,2.823c1.058,0.229,2.403-0.978,2.909-2.364
			c0.715-1.962,0.829-4.037,1.215-6.058c0.134-0.696,0.288-1.226,1.079-1.309C41.12,38.942,41.039,39.113,40.959,39.286z"/>
		<path fill-rule="evenodd" clip-rule="evenodd" fill="#8EC640" d="M25.739,25.967c1.009,0.505,0.714,1.879,1.63,2.448
			c1.212,2.395,2.469,4.766,4.089,6.914c0.693,0.918,1.561,1.67,2.195,2.688c1.225,1.96,3.367,2.045,4.928,0.4
			c0.111-0.118,0.314-0.148,0.475-0.218c-0.098,0.25-0.181,0.509-0.294,0.753c-1.024,2.205-4.08,2.656-5.18,0.563
			c-1.046-1.991-2.852-3.368-3.818-5.308C28.403,31.473,26.716,28.89,25.739,25.967z"/>
		<path fill-rule="evenodd" clip-rule="evenodd" fill="#88C541" d="M55.908,31.947c-0.029-0.613,0.026-1.199,0.538-1.635
			c0.001,0.274,0.003,0.547,0.006,0.821c-0.001,0.271-0.002,0.541-0.002,0.813c-0.257,0.421-0.301,0.883-0.271,1.358
			c0.094,0.093,0.133,0.207,0.129,0.338c-0.077,0.438-0.065,0.889-0.184,1.323c-0.055,0.131-0.14,0.233-0.254,0.313
			c-0.153,0.021-0.274-0.03-0.368-0.149c-0.073-0.13-0.111-0.264-0.118-0.411C55.458,33.775,55.648,32.856,55.908,31.947z"/>
		<path fill-rule="evenodd" clip-rule="evenodd" fill="#4FB849" d="M13.785,21.081c0.179-0.003,0.358-0.005,0.536-0.007
			c0.273,0,0.546,0,0.818,0.001c-0.188,0.48-0.687,0.551-1.047,0.807c-1.167,0.828-2.252,1.703-1.949,3.39
			c0.121,0.67-0.203,1.258-0.55,1.78c-2.025,3.042-3.417,6.365-4.429,9.861c-0.023,0.077-0.117,0.131-0.178,0.196
			c-0.292-1.938,0.534-3.668,1.261-5.316c0.906-2.051,1.365-4.258,2.48-6.245c0.619-1.104,1.134-2.224,2.075-3.096
			c0.325-0.301,0.712-0.581,0.708-1.103C13.54,21.199,13.63,21.106,13.785,21.081z"/>
		<path fill-rule="evenodd" clip-rule="evenodd" fill="#4FB849" d="M6.715,45.265c-0.001,0.091-0.001,0.182-0.002,0.272
			c-0.561-2.204-0.284-4.436-0.135-6.649c0.037-0.559-0.116-1.28,0.408-1.777C6.951,39.829,6.538,42.537,6.715,45.265z"/>
		<path fill-rule="evenodd" clip-rule="evenodd" fill="#88C541" d="M76.561,20.261c0.017-0.759-0.755-1.179-0.815-1.902
			c0.181,0.089,0.362,0.18,0.543,0.271c2.547,4.852,3.593,10.098,4.078,15.492c0,3.428,0.007,6.855-0.009,10.283
			c-0.001,0.474,0.18,1.004-0.263,1.403c0-3.329,0.115-6.662-0.042-9.985c-0.099-2.109-0.084-4.271-0.773-6.322
			c-0.769-1.063-0.712-2.376-1.085-3.559c-0.282-0.897-0.511-1.81-0.778-2.713c-0.115-0.978-0.697-1.811-0.866-2.774
			C76.554,20.391,76.558,20.325,76.561,20.261z"/>
		<path fill-rule="evenodd" clip-rule="evenodd" fill="#20943E" d="M58.354,20.807c-0.04,0.431-0.192,0.808-0.539,1.087
			C57.778,21.425,57.858,21.012,58.354,20.807z"/>
		<path fill-rule="evenodd" clip-rule="evenodd" fill="#228D3B" d="M7.801,27.055c-0.065-0.653,0.263-1.074,0.812-1.36
			C8.56,26.277,8.157,26.65,7.801,27.055z"/>
		<path fill-rule="evenodd" clip-rule="evenodd" fill="#A0CC3B" d="M56.176,33.576c0-0.09,0.001-0.181,0.002-0.271
			c0.582-1.289,1.56-2.301,2.469-3.335c1.15-1.31,2.796-1.256,4.371-1.263c0.476-0.002,0.749,0.318,0.756,0.791
			c0.046,2.997-0.062,5.781-2.802,7.988c-2.129,1.716-3.946,3.966-4.25,6.962c-0.272,0.997-0.543,1.993-0.815,2.99
			c-0.589,2.725-1.538,5.323-2.826,7.788c-0.219,0.418-0.403,1.357-1.198,0.908c-0.595-0.335-0.363-1.036-0.121-1.592
			c1.017-2.33,1.481-4.798,1.859-7.29c0.02-0.131,0.011-0.27,0.014-0.403c0.057-0.901,0.302-1.771,0.388-2.668
			c0.538-1.908,0.603-3.895,0.957-5.834c0.105-0.576,0.141-1.158,0.457-1.671c0.084-0.118,0.203-0.185,0.349-0.195
			c0.675,0.461,0.42,1.121,0.329,1.718c-0.309,2.021-0.752,4.023-0.756,6.033c0.729-0.765,0.804-1.845,1.166-2.802
			c0.855-2.26,2.337-4.163,3.488-6.252c0.519-0.943,0.258-1.845,0.334-2.755c0.044-0.521-0.608-0.374-0.987-0.382
			c-0.655-0.016-1.043,0.418-1.452,0.863c-0.493,0.539-0.845,1.327-1.786,1.232C56.038,33.94,56.024,33.75,56.176,33.576z"/>
		<path fill-rule="evenodd" clip-rule="evenodd" fill="#138A39" d="M27.098,55.32c0.392,0,0.663,0.184,0.815,0.544
			C27.464,55.949,26.971,56.1,27.098,55.32z"/>
		<path fill-rule="evenodd" clip-rule="evenodd" fill="#138A39" d="M34.708,62.115c-0.009,0.353-0.189,0.534-0.543,0.542
			c-0.173-0.271,0.327-0.544-0.002-0.813C34.388,61.848,34.59,61.896,34.708,62.115z"/>
		<path fill-rule="evenodd" clip-rule="evenodd" fill="#228D3B" d="M13.785,21.081c-0.092,0.091-0.184,0.18-0.275,0.269
			c-0.275,0.176-0.548,0.351-0.824,0.525c-0.821,0.527-1.33,1.408-2.169,1.913c-0.269,0.094-0.539,0.188-0.809,0.283
			c1.075-1.439,2.298-2.697,4.071-3.27C13.782,20.896,13.783,20.988,13.785,21.081z"/>
		<path fill-rule="evenodd" clip-rule="evenodd" fill="#3FAB46" d="M5.899,40.371c-0.021-1.562-0.004-3.122,0.544-4.619
			C6.46,37.314,6.303,38.858,5.899,40.371z"/>
		<path fill-rule="evenodd" clip-rule="evenodd" fill="#3FAB46" d="M10.517,23.789c0.629-0.744,1.16-1.6,2.17-1.913
			c-0.723,0.822-1.445,1.642-2.168,2.461C10.519,24.155,10.518,23.97,10.517,23.789z"/>
		<path fill-rule="evenodd" clip-rule="evenodd" fill="#3FAB46" d="M6.443,35.752c-0.03-1.077,0.044-2.13,0.815-2.99
			C7.086,33.785,6.919,34.811,6.443,35.752z"/>
		<path fill-rule="evenodd" clip-rule="evenodd" fill="#3FAB46" d="M6.171,46.623c-0.544-0.766-0.153-1.635-0.271-2.446
			C6.442,44.942,6.051,45.812,6.171,46.623z"/>
		<path fill-rule="evenodd" clip-rule="evenodd" fill="#3FAB46" d="M8.073,30.315c-0.022-0.611,0.015-1.202,0.543-1.629
			C8.639,29.297,8.603,29.89,8.073,30.315z"/>
		<path fill-rule="evenodd" clip-rule="evenodd" fill="#3FAB46" d="M9.705,25.969c-0.068-0.714,0.397-1.16,0.814-1.632
			C10.586,25.051,10.121,25.497,9.705,25.969z"/>
		<path fill-rule="evenodd" clip-rule="evenodd" fill="#3FAB46" d="M7.258,32.762c0.003-0.523-0.089-1.085,0.542-1.356
			C7.818,31.935,7.69,32.41,7.258,32.762z"/>
		<path fill-rule="evenodd" clip-rule="evenodd" fill="#3FAB46" d="M9.16,27.327c-0.024-0.466,0.049-0.882,0.544-1.088
			C9.66,26.67,9.514,27.051,9.16,27.327z"/>
		<path fill-rule="evenodd" clip-rule="evenodd" fill="#7FC243" d="M56.178,49.613c0.091,0,0.182,0,0.273,0
			c-0.721,4.065-2.173,7.756-5.492,10.443c-0.432,0.35-1.054,0.583-1.611,0.637c-1.114,0.106-2.045,0.575-2.955,1.147
			c-0.09,0.002-0.18,0.003-0.27,0.003c-0.775-0.94-0.255-2.011-0.255-3.017c0.001-0.562,0.264-1.154,0.618-1.621
			c1.828-2.393,3.235-5.056,4.908-7.547c0.304-0.452,0.531-1.062,1.22-1.131c0.49,0.49,0.289,1.026,0.016,1.494
			c-1.485,2.542-2.362,5.37-3.783,7.944c-0.323,0.586-0.258,1.295-0.733,2.178c0.806-0.546,1.37-0.815,2.004-0.874
			c0.109-0.046,0.221-0.086,0.332-0.127c0.394-0.147,0.669-0.431,0.886-0.781c0.499-0.603,0.891-1.287,1.418-1.87
			c0.054-0.028,0.109-0.056,0.164-0.086C54.886,54.565,55.297,51.976,56.178,49.613z"/>
		<path fill-rule="evenodd" clip-rule="evenodd" fill="#60BD4B" d="M15.682,65.919c0.001-0.906,0.002-1.813,0.003-2.718
			C16.103,64.106,16.107,65.013,15.682,65.919z"/>
		<path fill-rule="evenodd" clip-rule="evenodd" fill="#7BC144" d="M52.646,48.525c-1.766,1.947-2.786,4.362-4.151,6.562
			c-0.728,1.171-1.871,2.063-2.249,3.487c-0.29,1.095,0.014,2.187-0.123,3.27c-0.277,0.354-0.659,0.495-1.088,0.543
			c-0.654,0.03-0.909,0.018-0.898-0.927c0.045-4.104,2.356-6.858,5.078-9.509c1.124-1.096,2.315-2.272,2.615-3.97
			c0.007-0.058,0.014-0.116,0.02-0.175c0.158-0.381,0.375-0.734,0.565-1.1c0.066-0.106,0.146-0.199,0.24-0.281
			c0.224-0.133,0.447-0.266,0.662,0.012c0.261,0.772-0.359,1.305-0.527,1.962C52.743,48.443,52.693,48.483,52.646,48.525z"/>
		<path fill-rule="evenodd" clip-rule="evenodd" fill="#55B949" d="M67.05,14.825c1.147,0.04,1.662-1.115,2.696-1.393
			c1.485-0.399,2.736-0.281,3.824,0.852c-1.647-0.818-3.185-0.668-4.704,0.394c-0.586,0.409-1.35,0.493-2.09,0.416
			C66.867,15.005,66.958,14.916,67.05,14.825z"/>
		<path fill-rule="evenodd" clip-rule="evenodd" fill="#1B8D3B" d="M52.373,32.488c0-0.27,0.001-0.541,0.001-0.813
			c0.791-1.908,1.954-3.58,3.26-5.163C54.849,28.667,53.748,30.654,52.373,32.488z"/>
		<path fill-rule="evenodd" clip-rule="evenodd" fill="#9BCA3D" d="M54.003,46.894c-0.323,2.684-0.809,5.331-1.956,7.806
			c-0.203,0.439-0.42,1.02-0.041,1.23c0.565,0.315,0.716-0.432,0.89-0.76c1.225-2.306,2.021-4.78,2.752-7.278
			c0.048-0.162,0.17-0.304,0.257-0.452c0,0.362,0,0.724,0,1.086c-0.731,2.452-1.5,4.89-2.831,7.104
			c-0.129,0.216-0.109,0.518-0.158,0.777l0,0c-0.277,0.41-0.584,0.8-0.864,1.209c-0.312,0.453-0.742,0.874-1.36,0.575
			c-0.665-0.321-0.52-0.952-0.267-1.41c0.73-1.321,0.91-2.836,1.552-4.177c0.242-0.505,0.314-1.029,0.313-1.575
			c0.011-0.359,0.118-0.687,0.325-0.979c0.471-0.689,0.446-1.492,0.52-2.274c0.021-0.204,0.091-0.396,0.193-0.575
			C53.493,46.965,53.67,46.758,54.003,46.894z"/>
		<path fill-rule="evenodd" clip-rule="evenodd" fill="#7CC143" d="M9.976,43.634c-0.022,1.476,0.035,2.94,0.543,4.35
			c0.061,1.754,0.89,3.275,1.483,4.863c1.03,2.769,2.157,5.506,2.592,8.456c-0.15,0.084-0.284,0.063-0.403-0.059
			c-2.757-6.793-5.854-13.508-4.816-21.187c-0.661,1.294-0.855,2.967-0.586,5.089c0.193,1.524,0.262,3.065,0.622,4.571
			c0.145,0.607,0.262,1.257-0.249,1.796c-0.44-0.232-0.104-0.852-0.543-1.088c-0.064-0.817-0.404-1.604-0.273-2.444
			c-0.339-0.502,0.083-1.131-0.27-1.629c-0.001-0.364-0.001-0.726-0.001-1.088c-0.215-1.449-0.215-2.899,0-4.348
			c-0.013-1.294,0.092-2.552,1.087-3.535c0.927-0.435,1.16,0.235,1.186,0.875c0.041,0.974,0.174,1.964-0.099,2.93
			c0,0.182,0,0.364,0,0.544C9.88,42.325,10.33,43.037,9.976,43.634z"/>
		<path fill-rule="evenodd" clip-rule="evenodd" fill="#91C73F" d="M14.325,61.299c0.089,0,0.179,0,0.269,0.004
			c0.091,0.359,0.184,0.722,0.275,1.084c0.326,0.4,0.379,0.879,0.401,1.37c0.01,0.384-0.049,0.777-0.494,0.835
			c-0.457,0.058-0.715-0.303-0.947-0.653c-0.756-1.141-1.06-2.476-1.562-3.722c-1.289-3.085-2.44-6.212-2.919-9.541
			c-0.032-0.226-0.064-0.451-0.044-0.675c0.031-0.319-0.258-0.827,0.275-0.888c0.426-0.047,0.531,0.453,0.605,0.779
			C11.098,53.864,12.812,57.544,14.325,61.299z"/>
		<path fill-rule="evenodd" clip-rule="evenodd" fill="#7CC143" d="M15.141,63.744c-0.091-0.451-0.182-0.907-0.272-1.357
			c0.18,0,0.36,0,0.541,0.001c0,0.09,0.001,0.18,0.002,0.27c-0.001,0.362-0.001,0.726-0.001,1.09
			C15.32,63.868,15.23,63.868,15.141,63.744z"/>
		<path fill-rule="evenodd" clip-rule="evenodd" fill="#71BE45" d="M40.959,40.371c0-0.181,0-0.361,0-0.542
			c0.367-0.262,0.471-0.878,1.086-0.804c0.355,2.098,1.452,3.95,1.955,6.019c0.325,1.335,1.545,2.316,2.625,3.2
			c0.903,0.74,2.16,0.623,3.119-0.137c1.095-0.866,2.144-1.779,2.583-3.183c0.141-0.609,0.525-1.118,0.676-1.723
			c0.872-1.793,1.251-3.716,1.501-5.674c0.092-0.712,0.285-1.396,0.585-2.049l0,0c0.154-0.09,0.284-0.064,0.392,0.079
			c0.023,1.858-0.534,3.635-0.777,5.456c-0.012,0.087-0.024,0.175-0.028,0.265c-0.18,0.968-0.288,1.956-0.684,2.874
			c-0.465,0.815-0.733,1.737-1.349,2.47l0,0c-0.347,0.409-0.49,0.938-0.815,1.358l0,0c-1.26,1.13-2.176,2.59-3.712,3.469
			c-1.659,0.945-4.688-0.422-5.019-2.273c-0.318-1.777-1.113-3.455-1.325-5.271c-0.324-0.505-0.277-1.072-0.272-1.631
			C41.278,41.652,41.202,40.989,40.959,40.371z"/>
		<path fill-rule="evenodd" clip-rule="evenodd" fill="#61BC48" d="M55.09,35.479c-0.494,2.224-0.589,4.525-1.332,6.704
			c-0.146,0.426-0.189,0.875-0.57,1.178c-0.528,0.892-1.1,1.748-1.821,2.501c-1.654,1.729-3.731,1.661-5.34-0.292
			c-1.521-1.845-2.564-3.99-3.554-6.156c-0.008-0.141,0.033-0.262,0.12-0.369c0.186,0,0.371,0,0.557,0
			c1.182,2.078,2.338,4.148,4.184,5.778c1.671,1.476,3.608,0.407,4.553-0.952c1.394-2.008,2.243-4.136,2.427-6.571
			C54.363,36.658,54.54,35.96,55.09,35.479z"/>
		<path fill-rule="evenodd" clip-rule="evenodd" fill="#6ABD46" d="M42.594,39.045c-0.002,0.08-0.004,0.16-0.004,0.241
			c0.949,2.265,1.742,4.621,3.231,6.604c1.651,2.197,3.925,2.128,5.603-0.054c0.313-0.407,0.528-0.978,1.221-0.846
			c-0.298,1.425-2.843,4.011-4.043,4.071c-1.224,0.064-2.21-0.271-3.05-1.316c-1.065-1.323-2.15-2.488-2.36-4.351
			c-0.116-1.03-0.801-2.061-1.206-3.104c-0.185-0.475-0.195-0.854,0.06-1.266C42.229,39.031,42.411,39.038,42.594,39.045z"/>
		<path fill-rule="evenodd" clip-rule="evenodd" fill="#75BF44" d="M40.959,40.371c0.456,0.556,0.56,1.213,0.542,1.903
			C41.045,41.719,40.942,41.063,40.959,40.371z"/>
		<path fill-rule="evenodd" clip-rule="evenodd" fill="#61BC48" d="M55.362,35.479c-0.09,0-0.181,0-0.272,0
			c0.092-1.219,0.141-2.448,0.818-3.532c-0.092,0.993-0.184,1.988-0.277,2.983C55.454,35.07,55.572,35.354,55.362,35.479z"/>
		<path fill-rule="evenodd" clip-rule="evenodd" fill="#9FCC3C" d="M77.648,22.979c0.758,2.12,1.338,4.285,1.631,6.522
			c0.329,4.533,0.718,9.066,0.535,13.62c-0.04,0.985-0.184,1.965-0.269,2.947c-0.027,0.307-0.169,0.566-0.46,0.583
			c-0.55,0.034-0.341-0.437-0.337-0.685c0.034-2.704-0.046-5.403-0.279-8.101c-0.431-4.966-1.079-9.889-2.597-14.664
			c-0.237-0.744-0.062-1.667-0.94-2.128c-0.058-0.609,0.174-1.266-0.306-1.808c-0.205-0.229-0.256-0.512,0.033-0.687
			c0.312-0.192,0.483,0.127,0.655,0.306c0.429,0.444,0.833,0.916,1.248,1.375l0,0C76.917,21.17,77.213,22.101,77.648,22.979z"/>
		<path fill-rule="evenodd" clip-rule="evenodd" fill="#87C541" d="M14.325,61.299c-1.644-2.896-2.886-5.959-3.808-9.155
			c-0.27-0.936-0.523-1.877-0.939-2.775c0.122,3.831,1.595,7.31,2.844,10.844c-0.091,0.131-0.183,0.131-0.274,0.001
			c-1.395-2.285-1.877-4.899-2.679-7.396c-0.137-0.425-0.207-0.869-0.308-1.304c0.126-1.865-0.477-3.65-0.664-5.481
			C8.283,43.938,8.368,41.9,8.67,39.85c0.055-0.367,0.191-0.96,0.659-0.896c0.497,0.067,0.352,0.646,0.374,1.037
			c0.129,2.431-0.148,4.86,0.211,7.304c0.399,2.704,1.356,5.212,2.231,7.763C12.862,57.142,13.891,59.117,14.325,61.299z"/>
		<path fill-rule="evenodd" clip-rule="evenodd" fill="#87C442" d="M12.148,60.213c0.091,0,0.182,0,0.274-0.001
			c0.695,1.139,0.847,2.528,1.668,3.608c0.398,0.526,0.781,1.063,1.051-0.076c0.09,0.001,0.18,0.001,0.27,0.003
			c-0.187,0.716,0.501,1.91-0.627,2.059c-0.95,0.124-0.984-1.09-1.307-1.789C12.915,62.791,12.293,61.585,12.148,60.213z"/>
		<path fill-rule="evenodd" clip-rule="evenodd" fill="#73BF45" d="M10.248,41.187c0-0.856,0.02-1.717-0.01-2.573
			c-0.024-0.678-0.198-1.277-1.077-1.231c0.962-1.058,1.24-0.125,1.32,0.562c0.125,1.068,0.036,2.16,0.038,3.243
			C10.428,41.187,10.337,41.187,10.248,41.187z"/>
		<path fill-rule="evenodd" clip-rule="evenodd" fill="#73BF45" d="M8.073,40.917c0,1.448,0,2.898,0,4.348
			C7.63,43.815,7.63,42.365,8.073,40.917z"/>
		<path fill-rule="evenodd" clip-rule="evenodd" fill="#73BF45" d="M8.074,46.353c0.491,0.476,0.183,1.085,0.27,1.629
			C7.853,47.504,8.161,46.894,8.074,46.353z"/>
		<path fill-rule="evenodd" clip-rule="evenodd" fill="#73BF45" d="M9.976,43.634c0.105-0.632-0.249-1.33,0.271-1.903
			C10.143,42.363,10.498,43.061,9.976,43.634z"/>
		<path fill-rule="evenodd" clip-rule="evenodd" fill="#88C541" d="M55.362,35.479c0.008-0.222,0.058-0.426,0.269-0.549
			c0.001,0.094,0.004,0.188,0.006,0.283c0.366,0.45,0.36,0.901-0.002,1.353c-0.36,2.344-0.715,4.684-1.087,7.024
			c-0.033,0.205-0.176,0.395-0.27,0.589c-0.045-0.057-0.091-0.116-0.137-0.173c-0.113-0.89,0.283-1.697,0.405-2.548
			C54.818,39.466,55.09,37.473,55.362,35.479z"/>
		<path fill-rule="evenodd" clip-rule="evenodd" fill="#A0CC3B" d="M55.906,35.208c-0.001-0.091,0-0.181,0-0.271
			c0.162-0.088,0.296-0.058,0.404,0.09c0.163,0.532,0.422,1.095-0.424,1.294C55.732,35.947,55.697,35.575,55.906,35.208z"/>
		<path fill-rule="evenodd" clip-rule="evenodd" fill="#9BCA3D" d="M56.178,34.938c-0.09,0-0.181,0-0.271,0
			c0.063-0.461-0.176-0.98,0.27-1.361c0.001,0.182,0.002,0.364,0.002,0.546C56.405,34.394,56.413,34.664,56.178,34.938z"/>
		<path fill-rule="evenodd" clip-rule="evenodd" fill="#9BCA3D" d="M55.906,35.208c0,0.362,0,0.726,0,1.087
			c0.06,0.061,0.08,0.121,0.06,0.182s-0.04,0.09-0.06,0.09c-0.09,0-0.181,0-0.271,0c0.001-0.451,0.001-0.902,0.002-1.353
			C55.727,35.21,55.816,35.208,55.906,35.208z"/>
		<path fill-rule="evenodd" clip-rule="evenodd" fill="#92C83F" d="M77.648,22.979c-0.682-0.778-0.97-1.714-1.087-2.717
			C77.157,21.073,77.511,21.983,77.648,22.979z"/>
		<path fill-rule="evenodd" clip-rule="evenodd" fill="#A5CD3A" d="M55.906,36.566c0-0.09,0-0.182,0-0.271
			c0.454-0.379,0.206-0.9,0.271-1.357c0-0.273,0-0.544,0-0.815c0.493-0.459,1.137-0.835,1.443-1.397
			c0.535-0.977,1.299-1.142,2.263-1.052c0.721,0.065,0.889,0.04,0.914,1.121c0.076,3.321-2.655,5.169-3.564,7.907
			c-0.445,1.341-0.947,2.664-1.4,4.001c-0.099,0.289-0.227,0.52-0.545,0.451c-0.367-0.081-0.464-0.382-0.413-0.735
			c0.286-2.039,0.533-4.083,0.881-6.11C55.857,37.722,55.882,37.149,55.906,36.566z"/>
		<path fill-rule="evenodd" clip-rule="evenodd" fill="#88C541" d="M54.003,46.894c-0.18,0.091-0.36,0.185-0.54,0.276
			c-0.27-1.145-0.253-2.212,0.811-2.993l0.004,0.003C54.438,45.109,53.965,45.975,54.003,46.894z"/>
		<path fill-rule="evenodd" clip-rule="evenodd" fill="#88C541" d="M52.917,50.157c-0.318,0.194-0.26,0.515-0.271,0.814
			c-0.672,2.116-1.658,4.113-2.378,6.213c-0.271,0.787-0.474,1.53,0.204,2.212c-0.928,0.235-1.731,0.761-2.687,1.139
			c0.512-1.088,0.46-2.253,1.116-3.331c0.941-1.546,1.457-3.343,2.218-5.003c0.553-1.209,1.515-2.243,1.527-3.676
			c0.155-0.088,0.282-0.059,0.384,0.088C53.104,49.135,53.113,49.653,52.917,50.157z"/>
		<path fill-rule="evenodd" clip-rule="evenodd" fill="#89C541" d="M50.471,59.396c-1.107-0.229-1.063-0.742-0.692-1.723
			c0.862-2.277,1.675-4.567,2.866-6.702c-0.083,1.824-1.017,3.404-1.501,5.115c-0.095,0.334-0.323,0.632-0.457,0.959
			c-0.128,0.316-0.402,0.693,0.096,0.921c0.369,0.17,0.704,0.002,0.973-0.277c0.399-0.416,0.56-1.048,1.161-1.283
			c-0.17,0.902-0.916,1.444-1.36,2.175C51.172,58.822,50.848,59.144,50.471,59.396z"/>
		<path fill-rule="evenodd" clip-rule="evenodd" fill="#88C541" d="M50.471,59.396c0.239-0.435,0.536-0.794,1.086-0.815
			C51.319,59.018,51.021,59.377,50.471,59.396z"/>
		<path fill-rule="evenodd" clip-rule="evenodd" fill="#7FC243" d="M52.917,48.525c-0.09,0-0.181,0-0.271,0
			c-0.255-0.833,0.654-1.376,0.543-2.173c-0.268-0.838,0.371-1.449,0.543-2.176c0.299-0.897,0.311-1.883,0.814-2.718
			c-0.091,0.906-0.182,1.813-0.273,2.718c-0.372,0.97-0.838,1.914-0.811,2.993c0,0.181-0.001,0.36-0.002,0.539
			C53.207,47.935,53.253,48.357,52.917,48.525z"/>
		<path fill-rule="evenodd" clip-rule="evenodd" fill="#75BF44" d="M53.732,44.177c-0.182,0.724-0.363,1.45-0.543,2.176
			c-0.181,0.09-0.362,0.18-0.543,0.271C52.872,45.748,53.078,44.864,53.732,44.177z"/>
		<path fill-rule="evenodd" clip-rule="evenodd" fill="#75BF44" d="M51.83,47.981c0.094-0.559,0.267-1.07,0.815-1.358
			C52.551,47.184,52.377,47.695,51.83,47.981z"/>
		<path fill-rule="evenodd" clip-rule="evenodd" fill="#89C541" d="M52.917,48.525c0.001-0.393,0.183-0.663,0.544-0.816
			c0.018,0.862-0.081,1.693-0.544,2.448C52.917,49.611,52.917,49.069,52.917,48.525z"/>
		<path fill-rule="evenodd" clip-rule="evenodd" fill="#64BC47" d="M52.645,44.991c-0.488,0.216-0.701,0.674-0.981,1.083
			c-1.415,2.069-4.268,2.574-5.943,0.264c-1.537-2.121-2.636-4.457-3.131-7.052c1.146,1.947,2.276,3.903,3.443,5.84
			c1.207,2.004,3.558,2.142,5.172,0.421c0.673-0.719,1.132-1.633,1.984-2.186C53.354,44.021,52.65,44.391,52.645,44.991z"/>
	</g>
</g>
</svg>
